*
%FSLAX26Y26*%
%MOIN*%
%ADD10C,0.010000*%
%ADD11C,0.126000*%
%IPPOS*%
%LNp-1o.gbx*%
%LPD*%
G75*
G54D10*
X00500000Y02157481D02*
X02334646D01*
Y00500000D01*
X00500000D01*
Y02157481D01*
X01488189Y01801181D02*
X01487697Y01807389D01*
X01486232Y01813441D01*
X01483831Y01819187D01*
X01480554Y01824482D01*
X01476483Y01829194D01*
X01471721Y01833205D01*
X01466385Y01836416D01*
X01460610Y01838745D01*
X01454540Y01840134D01*
X01448819Y01840552D01*
X01488189Y00773622D02*
Y00816930D01*
X00732284Y00773622D02*
X00732776Y00767415D01*
X00734241Y00761363D01*
X00736642Y00755617D01*
X00739919Y00750322D01*
X00743990Y00745610D01*
X00748753Y00741599D01*
X00754088Y00738388D01*
X00759864Y00736059D01*
X00765934Y00734670D01*
X00771654Y00734252D01*
X00732284Y01490158D02*
Y01801181D01*
X01375985Y00734252D02*
X01448819D01*
X00771654Y01840552D02*
X01448819D01*
Y00734252D02*
X01455027Y00734745D01*
X01461079Y00736210D01*
X01466825Y00738611D01*
X01472120Y00741888D01*
X01476832Y00745958D01*
X01480843Y00750721D01*
X01484054Y00756057D01*
X01486382Y00761832D01*
X01487772Y00767902D01*
X01488189Y00773622D01*
X01053150Y00734252D02*
X01218504D01*
X01017717D02*
X00771654D01*
X01488189Y00816930D02*
Y01377953D01*
Y01539370D02*
Y01722441D01*
Y01801181D02*
Y01722441D01*
X01375985Y00812930D02*
X01369780Y00812437D01*
X01363730Y00810972D01*
X01357987Y00808571D01*
X01352695Y00805294D01*
X01347986Y00801224D01*
X01343978Y00796462D01*
X01340771Y00791127D01*
X01338446Y00785353D01*
X01337060Y00779285D01*
X01336650Y00773074D01*
X01337224Y00766876D01*
X01338768Y00760846D01*
X01341244Y00755135D01*
X01344590Y00749886D01*
X01348722Y00745231D01*
X01353537Y00741286D01*
X01358913Y00738150D01*
X01364717Y00735900D01*
X01370803Y00734595D01*
X01375985Y00734252D01*
X00732284Y01490158D02*
X00732776Y01483953D01*
X00734241Y01477903D01*
X00736642Y01472160D01*
X00739919Y01466868D01*
X00743989Y01462159D01*
X00748752Y01458151D01*
X00754087Y01454944D01*
X00759861Y01452619D01*
X00765929Y01451233D01*
X00772140Y01450823D01*
X00778338Y01451397D01*
X00784368Y01452941D01*
X00790078Y01455417D01*
X00795327Y01458763D01*
X00799982Y01462895D01*
X00803928Y01467710D01*
X00807064Y01473087D01*
X00809313Y01478890D01*
X00810618Y01484977D01*
X00810961Y01490158D01*
X01409512Y01539370D02*
X01410005Y01533165D01*
X01411470Y01527116D01*
X01413871Y01521373D01*
X01417147Y01516081D01*
X01421218Y01511372D01*
X01425980Y01507363D01*
X01431315Y01504157D01*
X01437089Y01501831D01*
X01443157Y01500446D01*
X01449368Y01500035D01*
X01455566Y01500609D01*
X01461596Y01502154D01*
X01467307Y01504630D01*
X01472556Y01507976D01*
X01477211Y01512108D01*
X01481156Y01516923D01*
X01484292Y01522299D01*
X01486541Y01528103D01*
X01487847Y01534189D01*
X01488189Y01539370D01*
X00771654Y01840552D02*
X00765447Y01840059D01*
X00759394Y01838594D01*
X00753649Y01836193D01*
X00748354Y01832916D01*
X00743642Y01828846D01*
X00739630Y01824083D01*
X00736420Y01818747D01*
X00734091Y01812972D01*
X00732702Y01806902D01*
X00732284Y01801181D01*
X01218504Y00734252D02*
X01224709Y00734745D01*
X01230759Y00736210D01*
X01236502Y00738611D01*
X01241794Y00741887D01*
X01246503Y00745958D01*
X01250511Y00750720D01*
X01253718Y00756055D01*
X01256044Y00761829D01*
X01257429Y00767897D01*
X01257840Y00774108D01*
X01257266Y00780306D01*
X01255721Y00786336D01*
X01253245Y00792047D01*
X01249899Y00797296D01*
X01245767Y00801951D01*
X01240952Y00805896D01*
X01235576Y00809032D01*
X01229772Y00811281D01*
X01223686Y00812587D01*
X01218504Y00812930D01*
X01488189Y01377953D02*
X01487697Y01384158D01*
X01486232Y01390208D01*
X01483831Y01395951D01*
X01480554Y01401243D01*
X01476484Y01405952D01*
X01471722Y01409960D01*
X01466387Y01413167D01*
X01460613Y01415492D01*
X01454544Y01416878D01*
X01448334Y01417288D01*
X01442136Y01416714D01*
X01436106Y01415170D01*
X01430395Y01412694D01*
X01425146Y01409348D01*
X01420491Y01405216D01*
X01416546Y01400401D01*
X01413409Y01395025D01*
X01411160Y01389221D01*
X01409855Y01383134D01*
X01409512Y01377953D01*
X00810961Y01332678D02*
X00810469Y01338883D01*
X00809004Y01344932D01*
X00806603Y01350675D01*
X00803326Y01355967D01*
X00799256Y01360676D01*
X00794493Y01364685D01*
X00789158Y01367891D01*
X00783385Y01370217D01*
X00777316Y01371602D01*
X00771105Y01372013D01*
X00764907Y01371439D01*
X00758877Y01369894D01*
X00753167Y01367418D01*
X00747918Y01364072D01*
X00743263Y01359940D01*
X00739318Y01355125D01*
X00736181Y01349749D01*
X00733932Y01343945D01*
X00732627Y01337859D01*
X00732284Y01332678D01*
Y00773622D01*
X00810961Y00812930D02*
X01009843D01*
X01409512D02*
Y01377953D01*
Y01565406D02*
X01373279Y01726441D01*
X00851208D01*
X00810961Y01565454D01*
Y01490158D01*
X01061024Y00812930D02*
X01218504D01*
X01051182Y00799213D02*
Y00803087D01*
X01027560Y00748032D02*
X01027070Y00751097D01*
X01025651Y00753857D01*
X01024677Y00754992D01*
X01043308Y00748032D02*
X01043798Y00744283D01*
X01045237Y00740787D01*
X01047528Y00737778D01*
X01050515Y00735461D01*
X01053150Y00734252D01*
X01017717D02*
X01021104Y00735932D01*
X01023945Y00738428D01*
X01026048Y00741570D01*
X01027271Y00745148D01*
X01027560Y00748032D01*
X01046190Y00754992D02*
X01061024Y00779528D01*
X01046190Y00754992D02*
X01044369Y00752478D01*
X01043421Y00749523D01*
X01043308Y00748032D01*
X01019686Y00803087D02*
X01019196Y00806152D01*
X01017777Y00808912D01*
X01015568Y00811093D01*
X01012791Y00812478D01*
X01009843Y00812930D01*
X01061024D02*
X01057959Y00812440D01*
X01055199Y00811021D01*
X01053018Y00808812D01*
X01051633Y00806035D01*
X01051182Y00803087D01*
X01019686D02*
Y00799213D01*
X01009843Y00789370D02*
X01012908Y00789860D01*
X01015668Y00791279D01*
X01017849Y00793488D01*
X01019234Y00796265D01*
X01019686Y00799213D01*
X01009843Y00789370D02*
Y00779528D01*
X01024677Y00754992D01*
X01051182Y00799213D02*
X01051671Y00796148D01*
X01053090Y00793388D01*
X01055299Y00791207D01*
X01058076Y00789822D01*
X01061024Y00789370D01*
Y00779528D02*
Y00789370D01*
X01375985Y00812930D02*
X01409512D01*
Y01539370D02*
Y01565406D01*
X00810961Y01332678D02*
Y00812930D01*
X00500000Y03814961D02*
X02334646D01*
Y02157481D01*
X00500000D01*
Y03814961D01*
X01488189Y03458662D02*
X01487697Y03464869D01*
X01486232Y03470922D01*
X01483831Y03476667D01*
X01480554Y03481962D01*
X01476483Y03486674D01*
X01471721Y03490686D01*
X01466385Y03493896D01*
X01460610Y03496225D01*
X01454540Y03497614D01*
X01448819Y03498032D01*
X01488189Y02431103D02*
Y02474410D01*
X00732284Y02431103D02*
X00732776Y02424895D01*
X00734241Y02418843D01*
X00736642Y02413098D01*
X00739919Y02407802D01*
X00743990Y02403090D01*
X00748753Y02399079D01*
X00754088Y02395869D01*
X00759864Y02393540D01*
X00765934Y02392150D01*
X00771654Y02391733D01*
X00732284Y03147638D02*
Y03458662D01*
X01375985Y02391733D02*
X01448819D01*
X00771654Y03498032D02*
X01448819D01*
Y02391733D02*
X01455027Y02392225D01*
X01461079Y02393690D01*
X01466825Y02396091D01*
X01472120Y02399368D01*
X01476832Y02403439D01*
X01480843Y02408201D01*
X01484054Y02413537D01*
X01486382Y02419312D01*
X01487772Y02425382D01*
X01488189Y02431103D01*
X01053150Y02391733D02*
X01218504D01*
X01017717D02*
X00771654D01*
X01488189Y02474410D02*
Y03035433D01*
Y03196851D02*
Y03379922D01*
Y03458662D02*
Y03379922D01*
X01375985Y02470410D02*
X01369780Y02469917D01*
X01363730Y02468452D01*
X01357987Y02466051D01*
X01352695Y02462775D01*
X01347986Y02458704D01*
X01343978Y02453942D01*
X01340771Y02448607D01*
X01338446Y02442833D01*
X01337060Y02436765D01*
X01336650Y02430554D01*
X01337224Y02424356D01*
X01338768Y02418326D01*
X01341244Y02412615D01*
X01344590Y02407367D01*
X01348722Y02402711D01*
X01353537Y02398766D01*
X01358913Y02395630D01*
X01364717Y02393381D01*
X01370803Y02392075D01*
X01375985Y02391733D01*
X00732284Y03147638D02*
X00732776Y03141433D01*
X00734241Y03135384D01*
X00736642Y03129641D01*
X00739919Y03124348D01*
X00743989Y03119639D01*
X00748752Y03115631D01*
X00754087Y03112424D01*
X00759861Y03110099D01*
X00765929Y03108714D01*
X00772140Y03108303D01*
X00778338Y03108877D01*
X00784368Y03110421D01*
X00790078Y03112898D01*
X00795327Y03116244D01*
X00799982Y03120376D01*
X00803928Y03125190D01*
X00807064Y03130567D01*
X00809313Y03136371D01*
X00810618Y03142457D01*
X00810961Y03147638D01*
X01409512Y03196851D02*
X01410005Y03190646D01*
X01411470Y03184596D01*
X01413871Y03178853D01*
X01417147Y03173561D01*
X01421218Y03168852D01*
X01425980Y03164844D01*
X01431315Y03161637D01*
X01437089Y03159312D01*
X01443157Y03157926D01*
X01449368Y03157516D01*
X01455566Y03158090D01*
X01461596Y03159634D01*
X01467307Y03162110D01*
X01472556Y03165456D01*
X01477211Y03169588D01*
X01481156Y03174403D01*
X01484292Y03179779D01*
X01486541Y03185583D01*
X01487847Y03191669D01*
X01488189Y03196851D01*
X00771654Y03498032D02*
X00765447Y03497539D01*
X00759394Y03496074D01*
X00753649Y03493673D01*
X00748354Y03490397D01*
X00743642Y03486326D01*
X00739630Y03481563D01*
X00736420Y03476227D01*
X00734091Y03470452D01*
X00732702Y03464382D01*
X00732284Y03458662D01*
X01218504Y02391733D02*
X01224709Y02392225D01*
X01230759Y02393690D01*
X01236502Y02396091D01*
X01241794Y02399368D01*
X01246503Y02403438D01*
X01250511Y02408200D01*
X01253718Y02413535D01*
X01256044Y02419309D01*
X01257429Y02425378D01*
X01257840Y02431589D01*
X01257266Y02437787D01*
X01255721Y02443816D01*
X01253245Y02449527D01*
X01249899Y02454776D01*
X01245767Y02459431D01*
X01240952Y02463376D01*
X01235576Y02466513D01*
X01229772Y02468762D01*
X01223686Y02470067D01*
X01218504Y02470410D01*
X01488189Y03035433D02*
X01487697Y03041638D01*
X01486232Y03047688D01*
X01483831Y03053431D01*
X01480554Y03058723D01*
X01476484Y03063432D01*
X01471722Y03067440D01*
X01466387Y03070647D01*
X01460613Y03072973D01*
X01454544Y03074358D01*
X01448334Y03074769D01*
X01442136Y03074195D01*
X01436106Y03072650D01*
X01430395Y03070174D01*
X01425146Y03066828D01*
X01420491Y03062696D01*
X01416546Y03057881D01*
X01413409Y03052505D01*
X01411160Y03046701D01*
X01409855Y03040615D01*
X01409512Y03035433D01*
X00810961Y02990158D02*
X00810469Y02996363D01*
X00809004Y03002413D01*
X00806603Y03008155D01*
X00803326Y03013448D01*
X00799256Y03018157D01*
X00794493Y03022165D01*
X00789158Y03025372D01*
X00783385Y03027697D01*
X00777316Y03029082D01*
X00771105Y03029493D01*
X00764907Y03028919D01*
X00758877Y03027375D01*
X00753167Y03024898D01*
X00747918Y03021552D01*
X00743263Y03017420D01*
X00739318Y03012606D01*
X00736181Y03007229D01*
X00733932Y03001425D01*
X00732627Y02995339D01*
X00732284Y02990158D01*
Y02431103D01*
X00810961Y02470410D02*
X01009843D01*
X01409512D02*
Y03035434D01*
Y03222886D02*
X01373279Y03383922D01*
X00851208D01*
X00810961Y03222934D01*
Y03147638D01*
X01061024Y02470410D02*
X01218504D01*
X01051182Y02456693D02*
Y02460567D01*
X01027560Y02405512D02*
X01027070Y02408577D01*
X01025651Y02411337D01*
X01024677Y02412472D01*
X01043308Y02405512D02*
X01043798Y02401763D01*
X01045237Y02398267D01*
X01047528Y02395258D01*
X01050515Y02392941D01*
X01053150Y02391733D01*
X01017717D02*
X01021104Y02393413D01*
X01023945Y02395908D01*
X01026048Y02399050D01*
X01027271Y02402628D01*
X01027560Y02405512D01*
X01046190Y02412472D02*
X01061024Y02437008D01*
X01046190Y02412472D02*
X01044369Y02409959D01*
X01043421Y02407003D01*
X01043308Y02405512D01*
X01019686Y02460567D02*
X01019196Y02463632D01*
X01017777Y02466392D01*
X01015568Y02468573D01*
X01012791Y02469958D01*
X01009843Y02470410D01*
X01061024D02*
X01057959Y02469920D01*
X01055199Y02468501D01*
X01053018Y02466293D01*
X01051633Y02463515D01*
X01051182Y02460567D01*
X01019686D02*
Y02456693D01*
X01009843Y02446851D02*
X01012908Y02447340D01*
X01015668Y02448760D01*
X01017849Y02450968D01*
X01019234Y02453746D01*
X01019686Y02456693D01*
X01009843Y02446851D02*
Y02437008D01*
X01024677Y02412472D01*
X01051182Y02456693D02*
X01051671Y02453628D01*
X01053090Y02450868D01*
X01055299Y02448687D01*
X01058076Y02447303D01*
X01061024Y02446851D01*
Y02437008D02*
Y02446851D01*
X01375985Y02470410D02*
X01409512D01*
Y03196851D02*
Y03222886D01*
X00810961Y02990158D02*
Y02470410D01*
X00500000Y05472441D02*
X02334646D01*
Y03814961D01*
X00500000D01*
Y05472441D01*
X01488189Y05116142D02*
X01487697Y05122350D01*
X01486232Y05128402D01*
X01483831Y05134147D01*
X01480554Y05139442D01*
X01476483Y05144155D01*
X01471721Y05148166D01*
X01466385Y05151376D01*
X01460610Y05153705D01*
X01454540Y05155094D01*
X01448819Y05155512D01*
X01488189Y04088583D02*
Y04131890D01*
X00732284Y04088583D02*
X00732776Y04082376D01*
X00734241Y04076323D01*
X00736642Y04070578D01*
X00739919Y04065283D01*
X00743990Y04060571D01*
X00748753Y04056559D01*
X00754088Y04053349D01*
X00759864Y04051020D01*
X00765934Y04049631D01*
X00771654Y04049213D01*
X00732284Y04805119D02*
Y05116142D01*
X01375985Y04049213D02*
X01448819D01*
X00771654Y05155512D02*
X01448819D01*
Y04049213D02*
X01455027Y04049705D01*
X01461079Y04051170D01*
X01466825Y04053571D01*
X01472120Y04056848D01*
X01476832Y04060919D01*
X01480843Y04065682D01*
X01484054Y04071017D01*
X01486382Y04076793D01*
X01487772Y04082863D01*
X01488189Y04088583D01*
X01053150Y04049213D02*
X01218504D01*
X01017717D02*
X00771654D01*
X01488189Y04131890D02*
Y04692914D01*
Y04854331D02*
Y05037402D01*
Y05116142D02*
Y05037402D01*
X01375985Y04127890D02*
X01369780Y04127398D01*
X01363730Y04125933D01*
X01357987Y04123532D01*
X01352695Y04120255D01*
X01347986Y04116185D01*
X01343978Y04111422D01*
X01340771Y04106088D01*
X01338446Y04100314D01*
X01337060Y04094245D01*
X01336650Y04088034D01*
X01337224Y04081836D01*
X01338768Y04075806D01*
X01341244Y04070096D01*
X01344590Y04064847D01*
X01348722Y04060192D01*
X01353537Y04056247D01*
X01358913Y04053110D01*
X01364717Y04050861D01*
X01370803Y04049556D01*
X01375985Y04049213D01*
X00732284Y04805119D02*
X00732776Y04798913D01*
X00734241Y04792864D01*
X00736642Y04787121D01*
X00739919Y04781829D01*
X00743989Y04777120D01*
X00748752Y04773112D01*
X00754087Y04769905D01*
X00759861Y04767579D01*
X00765929Y04766194D01*
X00772140Y04765783D01*
X00778338Y04766357D01*
X00784368Y04767902D01*
X00790078Y04770378D01*
X00795327Y04773724D01*
X00799982Y04777856D01*
X00803928Y04782671D01*
X00807064Y04788047D01*
X00809313Y04793851D01*
X00810618Y04799937D01*
X00810961Y04805119D01*
X01409512Y04854331D02*
X01410005Y04848126D01*
X01411470Y04842076D01*
X01413871Y04836334D01*
X01417147Y04831041D01*
X01421218Y04826332D01*
X01425980Y04822324D01*
X01431315Y04819117D01*
X01437089Y04816792D01*
X01443157Y04815407D01*
X01449368Y04814996D01*
X01455566Y04815570D01*
X01461596Y04817114D01*
X01467307Y04819591D01*
X01472556Y04822937D01*
X01477211Y04827069D01*
X01481156Y04831883D01*
X01484292Y04837260D01*
X01486541Y04843064D01*
X01487847Y04849150D01*
X01488189Y04854331D01*
X00771654Y05155512D02*
X00765447Y05155020D01*
X00759394Y05153555D01*
X00753649Y05151154D01*
X00748354Y05147877D01*
X00743642Y05143806D01*
X00739630Y05139043D01*
X00736420Y05133708D01*
X00734091Y05127933D01*
X00732702Y05121863D01*
X00732284Y05116142D01*
X01218504Y04049213D02*
X01224709Y04049705D01*
X01230759Y04051170D01*
X01236502Y04053571D01*
X01241794Y04056848D01*
X01246503Y04060919D01*
X01250511Y04065681D01*
X01253718Y04071016D01*
X01256044Y04076790D01*
X01257429Y04082858D01*
X01257840Y04089069D01*
X01257266Y04095267D01*
X01255721Y04101297D01*
X01253245Y04107007D01*
X01249899Y04112256D01*
X01245767Y04116911D01*
X01240952Y04120857D01*
X01235576Y04123993D01*
X01229772Y04126242D01*
X01223686Y04127547D01*
X01218504Y04127890D01*
X01488189Y04692914D02*
X01487697Y04699119D01*
X01486232Y04705168D01*
X01483831Y04710911D01*
X01480554Y04716204D01*
X01476484Y04720913D01*
X01471722Y04724921D01*
X01466387Y04728128D01*
X01460613Y04730453D01*
X01454544Y04731838D01*
X01448334Y04732249D01*
X01442136Y04731675D01*
X01436106Y04730131D01*
X01430395Y04727654D01*
X01425146Y04724308D01*
X01420491Y04720176D01*
X01416546Y04715362D01*
X01413409Y04709985D01*
X01411160Y04704181D01*
X01409855Y04698095D01*
X01409512Y04692914D01*
X00810961Y04647638D02*
X00810469Y04653843D01*
X00809004Y04659893D01*
X00806603Y04665636D01*
X00803326Y04670928D01*
X00799256Y04675637D01*
X00794493Y04679645D01*
X00789158Y04682852D01*
X00783385Y04685177D01*
X00777316Y04686563D01*
X00771105Y04686973D01*
X00764907Y04686399D01*
X00758877Y04684855D01*
X00753167Y04682379D01*
X00747918Y04679033D01*
X00743263Y04674901D01*
X00739318Y04670086D01*
X00736181Y04664710D01*
X00733932Y04658906D01*
X00732627Y04652819D01*
X00732284Y04647638D01*
Y04088583D01*
X00810961Y04127890D02*
X01009843D01*
X01409512D02*
Y04692914D01*
Y04880366D02*
X01373279Y05041402D01*
X00851208D01*
X00810961Y04880414D01*
Y04805119D01*
X01061024Y04127890D02*
X01218504D01*
X01051182Y04114174D02*
Y04118048D01*
X01027560Y04062993D02*
X01027070Y04066057D01*
X01025651Y04068818D01*
X01024677Y04069952D01*
X01043308Y04062993D02*
X01043798Y04059244D01*
X01045237Y04055747D01*
X01047528Y04052739D01*
X01050515Y04050421D01*
X01053150Y04049213D01*
X01017717D02*
X01021104Y04050893D01*
X01023945Y04053388D01*
X01026048Y04056531D01*
X01027271Y04060108D01*
X01027560Y04062993D01*
X01046190Y04069952D02*
X01061024Y04094489D01*
X01046190Y04069952D02*
X01044369Y04067439D01*
X01043421Y04064483D01*
X01043308Y04062993D01*
X01019686Y04118048D02*
X01019196Y04121113D01*
X01017777Y04123873D01*
X01015568Y04126054D01*
X01012791Y04127438D01*
X01009843Y04127890D01*
X01061024D02*
X01057959Y04127401D01*
X01055199Y04125981D01*
X01053018Y04123773D01*
X01051633Y04120995D01*
X01051182Y04118048D01*
X01019686D02*
Y04114174D01*
X01009843Y04104331D02*
X01012908Y04104820D01*
X01015668Y04106240D01*
X01017849Y04108448D01*
X01019234Y04111226D01*
X01019686Y04114174D01*
X01009843Y04104331D02*
Y04094489D01*
X01024677Y04069952D01*
X01051182Y04114174D02*
X01051671Y04111109D01*
X01053090Y04108349D01*
X01055299Y04106168D01*
X01058076Y04104783D01*
X01061024Y04104331D01*
Y04094489D02*
Y04104331D01*
X01375985Y04127890D02*
X01409512D01*
Y04854331D02*
Y04880366D01*
X00810961Y04647638D02*
Y04127890D01*
X00500000Y07129922D02*
X02334646D01*
Y05472441D01*
X00500000D01*
Y07129922D01*
X01488189Y06773622D02*
X01487697Y06779830D01*
X01486232Y06785882D01*
X01483831Y06791628D01*
X01480554Y06796923D01*
X01476483Y06801635D01*
X01471721Y06805646D01*
X01466385Y06808857D01*
X01460610Y06811186D01*
X01454540Y06812575D01*
X01448819Y06812993D01*
X01488189Y05746063D02*
Y05789370D01*
X00732284Y05746063D02*
X00732776Y05739856D01*
X00734241Y05733804D01*
X00736642Y05728058D01*
X00739919Y05722763D01*
X00743990Y05718051D01*
X00748753Y05714039D01*
X00754088Y05710829D01*
X00759864Y05708500D01*
X00765934Y05707111D01*
X00771654Y05706693D01*
X00732284Y06462599D02*
Y06773622D01*
X01375985Y05706693D02*
X01448819D01*
X00771654Y06812993D02*
X01448819D01*
Y05706693D02*
X01455027Y05707186D01*
X01461079Y05708651D01*
X01466825Y05711052D01*
X01472120Y05714329D01*
X01476832Y05718399D01*
X01480843Y05723162D01*
X01484054Y05728498D01*
X01486382Y05734273D01*
X01487772Y05740343D01*
X01488189Y05746063D01*
X01053150Y05706693D02*
X01218504D01*
X01017717D02*
X00771654D01*
X01488189Y05789370D02*
Y06350394D01*
Y06511811D02*
Y06694882D01*
Y06773622D02*
Y06694882D01*
X01375985Y05785370D02*
X01369780Y05784878D01*
X01363730Y05783413D01*
X01357987Y05781012D01*
X01352695Y05777735D01*
X01347986Y05773665D01*
X01343978Y05768903D01*
X01340771Y05763568D01*
X01338446Y05757794D01*
X01337060Y05751725D01*
X01336650Y05745515D01*
X01337224Y05739317D01*
X01338768Y05733287D01*
X01341244Y05727576D01*
X01344590Y05722327D01*
X01348722Y05717672D01*
X01353537Y05713727D01*
X01358913Y05710590D01*
X01364717Y05708341D01*
X01370803Y05707036D01*
X01375985Y05706693D01*
X00732284Y06462599D02*
X00732776Y06456394D01*
X00734241Y06450344D01*
X00736642Y06444601D01*
X00739919Y06439309D01*
X00743989Y06434600D01*
X00748752Y06430592D01*
X00754087Y06427385D01*
X00759861Y06425060D01*
X00765929Y06423674D01*
X00772140Y06423264D01*
X00778338Y06423838D01*
X00784368Y06425382D01*
X00790078Y06427858D01*
X00795327Y06431204D01*
X00799982Y06435336D01*
X00803928Y06440151D01*
X00807064Y06445527D01*
X00809313Y06451331D01*
X00810618Y06457418D01*
X00810961Y06462599D01*
X01409512Y06511811D02*
X01410005Y06505606D01*
X01411470Y06499557D01*
X01413871Y06493814D01*
X01417147Y06488522D01*
X01421218Y06483813D01*
X01425980Y06479804D01*
X01431315Y06476598D01*
X01437089Y06474272D01*
X01443157Y06472887D01*
X01449368Y06472476D01*
X01455566Y06473050D01*
X01461596Y06474595D01*
X01467307Y06477071D01*
X01472556Y06480417D01*
X01477211Y06484549D01*
X01481156Y06489363D01*
X01484292Y06494740D01*
X01486541Y06500544D01*
X01487847Y06506630D01*
X01488189Y06511811D01*
X00771654Y06812993D02*
X00765447Y06812500D01*
X00759394Y06811035D01*
X00753649Y06808634D01*
X00748354Y06805357D01*
X00743642Y06801287D01*
X00739630Y06796524D01*
X00736420Y06791188D01*
X00734091Y06785413D01*
X00732702Y06779343D01*
X00732284Y06773622D01*
X01218504Y05706693D02*
X01224709Y05707186D01*
X01230759Y05708651D01*
X01236502Y05711052D01*
X01241794Y05714328D01*
X01246503Y05718399D01*
X01250511Y05723161D01*
X01253718Y05728496D01*
X01256044Y05734270D01*
X01257429Y05740338D01*
X01257840Y05746549D01*
X01257266Y05752747D01*
X01255721Y05758777D01*
X01253245Y05764488D01*
X01249899Y05769737D01*
X01245767Y05774392D01*
X01240952Y05778337D01*
X01235576Y05781473D01*
X01229772Y05783722D01*
X01223686Y05785028D01*
X01218504Y05785370D01*
X01488189Y06350394D02*
X01487697Y06356599D01*
X01486232Y06362649D01*
X01483831Y06368392D01*
X01480554Y06373684D01*
X01476484Y06378393D01*
X01471722Y06382401D01*
X01466387Y06385608D01*
X01460613Y06387933D01*
X01454544Y06389319D01*
X01448334Y06389729D01*
X01442136Y06389155D01*
X01436106Y06387611D01*
X01430395Y06385135D01*
X01425146Y06381789D01*
X01420491Y06377657D01*
X01416546Y06372842D01*
X01413409Y06367465D01*
X01411160Y06361662D01*
X01409855Y06355575D01*
X01409512Y06350394D01*
X00810961Y06305119D02*
X00810469Y06311324D01*
X00809004Y06317373D01*
X00806603Y06323116D01*
X00803326Y06328408D01*
X00799256Y06333117D01*
X00794493Y06337125D01*
X00789158Y06340332D01*
X00783385Y06342658D01*
X00777316Y06344043D01*
X00771105Y06344454D01*
X00764907Y06343880D01*
X00758877Y06342335D01*
X00753167Y06339859D01*
X00747918Y06336513D01*
X00743263Y06332381D01*
X00739318Y06327566D01*
X00736181Y06322190D01*
X00733932Y06316386D01*
X00732627Y06310300D01*
X00732284Y06305119D01*
Y05746063D01*
X00810961Y05785370D02*
X01009843D01*
X01409512D02*
Y06350394D01*
Y06537847D02*
X01373279Y06698882D01*
X00851208D01*
X00810961Y06537895D01*
Y06462599D01*
X01061024Y05785370D02*
X01218504D01*
X01051182Y05771654D02*
Y05775528D01*
X01027560Y05720473D02*
X01027070Y05723538D01*
X01025651Y05726298D01*
X01024677Y05727432D01*
X01043308Y05720473D02*
X01043798Y05716724D01*
X01045237Y05713227D01*
X01047528Y05710219D01*
X01050515Y05707902D01*
X01053150Y05706693D01*
X01017717D02*
X01021104Y05708373D01*
X01023945Y05710869D01*
X01026048Y05714011D01*
X01027271Y05717589D01*
X01027560Y05720473D01*
X01046190Y05727432D02*
X01061024Y05751969D01*
X01046190Y05727432D02*
X01044369Y05724919D01*
X01043421Y05721964D01*
X01043308Y05720473D01*
X01019686Y05775528D02*
X01019196Y05778593D01*
X01017777Y05781353D01*
X01015568Y05783534D01*
X01012791Y05784919D01*
X01009843Y05785370D01*
X01061024D02*
X01057959Y05784881D01*
X01055199Y05783462D01*
X01053018Y05781253D01*
X01051633Y05778476D01*
X01051182Y05775528D01*
X01019686D02*
Y05771654D01*
X01009843Y05761811D02*
X01012908Y05762301D01*
X01015668Y05763720D01*
X01017849Y05765929D01*
X01019234Y05768706D01*
X01019686Y05771654D01*
X01009843Y05761811D02*
Y05751969D01*
X01024677Y05727432D01*
X01051182Y05771654D02*
X01051671Y05768589D01*
X01053090Y05765829D01*
X01055299Y05763648D01*
X01058076Y05762263D01*
X01061024Y05761811D01*
Y05751969D02*
Y05761811D01*
X01375985Y05785370D02*
X01409512D01*
Y06511811D02*
Y06537847D01*
X00810961Y06305119D02*
Y05785370D01*
X00500000Y08787402D02*
X02334646D01*
Y07129922D01*
X00500000D01*
Y08787402D01*
X01488189Y08431103D02*
X01487697Y08437310D01*
X01486232Y08443363D01*
X01483831Y08449108D01*
X01480554Y08454403D01*
X01476483Y08459115D01*
X01471721Y08463127D01*
X01466385Y08466337D01*
X01460610Y08468666D01*
X01454540Y08470055D01*
X01448819Y08470473D01*
X01488189Y07403544D02*
Y07446851D01*
X00732284Y07403544D02*
X00732776Y07397336D01*
X00734241Y07391284D01*
X00736642Y07385538D01*
X00739919Y07380243D01*
X00743990Y07375531D01*
X00748753Y07371520D01*
X00754088Y07368309D01*
X00759864Y07365981D01*
X00765934Y07364591D01*
X00771654Y07364174D01*
X00732284Y08120079D02*
Y08431103D01*
X01375985Y07364174D02*
X01448819D01*
X00771654Y08470473D02*
X01448819D01*
Y07364174D02*
X01455027Y07364666D01*
X01461079Y07366131D01*
X01466825Y07368532D01*
X01472120Y07371809D01*
X01476832Y07375880D01*
X01480843Y07380642D01*
X01484054Y07385978D01*
X01486382Y07391753D01*
X01487772Y07397823D01*
X01488189Y07403544D01*
X01053150Y07364174D02*
X01218504D01*
X01017717D02*
X00771654D01*
X01488189Y07446851D02*
Y08007874D01*
Y08169292D02*
Y08352363D01*
Y08431103D02*
Y08352363D01*
X01375985Y07442851D02*
X01369780Y07442358D01*
X01363730Y07440893D01*
X01357987Y07438492D01*
X01352695Y07435216D01*
X01347986Y07431145D01*
X01343978Y07426383D01*
X01340771Y07421048D01*
X01338446Y07415274D01*
X01337060Y07409206D01*
X01336650Y07402995D01*
X01337224Y07396797D01*
X01338768Y07390767D01*
X01341244Y07385056D01*
X01344590Y07379808D01*
X01348722Y07375152D01*
X01353537Y07371207D01*
X01358913Y07368071D01*
X01364717Y07365822D01*
X01370803Y07364516D01*
X01375985Y07364174D01*
X00732284Y08120079D02*
X00732776Y08113874D01*
X00734241Y08107825D01*
X00736642Y08102082D01*
X00739919Y08096789D01*
X00743989Y08092080D01*
X00748752Y08088072D01*
X00754087Y08084865D01*
X00759861Y08082540D01*
X00765929Y08081155D01*
X00772140Y08080744D01*
X00778338Y08081318D01*
X00784368Y08082862D01*
X00790078Y08085339D01*
X00795327Y08088685D01*
X00799982Y08092817D01*
X00803928Y08097631D01*
X00807064Y08103008D01*
X00809313Y08108812D01*
X00810618Y08114898D01*
X00810961Y08120079D01*
X01409512Y08169292D02*
X01410005Y08163087D01*
X01411470Y08157037D01*
X01413871Y08151294D01*
X01417147Y08146002D01*
X01421218Y08141293D01*
X01425980Y08137285D01*
X01431315Y08134078D01*
X01437089Y08131753D01*
X01443157Y08130367D01*
X01449368Y08129957D01*
X01455566Y08130531D01*
X01461596Y08132075D01*
X01467307Y08134551D01*
X01472556Y08137897D01*
X01477211Y08142029D01*
X01481156Y08146844D01*
X01484292Y08152220D01*
X01486541Y08158024D01*
X01487847Y08164110D01*
X01488189Y08169292D01*
X00771654Y08470473D02*
X00765447Y08469980D01*
X00759394Y08468515D01*
X00753649Y08466114D01*
X00748354Y08462838D01*
X00743642Y08458767D01*
X00739630Y08454004D01*
X00736420Y08448668D01*
X00734091Y08442893D01*
X00732702Y08436823D01*
X00732284Y08431103D01*
X01218504Y07364174D02*
X01224709Y07364666D01*
X01230759Y07366131D01*
X01236502Y07368532D01*
X01241794Y07371809D01*
X01246503Y07375879D01*
X01250511Y07380641D01*
X01253718Y07385976D01*
X01256044Y07391750D01*
X01257429Y07397819D01*
X01257840Y07404030D01*
X01257266Y07410227D01*
X01255721Y07416257D01*
X01253245Y07421968D01*
X01249899Y07427217D01*
X01245767Y07431872D01*
X01240952Y07435817D01*
X01235576Y07438954D01*
X01229772Y07441203D01*
X01223686Y07442508D01*
X01218504Y07442851D01*
X01488189Y08007874D02*
X01487697Y08014079D01*
X01486232Y08020129D01*
X01483831Y08025872D01*
X01480554Y08031164D01*
X01476484Y08035873D01*
X01471722Y08039881D01*
X01466387Y08043088D01*
X01460613Y08045413D01*
X01454544Y08046799D01*
X01448334Y08047210D01*
X01442136Y08046636D01*
X01436106Y08045091D01*
X01430395Y08042615D01*
X01425146Y08039269D01*
X01420491Y08035137D01*
X01416546Y08030322D01*
X01413409Y08024946D01*
X01411160Y08019142D01*
X01409855Y08013056D01*
X01409512Y08007874D01*
X00810961Y07962599D02*
X00810469Y07968804D01*
X00809004Y07974853D01*
X00806603Y07980596D01*
X00803326Y07985889D01*
X00799256Y07990598D01*
X00794493Y07994606D01*
X00789158Y07997813D01*
X00783385Y08000138D01*
X00777316Y08001523D01*
X00771105Y08001934D01*
X00764907Y08001360D01*
X00758877Y07999816D01*
X00753167Y07997339D01*
X00747918Y07993993D01*
X00743263Y07989861D01*
X00739318Y07985047D01*
X00736181Y07979670D01*
X00733932Y07973866D01*
X00732627Y07967780D01*
X00732284Y07962599D01*
Y07403544D01*
X00810961Y07442851D02*
X01009843D01*
X01409512D02*
Y08007875D01*
Y08195327D02*
X01373279Y08356363D01*
X00851208D01*
X00810961Y08195375D01*
Y08120079D01*
X01061024Y07442851D02*
X01218504D01*
X01051182Y07429134D02*
Y07433008D01*
X01027560Y07377953D02*
X01027070Y07381018D01*
X01025651Y07383778D01*
X01024677Y07384913D01*
X01043308Y07377953D02*
X01043798Y07374204D01*
X01045237Y07370708D01*
X01047528Y07367699D01*
X01050515Y07365382D01*
X01053150Y07364174D01*
X01017717D02*
X01021104Y07365854D01*
X01023945Y07368349D01*
X01026048Y07371491D01*
X01027271Y07375069D01*
X01027560Y07377953D01*
X01046190Y07384913D02*
X01061024Y07409449D01*
X01046190Y07384913D02*
X01044369Y07382400D01*
X01043421Y07379444D01*
X01043308Y07377953D01*
X01019686Y07433008D02*
X01019196Y07436073D01*
X01017777Y07438833D01*
X01015568Y07441014D01*
X01012791Y07442399D01*
X01009843Y07442851D01*
X01061024D02*
X01057959Y07442361D01*
X01055199Y07440942D01*
X01053018Y07438734D01*
X01051633Y07435956D01*
X01051182Y07433008D01*
X01019686D02*
Y07429134D01*
X01009843Y07419292D02*
X01012908Y07419781D01*
X01015668Y07421201D01*
X01017849Y07423409D01*
X01019234Y07426187D01*
X01019686Y07429134D01*
X01009843Y07419292D02*
Y07409449D01*
X01024677Y07384913D01*
X01051182Y07429134D02*
X01051671Y07426069D01*
X01053090Y07423309D01*
X01055299Y07421128D01*
X01058076Y07419744D01*
X01061024Y07419292D01*
Y07409449D02*
Y07419292D01*
X01375985Y07442851D02*
X01409512D01*
Y08169292D02*
Y08195327D01*
X00810961Y07962599D02*
Y07442851D01*
X00000000Y09287402D02*
X02834646D01*
Y00000000D01*
X00000000D01*
Y09287402D01*
X02334646D02*
Y00000000D01*
X00500000Y09287402D02*
Y00000000D01*
X02834646Y02157481D02*
X00000000D01*
Y00500000D02*
X02834646D01*
Y03814961D02*
X00000000D01*
X02834646Y05472441D02*
X00000000D01*
X02834646Y07129922D02*
X00000000D01*
Y08787402D02*
X02834646D01*
X05460620Y02074803D02*
Y00500000D01*
X03452746D01*
Y02074803D01*
X05460620D01*
X05078195Y01096319D02*
X05074929Y01090380D01*
X05072559Y01084030D01*
X05071134Y01077404D01*
X05070685Y01070641D01*
X05071221Y01063884D01*
X05072731Y01057277D01*
X05075183Y01050958D01*
X05078525Y01045061D01*
X05082686Y01039712D01*
X05087580Y01035022D01*
X05093101Y01031091D01*
X05099134Y01028001D01*
X05105551Y01025820D01*
X05112217Y01024591D01*
X05118990Y01024342D01*
X05125728Y01025078D01*
X05132288Y01026782D01*
X05138531Y01029420D01*
X05144327Y01032935D01*
X05149551Y01037253D01*
X05154094Y01042282D01*
X05157470Y01047244D01*
X05168036Y01066043D01*
X05177730Y01085306D01*
X05186533Y01104993D01*
X05194426Y01125061D01*
X05201393Y01145469D01*
X05207419Y01166175D01*
X05212491Y01187135D01*
X05216599Y01208305D01*
X05219734Y01229640D01*
X05221890Y01251097D01*
X05223062Y01272630D01*
X05223248Y01294194D01*
X05222447Y01315744D01*
X05220661Y01337235D01*
X05217894Y01358621D01*
X05214152Y01379859D01*
X05209441Y01400903D01*
X05203773Y01421709D01*
X05197160Y01442235D01*
X05189614Y01462436D01*
X05181151Y01482271D01*
X05171791Y01501699D01*
X05161551Y01520677D01*
X05150454Y01539168D01*
X05138522Y01557131D01*
X05125781Y01574530D01*
X05112258Y01591327D01*
X05097980Y01607488D01*
X05082978Y01622980D01*
X05067283Y01637768D01*
X05050928Y01651824D01*
X05033947Y01665116D01*
X05016376Y01677618D01*
X04998251Y01689302D01*
X04979611Y01700145D01*
X04960494Y01710125D01*
X04940940Y01719219D01*
X04920991Y01727409D01*
X04900688Y01734678D01*
X04880074Y01741010D01*
X04859192Y01746393D01*
X04838086Y01750815D01*
X04816799Y01754267D01*
X04795377Y01756741D01*
X04773863Y01758233D01*
X04752305Y01758739D01*
X04730745Y01758258D01*
X04709230Y01756791D01*
X04687805Y01754342D01*
X04666514Y01750915D01*
X04645403Y01746518D01*
X04624514Y01741159D01*
X04603893Y01734851D01*
X04583581Y01727606D01*
X04563623Y01719439D01*
X04544059Y01710367D01*
X04524930Y01700411D01*
X04511801Y01692913D01*
X04425722Y01478484D02*
X04428988Y01484423D01*
X04431358Y01490773D01*
X04432783Y01497399D01*
X04433232Y01504162D01*
X04432696Y01510919D01*
X04431186Y01517526D01*
X04428734Y01523845D01*
X04425392Y01529742D01*
X04421230Y01535091D01*
X04416337Y01539781D01*
X04410815Y01543712D01*
X04404782Y01546801D01*
X04398365Y01548983D01*
X04391699Y01550211D01*
X04384926Y01550460D01*
X04378188Y01549724D01*
X04371628Y01548019D01*
X04365385Y01545382D01*
X04359589Y01541867D01*
X04354365Y01537549D01*
X04349822Y01532519D01*
X04346447Y01527559D01*
X04335891Y01508773D01*
X04326207Y01489523D01*
X04317414Y01469850D01*
X04309530Y01449795D01*
X04302574Y01429401D01*
X04296558Y01408709D01*
X04291496Y01387763D01*
X04287398Y01366608D01*
X04284273Y01345287D01*
X04282127Y01323846D01*
X04280965Y01302328D01*
X04280790Y01280781D01*
X04281601Y01259247D01*
X04283397Y01237774D01*
X04286174Y01216405D01*
X04289927Y01195185D01*
X04294647Y01174160D01*
X04300325Y01153373D01*
X04306949Y01132868D01*
X04314504Y01112687D01*
X04322975Y01092874D01*
X04332345Y01073469D01*
X04342593Y01054513D01*
X04353698Y01036046D01*
X04365637Y01018107D01*
X04378385Y01000734D01*
X04391915Y00983962D01*
X04406198Y00967828D01*
X04421205Y00952364D01*
X04436905Y00937604D01*
X04453263Y00923577D01*
X04470247Y00910315D01*
X04487820Y00897843D01*
X04505945Y00886190D01*
X04524586Y00875378D01*
X04543701Y00865431D01*
X04563252Y00856370D01*
X04583197Y00848213D01*
X04603495Y00840978D01*
X04624102Y00834680D01*
X04644977Y00829332D01*
X04666074Y00824945D01*
X04687350Y00821529D01*
X04708760Y00819090D01*
X04730259Y00817634D01*
X04751803Y00817164D01*
X04773345Y00817680D01*
X04794841Y00819182D01*
X04816246Y00821667D01*
X04837515Y00825129D01*
X04858603Y00829562D01*
X04879466Y00834955D01*
X04900060Y00841297D01*
X04920342Y00848576D01*
X04940269Y00856775D01*
X04959800Y00865879D01*
X04978895Y00875867D01*
X04996053Y00885827D01*
X04511801Y01692913D02*
X04506327Y01688918D01*
X04501489Y01684172D01*
X04497391Y01678774D01*
X04494119Y01672839D01*
X04491742Y01666493D01*
X04490310Y01659869D01*
X04489854Y01653107D01*
X04490383Y01646351D01*
X04491886Y01639742D01*
X04494331Y01633422D01*
X04497667Y01627522D01*
X04501823Y01622169D01*
X04506711Y01617475D01*
X04512228Y01613539D01*
X04518258Y01610445D01*
X04524672Y01608258D01*
X04531336Y01607023D01*
X04538108Y01606769D01*
X04544846Y01607498D01*
X04551407Y01609197D01*
X04557652Y01611829D01*
X04560876Y01613638D01*
X04996053Y00885827D02*
X05001004Y00890403D01*
X05005236Y00895652D01*
X05008657Y00901462D01*
X05011195Y00907708D01*
X05012795Y00914258D01*
X05013424Y00920971D01*
X05013068Y00927703D01*
X05011735Y00934312D01*
X05009452Y00940657D01*
X05006270Y00946600D01*
X05002255Y00952017D01*
X04997494Y00956791D01*
X04992088Y00960819D01*
X04986152Y00964017D01*
X04979814Y00966316D01*
X04973208Y00967667D01*
X04966477Y00968040D01*
X04959762Y00967429D01*
X04953209Y00965845D01*
X04946956Y00963323D01*
X04943236Y00961279D01*
X04427653Y01481743D02*
X04418151Y01464927D01*
X04409520Y01447648D01*
X04401783Y01429950D01*
X04394960Y01411880D01*
X04389069Y01393486D01*
X04384125Y01374814D01*
X04380140Y01355915D01*
X04377127Y01336836D01*
X04375091Y01317629D01*
X04374039Y01298343D01*
X04373974Y01279028D01*
X04374894Y01259735D01*
X04376800Y01240514D01*
X04379684Y01221416D01*
X04383539Y01202490D01*
X04388357Y01183785D01*
X04394123Y01165351D01*
X04400823Y01147235D01*
X04408439Y01129486D01*
X04416953Y01112148D01*
X04426340Y01095268D01*
X04436577Y01078889D01*
X04447638Y01063054D01*
X04459492Y01047805D01*
X04472110Y01033182D01*
X04485459Y01019221D01*
X04499503Y01005961D01*
X04514205Y00993435D01*
X04529529Y00981677D01*
X04545432Y00970716D01*
X04561875Y00960582D01*
X04578814Y00951301D01*
X04596205Y00942897D01*
X04614002Y00935392D01*
X04632160Y00928806D01*
X04650630Y00923155D01*
X04669364Y00918456D01*
X04688314Y00914719D01*
X04707430Y00911955D01*
X04726663Y00910171D01*
X04745961Y00909371D01*
X04765275Y00909558D01*
X04784554Y00910731D01*
X04803748Y00912888D01*
X04822807Y00916021D01*
X04841682Y00920124D01*
X04860322Y00925186D01*
X04878679Y00931192D01*
X04896705Y00938129D01*
X04914354Y00945977D01*
X04931579Y00954716D01*
X04944512Y00962031D01*
X05076264Y01093059D02*
X05085766Y01109875D01*
X05094397Y01127154D01*
X05102134Y01144852D01*
X05108957Y01162922D01*
X05114848Y01181316D01*
X05119792Y01199988D01*
X05123777Y01218887D01*
X05126790Y01237965D01*
X05128826Y01257173D01*
X05129878Y01276459D01*
X05129944Y01295774D01*
X05129023Y01315067D01*
X05127118Y01334288D01*
X05124234Y01353386D01*
X05120378Y01372312D01*
X05115561Y01391017D01*
X05109795Y01409451D01*
X05103095Y01427567D01*
X05095478Y01445316D01*
X05086965Y01462654D01*
X05077578Y01479534D01*
X05067341Y01495913D01*
X05056280Y01511748D01*
X05044426Y01526997D01*
X05031808Y01541621D01*
X05018459Y01555581D01*
X05004416Y01568841D01*
X04989713Y01581367D01*
X04974390Y01593126D01*
X04958486Y01604086D01*
X04942043Y01614221D01*
X04925104Y01623502D01*
X04907713Y01631906D01*
X04889916Y01639411D01*
X04871759Y01645997D01*
X04853289Y01651647D01*
X04834554Y01656347D01*
X04815604Y01660084D01*
X04796488Y01662848D01*
X04777256Y01664632D01*
X04757958Y01665432D01*
X04738644Y01665245D01*
X04719364Y01664072D01*
X04700170Y01661916D01*
X04681111Y01658782D01*
X04662237Y01654679D01*
X04643597Y01649618D01*
X04625240Y01643611D01*
X04607213Y01636674D01*
X04589565Y01628826D01*
X04572340Y01620087D01*
X04559369Y01612751D01*
X05460620Y03649606D02*
Y02074803D01*
X03452746D01*
Y03649606D01*
X05460620D01*
X05078195Y02671122D02*
X05074929Y02665183D01*
X05072559Y02658833D01*
X05071134Y02652207D01*
X05070685Y02645444D01*
X05071221Y02638687D01*
X05072731Y02632080D01*
X05075183Y02625761D01*
X05078525Y02619864D01*
X05082686Y02614515D01*
X05087580Y02609825D01*
X05093101Y02605894D01*
X05099134Y02602805D01*
X05105551Y02600623D01*
X05112217Y02599394D01*
X05118990Y02599145D01*
X05125728Y02599881D01*
X05132288Y02601586D01*
X05138531Y02604223D01*
X05144327Y02607738D01*
X05149551Y02612056D01*
X05154094Y02617086D01*
X05157470Y02622047D01*
X05168036Y02640846D01*
X05177730Y02660109D01*
X05186533Y02679796D01*
X05194426Y02699864D01*
X05201393Y02720273D01*
X05207419Y02740978D01*
X05212491Y02761938D01*
X05216599Y02783108D01*
X05219734Y02804444D01*
X05221890Y02825900D01*
X05223062Y02847433D01*
X05223248Y02868997D01*
X05222447Y02890547D01*
X05220661Y02912038D01*
X05217894Y02933424D01*
X05214152Y02954662D01*
X05209441Y02975706D01*
X05203773Y02996513D01*
X05197160Y03017038D01*
X05189614Y03037240D01*
X05181151Y03057075D01*
X05171791Y03076502D01*
X05161551Y03095480D01*
X05150454Y03113971D01*
X05138522Y03131934D01*
X05125781Y03149333D01*
X05112258Y03166130D01*
X05097980Y03182292D01*
X05082978Y03197783D01*
X05067283Y03212572D01*
X05050928Y03226627D01*
X05033947Y03239919D01*
X05016376Y03252421D01*
X04998251Y03264105D01*
X04979611Y03274949D01*
X04960494Y03284928D01*
X04940940Y03294022D01*
X04920991Y03302212D01*
X04900688Y03309481D01*
X04880074Y03315813D01*
X04859192Y03321196D01*
X04838086Y03325618D01*
X04816799Y03329070D01*
X04795377Y03331544D01*
X04773863Y03333036D01*
X04752305Y03333542D01*
X04730745Y03333061D01*
X04709230Y03331594D01*
X04687805Y03329145D01*
X04666514Y03325718D01*
X04645403Y03321321D01*
X04624514Y03315963D01*
X04603893Y03309654D01*
X04583581Y03302409D01*
X04563623Y03294242D01*
X04544059Y03285171D01*
X04524930Y03275214D01*
X04511801Y03267716D01*
X04425722Y03053287D02*
X04428988Y03059226D01*
X04431358Y03065576D01*
X04432783Y03072202D01*
X04433232Y03078965D01*
X04432696Y03085722D01*
X04431186Y03092330D01*
X04428734Y03098648D01*
X04425392Y03104545D01*
X04421230Y03109894D01*
X04416337Y03114584D01*
X04410815Y03118515D01*
X04404782Y03121604D01*
X04398365Y03123786D01*
X04391699Y03125014D01*
X04384926Y03125263D01*
X04378188Y03124527D01*
X04371628Y03122823D01*
X04365385Y03120185D01*
X04359589Y03116670D01*
X04354365Y03112352D01*
X04349822Y03107322D01*
X04346447Y03102362D01*
X04335891Y03083576D01*
X04326207Y03064326D01*
X04317414Y03044653D01*
X04309530Y03024598D01*
X04302574Y03004204D01*
X04296558Y02983512D01*
X04291496Y02962566D01*
X04287398Y02941411D01*
X04284273Y02920090D01*
X04282127Y02898649D01*
X04280965Y02877131D01*
X04280790Y02855584D01*
X04281601Y02834050D01*
X04283397Y02812577D01*
X04286174Y02791208D01*
X04289927Y02769989D01*
X04294647Y02748963D01*
X04300325Y02728176D01*
X04306949Y02707671D01*
X04314504Y02687490D01*
X04322975Y02667677D01*
X04332345Y02648272D01*
X04342593Y02629316D01*
X04353698Y02610849D01*
X04365637Y02592911D01*
X04378385Y02575537D01*
X04391915Y02558766D01*
X04406198Y02542631D01*
X04421205Y02527167D01*
X04436905Y02512407D01*
X04453263Y02498380D01*
X04470247Y02485118D01*
X04487820Y02472647D01*
X04505945Y02460993D01*
X04524586Y02450181D01*
X04543701Y02440235D01*
X04563252Y02431173D01*
X04583197Y02423017D01*
X04603495Y02415781D01*
X04624102Y02409483D01*
X04644977Y02404135D01*
X04666074Y02399748D01*
X04687350Y02396332D01*
X04708760Y02393893D01*
X04730259Y02392437D01*
X04751803Y02391967D01*
X04773345Y02392483D01*
X04794841Y02393986D01*
X04816246Y02396470D01*
X04837515Y02399933D01*
X04858603Y02404365D01*
X04879466Y02409758D01*
X04900060Y02416100D01*
X04920342Y02423379D01*
X04940269Y02431579D01*
X04959800Y02440682D01*
X04978895Y02450670D01*
X04996053Y02460630D01*
X04511801Y03267716D02*
X04506327Y03263721D01*
X04501489Y03258975D01*
X04497391Y03253577D01*
X04494119Y03247643D01*
X04491742Y03241296D01*
X04490310Y03234672D01*
X04489854Y03227910D01*
X04490383Y03221154D01*
X04491886Y03214545D01*
X04494331Y03208225D01*
X04497667Y03202325D01*
X04501823Y03196972D01*
X04506711Y03192278D01*
X04512228Y03188342D01*
X04518258Y03185248D01*
X04524672Y03183061D01*
X04531336Y03181827D01*
X04538108Y03181572D01*
X04544846Y03182301D01*
X04551407Y03184000D01*
X04557652Y03186632D01*
X04560876Y03188441D01*
X04996053Y02460630D02*
X05001004Y02465206D01*
X05005236Y02470455D01*
X05008657Y02476265D01*
X05011195Y02482511D01*
X05012795Y02489061D01*
X05013424Y02495774D01*
X05013068Y02502506D01*
X05011735Y02509116D01*
X05009452Y02515460D01*
X05006270Y02521404D01*
X05002255Y02526820D01*
X04997494Y02531594D01*
X04992088Y02535623D01*
X04986152Y02538820D01*
X04979814Y02541119D01*
X04973208Y02542470D01*
X04966477Y02542843D01*
X04959762Y02542232D01*
X04953209Y02540648D01*
X04946956Y02538126D01*
X04943236Y02536082D01*
X04427653Y03056546D02*
X04418151Y03039730D01*
X04409520Y03022451D01*
X04401783Y03004753D01*
X04394960Y02986683D01*
X04389069Y02968289D01*
X04384125Y02949618D01*
X04380140Y02930718D01*
X04377127Y02911640D01*
X04375091Y02892432D01*
X04374039Y02873146D01*
X04373974Y02853831D01*
X04374894Y02834538D01*
X04376800Y02815317D01*
X04379684Y02796219D01*
X04383539Y02777293D01*
X04388357Y02758588D01*
X04394123Y02740154D01*
X04400823Y02722039D01*
X04408439Y02704289D01*
X04416953Y02686951D01*
X04426340Y02670071D01*
X04436577Y02653692D01*
X04447638Y02637857D01*
X04459492Y02622608D01*
X04472110Y02607985D01*
X04485459Y02594024D01*
X04499503Y02580764D01*
X04514205Y02568238D01*
X04529529Y02556480D01*
X04545432Y02545519D01*
X04561875Y02535385D01*
X04578814Y02526104D01*
X04596205Y02517700D01*
X04614002Y02510195D01*
X04632160Y02503609D01*
X04650630Y02497958D01*
X04669364Y02493259D01*
X04688314Y02489522D01*
X04707430Y02486758D01*
X04726663Y02484974D01*
X04745961Y02484174D01*
X04765275Y02484361D01*
X04784554Y02485535D01*
X04803748Y02487691D01*
X04822807Y02490824D01*
X04841682Y02494927D01*
X04860322Y02499989D01*
X04878679Y02505996D01*
X04896705Y02512932D01*
X04914354Y02520780D01*
X04931579Y02529519D01*
X04944512Y02536834D01*
X05076264Y02667862D02*
X05085766Y02684678D01*
X05094397Y02701957D01*
X05102134Y02719655D01*
X05108957Y02737725D01*
X05114848Y02756119D01*
X05119792Y02774791D01*
X05123777Y02793690D01*
X05126790Y02812769D01*
X05128826Y02831976D01*
X05129878Y02851262D01*
X05129944Y02870577D01*
X05129023Y02889870D01*
X05127118Y02909091D01*
X05124234Y02928189D01*
X05120378Y02947115D01*
X05115561Y02965820D01*
X05109795Y02984254D01*
X05103095Y03002370D01*
X05095478Y03020119D01*
X05086965Y03037457D01*
X05077578Y03054337D01*
X05067341Y03070716D01*
X05056280Y03086551D01*
X05044426Y03101800D01*
X05031808Y03116424D01*
X05018459Y03130384D01*
X05004416Y03143644D01*
X04989713Y03156170D01*
X04974390Y03167929D01*
X04958486Y03178890D01*
X04942043Y03189024D01*
X04925104Y03198305D01*
X04907713Y03206709D01*
X04889916Y03214214D01*
X04871759Y03220800D01*
X04853289Y03226450D01*
X04834554Y03231150D01*
X04815604Y03234887D01*
X04796488Y03237651D01*
X04777256Y03239435D01*
X04757958Y03240235D01*
X04738644Y03240048D01*
X04719364Y03238875D01*
X04700170Y03236719D01*
X04681111Y03233585D01*
X04662237Y03229482D01*
X04643597Y03224421D01*
X04625240Y03218414D01*
X04607213Y03211478D01*
X04589565Y03203630D01*
X04572340Y03194890D01*
X04559369Y03187554D01*
X05460620Y05224409D02*
Y03649606D01*
X03452746D01*
Y05224409D01*
X05460620D01*
X05078195Y04245925D02*
X05074929Y04239986D01*
X05072559Y04233637D01*
X05071134Y04227010D01*
X05070685Y04220247D01*
X05071221Y04213491D01*
X05072731Y04206883D01*
X05075183Y04200564D01*
X05078525Y04194668D01*
X05082686Y04189318D01*
X05087580Y04184628D01*
X05093101Y04180697D01*
X05099134Y04177608D01*
X05105551Y04175426D01*
X05112217Y04174198D01*
X05118990Y04173949D01*
X05125728Y04174684D01*
X05132288Y04176389D01*
X05138531Y04179026D01*
X05144327Y04182541D01*
X05149551Y04186859D01*
X05154094Y04191889D01*
X05157470Y04196850D01*
X05168036Y04215650D01*
X05177730Y04234913D01*
X05186533Y04254599D01*
X05194426Y04274667D01*
X05201393Y04295076D01*
X05207419Y04315781D01*
X05212491Y04336741D01*
X05216599Y04357911D01*
X05219734Y04379247D01*
X05221890Y04400704D01*
X05223062Y04422236D01*
X05223248Y04443800D01*
X05222447Y04465350D01*
X05220661Y04486841D01*
X05217894Y04508228D01*
X05214152Y04529465D01*
X05209441Y04550509D01*
X05203773Y04571316D01*
X05197160Y04591841D01*
X05189614Y04612043D01*
X05181151Y04631878D01*
X05171791Y04651305D01*
X05161551Y04670284D01*
X05150454Y04688774D01*
X05138522Y04706737D01*
X05125781Y04724136D01*
X05112258Y04740933D01*
X05097980Y04757095D01*
X05082978Y04772586D01*
X05067283Y04787375D01*
X05050928Y04801430D01*
X05033947Y04814722D01*
X05016376Y04827224D01*
X04998251Y04838908D01*
X04979611Y04849752D01*
X04960494Y04859731D01*
X04940940Y04868825D01*
X04920991Y04877015D01*
X04900688Y04884284D01*
X04880074Y04890617D01*
X04859192Y04896000D01*
X04838086Y04900421D01*
X04816799Y04903873D01*
X04795377Y04906347D01*
X04773863Y04907839D01*
X04752305Y04908345D01*
X04730745Y04907864D01*
X04709230Y04906398D01*
X04687805Y04903948D01*
X04666514Y04900521D01*
X04645403Y04896124D01*
X04624514Y04890766D01*
X04603893Y04884457D01*
X04583581Y04877212D01*
X04563623Y04869045D01*
X04544059Y04859974D01*
X04524930Y04850017D01*
X04511801Y04842520D01*
X04425722Y04628090D02*
X04428988Y04634029D01*
X04431358Y04640379D01*
X04432783Y04647006D01*
X04433232Y04653769D01*
X04432696Y04660525D01*
X04431186Y04667133D01*
X04428734Y04673451D01*
X04425392Y04679348D01*
X04421230Y04684698D01*
X04416337Y04689388D01*
X04410815Y04693318D01*
X04404782Y04696407D01*
X04398365Y04698589D01*
X04391699Y04699817D01*
X04384926Y04700066D01*
X04378188Y04699331D01*
X04371628Y04697626D01*
X04365385Y04694988D01*
X04359589Y04691473D01*
X04354365Y04687155D01*
X04349822Y04682125D01*
X04346447Y04677165D01*
X04335891Y04658379D01*
X04326207Y04639129D01*
X04317414Y04619456D01*
X04309530Y04599402D01*
X04302574Y04579007D01*
X04296558Y04558315D01*
X04291496Y04537369D01*
X04287398Y04516214D01*
X04284273Y04494893D01*
X04282127Y04473452D01*
X04280965Y04451935D01*
X04280790Y04430387D01*
X04281601Y04408853D01*
X04283397Y04387380D01*
X04286174Y04366011D01*
X04289927Y04344792D01*
X04294647Y04323766D01*
X04300325Y04302979D01*
X04306949Y04282474D01*
X04314504Y04262293D01*
X04322975Y04242480D01*
X04332345Y04223075D01*
X04342593Y04204119D01*
X04353698Y04185653D01*
X04365637Y04167714D01*
X04378385Y04150340D01*
X04391915Y04133569D01*
X04406198Y04117434D01*
X04421205Y04101970D01*
X04436905Y04087210D01*
X04453263Y04073184D01*
X04470247Y04059921D01*
X04487820Y04047450D01*
X04505945Y04035796D01*
X04524586Y04024985D01*
X04543701Y04015038D01*
X04563252Y04005976D01*
X04583197Y03997820D01*
X04603495Y03990585D01*
X04624102Y03984286D01*
X04644977Y03978938D01*
X04666074Y03974551D01*
X04687350Y03971135D01*
X04708760Y03968696D01*
X04730259Y03967240D01*
X04751803Y03966770D01*
X04773345Y03967287D01*
X04794841Y03968789D01*
X04816246Y03971274D01*
X04837515Y03974736D01*
X04858603Y03979168D01*
X04879466Y03984561D01*
X04900060Y03990903D01*
X04920342Y03998182D01*
X04940269Y04006382D01*
X04959800Y04015485D01*
X04978895Y04025473D01*
X04996053Y04035433D01*
X04511801Y04842520D02*
X04506327Y04838525D01*
X04501489Y04833778D01*
X04497391Y04828381D01*
X04494119Y04822446D01*
X04491742Y04816099D01*
X04490310Y04809475D01*
X04489854Y04802713D01*
X04490383Y04795957D01*
X04491886Y04789349D01*
X04494331Y04783028D01*
X04497667Y04777129D01*
X04501823Y04771775D01*
X04506711Y04767081D01*
X04512228Y04763146D01*
X04518258Y04760051D01*
X04524672Y04757864D01*
X04531336Y04756630D01*
X04538108Y04756375D01*
X04544846Y04757104D01*
X04551407Y04758803D01*
X04557652Y04761435D01*
X04560876Y04763244D01*
X04996053Y04035433D02*
X05001004Y04040009D01*
X05005236Y04045259D01*
X05008657Y04051068D01*
X05011195Y04057315D01*
X05012795Y04063864D01*
X05013424Y04070577D01*
X05013068Y04077310D01*
X05011735Y04083919D01*
X05009452Y04090263D01*
X05006270Y04096207D01*
X05002255Y04101623D01*
X04997494Y04106397D01*
X04992088Y04110426D01*
X04986152Y04113624D01*
X04979814Y04115922D01*
X04973208Y04117273D01*
X04966477Y04117646D01*
X04959762Y04117035D01*
X04953209Y04115451D01*
X04946956Y04112930D01*
X04943236Y04110886D01*
X04427653Y04631349D02*
X04418151Y04614533D01*
X04409520Y04597254D01*
X04401783Y04579556D01*
X04394960Y04561487D01*
X04389069Y04543092D01*
X04384125Y04524421D01*
X04380140Y04505521D01*
X04377127Y04486443D01*
X04375091Y04467235D01*
X04374039Y04447949D01*
X04373974Y04428634D01*
X04374894Y04409341D01*
X04376800Y04390121D01*
X04379684Y04371022D01*
X04383539Y04352096D01*
X04388357Y04333391D01*
X04394123Y04314957D01*
X04400823Y04296842D01*
X04408439Y04279092D01*
X04416953Y04261754D01*
X04426340Y04244874D01*
X04436577Y04228495D01*
X04447638Y04212661D01*
X04459492Y04197412D01*
X04472110Y04182788D01*
X04485459Y04168828D01*
X04499503Y04155567D01*
X04514205Y04143041D01*
X04529529Y04131283D01*
X04545432Y04120322D01*
X04561875Y04110188D01*
X04578814Y04100907D01*
X04596205Y04092503D01*
X04614002Y04084998D01*
X04632160Y04078412D01*
X04650630Y04072762D01*
X04669364Y04068062D01*
X04688314Y04064325D01*
X04707430Y04061561D01*
X04726663Y04059777D01*
X04745961Y04058978D01*
X04765275Y04059165D01*
X04784554Y04060338D01*
X04803748Y04062494D01*
X04822807Y04065628D01*
X04841682Y04069730D01*
X04860322Y04074792D01*
X04878679Y04080799D01*
X04896705Y04087735D01*
X04914354Y04095583D01*
X04931579Y04104322D01*
X04944512Y04111637D01*
X05076264Y04242665D02*
X05085766Y04259481D01*
X05094397Y04276761D01*
X05102134Y04294458D01*
X05108957Y04312528D01*
X05114848Y04330922D01*
X05119792Y04349594D01*
X05123777Y04368493D01*
X05126790Y04387572D01*
X05128826Y04406779D01*
X05129878Y04426065D01*
X05129944Y04445380D01*
X05129023Y04464673D01*
X05127118Y04483894D01*
X05124234Y04502992D01*
X05120378Y04521918D01*
X05115561Y04540623D01*
X05109795Y04559057D01*
X05103095Y04577173D01*
X05095478Y04594923D01*
X05086965Y04612260D01*
X05077578Y04629141D01*
X05067341Y04645519D01*
X05056280Y04661354D01*
X05044426Y04676603D01*
X05031808Y04691227D01*
X05018459Y04705187D01*
X05004416Y04718448D01*
X04989713Y04730973D01*
X04974390Y04742732D01*
X04958486Y04753693D01*
X04942043Y04763827D01*
X04925104Y04773108D01*
X04907713Y04781512D01*
X04889916Y04789017D01*
X04871759Y04795603D01*
X04853289Y04801254D01*
X04834554Y04805953D01*
X04815604Y04809690D01*
X04796488Y04812454D01*
X04777256Y04814238D01*
X04757958Y04815038D01*
X04738644Y04814851D01*
X04719364Y04813678D01*
X04700170Y04811522D01*
X04681111Y04808388D01*
X04662237Y04804285D01*
X04643597Y04799224D01*
X04625240Y04793217D01*
X04607213Y04786281D01*
X04589565Y04778433D01*
X04572340Y04769694D01*
X04559369Y04762357D01*
X05460620Y06799213D02*
Y05224409D01*
X03452746D01*
Y06799213D01*
X05460620D01*
X05078195Y05820729D02*
X05074929Y05814789D01*
X05072559Y05808440D01*
X05071134Y05801813D01*
X05070685Y05795050D01*
X05071221Y05788294D01*
X05072731Y05781686D01*
X05075183Y05775367D01*
X05078525Y05769471D01*
X05082686Y05764121D01*
X05087580Y05759431D01*
X05093101Y05755500D01*
X05099134Y05752411D01*
X05105551Y05750229D01*
X05112217Y05749001D01*
X05118990Y05748752D01*
X05125728Y05749487D01*
X05132288Y05751192D01*
X05138531Y05753829D01*
X05144327Y05757344D01*
X05149551Y05761662D01*
X05154094Y05766692D01*
X05157470Y05771653D01*
X05168036Y05790453D01*
X05177730Y05809716D01*
X05186533Y05829402D01*
X05194426Y05849470D01*
X05201393Y05869879D01*
X05207419Y05890585D01*
X05212491Y05911544D01*
X05216599Y05932714D01*
X05219734Y05954050D01*
X05221890Y05975507D01*
X05223062Y05997040D01*
X05223248Y06018604D01*
X05222447Y06040153D01*
X05220661Y06061644D01*
X05217894Y06083031D01*
X05214152Y06104268D01*
X05209441Y06125312D01*
X05203773Y06146119D01*
X05197160Y06166644D01*
X05189614Y06186846D01*
X05181151Y06206681D01*
X05171791Y06226108D01*
X05161551Y06245087D01*
X05150454Y06263577D01*
X05138522Y06281540D01*
X05125781Y06298939D01*
X05112258Y06315737D01*
X05097980Y06331898D01*
X05082978Y06347389D01*
X05067283Y06362178D01*
X05050928Y06376233D01*
X05033947Y06389525D01*
X05016376Y06402027D01*
X04998251Y06413712D01*
X04979611Y06424555D01*
X04960494Y06434534D01*
X04940940Y06443628D01*
X04920991Y06451818D01*
X04900688Y06459087D01*
X04880074Y06465420D01*
X04859192Y06470803D01*
X04838086Y06475225D01*
X04816799Y06478676D01*
X04795377Y06481151D01*
X04773863Y06482642D01*
X04752305Y06483148D01*
X04730745Y06482667D01*
X04709230Y06481201D01*
X04687805Y06478751D01*
X04666514Y06475325D01*
X04645403Y06470927D01*
X04624514Y06465569D01*
X04603893Y06459260D01*
X04583581Y06452015D01*
X04563623Y06443848D01*
X04544059Y06434777D01*
X04524930Y06424820D01*
X04511801Y06417323D01*
X04425722Y06202893D02*
X04428988Y06208832D01*
X04431358Y06215182D01*
X04432783Y06221809D01*
X04433232Y06228572D01*
X04432696Y06235328D01*
X04431186Y06241936D01*
X04428734Y06248255D01*
X04425392Y06254151D01*
X04421230Y06259501D01*
X04416337Y06264191D01*
X04410815Y06268122D01*
X04404782Y06271210D01*
X04398365Y06273392D01*
X04391699Y06274620D01*
X04384926Y06274869D01*
X04378188Y06274134D01*
X04371628Y06272429D01*
X04365385Y06269791D01*
X04359589Y06266276D01*
X04354365Y06261958D01*
X04349822Y06256928D01*
X04346447Y06251968D01*
X04335891Y06233182D01*
X04326207Y06213932D01*
X04317414Y06194260D01*
X04309530Y06174205D01*
X04302574Y06153810D01*
X04296558Y06133118D01*
X04291496Y06112173D01*
X04287398Y06091017D01*
X04284273Y06069697D01*
X04282127Y06048255D01*
X04280965Y06026738D01*
X04280790Y06005190D01*
X04281601Y05983657D01*
X04283397Y05962183D01*
X04286174Y05940814D01*
X04289927Y05919595D01*
X04294647Y05898570D01*
X04300325Y05877782D01*
X04306949Y05857277D01*
X04314504Y05837097D01*
X04322975Y05817283D01*
X04332345Y05797878D01*
X04342593Y05778922D01*
X04353698Y05760456D01*
X04365637Y05742517D01*
X04378385Y05725144D01*
X04391915Y05708372D01*
X04406198Y05692237D01*
X04421205Y05676774D01*
X04436905Y05662013D01*
X04453263Y05647987D01*
X04470247Y05634724D01*
X04487820Y05622253D01*
X04505945Y05610599D01*
X04524586Y05599788D01*
X04543701Y05589841D01*
X04563252Y05580780D01*
X04583197Y05572623D01*
X04603495Y05565388D01*
X04624102Y05559090D01*
X04644977Y05553741D01*
X04666074Y05549355D01*
X04687350Y05545938D01*
X04708760Y05543499D01*
X04730259Y05542043D01*
X04751803Y05541573D01*
X04773345Y05542090D01*
X04794841Y05543592D01*
X04816246Y05546077D01*
X04837515Y05549539D01*
X04858603Y05553971D01*
X04879466Y05559364D01*
X04900060Y05565707D01*
X04920342Y05572985D01*
X04940269Y05581185D01*
X04959800Y05590288D01*
X04978895Y05600276D01*
X04996053Y05610236D01*
X04511801Y06417323D02*
X04506327Y06413328D01*
X04501489Y06408581D01*
X04497391Y06403184D01*
X04494119Y06397249D01*
X04491742Y06390902D01*
X04490310Y06384278D01*
X04489854Y06377516D01*
X04490383Y06370760D01*
X04491886Y06364152D01*
X04494331Y06357831D01*
X04497667Y06351932D01*
X04501823Y06346579D01*
X04506711Y06341884D01*
X04512228Y06337949D01*
X04518258Y06334854D01*
X04524672Y06332667D01*
X04531336Y06331433D01*
X04538108Y06331178D01*
X04544846Y06331908D01*
X04551407Y06333606D01*
X04557652Y06336238D01*
X04560876Y06338048D01*
X04996053Y05610236D02*
X05001004Y05614813D01*
X05005236Y05620062D01*
X05008657Y05625871D01*
X05011195Y05632118D01*
X05012795Y05638667D01*
X05013424Y05645380D01*
X05013068Y05652113D01*
X05011735Y05658722D01*
X05009452Y05665066D01*
X05006270Y05671010D01*
X05002255Y05676426D01*
X04997494Y05681200D01*
X04992088Y05685229D01*
X04986152Y05688427D01*
X04979814Y05690725D01*
X04973208Y05692076D01*
X04966477Y05692450D01*
X04959762Y05691838D01*
X04953209Y05690254D01*
X04946956Y05687733D01*
X04943236Y05685689D01*
X04427653Y06206152D02*
X04418151Y06189336D01*
X04409520Y06172057D01*
X04401783Y06154359D01*
X04394960Y06136290D01*
X04389069Y06117895D01*
X04384125Y06099224D01*
X04380140Y06080324D01*
X04377127Y06061246D01*
X04375091Y06042038D01*
X04374039Y06022752D01*
X04373974Y06003437D01*
X04374894Y05984144D01*
X04376800Y05964924D01*
X04379684Y05945825D01*
X04383539Y05926899D01*
X04388357Y05908195D01*
X04394123Y05889760D01*
X04400823Y05871645D01*
X04408439Y05853895D01*
X04416953Y05836557D01*
X04426340Y05819677D01*
X04436577Y05803298D01*
X04447638Y05787464D01*
X04459492Y05772215D01*
X04472110Y05757591D01*
X04485459Y05743631D01*
X04499503Y05730370D01*
X04514205Y05717845D01*
X04529529Y05706086D01*
X04545432Y05695125D01*
X04561875Y05684991D01*
X04578814Y05675710D01*
X04596205Y05667306D01*
X04614002Y05659801D01*
X04632160Y05653215D01*
X04650630Y05647565D01*
X04669364Y05642865D01*
X04688314Y05639129D01*
X04707430Y05636364D01*
X04726663Y05634580D01*
X04745961Y05633781D01*
X04765275Y05633968D01*
X04784554Y05635141D01*
X04803748Y05637297D01*
X04822807Y05640431D01*
X04841682Y05644534D01*
X04860322Y05649595D01*
X04878679Y05655602D01*
X04896705Y05662538D01*
X04914354Y05670386D01*
X04931579Y05679126D01*
X04944512Y05686440D01*
X05076264Y05817468D02*
X05085766Y05834284D01*
X05094397Y05851564D01*
X05102134Y05869261D01*
X05108957Y05887331D01*
X05114848Y05905726D01*
X05119792Y05924397D01*
X05123777Y05943296D01*
X05126790Y05962375D01*
X05128826Y05981582D01*
X05129878Y06000869D01*
X05129944Y06020183D01*
X05129023Y06039476D01*
X05127118Y06058697D01*
X05124234Y06077795D01*
X05120378Y06096722D01*
X05115561Y06115426D01*
X05109795Y06133860D01*
X05103095Y06151976D01*
X05095478Y06169726D01*
X05086965Y06187063D01*
X05077578Y06203944D01*
X05067341Y06220322D01*
X05056280Y06236157D01*
X05044426Y06251406D01*
X05031808Y06266030D01*
X05018459Y06279990D01*
X05004416Y06293251D01*
X04989713Y06305776D01*
X04974390Y06317535D01*
X04958486Y06328496D01*
X04942043Y06338630D01*
X04925104Y06347911D01*
X04907713Y06356315D01*
X04889916Y06363820D01*
X04871759Y06370406D01*
X04853289Y06376057D01*
X04834554Y06380756D01*
X04815604Y06384493D01*
X04796488Y06387257D01*
X04777256Y06389041D01*
X04757958Y06389841D01*
X04738644Y06389654D01*
X04719364Y06388481D01*
X04700170Y06386325D01*
X04681111Y06383191D01*
X04662237Y06379088D01*
X04643597Y06374027D01*
X04625240Y06368020D01*
X04607213Y06361084D01*
X04589565Y06353236D01*
X04572340Y06344497D01*
X04559369Y06337160D01*
X05460620Y08374016D02*
Y06799213D01*
X03452746D01*
Y08374016D01*
X05460620D01*
X05078195Y07395532D02*
X05074929Y07389593D01*
X05072559Y07383243D01*
X05071134Y07376616D01*
X05070685Y07369853D01*
X05071221Y07363097D01*
X05072731Y07356489D01*
X05075183Y07350170D01*
X05078525Y07344274D01*
X05082686Y07338924D01*
X05087580Y07334234D01*
X05093101Y07330303D01*
X05099134Y07327214D01*
X05105551Y07325032D01*
X05112217Y07323804D01*
X05118990Y07323555D01*
X05125728Y07324290D01*
X05132288Y07325995D01*
X05138531Y07328632D01*
X05144327Y07332147D01*
X05149551Y07336465D01*
X05154094Y07341495D01*
X05157470Y07346457D01*
X05168036Y07365256D01*
X05177730Y07384519D01*
X05186533Y07404205D01*
X05194426Y07424274D01*
X05201393Y07444682D01*
X05207419Y07465388D01*
X05212491Y07486348D01*
X05216599Y07507517D01*
X05219734Y07528853D01*
X05221890Y07550310D01*
X05223062Y07571843D01*
X05223248Y07593407D01*
X05222447Y07614957D01*
X05220661Y07636447D01*
X05217894Y07657834D01*
X05214152Y07679071D01*
X05209441Y07700115D01*
X05203773Y07720922D01*
X05197160Y07741448D01*
X05189614Y07761649D01*
X05181151Y07781484D01*
X05171791Y07800911D01*
X05161551Y07819890D01*
X05150454Y07838380D01*
X05138522Y07856344D01*
X05125781Y07873742D01*
X05112258Y07890540D01*
X05097980Y07906701D01*
X05082978Y07922192D01*
X05067283Y07936981D01*
X05050928Y07951036D01*
X05033947Y07964329D01*
X05016376Y07976830D01*
X04998251Y07988515D01*
X04979611Y07999358D01*
X04960494Y08009337D01*
X04940940Y08018431D01*
X04920991Y08026621D01*
X04900688Y08033890D01*
X04880074Y08040223D01*
X04859192Y08045606D01*
X04838086Y08050028D01*
X04816799Y08053479D01*
X04795377Y08055954D01*
X04773863Y08057445D01*
X04752305Y08057951D01*
X04730745Y08057471D01*
X04709230Y08056004D01*
X04687805Y08053555D01*
X04666514Y08050128D01*
X04645403Y08045731D01*
X04624514Y08040372D01*
X04603893Y08034063D01*
X04583581Y08026818D01*
X04563623Y08018651D01*
X04544059Y08009580D01*
X04524930Y07999623D01*
X04511801Y07992126D01*
X04425722Y07777696D02*
X04428988Y07783636D01*
X04431358Y07789985D01*
X04432783Y07796612D01*
X04433232Y07803375D01*
X04432696Y07810131D01*
X04431186Y07816739D01*
X04428734Y07823058D01*
X04425392Y07828954D01*
X04421230Y07834304D01*
X04416337Y07838994D01*
X04410815Y07842925D01*
X04404782Y07846014D01*
X04398365Y07848195D01*
X04391699Y07849424D01*
X04384926Y07849672D01*
X04378188Y07848937D01*
X04371628Y07847232D01*
X04365385Y07844594D01*
X04359589Y07841079D01*
X04354365Y07836761D01*
X04349822Y07831732D01*
X04346447Y07826772D01*
X04335891Y07807985D01*
X04326207Y07788736D01*
X04317414Y07769063D01*
X04309530Y07749008D01*
X04302574Y07728613D01*
X04296558Y07707921D01*
X04291496Y07686976D01*
X04287398Y07665820D01*
X04284273Y07644500D01*
X04282127Y07623058D01*
X04280965Y07601541D01*
X04280790Y07579993D01*
X04281601Y07558460D01*
X04283397Y07536986D01*
X04286174Y07515617D01*
X04289927Y07494398D01*
X04294647Y07473373D01*
X04300325Y07452586D01*
X04306949Y07432080D01*
X04314504Y07411900D01*
X04322975Y07392086D01*
X04332345Y07372681D01*
X04342593Y07353725D01*
X04353698Y07335259D01*
X04365637Y07317320D01*
X04378385Y07299947D01*
X04391915Y07283175D01*
X04406198Y07267040D01*
X04421205Y07251577D01*
X04436905Y07236816D01*
X04453263Y07222790D01*
X04470247Y07209527D01*
X04487820Y07197056D01*
X04505945Y07185402D01*
X04524586Y07174591D01*
X04543701Y07164644D01*
X04563252Y07155583D01*
X04583197Y07147426D01*
X04603495Y07140191D01*
X04624102Y07133893D01*
X04644977Y07128545D01*
X04666074Y07124158D01*
X04687350Y07120741D01*
X04708760Y07118302D01*
X04730259Y07116846D01*
X04751803Y07116376D01*
X04773345Y07116893D01*
X04794841Y07118395D01*
X04816246Y07120880D01*
X04837515Y07124342D01*
X04858603Y07128774D01*
X04879466Y07134167D01*
X04900060Y07140510D01*
X04920342Y07147788D01*
X04940269Y07155988D01*
X04959800Y07165091D01*
X04978895Y07175079D01*
X04996053Y07185039D01*
X04511801Y07992126D02*
X04506327Y07988131D01*
X04501489Y07983384D01*
X04497391Y07977987D01*
X04494119Y07972052D01*
X04491742Y07965705D01*
X04490310Y07959081D01*
X04489854Y07952320D01*
X04490383Y07945563D01*
X04491886Y07938955D01*
X04494331Y07932634D01*
X04497667Y07926735D01*
X04501823Y07921382D01*
X04506711Y07916688D01*
X04512228Y07912752D01*
X04518258Y07909658D01*
X04524672Y07907470D01*
X04531336Y07906236D01*
X04538108Y07905981D01*
X04544846Y07906711D01*
X04551407Y07908410D01*
X04557652Y07911042D01*
X04560876Y07912851D01*
X04996053Y07185039D02*
X05001004Y07189616D01*
X05005236Y07194865D01*
X05008657Y07200675D01*
X05011195Y07206921D01*
X05012795Y07213470D01*
X05013424Y07220183D01*
X05013068Y07226916D01*
X05011735Y07233525D01*
X05009452Y07239869D01*
X05006270Y07245813D01*
X05002255Y07251230D01*
X04997494Y07256003D01*
X04992088Y07260032D01*
X04986152Y07263230D01*
X04979814Y07265529D01*
X04973208Y07266879D01*
X04966477Y07267253D01*
X04959762Y07266641D01*
X04953209Y07265058D01*
X04946956Y07262536D01*
X04943236Y07260492D01*
X04427653Y07780956D02*
X04418151Y07764140D01*
X04409520Y07746860D01*
X04401783Y07729163D01*
X04394960Y07711093D01*
X04389069Y07692698D01*
X04384125Y07674027D01*
X04380140Y07655127D01*
X04377127Y07636049D01*
X04375091Y07616842D01*
X04374039Y07597555D01*
X04373974Y07578241D01*
X04374894Y07558948D01*
X04376800Y07539727D01*
X04379684Y07520628D01*
X04383539Y07501702D01*
X04388357Y07482998D01*
X04394123Y07464564D01*
X04400823Y07446448D01*
X04408439Y07428698D01*
X04416953Y07411361D01*
X04426340Y07394480D01*
X04436577Y07378102D01*
X04447638Y07362267D01*
X04459492Y07347018D01*
X04472110Y07332394D01*
X04485459Y07318434D01*
X04499503Y07305174D01*
X04514205Y07292648D01*
X04529529Y07280889D01*
X04545432Y07269929D01*
X04561875Y07259794D01*
X04578814Y07250513D01*
X04596205Y07242109D01*
X04614002Y07234604D01*
X04632160Y07228018D01*
X04650630Y07222368D01*
X04669364Y07217668D01*
X04688314Y07213932D01*
X04707430Y07211168D01*
X04726663Y07209383D01*
X04745961Y07208584D01*
X04765275Y07208771D01*
X04784554Y07209944D01*
X04803748Y07212100D01*
X04822807Y07215234D01*
X04841682Y07219337D01*
X04860322Y07224398D01*
X04878679Y07230405D01*
X04896705Y07237342D01*
X04914354Y07245190D01*
X04931579Y07253929D01*
X04944512Y07261244D01*
X05076264Y07392272D02*
X05085766Y07409088D01*
X05094397Y07426367D01*
X05102134Y07444065D01*
X05108957Y07462134D01*
X05114848Y07480529D01*
X05119792Y07499200D01*
X05123777Y07518100D01*
X05126790Y07537178D01*
X05128826Y07556385D01*
X05129878Y07575672D01*
X05129944Y07594986D01*
X05129023Y07614279D01*
X05127118Y07633500D01*
X05124234Y07652599D01*
X05120378Y07671525D01*
X05115561Y07690229D01*
X05109795Y07708663D01*
X05103095Y07726779D01*
X05095478Y07744529D01*
X05086965Y07761867D01*
X05077578Y07778747D01*
X05067341Y07795126D01*
X05056280Y07810960D01*
X05044426Y07826209D01*
X05031808Y07840833D01*
X05018459Y07854793D01*
X05004416Y07868054D01*
X04989713Y07880580D01*
X04974390Y07892338D01*
X04958486Y07903299D01*
X04942043Y07913433D01*
X04925104Y07922714D01*
X04907713Y07931118D01*
X04889916Y07938623D01*
X04871759Y07945210D01*
X04853289Y07950860D01*
X04834554Y07955560D01*
X04815604Y07959296D01*
X04796488Y07962060D01*
X04777256Y07963845D01*
X04757958Y07964644D01*
X04738644Y07964457D01*
X04719364Y07963284D01*
X04700170Y07961128D01*
X04681111Y07957994D01*
X04662237Y07953892D01*
X04643597Y07948830D01*
X04625240Y07942823D01*
X04607213Y07935887D01*
X04589565Y07928039D01*
X04572340Y07919300D01*
X04559369Y07911963D01*
X02952746Y08874016D02*
X05960620D01*
Y-00000000D01*
X02952746D01*
Y08874016D01*
X05460620D02*
Y-00000000D01*
X03452746Y08874016D02*
Y-00000000D01*
X05960620Y00500000D02*
X02952746D01*
Y02074803D02*
X05960620D01*
X02952746Y03649606D02*
X05960620D01*
X02952746Y05224409D02*
X05960620D01*
X02952746Y06799213D02*
X05960620D01*
X02952746Y08374016D02*
X05960620D01*
X06578720Y00500000D02*
Y01917323D01*
X08153523D01*
Y00500000D01*
X06578720D01*
X07436987Y01661417D02*
X07436496Y01665788D01*
X07435046Y01669941D01*
X07432711Y01673668D01*
X07429606Y01676784D01*
X07425886Y01679132D01*
X07421738Y01680596D01*
X07417369Y01681102D01*
X07417302Y01681102D01*
X07436987Y01574866D02*
Y01661417D01*
X06873995Y01681102D02*
X06869624Y01680611D01*
X06865471Y01679161D01*
X06861744Y01676825D01*
X06858629Y01673720D01*
X06856280Y01670001D01*
X06854817Y01665853D01*
X06854310Y01661484D01*
X06854310Y01661417D01*
X07545395Y01681102D02*
X07858247D01*
X07417302D02*
X06873995D01*
X07525710Y01661417D02*
Y01574866D01*
X07858247Y01299212D02*
X07782523D01*
X07015727Y01090551D02*
X07020099Y01091042D01*
X07024251Y01092492D01*
X07027978Y01094828D01*
X07031094Y01097933D01*
X07033442Y01101652D01*
X07034906Y01105800D01*
X07035412Y01110169D01*
X07035413Y01110236D01*
X07877932D02*
Y01279527D01*
X07114153Y01110236D02*
X07114644Y01105865D01*
X07116094Y01101712D01*
X07118429Y01097985D01*
X07121534Y01094869D01*
X07125254Y01092521D01*
X07129401Y01091057D01*
X07133771Y01090551D01*
X07133838Y01090551D01*
X07417302Y01555181D02*
X07421673Y01555672D01*
X07425826Y01557122D01*
X07429553Y01559458D01*
X07432669Y01562563D01*
X07435017Y01566282D01*
X07436481Y01570430D01*
X07436987Y01574799D01*
X07436987Y01574866D01*
X07133838Y01090551D02*
X07858247D01*
X07877932Y01279527D02*
X07877441Y01283898D01*
X07875991Y01288051D01*
X07873655Y01291778D01*
X07870550Y01294894D01*
X07866831Y01297242D01*
X07862683Y01298706D01*
X07858314Y01299212D01*
X07858247Y01299212D01*
X07114153Y01196787D02*
Y01110236D01*
X07782523Y01377953D02*
X07858247D01*
X07525710Y01574866D02*
X07526201Y01570495D01*
X07527651Y01566342D01*
X07529987Y01562615D01*
X07533092Y01559499D01*
X07536811Y01557151D01*
X07540959Y01555687D01*
X07545328Y01555181D01*
X07545395Y01555181D01*
X07877932Y01661417D02*
X07877441Y01665788D01*
X07875991Y01669941D01*
X07873655Y01673668D01*
X07870550Y01676784D01*
X07866831Y01679132D01*
X07862683Y01680596D01*
X07858314Y01681102D01*
X07858247Y01681102D01*
X07035413Y01196787D02*
Y01110236D01*
Y01196787D02*
X07034921Y01201158D01*
X07033471Y01205311D01*
X07031136Y01209038D01*
X07028031Y01212154D01*
X07024312Y01214502D01*
X07020164Y01215966D01*
X07015794Y01216472D01*
X07015727Y01216472D01*
X07858247Y01090551D02*
X07862618Y01091042D01*
X07866771Y01092492D01*
X07870498Y01094828D01*
X07873614Y01097933D01*
X07875962Y01101652D01*
X07877426Y01105800D01*
X07877932Y01110169D01*
X07877932Y01110236D01*
X07545395Y01681102D02*
X07541024Y01680611D01*
X07536871Y01679161D01*
X07533144Y01676825D01*
X07530028Y01673720D01*
X07527680Y01670001D01*
X07526216Y01665853D01*
X07525710Y01661484D01*
X07525710Y01661417D01*
X06854310Y01110236D02*
X06854802Y01105865D01*
X06856251Y01101712D01*
X06858587Y01097985D01*
X06861692Y01094869D01*
X06865411Y01092521D01*
X06869559Y01091057D01*
X06873928Y01090551D01*
X06873995Y01090551D01*
X07133838Y01216472D02*
X07129467Y01215981D01*
X07125314Y01214531D01*
X07121587Y01212195D01*
X07118471Y01209090D01*
X07116123Y01205371D01*
X07114659Y01201223D01*
X07114153Y01196854D01*
X07114153Y01196787D01*
X07877932Y01397638D02*
Y01661417D01*
X06854310D02*
Y01110236D01*
X07782523Y01299212D02*
X07778152Y01298721D01*
X07773999Y01297271D01*
X07770272Y01294936D01*
X07767156Y01291831D01*
X07764808Y01288111D01*
X07763344Y01283964D01*
X07762838Y01279594D01*
X07762838Y01279527D01*
Y01397638D02*
X07763329Y01393267D01*
X07764779Y01389114D01*
X07767114Y01385387D01*
X07770219Y01382271D01*
X07773939Y01379923D01*
X07778087Y01378459D01*
X07782456Y01377953D01*
X07782523Y01377953D01*
X06873995Y01090551D02*
X07015727D01*
X07858247Y01377953D02*
X07862618Y01378444D01*
X07866771Y01379894D01*
X07870498Y01382229D01*
X07873614Y01385334D01*
X07875962Y01389054D01*
X07877426Y01393201D01*
X07877932Y01397571D01*
X07877932Y01397638D01*
X07762838Y01216472D02*
Y01279527D01*
Y01555181D02*
X07545395D01*
X06979247D02*
Y01216472D01*
X07015727D01*
X07133838D02*
X07762838D01*
X07417302Y01555181D02*
X06979247D01*
X07762838Y01397638D02*
Y01555181D01*
X06578720Y01917323D02*
Y03334645D01*
X08153523D01*
Y01917323D01*
X06578720D01*
X07436987Y03078740D02*
X07436496Y03083111D01*
X07435046Y03087264D01*
X07432711Y03090991D01*
X07429606Y03094106D01*
X07425886Y03096455D01*
X07421738Y03097919D01*
X07417369Y03098425D01*
X07417302Y03098425D01*
X07436987Y02992189D02*
Y03078740D01*
X06873995Y03098425D02*
X06869624Y03097934D01*
X06865471Y03096484D01*
X06861744Y03094148D01*
X06858629Y03091043D01*
X06856280Y03087324D01*
X06854817Y03083176D01*
X06854310Y03078807D01*
X06854310Y03078740D01*
X07545395Y03098425D02*
X07858247D01*
X07417302D02*
X06873995D01*
X07525710Y03078740D02*
Y02992189D01*
X07858247Y02716535D02*
X07782523D01*
X07015727Y02507874D02*
X07020099Y02508365D01*
X07024251Y02509815D01*
X07027978Y02512151D01*
X07031094Y02515256D01*
X07033442Y02518975D01*
X07034906Y02523123D01*
X07035412Y02527492D01*
X07035413Y02527559D01*
X07877932D02*
Y02696850D01*
X07114153Y02527559D02*
X07114644Y02523188D01*
X07116094Y02519035D01*
X07118429Y02515308D01*
X07121534Y02512192D01*
X07125254Y02509844D01*
X07129401Y02508380D01*
X07133771Y02507874D01*
X07133838Y02507874D01*
X07417302Y02972504D02*
X07421673Y02972995D01*
X07425826Y02974445D01*
X07429553Y02976781D01*
X07432669Y02979886D01*
X07435017Y02983605D01*
X07436481Y02987753D01*
X07436987Y02992122D01*
X07436987Y02992189D01*
X07133838Y02507874D02*
X07858247D01*
X07877932Y02696850D02*
X07877441Y02701221D01*
X07875991Y02705374D01*
X07873655Y02709101D01*
X07870550Y02712217D01*
X07866831Y02714565D01*
X07862683Y02716029D01*
X07858314Y02716535D01*
X07858247Y02716535D01*
X07114153Y02614110D02*
Y02527559D01*
X07782523Y02795275D02*
X07858247D01*
X07525710Y02992189D02*
X07526201Y02987818D01*
X07527651Y02983665D01*
X07529987Y02979938D01*
X07533092Y02976822D01*
X07536811Y02974474D01*
X07540959Y02973010D01*
X07545328Y02972504D01*
X07545395Y02972504D01*
X07877932Y03078740D02*
X07877441Y03083111D01*
X07875991Y03087264D01*
X07873655Y03090991D01*
X07870550Y03094106D01*
X07866831Y03096455D01*
X07862683Y03097919D01*
X07858314Y03098425D01*
X07858247Y03098425D01*
X07035413Y02614110D02*
Y02527559D01*
Y02614110D02*
X07034921Y02618481D01*
X07033471Y02622634D01*
X07031136Y02626361D01*
X07028031Y02629477D01*
X07024312Y02631825D01*
X07020164Y02633289D01*
X07015794Y02633795D01*
X07015727Y02633795D01*
X07858247Y02507874D02*
X07862618Y02508365D01*
X07866771Y02509815D01*
X07870498Y02512151D01*
X07873614Y02515256D01*
X07875962Y02518975D01*
X07877426Y02523123D01*
X07877932Y02527492D01*
X07877932Y02527559D01*
X07545395Y03098425D02*
X07541024Y03097934D01*
X07536871Y03096484D01*
X07533144Y03094148D01*
X07530028Y03091043D01*
X07527680Y03087324D01*
X07526216Y03083176D01*
X07525710Y03078807D01*
X07525710Y03078740D01*
X06854310Y02527559D02*
X06854802Y02523188D01*
X06856251Y02519035D01*
X06858587Y02515308D01*
X06861692Y02512192D01*
X06865411Y02509844D01*
X06869559Y02508380D01*
X06873928Y02507874D01*
X06873995Y02507874D01*
X07133838Y02633795D02*
X07129467Y02633304D01*
X07125314Y02631854D01*
X07121587Y02629518D01*
X07118471Y02626413D01*
X07116123Y02622694D01*
X07114659Y02618546D01*
X07114153Y02614177D01*
X07114153Y02614110D01*
X07877932Y02814960D02*
Y03078740D01*
X06854310D02*
Y02527559D01*
X07782523Y02716535D02*
X07778152Y02716044D01*
X07773999Y02714594D01*
X07770272Y02712258D01*
X07767156Y02709153D01*
X07764808Y02705434D01*
X07763344Y02701286D01*
X07762838Y02696917D01*
X07762838Y02696850D01*
Y02814960D02*
X07763329Y02810589D01*
X07764779Y02806437D01*
X07767114Y02802709D01*
X07770219Y02799594D01*
X07773939Y02797246D01*
X07778087Y02795782D01*
X07782456Y02795275D01*
X07782523Y02795275D01*
X06873995Y02507874D02*
X07015727D01*
X07858247Y02795275D02*
X07862618Y02795767D01*
X07866771Y02797217D01*
X07870498Y02799552D01*
X07873614Y02802657D01*
X07875962Y02806376D01*
X07877426Y02810524D01*
X07877932Y02814894D01*
X07877932Y02814960D01*
X07762838Y02633795D02*
Y02696850D01*
Y02972504D02*
X07545395D01*
X06979247D02*
Y02633795D01*
X07015727D01*
X07133838D02*
X07762838D01*
X07417302Y02972504D02*
X06979247D01*
X07762838Y02814960D02*
Y02972504D01*
X06578720Y03334645D02*
Y04751968D01*
X08153523D01*
Y03334645D01*
X06578720D01*
X07436987Y04496063D02*
X07436496Y04500434D01*
X07435046Y04504587D01*
X07432711Y04508314D01*
X07429606Y04511429D01*
X07425886Y04513778D01*
X07421738Y04515241D01*
X07417369Y04515748D01*
X07417302Y04515748D01*
X07436987Y04409512D02*
Y04496063D01*
X06873995Y04515748D02*
X06869624Y04515256D01*
X06865471Y04513807D01*
X06861744Y04511471D01*
X06858629Y04508366D01*
X06856280Y04504647D01*
X06854817Y04500499D01*
X06854310Y04496130D01*
X06854310Y04496063D01*
X07545395Y04515748D02*
X07858247D01*
X07417302D02*
X06873995D01*
X07525710Y04496063D02*
Y04409512D01*
X07858247Y04133858D02*
X07782523D01*
X07015727Y03925197D02*
X07020099Y03925688D01*
X07024251Y03927138D01*
X07027978Y03929473D01*
X07031094Y03932578D01*
X07033442Y03936298D01*
X07034906Y03940445D01*
X07035412Y03944815D01*
X07035413Y03944882D01*
X07877932D02*
Y04114173D01*
X07114153Y03944882D02*
X07114644Y03940511D01*
X07116094Y03936358D01*
X07118429Y03932631D01*
X07121534Y03929515D01*
X07125254Y03927167D01*
X07129401Y03925703D01*
X07133771Y03925197D01*
X07133838Y03925197D01*
X07417302Y04389827D02*
X07421673Y04390318D01*
X07425826Y04391768D01*
X07429553Y04394103D01*
X07432669Y04397208D01*
X07435017Y04400928D01*
X07436481Y04405075D01*
X07436987Y04409445D01*
X07436987Y04409512D01*
X07133838Y03925197D02*
X07858247D01*
X07877932Y04114173D02*
X07877441Y04118544D01*
X07875991Y04122697D01*
X07873655Y04126424D01*
X07870550Y04129540D01*
X07866831Y04131888D01*
X07862683Y04133352D01*
X07858314Y04133858D01*
X07858247Y04133858D01*
X07114153Y04031433D02*
Y03944882D01*
X07782523Y04212598D02*
X07858247D01*
X07525710Y04409512D02*
X07526201Y04405141D01*
X07527651Y04400988D01*
X07529987Y04397261D01*
X07533092Y04394145D01*
X07536811Y04391797D01*
X07540959Y04390333D01*
X07545328Y04389827D01*
X07545395Y04389827D01*
X07877932Y04496063D02*
X07877441Y04500434D01*
X07875991Y04504587D01*
X07873655Y04508314D01*
X07870550Y04511429D01*
X07866831Y04513778D01*
X07862683Y04515241D01*
X07858314Y04515748D01*
X07858247Y04515748D01*
X07035413Y04031433D02*
Y03944882D01*
Y04031433D02*
X07034921Y04035804D01*
X07033471Y04039957D01*
X07031136Y04043684D01*
X07028031Y04046799D01*
X07024312Y04049148D01*
X07020164Y04050612D01*
X07015794Y04051118D01*
X07015727Y04051118D01*
X07858247Y03925197D02*
X07862618Y03925688D01*
X07866771Y03927138D01*
X07870498Y03929473D01*
X07873614Y03932578D01*
X07875962Y03936298D01*
X07877426Y03940445D01*
X07877932Y03944815D01*
X07877932Y03944882D01*
X07545395Y04515748D02*
X07541024Y04515256D01*
X07536871Y04513807D01*
X07533144Y04511471D01*
X07530028Y04508366D01*
X07527680Y04504647D01*
X07526216Y04500499D01*
X07525710Y04496130D01*
X07525710Y04496063D01*
X06854310Y03944882D02*
X06854802Y03940511D01*
X06856251Y03936358D01*
X06858587Y03932631D01*
X06861692Y03929515D01*
X06865411Y03927167D01*
X06869559Y03925703D01*
X06873928Y03925197D01*
X06873995Y03925197D01*
X07133838Y04051118D02*
X07129467Y04050626D01*
X07125314Y04049177D01*
X07121587Y04046841D01*
X07118471Y04043736D01*
X07116123Y04040017D01*
X07114659Y04035869D01*
X07114153Y04031500D01*
X07114153Y04031433D01*
X07877932Y04232283D02*
Y04496063D01*
X06854310D02*
Y03944882D01*
X07782523Y04133858D02*
X07778152Y04133367D01*
X07773999Y04131917D01*
X07770272Y04129581D01*
X07767156Y04126476D01*
X07764808Y04122757D01*
X07763344Y04118609D01*
X07762838Y04114240D01*
X07762838Y04114173D01*
Y04232283D02*
X07763329Y04227912D01*
X07764779Y04223759D01*
X07767114Y04220032D01*
X07770219Y04216917D01*
X07773939Y04214568D01*
X07778087Y04213105D01*
X07782456Y04212598D01*
X07782523Y04212598D01*
X06873995Y03925197D02*
X07015727D01*
X07858247Y04212598D02*
X07862618Y04213090D01*
X07866771Y04214539D01*
X07870498Y04216875D01*
X07873614Y04219980D01*
X07875962Y04223699D01*
X07877426Y04227847D01*
X07877932Y04232216D01*
X07877932Y04232283D01*
X07762838Y04051118D02*
Y04114173D01*
Y04389827D02*
X07545395D01*
X06979247D02*
Y04051118D01*
X07015727D01*
X07133838D02*
X07762838D01*
X07417302Y04389827D02*
X06979247D01*
X07762838Y04232283D02*
Y04389827D01*
X06578720Y04751968D02*
Y06169291D01*
X08153523D01*
Y04751968D01*
X06578720D01*
X07436987Y05913386D02*
X07436496Y05917757D01*
X07435046Y05921909D01*
X07432711Y05925637D01*
X07429606Y05928752D01*
X07425886Y05931100D01*
X07421738Y05932564D01*
X07417369Y05933071D01*
X07417302Y05933071D01*
X07436987Y05826834D02*
Y05913386D01*
X06873995Y05933071D02*
X06869624Y05932579D01*
X06865471Y05931130D01*
X06861744Y05928794D01*
X06858629Y05925689D01*
X06856280Y05921970D01*
X06854817Y05917822D01*
X06854310Y05913452D01*
X06854310Y05913386D01*
X07545395Y05933071D02*
X07858247D01*
X07417302D02*
X06873995D01*
X07525710Y05913386D02*
Y05826834D01*
X07858247Y05551181D02*
X07782523D01*
X07015727Y05342519D02*
X07020099Y05343011D01*
X07024251Y05344461D01*
X07027978Y05346796D01*
X07031094Y05349901D01*
X07033442Y05353620D01*
X07034906Y05357768D01*
X07035412Y05362138D01*
X07035413Y05362205D01*
X07877932D02*
Y05531496D01*
X07114153Y05362205D02*
X07114644Y05357833D01*
X07116094Y05353681D01*
X07118429Y05349954D01*
X07121534Y05346838D01*
X07125254Y05344490D01*
X07129401Y05343026D01*
X07133771Y05342520D01*
X07133838Y05342519D01*
X07417302Y05807149D02*
X07421673Y05807641D01*
X07425826Y05809091D01*
X07429553Y05811426D01*
X07432669Y05814531D01*
X07435017Y05818250D01*
X07436481Y05822398D01*
X07436987Y05826768D01*
X07436987Y05826834D01*
X07133838Y05342519D02*
X07858247D01*
X07877932Y05531496D02*
X07877441Y05535867D01*
X07875991Y05540020D01*
X07873655Y05543747D01*
X07870550Y05546862D01*
X07866831Y05549211D01*
X07862683Y05550675D01*
X07858314Y05551181D01*
X07858247Y05551181D01*
X07114153Y05448756D02*
Y05362205D01*
X07782523Y05629921D02*
X07858247D01*
X07525710Y05826834D02*
X07526201Y05822463D01*
X07527651Y05818311D01*
X07529987Y05814583D01*
X07533092Y05811468D01*
X07536811Y05809120D01*
X07540959Y05807656D01*
X07545328Y05807150D01*
X07545395Y05807149D01*
X07877932Y05913386D02*
X07877441Y05917757D01*
X07875991Y05921909D01*
X07873655Y05925637D01*
X07870550Y05928752D01*
X07866831Y05931100D01*
X07862683Y05932564D01*
X07858314Y05933071D01*
X07858247Y05933071D01*
X07035413Y05448756D02*
Y05362205D01*
Y05448756D02*
X07034921Y05453127D01*
X07033471Y05457280D01*
X07031136Y05461007D01*
X07028031Y05464122D01*
X07024312Y05466471D01*
X07020164Y05467934D01*
X07015794Y05468441D01*
X07015727Y05468441D01*
X07858247Y05342519D02*
X07862618Y05343011D01*
X07866771Y05344461D01*
X07870498Y05346796D01*
X07873614Y05349901D01*
X07875962Y05353620D01*
X07877426Y05357768D01*
X07877932Y05362138D01*
X07877932Y05362205D01*
X07545395Y05933071D02*
X07541024Y05932579D01*
X07536871Y05931130D01*
X07533144Y05928794D01*
X07530028Y05925689D01*
X07527680Y05921970D01*
X07526216Y05917822D01*
X07525710Y05913452D01*
X07525710Y05913386D01*
X06854310Y05362205D02*
X06854802Y05357833D01*
X06856251Y05353681D01*
X06858587Y05349954D01*
X06861692Y05346838D01*
X06865411Y05344490D01*
X06869559Y05343026D01*
X06873928Y05342520D01*
X06873995Y05342519D01*
X07133838Y05468441D02*
X07129467Y05467949D01*
X07125314Y05466500D01*
X07121587Y05464164D01*
X07118471Y05461059D01*
X07116123Y05457340D01*
X07114659Y05453192D01*
X07114153Y05448823D01*
X07114153Y05448756D01*
X07877932Y05649606D02*
Y05913386D01*
X06854310D02*
Y05362205D01*
X07782523Y05551181D02*
X07778152Y05550689D01*
X07773999Y05549240D01*
X07770272Y05546904D01*
X07767156Y05543799D01*
X07764808Y05540080D01*
X07763344Y05535932D01*
X07762838Y05531563D01*
X07762838Y05531496D01*
Y05649606D02*
X07763329Y05645235D01*
X07764779Y05641082D01*
X07767114Y05637355D01*
X07770219Y05634240D01*
X07773939Y05631891D01*
X07778087Y05630427D01*
X07782456Y05629921D01*
X07782523Y05629921D01*
X06873995Y05342519D02*
X07015727D01*
X07858247Y05629921D02*
X07862618Y05630413D01*
X07866771Y05631862D01*
X07870498Y05634198D01*
X07873614Y05637303D01*
X07875962Y05641022D01*
X07877426Y05645170D01*
X07877932Y05649539D01*
X07877932Y05649606D01*
X07762838Y05468441D02*
Y05531496D01*
Y05807149D02*
X07545395D01*
X06979247D02*
Y05468441D01*
X07015727D01*
X07133838D02*
X07762838D01*
X07417302Y05807149D02*
X06979247D01*
X07762838Y05649606D02*
Y05807149D01*
X06578720Y06169291D02*
Y07586614D01*
X08153523D01*
Y06169291D01*
X06578720D01*
X07436987Y07330708D02*
X07436496Y07335080D01*
X07435046Y07339232D01*
X07432711Y07342959D01*
X07429606Y07346075D01*
X07425886Y07348423D01*
X07421738Y07349887D01*
X07417369Y07350393D01*
X07417302Y07350394D01*
X07436987Y07244157D02*
Y07330708D01*
X06873995Y07350394D02*
X06869624Y07349902D01*
X06865471Y07348452D01*
X06861744Y07346117D01*
X06858629Y07343012D01*
X06856280Y07339293D01*
X06854817Y07335145D01*
X06854310Y07330775D01*
X06854310Y07330708D01*
X07545395Y07350394D02*
X07858247D01*
X07417302D02*
X06873995D01*
X07525710Y07330708D02*
Y07244157D01*
X07858247Y06968504D02*
X07782523D01*
X07015727Y06759842D02*
X07020099Y06760334D01*
X07024251Y06761783D01*
X07027978Y06764119D01*
X07031094Y06767224D01*
X07033442Y06770943D01*
X07034906Y06775091D01*
X07035412Y06779461D01*
X07035413Y06779527D01*
X07877932D02*
Y06948819D01*
X07114153Y06779527D02*
X07114644Y06775156D01*
X07116094Y06771004D01*
X07118429Y06767276D01*
X07121534Y06764161D01*
X07125254Y06761813D01*
X07129401Y06760349D01*
X07133771Y06759842D01*
X07133838Y06759842D01*
X07417302Y07224472D02*
X07421673Y07224964D01*
X07425826Y07226413D01*
X07429553Y07228749D01*
X07432669Y07231854D01*
X07435017Y07235573D01*
X07436481Y07239721D01*
X07436987Y07244090D01*
X07436987Y07244157D01*
X07133838Y06759842D02*
X07858247D01*
X07877932Y06948819D02*
X07877441Y06953190D01*
X07875991Y06957343D01*
X07873655Y06961070D01*
X07870550Y06964185D01*
X07866831Y06966534D01*
X07862683Y06967997D01*
X07858314Y06968504D01*
X07858247Y06968504D01*
X07114153Y06866079D02*
Y06779527D01*
X07782523Y07047244D02*
X07858247D01*
X07525710Y07244157D02*
X07526201Y07239786D01*
X07527651Y07235633D01*
X07529987Y07231906D01*
X07533092Y07228791D01*
X07536811Y07226442D01*
X07540959Y07224979D01*
X07545328Y07224472D01*
X07545395Y07224472D01*
X07877932Y07330708D02*
X07877441Y07335080D01*
X07875991Y07339232D01*
X07873655Y07342959D01*
X07870550Y07346075D01*
X07866831Y07348423D01*
X07862683Y07349887D01*
X07858314Y07350393D01*
X07858247Y07350394D01*
X07035413Y06866079D02*
Y06779527D01*
Y06866079D02*
X07034921Y06870450D01*
X07033471Y06874602D01*
X07031136Y06878330D01*
X07028031Y06881445D01*
X07024312Y06883793D01*
X07020164Y06885257D01*
X07015794Y06885763D01*
X07015727Y06885764D01*
X07858247Y06759842D02*
X07862618Y06760334D01*
X07866771Y06761783D01*
X07870498Y06764119D01*
X07873614Y06767224D01*
X07875962Y06770943D01*
X07877426Y06775091D01*
X07877932Y06779461D01*
X07877932Y06779527D01*
X07545395Y07350394D02*
X07541024Y07349902D01*
X07536871Y07348452D01*
X07533144Y07346117D01*
X07530028Y07343012D01*
X07527680Y07339293D01*
X07526216Y07335145D01*
X07525710Y07330775D01*
X07525710Y07330708D01*
X06854310Y06779527D02*
X06854802Y06775156D01*
X06856251Y06771004D01*
X06858587Y06767276D01*
X06861692Y06764161D01*
X06865411Y06761813D01*
X06869559Y06760349D01*
X06873928Y06759842D01*
X06873995Y06759842D01*
X07133838Y06885764D02*
X07129467Y06885272D01*
X07125314Y06883822D01*
X07121587Y06881487D01*
X07118471Y06878382D01*
X07116123Y06874663D01*
X07114659Y06870515D01*
X07114153Y06866145D01*
X07114153Y06866079D01*
X07877932Y07066929D02*
Y07330708D01*
X06854310D02*
Y06779527D01*
X07782523Y06968504D02*
X07778152Y06968012D01*
X07773999Y06966563D01*
X07770272Y06964227D01*
X07767156Y06961122D01*
X07764808Y06957403D01*
X07763344Y06953255D01*
X07762838Y06948886D01*
X07762838Y06948819D01*
Y07066929D02*
X07763329Y07062558D01*
X07764779Y07058405D01*
X07767114Y07054678D01*
X07770219Y07051562D01*
X07773939Y07049214D01*
X07778087Y07047750D01*
X07782456Y07047244D01*
X07782523Y07047244D01*
X06873995Y06759842D02*
X07015727D01*
X07858247Y07047244D02*
X07862618Y07047735D01*
X07866771Y07049185D01*
X07870498Y07051521D01*
X07873614Y07054626D01*
X07875962Y07058345D01*
X07877426Y07062493D01*
X07877932Y07066862D01*
X07877932Y07066929D01*
X07762838Y06885764D02*
Y06948819D01*
Y07224472D02*
X07545395D01*
X06979247D02*
Y06885764D01*
X07015727D01*
X07133838D02*
X07762838D01*
X07417302Y07224472D02*
X06979247D01*
X07762838Y07066929D02*
Y07224472D01*
X06078720Y08086614D02*
X08653523D01*
Y-00000000D01*
X06078720D01*
Y08086614D01*
X06578720Y-00000000D02*
Y08086614D01*
X08153523Y-00000000D02*
Y08086614D01*
X08653523Y01917323D02*
X06078720D01*
Y00500000D02*
X08653523D01*
Y03334645D02*
X06078720D01*
X08653523Y04751968D02*
X06078720D01*
X08653523Y06169291D02*
X06078720D01*
X08653523Y07586614D02*
X06078720D01*
G54D11*
X00250000Y00250000D03*
G54D11*
Y09037402D03*
G54D11*
X02584646Y00250000D03*
G54D11*
Y09037402D03*
X03202746Y00250000D03*
G54D11*
X05710619D03*
G54D11*
X03202746Y08624016D03*
G54D11*
X05710619D03*
X06328720Y00250000D03*
G54D11*
Y07836614D03*
G54D11*
X08403522Y00250000D03*
G54D11*
Y07836614D03*
M02*
