*
%FSLAX26Y26*%
%MOIN*%
%ADD10C,0.051200*%
%ADD11C,0.126000*%
%ADD12C,0.041200*%
%ADD13C,0.025600*%
%IPPOS*%
%LN1g.gbx*%
%LPD*%
G75*
G54D10*
X01448851Y01539370D03*
Y01377953D03*
X01375985Y00773591D03*
X01218504D03*
X00771623Y01332678D03*
Y01490158D03*
X01448851Y03196851D03*
Y03035433D03*
X01375985Y02431071D03*
X01218504D03*
X00771623Y02990158D03*
Y03147638D03*
X01448851Y04854331D03*
Y04692914D03*
X01375985Y04088552D03*
X01218504D03*
X00771623Y04647638D03*
Y04805119D03*
X01448851Y06511811D03*
Y06350394D03*
X01375985Y05746032D03*
X01218504D03*
X00771623Y06305119D03*
Y06462599D03*
X01448851Y08169292D03*
Y08007874D03*
X01375985Y07403512D03*
X01218504D03*
X00771623Y07962599D03*
Y08120079D03*
G54D11*
X00250000Y00250000D03*
G54D11*
Y09037402D03*
G54D11*
X02584646Y00250000D03*
G54D11*
Y09037402D03*
G54D12*
X00250000Y00250000D03*
G54D12*
Y09037402D03*
G54D12*
X02584646Y00250000D03*
G54D12*
Y09037402D03*
G54D10*
X04386605Y01503862D03*
G54D10*
X04536471Y01653358D03*
G54D10*
X04967294Y00921907D03*
G54D10*
X05117312Y01070940D03*
G54D10*
X04386605Y03078665D03*
G54D10*
X04536471Y03228161D03*
G54D10*
X04967294Y02496710D03*
G54D10*
X05117312Y02645744D03*
G54D10*
X04386605Y04653468D03*
G54D10*
X04536471Y04802964D03*
G54D10*
X04967294Y04071513D03*
G54D10*
X05117312Y04220547D03*
G54D10*
X04386605Y06228271D03*
G54D10*
X04536471Y06377767D03*
G54D10*
X04967294Y05646317D03*
G54D10*
X05117312Y05795350D03*
G54D10*
X04386605Y07803074D03*
G54D10*
X04536471Y07952570D03*
G54D10*
X04967294Y07221120D03*
G54D10*
X05117312Y07370153D03*
G54D11*
X03202746Y00250000D03*
G54D11*
X05710619D03*
G54D11*
X03202746Y08624016D03*
G54D11*
X05710619D03*
G54D12*
X03202746Y00250000D03*
G54D12*
X05710619D03*
G54D12*
X03202746Y08624016D03*
G54D12*
X05710619D03*
G54D13*
X07015727Y01196787D03*
G54D13*
X07133838Y01110236D03*
G54D13*
X07417302Y01574866D03*
G54D13*
X07545395Y01661417D03*
G54D13*
X07782523Y01397638D03*
G54D13*
X07858247Y01279527D03*
G54D13*
X07015727Y02614110D03*
G54D13*
X07133838Y02527559D03*
G54D13*
X07417302Y02992189D03*
G54D13*
X07545395Y03078740D03*
G54D13*
X07782523Y02814960D03*
G54D13*
X07858247Y02696850D03*
G54D13*
X07015727Y04031433D03*
G54D13*
X07133838Y03944882D03*
G54D13*
X07417302Y04409512D03*
G54D13*
X07545395Y04496063D03*
G54D13*
X07782523Y04232283D03*
G54D13*
X07858247Y04114173D03*
G54D13*
X07015727Y05448756D03*
G54D13*
X07133838Y05362205D03*
G54D13*
X07417302Y05826834D03*
G54D13*
X07545395Y05913386D03*
G54D13*
X07782523Y05649606D03*
G54D13*
X07858247Y05531496D03*
G54D13*
X07015727Y06866079D03*
G54D13*
X07133838Y06779527D03*
G54D13*
X07417302Y07244157D03*
G54D13*
X07545395Y07330708D03*
G54D13*
X07782523Y07066929D03*
G54D13*
X07858247Y06948819D03*
G54D11*
X06328720Y00250000D03*
G54D11*
Y07836614D03*
G54D11*
X08403522Y00250000D03*
G54D11*
Y07836614D03*
G54D12*
X06328720Y00250000D03*
G54D12*
Y07836614D03*
G54D12*
X08403522Y00250000D03*
G54D12*
Y07836614D03*
M02*
