*
%FSLAX26Y26*%
%MOIN*%
%ADD10C,0.043300*%
%ADD11C,0.023600*%
%IPPOS*%
%LN2d.gbx*%
%LPD*%
G75*
G54D10*
X01856693Y01465748D03*
Y01365748D03*
Y01265748D03*
Y01165748D03*
Y01065748D03*
X01956693Y01465748D03*
Y01365748D03*
Y01265748D03*
Y01165748D03*
Y01065748D03*
X01856693Y03123229D03*
Y03023229D03*
Y02923229D03*
Y02823229D03*
Y02723229D03*
X01956693Y03123229D03*
Y03023229D03*
Y02923229D03*
Y02823229D03*
Y02723229D03*
X01856693Y04780709D03*
Y04680709D03*
Y04580709D03*
Y04480709D03*
Y04380709D03*
X01956693Y04780709D03*
Y04680709D03*
Y04580709D03*
Y04480709D03*
Y04380709D03*
X01856693Y06438189D03*
Y06338189D03*
Y06238189D03*
Y06138189D03*
Y06038189D03*
X01956693Y06438189D03*
Y06338189D03*
Y06238189D03*
Y06138189D03*
Y06038189D03*
X01856693Y08095670D03*
Y07995670D03*
Y07895670D03*
Y07795670D03*
Y07695670D03*
X01956693Y08095670D03*
Y07995670D03*
Y07895670D03*
Y07795670D03*
Y07695670D03*
G54D10*
X03777451Y01087401D03*
G54D10*
X03877451D03*
G54D10*
X03777451Y01187401D03*
G54D10*
X03877451D03*
G54D10*
X03777451Y01287401D03*
G54D10*
X03877451D03*
G54D10*
X03777451Y01387401D03*
G54D10*
X03877451D03*
G54D10*
X03777451Y01487401D03*
G54D10*
X03877451D03*
G54D10*
X03777451Y02662205D03*
G54D10*
X03877451D03*
G54D10*
X03777451Y02762205D03*
G54D10*
X03877451D03*
G54D10*
X03777451Y02862205D03*
G54D10*
X03877451D03*
G54D10*
X03777451Y02962205D03*
G54D10*
X03877451D03*
G54D10*
X03777451Y03062205D03*
G54D10*
X03877451D03*
G54D10*
X03777451Y04237008D03*
G54D10*
X03877451D03*
G54D10*
X03777451Y04337008D03*
G54D10*
X03877451D03*
G54D10*
X03777451Y04437008D03*
G54D10*
X03877451D03*
G54D10*
X03777451Y04537008D03*
G54D10*
X03877451D03*
G54D10*
X03777451Y04637008D03*
G54D10*
X03877451D03*
G54D10*
X03777451Y05811811D03*
G54D10*
X03877451D03*
G54D10*
X03777451Y05911811D03*
G54D10*
X03877451D03*
G54D10*
X03777451Y06011811D03*
G54D10*
X03877451D03*
G54D10*
X03777451Y06111811D03*
G54D10*
X03877451D03*
G54D10*
X03777451Y06211811D03*
G54D10*
X03877451D03*
G54D10*
X03777451Y07386614D03*
G54D10*
X03877451D03*
G54D10*
X03777451Y07486614D03*
G54D10*
X03877451D03*
G54D10*
X03777451Y07586614D03*
G54D10*
X03877451D03*
G54D10*
X03777451Y07686614D03*
G54D10*
X03877451D03*
G54D10*
X03777451Y07786614D03*
G54D10*
X03877451D03*
G54D11*
X07731279Y01330315D03*
G54D11*
X07704725Y01359600D03*
G54D11*
X07734029Y01386547D03*
G54D10*
X07096830Y00644882D03*
G54D10*
Y00744882D03*
G54D10*
Y00844882D03*
G54D11*
X07731279Y02747638D03*
G54D11*
X07704725Y02776922D03*
G54D11*
X07734029Y02803870D03*
G54D10*
X07096830Y02062205D03*
G54D10*
Y02162205D03*
G54D10*
Y02262205D03*
G54D11*
X07731279Y04164960D03*
G54D11*
X07704725Y04194245D03*
G54D11*
X07734029Y04221192D03*
G54D10*
X07096830Y03479527D03*
G54D10*
Y03579527D03*
G54D10*
Y03679527D03*
G54D11*
X07731279Y05582283D03*
G54D11*
X07704725Y05611568D03*
G54D11*
X07734029Y05638515D03*
G54D10*
X07096830Y04896850D03*
G54D10*
Y04996850D03*
G54D10*
Y05096850D03*
G54D11*
X07731279Y06999606D03*
G54D11*
X07704725Y07028891D03*
G54D11*
X07734029Y07055838D03*
G54D10*
X07096830Y06314173D03*
G54D10*
Y06414173D03*
G54D10*
Y06514173D03*
M02*
