*
%FSLAX26Y26*%
%MOIN*%
%ADD10C,0.004900*%
%ADD11C,0.007900*%
%ADD12C,0.011800*%
%IPPOS*%
%LN1d.gbx*%
%LPD*%
G75*
G54D10*
X00824410Y01149607D03*
Y01033071D03*
X00824804Y01314961D03*
Y01204725D03*
Y01175197D03*
X00827560Y00849607D03*
X00827953Y01534252D03*
X00829134Y01561811D03*
X00842126Y01620867D03*
X00852756Y00833071D03*
X00856300Y00958662D03*
X00862109Y01480331D03*
X00866142Y01097244D03*
X00870099Y01434036D03*
X00871260Y01714567D03*
X00888189Y01074784D03*
X00893701Y01647638D03*
X00893741Y01185743D03*
X00903524Y01425591D03*
X00903544Y01411418D03*
X00903563Y01366142D03*
X00904331Y01463780D03*
Y01443701D03*
X00905119Y01074804D03*
X00905512Y01625985D03*
Y01112993D03*
X00906693Y00850394D03*
X00907087Y00825591D03*
X00909449Y00962599D03*
Y00919292D03*
X00917323Y01708662D03*
X00933071Y01436989D03*
X00937796Y01060630D03*
Y01033859D03*
X00938977Y01667323D03*
X00944882Y01702756D03*
X00945670Y01172048D03*
X00948819Y00942126D03*
Y00832678D03*
X00950788Y00974410D03*
X00951182Y00996063D03*
X00956713Y01525591D03*
X00972441Y01667323D03*
X00976378Y00834646D03*
X00985040Y01149213D03*
X00986989Y01163386D03*
Y01070473D03*
X00987402Y01115355D03*
X00990158Y01436989D03*
X00992126Y01667323D03*
Y00994095D03*
Y00915355D03*
X01001949Y01437018D03*
X01011812Y01667323D03*
X01013741Y01436989D03*
X01015749Y01714567D03*
X01019686Y01007874D03*
X01027166Y01207087D03*
X01030729Y00978347D03*
X01031497Y01667323D03*
Y00956693D03*
X01045276Y01436989D03*
X01051182Y01667323D03*
X01057068Y01436989D03*
X01057087Y01163386D03*
X01065749Y01208268D03*
X01070867Y01667323D03*
X01072835Y01031496D03*
X01073229Y01129922D03*
X01084666Y01436989D03*
X01086615Y01714567D03*
X01090552Y01667323D03*
X01091900Y00824463D03*
X01094489Y00891733D03*
X01098032Y00846457D03*
X01101812Y01000037D03*
X01110237Y01667323D03*
X01116142Y01437008D03*
X01122835Y01208681D03*
X01125591Y01072048D03*
X01129922Y01667323D03*
X01130709Y00824016D03*
X01131871Y01350788D03*
Y01341339D03*
X01131910Y01360256D03*
X01147658Y01000000D03*
X01149607Y01667323D03*
X01156300Y01189370D03*
X01158662Y00825197D03*
X01159463Y01435267D03*
X01164567Y00855512D03*
X01166516Y01068898D03*
X01167323Y01029941D03*
X01169292Y01667323D03*
X01170867Y01114961D03*
X01175197Y00923229D03*
X01175281Y01365832D03*
X01177953Y01022658D03*
X01178276Y01314382D03*
X01180709Y00889370D03*
X01182068Y01413386D03*
X01183071Y01252756D03*
X01184178Y01092061D03*
X01185020Y01519261D03*
Y01483887D03*
X01185040Y01568898D03*
X01185059Y01507470D03*
Y01495678D03*
X01187008Y01048209D03*
X01188957Y01192126D03*
X01188977Y01712599D03*
Y01665355D03*
Y01206319D03*
X01189567Y01178543D03*
X01196851Y00856300D03*
X01203544Y01355906D03*
X01205189Y00847962D03*
X01205512Y01271674D03*
X01206693Y01296457D03*
X01208662Y01663386D03*
Y01096457D03*
X01212205Y01689370D03*
X01212599Y01232284D03*
X01214587Y01411325D03*
X01214737Y01387853D03*
X01216536Y01399607D03*
X01217770Y01435186D03*
X01220473Y00849962D03*
X01222441Y01110237D03*
X01222461Y01088583D03*
X01224410Y01354725D03*
X01228347Y01631890D03*
X01232284Y01274430D03*
X01235434Y00854331D03*
X01235614Y01565156D03*
X01238322Y00885847D03*
X01241339Y01652756D03*
X01244095Y01631890D03*
Y01173209D03*
Y01116142D03*
X01248819Y01712993D03*
X01249119Y01278713D03*
X01250000Y01259843D03*
X01250065Y01216251D03*
X01250630Y01242163D03*
X01253938Y01358268D03*
X01257875Y01169292D03*
X01258268Y01418111D03*
X01258511Y01432852D03*
X01260700Y01385398D03*
X01261141Y01566055D03*
X01261812Y00824410D03*
X01262711Y01199925D03*
X01263780Y01631890D03*
X01264174Y01647638D03*
X01264337Y01495611D03*
X01264703Y01246973D03*
X01265749Y01275591D03*
X01270079Y01394095D03*
X01277018Y01200778D03*
X01278484Y01278657D03*
X01279528Y01324804D03*
Y01104331D03*
X01280484Y01215503D03*
X01280615Y01292154D03*
X01280681Y01247150D03*
X01281497Y01633859D03*
X01281871Y01233670D03*
X01283465Y01085892D03*
X01285434Y01484646D03*
X01291339Y01516122D03*
X01292520Y01711811D03*
X01293990Y01276375D03*
X01294189Y01213414D03*
X01294524Y01170276D03*
X01296430Y01292221D03*
X01296745Y01122547D03*
X01296851Y01260237D03*
X01305867Y01211575D03*
X01309056Y01228347D03*
X01309573Y01294610D03*
X01309871Y01276473D03*
X01311024Y01429134D03*
X01312056Y01337864D03*
X01312550Y01325909D03*
X01313154Y01243758D03*
X01317637Y01170138D03*
X01325197Y01483859D03*
X01325619Y01247150D03*
X01325783Y01215593D03*
X01326772Y01712599D03*
X01330709Y01637796D03*
X01332697Y00853544D03*
X01342126Y01472835D03*
G54D10*
X01342760Y01214567D03*
X01344882Y01547638D03*
X01346063Y01527166D03*
X01350394Y01097064D03*
X01352363Y01450788D03*
Y01338583D03*
X01358180Y01110824D03*
X01361024Y01638189D03*
X01362205Y01517717D03*
Y01385827D03*
Y01213408D03*
X01362599Y01678347D03*
X01364567Y01533071D03*
X01366123Y01352568D03*
X01368111Y01277559D03*
X01370079Y00862599D03*
X01374016Y01320867D03*
X01374258Y01377937D03*
X01381910Y01231023D03*
X01389371Y01323622D03*
X01390945Y00920867D03*
X01391713Y00901181D03*
X01393308Y00850788D03*
X01395650Y00958662D03*
Y00937008D03*
X01396457Y01125591D03*
X01397245Y01081103D03*
X01397638Y01012993D03*
X01525591Y01448819D03*
X01533465Y01460237D03*
X01553150Y01413386D03*
X01559056Y01490158D03*
X01582678Y01435040D03*
X02053052Y01096457D03*
G54D11*
X00578741Y01131890D03*
X00598426Y01604331D03*
X00602363Y00580709D03*
X00618111Y02037402D03*
X00836221Y01290945D03*
X00838189Y01496457D03*
X00855354Y01332175D03*
X00869686Y01597638D03*
X01035434Y00997029D03*
X01080709Y01159469D03*
X01087796Y01127166D03*
X01124036Y01120079D03*
X01126567Y00887943D03*
X01131642Y01165851D03*
X01145393Y01179411D03*
X01172441Y01083859D03*
X01173229Y01155512D03*
X01208662Y00580709D03*
X01227560Y00941339D03*
X01232284Y00903544D03*
X01259056Y00942126D03*
X01259843Y00966536D03*
X01271634Y01009769D03*
X01275591Y00907481D03*
X01276772Y00835040D03*
X01299607Y00941733D03*
X01300394Y01470473D03*
X01301350Y00969124D03*
X01303150Y01001969D03*
X01318898Y00910237D03*
X01330689Y00941733D03*
X01338583Y01017717D03*
X01365532Y01050393D03*
X01393701Y01051969D03*
X01562993Y02076772D03*
X01618111Y01807087D03*
X01645670Y00647638D03*
X02194784Y00685040D03*
X02196851Y02061024D03*
X02200788Y01799213D03*
G54D12*
X00846063Y01046457D03*
X00875985Y00852363D03*
X00885827Y01157481D03*
X00993185Y01096560D03*
G54D10*
X00824410Y02807087D03*
Y02690552D03*
X00824804Y02972441D03*
Y02862205D03*
Y02832678D03*
X00827560Y02507087D03*
X00827953Y03191733D03*
X00829134Y03219292D03*
X00842126Y03278347D03*
X00852756Y02490552D03*
X00856300Y02616142D03*
X00862109Y03137811D03*
X00866142Y02754725D03*
X00870099Y03091516D03*
X00871260Y03372048D03*
X00888189Y02732264D03*
X00893701Y03305119D03*
X00893741Y02843224D03*
X00903524Y03083071D03*
X00903544Y03068898D03*
X00903563Y03023622D03*
X00904331Y03121260D03*
Y03101181D03*
X00905119Y02732284D03*
X00905512Y03283465D03*
Y02770473D03*
X00906693Y02507874D03*
X00907087Y02483071D03*
X00909449Y02620079D03*
Y02576772D03*
X00917323Y03366142D03*
X00933071Y03094469D03*
X00937796Y02718111D03*
Y02691339D03*
X00938977Y03324804D03*
X00944882Y03360237D03*
X00945670Y02829528D03*
X00948819Y02599607D03*
Y02490158D03*
X00950788Y02631890D03*
X00951182Y02653544D03*
X00956713Y03183071D03*
X00972441Y03324804D03*
X00976378Y02492126D03*
X00985040Y02806693D03*
X00986989Y02820867D03*
Y02727953D03*
X00987402Y02772835D03*
X00990158Y03094469D03*
X00992126Y03324804D03*
Y02651575D03*
Y02572835D03*
X01001949Y03094498D03*
X01011812Y03324804D03*
X01013741Y03094469D03*
X01015749Y03372048D03*
X01019686Y02665355D03*
X01027166Y02864567D03*
X01030729Y02635827D03*
X01031497Y03324804D03*
Y02614174D03*
X01045276Y03094469D03*
X01051182Y03324804D03*
X01057068Y03094469D03*
X01057087Y02820867D03*
X01065749Y02865748D03*
X01070867Y03324804D03*
X01072835Y02688977D03*
X01073229Y02787402D03*
X01084666Y03094469D03*
X01086615Y03372048D03*
X01090552Y03324804D03*
X01091900Y02481943D03*
X01094489Y02549213D03*
X01098032Y02503937D03*
X01101812Y02657518D03*
X01110237Y03324804D03*
X01116142Y03094489D03*
X01122835Y02866162D03*
X01125591Y02729528D03*
X01129922Y03324804D03*
X01130709Y02481496D03*
X01131871Y03008268D03*
Y02998819D03*
X01131910Y03017737D03*
X01147658Y02657481D03*
X01149607Y03324804D03*
X01156300Y02846851D03*
X01158662Y02482678D03*
X01159463Y03092747D03*
X01164567Y02512993D03*
X01166516Y02726378D03*
X01167323Y02687421D03*
X01169292Y03324804D03*
X01170867Y02772441D03*
X01175197Y02580709D03*
X01175281Y03023313D03*
X01177953Y02680138D03*
X01178276Y02971863D03*
X01180709Y02546851D03*
X01182068Y03070867D03*
X01183071Y02910237D03*
X01184178Y02749541D03*
X01185020Y03176741D03*
Y03141367D03*
X01185040Y03226378D03*
X01185059Y03164950D03*
Y03153159D03*
X01187008Y02705689D03*
X01188957Y02849607D03*
X01188977Y03370079D03*
Y03322835D03*
Y02863800D03*
X01189567Y02836024D03*
X01196851Y02513780D03*
X01203544Y03013386D03*
X01205189Y02505442D03*
X01205512Y02929154D03*
X01206693Y02953937D03*
X01208662Y03320867D03*
Y02753937D03*
X01212205Y03346851D03*
X01212599Y02889764D03*
X01214587Y03068806D03*
X01214737Y03045333D03*
X01216536Y03057087D03*
X01217770Y03092667D03*
X01220473Y02507442D03*
X01222441Y02767717D03*
X01222461Y02746063D03*
X01224410Y03012205D03*
X01228347Y03289370D03*
X01232284Y02931910D03*
X01235434Y02511811D03*
X01235614Y03222636D03*
X01238322Y02543327D03*
X01241339Y03310237D03*
X01244095Y03289370D03*
Y02830689D03*
Y02773622D03*
X01248819Y03370473D03*
X01249119Y02936193D03*
X01250000Y02917323D03*
X01250065Y02873731D03*
X01250630Y02899643D03*
X01253938Y03015748D03*
X01257875Y02826772D03*
X01258268Y03075591D03*
X01258511Y03090333D03*
X01260700Y03042878D03*
X01261141Y03223536D03*
X01261812Y02481890D03*
X01262711Y02857405D03*
X01263780Y03289370D03*
X01264174Y03305119D03*
X01264337Y03153091D03*
X01264703Y02904453D03*
X01265749Y02933071D03*
X01270079Y03051575D03*
X01277018Y02858259D03*
X01278484Y02936137D03*
X01279528Y02982284D03*
Y02761811D03*
X01280484Y02872983D03*
X01280615Y02949634D03*
X01280681Y02904630D03*
X01281497Y03291339D03*
X01281871Y02891151D03*
X01283465Y02743372D03*
X01285434Y03142126D03*
X01291339Y03173603D03*
X01292520Y03369292D03*
X01293990Y02933855D03*
X01294189Y02870894D03*
X01294524Y02827756D03*
X01296430Y02949701D03*
X01296745Y02780028D03*
X01296851Y02917717D03*
X01305867Y02869055D03*
X01309056Y02885827D03*
X01309573Y02952090D03*
X01309871Y02933953D03*
X01311024Y03086615D03*
X01312056Y02995345D03*
X01312550Y02983389D03*
X01313154Y02901238D03*
X01317637Y02827619D03*
X01325197Y03141339D03*
X01325619Y02904630D03*
X01325783Y02873073D03*
X01326772Y03370079D03*
X01330709Y03295276D03*
X01332697Y02511024D03*
X01342126Y03130315D03*
G54D10*
X01342760Y02872048D03*
X01344882Y03205119D03*
X01346063Y03184646D03*
X01350394Y02754545D03*
X01352363Y03108268D03*
Y02996063D03*
X01358180Y02768305D03*
X01361024Y03295670D03*
X01362205Y03175197D03*
Y03043307D03*
Y02870888D03*
X01362599Y03335827D03*
X01364567Y03190552D03*
X01366123Y03010048D03*
X01368111Y02935040D03*
X01370079Y02520079D03*
X01374016Y02978347D03*
X01374258Y03035418D03*
X01381910Y02888504D03*
X01389371Y02981103D03*
X01390945Y02578347D03*
X01391713Y02558662D03*
X01393308Y02508268D03*
X01395650Y02616142D03*
Y02594489D03*
X01396457Y02783071D03*
X01397245Y02738583D03*
X01397638Y02670473D03*
X01525591Y03106300D03*
X01533465Y03117717D03*
X01553150Y03070867D03*
X01559056Y03147638D03*
X01582678Y03092520D03*
X02053052Y02753937D03*
G54D11*
X00578741Y02789370D03*
X00598426Y03261811D03*
X00602363Y02238189D03*
X00618111Y03694882D03*
X00836221Y02948426D03*
X00838189Y03153937D03*
X00855354Y02989656D03*
X00869686Y03255119D03*
X01035434Y02654509D03*
X01080709Y02816949D03*
X01087796Y02784646D03*
X01124036Y02777559D03*
X01126567Y02545423D03*
X01131642Y02823331D03*
X01145393Y02836891D03*
X01172441Y02741339D03*
X01173229Y02812993D03*
X01208662Y02238189D03*
X01227560Y02598819D03*
X01232284Y02561024D03*
X01259056Y02599607D03*
X01259843Y02624016D03*
X01271634Y02667250D03*
X01275591Y02564961D03*
X01276772Y02492520D03*
X01299607Y02599213D03*
X01300394Y03127953D03*
X01301350Y02626604D03*
X01303150Y02659449D03*
X01318898Y02567717D03*
X01330689Y02599213D03*
X01338583Y02675197D03*
X01365532Y02707873D03*
X01393701Y02709449D03*
X01562993Y03734252D03*
X01618111Y03464567D03*
X01645670Y02305119D03*
X02194784Y02342520D03*
X02196851Y03718504D03*
X02200788Y03456693D03*
G54D12*
X00846063Y02703937D03*
X00875985Y02509843D03*
X00885827Y02814961D03*
X00993185Y02754040D03*
G54D10*
X00824410Y04464567D03*
Y04348032D03*
X00824804Y04629922D03*
Y04519685D03*
Y04490158D03*
X00827560Y04164567D03*
X00827953Y04849213D03*
X00829134Y04876772D03*
X00842126Y04935827D03*
X00852756Y04148032D03*
X00856300Y04273622D03*
X00862109Y04795292D03*
X00866142Y04412205D03*
X00870099Y04748997D03*
X00871260Y05029528D03*
X00888189Y04389744D03*
X00893701Y04962599D03*
X00893741Y04500704D03*
X00903524Y04740552D03*
X00903544Y04726378D03*
X00903563Y04681103D03*
X00904331Y04778741D03*
Y04758662D03*
X00905119Y04389764D03*
X00905512Y04940945D03*
Y04427953D03*
X00906693Y04165355D03*
X00907087Y04140552D03*
X00909449Y04277559D03*
Y04234252D03*
X00917323Y05023622D03*
X00933071Y04751949D03*
X00937796Y04375591D03*
Y04348819D03*
X00938977Y04982284D03*
X00944882Y05017717D03*
X00945670Y04487008D03*
X00948819Y04257087D03*
Y04147638D03*
X00950788Y04289370D03*
X00951182Y04311024D03*
X00956713Y04840552D03*
X00972441Y04982284D03*
X00976378Y04149607D03*
X00985040Y04464174D03*
X00986989Y04478347D03*
Y04385433D03*
X00987402Y04430315D03*
X00990158Y04751949D03*
X00992126Y04982284D03*
Y04309056D03*
Y04230315D03*
X01001949Y04751979D03*
X01011812Y04982284D03*
X01013741Y04751949D03*
X01015749Y05029528D03*
X01019686Y04322835D03*
X01027166Y04522048D03*
X01030729Y04293307D03*
X01031497Y04982284D03*
Y04271654D03*
X01045276Y04751949D03*
X01051182Y04982284D03*
X01057068Y04751949D03*
X01057087Y04478347D03*
X01065749Y04523229D03*
X01070867Y04982284D03*
X01072835Y04346457D03*
X01073229Y04444882D03*
X01084666Y04751949D03*
X01086615Y05029528D03*
X01090552Y04982284D03*
X01091900Y04139424D03*
X01094489Y04206693D03*
X01098032Y04161418D03*
X01101812Y04314998D03*
X01110237Y04982284D03*
X01116142Y04751969D03*
X01122835Y04523642D03*
X01125591Y04387008D03*
X01129922Y04982284D03*
X01130709Y04138977D03*
X01131871Y04665748D03*
Y04656300D03*
X01131910Y04675217D03*
X01147658Y04314961D03*
X01149607Y04982284D03*
X01156300Y04504331D03*
X01158662Y04140158D03*
X01159463Y04750227D03*
X01164567Y04170473D03*
X01166516Y04383859D03*
X01167323Y04344901D03*
X01169292Y04982284D03*
X01170867Y04429922D03*
X01175197Y04238189D03*
X01175281Y04680793D03*
X01177953Y04337619D03*
X01178276Y04629343D03*
X01180709Y04204331D03*
X01182068Y04728347D03*
X01183071Y04567717D03*
X01184178Y04407021D03*
X01185020Y04834222D03*
Y04798847D03*
X01185040Y04883859D03*
X01185059Y04822430D03*
Y04810639D03*
X01187008Y04363170D03*
X01188957Y04507087D03*
X01188977Y05027559D03*
Y04980315D03*
Y04521280D03*
X01189567Y04493504D03*
X01196851Y04171260D03*
X01203544Y04670867D03*
X01205189Y04162922D03*
X01205512Y04586634D03*
X01206693Y04611418D03*
X01208662Y04978347D03*
Y04411418D03*
X01212205Y05004331D03*
X01212599Y04547244D03*
X01214587Y04726286D03*
X01214737Y04702813D03*
X01216536Y04714567D03*
X01217770Y04750147D03*
X01220473Y04164922D03*
X01222441Y04425197D03*
X01222461Y04403544D03*
X01224410Y04669685D03*
X01228347Y04946851D03*
X01232284Y04589390D03*
X01235434Y04169292D03*
X01235614Y04880117D03*
X01238322Y04200807D03*
X01241339Y04967717D03*
X01244095Y04946851D03*
Y04488170D03*
Y04431103D03*
X01248819Y05027953D03*
X01249119Y04593674D03*
X01250000Y04574804D03*
X01250065Y04531211D03*
X01250630Y04557124D03*
X01253938Y04673229D03*
X01257875Y04484252D03*
X01258268Y04733071D03*
X01258511Y04747813D03*
X01260700Y04700359D03*
X01261141Y04881016D03*
X01261812Y04139370D03*
X01262711Y04514885D03*
X01263780Y04946851D03*
X01264174Y04962599D03*
X01264337Y04810571D03*
X01264703Y04561933D03*
X01265749Y04590552D03*
X01270079Y04709056D03*
X01277018Y04515739D03*
X01278484Y04593618D03*
X01279528Y04639764D03*
Y04419292D03*
X01280484Y04530463D03*
X01280615Y04607115D03*
X01280681Y04562111D03*
X01281497Y04948819D03*
X01281871Y04548631D03*
X01283465Y04400852D03*
X01285434Y04799607D03*
X01291339Y04831083D03*
X01292520Y05026772D03*
X01293990Y04591336D03*
X01294189Y04528375D03*
X01294524Y04485237D03*
X01296430Y04607181D03*
X01296745Y04437508D03*
X01296851Y04575197D03*
X01305867Y04526536D03*
X01309056Y04543307D03*
X01309573Y04609570D03*
X01309871Y04591433D03*
X01311024Y04744095D03*
X01312056Y04652825D03*
X01312550Y04640870D03*
X01313154Y04558719D03*
X01317637Y04485099D03*
X01325197Y04798819D03*
X01325619Y04562111D03*
X01325783Y04530553D03*
X01326772Y05027559D03*
X01330709Y04952756D03*
X01332697Y04168504D03*
X01342126Y04787796D03*
G54D10*
X01342760Y04529528D03*
X01344882Y04862599D03*
X01346063Y04842126D03*
X01350394Y04412025D03*
X01352363Y04765748D03*
Y04653544D03*
X01358180Y04425785D03*
X01361024Y04953150D03*
X01362205Y04832678D03*
Y04700788D03*
Y04528369D03*
X01362599Y04993307D03*
X01364567Y04848032D03*
X01366123Y04667528D03*
X01368111Y04592520D03*
X01370079Y04177559D03*
X01374016Y04635827D03*
X01374258Y04692898D03*
X01381910Y04545984D03*
X01389371Y04638583D03*
X01390945Y04235827D03*
X01391713Y04216142D03*
X01393308Y04165748D03*
X01395650Y04273622D03*
Y04251969D03*
X01396457Y04440552D03*
X01397245Y04396063D03*
X01397638Y04327953D03*
X01525591Y04763780D03*
X01533465Y04775197D03*
X01553150Y04728347D03*
X01559056Y04805119D03*
X01582678Y04750000D03*
X02053052Y04411418D03*
G54D11*
X00578741Y04446851D03*
X00598426Y04919292D03*
X00602363Y03895670D03*
X00618111Y05352363D03*
X00836221Y04605906D03*
X00838189Y04811418D03*
X00855354Y04647136D03*
X00869686Y04912599D03*
X01035434Y04311989D03*
X01080709Y04474429D03*
X01087796Y04442126D03*
X01124036Y04435040D03*
X01126567Y04202903D03*
X01131642Y04480812D03*
X01145393Y04494372D03*
X01172441Y04398819D03*
X01173229Y04470473D03*
X01208662Y03895670D03*
X01227560Y04256300D03*
X01232284Y04218504D03*
X01259056Y04257087D03*
X01259843Y04281496D03*
X01271634Y04324730D03*
X01275591Y04222441D03*
X01276772Y04150000D03*
X01299607Y04256693D03*
X01300394Y04785433D03*
X01301350Y04284084D03*
X01303150Y04316930D03*
X01318898Y04225197D03*
X01330689Y04256693D03*
X01338583Y04332678D03*
X01365532Y04365354D03*
X01393701Y04366930D03*
X01562993Y05391733D03*
X01618111Y05122048D03*
X01645670Y03962599D03*
X02194784Y04000000D03*
X02196851Y05375985D03*
X02200788Y05114174D03*
G54D12*
X00846063Y04361418D03*
X00875985Y04167323D03*
X00885827Y04472441D03*
X00993185Y04411521D03*
G54D10*
X00824410Y06122048D03*
Y06005512D03*
X00824804Y06287402D03*
Y06177166D03*
Y06147638D03*
X00827560Y05822048D03*
X00827953Y06506693D03*
X00829134Y06534252D03*
X00842126Y06593307D03*
X00852756Y05805512D03*
X00856300Y05931103D03*
X00862109Y06452772D03*
X00866142Y06069685D03*
X00870099Y06406477D03*
X00871260Y06687008D03*
X00888189Y06047225D03*
X00893701Y06620079D03*
X00893741Y06158184D03*
X00903524Y06398032D03*
X00903544Y06383859D03*
X00903563Y06338583D03*
X00904331Y06436221D03*
Y06416142D03*
X00905119Y06047244D03*
X00905512Y06598426D03*
Y06085433D03*
X00906693Y05822835D03*
X00907087Y05798032D03*
X00909449Y05935040D03*
Y05891733D03*
X00917323Y06681103D03*
X00933071Y06409430D03*
X00937796Y06033071D03*
Y06006300D03*
X00938977Y06639764D03*
X00944882Y06675197D03*
X00945670Y06144489D03*
X00948819Y05914567D03*
Y05805119D03*
X00950788Y05946851D03*
X00951182Y05968504D03*
X00956713Y06498032D03*
X00972441Y06639764D03*
X00976378Y05807087D03*
X00985040Y06121654D03*
X00986989Y06135827D03*
Y06042914D03*
X00987402Y06087796D03*
X00990158Y06409430D03*
X00992126Y06639764D03*
Y05966536D03*
Y05887796D03*
X01001949Y06409459D03*
X01011812Y06639764D03*
X01013741Y06409430D03*
X01015749Y06687008D03*
X01019686Y05980315D03*
X01027166Y06179528D03*
X01030729Y05950788D03*
X01031497Y06639764D03*
Y05929134D03*
X01045276Y06409430D03*
X01051182Y06639764D03*
X01057068Y06409430D03*
X01057087Y06135827D03*
X01065749Y06180709D03*
X01070867Y06639764D03*
X01072835Y06003937D03*
X01073229Y06102363D03*
X01084666Y06409430D03*
X01086615Y06687008D03*
X01090552Y06639764D03*
X01091900Y05796904D03*
X01094489Y05864174D03*
X01098032Y05818898D03*
X01101812Y05972478D03*
X01110237Y06639764D03*
X01116142Y06409449D03*
X01122835Y06181122D03*
X01125591Y06044489D03*
X01129922Y06639764D03*
X01130709Y05796457D03*
X01131871Y06323229D03*
Y06313780D03*
X01131910Y06332697D03*
X01147658Y05972441D03*
X01149607Y06639764D03*
X01156300Y06161811D03*
X01158662Y05797638D03*
X01159463Y06407708D03*
X01164567Y05827953D03*
X01166516Y06041339D03*
X01167323Y06002381D03*
X01169292Y06639764D03*
X01170867Y06087402D03*
X01175197Y05895670D03*
X01175281Y06338273D03*
X01177953Y05995099D03*
X01178276Y06286823D03*
X01180709Y05861811D03*
X01182068Y06385827D03*
X01183071Y06225197D03*
X01184178Y06064502D03*
X01185020Y06491702D03*
Y06456328D03*
X01185040Y06541339D03*
X01185059Y06479911D03*
Y06468119D03*
X01187008Y06020650D03*
X01188957Y06164567D03*
X01188977Y06685040D03*
Y06637796D03*
Y06178760D03*
X01189567Y06150984D03*
X01196851Y05828741D03*
X01203544Y06328347D03*
X01205189Y05820403D03*
X01205512Y06244115D03*
X01206693Y06268898D03*
X01208662Y06635827D03*
Y06068898D03*
X01212205Y06661811D03*
X01212599Y06204725D03*
X01214587Y06383766D03*
X01214737Y06360294D03*
X01216536Y06372048D03*
X01217770Y06407627D03*
X01220473Y05822403D03*
X01222441Y06082678D03*
X01222461Y06061024D03*
X01224410Y06327166D03*
X01228347Y06604331D03*
X01232284Y06246870D03*
X01235434Y05826772D03*
X01235614Y06537597D03*
X01238322Y05858288D03*
X01241339Y06625197D03*
X01244095Y06604331D03*
Y06145650D03*
Y06088583D03*
X01248819Y06685433D03*
X01249119Y06251154D03*
X01250000Y06232284D03*
X01250065Y06188692D03*
X01250630Y06214604D03*
X01253938Y06330709D03*
X01257875Y06141733D03*
X01258268Y06390552D03*
X01258511Y06405293D03*
X01260700Y06357839D03*
X01261141Y06538496D03*
X01261812Y05796851D03*
X01262711Y06172366D03*
X01263780Y06604331D03*
X01264174Y06620079D03*
X01264337Y06468052D03*
X01264703Y06219414D03*
X01265749Y06248032D03*
X01270079Y06366536D03*
X01277018Y06173219D03*
X01278484Y06251098D03*
X01279528Y06297244D03*
Y06076772D03*
X01280484Y06187944D03*
X01280615Y06264595D03*
X01280681Y06219591D03*
X01281497Y06606300D03*
X01281871Y06206111D03*
X01283465Y06058333D03*
X01285434Y06457087D03*
X01291339Y06488563D03*
X01292520Y06684252D03*
X01293990Y06248816D03*
X01294189Y06185855D03*
X01294524Y06142717D03*
X01296430Y06264662D03*
X01296745Y06094988D03*
X01296851Y06232678D03*
X01305867Y06184016D03*
X01309056Y06200788D03*
X01309573Y06267050D03*
X01309871Y06248914D03*
X01311024Y06401575D03*
X01312056Y06310305D03*
X01312550Y06298350D03*
X01313154Y06216199D03*
X01317637Y06142579D03*
X01325197Y06456300D03*
X01325619Y06219591D03*
X01325783Y06188033D03*
X01326772Y06685040D03*
X01330709Y06610237D03*
X01332697Y05825985D03*
X01342126Y06445276D03*
G54D10*
X01342760Y06187008D03*
X01344882Y06520079D03*
X01346063Y06499607D03*
X01350394Y06069505D03*
X01352363Y06423229D03*
Y06311024D03*
X01358180Y06083265D03*
X01361024Y06610630D03*
X01362205Y06490158D03*
Y06358268D03*
Y06185849D03*
X01362599Y06650788D03*
X01364567Y06505512D03*
X01366123Y06325009D03*
X01368111Y06250000D03*
X01370079Y05835040D03*
X01374016Y06293307D03*
X01374258Y06350378D03*
X01381910Y06203464D03*
X01389371Y06296063D03*
X01390945Y05893307D03*
X01391713Y05873622D03*
X01393308Y05823229D03*
X01395650Y05931103D03*
Y05909449D03*
X01396457Y06098032D03*
X01397245Y06053544D03*
X01397638Y05985433D03*
X01525591Y06421260D03*
X01533465Y06432678D03*
X01553150Y06385827D03*
X01559056Y06462599D03*
X01582678Y06407481D03*
X02053052Y06068898D03*
G54D11*
X00578741Y06104331D03*
X00598426Y06576772D03*
X00602363Y05553150D03*
X00618111Y07009843D03*
X00836221Y06263386D03*
X00838189Y06468898D03*
X00855354Y06304616D03*
X00869686Y06570079D03*
X01035434Y05969470D03*
X01080709Y06131910D03*
X01087796Y06099607D03*
X01124036Y06092520D03*
X01126567Y05860384D03*
X01131642Y06138292D03*
X01145393Y06151852D03*
X01172441Y06056300D03*
X01173229Y06127953D03*
X01208662Y05553150D03*
X01227560Y05913780D03*
X01232284Y05875985D03*
X01259056Y05914567D03*
X01259843Y05938977D03*
X01271634Y05982210D03*
X01275591Y05879922D03*
X01276772Y05807481D03*
X01299607Y05914174D03*
X01300394Y06442914D03*
X01301350Y05941565D03*
X01303150Y05974410D03*
X01318898Y05882678D03*
X01330689Y05914174D03*
X01338583Y05990158D03*
X01365532Y06022834D03*
X01393701Y06024410D03*
X01562993Y07049213D03*
X01618111Y06779528D03*
X01645670Y05620079D03*
X02194784Y05657481D03*
X02196851Y07033465D03*
X02200788Y06771654D03*
G54D12*
X00846063Y06018898D03*
X00875985Y05824804D03*
X00885827Y06129922D03*
X00993185Y06069001D03*
G54D10*
X00824410Y07779528D03*
Y07662993D03*
X00824804Y07944882D03*
Y07834646D03*
Y07805119D03*
X00827560Y07479528D03*
X00827953Y08164174D03*
X00829134Y08191733D03*
X00842126Y08250788D03*
X00852756Y07462993D03*
X00856300Y07588583D03*
X00862109Y08110252D03*
X00866142Y07727166D03*
X00870099Y08063957D03*
X00871260Y08344489D03*
X00888189Y07704705D03*
X00893701Y08277559D03*
X00893741Y07815664D03*
X00903524Y08055512D03*
X00903544Y08041339D03*
X00903563Y07996063D03*
X00904331Y08093701D03*
Y08073622D03*
X00905119Y07704725D03*
X00905512Y08255906D03*
Y07742914D03*
X00906693Y07480315D03*
X00907087Y07455512D03*
X00909449Y07592520D03*
Y07549213D03*
X00917323Y08338583D03*
X00933071Y08066910D03*
X00937796Y07690552D03*
Y07663780D03*
X00938977Y08297244D03*
X00944882Y08332678D03*
X00945670Y07801969D03*
X00948819Y07572048D03*
Y07462599D03*
X00950788Y07604331D03*
X00951182Y07625985D03*
X00956713Y08155512D03*
X00972441Y08297244D03*
X00976378Y07464567D03*
X00985040Y07779134D03*
X00986989Y07793307D03*
Y07700394D03*
X00987402Y07745276D03*
X00990158Y08066910D03*
X00992126Y08297244D03*
Y07624016D03*
Y07545276D03*
X01001949Y08066939D03*
X01011812Y08297244D03*
X01013741Y08066910D03*
X01015749Y08344489D03*
X01019686Y07637796D03*
X01027166Y07837008D03*
X01030729Y07608268D03*
X01031497Y08297244D03*
Y07586615D03*
X01045276Y08066910D03*
X01051182Y08297244D03*
X01057068Y08066910D03*
X01057087Y07793307D03*
X01065749Y07838189D03*
X01070867Y08297244D03*
X01072835Y07661418D03*
X01073229Y07759843D03*
X01084666Y08066910D03*
X01086615Y08344489D03*
X01090552Y08297244D03*
X01091900Y07454384D03*
X01094489Y07521654D03*
X01098032Y07476378D03*
X01101812Y07629959D03*
X01110237Y08297244D03*
X01116142Y08066930D03*
X01122835Y07838603D03*
X01125591Y07701969D03*
X01129922Y08297244D03*
X01130709Y07453937D03*
X01131871Y07980709D03*
Y07971260D03*
X01131910Y07990178D03*
X01147658Y07629922D03*
X01149607Y08297244D03*
X01156300Y07819292D03*
X01158662Y07455119D03*
X01159463Y08065188D03*
X01164567Y07485433D03*
X01166516Y07698819D03*
X01167323Y07659862D03*
X01169292Y08297244D03*
X01170867Y07744882D03*
X01175197Y07553150D03*
X01175281Y07995754D03*
X01177953Y07652579D03*
X01178276Y07944304D03*
X01180709Y07519292D03*
X01182068Y08043307D03*
X01183071Y07882678D03*
X01184178Y07721982D03*
X01185020Y08149182D03*
Y08113808D03*
X01185040Y08198819D03*
X01185059Y08137391D03*
Y08125600D03*
X01187008Y07678130D03*
X01188957Y07822048D03*
X01188977Y08342520D03*
Y08295276D03*
Y07836241D03*
X01189567Y07808465D03*
X01196851Y07486221D03*
X01203544Y07985827D03*
X01205189Y07477883D03*
X01205512Y07901595D03*
X01206693Y07926378D03*
X01208662Y08293307D03*
Y07726378D03*
X01212205Y08319292D03*
X01212599Y07862205D03*
X01214587Y08041247D03*
X01214737Y08017774D03*
X01216536Y08029528D03*
X01217770Y08065107D03*
X01220473Y07479883D03*
X01222441Y07740158D03*
X01222461Y07718504D03*
X01224410Y07984646D03*
X01228347Y08261811D03*
X01232284Y07904351D03*
X01235434Y07484252D03*
X01235614Y08195077D03*
X01238322Y07515768D03*
X01241339Y08282678D03*
X01244095Y08261811D03*
Y07803130D03*
Y07746063D03*
X01248819Y08342914D03*
X01249119Y07908634D03*
X01250000Y07889764D03*
X01250065Y07846172D03*
X01250630Y07872084D03*
X01253938Y07988189D03*
X01257875Y07799213D03*
X01258268Y08048032D03*
X01258511Y08062774D03*
X01260700Y08015319D03*
X01261141Y08195977D03*
X01261812Y07454331D03*
X01262711Y07829846D03*
X01263780Y08261811D03*
X01264174Y08277559D03*
X01264337Y08125532D03*
X01264703Y07876894D03*
X01265749Y07905512D03*
X01270079Y08024016D03*
X01277018Y07830700D03*
X01278484Y07908578D03*
X01279528Y07954725D03*
Y07734252D03*
X01280484Y07845424D03*
X01280615Y07922075D03*
X01280681Y07877071D03*
X01281497Y08263780D03*
X01281871Y07863592D03*
X01283465Y07715813D03*
X01285434Y08114567D03*
X01291339Y08146044D03*
X01292520Y08341733D03*
X01293990Y07906296D03*
X01294189Y07843335D03*
X01294524Y07800197D03*
X01296430Y07922142D03*
X01296745Y07752469D03*
X01296851Y07890158D03*
X01305867Y07841496D03*
X01309056Y07858268D03*
X01309573Y07924531D03*
X01309871Y07906394D03*
X01311024Y08059056D03*
X01312056Y07967786D03*
X01312550Y07955830D03*
X01313154Y07873679D03*
X01317637Y07800059D03*
X01325197Y08113780D03*
X01325619Y07877071D03*
X01325783Y07845514D03*
X01326772Y08342520D03*
X01330709Y08267717D03*
X01332697Y07483465D03*
X01342126Y08102756D03*
G54D10*
X01342760Y07844489D03*
X01344882Y08177559D03*
X01346063Y08157087D03*
X01350394Y07726986D03*
X01352363Y08080709D03*
Y07968504D03*
X01358180Y07740745D03*
X01361024Y08268111D03*
X01362205Y08147638D03*
Y08015748D03*
Y07843329D03*
X01362599Y08308268D03*
X01364567Y08162993D03*
X01366123Y07982489D03*
X01368111Y07907481D03*
X01370079Y07492520D03*
X01374016Y07950788D03*
X01374258Y08007859D03*
X01381910Y07860944D03*
X01389371Y07953544D03*
X01390945Y07550788D03*
X01391713Y07531103D03*
X01393308Y07480709D03*
X01395650Y07588583D03*
Y07566930D03*
X01396457Y07755512D03*
X01397245Y07711024D03*
X01397638Y07642914D03*
X01525591Y08078741D03*
X01533465Y08090158D03*
X01553150Y08043307D03*
X01559056Y08120079D03*
X01582678Y08064961D03*
X02053052Y07726378D03*
G54D11*
X00578741Y07761811D03*
X00598426Y08234252D03*
X00602363Y07210630D03*
X00618111Y08667323D03*
X00836221Y07920867D03*
X00838189Y08126378D03*
X00855354Y07962096D03*
X00869686Y08227559D03*
X01035434Y07626950D03*
X01080709Y07789390D03*
X01087796Y07757087D03*
X01124036Y07750000D03*
X01126567Y07517864D03*
X01131642Y07795772D03*
X01145393Y07809332D03*
X01172441Y07713780D03*
X01173229Y07785433D03*
X01208662Y07210630D03*
X01227560Y07571260D03*
X01232284Y07533465D03*
X01259056Y07572048D03*
X01259843Y07596457D03*
X01271634Y07639691D03*
X01275591Y07537402D03*
X01276772Y07464961D03*
X01299607Y07571654D03*
X01300394Y08100394D03*
X01301350Y07599045D03*
X01303150Y07631890D03*
X01318898Y07540158D03*
X01330689Y07571654D03*
X01338583Y07647638D03*
X01365532Y07680314D03*
X01393701Y07681890D03*
X01562993Y08706693D03*
X01618111Y08437008D03*
X01645670Y07277559D03*
X02194784Y07314961D03*
X02196851Y08690945D03*
X02200788Y08429134D03*
G54D12*
X00846063Y07676378D03*
X00875985Y07482284D03*
X00885827Y07787402D03*
X00993185Y07726481D03*
G54D10*
X04703730Y00925197D03*
G54D10*
X04666329Y00931102D03*
G54D10*
X04831953Y00931406D03*
G54D10*
X04685030Y00933071D03*
G54D10*
X04842510Y00939858D03*
G54D10*
X04851500Y00948275D03*
G54D10*
X04862195Y00956693D03*
G54D10*
X04585620Y00960630D03*
G54D10*
X04918297Y00961614D03*
G54D10*
X04896184Y00969508D03*
G54D10*
X04859134Y00969825D03*
G54D10*
X04670165Y00971437D03*
G54D10*
X04938967Y00972441D03*
G54D10*
X04611267Y00981355D03*
G54D10*
X04757864Y00998051D03*
G54D10*
X04669820Y00999574D03*
G54D10*
X04606783Y01001383D03*
G54D10*
X04859134Y01003818D03*
G54D10*
X04628927Y01007874D03*
G54D10*
X04949793Y01014764D03*
G54D10*
X04564661Y01015926D03*
G54D10*
X04553140Y01026575D03*
G54D10*
X04997234Y01044882D03*
G54D10*
X04639754Y01050197D03*
G54D10*
X05027549Y01052776D03*
G54D10*
X04946841Y01058071D03*
G54D10*
X04631804Y01062115D03*
G54D10*
X04642709Y01066601D03*
G54D10*
X04510620Y01072835D03*
G54D10*
X05055108Y01078740D03*
G54D10*
X04639754Y01082677D03*
G54D10*
X05000974Y01089567D03*
G54D10*
X04628998Y01090562D03*
G54D10*
X04475581Y01092520D03*
G54D10*
X04520463Y01094094D03*
G54D10*
X04433061Y01102362D03*
G54D10*
X04637785Y01103346D03*
G54D10*
X04492116Y01110433D03*
G54D10*
X04515344Y01111811D03*
G54D10*
X04560416Y01114231D03*
G54D10*
X04594872Y01116535D03*
G54D10*
X05079715Y01126968D03*
G54D10*
X05084636Y01147638D03*
G54D10*
X04956683Y01165354D03*
G54D10*
X04997966Y01171316D03*
G54D10*
X05076204Y01178130D03*
G54D10*
X04546250Y01178973D03*
G54D10*
X04466506Y01179232D03*
G54D10*
X04525629Y01180315D03*
G54D10*
X04453927Y01183464D03*
G54D10*
X04891722Y01184055D03*
G54D10*
X04907470D03*
G54D10*
X04477105Y01184400D03*
G54D10*
X04925187Y01185039D03*
G54D10*
X04970463Y01187008D03*
G54D10*
X04515806Y01187822D03*
G54D10*
X04589955Y01189179D03*
G54D10*
X04999990Y01192913D03*
G54D10*
X04893691Y01200787D03*
G54D10*
X04590148Y01201181D03*
G54D10*
X04507845Y01207416D03*
G54D10*
X04492116Y01207677D03*
G54D10*
X04633848Y01212598D03*
G54D10*
X04933061D03*
G54D10*
X04972431D03*
G54D10*
X05076762Y01215551D03*
G54D10*
X04451841Y01216393D03*
G54D10*
X04905502Y01216535D03*
G54D10*
X04571848Y01224409D03*
G54D10*
X04477394Y01224918D03*
G54D10*
X04553140Y01225197D03*
G54D10*
X04584636Y01225477D03*
G54D10*
X04505896Y01227559D03*
G54D10*
X04429124Y01228346D03*
G54D10*
X04741132Y01232283D03*
G54D10*
X05077746Y01233268D03*
G54D10*
X04637704Y01236177D03*
G54D10*
X04476368Y01239173D03*
G54D10*
X04538387Y01239207D03*
G54D10*
X05078814Y01245011D03*
G54D10*
X04541037Y01253883D03*
G54D10*
X04493039Y01256815D03*
G54D10*
X04555108Y01256890D03*
G54D10*
X04739163D03*
G54D10*
X04509018Y01256992D03*
G54D10*
X04422234Y01257874D03*
G54D10*
X05056093Y01259842D03*
G54D10*
X04529767Y01259862D03*
G54D10*
X04478452Y01261290D03*
G54D10*
X04905502Y01263779D03*
G54D10*
X04870069Y01264764D03*
G54D10*
X04943888Y01265748D03*
G54D10*
X05079609Y01265979D03*
G54D10*
X04430108Y01268701D03*
G54D10*
X05035423Y01276575D03*
G54D10*
X04625581Y01283464D03*
G54D10*
X04460620Y01284272D03*
G54D10*
X04494085Y01285433D03*
G54D10*
X04435030Y01287401D03*
G54D10*
X04538207D03*
G54D10*
X04556093D03*
G54D10*
X04477406Y01290183D03*
G54D10*
X04590977Y01292871D03*
G54D10*
X05087589Y01294291D03*
G54D10*
X04390047Y01296839D03*
G54D10*
X04507853Y01301846D03*
G54D10*
X04435029Y01301869D03*
G54D10*
X04522628Y01302165D03*
G54D10*
X04538376D03*
G54D10*
X04984894Y01302856D03*
G54D10*
X04944872Y01303150D03*
G54D10*
X05003927D03*
G54D10*
X04900422Y01303826D03*
G54D10*
X04637785Y01307087D03*
G54D10*
X04476405Y01317862D03*
G54D10*
X05056093Y01318898D03*
G54D10*
X04462589Y01322067D03*
G54D10*
X04442904Y01323819D03*
G54D10*
X04544085Y01329134D03*
G54D10*
X04583848Y01330315D03*
G54D10*
X04601565D03*
G54D10*
X04433848Y01332283D03*
G54D10*
X05035423Y01335630D03*
G54D10*
X04867411Y01336909D03*
G54D10*
X04944816Y01337654D03*
G54D10*
X04893691Y01339567D03*
G54D10*
X04990148Y01340551D03*
G54D10*
X04911407Y01341535D03*
G54D10*
X04932077Y01342520D03*
G54D10*
X04971447D03*
G54D10*
X04546709Y01342558D03*
G54D10*
X05010837Y01342913D03*
G54D10*
X05057077Y01357283D03*
G54D10*
X04393691Y01358268D03*
G54D10*
X04594478Y01360236D03*
G54D10*
X05083084Y01361054D03*
G54D10*
X04446841Y01366653D03*
G54D10*
X04478337Y01367126D03*
G54D10*
X04888770Y01369094D03*
G54D10*
X04592510Y01385827D03*
G54D10*
X04444872Y01392716D03*
G54D10*
X04512785Y01393701D03*
G54D10*
X05100384D03*
G54D10*
X05056872Y01395142D03*
G54D10*
X04475384Y01397638D03*
G54D10*
X04576762Y01399606D03*
G54D10*
X04527549Y01409449D03*
G54D10*
X05082667D03*
G54D10*
X04503927Y01410433D03*
G54D10*
X04600384Y01413386D03*
G54D10*
X04637785Y01425197D03*
G54D10*
X04528514Y01430095D03*
G54D10*
X05035215Y01435310D03*
G54D10*
X04425187Y01449803D03*
G54D10*
X05027530Y01465551D03*
G54D10*
X04635817Y01466535D03*
G54D10*
X05071841D03*
G54D10*
X04528337Y01479134D03*
G54D10*
X04448809Y01480315D03*
G54D10*
X04633848D03*
G54D10*
X05058258Y01488976D03*
G54D10*
X04464557Y01490157D03*
G54D10*
X04544793Y01492106D03*
G54D10*
X04641722Y01492126D03*
G54D10*
X04578730Y01494094D03*
G54D10*
X04543620Y01504810D03*
G54D10*
X04645470Y01509100D03*
G54D10*
X04628659Y01512047D03*
G54D10*
X04606289Y01513779D03*
G54D10*
X04594727Y01516092D03*
G54D10*
X05034439Y01517716D03*
G54D10*
X04559045Y01521673D03*
G54D10*
X04641599Y01523611D03*
G54D10*
X05025581Y01531496D03*
G54D10*
X04559045Y01533464D03*
G54D10*
X04882864Y01534449D03*
G54D10*
X04921138Y01534581D03*
G54D10*
X04896644Y01537401D03*
G54D10*
X04936014D03*
G54D10*
X04513714Y01537458D03*
G54D10*
X04637785Y01539370D03*
G54D10*
X05012785Y01545275D03*
G54D10*
X05002943Y01554134D03*
G54D10*
X04578730Y01554331D03*
G54D10*
X04638770Y01555118D03*
G54D10*
Y01570866D03*
G54D10*
X04618100Y01571923D03*
G54D10*
X04559045Y01572835D03*
G54D10*
X04756880Y01575496D03*
G54D10*
X04876368Y01581102D03*
G54D10*
X04864047Y01586251D03*
G54D10*
X04606289Y01598425D03*
G54D10*
X04875187Y01598819D03*
G54D10*
X04862962Y01603481D03*
G54D10*
X04299203Y01637795D03*
G54D10*
X04667051Y01641582D03*
G54D10*
X04834636Y01642520D03*
G54D10*
X04679124Y01645669D03*
G54D10*
X04696841D03*
G54D11*
X03531486Y00578740D03*
G54D11*
X03807077D03*
G54D11*
X04240148D03*
G54D11*
X04633848D03*
G54D11*
X05027549D03*
G54D11*
X05381880D03*
G54D11*
X04436998Y00775590D03*
G54D11*
X05106289Y00814961D03*
G54D11*
X04899596Y00955709D03*
G54D11*
X04561407Y00981890D03*
G54D11*
X04959595Y00990277D03*
G54D11*
X04470463Y01057874D03*
G54D11*
X04991329Y01059449D03*
G54D11*
X04606289Y01062008D03*
G54D11*
X04181093Y01070866D03*
G54D11*
X04588179Y01089370D03*
G54D11*
X05381880Y01090551D03*
G54D11*
X03531486Y01129921D03*
G54D11*
X04438967Y01145669D03*
G54D11*
X04442904Y01173228D03*
G54D11*
X05015767Y01190916D03*
G54D11*
X04406335Y01217567D03*
G54D11*
X04943888Y01283464D03*
G54D11*
X05002963Y01357703D03*
G54D11*
X04634242Y01370866D03*
G54D11*
X04937982Y01397638D03*
G54D11*
X04889754Y01398622D03*
G54D11*
X03531486Y01405512D03*
G54D11*
X04193448Y01406914D03*
G54D11*
X05381880Y01484252D03*
G54D11*
X04937486Y01487205D03*
G54D11*
X04937982Y01516732D03*
G54D11*
X04900581Y01517716D03*
G54D11*
X04529518Y01563976D03*
G54D11*
X04476368Y01799213D03*
G54D11*
X05027549D03*
G54D11*
X03531486Y01996063D03*
G54D11*
X03885817D03*
G54D11*
X04318888D03*
G54D11*
X04791329D03*
G54D11*
X05263770D03*
G54D10*
X04703730Y02500000D03*
G54D10*
X04666329Y02505905D03*
G54D10*
X04831953Y02506209D03*
G54D10*
X04685030Y02507874D03*
G54D10*
X04842510Y02514661D03*
G54D10*
X04851500Y02523079D03*
G54D10*
X04862195Y02531496D03*
G54D10*
X04585620Y02535433D03*
G54D10*
X04918297Y02536417D03*
G54D10*
X04896184Y02544311D03*
G54D10*
X04859134Y02544628D03*
G54D10*
X04670165Y02546240D03*
G54D10*
X04938967Y02547244D03*
G54D10*
X04611267Y02556158D03*
G54D10*
X04757864Y02572854D03*
G54D10*
X04669820Y02574377D03*
G54D10*
X04606783Y02576186D03*
G54D10*
X04859134Y02578621D03*
G54D10*
X04628927Y02582677D03*
G54D10*
X04949793Y02589567D03*
G54D10*
X04564661Y02590729D03*
G54D10*
X04553140Y02601378D03*
G54D10*
X04997234Y02619685D03*
G54D10*
X04639754Y02625000D03*
G54D10*
X05027549Y02627579D03*
G54D10*
X04946841Y02632874D03*
G54D10*
X04631804Y02636919D03*
G54D10*
X04642709Y02641404D03*
G54D10*
X04510620Y02647638D03*
G54D10*
X05055108Y02653543D03*
G54D10*
X04639754Y02657480D03*
G54D10*
X05000974Y02664370D03*
G54D10*
X04628998Y02665366D03*
G54D10*
X04475581Y02667323D03*
G54D10*
X04520463Y02668898D03*
G54D10*
X04433061Y02677165D03*
G54D10*
X04637785Y02678150D03*
G54D10*
X04492116Y02685236D03*
G54D10*
X04515344Y02686614D03*
G54D10*
X04560416Y02689034D03*
G54D10*
X04594872Y02691338D03*
G54D10*
X05079715Y02701772D03*
G54D10*
X05084636Y02722441D03*
G54D10*
X04956683Y02740157D03*
G54D10*
X04997966Y02746119D03*
G54D10*
X05076204Y02752933D03*
G54D10*
X04546250Y02753776D03*
G54D10*
X04466506Y02754035D03*
G54D10*
X04525629Y02755118D03*
G54D10*
X04453927Y02758268D03*
G54D10*
X04891722Y02758858D03*
G54D10*
X04907470D03*
G54D10*
X04477105Y02759203D03*
G54D10*
X04925187Y02759842D03*
G54D10*
X04970463Y02761811D03*
G54D10*
X04515806Y02762625D03*
G54D10*
X04589955Y02763982D03*
G54D10*
X04999990Y02767716D03*
G54D10*
X04893691Y02775590D03*
G54D10*
X04590148Y02775984D03*
G54D10*
X04507845Y02782219D03*
G54D10*
X04492116Y02782480D03*
G54D10*
X04633848Y02787401D03*
G54D10*
X04933061D03*
G54D10*
X04972431D03*
G54D10*
X05076762Y02790354D03*
G54D10*
X04451841Y02791197D03*
G54D10*
X04905502Y02791338D03*
G54D10*
X04571848Y02799213D03*
G54D10*
X04477394Y02799721D03*
G54D10*
X04553140Y02800000D03*
G54D10*
X04584636Y02800280D03*
G54D10*
X04505896Y02802362D03*
G54D10*
X04429124Y02803150D03*
G54D10*
X04741132Y02807087D03*
G54D10*
X05077746Y02808071D03*
G54D10*
X04637704Y02810980D03*
G54D10*
X04476368Y02813976D03*
G54D10*
X04538387Y02814011D03*
G54D10*
X05078814Y02819814D03*
G54D10*
X04541037Y02828686D03*
G54D10*
X04493039Y02831618D03*
G54D10*
X04555108Y02831693D03*
G54D10*
X04739163D03*
G54D10*
X04509018Y02831795D03*
G54D10*
X04422234Y02832677D03*
G54D10*
X05056093Y02834646D03*
G54D10*
X04529767Y02834665D03*
G54D10*
X04478452Y02836093D03*
G54D10*
X04905502Y02838583D03*
G54D10*
X04870069Y02839567D03*
G54D10*
X04943888Y02840551D03*
G54D10*
X05079609Y02840782D03*
G54D10*
X04430108Y02843504D03*
G54D10*
X05035423Y02851378D03*
G54D10*
X04625581Y02858268D03*
G54D10*
X04460620Y02859075D03*
G54D10*
X04494085Y02860236D03*
G54D10*
X04435030Y02862205D03*
G54D10*
X04538207D03*
G54D10*
X04556093D03*
G54D10*
X04477406Y02864986D03*
G54D10*
X04590977Y02867674D03*
G54D10*
X05087589Y02869094D03*
G54D10*
X04390047Y02871642D03*
G54D10*
X04507853Y02876649D03*
G54D10*
X04435029Y02876673D03*
G54D10*
X04522628Y02876968D03*
G54D10*
X04538376D03*
G54D10*
X04984894Y02877659D03*
G54D10*
X04944872Y02877953D03*
G54D10*
X05003927D03*
G54D10*
X04900422Y02878630D03*
G54D10*
X04637785Y02881890D03*
G54D10*
X04476405Y02892665D03*
G54D10*
X05056093Y02893701D03*
G54D10*
X04462589Y02896870D03*
G54D10*
X04442904Y02898622D03*
G54D10*
X04544085Y02903937D03*
G54D10*
X04583848Y02905118D03*
G54D10*
X04601565D03*
G54D10*
X04433848Y02907087D03*
G54D10*
X05035423Y02910433D03*
G54D10*
X04867411Y02911712D03*
G54D10*
X04944816Y02912458D03*
G54D10*
X04893691Y02914370D03*
G54D10*
X04990148Y02915354D03*
G54D10*
X04911407Y02916338D03*
G54D10*
X04932077Y02917323D03*
G54D10*
X04971447D03*
G54D10*
X04546709Y02917361D03*
G54D10*
X05010837Y02917716D03*
G54D10*
X05057077Y02932087D03*
G54D10*
X04393691Y02933071D03*
G54D10*
X04594478Y02935039D03*
G54D10*
X05083084Y02935857D03*
G54D10*
X04446841Y02941457D03*
G54D10*
X04478337Y02941929D03*
G54D10*
X04888770Y02943898D03*
G54D10*
X04592510Y02960630D03*
G54D10*
X04444872Y02967520D03*
G54D10*
X04512785Y02968504D03*
G54D10*
X05100384D03*
G54D10*
X05056872Y02969945D03*
G54D10*
X04475384Y02972441D03*
G54D10*
X04576762Y02974409D03*
G54D10*
X04527549Y02984252D03*
G54D10*
X05082667D03*
G54D10*
X04503927Y02985236D03*
G54D10*
X04600384Y02988189D03*
G54D10*
X04637785Y03000000D03*
G54D10*
X04528514Y03004898D03*
G54D10*
X05035215Y03010113D03*
G54D10*
X04425187Y03024606D03*
G54D10*
X05027530Y03040354D03*
G54D10*
X04635817Y03041338D03*
G54D10*
X05071841D03*
G54D10*
X04528337Y03053937D03*
G54D10*
X04448809Y03055118D03*
G54D10*
X04633848D03*
G54D10*
X05058258Y03063779D03*
G54D10*
X04464557Y03064961D03*
G54D10*
X04544793Y03066909D03*
G54D10*
X04641722Y03066929D03*
G54D10*
X04578730Y03068898D03*
G54D10*
X04543620Y03079613D03*
G54D10*
X04645470Y03083903D03*
G54D10*
X04628659Y03086850D03*
G54D10*
X04606289Y03088583D03*
G54D10*
X04594727Y03090895D03*
G54D10*
X05034439Y03092520D03*
G54D10*
X04559045Y03096476D03*
G54D10*
X04641599Y03098414D03*
G54D10*
X05025581Y03106299D03*
G54D10*
X04559045Y03108268D03*
G54D10*
X04882864Y03109252D03*
G54D10*
X04921138Y03109384D03*
G54D10*
X04896644Y03112205D03*
G54D10*
X04936014D03*
G54D10*
X04513714Y03112261D03*
G54D10*
X04637785Y03114173D03*
G54D10*
X05012785Y03120079D03*
G54D10*
X05002943Y03128937D03*
G54D10*
X04578730Y03129134D03*
G54D10*
X04638770Y03129921D03*
G54D10*
Y03145669D03*
G54D10*
X04618100Y03146726D03*
G54D10*
X04559045Y03147638D03*
G54D10*
X04756880Y03150299D03*
G54D10*
X04876368Y03155905D03*
G54D10*
X04864047Y03161054D03*
G54D10*
X04606289Y03173228D03*
G54D10*
X04875187Y03173622D03*
G54D10*
X04862962Y03178284D03*
G54D10*
X04299203Y03212598D03*
G54D10*
X04667051Y03216386D03*
G54D10*
X04834636Y03217323D03*
G54D10*
X04679124Y03220472D03*
G54D10*
X04696841D03*
G54D11*
X03531486Y02153543D03*
G54D11*
X03807077D03*
G54D11*
X04240148D03*
G54D11*
X04633848D03*
G54D11*
X05027549D03*
G54D11*
X05381880D03*
G54D11*
X04436998Y02350394D03*
G54D11*
X05106289Y02389764D03*
G54D11*
X04899596Y02530512D03*
G54D11*
X04561407Y02556693D03*
G54D11*
X04959595Y02565080D03*
G54D11*
X04470463Y02632677D03*
G54D11*
X04991329Y02634252D03*
G54D11*
X04606289Y02636811D03*
G54D11*
X04181093Y02645669D03*
G54D11*
X04588179Y02664173D03*
G54D11*
X05381880Y02665354D03*
G54D11*
X03531486Y02704724D03*
G54D11*
X04438967Y02720472D03*
G54D11*
X04442904Y02748031D03*
G54D11*
X05015767Y02765720D03*
G54D11*
X04406335Y02792370D03*
G54D11*
X04943888Y02858268D03*
G54D11*
X05002963Y02932506D03*
G54D11*
X04634242Y02945669D03*
G54D11*
X04937982Y02972441D03*
G54D11*
X04889754Y02973425D03*
G54D11*
X03531486Y02980315D03*
G54D11*
X04193448Y02981717D03*
G54D11*
X05381880Y03059055D03*
G54D11*
X04937486Y03062008D03*
G54D11*
X04937982Y03091535D03*
G54D11*
X04900581Y03092520D03*
G54D11*
X04529518Y03138779D03*
G54D11*
X04476368Y03374016D03*
G54D11*
X05027549D03*
G54D11*
X03531486Y03570866D03*
G54D11*
X03885817D03*
G54D11*
X04318888D03*
G54D11*
X04791329D03*
G54D11*
X05263770D03*
G54D10*
X04703730Y04074803D03*
G54D10*
X04666329Y04080709D03*
G54D10*
X04831953Y04081012D03*
G54D10*
X04685030Y04082677D03*
G54D10*
X04842510Y04089464D03*
G54D10*
X04851500Y04097882D03*
G54D10*
X04862195Y04106299D03*
G54D10*
X04585620Y04110236D03*
G54D10*
X04918297Y04111220D03*
G54D10*
X04896184Y04119114D03*
G54D10*
X04859134Y04119431D03*
G54D10*
X04670165Y04121043D03*
G54D10*
X04938967Y04122047D03*
G54D10*
X04611267Y04130962D03*
G54D10*
X04757864Y04147657D03*
G54D10*
X04669820Y04149180D03*
G54D10*
X04606783Y04150989D03*
G54D10*
X04859134Y04153424D03*
G54D10*
X04628927Y04157480D03*
G54D10*
X04949793Y04164370D03*
G54D10*
X04564661Y04165532D03*
G54D10*
X04553140Y04176181D03*
G54D10*
X04997234Y04194488D03*
G54D10*
X04639754Y04199803D03*
G54D10*
X05027549Y04202383D03*
G54D10*
X04946841Y04207677D03*
G54D10*
X04631804Y04211722D03*
G54D10*
X04642709Y04216207D03*
G54D10*
X04510620Y04222441D03*
G54D10*
X05055108Y04228346D03*
G54D10*
X04639754Y04232283D03*
G54D10*
X05000974Y04239173D03*
G54D10*
X04628998Y04240169D03*
G54D10*
X04475581Y04242126D03*
G54D10*
X04520463Y04243701D03*
G54D10*
X04433061Y04251968D03*
G54D10*
X04637785Y04252953D03*
G54D10*
X04492116Y04260039D03*
G54D10*
X04515344Y04261417D03*
G54D10*
X04560416Y04263837D03*
G54D10*
X04594872Y04266142D03*
G54D10*
X05079715Y04276575D03*
G54D10*
X05084636Y04297244D03*
G54D10*
X04956683Y04314961D03*
G54D10*
X04997966Y04320922D03*
G54D10*
X05076204Y04327736D03*
G54D10*
X04546250Y04328579D03*
G54D10*
X04466506Y04328838D03*
G54D10*
X04525629Y04329921D03*
G54D10*
X04453927Y04333071D03*
G54D10*
X04891722Y04333661D03*
G54D10*
X04907470D03*
G54D10*
X04477105Y04334006D03*
G54D10*
X04925187Y04334646D03*
G54D10*
X04970463Y04336614D03*
G54D10*
X04515806Y04337428D03*
G54D10*
X04589955Y04338785D03*
G54D10*
X04999990Y04342520D03*
G54D10*
X04893691Y04350394D03*
G54D10*
X04590148Y04350787D03*
G54D10*
X04507845Y04357023D03*
G54D10*
X04492116Y04357283D03*
G54D10*
X04633848Y04362205D03*
G54D10*
X04933061D03*
G54D10*
X04972431D03*
G54D10*
X05076762Y04365157D03*
G54D10*
X04451841Y04366000D03*
G54D10*
X04905502Y04366142D03*
G54D10*
X04571848Y04374016D03*
G54D10*
X04477394Y04374525D03*
G54D10*
X04553140Y04374803D03*
G54D10*
X04584636Y04375084D03*
G54D10*
X04505896Y04377165D03*
G54D10*
X04429124Y04377953D03*
G54D10*
X04741132Y04381890D03*
G54D10*
X05077746Y04382874D03*
G54D10*
X04637704Y04385783D03*
G54D10*
X04476368Y04388779D03*
G54D10*
X04538387Y04388814D03*
G54D10*
X05078814Y04394617D03*
G54D10*
X04541037Y04403489D03*
G54D10*
X04493039Y04406421D03*
G54D10*
X04555108Y04406496D03*
G54D10*
X04739163D03*
G54D10*
X04509018Y04406598D03*
G54D10*
X04422234Y04407480D03*
G54D10*
X05056093Y04409449D03*
G54D10*
X04529767Y04409468D03*
G54D10*
X04478452Y04410896D03*
G54D10*
X04905502Y04413386D03*
G54D10*
X04870069Y04414370D03*
G54D10*
X04943888Y04415354D03*
G54D10*
X05079609Y04415585D03*
G54D10*
X04430108Y04418307D03*
G54D10*
X05035423Y04426181D03*
G54D10*
X04625581Y04433071D03*
G54D10*
X04460620Y04433878D03*
G54D10*
X04494085Y04435039D03*
G54D10*
X04435030Y04437008D03*
G54D10*
X04538207D03*
G54D10*
X04556093D03*
G54D10*
X04477406Y04439789D03*
G54D10*
X04590977Y04442477D03*
G54D10*
X05087589Y04443898D03*
G54D10*
X04390047Y04446445D03*
G54D10*
X04507853Y04451453D03*
G54D10*
X04435029Y04451476D03*
G54D10*
X04522628Y04451772D03*
G54D10*
X04538376D03*
G54D10*
X04984894Y04452462D03*
G54D10*
X04944872Y04452756D03*
G54D10*
X05003927D03*
G54D10*
X04900422Y04453433D03*
G54D10*
X04637785Y04456693D03*
G54D10*
X04476405Y04467468D03*
G54D10*
X05056093Y04468504D03*
G54D10*
X04462589Y04471673D03*
G54D10*
X04442904Y04473425D03*
G54D10*
X04544085Y04478740D03*
G54D10*
X04583848Y04479921D03*
G54D10*
X04601565D03*
G54D10*
X04433848Y04481890D03*
G54D10*
X05035423Y04485236D03*
G54D10*
X04867411Y04486515D03*
G54D10*
X04944816Y04487261D03*
G54D10*
X04893691Y04489173D03*
G54D10*
X04990148Y04490157D03*
G54D10*
X04911407Y04491142D03*
G54D10*
X04932077Y04492126D03*
G54D10*
X04971447D03*
G54D10*
X04546709Y04492164D03*
G54D10*
X05010837Y04492520D03*
G54D10*
X05057077Y04506890D03*
G54D10*
X04393691Y04507874D03*
G54D10*
X04594478Y04509842D03*
G54D10*
X05083084Y04510661D03*
G54D10*
X04446841Y04516260D03*
G54D10*
X04478337Y04516732D03*
G54D10*
X04888770Y04518701D03*
G54D10*
X04592510Y04535433D03*
G54D10*
X04444872Y04542323D03*
G54D10*
X04512785Y04543307D03*
G54D10*
X05100384D03*
G54D10*
X05056872Y04544748D03*
G54D10*
X04475384Y04547244D03*
G54D10*
X04576762Y04549213D03*
G54D10*
X04527549Y04559055D03*
G54D10*
X05082667D03*
G54D10*
X04503927Y04560039D03*
G54D10*
X04600384Y04562992D03*
G54D10*
X04637785Y04574803D03*
G54D10*
X04528514Y04579701D03*
G54D10*
X05035215Y04584916D03*
G54D10*
X04425187Y04599409D03*
G54D10*
X05027530Y04615157D03*
G54D10*
X04635817Y04616142D03*
G54D10*
X05071841D03*
G54D10*
X04528337Y04628740D03*
G54D10*
X04448809Y04629921D03*
G54D10*
X04633848D03*
G54D10*
X05058258Y04638583D03*
G54D10*
X04464557Y04639764D03*
G54D10*
X04544793Y04641713D03*
G54D10*
X04641722Y04641732D03*
G54D10*
X04578730Y04643701D03*
G54D10*
X04543620Y04654416D03*
G54D10*
X04645470Y04658706D03*
G54D10*
X04628659Y04661654D03*
G54D10*
X04606289Y04663386D03*
G54D10*
X04594727Y04665698D03*
G54D10*
X05034439Y04667323D03*
G54D10*
X04559045Y04671279D03*
G54D10*
X04641599Y04673217D03*
G54D10*
X05025581Y04681102D03*
G54D10*
X04559045Y04683071D03*
G54D10*
X04882864Y04684055D03*
G54D10*
X04921138Y04684187D03*
G54D10*
X04896644Y04687008D03*
G54D10*
X04936014D03*
G54D10*
X04513714Y04687064D03*
G54D10*
X04637785Y04688976D03*
G54D10*
X05012785Y04694882D03*
G54D10*
X05002943Y04703740D03*
G54D10*
X04578730Y04703937D03*
G54D10*
X04638770Y04704724D03*
G54D10*
Y04720472D03*
G54D10*
X04618100Y04721529D03*
G54D10*
X04559045Y04722441D03*
G54D10*
X04756880Y04725102D03*
G54D10*
X04876368Y04730709D03*
G54D10*
X04864047Y04735857D03*
G54D10*
X04606289Y04748031D03*
G54D10*
X04875187Y04748425D03*
G54D10*
X04862962Y04753088D03*
G54D10*
X04299203Y04787401D03*
G54D10*
X04667051Y04791189D03*
G54D10*
X04834636Y04792126D03*
G54D10*
X04679124Y04795275D03*
G54D10*
X04696841D03*
G54D11*
X03531486Y03728346D03*
G54D11*
X03807077D03*
G54D11*
X04240148D03*
G54D11*
X04633848D03*
G54D11*
X05027549D03*
G54D11*
X05381880D03*
G54D11*
X04436998Y03925197D03*
G54D11*
X05106289Y03964567D03*
G54D11*
X04899596Y04105315D03*
G54D11*
X04561407Y04131496D03*
G54D11*
X04959595Y04139884D03*
G54D11*
X04470463Y04207480D03*
G54D11*
X04991329Y04209055D03*
G54D11*
X04606289Y04211614D03*
G54D11*
X04181093Y04220472D03*
G54D11*
X04588179Y04238976D03*
G54D11*
X05381880Y04240157D03*
G54D11*
X03531486Y04279527D03*
G54D11*
X04438967Y04295275D03*
G54D11*
X04442904Y04322835D03*
G54D11*
X05015767Y04340523D03*
G54D11*
X04406335Y04367174D03*
G54D11*
X04943888Y04433071D03*
G54D11*
X05002963Y04507309D03*
G54D11*
X04634242Y04520472D03*
G54D11*
X04937982Y04547244D03*
G54D11*
X04889754Y04548228D03*
G54D11*
X03531486Y04555118D03*
G54D11*
X04193448Y04556520D03*
G54D11*
X05381880Y04633858D03*
G54D11*
X04937486Y04636811D03*
G54D11*
X04937982Y04666338D03*
G54D11*
X04900581Y04667323D03*
G54D11*
X04529518Y04713583D03*
G54D11*
X04476368Y04948819D03*
G54D11*
X05027549D03*
G54D11*
X03531486Y05145669D03*
G54D11*
X03885817D03*
G54D11*
X04318888D03*
G54D11*
X04791329D03*
G54D11*
X05263770D03*
G54D10*
X04703730Y05649606D03*
G54D10*
X04666329Y05655512D03*
G54D10*
X04831953Y05655815D03*
G54D10*
X04685030Y05657480D03*
G54D10*
X04842510Y05664268D03*
G54D10*
X04851500Y05672685D03*
G54D10*
X04862195Y05681102D03*
G54D10*
X04585620Y05685039D03*
G54D10*
X04918297Y05686024D03*
G54D10*
X04896184Y05693917D03*
G54D10*
X04859134Y05694234D03*
G54D10*
X04670165Y05695846D03*
G54D10*
X04938967Y05696850D03*
G54D10*
X04611267Y05705765D03*
G54D10*
X04757864Y05722461D03*
G54D10*
X04669820Y05723983D03*
G54D10*
X04606783Y05725792D03*
G54D10*
X04859134Y05728227D03*
G54D10*
X04628927Y05732283D03*
G54D10*
X04949793Y05739173D03*
G54D10*
X04564661Y05740335D03*
G54D10*
X04553140Y05750984D03*
G54D10*
X04997234Y05769291D03*
G54D10*
X04639754Y05774606D03*
G54D10*
X05027549Y05777186D03*
G54D10*
X04946841Y05782480D03*
G54D10*
X04631804Y05786525D03*
G54D10*
X04642709Y05791011D03*
G54D10*
X04510620Y05797244D03*
G54D10*
X05055108Y05803150D03*
G54D10*
X04639754Y05807087D03*
G54D10*
X05000974Y05813976D03*
G54D10*
X04628998Y05814972D03*
G54D10*
X04475581Y05816929D03*
G54D10*
X04520463Y05818504D03*
G54D10*
X04433061Y05826772D03*
G54D10*
X04637785Y05827756D03*
G54D10*
X04492116Y05834842D03*
G54D10*
X04515344Y05836220D03*
G54D10*
X04560416Y05838640D03*
G54D10*
X04594872Y05840945D03*
G54D10*
X05079715Y05851378D03*
G54D10*
X05084636Y05872047D03*
G54D10*
X04956683Y05889764D03*
G54D10*
X04997966Y05895725D03*
G54D10*
X05076204Y05902539D03*
G54D10*
X04546250Y05903382D03*
G54D10*
X04466506Y05903641D03*
G54D10*
X04525629Y05904724D03*
G54D10*
X04453927Y05907874D03*
G54D10*
X04891722Y05908464D03*
G54D10*
X04907470D03*
G54D10*
X04477105Y05908809D03*
G54D10*
X04925187Y05909449D03*
G54D10*
X04970463Y05911417D03*
G54D10*
X04515806Y05912231D03*
G54D10*
X04589955Y05913588D03*
G54D10*
X04999990Y05917323D03*
G54D10*
X04893691Y05925197D03*
G54D10*
X04590148Y05925590D03*
G54D10*
X04507845Y05931826D03*
G54D10*
X04492116Y05932087D03*
G54D10*
X04633848Y05937008D03*
G54D10*
X04933061D03*
G54D10*
X04972431D03*
G54D10*
X05076762Y05939961D03*
G54D10*
X04451841Y05940803D03*
G54D10*
X04905502Y05940945D03*
G54D10*
X04571848Y05948819D03*
G54D10*
X04477394Y05949328D03*
G54D10*
X04553140Y05949606D03*
G54D10*
X04584636Y05949887D03*
G54D10*
X04505896Y05951968D03*
G54D10*
X04429124Y05952756D03*
G54D10*
X04741132Y05956693D03*
G54D10*
X05077746Y05957677D03*
G54D10*
X04637704Y05960587D03*
G54D10*
X04476368Y05963583D03*
G54D10*
X04538387Y05963617D03*
G54D10*
X05078814Y05969420D03*
G54D10*
X04541037Y05978292D03*
G54D10*
X04493039Y05981224D03*
G54D10*
X04555108Y05981299D03*
G54D10*
X04739163D03*
G54D10*
X04509018Y05981402D03*
G54D10*
X04422234Y05982283D03*
G54D10*
X05056093Y05984252D03*
G54D10*
X04529767Y05984272D03*
G54D10*
X04478452Y05985700D03*
G54D10*
X04905502Y05988189D03*
G54D10*
X04870069Y05989173D03*
G54D10*
X04943888Y05990157D03*
G54D10*
X05079609Y05990388D03*
G54D10*
X04430108Y05993110D03*
G54D10*
X05035423Y06000984D03*
G54D10*
X04625581Y06007874D03*
G54D10*
X04460620Y06008681D03*
G54D10*
X04494085Y06009842D03*
G54D10*
X04435030Y06011811D03*
G54D10*
X04538207D03*
G54D10*
X04556093D03*
G54D10*
X04477406Y06014593D03*
G54D10*
X04590977Y06017280D03*
G54D10*
X05087589Y06018701D03*
G54D10*
X04390047Y06021249D03*
G54D10*
X04507853Y06026256D03*
G54D10*
X04435029Y06026279D03*
G54D10*
X04522628Y06026575D03*
G54D10*
X04538376D03*
G54D10*
X04984894Y06027265D03*
G54D10*
X04944872Y06027559D03*
G54D10*
X05003927D03*
G54D10*
X04900422Y06028236D03*
G54D10*
X04637785Y06031496D03*
G54D10*
X04476405Y06042271D03*
G54D10*
X05056093Y06043307D03*
G54D10*
X04462589Y06046476D03*
G54D10*
X04442904Y06048228D03*
G54D10*
X04544085Y06053543D03*
G54D10*
X04583848Y06054724D03*
G54D10*
X04601565D03*
G54D10*
X04433848Y06056693D03*
G54D10*
X05035423Y06060039D03*
G54D10*
X04867411Y06061319D03*
G54D10*
X04944816Y06062064D03*
G54D10*
X04893691Y06063976D03*
G54D10*
X04990148Y06064961D03*
G54D10*
X04911407Y06065945D03*
G54D10*
X04932077Y06066929D03*
G54D10*
X04971447D03*
G54D10*
X04546709Y06066968D03*
G54D10*
X05010837Y06067323D03*
G54D10*
X05057077Y06081693D03*
G54D10*
X04393691Y06082677D03*
G54D10*
X04594478Y06084646D03*
G54D10*
X05083084Y06085464D03*
G54D10*
X04446841Y06091063D03*
G54D10*
X04478337Y06091535D03*
G54D10*
X04888770Y06093504D03*
G54D10*
X04592510Y06110236D03*
G54D10*
X04444872Y06117126D03*
G54D10*
X04512785Y06118110D03*
G54D10*
X05100384D03*
G54D10*
X05056872Y06119551D03*
G54D10*
X04475384Y06122047D03*
G54D10*
X04576762Y06124016D03*
G54D10*
X04527549Y06133858D03*
G54D10*
X05082667D03*
G54D10*
X04503927Y06134842D03*
G54D10*
X04600384Y06137795D03*
G54D10*
X04637785Y06149606D03*
G54D10*
X04528514Y06154504D03*
G54D10*
X05035215Y06159719D03*
G54D10*
X04425187Y06174213D03*
G54D10*
X05027530Y06189961D03*
G54D10*
X04635817Y06190945D03*
G54D10*
X05071841D03*
G54D10*
X04528337Y06203543D03*
G54D10*
X04448809Y06204724D03*
G54D10*
X04633848D03*
G54D10*
X05058258Y06213386D03*
G54D10*
X04464557Y06214567D03*
G54D10*
X04544793Y06216516D03*
G54D10*
X04641722Y06216535D03*
G54D10*
X04578730Y06218504D03*
G54D10*
X04543620Y06229219D03*
G54D10*
X04645470Y06233509D03*
G54D10*
X04628659Y06236457D03*
G54D10*
X04606289Y06238189D03*
G54D10*
X04594727Y06240501D03*
G54D10*
X05034439Y06242126D03*
G54D10*
X04559045Y06246082D03*
G54D10*
X04641599Y06248020D03*
G54D10*
X05025581Y06255905D03*
G54D10*
X04559045Y06257874D03*
G54D10*
X04882864Y06258858D03*
G54D10*
X04921138Y06258990D03*
G54D10*
X04896644Y06261811D03*
G54D10*
X04936014D03*
G54D10*
X04513714Y06261867D03*
G54D10*
X04637785Y06263779D03*
G54D10*
X05012785Y06269685D03*
G54D10*
X05002943Y06278543D03*
G54D10*
X04578730Y06278740D03*
G54D10*
X04638770Y06279527D03*
G54D10*
Y06295275D03*
G54D10*
X04618100Y06296332D03*
G54D10*
X04559045Y06297244D03*
G54D10*
X04756880Y06299905D03*
G54D10*
X04876368Y06305512D03*
G54D10*
X04864047Y06310661D03*
G54D10*
X04606289Y06322835D03*
G54D10*
X04875187Y06323228D03*
G54D10*
X04862962Y06327891D03*
G54D10*
X04299203Y06362205D03*
G54D10*
X04667051Y06365992D03*
G54D10*
X04834636Y06366929D03*
G54D10*
X04679124Y06370079D03*
G54D10*
X04696841D03*
G54D11*
X03531486Y05303150D03*
G54D11*
X03807077D03*
G54D11*
X04240148D03*
G54D11*
X04633848D03*
G54D11*
X05027549D03*
G54D11*
X05381880D03*
G54D11*
X04436998Y05500000D03*
G54D11*
X05106289Y05539370D03*
G54D11*
X04899596Y05680118D03*
G54D11*
X04561407Y05706299D03*
G54D11*
X04959595Y05714687D03*
G54D11*
X04470463Y05782283D03*
G54D11*
X04991329Y05783858D03*
G54D11*
X04606289Y05786417D03*
G54D11*
X04181093Y05795275D03*
G54D11*
X04588179Y05813779D03*
G54D11*
X05381880Y05814961D03*
G54D11*
X03531486Y05854331D03*
G54D11*
X04438967Y05870079D03*
G54D11*
X04442904Y05897638D03*
G54D11*
X05015767Y05915326D03*
G54D11*
X04406335Y05941977D03*
G54D11*
X04943888Y06007874D03*
G54D11*
X05002963Y06082113D03*
G54D11*
X04634242Y06095275D03*
G54D11*
X04937982Y06122047D03*
G54D11*
X04889754Y06123031D03*
G54D11*
X03531486Y06129921D03*
G54D11*
X04193448Y06131323D03*
G54D11*
X05381880Y06208661D03*
G54D11*
X04937486Y06211614D03*
G54D11*
X04937982Y06241142D03*
G54D11*
X04900581Y06242126D03*
G54D11*
X04529518Y06288386D03*
G54D11*
X04476368Y06523622D03*
G54D11*
X05027549D03*
G54D11*
X03531486Y06720472D03*
G54D11*
X03885817D03*
G54D11*
X04318888D03*
G54D11*
X04791329D03*
G54D11*
X05263770D03*
G54D10*
X04703730Y07224409D03*
G54D10*
X04666329Y07230315D03*
G54D10*
X04831953Y07230618D03*
G54D10*
X04685030Y07232283D03*
G54D10*
X04842510Y07239071D03*
G54D10*
X04851500Y07247488D03*
G54D10*
X04862195Y07255905D03*
G54D10*
X04585620Y07259842D03*
G54D10*
X04918297Y07260827D03*
G54D10*
X04896184Y07268720D03*
G54D10*
X04859134Y07269038D03*
G54D10*
X04670165Y07270650D03*
G54D10*
X04938967Y07271653D03*
G54D10*
X04611267Y07280568D03*
G54D10*
X04757864Y07297264D03*
G54D10*
X04669820Y07298786D03*
G54D10*
X04606783Y07300595D03*
G54D10*
X04859134Y07303031D03*
G54D10*
X04628927Y07307087D03*
G54D10*
X04949793Y07313976D03*
G54D10*
X04564661Y07315138D03*
G54D10*
X04553140Y07325787D03*
G54D10*
X04997234Y07344094D03*
G54D10*
X04639754Y07349409D03*
G54D10*
X05027549Y07351989D03*
G54D10*
X04946841Y07357283D03*
G54D10*
X04631804Y07361328D03*
G54D10*
X04642709Y07365814D03*
G54D10*
X04510620Y07372047D03*
G54D10*
X05055108Y07377953D03*
G54D10*
X04639754Y07381890D03*
G54D10*
X05000974Y07388779D03*
G54D10*
X04628998Y07389775D03*
G54D10*
X04475581Y07391732D03*
G54D10*
X04520463Y07393307D03*
G54D10*
X04433061Y07401575D03*
G54D10*
X04637785Y07402559D03*
G54D10*
X04492116Y07409646D03*
G54D10*
X04515344Y07411024D03*
G54D10*
X04560416Y07413444D03*
G54D10*
X04594872Y07415748D03*
G54D10*
X05079715Y07426181D03*
G54D10*
X05084636Y07446850D03*
G54D10*
X04956683Y07464567D03*
G54D10*
X04997966Y07470528D03*
G54D10*
X05076204Y07477342D03*
G54D10*
X04546250Y07478186D03*
G54D10*
X04466506Y07478444D03*
G54D10*
X04525629Y07479527D03*
G54D10*
X04453927Y07482677D03*
G54D10*
X04891722Y07483268D03*
G54D10*
X04907470D03*
G54D10*
X04477105Y07483612D03*
G54D10*
X04925187Y07484252D03*
G54D10*
X04970463Y07486220D03*
G54D10*
X04515806Y07487034D03*
G54D10*
X04589955Y07488391D03*
G54D10*
X04999990Y07492126D03*
G54D10*
X04893691Y07500000D03*
G54D10*
X04590148Y07500394D03*
G54D10*
X04507845Y07506629D03*
G54D10*
X04492116Y07506890D03*
G54D10*
X04633848Y07511811D03*
G54D10*
X04933061D03*
G54D10*
X04972431D03*
G54D10*
X05076762Y07514764D03*
G54D10*
X04451841Y07515606D03*
G54D10*
X04905502Y07515748D03*
G54D10*
X04571848Y07523622D03*
G54D10*
X04477394Y07524131D03*
G54D10*
X04553140Y07524409D03*
G54D10*
X04584636Y07524690D03*
G54D10*
X04505896Y07526772D03*
G54D10*
X04429124Y07527559D03*
G54D10*
X04741132Y07531496D03*
G54D10*
X05077746Y07532480D03*
G54D10*
X04637704Y07535390D03*
G54D10*
X04476368Y07538386D03*
G54D10*
X04538387Y07538420D03*
G54D10*
X05078814Y07544223D03*
G54D10*
X04541037Y07553095D03*
G54D10*
X04493039Y07556027D03*
G54D10*
X04555108Y07556102D03*
G54D10*
X04739163D03*
G54D10*
X04509018Y07556205D03*
G54D10*
X04422234Y07557087D03*
G54D10*
X05056093Y07559055D03*
G54D10*
X04529767Y07559075D03*
G54D10*
X04478452Y07560503D03*
G54D10*
X04905502Y07562992D03*
G54D10*
X04870069Y07563976D03*
G54D10*
X04943888Y07564961D03*
G54D10*
X05079609Y07565191D03*
G54D10*
X04430108Y07567913D03*
G54D10*
X05035423Y07575787D03*
G54D10*
X04625581Y07582677D03*
G54D10*
X04460620Y07583484D03*
G54D10*
X04494085Y07584646D03*
G54D10*
X04435030Y07586614D03*
G54D10*
X04538207D03*
G54D10*
X04556093D03*
G54D10*
X04477406Y07589396D03*
G54D10*
X04590977Y07592083D03*
G54D10*
X05087589Y07593504D03*
G54D10*
X04390047Y07596052D03*
G54D10*
X04507853Y07601059D03*
G54D10*
X04435029Y07601082D03*
G54D10*
X04522628Y07601378D03*
G54D10*
X04538376D03*
G54D10*
X04984894Y07602068D03*
G54D10*
X04944872Y07602362D03*
G54D10*
X05003927D03*
G54D10*
X04900422Y07603039D03*
G54D10*
X04637785Y07606299D03*
G54D10*
X04476405Y07617074D03*
G54D10*
X05056093Y07618110D03*
G54D10*
X04462589Y07621279D03*
G54D10*
X04442904Y07623031D03*
G54D10*
X04544085Y07628346D03*
G54D10*
X04583848Y07629527D03*
G54D10*
X04601565D03*
G54D10*
X04433848Y07631496D03*
G54D10*
X05035423Y07634842D03*
G54D10*
X04867411Y07636122D03*
G54D10*
X04944816Y07636867D03*
G54D10*
X04893691Y07638779D03*
G54D10*
X04990148Y07639764D03*
G54D10*
X04911407Y07640748D03*
G54D10*
X04932077Y07641732D03*
G54D10*
X04971447D03*
G54D10*
X04546709Y07641771D03*
G54D10*
X05010837Y07642126D03*
G54D10*
X05057077Y07656496D03*
G54D10*
X04393691Y07657480D03*
G54D10*
X04594478Y07659449D03*
G54D10*
X05083084Y07660267D03*
G54D10*
X04446841Y07665866D03*
G54D10*
X04478337Y07666338D03*
G54D10*
X04888770Y07668307D03*
G54D10*
X04592510Y07685039D03*
G54D10*
X04444872Y07691929D03*
G54D10*
X04512785Y07692913D03*
G54D10*
X05100384D03*
G54D10*
X05056872Y07694354D03*
G54D10*
X04475384Y07696850D03*
G54D10*
X04576762Y07698819D03*
G54D10*
X04527549Y07708661D03*
G54D10*
X05082667D03*
G54D10*
X04503927Y07709646D03*
G54D10*
X04600384Y07712598D03*
G54D10*
X04637785Y07724409D03*
G54D10*
X04528514Y07729307D03*
G54D10*
X05035215Y07734522D03*
G54D10*
X04425187Y07749016D03*
G54D10*
X05027530Y07764764D03*
G54D10*
X04635817Y07765748D03*
G54D10*
X05071841D03*
G54D10*
X04528337Y07778346D03*
G54D10*
X04448809Y07779527D03*
G54D10*
X04633848D03*
G54D10*
X05058258Y07788189D03*
G54D10*
X04464557Y07789370D03*
G54D10*
X04544793Y07791319D03*
G54D10*
X04641722Y07791338D03*
G54D10*
X04578730Y07793307D03*
G54D10*
X04543620Y07804023D03*
G54D10*
X04645470Y07808312D03*
G54D10*
X04628659Y07811260D03*
G54D10*
X04606289Y07812992D03*
G54D10*
X04594727Y07815305D03*
G54D10*
X05034439Y07816929D03*
G54D10*
X04559045Y07820886D03*
G54D10*
X04641599Y07822823D03*
G54D10*
X05025581Y07830709D03*
G54D10*
X04559045Y07832677D03*
G54D10*
X04882864Y07833661D03*
G54D10*
X04921138Y07833793D03*
G54D10*
X04896644Y07836614D03*
G54D10*
X04936014D03*
G54D10*
X04513714Y07836670D03*
G54D10*
X04637785Y07838583D03*
G54D10*
X05012785Y07844488D03*
G54D10*
X05002943Y07853346D03*
G54D10*
X04578730Y07853543D03*
G54D10*
X04638770Y07854331D03*
G54D10*
Y07870079D03*
G54D10*
X04618100Y07871135D03*
G54D10*
X04559045Y07872047D03*
G54D10*
X04756880Y07874709D03*
G54D10*
X04876368Y07880315D03*
G54D10*
X04864047Y07885464D03*
G54D10*
X04606289Y07897638D03*
G54D10*
X04875187Y07898031D03*
G54D10*
X04862962Y07902694D03*
G54D10*
X04299203Y07937008D03*
G54D10*
X04667051Y07940795D03*
G54D10*
X04834636Y07941732D03*
G54D10*
X04679124Y07944882D03*
G54D10*
X04696841D03*
G54D11*
X03531486Y06877953D03*
G54D11*
X03807077D03*
G54D11*
X04240148D03*
G54D11*
X04633848D03*
G54D11*
X05027549D03*
G54D11*
X05381880D03*
G54D11*
X04436998Y07074803D03*
G54D11*
X05106289Y07114173D03*
G54D11*
X04899596Y07254921D03*
G54D11*
X04561407Y07281102D03*
G54D11*
X04959595Y07289490D03*
G54D11*
X04470463Y07357087D03*
G54D11*
X04991329Y07358661D03*
G54D11*
X04606289Y07361220D03*
G54D11*
X04181093Y07370079D03*
G54D11*
X04588179Y07388583D03*
G54D11*
X05381880Y07389764D03*
G54D11*
X03531486Y07429134D03*
G54D11*
X04438967Y07444882D03*
G54D11*
X04442904Y07472441D03*
G54D11*
X05015767Y07490129D03*
G54D11*
X04406335Y07516780D03*
G54D11*
X04943888Y07582677D03*
G54D11*
X05002963Y07656916D03*
G54D11*
X04634242Y07670079D03*
G54D11*
X04937982Y07696850D03*
G54D11*
X04889754Y07697835D03*
G54D11*
X03531486Y07704724D03*
G54D11*
X04193448Y07706126D03*
G54D11*
X05381880Y07783464D03*
G54D11*
X04937486Y07786417D03*
G54D11*
X04937982Y07815945D03*
G54D11*
X04900581Y07816929D03*
G54D11*
X04529518Y07863189D03*
G54D11*
X04476368Y08098425D03*
G54D11*
X05027549D03*
G54D11*
X03531486Y08295275D03*
G54D11*
X03885817D03*
G54D11*
X04318888D03*
G54D11*
X04791329D03*
G54D11*
X05263770D03*
G54D10*
X08035413Y00559055D03*
G54D10*
X06657460Y00562992D03*
G54D10*
X07299192Y00574803D03*
G54D10*
X07602342Y00708661D03*
G54D10*
X06834625Y00783464D03*
G54D10*
X08048798Y00924409D03*
G54D10*
X07736200Y01007874D03*
G54D10*
X07283444Y01015748D03*
G54D10*
X06685019Y01114173D03*
G54D10*
X07197617Y01226771D03*
G54D10*
X07683838Y01227165D03*
G54D10*
X07165334Y01227559D03*
G54D10*
X07182263D03*
G54D10*
X07710609D03*
G54D10*
X07747617D03*
G54D10*
X07244076Y01227561D03*
G54D10*
X07371260Y01227803D03*
G54D10*
X07040531Y01227953D03*
G54D10*
X07599586D03*
G54D10*
X07411397Y01228346D03*
G54D10*
X07499586D03*
G54D10*
X07224783Y01228740D03*
G54D10*
X07015727Y01229134D03*
G54D10*
X07073995Y01236220D03*
G54D10*
X08043287D03*
G54D10*
X07256040Y01245493D03*
G54D10*
X06991318Y01248031D03*
G54D10*
X07752342D03*
G54D10*
X07012972Y01248425D03*
G54D10*
X07076751Y01250394D03*
G54D10*
X07142584Y01250735D03*
G54D10*
X07104016Y01255837D03*
G54D10*
X07305931Y01259402D03*
G54D10*
X07279113Y01259449D03*
G54D10*
X07661200Y01263236D03*
G54D10*
X07226114Y01268353D03*
G54D10*
X07643680Y01269291D03*
G54D10*
X07169271Y01271653D03*
G54D10*
X07074783Y01272047D03*
G54D10*
X07184231Y01272441D03*
G54D10*
X07297074Y01276886D03*
G54D10*
X07100767Y01277559D03*
G54D10*
X06991318Y01277953D03*
G54D10*
X07257265Y01279726D03*
G54D10*
X07688168Y01280708D03*
G54D10*
X07750767Y01281102D03*
G54D10*
X07501161Y01284008D03*
G54D10*
X07046136Y01291997D03*
G54D10*
X07102735Y01295669D03*
G54D10*
X07438956Y01297244D03*
G54D10*
X07142105Y01299212D03*
G54D10*
X07637775Y01307086D03*
G54D10*
X07179626Y01308387D03*
G54D10*
X07749979Y01310236D03*
G54D10*
X07708448Y01315523D03*
G54D10*
X07100070Y01316935D03*
G54D10*
X07024389Y01318110D03*
G54D10*
X07084625Y01318504D03*
G54D10*
X07521239D03*
G54D10*
X07575570D03*
G54D10*
X07590531Y01318897D03*
G54D10*
X07535806Y01319291D03*
G54D10*
X07551161D03*
G54D10*
X07153129Y01319685D03*
G54D10*
X07490137D03*
G54D10*
X07448636Y01321206D03*
G54D10*
X07508247Y01321260D03*
G54D10*
X07317671Y01327236D03*
G54D10*
X07668877Y01328346D03*
G54D10*
X07634231Y01330708D03*
G54D10*
X07234353Y01331005D03*
G54D10*
X07096857Y01335039D03*
G54D10*
X07135657Y01338505D03*
G54D10*
X07273281Y01338632D03*
G54D10*
X07158169Y01341749D03*
G54D10*
X07229113Y01342519D03*
G54D10*
X07023208Y01352362D03*
G54D10*
X07182701Y01355491D03*
G54D10*
X07286987Y01355905D03*
G54D10*
X07199019Y01356149D03*
G54D10*
X07218456Y01356299D03*
G54D10*
X07744861Y01358268D03*
G54D10*
X07260216Y01360236D03*
G54D10*
X07307066Y01360630D03*
G54D10*
X07139334Y01364150D03*
G54D10*
X07149586Y01367716D03*
G54D10*
X07261296Y01371212D03*
G54D10*
X07596436Y01371653D03*
G54D10*
X07012767Y01374017D03*
G54D10*
X07107066Y01377953D03*
G54D10*
X07222420Y01379921D03*
G54D10*
X07236200D03*
G54D10*
X07160098Y01381012D03*
G54D10*
X07704704Y01385039D03*
G54D10*
X07211397Y01385827D03*
G54D10*
X07597224D03*
G54D10*
X07200767Y01393701D03*
G54D10*
X07180294Y01394882D03*
G54D10*
X07595595Y01398221D03*
G54D10*
X07062578Y01400000D03*
G54D10*
X07712578Y01400394D03*
G54D10*
X07751948Y01404724D03*
G54D10*
X07064940Y01415748D03*
G54D10*
X07444861D03*
G54D10*
X07202342Y01417716D03*
G54D10*
X07225964Y01420472D03*
G54D10*
X07354310Y01421260D03*
G54D10*
X07150224Y01421290D03*
G54D10*
X07129507Y01423622D03*
G54D10*
X07750767Y01427165D03*
G54D10*
X07594025Y01429924D03*
G54D10*
X07109035Y01431890D03*
G54D10*
X07158641Y01433071D03*
G54D10*
X07299192D03*
G54D10*
X07181934Y01435534D03*
G54D10*
X07201161Y01435827D03*
G54D10*
X07147617Y01438582D03*
G54D10*
X07748405Y01440157D03*
G54D10*
X07061063Y01442786D03*
G54D10*
X07594861Y01444094D03*
G54D10*
X07129507Y01444882D03*
G54D10*
X07682994Y01445500D03*
G54D10*
X06991318Y01448425D03*
G54D10*
X07103916Y01449606D03*
G54D10*
X07409401Y01452756D03*
G54D10*
X07067220Y01454724D03*
G54D10*
X07162972D03*
G54D10*
X07182066D03*
G54D10*
X06709822Y01455118D03*
G54D10*
X07590137Y01455512D03*
G54D10*
X07200256Y01456071D03*
G54D10*
X07472814Y01464567D03*
G54D10*
X07543287D03*
G54D10*
X07573601Y01467323D03*
G54D10*
X07588562Y01467764D03*
G54D10*
X07531475Y01468504D03*
G54D10*
X07231082Y01471260D03*
G54D10*
X07507853Y01472441D03*
G54D10*
X07519664D03*
G54D10*
X07492221Y01473134D03*
G54D10*
X07201161Y01473622D03*
G54D10*
X07686200D03*
G54D10*
X07104338Y01475027D03*
G54D10*
X06991712Y01488976D03*
G54D10*
X07614546Y01492669D03*
G54D10*
X07629507D03*
G54D10*
X07231082Y01498031D03*
G54D10*
X07196286Y01498256D03*
G54D10*
X07690531Y01501181D03*
G54D10*
X07262985Y01504645D03*
G54D10*
X07154657Y01506739D03*
G54D10*
X07248129Y01507598D03*
G54D10*
X07583556Y01509146D03*
G54D10*
X07745058Y01509842D03*
G54D10*
X07299192Y01510236D03*
G54D10*
X07484231Y01510665D03*
G54D10*
X06990137Y01517716D03*
G54D10*
X07594074Y01518110D03*
G54D10*
X07019271Y01520642D03*
G54D10*
X07061397Y01523622D03*
G54D10*
X07409035Y01523996D03*
G54D10*
X07389743Y01525590D03*
G54D10*
X07361790Y01528346D03*
G54D10*
X07522420Y01540382D03*
G54D10*
X06990924Y01542913D03*
G54D10*
X07751554D03*
G54D10*
X07727145Y01544094D03*
G54D10*
X07702857Y01544288D03*
G54D10*
X07596804Y01544319D03*
G54D10*
X07664826D03*
G54D10*
X07358641Y01544882D03*
G54D10*
X08019664Y01578740D03*
G54D10*
X07641712Y01795275D03*
G54D10*
X07207853Y01801181D03*
G54D10*
X06799192Y01807086D03*
G54D10*
X08015727Y01850394D03*
G54D11*
X07645524Y01228996D03*
G54D11*
X07135806Y01236220D03*
G54D11*
X07334374Y01245500D03*
G54D11*
X07274783Y01246063D03*
G54D11*
X07368483Y01247244D03*
G54D11*
X07411093Y01264175D03*
G54D11*
X07013365Y01270079D03*
G54D11*
X07731279Y01273791D03*
G54D11*
X07058994Y01280579D03*
G54D11*
X07327014Y01310982D03*
G54D11*
X07126751Y01319291D03*
G54D11*
X07475570Y01353000D03*
G54D11*
X07510609Y01354181D03*
G54D11*
X07540140D03*
G54D11*
X07634625Y01357086D03*
G54D11*
X07059810Y01366130D03*
G54D11*
X07063759Y01383858D03*
G54D11*
X07650373Y01392519D03*
G54D11*
X07030688Y01397638D03*
G54D11*
X07714940Y01414567D03*
G54D11*
X07501229Y01419142D03*
G54D11*
X07529153D03*
G54D11*
X07317028Y01426921D03*
G54D11*
X07054035Y01465110D03*
G54D11*
X07651809Y01476118D03*
G54D11*
X07394420Y01490551D03*
G54D11*
X07059035Y01502362D03*
G54D11*
X07525176Y01511811D03*
G54D11*
X07721633Y01511838D03*
G54D11*
X07287325Y01515094D03*
G54D11*
X07107524Y01517153D03*
G54D11*
X07280017Y01527954D03*
G54D11*
X07058641Y01539764D03*
G54D11*
X07477129Y01539902D03*
G54D11*
X07296830Y01541732D03*
G54D10*
X08035413Y01976378D03*
G54D10*
X06657460Y01980315D03*
G54D10*
X07299192Y01992126D03*
G54D10*
X07602342Y02125984D03*
G54D10*
X06834625Y02200787D03*
G54D10*
X08048798Y02341732D03*
G54D10*
X07736200Y02425197D03*
G54D10*
X07283444Y02433071D03*
G54D10*
X06685019Y02531496D03*
G54D10*
X07197617Y02644094D03*
G54D10*
X07683838Y02644488D03*
G54D10*
X07165334Y02644882D03*
G54D10*
X07182263D03*
G54D10*
X07710609D03*
G54D10*
X07747617D03*
G54D10*
X07244076Y02644884D03*
G54D10*
X07371260Y02645126D03*
G54D10*
X07040531Y02645275D03*
G54D10*
X07599586D03*
G54D10*
X07411397Y02645669D03*
G54D10*
X07499586D03*
G54D10*
X07224783Y02646063D03*
G54D10*
X07015727Y02646456D03*
G54D10*
X07073995Y02653543D03*
G54D10*
X08043287D03*
G54D10*
X07256040Y02662816D03*
G54D10*
X06991318Y02665354D03*
G54D10*
X07752342D03*
G54D10*
X07012972Y02665748D03*
G54D10*
X07076751Y02667716D03*
G54D10*
X07142584Y02668058D03*
G54D10*
X07104016Y02673159D03*
G54D10*
X07305931Y02676725D03*
G54D10*
X07279113Y02676771D03*
G54D10*
X07661200Y02680559D03*
G54D10*
X07226114Y02685676D03*
G54D10*
X07643680Y02686614D03*
G54D10*
X07169271Y02688976D03*
G54D10*
X07074783Y02689370D03*
G54D10*
X07184231Y02689764D03*
G54D10*
X07297074Y02694209D03*
G54D10*
X07100767Y02694882D03*
G54D10*
X06991318Y02695275D03*
G54D10*
X07257265Y02697049D03*
G54D10*
X07688168Y02698031D03*
G54D10*
X07750767Y02698425D03*
G54D10*
X07501161Y02701331D03*
G54D10*
X07046136Y02709319D03*
G54D10*
X07102735Y02712992D03*
G54D10*
X07438956Y02714567D03*
G54D10*
X07142105Y02716535D03*
G54D10*
X07637775Y02724409D03*
G54D10*
X07179626Y02725710D03*
G54D10*
X07749979Y02727559D03*
G54D10*
X07708448Y02732846D03*
G54D10*
X07100070Y02734257D03*
G54D10*
X07024389Y02735433D03*
G54D10*
X07084625Y02735827D03*
G54D10*
X07521239D03*
G54D10*
X07575570D03*
G54D10*
X07590531Y02736220D03*
G54D10*
X07535806Y02736614D03*
G54D10*
X07551161D03*
G54D10*
X07153129Y02737008D03*
G54D10*
X07490137D03*
G54D10*
X07448636Y02738529D03*
G54D10*
X07508247Y02738582D03*
G54D10*
X07317671Y02744559D03*
G54D10*
X07668877Y02745669D03*
G54D10*
X07634231Y02748031D03*
G54D10*
X07234353Y02748327D03*
G54D10*
X07096857Y02752362D03*
G54D10*
X07135657Y02755828D03*
G54D10*
X07273281Y02755955D03*
G54D10*
X07158169Y02759071D03*
G54D10*
X07229113Y02759842D03*
G54D10*
X07023208Y02769685D03*
G54D10*
X07182701Y02772814D03*
G54D10*
X07286987Y02773228D03*
G54D10*
X07199019Y02773472D03*
G54D10*
X07218456Y02773622D03*
G54D10*
X07744861Y02775590D03*
G54D10*
X07260216Y02777559D03*
G54D10*
X07307066Y02777953D03*
G54D10*
X07139334Y02781473D03*
G54D10*
X07149586Y02785039D03*
G54D10*
X07261296Y02788535D03*
G54D10*
X07596436Y02788976D03*
G54D10*
X07012767Y02791339D03*
G54D10*
X07107066Y02795275D03*
G54D10*
X07222420Y02797244D03*
G54D10*
X07236200D03*
G54D10*
X07160098Y02798335D03*
G54D10*
X07704704Y02802362D03*
G54D10*
X07211397Y02803149D03*
G54D10*
X07597224D03*
G54D10*
X07200767Y02811023D03*
G54D10*
X07180294Y02812205D03*
G54D10*
X07595595Y02815544D03*
G54D10*
X07062578Y02817323D03*
G54D10*
X07712578Y02817716D03*
G54D10*
X07751948Y02822047D03*
G54D10*
X07064940Y02833071D03*
G54D10*
X07444861D03*
G54D10*
X07202342Y02835039D03*
G54D10*
X07225964Y02837795D03*
G54D10*
X07354310Y02838582D03*
G54D10*
X07150224Y02838612D03*
G54D10*
X07129507Y02840945D03*
G54D10*
X07750767Y02844488D03*
G54D10*
X07594025Y02847247D03*
G54D10*
X07109035Y02849212D03*
G54D10*
X07158641Y02850394D03*
G54D10*
X07299192D03*
G54D10*
X07181934Y02852857D03*
G54D10*
X07201161Y02853149D03*
G54D10*
X07147617Y02855905D03*
G54D10*
X07748405Y02857480D03*
G54D10*
X07061063Y02860109D03*
G54D10*
X07594861Y02861417D03*
G54D10*
X07129507Y02862205D03*
G54D10*
X07682994Y02862823D03*
G54D10*
X06991318Y02865748D03*
G54D10*
X07103916Y02866929D03*
G54D10*
X07409401Y02870079D03*
G54D10*
X07067220Y02872047D03*
G54D10*
X07162972D03*
G54D10*
X07182066D03*
G54D10*
X06709822Y02872441D03*
G54D10*
X07590137Y02872834D03*
G54D10*
X07200256Y02873394D03*
G54D10*
X07472814Y02881890D03*
G54D10*
X07543287D03*
G54D10*
X07573601Y02884645D03*
G54D10*
X07588562Y02885086D03*
G54D10*
X07531475Y02885827D03*
G54D10*
X07231082Y02888582D03*
G54D10*
X07507853Y02889764D03*
G54D10*
X07519664D03*
G54D10*
X07492221Y02890457D03*
G54D10*
X07201161Y02890945D03*
G54D10*
X07686200D03*
G54D10*
X07104338Y02892350D03*
G54D10*
X06991712Y02906299D03*
G54D10*
X07614546Y02909992D03*
G54D10*
X07629507D03*
G54D10*
X07231082Y02915354D03*
G54D10*
X07196286Y02915579D03*
G54D10*
X07690531Y02918504D03*
G54D10*
X07262985Y02921968D03*
G54D10*
X07154657Y02924062D03*
G54D10*
X07248129Y02924921D03*
G54D10*
X07583556Y02926468D03*
G54D10*
X07745058Y02927165D03*
G54D10*
X07299192Y02927559D03*
G54D10*
X07484231Y02927987D03*
G54D10*
X06990137Y02935039D03*
G54D10*
X07594074Y02935433D03*
G54D10*
X07019271Y02937964D03*
G54D10*
X07061397Y02940945D03*
G54D10*
X07409035Y02941319D03*
G54D10*
X07389743Y02942913D03*
G54D10*
X07361790Y02945669D03*
G54D10*
X07522420Y02957705D03*
G54D10*
X06990924Y02960236D03*
G54D10*
X07751554D03*
G54D10*
X07727145Y02961417D03*
G54D10*
X07702857Y02961611D03*
G54D10*
X07596804Y02961642D03*
G54D10*
X07664826D03*
G54D10*
X07358641Y02962205D03*
G54D10*
X08019664Y02996063D03*
G54D10*
X07641712Y03212598D03*
G54D10*
X07207853Y03218504D03*
G54D10*
X06799192Y03224409D03*
G54D10*
X08015727Y03267716D03*
G54D11*
X07645524Y02646319D03*
G54D11*
X07135806Y02653543D03*
G54D11*
X07334374Y02662823D03*
G54D11*
X07274783Y02663386D03*
G54D11*
X07368483Y02664567D03*
G54D11*
X07411093Y02681498D03*
G54D11*
X07013365Y02687401D03*
G54D11*
X07731279Y02691114D03*
G54D11*
X07058994Y02697901D03*
G54D11*
X07327014Y02728305D03*
G54D11*
X07126751Y02736614D03*
G54D11*
X07475570Y02770323D03*
G54D11*
X07510609Y02771504D03*
G54D11*
X07540140D03*
G54D11*
X07634625Y02774409D03*
G54D11*
X07059810Y02783452D03*
G54D11*
X07063759Y02801181D03*
G54D11*
X07650373Y02809842D03*
G54D11*
X07030688Y02814960D03*
G54D11*
X07714940Y02831890D03*
G54D11*
X07501229Y02836464D03*
G54D11*
X07529153D03*
G54D11*
X07317028Y02844244D03*
G54D11*
X07054035Y02882433D03*
G54D11*
X07651809Y02893441D03*
G54D11*
X07394420Y02907874D03*
G54D11*
X07059035Y02919685D03*
G54D11*
X07525176Y02929134D03*
G54D11*
X07721633Y02929161D03*
G54D11*
X07287325Y02932417D03*
G54D11*
X07107524Y02934476D03*
G54D11*
X07280017Y02945277D03*
G54D11*
X07058641Y02957086D03*
G54D11*
X07477129Y02957225D03*
G54D11*
X07296830Y02959055D03*
G54D10*
X08035413Y03393701D03*
G54D10*
X06657460Y03397638D03*
G54D10*
X07299192Y03409449D03*
G54D10*
X07602342Y03543307D03*
G54D10*
X06834625Y03618110D03*
G54D10*
X08048798Y03759055D03*
G54D10*
X07736200Y03842519D03*
G54D10*
X07283444Y03850394D03*
G54D10*
X06685019Y03948819D03*
G54D10*
X07197617Y04061417D03*
G54D10*
X07683838Y04061811D03*
G54D10*
X07165334Y04062205D03*
G54D10*
X07182263D03*
G54D10*
X07710609D03*
G54D10*
X07747617D03*
G54D10*
X07244076Y04062206D03*
G54D10*
X07371260Y04062449D03*
G54D10*
X07040531Y04062598D03*
G54D10*
X07599586D03*
G54D10*
X07411397Y04062992D03*
G54D10*
X07499586D03*
G54D10*
X07224783Y04063386D03*
G54D10*
X07015727Y04063779D03*
G54D10*
X07073995Y04070866D03*
G54D10*
X08043287D03*
G54D10*
X07256040Y04080139D03*
G54D10*
X06991318Y04082677D03*
G54D10*
X07752342D03*
G54D10*
X07012972Y04083071D03*
G54D10*
X07076751Y04085039D03*
G54D10*
X07142584Y04085380D03*
G54D10*
X07104016Y04090482D03*
G54D10*
X07305931Y04094048D03*
G54D10*
X07279113Y04094094D03*
G54D10*
X07661200Y04097882D03*
G54D10*
X07226114Y04102999D03*
G54D10*
X07643680Y04103937D03*
G54D10*
X07169271Y04106299D03*
G54D10*
X07074783Y04106693D03*
G54D10*
X07184231Y04107086D03*
G54D10*
X07297074Y04111531D03*
G54D10*
X07100767Y04112205D03*
G54D10*
X06991318Y04112598D03*
G54D10*
X07257265Y04114372D03*
G54D10*
X07688168Y04115354D03*
G54D10*
X07750767Y04115748D03*
G54D10*
X07501161Y04118653D03*
G54D10*
X07046136Y04126642D03*
G54D10*
X07102735Y04130315D03*
G54D10*
X07438956Y04131890D03*
G54D10*
X07142105Y04133858D03*
G54D10*
X07637775Y04141732D03*
G54D10*
X07179626Y04143033D03*
G54D10*
X07749979Y04144882D03*
G54D10*
X07708448Y04150169D03*
G54D10*
X07100070Y04151580D03*
G54D10*
X07024389Y04152756D03*
G54D10*
X07084625Y04153149D03*
G54D10*
X07521239D03*
G54D10*
X07575570D03*
G54D10*
X07590531Y04153543D03*
G54D10*
X07535806Y04153937D03*
G54D10*
X07551161D03*
G54D10*
X07153129Y04154331D03*
G54D10*
X07490137D03*
G54D10*
X07448636Y04155851D03*
G54D10*
X07508247Y04155905D03*
G54D10*
X07317671Y04161882D03*
G54D10*
X07668877Y04162992D03*
G54D10*
X07634231Y04165354D03*
G54D10*
X07234353Y04165650D03*
G54D10*
X07096857Y04169685D03*
G54D10*
X07135657Y04173150D03*
G54D10*
X07273281Y04173278D03*
G54D10*
X07158169Y04176394D03*
G54D10*
X07229113Y04177165D03*
G54D10*
X07023208Y04187008D03*
G54D10*
X07182701Y04190137D03*
G54D10*
X07286987Y04190551D03*
G54D10*
X07199019Y04190795D03*
G54D10*
X07218456Y04190945D03*
G54D10*
X07744861Y04192913D03*
G54D10*
X07260216Y04194882D03*
G54D10*
X07307066Y04195275D03*
G54D10*
X07139334Y04198796D03*
G54D10*
X07149586Y04202362D03*
G54D10*
X07261296Y04205857D03*
G54D10*
X07596436Y04206299D03*
G54D10*
X07012767Y04208662D03*
G54D10*
X07107066Y04212598D03*
G54D10*
X07222420Y04214567D03*
G54D10*
X07236200D03*
G54D10*
X07160098Y04215658D03*
G54D10*
X07704704Y04219685D03*
G54D10*
X07211397Y04220472D03*
G54D10*
X07597224D03*
G54D10*
X07200767Y04228346D03*
G54D10*
X07180294Y04229527D03*
G54D10*
X07595595Y04232867D03*
G54D10*
X07062578Y04234645D03*
G54D10*
X07712578Y04235039D03*
G54D10*
X07751948Y04239370D03*
G54D10*
X07064940Y04250394D03*
G54D10*
X07444861D03*
G54D10*
X07202342Y04252362D03*
G54D10*
X07225964Y04255118D03*
G54D10*
X07354310Y04255905D03*
G54D10*
X07150224Y04255935D03*
G54D10*
X07129507Y04258268D03*
G54D10*
X07750767Y04261811D03*
G54D10*
X07594025Y04264570D03*
G54D10*
X07109035Y04266535D03*
G54D10*
X07158641Y04267716D03*
G54D10*
X07299192D03*
G54D10*
X07181934Y04270180D03*
G54D10*
X07201161Y04270472D03*
G54D10*
X07147617Y04273228D03*
G54D10*
X07748405Y04274803D03*
G54D10*
X07061063Y04277432D03*
G54D10*
X07594861Y04278740D03*
G54D10*
X07129507Y04279527D03*
G54D10*
X07682994Y04280145D03*
G54D10*
X06991318Y04283071D03*
G54D10*
X07103916Y04284252D03*
G54D10*
X07409401Y04287401D03*
G54D10*
X07067220Y04289370D03*
G54D10*
X07162972D03*
G54D10*
X07182066D03*
G54D10*
X06709822Y04289764D03*
G54D10*
X07590137Y04290157D03*
G54D10*
X07200256Y04290717D03*
G54D10*
X07472814Y04299212D03*
G54D10*
X07543287D03*
G54D10*
X07573601Y04301968D03*
G54D10*
X07588562Y04302409D03*
G54D10*
X07531475Y04303149D03*
G54D10*
X07231082Y04305905D03*
G54D10*
X07507853Y04307086D03*
G54D10*
X07519664D03*
G54D10*
X07492221Y04307780D03*
G54D10*
X07201161Y04308268D03*
G54D10*
X07686200D03*
G54D10*
X07104338Y04309673D03*
G54D10*
X06991712Y04323622D03*
G54D10*
X07614546Y04327315D03*
G54D10*
X07629507D03*
G54D10*
X07231082Y04332677D03*
G54D10*
X07196286Y04332901D03*
G54D10*
X07690531Y04335827D03*
G54D10*
X07262985Y04339291D03*
G54D10*
X07154657Y04341385D03*
G54D10*
X07248129Y04342244D03*
G54D10*
X07583556Y04343791D03*
G54D10*
X07745058Y04344488D03*
G54D10*
X07299192Y04344882D03*
G54D10*
X07484231Y04345310D03*
G54D10*
X06990137Y04352362D03*
G54D10*
X07594074Y04352756D03*
G54D10*
X07019271Y04355287D03*
G54D10*
X07061397Y04358268D03*
G54D10*
X07409035Y04358642D03*
G54D10*
X07389743Y04360236D03*
G54D10*
X07361790Y04362992D03*
G54D10*
X07522420Y04375027D03*
G54D10*
X06990924Y04377559D03*
G54D10*
X07751554D03*
G54D10*
X07727145Y04378740D03*
G54D10*
X07702857Y04378934D03*
G54D10*
X07596804Y04378964D03*
G54D10*
X07664826D03*
G54D10*
X07358641Y04379527D03*
G54D10*
X08019664Y04413386D03*
G54D10*
X07641712Y04629921D03*
G54D10*
X07207853Y04635827D03*
G54D10*
X06799192Y04641732D03*
G54D10*
X08015727Y04685039D03*
G54D11*
X07645524Y04063642D03*
G54D11*
X07135806Y04070866D03*
G54D11*
X07334374Y04080145D03*
G54D11*
X07274783Y04080708D03*
G54D11*
X07368483Y04081890D03*
G54D11*
X07411093Y04098821D03*
G54D11*
X07013365Y04104724D03*
G54D11*
X07731279Y04108437D03*
G54D11*
X07058994Y04115224D03*
G54D11*
X07327014Y04145627D03*
G54D11*
X07126751Y04153937D03*
G54D11*
X07475570Y04187645D03*
G54D11*
X07510609Y04188827D03*
G54D11*
X07540140D03*
G54D11*
X07634625Y04191732D03*
G54D11*
X07059810Y04200775D03*
G54D11*
X07063759Y04218504D03*
G54D11*
X07650373Y04227165D03*
G54D11*
X07030688Y04232283D03*
G54D11*
X07714940Y04249212D03*
G54D11*
X07501229Y04253787D03*
G54D11*
X07529153D03*
G54D11*
X07317028Y04261567D03*
G54D11*
X07054035Y04299756D03*
G54D11*
X07651809Y04310763D03*
G54D11*
X07394420Y04325197D03*
G54D11*
X07059035Y04337008D03*
G54D11*
X07525176Y04346456D03*
G54D11*
X07721633Y04346484D03*
G54D11*
X07287325Y04349740D03*
G54D11*
X07107524Y04351799D03*
G54D11*
X07280017Y04362600D03*
G54D11*
X07058641Y04374409D03*
G54D11*
X07477129Y04374547D03*
G54D11*
X07296830Y04376378D03*
G54D10*
X08035413Y04811023D03*
G54D10*
X06657460Y04814960D03*
G54D10*
X07299192Y04826771D03*
G54D10*
X07602342Y04960630D03*
G54D10*
X06834625Y05035433D03*
G54D10*
X08048798Y05176378D03*
G54D10*
X07736200Y05259842D03*
G54D10*
X07283444Y05267716D03*
G54D10*
X06685019Y05366142D03*
G54D10*
X07197617Y05478740D03*
G54D10*
X07683838Y05479134D03*
G54D10*
X07165334Y05479527D03*
G54D10*
X07182263D03*
G54D10*
X07710609D03*
G54D10*
X07747617D03*
G54D10*
X07244076Y05479529D03*
G54D10*
X07371260Y05479771D03*
G54D10*
X07040531Y05479921D03*
G54D10*
X07599586D03*
G54D10*
X07411397Y05480315D03*
G54D10*
X07499586D03*
G54D10*
X07224783Y05480708D03*
G54D10*
X07015727Y05481102D03*
G54D10*
X07073995Y05488189D03*
G54D10*
X08043287D03*
G54D10*
X07256040Y05497462D03*
G54D10*
X06991318Y05500000D03*
G54D10*
X07752342D03*
G54D10*
X07012972Y05500394D03*
G54D10*
X07076751Y05502362D03*
G54D10*
X07142584Y05502703D03*
G54D10*
X07104016Y05507805D03*
G54D10*
X07305931Y05511371D03*
G54D10*
X07279113Y05511417D03*
G54D10*
X07661200Y05515205D03*
G54D10*
X07226114Y05520322D03*
G54D10*
X07643680Y05521260D03*
G54D10*
X07169271Y05523622D03*
G54D10*
X07074783Y05524016D03*
G54D10*
X07184231Y05524409D03*
G54D10*
X07297074Y05528854D03*
G54D10*
X07100767Y05529527D03*
G54D10*
X06991318Y05529921D03*
G54D10*
X07257265Y05531695D03*
G54D10*
X07688168Y05532677D03*
G54D10*
X07750767Y05533071D03*
G54D10*
X07501161Y05535976D03*
G54D10*
X07046136Y05543965D03*
G54D10*
X07102735Y05547638D03*
G54D10*
X07438956Y05549212D03*
G54D10*
X07142105Y05551181D03*
G54D10*
X07637775Y05559055D03*
G54D10*
X07179626Y05560355D03*
G54D10*
X07749979Y05562205D03*
G54D10*
X07708448Y05567492D03*
G54D10*
X07100070Y05568903D03*
G54D10*
X07024389Y05570079D03*
G54D10*
X07084625Y05570472D03*
G54D10*
X07521239D03*
G54D10*
X07575570D03*
G54D10*
X07590531Y05570866D03*
G54D10*
X07535806Y05571260D03*
G54D10*
X07551161D03*
G54D10*
X07153129Y05571653D03*
G54D10*
X07490137D03*
G54D10*
X07448636Y05573174D03*
G54D10*
X07508247Y05573228D03*
G54D10*
X07317671Y05579204D03*
G54D10*
X07668877Y05580315D03*
G54D10*
X07634231Y05582677D03*
G54D10*
X07234353Y05582973D03*
G54D10*
X07096857Y05587008D03*
G54D10*
X07135657Y05590473D03*
G54D10*
X07273281Y05590601D03*
G54D10*
X07158169Y05593717D03*
G54D10*
X07229113Y05594488D03*
G54D10*
X07023208Y05604331D03*
G54D10*
X07182701Y05607460D03*
G54D10*
X07286987Y05607874D03*
G54D10*
X07199019Y05608118D03*
G54D10*
X07218456Y05608268D03*
G54D10*
X07744861Y05610236D03*
G54D10*
X07260216Y05612205D03*
G54D10*
X07307066Y05612598D03*
G54D10*
X07139334Y05616119D03*
G54D10*
X07149586Y05619685D03*
G54D10*
X07261296Y05623180D03*
G54D10*
X07596436Y05623622D03*
G54D10*
X07012767Y05625985D03*
G54D10*
X07107066Y05629921D03*
G54D10*
X07222420Y05631890D03*
G54D10*
X07236200D03*
G54D10*
X07160098Y05632981D03*
G54D10*
X07704704Y05637008D03*
G54D10*
X07211397Y05637795D03*
G54D10*
X07597224D03*
G54D10*
X07200767Y05645669D03*
G54D10*
X07180294Y05646850D03*
G54D10*
X07595595Y05650189D03*
G54D10*
X07062578Y05651968D03*
G54D10*
X07712578Y05652362D03*
G54D10*
X07751948Y05656693D03*
G54D10*
X07064940Y05667716D03*
G54D10*
X07444861D03*
G54D10*
X07202342Y05669685D03*
G54D10*
X07225964Y05672441D03*
G54D10*
X07354310Y05673228D03*
G54D10*
X07150224Y05673258D03*
G54D10*
X07129507Y05675590D03*
G54D10*
X07750767Y05679134D03*
G54D10*
X07594025Y05681893D03*
G54D10*
X07109035Y05683858D03*
G54D10*
X07158641Y05685039D03*
G54D10*
X07299192D03*
G54D10*
X07181934Y05687503D03*
G54D10*
X07201161Y05687795D03*
G54D10*
X07147617Y05690551D03*
G54D10*
X07748405Y05692126D03*
G54D10*
X07061063Y05694755D03*
G54D10*
X07594861Y05696063D03*
G54D10*
X07129507Y05696850D03*
G54D10*
X07682994Y05697468D03*
G54D10*
X06991318Y05700394D03*
G54D10*
X07103916Y05701575D03*
G54D10*
X07409401Y05704724D03*
G54D10*
X07067220Y05706693D03*
G54D10*
X07162972D03*
G54D10*
X07182066D03*
G54D10*
X06709822Y05707086D03*
G54D10*
X07590137Y05707480D03*
G54D10*
X07200256Y05708039D03*
G54D10*
X07472814Y05716535D03*
G54D10*
X07543287D03*
G54D10*
X07573601Y05719291D03*
G54D10*
X07588562Y05719732D03*
G54D10*
X07531475Y05720472D03*
G54D10*
X07231082Y05723228D03*
G54D10*
X07507853Y05724409D03*
G54D10*
X07519664D03*
G54D10*
X07492221Y05725103D03*
G54D10*
X07201161Y05725590D03*
G54D10*
X07686200D03*
G54D10*
X07104338Y05726996D03*
G54D10*
X06991712Y05740945D03*
G54D10*
X07614546Y05744638D03*
G54D10*
X07629507D03*
G54D10*
X07231082Y05750000D03*
G54D10*
X07196286Y05750224D03*
G54D10*
X07690531Y05753149D03*
G54D10*
X07262985Y05756614D03*
G54D10*
X07154657Y05758708D03*
G54D10*
X07248129Y05759566D03*
G54D10*
X07583556Y05761114D03*
G54D10*
X07745058Y05761811D03*
G54D10*
X07299192Y05762205D03*
G54D10*
X07484231Y05762633D03*
G54D10*
X06990137Y05769685D03*
G54D10*
X07594074Y05770079D03*
G54D10*
X07019271Y05772610D03*
G54D10*
X07061397Y05775590D03*
G54D10*
X07409035Y05775965D03*
G54D10*
X07389743Y05777559D03*
G54D10*
X07361790Y05780315D03*
G54D10*
X07522420Y05792350D03*
G54D10*
X06990924Y05794882D03*
G54D10*
X07751554D03*
G54D10*
X07727145Y05796063D03*
G54D10*
X07702857Y05796257D03*
G54D10*
X07596804Y05796287D03*
G54D10*
X07664826D03*
G54D10*
X07358641Y05796850D03*
G54D10*
X08019664Y05830708D03*
G54D10*
X07641712Y06047244D03*
G54D10*
X07207853Y06053149D03*
G54D10*
X06799192Y06059055D03*
G54D10*
X08015727Y06102362D03*
G54D11*
X07645524Y05480965D03*
G54D11*
X07135806Y05488189D03*
G54D11*
X07334374Y05497468D03*
G54D11*
X07274783Y05498031D03*
G54D11*
X07368483Y05499212D03*
G54D11*
X07411093Y05516144D03*
G54D11*
X07013365Y05522047D03*
G54D11*
X07731279Y05525760D03*
G54D11*
X07058994Y05532547D03*
G54D11*
X07327014Y05562950D03*
G54D11*
X07126751Y05571260D03*
G54D11*
X07475570Y05604968D03*
G54D11*
X07510609Y05606149D03*
G54D11*
X07540140D03*
G54D11*
X07634625Y05609055D03*
G54D11*
X07059810Y05618098D03*
G54D11*
X07063759Y05635827D03*
G54D11*
X07650373Y05644488D03*
G54D11*
X07030688Y05649606D03*
G54D11*
X07714940Y05666535D03*
G54D11*
X07501229Y05671110D03*
G54D11*
X07529153D03*
G54D11*
X07317028Y05678890D03*
G54D11*
X07054035Y05717079D03*
G54D11*
X07651809Y05728086D03*
G54D11*
X07394420Y05742519D03*
G54D11*
X07059035Y05754331D03*
G54D11*
X07525176Y05763779D03*
G54D11*
X07721633Y05763807D03*
G54D11*
X07287325Y05767062D03*
G54D11*
X07107524Y05769122D03*
G54D11*
X07280017Y05779923D03*
G54D11*
X07058641Y05791732D03*
G54D11*
X07477129Y05791870D03*
G54D11*
X07296830Y05793701D03*
G54D10*
X08035413Y06228346D03*
G54D10*
X06657460Y06232283D03*
G54D10*
X07299192Y06244094D03*
G54D10*
X07602342Y06377953D03*
G54D10*
X06834625Y06452756D03*
G54D10*
X08048798Y06593701D03*
G54D10*
X07736200Y06677165D03*
G54D10*
X07283444Y06685039D03*
G54D10*
X06685019Y06783464D03*
G54D10*
X07197617Y06896063D03*
G54D10*
X07683838Y06896456D03*
G54D10*
X07165334Y06896850D03*
G54D10*
X07182263D03*
G54D10*
X07710609D03*
G54D10*
X07747617D03*
G54D10*
X07244076Y06896852D03*
G54D10*
X07371260Y06897094D03*
G54D10*
X07040531Y06897244D03*
G54D10*
X07599586D03*
G54D10*
X07411397Y06897638D03*
G54D10*
X07499586D03*
G54D10*
X07224783Y06898031D03*
G54D10*
X07015727Y06898425D03*
G54D10*
X07073995Y06905512D03*
G54D10*
X08043287D03*
G54D10*
X07256040Y06914784D03*
G54D10*
X06991318Y06917323D03*
G54D10*
X07752342D03*
G54D10*
X07012972Y06917716D03*
G54D10*
X07076751Y06919685D03*
G54D10*
X07142584Y06920026D03*
G54D10*
X07104016Y06925128D03*
G54D10*
X07305931Y06928694D03*
G54D10*
X07279113Y06928740D03*
G54D10*
X07661200Y06932527D03*
G54D10*
X07226114Y06937645D03*
G54D10*
X07643680Y06938582D03*
G54D10*
X07169271Y06940945D03*
G54D10*
X07074783Y06941338D03*
G54D10*
X07184231Y06941732D03*
G54D10*
X07297074Y06946177D03*
G54D10*
X07100767Y06946850D03*
G54D10*
X06991318Y06947244D03*
G54D10*
X07257265Y06949018D03*
G54D10*
X07688168Y06950000D03*
G54D10*
X07750767Y06950394D03*
G54D10*
X07501161Y06953299D03*
G54D10*
X07046136Y06961288D03*
G54D10*
X07102735Y06964960D03*
G54D10*
X07438956Y06966535D03*
G54D10*
X07142105Y06968504D03*
G54D10*
X07637775Y06976378D03*
G54D10*
X07179626Y06977678D03*
G54D10*
X07749979Y06979527D03*
G54D10*
X07708448Y06984815D03*
G54D10*
X07100070Y06986226D03*
G54D10*
X07024389Y06987401D03*
G54D10*
X07084625Y06987795D03*
G54D10*
X07521239D03*
G54D10*
X07575570D03*
G54D10*
X07590531Y06988189D03*
G54D10*
X07535806Y06988582D03*
G54D10*
X07551161D03*
G54D10*
X07153129Y06988976D03*
G54D10*
X07490137D03*
G54D10*
X07448636Y06990497D03*
G54D10*
X07508247Y06990551D03*
G54D10*
X07317671Y06996527D03*
G54D10*
X07668877Y06997638D03*
G54D10*
X07634231Y07000000D03*
G54D10*
X07234353Y07000296D03*
G54D10*
X07096857Y07004331D03*
G54D10*
X07135657Y07007796D03*
G54D10*
X07273281Y07007923D03*
G54D10*
X07158169Y07011040D03*
G54D10*
X07229113Y07011811D03*
G54D10*
X07023208Y07021653D03*
G54D10*
X07182701Y07024782D03*
G54D10*
X07286987Y07025197D03*
G54D10*
X07199019Y07025441D03*
G54D10*
X07218456Y07025590D03*
G54D10*
X07744861Y07027559D03*
G54D10*
X07260216Y07029527D03*
G54D10*
X07307066Y07029921D03*
G54D10*
X07139334Y07033442D03*
G54D10*
X07149586Y07037008D03*
G54D10*
X07261296Y07040503D03*
G54D10*
X07596436Y07040945D03*
G54D10*
X07012767Y07043308D03*
G54D10*
X07107066Y07047244D03*
G54D10*
X07222420Y07049212D03*
G54D10*
X07236200D03*
G54D10*
X07160098Y07050304D03*
G54D10*
X07704704Y07054331D03*
G54D10*
X07211397Y07055118D03*
G54D10*
X07597224D03*
G54D10*
X07200767Y07062992D03*
G54D10*
X07180294Y07064173D03*
G54D10*
X07595595Y07067512D03*
G54D10*
X07062578Y07069291D03*
G54D10*
X07712578Y07069685D03*
G54D10*
X07751948Y07074016D03*
G54D10*
X07064940Y07085039D03*
G54D10*
X07444861D03*
G54D10*
X07202342Y07087008D03*
G54D10*
X07225964Y07089764D03*
G54D10*
X07354310Y07090551D03*
G54D10*
X07150224Y07090581D03*
G54D10*
X07129507Y07092913D03*
G54D10*
X07750767Y07096456D03*
G54D10*
X07594025Y07099216D03*
G54D10*
X07109035Y07101181D03*
G54D10*
X07158641Y07102362D03*
G54D10*
X07299192D03*
G54D10*
X07181934Y07104825D03*
G54D10*
X07201161Y07105118D03*
G54D10*
X07147617Y07107874D03*
G54D10*
X07748405Y07109449D03*
G54D10*
X07061063Y07112078D03*
G54D10*
X07594861Y07113386D03*
G54D10*
X07129507Y07114173D03*
G54D10*
X07682994Y07114791D03*
G54D10*
X06991318Y07117716D03*
G54D10*
X07103916Y07118897D03*
G54D10*
X07409401Y07122047D03*
G54D10*
X07067220Y07124016D03*
G54D10*
X07162972D03*
G54D10*
X07182066D03*
G54D10*
X06709822Y07124409D03*
G54D10*
X07590137Y07124803D03*
G54D10*
X07200256Y07125362D03*
G54D10*
X07472814Y07133858D03*
G54D10*
X07543287D03*
G54D10*
X07573601Y07136614D03*
G54D10*
X07588562Y07137055D03*
G54D10*
X07531475Y07137795D03*
G54D10*
X07231082Y07140551D03*
G54D10*
X07507853Y07141732D03*
G54D10*
X07519664D03*
G54D10*
X07492221Y07142426D03*
G54D10*
X07201161Y07142913D03*
G54D10*
X07686200D03*
G54D10*
X07104338Y07144319D03*
G54D10*
X06991712Y07158268D03*
G54D10*
X07614546Y07161960D03*
G54D10*
X07629507D03*
G54D10*
X07231082Y07167323D03*
G54D10*
X07196286Y07167547D03*
G54D10*
X07690531Y07170472D03*
G54D10*
X07262985Y07173936D03*
G54D10*
X07154657Y07176031D03*
G54D10*
X07248129Y07176889D03*
G54D10*
X07583556Y07178437D03*
G54D10*
X07745058Y07179134D03*
G54D10*
X07299192Y07179527D03*
G54D10*
X07484231Y07179956D03*
G54D10*
X06990137Y07187008D03*
G54D10*
X07594074Y07187401D03*
G54D10*
X07019271Y07189933D03*
G54D10*
X07061397Y07192913D03*
G54D10*
X07409035Y07193288D03*
G54D10*
X07389743Y07194882D03*
G54D10*
X07361790Y07197638D03*
G54D10*
X07522420Y07209673D03*
G54D10*
X06990924Y07212205D03*
G54D10*
X07751554D03*
G54D10*
X07727145Y07213386D03*
G54D10*
X07702857Y07213580D03*
G54D10*
X07596804Y07213610D03*
G54D10*
X07664826D03*
G54D10*
X07358641Y07214173D03*
G54D10*
X08019664Y07248031D03*
G54D10*
X07641712Y07464567D03*
G54D10*
X07207853Y07470472D03*
G54D10*
X06799192Y07476378D03*
G54D10*
X08015727Y07519685D03*
G54D11*
X07645524Y06898288D03*
G54D11*
X07135806Y06905512D03*
G54D11*
X07334374Y06914791D03*
G54D11*
X07274783Y06915354D03*
G54D11*
X07368483Y06916535D03*
G54D11*
X07411093Y06933467D03*
G54D11*
X07013365Y06939370D03*
G54D11*
X07731279Y06943082D03*
G54D11*
X07058994Y06949870D03*
G54D11*
X07327014Y06980273D03*
G54D11*
X07126751Y06988582D03*
G54D11*
X07475570Y07022291D03*
G54D11*
X07510609Y07023472D03*
G54D11*
X07540140D03*
G54D11*
X07634625Y07026378D03*
G54D11*
X07059810Y07035421D03*
G54D11*
X07063759Y07053149D03*
G54D11*
X07650373Y07061811D03*
G54D11*
X07030688Y07066929D03*
G54D11*
X07714940Y07083858D03*
G54D11*
X07501229Y07088433D03*
G54D11*
X07529153D03*
G54D11*
X07317028Y07096212D03*
G54D11*
X07054035Y07134401D03*
G54D11*
X07651809Y07145409D03*
G54D11*
X07394420Y07159842D03*
G54D11*
X07059035Y07171653D03*
G54D11*
X07525176Y07181102D03*
G54D11*
X07721633Y07181130D03*
G54D11*
X07287325Y07184385D03*
G54D11*
X07107524Y07186445D03*
G54D11*
X07280017Y07197245D03*
G54D11*
X07058641Y07209055D03*
G54D11*
X07477129Y07209193D03*
G54D11*
X07296830Y07211023D03*
M02*
