%TF.GenerationSoftware,KiCad,Pcbnew,(6.0.0)*%
%TF.CreationDate,2022-12-06T16:55:36-05:00*%
%TF.ProjectId,headstage-64s,68656164-7374-4616-9765-2d3634732e6b,B*%
%TF.SameCoordinates,Original*%
%TF.FileFunction,Component,L1,Top*%
%TF.FilePolarity,Positive*%
%FSLAX46Y46*%
G04 Gerber Fmt 4.6, Leading zero omitted, Abs format (unit mm)*
G04 Created by KiCad (PCBNEW (6.0.0)) date 2022-12-06 16:55:36*
%MOMM*%
%LPD*%
G01*
G04 APERTURE LIST*
%TA.AperFunction,ComponentMain*%
%ADD10C,0.300000*%
%TD*%
%TA.AperFunction,ComponentOutline,Courtyard*%
%ADD11C,0.100000*%
%TD*%
%TA.AperFunction,ComponentPin*%
%ADD12P,0.360000X4X0.000000*%
%TD*%
%TA.AperFunction,ComponentPin*%
%ADD13C,0.000000*%
%TD*%
G04 APERTURE END LIST*
D10*
%TO.C,"J1"*%
%TO.CFtp,"Coax-Adapter"*%
%TO.CVal,"CONMHF4-SMD-G-T"*%
%TO.CLbN,"Headstage-64s"*%
%TO.CMnt,SMD*%
%TO.CRot,0*%
X123610000Y-61550000D03*
D11*
X125409999Y-62849999D02*
X121810001Y-62849999D01*
X121810001Y-60250001D01*
X125409999Y-60250001D01*
X125409999Y-62849999D01*
D12*
%TO.P,"J1","1","In"*%
X124510000Y-61550000D03*
D13*
%TO.P,"J1","2","Ext"*%
X122710000Y-61550000D03*
%TD*%
D10*
%TO.C,"D3"*%
%TO.CFtp,"OSRAM_SFH2400FA-Tight"*%
%TO.CVal,"SFH 2400 FA"*%
%TO.CLbN,"jonnew"*%
%TO.CMnt,SMD*%
%TO.CRot,0*%
X131700000Y-62100000D03*
D11*
X132999999Y-64899999D02*
X130400001Y-64899999D01*
X130400001Y-59400001D01*
X132999999Y-59400001D01*
X132999999Y-64899999D01*
D12*
%TO.P,"D3","1","K"*%
X131700000Y-60050000D03*
D13*
%TO.P,"D3","3","A"*%
X131050000Y-64200000D03*
%TO.P,"D3","2","C"*%
X132350000Y-64200000D03*
%TD*%
D10*
%TO.C,"D1"*%
%TO.CFtp,"OSRAM_SFH2400FA-Tight"*%
%TO.CVal,"SFH 2400 FA"*%
%TO.CLbN,"jonnew"*%
%TO.CMnt,SMD*%
%TO.CRot,0*%
X115300000Y-62100000D03*
D11*
X116599999Y-64899999D02*
X114000001Y-64899999D01*
X114000001Y-59400001D01*
X116599999Y-59400001D01*
X116599999Y-64899999D01*
D12*
%TO.P,"D1","1","K"*%
X115300000Y-60050000D03*
D13*
%TO.P,"D1","3","A"*%
X114650000Y-64200000D03*
%TO.P,"D1","2","C"*%
X115950000Y-64200000D03*
%TD*%
D10*
%TO.C,"C24"*%
%TO.CFtp,"C_0201_0603Metric"*%
%TO.CVal,"0.1uF"*%
%TO.CLbN,"Capacitor_SMD"*%
%TO.CMnt,SMD*%
%TO.CRot,0*%
X115900000Y-58900000D03*
D11*
X116599999Y-59249999D02*
X115200001Y-59249999D01*
X115200001Y-58550001D01*
X116599999Y-58550001D01*
X116599999Y-59249999D01*
D12*
%TO.P,"C24","1"*%
X115580000Y-58900000D03*
D13*
%TO.P,"C24","2"*%
X116220000Y-58900000D03*
%TD*%
D10*
%TO.C,"L7"*%
%TO.CFtp,"L_0402_1005Metric"*%
%TO.CVal,"BLM15AX102SN1D"*%
%TO.CLbN,"Inductor_SMD"*%
%TO.CMnt,SMD*%
%TO.CRot,90*%
X127150000Y-61225000D03*
D11*
X127619999Y-62154999D02*
X126680001Y-62154999D01*
X126680001Y-60295001D01*
X127619999Y-60295001D01*
X127619999Y-62154999D01*
D12*
%TO.P,"L7","1","1"*%
X127150000Y-61710000D03*
D13*
%TO.P,"L7","2","2"*%
X127150000Y-60740000D03*
%TD*%
D10*
%TO.C,"L2"*%
%TO.CFtp,"L_0402_1005Metric"*%
%TO.CVal,"BLM15AX102SN1D"*%
%TO.CLbN,"Inductor_SMD"*%
%TO.CMnt,SMD*%
%TO.CRot,180*%
X123885000Y-67300000D03*
D11*
X124814999Y-67769999D02*
X122955001Y-67769999D01*
X122955001Y-66830001D01*
X124814999Y-66830001D01*
X124814999Y-67769999D01*
D12*
%TO.P,"L2","1","1"*%
X124370000Y-67300000D03*
D13*
%TO.P,"L2","2","2"*%
X123400000Y-67300000D03*
%TD*%
D10*
%TO.C,"L1"*%
%TO.CFtp,"L_0402_1005Metric"*%
%TO.CVal,"BLM15AX102SN1D"*%
%TO.CLbN,"Inductor_SMD"*%
%TO.CMnt,SMD*%
%TO.CRot,180*%
X123900000Y-68400000D03*
D11*
X124829999Y-68869999D02*
X122970001Y-68869999D01*
X122970001Y-67930001D01*
X124829999Y-67930001D01*
X124829999Y-68869999D01*
D12*
%TO.P,"L1","1","1"*%
X124385000Y-68400000D03*
D13*
%TO.P,"L1","2","2"*%
X123415000Y-68400000D03*
%TD*%
D10*
%TO.C,"R16"*%
%TO.CFtp,"R_0201_0603Metric"*%
%TO.CVal,"15k"*%
%TO.CLbN,"Resistor_SMD"*%
%TO.CMnt,SMD*%
%TO.CRot,-90*%
X116475000Y-57700000D03*
D11*
X116824999Y-58399999D02*
X116125001Y-58399999D01*
X116125001Y-57000001D01*
X116824999Y-57000001D01*
X116824999Y-58399999D01*
D12*
%TO.P,"R16","1"*%
X116475000Y-57380000D03*
D13*
%TO.P,"R16","2"*%
X116475000Y-58020000D03*
%TD*%
D10*
%TO.C,"C41"*%
%TO.CFtp,"C_0201_0603Metric"*%
%TO.CVal,"1uF"*%
%TO.CLbN,"Capacitor_SMD"*%
%TO.CMnt,SMD*%
%TO.CRot,180*%
X117330000Y-56550000D03*
D11*
X118029999Y-56899999D02*
X116630001Y-56899999D01*
X116630001Y-56200001D01*
X118029999Y-56200001D01*
X118029999Y-56899999D01*
D12*
%TO.P,"C41","1"*%
X117650000Y-56550000D03*
D13*
%TO.P,"C41","2"*%
X117010000Y-56550000D03*
%TD*%
D10*
%TO.C,"SW1"*%
%TO.CFtp,"MITSUMI_R-668049"*%
%TO.CVal,"R-668049"*%
%TO.CLbN,"jonnew"*%
%TO.CMnt,SMD*%
%TO.CRot,90*%
X127400000Y-57200000D03*
D11*
X128324999Y-59024999D02*
X126475001Y-59024999D01*
X126475001Y-55375001D01*
X128324999Y-55375001D01*
X128324999Y-59024999D01*
D12*
%TO.P,"SW1","1","1"*%
X127775000Y-58525000D03*
X127025000Y-58525000D03*
D13*
%TO.P,"SW1","2","2"*%
X127025000Y-55875000D03*
X127775000Y-55875000D03*
%TD*%
D10*
%TO.C,"C27"*%
%TO.CFtp,"C_0201_0603Metric"*%
%TO.CVal,"1uF"*%
%TO.CLbN,"Capacitor_SMD"*%
%TO.CMnt,SMD*%
%TO.CRot,180*%
X115700000Y-65300000D03*
D11*
X116399999Y-65649999D02*
X115000001Y-65649999D01*
X115000001Y-64950001D01*
X116399999Y-64950001D01*
X116399999Y-65649999D01*
D12*
%TO.P,"C27","1"*%
X116020000Y-65300000D03*
D13*
%TO.P,"C27","2"*%
X115380000Y-65300000D03*
%TD*%
D10*
%TO.C,"U8"*%
%TO.CFtp,"LATTICE_ufcBGA64C40P8X8_3.5X3.5X1.0"*%
%TO.CVal,"LIF-MD6000-6UMG64I"*%
%TO.CLbN,"jonnew"*%
%TO.CMnt,SMD*%
%TO.CRot,180*%
X122700000Y-57200000D03*
D11*
X124649999Y-59149999D02*
X120750001Y-59149999D01*
X120750001Y-55250001D01*
X124649999Y-55250001D01*
X124649999Y-59149999D01*
D12*
%TO.P,"U8","A1","DPHY1_CKP"*%
X124100000Y-58600000D03*
D13*
%TO.P,"U8","A2","DPHY1_CKN"*%
X123700000Y-58600000D03*
%TO.P,"U8","A3","DPHY1_DP3"*%
X123300000Y-58600000D03*
%TO.P,"U8","A4","DPHY1_DN3"*%
X122900000Y-58600000D03*
%TO.P,"U8","A5","DPHY0_DN2"*%
X122500000Y-58600000D03*
%TO.P,"U8","A6","DPHY0_DP0"*%
X122100000Y-58600000D03*
%TO.P,"U8","A7","DPHY0_CKP"*%
X121700000Y-58600000D03*
%TO.P,"U8","A8","DPHY0_CKN"*%
X121300000Y-58600000D03*
%TO.P,"U8","B1","DPHY1_DP2"*%
X124100000Y-58200000D03*
%TO.P,"U8","B2","DPHY1_DN2"*%
X123700000Y-58200000D03*
%TO.P,"U8","B3","DPHY1_DP1"*%
X123300000Y-58200000D03*
%TO.P,"U8","B4","DPHY1_DN1"*%
X122900000Y-58200000D03*
%TO.P,"U8","B5","DPHY0_DP2"*%
X122500000Y-58200000D03*
%TO.P,"U8","B6","DPHY0_DN0"*%
X122100000Y-58200000D03*
%TO.P,"U8","B7","DPHY0_DP3"*%
X121700000Y-58200000D03*
%TO.P,"U8","B8","DPHY0_DN3"*%
X121300000Y-58200000D03*
%TO.P,"U8","C1","DPHY1_DP0"*%
X124100000Y-57800000D03*
%TO.P,"U8","C2","DPHY1_DN0"*%
X123700000Y-57800000D03*
%TO.P,"U8","C3","PCLKT0_0/USER_SDA/PB47"*%
X123300000Y-57800000D03*
%TO.P,"U8","C4","VCCPLL_DPHYx_"*%
X122900000Y-57800000D03*
%TO.P,"U8","C5","VCCA_DPHYx"*%
X122500000Y-57800000D03*
%TO.P,"U8","C6","GNDA_DPHYx"*%
X122100000Y-57800000D03*
%TO.P,"U8","C7","DPHY0_DP1"*%
X121700000Y-57800000D03*
%TO.P,"U8","C8","DPHY0_DN1"*%
X121300000Y-57800000D03*
%TO.P,"U8","D1","PB34B"*%
X124100000Y-57400000D03*
%TO.P,"U8","D2","GR_PCLK1_0/PB34A"*%
X123700000Y-57400000D03*
%TO.P,"U8","D3","SPI_SS/CSN/SCL/PB52"*%
X123300000Y-57400000D03*
%TO.P,"U8","D4","GND"*%
X122900000Y-57400000D03*
%TO.P,"U8","D5","VCC"*%
X122500000Y-57400000D03*
%TO.P,"U8","D6","VCCAUX"*%
X122100000Y-57400000D03*
%TO.P,"U8","D7","PCLKT2_0_/PB16A"*%
X121700000Y-57400000D03*
%TO.P,"U8","D8","GPLLT2_0/PB12A"*%
X121300000Y-57400000D03*
%TO.P,"U8","E1","MISO/PB51"*%
X124100000Y-57000000D03*
%TO.P,"U8","E2","CRESET_B"*%
X123700000Y-57000000D03*
%TO.P,"U8","E3","PCLKT0_1/USER_SCL/PB48"*%
X123300000Y-57000000D03*
%TO.P,"U8","E4","VCC"*%
X122900000Y-57000000D03*
%TO.P,"U8","E5","GND"*%
X122500000Y-57000000D03*
%TO.P,"U8","E6","VCCIO2"*%
X122100000Y-57000000D03*
%TO.P,"U8","E7","PCLKC2_0_/PB16B"*%
X121700000Y-57000000D03*
%TO.P,"U8","E8","GPLLC2_0/PB12B"*%
X121300000Y-57000000D03*
%TO.P,"U8","F1","SPI_SCK/MCK/SDA/PB53"*%
X124100000Y-56600000D03*
%TO.P,"U8","F2","MOSI/PB50"*%
X123700000Y-56600000D03*
%TO.P,"U8","F3","VCCIO0"*%
X123300000Y-56600000D03*
%TO.P,"U8","F4","VCCIO1"*%
X122900000Y-56600000D03*
%TO.P,"U8","F5","GND"*%
X122500000Y-56600000D03*
%TO.P,"U8","F6","VCCIO2"*%
X122100000Y-56600000D03*
%TO.P,"U8","F7","GR_PCLK2_0_/PB6A"*%
X121700000Y-56600000D03*
%TO.P,"U8","F8","PB6B"*%
X121300000Y-56600000D03*
%TO.P,"U8","G1","PB38D"*%
X124100000Y-56200000D03*
%TO.P,"U8","G2","PB38C"*%
X123700000Y-56200000D03*
%TO.P,"U8","G3","PMU_WKUPN/CDONE/PB49"*%
X123300000Y-56200000D03*
%TO.P,"U8","G4","VCCGPLL"*%
X122900000Y-56200000D03*
%TO.P,"U8","G5","PCLKC1_0/PB29B"*%
X122500000Y-56200000D03*
%TO.P,"U8","G6","PCLKT1_0/PB29A"*%
X122100000Y-56200000D03*
%TO.P,"U8","G7","MIPI_CLKC2_0/PB2D"*%
X121700000Y-56200000D03*
%TO.P,"U8","G8","MIPI_CLKT2_0/PB2C"*%
X121300000Y-56200000D03*
%TO.P,"U8","H1","MIPI_CLKC1_0/PB34D"*%
X124100000Y-55800000D03*
%TO.P,"U8","H2","MIPI_CLKT1_0/PB34C"*%
X123700000Y-55800000D03*
%TO.P,"U8","H3","PCLKT1_1/PB29C"*%
X123300000Y-55800000D03*
%TO.P,"U8","H4","PCLKC1_1/PB29D"*%
X122900000Y-55800000D03*
%TO.P,"U8","H5","PCLKC2_1/PB16D"*%
X122500000Y-55800000D03*
%TO.P,"U8","H6","PCLKT2_1/PB16C"*%
X122100000Y-55800000D03*
%TO.P,"U8","H7","PB12D"*%
X121700000Y-55800000D03*
%TO.P,"U8","H8","PB12C"*%
X121300000Y-55800000D03*
%TD*%
D10*
%TO.C,"R15"*%
%TO.CFtp,"R_0201_0603Metric"*%
%TO.CVal,"49.9"*%
%TO.CLbN,"Resistor_SMD"*%
%TO.CMnt,SMD*%
%TO.CRot,90*%
X126070000Y-61450000D03*
D11*
X126419999Y-62149999D02*
X125720001Y-62149999D01*
X125720001Y-60750001D01*
X126419999Y-60750001D01*
X126419999Y-62149999D01*
D12*
%TO.P,"R15","1"*%
X126070000Y-61770000D03*
D13*
%TO.P,"R15","2"*%
X126070000Y-61130000D03*
%TD*%
D10*
%TO.C,"D2"*%
%TO.CFtp,"ROHM_SML-P11MTT86R"*%
%TO.CVal,"SML-P11UTT86R"*%
%TO.CLbN,"jonnew"*%
%TO.CMnt,SMD*%
%TO.CRot,-90*%
X125600000Y-58100000D03*
D11*
X125999999Y-58899999D02*
X125200001Y-58899999D01*
X125200001Y-57300001D01*
X125999999Y-57300001D01*
X125999999Y-58899999D01*
D12*
%TO.P,"D2","1","K"*%
X125600000Y-57650000D03*
D13*
%TO.P,"D2","2","A"*%
X125600000Y-58550000D03*
%TD*%
D10*
%TO.C,"U7"*%
%TO.CFtp,"TI_RHB0032P"*%
%TO.CVal,"DS90UB953A-Q1"*%
%TO.CLbN,"jonnew"*%
%TO.CMnt,SMD*%
%TO.CRot,180*%
X127700000Y-67100000D03*
D11*
X130499999Y-69899999D02*
X124900001Y-69899999D01*
X124900001Y-64300001D01*
X130499999Y-64300001D01*
X130499999Y-69899999D01*
D12*
%TO.P,"U7","1","CSI_D1P"*%
X130100000Y-68849999D03*
D13*
%TO.P,"U7","33","DAP(GND)"*%
X127700000Y-67100000D03*
%TO.P,"U7","32","CSI_D2N"*%
X129449999Y-69500000D03*
%TO.P,"U7","31","CSI_D2P"*%
X128950000Y-69500000D03*
%TO.P,"U7","30","CSI_D3N"*%
X128450001Y-69500000D03*
%TO.P,"U7","29","CSI_D3P"*%
X127950000Y-69500000D03*
%TO.P,"U7","28","GPIO_3"*%
X127450000Y-69500000D03*
%TO.P,"U7","27","GPIO_2"*%
X126950002Y-69500000D03*
%TO.P,"U7","26","VDDD_CAP"*%
X126450000Y-69500000D03*
%TO.P,"U7","25","VDDD"*%
X125950001Y-69500000D03*
%TO.P,"U7","24","SCL"*%
X125300000Y-68849999D03*
%TO.P,"U7","23","SDA"*%
X125300000Y-68350000D03*
%TO.P,"U7","22","RES1"*%
X125300000Y-67850001D03*
%TO.P,"U7","21","MODE"*%
X125300000Y-67350000D03*
%TO.P,"U7","20","CLKIN"*%
X125300000Y-66850000D03*
%TO.P,"U7","19","CLK_OUT/IDX"*%
X125300000Y-66350002D03*
%TO.P,"U7","18","GPIO_1"*%
X125300000Y-65850000D03*
%TO.P,"U7","17","GPIO_0"*%
X125300000Y-65350001D03*
%TO.P,"U7","16","VDDDRV"*%
X125950001Y-64700000D03*
%TO.P,"U7","15","VDDDRV_CAP"*%
X126450000Y-64700000D03*
%TO.P,"U7","14","DOUT+"*%
X126950002Y-64700000D03*
%TO.P,"U7","13","DOUT-"*%
X127450000Y-64700000D03*
%TO.P,"U7","12","LPF2"*%
X127950000Y-64700000D03*
%TO.P,"U7","11","VDDPLL"*%
X128450001Y-64700000D03*
%TO.P,"U7","10","VDDPLL_CAP"*%
X128950000Y-64700000D03*
%TO.P,"U7","9","LPF1"*%
X129449999Y-64700000D03*
%TO.P,"U7","8","PDB"*%
X130100000Y-65350001D03*
%TO.P,"U7","7","RES0"*%
X130100000Y-65850000D03*
%TO.P,"U7","6","CSI_CLKN"*%
X130100000Y-66350002D03*
%TO.P,"U7","5","CSI_CLKP"*%
X130100000Y-66850000D03*
%TO.P,"U7","4","CSI_D0N"*%
X130100000Y-67350000D03*
%TO.P,"U7","3","CSI_D0P"*%
X130100000Y-67850001D03*
%TO.P,"U7","2","CSI_D1N"*%
X130100000Y-68350000D03*
%TD*%
D10*
%TO.C,"J3"*%
%TO.CFtp,"IDC-Header_2x05_P2.54mm_Vertical"*%
%TO.CVal,"SBH11-PBPC-D05-ST-BK"*%
%TO.CLbN,"Connector_IDC"*%
%TO.CMnt,TH*%
%TO.CRot,-90*%
X128580000Y-38247500D03*
D11*
X134179999Y-44467499D02*
X112820001Y-44467499D01*
X112820001Y-34567501D01*
X134179999Y-34567501D01*
X134179999Y-44467499D01*
D12*
%TO.P,"J3","1","Pin_1"*%
X128580000Y-38247500D03*
D13*
%TO.P,"J3","2","Pin_2"*%
X128580000Y-40787500D03*
%TO.P,"J3","3","Pin_3"*%
X126040000Y-38247500D03*
%TO.P,"J3","4","Pin_4"*%
X126040000Y-40787500D03*
%TO.P,"J3","5","Pin_5"*%
X123500000Y-38247500D03*
%TO.P,"J3","6","Pin_6"*%
X123500000Y-40787500D03*
%TO.P,"J3","7","Pin_7"*%
X120960000Y-38247500D03*
%TO.P,"J3","8","Pin_8"*%
X120960000Y-40787500D03*
%TO.P,"J3","9","Pin_9"*%
X118420000Y-38247500D03*
%TO.P,"J3","10","Pin_10"*%
X118420000Y-40787500D03*
%TD*%
D10*
%TO.C,"C29"*%
%TO.CFtp,"C_0201_0603Metric"*%
%TO.CVal,"1uF"*%
%TO.CLbN,"Capacitor_SMD"*%
%TO.CMnt,SMD*%
%TO.CRot,-90*%
X115900000Y-67400000D03*
D11*
X116249999Y-68099999D02*
X115550001Y-68099999D01*
X115550001Y-66700001D01*
X116249999Y-66700001D01*
X116249999Y-68099999D01*
D12*
%TO.P,"C29","1"*%
X115900000Y-67080000D03*
D13*
%TO.P,"C29","2"*%
X115900000Y-67720000D03*
%TD*%
D10*
%TO.C,"C40"*%
%TO.CFtp,"C_0201_0603Metric"*%
%TO.CVal,"1uF"*%
%TO.CLbN,"Capacitor_SMD"*%
%TO.CMnt,SMD*%
%TO.CRot,-90*%
X120275000Y-57325000D03*
D11*
X120624999Y-58024999D02*
X119925001Y-58024999D01*
X119925001Y-56625001D01*
X120624999Y-56625001D01*
X120624999Y-58024999D01*
D12*
%TO.P,"C40","1"*%
X120275000Y-57005000D03*
D13*
%TO.P,"C40","2"*%
X120275000Y-57645000D03*
%TD*%
D10*
%TO.C,"C20"*%
%TO.CFtp,"C_0201_0603Metric"*%
%TO.CVal,"0.1uF"*%
%TO.CLbN,"Capacitor_SMD"*%
%TO.CMnt,SMD*%
%TO.CRot,90*%
X118025000Y-69825000D03*
D11*
X118374999Y-70524999D02*
X117675001Y-70524999D01*
X117675001Y-69125001D01*
X118374999Y-69125001D01*
X118374999Y-70524999D01*
D12*
%TO.P,"C20","1"*%
X118025000Y-70145000D03*
D13*
%TO.P,"C20","2"*%
X118025000Y-69505000D03*
%TD*%
D10*
%TO.C,"R25"*%
%TO.CFtp,"R_0201_0603Metric"*%
%TO.CVal,"1k"*%
%TO.CLbN,"Resistor_SMD"*%
%TO.CMnt,SMD*%
%TO.CRot,90*%
X125100000Y-56300000D03*
D11*
X125449999Y-56999999D02*
X124750001Y-56999999D01*
X124750001Y-55600001D01*
X125449999Y-55600001D01*
X125449999Y-56999999D01*
D12*
%TO.P,"R25","1"*%
X125100000Y-56620000D03*
D13*
%TO.P,"R25","2"*%
X125100000Y-55980000D03*
%TD*%
D10*
%TO.C,"C34"*%
%TO.CFtp,"C_0402_1005Metric"*%
%TO.CVal,"1uF"*%
%TO.CLbN,"Capacitor_SMD"*%
%TO.CMnt,SMD*%
%TO.CRot,180*%
X123875000Y-66325000D03*
D11*
X124784999Y-66784999D02*
X122965001Y-66784999D01*
X122965001Y-65865001D01*
X124784999Y-65865001D01*
X124784999Y-66784999D01*
D12*
%TO.P,"C34","1"*%
X124355000Y-66325000D03*
D13*
%TO.P,"C34","2"*%
X123395000Y-66325000D03*
%TD*%
D10*
%TO.C,"R7"*%
%TO.CFtp,"R_0201_0603Metric"*%
%TO.CVal,"2k"*%
%TO.CLbN,"Resistor_SMD"*%
%TO.CMnt,SMD*%
%TO.CRot,-90*%
X119100000Y-64025000D03*
D11*
X119449999Y-64724999D02*
X118750001Y-64724999D01*
X118750001Y-63325001D01*
X119449999Y-63325001D01*
X119449999Y-64724999D01*
D12*
%TO.P,"R7","1"*%
X119100000Y-63705000D03*
D13*
%TO.P,"R7","2"*%
X119100000Y-64345000D03*
%TD*%
D10*
%TO.C,"R8"*%
%TO.CFtp,"R_0201_0603Metric"*%
%TO.CVal,"2k"*%
%TO.CLbN,"Resistor_SMD"*%
%TO.CMnt,SMD*%
%TO.CRot,0*%
X122800000Y-63300000D03*
D11*
X123499999Y-63649999D02*
X122100001Y-63649999D01*
X122100001Y-62950001D01*
X123499999Y-62950001D01*
X123499999Y-63649999D01*
D12*
%TO.P,"R8","1"*%
X122480000Y-63300000D03*
D13*
%TO.P,"R8","2"*%
X123120000Y-63300000D03*
%TD*%
D10*
%TO.C,"R20"*%
%TO.CFtp,"R_0201_0603Metric"*%
%TO.CVal,"4.7k"*%
%TO.CLbN,"Resistor_SMD"*%
%TO.CMnt,SMD*%
%TO.CRot,-90*%
X125900000Y-56300000D03*
D11*
X126249999Y-56999999D02*
X125550001Y-56999999D01*
X125550001Y-55600001D01*
X126249999Y-55600001D01*
X126249999Y-56999999D01*
D12*
%TO.P,"R20","1"*%
X125900000Y-55980000D03*
D13*
%TO.P,"R20","2"*%
X125900000Y-56620000D03*
%TD*%
D10*
%TO.C,"C8"*%
%TO.CFtp,"C_0201_0603Metric"*%
%TO.CVal,"10nF"*%
%TO.CLbN,"Capacitor_SMD"*%
%TO.CMnt,SMD*%
%TO.CRot,90*%
X124300000Y-63600000D03*
D11*
X124649999Y-64299999D02*
X123950001Y-64299999D01*
X123950001Y-62900001D01*
X124649999Y-62900001D01*
X124649999Y-64299999D01*
D12*
%TO.P,"C8","1"*%
X124300000Y-63920000D03*
D13*
%TO.P,"C8","2"*%
X124300000Y-63280000D03*
%TD*%
D10*
%TO.C,"C14"*%
%TO.CFtp,"C_0201_0603Metric"*%
%TO.CVal,"10nF"*%
%TO.CLbN,"Capacitor_SMD"*%
%TO.CMnt,SMD*%
%TO.CRot,180*%
X123930000Y-70275000D03*
D11*
X124629999Y-70624999D02*
X123230001Y-70624999D01*
X123230001Y-69925001D01*
X124629999Y-69925001D01*
X124629999Y-70624999D01*
D12*
%TO.P,"C14","1"*%
X124250000Y-70275000D03*
D13*
%TO.P,"C14","2"*%
X123610000Y-70275000D03*
%TD*%
D10*
%TO.C,"R11"*%
%TO.CFtp,"R_0201_0603Metric"*%
%TO.CVal,"4.7k"*%
%TO.CLbN,"Resistor_SMD"*%
%TO.CMnt,SMD*%
%TO.CRot,0*%
X117725000Y-65325000D03*
D11*
X118424999Y-65674999D02*
X117025001Y-65674999D01*
X117025001Y-64975001D01*
X118424999Y-64975001D01*
X118424999Y-65674999D01*
D12*
%TO.P,"R11","1"*%
X117405000Y-65325000D03*
D13*
%TO.P,"R11","2"*%
X118045000Y-65325000D03*
%TD*%
D10*
%TO.C,"C12"*%
%TO.CFtp,"C_0402_1005Metric"*%
%TO.CVal,"0.1uF"*%
%TO.CLbN,"Capacitor_SMD"*%
%TO.CMnt,SMD*%
%TO.CRot,90*%
X125830000Y-63120000D03*
D11*
X126289999Y-64029999D02*
X125370001Y-64029999D01*
X125370001Y-62210001D01*
X126289999Y-62210001D01*
X126289999Y-64029999D01*
D12*
%TO.P,"C12","1"*%
X125830000Y-63600000D03*
D13*
%TO.P,"C12","2"*%
X125830000Y-62640000D03*
%TD*%
D10*
%TO.C,"R5"*%
%TO.CFtp,"R_0201_0603Metric"*%
%TO.CVal,"?"*%
%TO.CLbN,"Resistor_SMD"*%
%TO.CMnt,SMD*%
%TO.CRot,90*%
X127375000Y-70650000D03*
D11*
X127724999Y-71349999D02*
X127025001Y-71349999D01*
X127025001Y-69950001D01*
X127724999Y-69950001D01*
X127724999Y-71349999D01*
D12*
%TO.P,"R5","1"*%
X127375000Y-70970000D03*
D13*
%TO.P,"R5","2"*%
X127375000Y-70330000D03*
%TD*%
D10*
%TO.C,"C16"*%
%TO.CFtp,"C_0201_0603Metric"*%
%TO.CVal,"10nF"*%
%TO.CLbN,"Capacitor_SMD"*%
%TO.CMnt,SMD*%
%TO.CRot,90*%
X128275000Y-63500000D03*
D11*
X128624999Y-64199999D02*
X127925001Y-64199999D01*
X127925001Y-62800001D01*
X128624999Y-62800001D01*
X128624999Y-64199999D01*
D12*
%TO.P,"C16","1"*%
X128275000Y-63820000D03*
D13*
%TO.P,"C16","2"*%
X128275000Y-63180000D03*
%TD*%
D10*
%TO.C,"C17"*%
%TO.CFtp,"C_0402_1005Metric"*%
%TO.CVal,"1uF"*%
%TO.CLbN,"Capacitor_SMD"*%
%TO.CMnt,SMD*%
%TO.CRot,180*%
X123900000Y-69400000D03*
D11*
X124809999Y-69859999D02*
X122990001Y-69859999D01*
X122990001Y-68940001D01*
X124809999Y-68940001D01*
X124809999Y-69859999D01*
D12*
%TO.P,"C17","1"*%
X124380000Y-69400000D03*
D13*
%TO.P,"C17","2"*%
X123420000Y-69400000D03*
%TD*%
D10*
%TO.C,"C4"*%
%TO.CFtp,"C_0201_0603Metric"*%
%TO.CVal,"0.1uF"*%
%TO.CLbN,"Capacitor_SMD"*%
%TO.CMnt,SMD*%
%TO.CRot,-90*%
X126625000Y-70650000D03*
D11*
X126974999Y-71349999D02*
X126275001Y-71349999D01*
X126275001Y-69950001D01*
X126974999Y-69950001D01*
X126974999Y-71349999D01*
D12*
%TO.P,"C4","1"*%
X126625000Y-70330000D03*
D13*
%TO.P,"C4","2"*%
X126625000Y-70970000D03*
%TD*%
D10*
%TO.C,"C7"*%
%TO.CFtp,"C_0201_0603Metric"*%
%TO.CVal,"10nF"*%
%TO.CLbN,"Capacitor_SMD"*%
%TO.CMnt,SMD*%
%TO.CRot,180*%
X125425000Y-70275000D03*
D11*
X126124999Y-70624999D02*
X124725001Y-70624999D01*
X124725001Y-69925001D01*
X126124999Y-69925001D01*
X126124999Y-70624999D01*
D12*
%TO.P,"C7","1"*%
X125745000Y-70275000D03*
D13*
%TO.P,"C7","2"*%
X125105000Y-70275000D03*
%TD*%
D10*
%TO.C,"C37"*%
%TO.CFtp,"C_0201_0603Metric"*%
%TO.CVal,"1uF"*%
%TO.CLbN,"Capacitor_SMD"*%
%TO.CMnt,SMD*%
%TO.CRot,90*%
X120300000Y-55050000D03*
D11*
X120649999Y-55749999D02*
X119950001Y-55749999D01*
X119950001Y-54350001D01*
X120649999Y-54350001D01*
X120649999Y-55749999D01*
D12*
%TO.P,"C37","1"*%
X120300000Y-55370000D03*
D13*
%TO.P,"C37","2"*%
X120300000Y-54730000D03*
%TD*%
D10*
%TO.C,"C26"*%
%TO.CFtp,"C_0201_0603Metric"*%
%TO.CVal,"0.1uF"*%
%TO.CLbN,"Capacitor_SMD"*%
%TO.CMnt,SMD*%
%TO.CRot,0*%
X130500000Y-57850000D03*
D11*
X131199999Y-58199999D02*
X129800001Y-58199999D01*
X129800001Y-57500001D01*
X131199999Y-57500001D01*
X131199999Y-58199999D01*
D12*
%TO.P,"C26","1"*%
X130180000Y-57850000D03*
D13*
%TO.P,"C26","2"*%
X130820000Y-57850000D03*
%TD*%
D10*
%TO.C,"L3"*%
%TO.CFtp,"L_1210_3225Metric"*%
%TO.CVal,"CBC3225T101MR"*%
%TO.CLbN,"Inductor_SMD"*%
%TO.CMnt,SMD*%
%TO.CRot,0*%
X119530000Y-61720000D03*
D11*
X121809999Y-63299999D02*
X117250001Y-63299999D01*
X117250001Y-60140001D01*
X121809999Y-60140001D01*
X121809999Y-63299999D01*
D12*
%TO.P,"L3","1","1"*%
X118130000Y-61720000D03*
D13*
%TO.P,"L3","2","2"*%
X120930000Y-61720000D03*
%TD*%
D10*
%TO.C,"C2"*%
%TO.CFtp,"C_0402_1005Metric"*%
%TO.CVal,"10uF"*%
%TO.CLbN,"Capacitor_SMD"*%
%TO.CMnt,SMD*%
%TO.CRot,-90*%
X123500000Y-64800000D03*
D11*
X123959999Y-65709999D02*
X123040001Y-65709999D01*
X123040001Y-63890001D01*
X123959999Y-63890001D01*
X123959999Y-65709999D01*
D12*
%TO.P,"C2","1"*%
X123500000Y-64320000D03*
D13*
%TO.P,"C2","2"*%
X123500000Y-65280000D03*
%TD*%
D10*
%TO.C,"C1"*%
%TO.CFtp,"C_0402_1005Metric"*%
%TO.CVal,"10uF"*%
%TO.CLbN,"Capacitor_SMD"*%
%TO.CMnt,SMD*%
%TO.CRot,180*%
X125350000Y-71125000D03*
D11*
X126259999Y-71584999D02*
X124440001Y-71584999D01*
X124440001Y-70665001D01*
X126259999Y-70665001D01*
X126259999Y-71584999D01*
D12*
%TO.P,"C1","1"*%
X125830000Y-71125000D03*
D13*
%TO.P,"C1","2"*%
X124870000Y-71125000D03*
%TD*%
D10*
%TO.C,"U4"*%
%TO.CFtp,"ONSEMI_567JZ_WLCSP4-0.64x0.64"*%
%TO.CVal,"NCP163AFCT330T2G"*%
%TO.CLbN,"jonnew"*%
%TO.CMnt,SMD*%
%TO.CRot,90*%
X115900000Y-66075000D03*
D11*
X116249999Y-66424999D02*
X115550001Y-66424999D01*
X115550001Y-65725001D01*
X116249999Y-65725001D01*
X116249999Y-66424999D01*
D12*
%TO.P,"U4","A1","VIN"*%
X115725000Y-66250000D03*
D13*
%TO.P,"U4","A2","VOUT"*%
X115725000Y-65900000D03*
%TO.P,"U4","B1","EN"*%
X116075000Y-66250000D03*
%TO.P,"U4","B2","GND"*%
X116075000Y-65900000D03*
%TD*%
D10*
%TO.C,"C18"*%
%TO.CFtp,"C_0805_2012Metric"*%
%TO.CVal,"47uF"*%
%TO.CLbN,"Capacitor_SMD"*%
%TO.CMnt,SMD*%
%TO.CRot,-90*%
X117425000Y-67375000D03*
D11*
X118404999Y-69074999D02*
X116445001Y-69074999D01*
X116445001Y-65675001D01*
X118404999Y-65675001D01*
X118404999Y-69074999D01*
D12*
%TO.P,"C18","1"*%
X117425000Y-66425000D03*
D13*
%TO.P,"C18","2"*%
X117425000Y-68325000D03*
%TD*%
D10*
%TO.C,"U10"*%
%TO.CFtp,"ONSEMI_567JZ_WLCSP4-0.64x0.64"*%
%TO.CVal,"NCP163AFCT120T2G"*%
%TO.CLbN,"jonnew"*%
%TO.CMnt,SMD*%
%TO.CRot,0*%
X118450000Y-55675000D03*
D11*
X118799999Y-56024999D02*
X118100001Y-56024999D01*
X118100001Y-55325001D01*
X118799999Y-55325001D01*
X118799999Y-56024999D01*
D12*
%TO.P,"U10","A1","VIN"*%
X118275000Y-55500000D03*
D13*
%TO.P,"U10","A2","VOUT"*%
X118625000Y-55500000D03*
%TO.P,"U10","B1","EN"*%
X118275000Y-55850000D03*
%TO.P,"U10","B2","GND"*%
X118625000Y-55850000D03*
%TD*%
D10*
%TO.C,"U3"*%
%TO.CFtp,"LGA-28_5.2x3.8mm_P0.5mm"*%
%TO.CVal,"BNO055"*%
%TO.CLbN,"Package_LGA"*%
%TO.CMnt,SMD*%
%TO.CRot,90*%
X120700000Y-68300000D03*
D11*
X122949999Y-71279999D02*
X118450001Y-71279999D01*
X118450001Y-65320001D01*
X122949999Y-65320001D01*
X122949999Y-71279999D01*
D12*
%TO.P,"U3","1","PIN1"*%
X119037500Y-70550000D03*
D13*
%TO.P,"U3","28","VDDIO"*%
X119037500Y-70050000D03*
%TO.P,"U3","27","XIN32"*%
X119037500Y-69550000D03*
%TO.P,"U3","26","XOUT32"*%
X119037500Y-69050000D03*
%TO.P,"U3","25","GNDIO"*%
X119037500Y-68550000D03*
%TO.P,"U3","24","PIN24"*%
X119037500Y-68050000D03*
%TO.P,"U3","23","PIN23"*%
X119037500Y-67550000D03*
%TO.P,"U3","22","PIN22"*%
X119037500Y-67050000D03*
%TO.P,"U3","21","PIN21"*%
X119037500Y-66550000D03*
%TO.P,"U3","20","COM0"*%
X119037500Y-66050000D03*
%TO.P,"U3","19","COM1"*%
X119950000Y-65912500D03*
%TO.P,"U3","18","COM2"*%
X120450000Y-65912500D03*
%TO.P,"U3","17","COM3"*%
X120950000Y-65912500D03*
%TO.P,"U3","16","GNDIO"*%
X121450000Y-65912500D03*
%TO.P,"U3","15","GNDIO"*%
X122362500Y-66050000D03*
%TO.P,"U3","14","INT"*%
X122362500Y-66550000D03*
%TO.P,"U3","13","PIN13"*%
X122362500Y-67050000D03*
%TO.P,"U3","12","PIN12"*%
X122362500Y-67550000D03*
%TO.P,"U3","11","~{RESET}"*%
X122362500Y-68050000D03*
%TO.P,"U3","10","BL_IND"*%
X122362500Y-68550000D03*
%TO.P,"U3","9","CAP"*%
X122362500Y-69050000D03*
%TO.P,"U3","8","PIN8"*%
X122362500Y-69550000D03*
%TO.P,"U3","7","PIN7"*%
X122362500Y-70050000D03*
%TO.P,"U3","6","PS0"*%
X122362500Y-70550000D03*
%TO.P,"U3","5","PS1"*%
X121450000Y-70687500D03*
%TO.P,"U3","4","~{BOOT_LOAD_PIN}"*%
X120950000Y-70687500D03*
%TO.P,"U3","3","VDD"*%
X120450000Y-70687500D03*
%TO.P,"U3","2","GND"*%
X119950000Y-70687500D03*
%TD*%
D10*
%TO.C,"L9"*%
%TO.CFtp,"L_0402_1005Metric"*%
%TO.CVal,"BLM15PX601SN1D"*%
%TO.CLbN,"Inductor_SMD"*%
%TO.CMnt,SMD*%
%TO.CRot,0*%
X119005000Y-56500000D03*
D11*
X119934999Y-56969999D02*
X118075001Y-56969999D01*
X118075001Y-56030001D01*
X119934999Y-56030001D01*
X119934999Y-56969999D01*
D12*
%TO.P,"L9","1","1"*%
X118520000Y-56500000D03*
D13*
%TO.P,"L9","2","2"*%
X119490000Y-56500000D03*
%TD*%
D10*
%TO.C,"R12"*%
%TO.CFtp,"R_0201_0603Metric"*%
%TO.CVal,"4.7k"*%
%TO.CLbN,"Resistor_SMD"*%
%TO.CMnt,SMD*%
%TO.CRot,0*%
X118030000Y-64625000D03*
D11*
X118729999Y-64974999D02*
X117330001Y-64974999D01*
X117330001Y-64275001D01*
X118729999Y-64275001D01*
X118729999Y-64974999D01*
D12*
%TO.P,"R12","1"*%
X117710000Y-64625000D03*
D13*
%TO.P,"R12","2"*%
X118350000Y-64625000D03*
%TD*%
D10*
%TO.C,"C21"*%
%TO.CFtp,"C_0201_0603Metric"*%
%TO.CVal,"0.1uF"*%
%TO.CLbN,"Capacitor_SMD"*%
%TO.CMnt,SMD*%
%TO.CRot,90*%
X123375000Y-71450000D03*
D11*
X123724999Y-72149999D02*
X123025001Y-72149999D01*
X123025001Y-70750001D01*
X123724999Y-70750001D01*
X123724999Y-72149999D01*
D12*
%TO.P,"C21","1"*%
X123375000Y-71770000D03*
D13*
%TO.P,"C21","2"*%
X123375000Y-71130000D03*
%TD*%
D10*
%TO.C,"R6"*%
%TO.CFtp,"R_0201_0603Metric"*%
%TO.CVal,"40.2k\u002C1\u0025"*%
%TO.CLbN,"Resistor_SMD"*%
%TO.CMnt,SMD*%
%TO.CRot,0*%
X128450000Y-70275000D03*
D11*
X129149999Y-70624999D02*
X127750001Y-70624999D01*
X127750001Y-69925001D01*
X129149999Y-69925001D01*
X129149999Y-70624999D01*
D12*
%TO.P,"R6","1"*%
X128130000Y-70275000D03*
D13*
%TO.P,"R6","2"*%
X128770000Y-70275000D03*
%TD*%
D10*
%TO.C,"C9"*%
%TO.CFtp,"C_0201_0603Metric"*%
%TO.CVal,"10nF"*%
%TO.CLbN,"Capacitor_SMD"*%
%TO.CMnt,SMD*%
%TO.CRot,180*%
X129375000Y-62975000D03*
D11*
X130074999Y-63324999D02*
X128675001Y-63324999D01*
X128675001Y-62625001D01*
X130074999Y-62625001D01*
X130074999Y-63324999D01*
D12*
%TO.P,"C9","1"*%
X129695000Y-62975000D03*
D13*
%TO.P,"C9","2"*%
X129055000Y-62975000D03*
%TD*%
D10*
%TO.C,"C6"*%
%TO.CFtp,"C_0201_0603Metric"*%
%TO.CVal,"0.1uF"*%
%TO.CLbN,"Capacitor_SMD"*%
%TO.CMnt,SMD*%
%TO.CRot,90*%
X129975000Y-61850000D03*
D11*
X130324999Y-62549999D02*
X129625001Y-62549999D01*
X129625001Y-61150001D01*
X130324999Y-61150001D01*
X130324999Y-62549999D01*
D12*
%TO.P,"C6","1"*%
X129975000Y-62170000D03*
D13*
%TO.P,"C6","2"*%
X129975000Y-61530000D03*
%TD*%
D10*
%TO.C,"C15"*%
%TO.CFtp,"C_0201_0603Metric"*%
%TO.CVal,"10nF"*%
%TO.CLbN,"Capacitor_SMD"*%
%TO.CMnt,SMD*%
%TO.CRot,90*%
X124400000Y-65000000D03*
D11*
X124749999Y-65699999D02*
X124050001Y-65699999D01*
X124050001Y-64300001D01*
X124749999Y-64300001D01*
X124749999Y-65699999D01*
D12*
%TO.P,"C15","1"*%
X124400000Y-65320000D03*
D13*
%TO.P,"C15","2"*%
X124400000Y-64680000D03*
%TD*%
D10*
%TO.C,"U5"*%
%TO.CFtp,"TI_SIP0008B"*%
%TO.CVal,"TPS826951"*%
%TO.CLbN,"jonnew"*%
%TO.CMnt,SMD*%
%TO.CRot,90*%
X118100000Y-58575000D03*
D11*
X119399999Y-60174999D02*
X116800001Y-60174999D01*
X116800001Y-56975001D01*
X119399999Y-56975001D01*
X119399999Y-60174999D01*
D12*
%TO.P,"U5","A1","VOUT"*%
X117299999Y-59574998D03*
D13*
%TO.P,"U5","A2","VIN"*%
X117300000Y-58575000D03*
%TO.P,"U5","A3","VIN"*%
X117300000Y-57575000D03*
%TO.P,"U5","B1","MODE"*%
X118100000Y-59575000D03*
%TO.P,"U5","B2","EN"*%
X118100000Y-58575000D03*
%TO.P,"U5","C1","GND"*%
X118900000Y-59575000D03*
%TO.P,"U5","C2","GND"*%
X118900000Y-58575000D03*
%TO.P,"U5","C3","GND"*%
X118900000Y-57575000D03*
%TD*%
D10*
%TO.C,"L8"*%
%TO.CFtp,"L_0402_1005Metric"*%
%TO.CVal,"BLM15PX601SN1D"*%
%TO.CLbN,"Inductor_SMD"*%
%TO.CMnt,SMD*%
%TO.CRot,-90*%
X120175000Y-59050000D03*
D11*
X120644999Y-59979999D02*
X119705001Y-59979999D01*
X119705001Y-58120001D01*
X120644999Y-58120001D01*
X120644999Y-59979999D01*
D12*
%TO.P,"L8","1","1"*%
X120175000Y-58565000D03*
D13*
%TO.P,"L8","2","2"*%
X120175000Y-59535000D03*
%TD*%
D10*
%TO.C,"R4"*%
%TO.CFtp,"R_0201_0603Metric"*%
%TO.CVal,"78.7k\u002C1\u0025"*%
%TO.CLbN,"Resistor_SMD"*%
%TO.CMnt,SMD*%
%TO.CRot,180*%
X122325000Y-71675000D03*
D11*
X123024999Y-72024999D02*
X121625001Y-72024999D01*
X121625001Y-71325001D01*
X123024999Y-71325001D01*
X123024999Y-72024999D01*
D12*
%TO.P,"R4","1"*%
X122645000Y-71675000D03*
D13*
%TO.P,"R4","2"*%
X122005000Y-71675000D03*
%TD*%
D10*
%TO.C,"C5"*%
%TO.CFtp,"C_0201_0603Metric"*%
%TO.CVal,"0.1uF"*%
%TO.CLbN,"Capacitor_SMD"*%
%TO.CMnt,SMD*%
%TO.CRot,90*%
X125000000Y-63600000D03*
D11*
X125349999Y-64299999D02*
X124650001Y-64299999D01*
X124650001Y-62900001D01*
X125349999Y-62900001D01*
X125349999Y-64299999D01*
D12*
%TO.P,"C5","1"*%
X125000000Y-63920000D03*
D13*
%TO.P,"C5","2"*%
X125000000Y-63280000D03*
%TD*%
D10*
%TO.C,"C25"*%
%TO.CFtp,"C_0402_1005Metric"*%
%TO.CVal,"1uF"*%
%TO.CLbN,"Capacitor_SMD"*%
%TO.CMnt,SMD*%
%TO.CRot,90*%
X129800000Y-59100000D03*
D11*
X130259999Y-60009999D02*
X129340001Y-60009999D01*
X129340001Y-58190001D01*
X130259999Y-58190001D01*
X130259999Y-60009999D01*
D12*
%TO.P,"C25","1"*%
X129800000Y-59580000D03*
D13*
%TO.P,"C25","2"*%
X129800000Y-58620000D03*
%TD*%
D10*
%TO.C,"J5"*%
%TO.CFtp,"ONIXJTAG-RevA"*%
%TO.CVal,"PINHD-1x7_ONIXJTAG-RevA"*%
%TO.CLbN,"jonnew"*%
%TO.CMnt,SMD*%
%TO.CRot,0*%
X124997047Y-59567641D03*
D11*
X129297046Y-60067640D02*
X120697048Y-60067640D01*
X120697048Y-59067642D01*
X129297046Y-59067642D01*
X129297046Y-60067640D01*
D12*
%TO.P,"J5","1","GND"*%
X121187047Y-59567641D03*
D13*
%TO.P,"J5","7","TCK"*%
X128807047Y-59567641D03*
%TO.P,"J5","6","TMS"*%
X127537047Y-59567641D03*
%TO.P,"J5","5","TDO"*%
X126267047Y-59567641D03*
%TO.P,"J5","4","TDI"*%
X124997047Y-59567641D03*
%TO.P,"J5","3","VREF"*%
X123727047Y-59567641D03*
%TO.P,"J5","2","VCOAX"*%
X122457047Y-59567641D03*
%TD*%
D10*
%TO.C,"L4"*%
%TO.CFtp,"L_0805_2012Metric"*%
%TO.CVal,"CIG21L4R7MNE"*%
%TO.CLbN,"Inductor_SMD"*%
%TO.CMnt,SMD*%
%TO.CRot,180*%
X121200000Y-64500000D03*
D11*
X122949999Y-65349999D02*
X119450001Y-65349999D01*
X119450001Y-63650001D01*
X122949999Y-63650001D01*
X122949999Y-65349999D01*
D12*
%TO.P,"L4","1","1"*%
X122262500Y-64500000D03*
D13*
%TO.P,"L4","2","2"*%
X120137500Y-64500000D03*
%TD*%
D10*
%TO.C,"C35"*%
%TO.CFtp,"C_0402_1005Metric"*%
%TO.CVal,"1uF"*%
%TO.CLbN,"Capacitor_SMD"*%
%TO.CMnt,SMD*%
%TO.CRot,90*%
X128125000Y-61800000D03*
D11*
X128584999Y-62709999D02*
X127665001Y-62709999D01*
X127665001Y-60890001D01*
X128584999Y-60890001D01*
X128584999Y-62709999D01*
D12*
%TO.P,"C35","1"*%
X128125000Y-62280000D03*
D13*
%TO.P,"C35","2"*%
X128125000Y-61320000D03*
%TD*%
D10*
%TO.C,"R3"*%
%TO.CFtp,"R_0201_0603Metric"*%
%TO.CVal,"39.2\u002C1\u0025"*%
%TO.CLbN,"Resistor_SMD"*%
%TO.CMnt,SMD*%
%TO.CRot,180*%
X125175000Y-71900000D03*
D11*
X125874999Y-72249999D02*
X124475001Y-72249999D01*
X124475001Y-71550001D01*
X125874999Y-71550001D01*
X125874999Y-72249999D01*
D12*
%TO.P,"R3","1"*%
X125495000Y-71900000D03*
D13*
%TO.P,"R3","2"*%
X124855000Y-71900000D03*
%TD*%
D10*
%TO.C,"R17"*%
%TO.CFtp,"R_0201_0603Metric"*%
%TO.CVal,"15k"*%
%TO.CLbN,"Resistor_SMD"*%
%TO.CMnt,SMD*%
%TO.CRot,180*%
X131000000Y-58875000D03*
D11*
X131699999Y-59224999D02*
X130300001Y-59224999D01*
X130300001Y-58525001D01*
X131699999Y-58525001D01*
X131699999Y-59224999D01*
D12*
%TO.P,"R17","1"*%
X131320000Y-58875000D03*
D13*
%TO.P,"R17","2"*%
X130680000Y-58875000D03*
%TD*%
D10*
%TO.C,"C13"*%
%TO.CFtp,"C_0402_1005Metric"*%
%TO.CVal,"47nF"*%
%TO.CLbN,"Capacitor_SMD"*%
%TO.CMnt,SMD*%
%TO.CRot,90*%
X126750000Y-63120000D03*
D11*
X127209999Y-64029999D02*
X126290001Y-64029999D01*
X126290001Y-62210001D01*
X127209999Y-62210001D01*
X127209999Y-64029999D01*
D12*
%TO.P,"C13","1"*%
X126750000Y-63600000D03*
D13*
%TO.P,"C13","2"*%
X126750000Y-62640000D03*
%TD*%
D10*
%TO.C,"R10"*%
%TO.CFtp,"R_0201_0603Metric"*%
%TO.CVal,"10k"*%
%TO.CLbN,"Resistor_SMD"*%
%TO.CMnt,SMD*%
%TO.CRot,0*%
X120950000Y-71675000D03*
D11*
X121649999Y-72024999D02*
X120250001Y-72024999D01*
X120250001Y-71325001D01*
X121649999Y-71325001D01*
X121649999Y-72024999D01*
D12*
%TO.P,"R10","1"*%
X120630000Y-71675000D03*
D13*
%TO.P,"R10","2"*%
X121270000Y-71675000D03*
%TD*%
D10*
%TO.C,"C11"*%
%TO.CFtp,"C_0201_0603Metric"*%
%TO.CVal,"0.1uF"*%
%TO.CLbN,"Capacitor_SMD"*%
%TO.CMnt,SMD*%
%TO.CRot,90*%
X127575000Y-63500000D03*
D11*
X127924999Y-64199999D02*
X127225001Y-64199999D01*
X127225001Y-62800001D01*
X127924999Y-62800001D01*
X127924999Y-64199999D01*
D12*
%TO.P,"C11","1"*%
X127575000Y-63820000D03*
D13*
%TO.P,"C11","2"*%
X127575000Y-63180000D03*
%TD*%
D10*
%TO.C,"C3"*%
%TO.CFtp,"C_0402_1005Metric"*%
%TO.CVal,"10uF"*%
%TO.CLbN,"Capacitor_SMD"*%
%TO.CMnt,SMD*%
%TO.CRot,90*%
X129100000Y-61650000D03*
D11*
X129559999Y-62559999D02*
X128640001Y-62559999D01*
X128640001Y-60740001D01*
X129559999Y-60740001D01*
X129559999Y-62559999D01*
D12*
%TO.P,"C3","1"*%
X129100000Y-62130000D03*
D13*
%TO.P,"C3","2"*%
X129100000Y-61170000D03*
%TD*%
D10*
%TO.C,"R9"*%
%TO.CFtp,"R_0201_0603Metric"*%
%TO.CVal,"10k"*%
%TO.CLbN,"Resistor_SMD"*%
%TO.CMnt,SMD*%
%TO.CRot,90*%
X124075000Y-71450000D03*
D11*
X124424999Y-72149999D02*
X123725001Y-72149999D01*
X123725001Y-70750001D01*
X124424999Y-70750001D01*
X124424999Y-72149999D01*
D12*
%TO.P,"R9","1"*%
X124075000Y-71770000D03*
D13*
%TO.P,"R9","2"*%
X124075000Y-71130000D03*
%TD*%
D10*
%TO.C,"C10"*%
%TO.CFtp,"C_0402_1005Metric"*%
%TO.CVal,"22nF"*%
%TO.CLbN,"Capacitor_SMD"*%
%TO.CMnt,SMD*%
%TO.CRot,0*%
X129500000Y-63750000D03*
D11*
X130409999Y-64209999D02*
X128590001Y-64209999D01*
X128590001Y-63290001D01*
X130409999Y-63290001D01*
X130409999Y-64209999D01*
D12*
%TO.P,"C10","1"*%
X129020000Y-63750000D03*
D13*
%TO.P,"C10","2"*%
X129980000Y-63750000D03*
%TD*%
D10*
%TO.C,"U9"*%
%TO.CFtp,"ONSEMI_567JZ_WLCSP4-0.64x0.64"*%
%TO.CVal,"NCP163AFCT180T2G"*%
%TO.CLbN,"jonnew"*%
%TO.CMnt,SMD*%
%TO.CRot,90*%
X120275000Y-56200000D03*
D11*
X120624999Y-56549999D02*
X119925001Y-56549999D01*
X119925001Y-55850001D01*
X120624999Y-55850001D01*
X120624999Y-56549999D01*
D12*
%TO.P,"U9","A1","VIN"*%
X120100000Y-56375000D03*
D13*
%TO.P,"U9","A2","VOUT"*%
X120100000Y-56025000D03*
%TO.P,"U9","B1","EN"*%
X120450000Y-56375000D03*
%TO.P,"U9","B2","GND"*%
X120450000Y-56025000D03*
%TD*%
D10*
%TO.C,"F1"*%
%TO.CFtp,"LITTLEFUSE_0402"*%
%TO.CVal,"0402L020SL"*%
%TO.CLbN,"jonnew"*%
%TO.CMnt,SMD*%
%TO.CRot,180*%
X117750000Y-63800000D03*
D11*
X118749999Y-64299999D02*
X116750001Y-64299999D01*
X116750001Y-63300001D01*
X118749999Y-63300001D01*
X118749999Y-64299999D01*
D12*
%TO.P,"F1","1"*%
X118250000Y-63800000D03*
D13*
%TO.P,"F1","2"*%
X117250000Y-63800000D03*
%TD*%
D10*
%TO.C,"C38"*%
%TO.CFtp,"C_0201_0603Metric"*%
%TO.CVal,"1uF"*%
%TO.CLbN,"Capacitor_SMD"*%
%TO.CMnt,SMD*%
%TO.CRot,90*%
X119325000Y-55325000D03*
D11*
X119674999Y-56024999D02*
X118975001Y-56024999D01*
X118975001Y-54625001D01*
X119674999Y-54625001D01*
X119674999Y-56024999D01*
D12*
%TO.P,"C38","1"*%
X119325000Y-55645000D03*
D13*
%TO.P,"C38","2"*%
X119325000Y-55005000D03*
%TD*%
M02*
