%TF.GenerationSoftware,KiCad,Pcbnew,(6.0.0)*%
%TF.CreationDate,2022-12-06T17:03:37-05:00*%
%TF.ProjectId,headstage-64s,68656164-7374-4616-9765-2d3634732e6b,B*%
%TF.SameCoordinates,Original*%
%TF.FileFunction,Legend,Bot*%
%TF.FilePolarity,Positive*%
%FSLAX46Y46*%
G04 Gerber Fmt 4.6, Leading zero omitted, Abs format (unit mm)*
G04 Created by KiCad (PCBNEW (6.0.0)) date 2022-12-06 17:03:37*
%MOMM*%
%LPD*%
G01*
G04 APERTURE LIST*
%ADD10C,0.125000*%
%ADD11C,0.120000*%
%ADD12C,0.100000*%
G04 APERTURE END LIST*
D10*
X131017619Y-64873333D02*
X130779523Y-64873333D01*
X131065238Y-65016190D02*
X130898571Y-64516190D01*
X130731904Y-65016190D01*
X130350952Y-64682857D02*
X130350952Y-65016190D01*
X130565238Y-64682857D02*
X130565238Y-64944761D01*
X130541428Y-64992380D01*
X130493809Y-65016190D01*
X130422380Y-65016190D01*
X130374761Y-64992380D01*
X130350952Y-64968571D01*
X130160476Y-65016190D02*
X129898571Y-64682857D01*
X130160476Y-64682857D02*
X129898571Y-65016190D01*
X131187142Y-65886190D02*
X131472857Y-65886190D01*
X131330000Y-65886190D02*
X131330000Y-65386190D01*
X131377619Y-65457619D01*
X131425238Y-65505238D01*
X131472857Y-65529047D01*
X130640158Y-65433809D02*
X130616348Y-65410000D01*
X130568729Y-65386190D01*
X130449681Y-65386190D01*
X130402062Y-65410000D01*
X130378253Y-65433809D01*
X130354443Y-65481428D01*
X130354443Y-65529047D01*
X130378253Y-65600476D01*
X130663967Y-65886190D01*
X130354443Y-65886190D01*
X129831269Y-65386190D02*
X129521745Y-65386190D01*
X129688412Y-65576666D01*
X129616983Y-65576666D01*
X129569364Y-65600476D01*
X129545555Y-65624285D01*
X129521745Y-65671904D01*
X129521745Y-65790952D01*
X129545555Y-65838571D01*
X129569364Y-65862380D01*
X129616983Y-65886190D01*
X129759841Y-65886190D01*
X129807460Y-65862380D01*
X129831269Y-65838571D01*
X128689047Y-65410000D02*
X128736666Y-65386190D01*
X128808095Y-65386190D01*
X128879523Y-65410000D01*
X128927142Y-65457619D01*
X128950952Y-65505238D01*
X128974761Y-65600476D01*
X128974761Y-65671904D01*
X128950952Y-65767142D01*
X128927142Y-65814761D01*
X128879523Y-65862380D01*
X128808095Y-65886190D01*
X128760476Y-65886190D01*
X128689047Y-65862380D01*
X128665238Y-65838571D01*
X128665238Y-65671904D01*
X128760476Y-65671904D01*
X118219047Y-65213690D02*
X118219047Y-64713690D01*
X118219047Y-64951785D02*
X117933333Y-64951785D01*
X117933333Y-65213690D02*
X117933333Y-64713690D01*
X117719047Y-65189880D02*
X117647619Y-65213690D01*
X117528571Y-65213690D01*
X117480952Y-65189880D01*
X117457142Y-65166071D01*
X117433333Y-65118452D01*
X117433333Y-65070833D01*
X117457142Y-65023214D01*
X117480952Y-64999404D01*
X117528571Y-64975595D01*
X117623809Y-64951785D01*
X117671428Y-64927976D01*
X117695238Y-64904166D01*
X117719047Y-64856547D01*
X117719047Y-64808928D01*
X117695238Y-64761309D01*
X117671428Y-64737500D01*
X117623809Y-64713690D01*
X117504761Y-64713690D01*
X117433333Y-64737500D01*
X117219047Y-65023214D02*
X116838095Y-65023214D01*
X116385714Y-64713690D02*
X116480952Y-64713690D01*
X116528571Y-64737500D01*
X116552380Y-64761309D01*
X116600000Y-64832738D01*
X116623809Y-64927976D01*
X116623809Y-65118452D01*
X116600000Y-65166071D01*
X116576190Y-65189880D01*
X116528571Y-65213690D01*
X116433333Y-65213690D01*
X116385714Y-65189880D01*
X116361904Y-65166071D01*
X116338095Y-65118452D01*
X116338095Y-64999404D01*
X116361904Y-64951785D01*
X116385714Y-64927976D01*
X116433333Y-64904166D01*
X116528571Y-64904166D01*
X116576190Y-64927976D01*
X116600000Y-64951785D01*
X116623809Y-64999404D01*
X115909523Y-64880357D02*
X115909523Y-65213690D01*
X116028571Y-64689880D02*
X116147619Y-65047023D01*
X115838095Y-65047023D01*
X115671428Y-65189880D02*
X115623809Y-65213690D01*
X115528571Y-65213690D01*
X115480952Y-65189880D01*
X115457142Y-65142261D01*
X115457142Y-65118452D01*
X115480952Y-65070833D01*
X115528571Y-65047023D01*
X115600000Y-65047023D01*
X115647619Y-65023214D01*
X115671428Y-64975595D01*
X115671428Y-64951785D01*
X115647619Y-64904166D01*
X115600000Y-64880357D01*
X115528571Y-64880357D01*
X115480952Y-64904166D01*
X118254761Y-66018690D02*
X118421428Y-65780595D01*
X118540476Y-66018690D02*
X118540476Y-65518690D01*
X118350000Y-65518690D01*
X118302380Y-65542500D01*
X118278571Y-65566309D01*
X118254761Y-65613928D01*
X118254761Y-65685357D01*
X118278571Y-65732976D01*
X118302380Y-65756785D01*
X118350000Y-65780595D01*
X118540476Y-65780595D01*
X117850000Y-65994880D02*
X117897619Y-66018690D01*
X117992857Y-66018690D01*
X118040476Y-65994880D01*
X118064285Y-65947261D01*
X118064285Y-65756785D01*
X118040476Y-65709166D01*
X117992857Y-65685357D01*
X117897619Y-65685357D01*
X117850000Y-65709166D01*
X117826190Y-65756785D01*
X117826190Y-65804404D01*
X118064285Y-65852023D01*
X117659523Y-65685357D02*
X117540476Y-66018690D01*
X117421428Y-65685357D01*
X117230952Y-65971071D02*
X117207142Y-65994880D01*
X117230952Y-66018690D01*
X117254761Y-65994880D01*
X117230952Y-65971071D01*
X117230952Y-66018690D01*
X116826190Y-65756785D02*
X116754761Y-65780595D01*
X116730952Y-65804404D01*
X116707142Y-65852023D01*
X116707142Y-65923452D01*
X116730952Y-65971071D01*
X116754761Y-65994880D01*
X116802380Y-66018690D01*
X116992857Y-66018690D01*
X116992857Y-65518690D01*
X116826190Y-65518690D01*
X116778571Y-65542500D01*
X116754761Y-65566309D01*
X116730952Y-65613928D01*
X116730952Y-65661547D01*
X116754761Y-65709166D01*
X116778571Y-65732976D01*
X116826190Y-65756785D01*
X116992857Y-65756785D01*
X116088095Y-65518690D02*
X116135714Y-65613928D01*
X115897619Y-65566309D02*
X115873809Y-65542500D01*
X115826190Y-65518690D01*
X115707142Y-65518690D01*
X115659523Y-65542500D01*
X115635714Y-65566309D01*
X115611904Y-65613928D01*
X115611904Y-65661547D01*
X115635714Y-65732976D01*
X115921428Y-66018690D01*
X115611904Y-66018690D01*
X115421428Y-65566309D02*
X115397619Y-65542500D01*
X115350000Y-65518690D01*
X115230952Y-65518690D01*
X115183333Y-65542500D01*
X115159523Y-65566309D01*
X115135714Y-65613928D01*
X115135714Y-65661547D01*
X115159523Y-65732976D01*
X115445238Y-66018690D01*
X115135714Y-66018690D01*
D11*
X129300000Y-66600000D02*
G75*
G03*
X129300000Y-66600000I-400000J0D01*
G01*
X130100000Y-66600000D02*
G75*
G03*
X130100000Y-66600000I-400000J0D01*
G01*
X131700000Y-66600000D02*
G75*
G03*
X131700000Y-66600000I-400000J0D01*
G01*
X130900000Y-66600000D02*
G75*
G03*
X130900000Y-66600000I-400000J0D01*
G01*
%TO.C,TP3*%
X124308332Y-72075000D02*
G75*
G03*
X124308332Y-72075000I-400000J0D01*
G01*
%TO.C,C52*%
X122585000Y-55157836D02*
X122585000Y-54942164D01*
X121865000Y-55157836D02*
X121865000Y-54942164D01*
%TO.C,C54*%
X121107836Y-59050000D02*
X120892164Y-59050000D01*
X121107836Y-59770000D02*
X120892164Y-59770000D01*
%TO.C,U2*%
X115530000Y-58100000D02*
X115530000Y-59000000D01*
X115530000Y-59545000D02*
X115530000Y-59970000D01*
X115530000Y-59545000D02*
X115530000Y-59970000D01*
X117470000Y-59545000D02*
X117470000Y-59970000D01*
X116525000Y-58030000D02*
X115530000Y-58030000D01*
X115530000Y-58030000D02*
X115530000Y-58525000D01*
X117470000Y-58455000D02*
X117470000Y-58030000D01*
X115530000Y-59970000D02*
X115955000Y-59970000D01*
X117470000Y-59970000D02*
X117045000Y-59970000D01*
X115530000Y-59545000D02*
X115530000Y-59970000D01*
X115530000Y-59970000D02*
X115955000Y-59970000D01*
X115530000Y-59970000D02*
X115955000Y-59970000D01*
X117470000Y-58030000D02*
X117045000Y-58030000D01*
X115530000Y-58100000D02*
X115530000Y-58525000D01*
%TO.C,U11*%
D12*
X128800000Y-59700000D02*
G75*
G03*
X128800000Y-59700000I-50000J0D01*
G01*
D11*
%TO.C,C55*%
X124272164Y-55860000D02*
X124487836Y-55860000D01*
X124272164Y-55140000D02*
X124487836Y-55140000D01*
%TO.C,C23*%
X116892164Y-57710000D02*
X117107836Y-57710000D01*
X116892164Y-56990000D02*
X117107836Y-56990000D01*
%TO.C,C57*%
X119940000Y-57842164D02*
X119940000Y-58057836D01*
X120660000Y-57842164D02*
X120660000Y-58057836D01*
%TO.C,TP5*%
X125175000Y-72075000D02*
G75*
G03*
X125175000Y-72075000I-400000J0D01*
G01*
%TO.C,C51*%
X120890000Y-57842164D02*
X120890000Y-58057836D01*
X121610000Y-57842164D02*
X121610000Y-58057836D01*
%TO.C,C56*%
X120957836Y-55440000D02*
X120742164Y-55440000D01*
X120957836Y-56160000D02*
X120742164Y-56160000D01*
%TO.C,U1*%
X118880000Y-64380000D02*
X118880000Y-66130000D01*
X121130000Y-71620000D02*
X118880000Y-71620000D01*
X118880000Y-64380000D02*
X118880000Y-66130000D01*
X121130000Y-64380000D02*
X118880000Y-64380000D01*
X125870000Y-71620000D02*
X128120000Y-71620000D01*
X121130000Y-64380000D02*
X118880000Y-64380000D01*
X121130000Y-64380000D02*
X118880000Y-64380000D01*
X118880000Y-71620000D02*
X118880000Y-69870000D01*
X118880000Y-64380000D02*
X118880000Y-66130000D01*
X128120000Y-64380000D02*
X128120000Y-68000000D01*
X123500000Y-64380000D02*
X128120000Y-64380000D01*
X128120000Y-71620000D02*
X128120000Y-69870000D01*
%TO.C,TP1*%
X123441666Y-72075000D02*
G75*
G03*
X123441666Y-72075000I-400000J0D01*
G01*
%TO.C,U6*%
X130970000Y-59820000D02*
X130970000Y-59395000D01*
X130545000Y-59820000D02*
X130970000Y-59820000D01*
X129030000Y-58825000D02*
X129030000Y-59820000D01*
X129030000Y-59820000D02*
X129525000Y-59820000D01*
X129455000Y-57880000D02*
X129030000Y-57880000D01*
X129100000Y-59820000D02*
X130000000Y-59820000D01*
X129030000Y-57880000D02*
X129030000Y-58305000D01*
X130970000Y-59820000D02*
X130970000Y-59395000D01*
X130545000Y-59820000D02*
X130970000Y-59820000D01*
X130545000Y-59820000D02*
X130970000Y-59820000D01*
X130970000Y-57880000D02*
X130970000Y-58305000D01*
X130970000Y-59820000D02*
X130970000Y-59395000D01*
X130545000Y-57880000D02*
X130970000Y-57880000D01*
X129100000Y-59820000D02*
X129525000Y-59820000D01*
%TO.C,C53*%
X123492164Y-58890000D02*
X123707836Y-58890000D01*
X123492164Y-59610000D02*
X123707836Y-59610000D01*
%TO.C,C50*%
X124950000Y-57652164D02*
X124950000Y-57867836D01*
X124230000Y-57652164D02*
X124230000Y-57867836D01*
%TO.C,U13*%
X116590883Y-67850000D02*
X116590883Y-67850000D01*
D12*
%TO.C,J2*%
X115700000Y-62800000D02*
X115700000Y-61200000D01*
X131300000Y-62800000D02*
X131300000Y-61200000D01*
D11*
%TO.C,TP10*%
X122575000Y-72075000D02*
G75*
G03*
X122575000Y-72075000I-400000J0D01*
G01*
%TD*%
M02*
