%TF.GenerationSoftware,KiCad,Pcbnew,(6.0.0)*%
%TF.CreationDate,2022-12-06T17:03:37-05:00*%
%TF.ProjectId,headstage-64s,68656164-7374-4616-9765-2d3634732e6b,B*%
%TF.SameCoordinates,Original*%
%TF.FileFunction,Soldermask,Top*%
%TF.FilePolarity,Negative*%
%FSLAX46Y46*%
G04 Gerber Fmt 4.6, Leading zero omitted, Abs format (unit mm)*
G04 Created by KiCad (PCBNEW (6.0.0)) date 2022-12-06 17:03:37*
%MOMM*%
%LPD*%
G01*
G04 APERTURE LIST*
G04 Aperture macros list*
%AMRoundRect*
0 Rectangle with rounded corners*
0 $1 Rounding radius*
0 $2 $3 $4 $5 $6 $7 $8 $9 X,Y pos of 4 corners*
0 Add a 4 corners polygon primitive as box body*
4,1,4,$2,$3,$4,$5,$6,$7,$8,$9,$2,$3,0*
0 Add four circle primitives for the rounded corners*
1,1,$1+$1,$2,$3*
1,1,$1+$1,$4,$5*
1,1,$1+$1,$6,$7*
1,1,$1+$1,$8,$9*
0 Add four rect primitives between the rounded corners*
20,1,$1+$1,$2,$3,$4,$5,0*
20,1,$1+$1,$4,$5,$6,$7,0*
20,1,$1+$1,$6,$7,$8,$9,0*
20,1,$1+$1,$8,$9,$2,$3,0*%
G04 Aperture macros list end*
%ADD10C,0.180000*%
%ADD11C,0.275000*%
%ADD12RoundRect,0.325000X0.325000X0.675000X-0.325000X0.675000X-0.325000X-0.675000X0.325000X-0.675000X0*%
%ADD13RoundRect,0.085000X-0.340000X-0.465000X0.340000X-0.465000X0.340000X0.465000X-0.340000X0.465000X0*%
%ADD14RoundRect,0.110000X-0.490000X-0.440000X0.490000X-0.440000X0.490000X0.440000X-0.490000X0.440000X0*%
%ADD15RoundRect,0.100000X-0.130000X-0.100000X0.130000X-0.100000X0.130000X0.100000X-0.130000X0.100000X0*%
%ADD16RoundRect,0.147500X0.172500X-0.147500X0.172500X0.147500X-0.172500X0.147500X-0.172500X-0.147500X0*%
%ADD17RoundRect,0.147500X0.147500X0.172500X-0.147500X0.172500X-0.147500X-0.172500X0.147500X-0.172500X0*%
%ADD18RoundRect,0.100000X-0.100000X0.130000X-0.100000X-0.130000X0.100000X-0.130000X0.100000X0.130000X0*%
%ADD19RoundRect,0.100000X0.130000X0.100000X-0.130000X0.100000X-0.130000X-0.100000X0.130000X-0.100000X0*%
%ADD20RoundRect,0.027500X0.247500X-0.247500X0.247500X0.247500X-0.247500X0.247500X-0.247500X-0.247500X0*%
%ADD21C,0.185000*%
%ADD22RoundRect,0.100000X0.100000X-0.130000X0.100000X0.130000X-0.100000X0.130000X-0.100000X-0.130000X0*%
%ADD23RoundRect,0.050000X-0.250000X0.200000X-0.250000X-0.200000X0.250000X-0.200000X0.250000X0.200000X0*%
%ADD24RoundRect,0.059200X1.790800X1.790800X-1.790800X1.790800X-1.790800X-1.790800X1.790800X-1.790800X0*%
%ADD25RoundRect,0.050000X0.075000X0.250000X-0.075000X0.250000X-0.075000X-0.250000X0.075000X-0.250000X0*%
%ADD26RoundRect,0.050000X-0.250000X0.075000X-0.250000X-0.075000X0.250000X-0.075000X0.250000X0.075000X0*%
%ADD27RoundRect,0.250000X-0.600000X0.600000X-0.600000X-0.600000X0.600000X-0.600000X0.600000X0.600000X0*%
%ADD28C,1.700000*%
%ADD29RoundRect,0.140000X0.140000X0.170000X-0.140000X0.170000X-0.140000X-0.170000X0.140000X-0.170000X0*%
%ADD30RoundRect,0.140000X0.170000X-0.140000X0.170000X0.140000X-0.170000X0.140000X-0.170000X-0.140000X0*%
%ADD31RoundRect,0.250000X-0.375000X-1.075000X0.375000X-1.075000X0.375000X1.075000X-0.375000X1.075000X0*%
%ADD32RoundRect,0.140000X-0.170000X0.140000X-0.170000X-0.140000X0.170000X-0.140000X0.170000X0.140000X0*%
%ADD33C,0.200000*%
%ADD34RoundRect,0.250000X-0.475000X0.250000X-0.475000X-0.250000X0.475000X-0.250000X0.475000X0.250000X0*%
%ADD35R,0.675000X0.254000*%
%ADD36R,0.254000X0.675000*%
%ADD37RoundRect,0.147500X-0.147500X-0.172500X0.147500X-0.172500X0.147500X0.172500X-0.147500X0.172500X0*%
%ADD38C,0.359999*%
%ADD39RoundRect,0.147500X-0.172500X0.147500X-0.172500X-0.147500X0.172500X-0.147500X0.172500X0.147500X0*%
%ADD40C,0.600000*%
%ADD41RoundRect,0.218750X0.218750X0.381250X-0.218750X0.381250X-0.218750X-0.381250X0.218750X-0.381250X0*%
%ADD42RoundRect,0.140000X-0.140000X-0.170000X0.140000X-0.170000X0.140000X0.170000X-0.140000X0.170000X0*%
%ADD43RoundRect,0.150000X0.150000X0.200000X-0.150000X0.200000X-0.150000X-0.200000X0.150000X-0.200000X0*%
G04 APERTURE END LIST*
D10*
%TO.C,*%
X134340000Y-78448750D02*
X134340000Y-77928750D01*
X139630000Y-78628750D02*
X139620000Y-77928750D01*
D11*
X138060000Y-77088750D02*
X134960000Y-75788750D01*
D10*
X139900000Y-79148750D02*
X139850000Y-79148750D01*
D11*
X138060000Y-77088750D02*
X138360000Y-76088750D01*
D10*
X137680000Y-78628750D02*
X137860000Y-78628750D01*
X141050000Y-77728750D02*
X141100000Y-77758750D01*
X140490000Y-77658750D02*
X140070000Y-79008750D01*
X134160000Y-77748750D02*
X134040000Y-77748750D01*
X140830000Y-78658750D02*
X140790000Y-78638750D01*
X134670000Y-78638750D02*
X134670000Y-79158750D01*
X134670000Y-78628750D02*
X134970000Y-78628750D01*
X141000000Y-77708750D02*
X140880000Y-77708750D01*
X135480000Y-77928750D02*
X135480000Y-78448750D01*
X135540000Y-78188750D02*
X135960000Y-78188750D01*
X141120000Y-77788750D02*
X141120000Y-77808750D01*
D11*
X136260000Y-74588750D02*
X138060000Y-77088750D01*
D10*
X140060000Y-79028750D02*
X139990000Y-79128750D01*
X137980000Y-77948750D02*
X137980000Y-78188750D01*
X137500000Y-77928750D02*
X137500000Y-78448750D01*
X135150000Y-78448750D02*
X135150000Y-77928750D01*
X140840000Y-78658750D02*
X140960000Y-78658750D01*
X137800000Y-77748750D02*
X137680000Y-77748750D01*
X135960000Y-77948750D02*
X135960000Y-78188750D01*
X138300000Y-78638750D02*
X138300000Y-79158750D01*
X140720000Y-78578750D02*
X140720000Y-78558750D01*
X140710000Y-77998750D02*
X140750000Y-78058750D01*
X139140000Y-78618750D02*
X139140000Y-77198750D01*
X135660000Y-78628750D02*
X135840000Y-78628750D01*
X139440000Y-77748750D02*
X139210000Y-77748750D01*
X141140000Y-78418750D02*
X141130000Y-78368750D01*
X141010000Y-77708750D02*
X141050000Y-77728750D01*
X133860000Y-77928750D02*
X133860000Y-78448750D01*
X134040000Y-78628750D02*
X134160000Y-78628750D01*
X134970000Y-77748750D02*
X134670000Y-77748750D01*
X140790000Y-78638750D02*
X140740000Y-78608750D01*
X136780000Y-78628750D02*
X136780000Y-77928750D01*
D11*
X134960000Y-75788750D02*
X138360000Y-76088750D01*
D10*
X135780000Y-77748750D02*
X135660000Y-77748750D01*
X136300000Y-77748750D02*
X136300000Y-78628750D01*
X138780000Y-78448750D02*
X138780000Y-77928750D01*
X139990000Y-79128750D02*
X139900000Y-79148750D01*
X136600000Y-77748750D02*
X136300000Y-77748750D01*
X141130000Y-78368750D02*
X141040000Y-78278750D01*
X140700000Y-77948750D02*
X140710000Y-77998750D01*
X138600000Y-77748750D02*
X138300000Y-77748750D01*
X141040000Y-78278750D02*
X140880000Y-78158750D01*
X138300000Y-78628750D02*
X138600000Y-78628750D01*
X134670000Y-77748750D02*
X134670000Y-78628750D01*
X141140000Y-78468750D02*
X141140000Y-78418750D01*
X140740000Y-78608750D02*
X140720000Y-78578750D01*
X140750000Y-78058750D02*
X140910000Y-78178750D01*
X137560000Y-78188750D02*
X137980000Y-78188750D01*
X138300000Y-77748750D02*
X138300000Y-78628750D01*
D11*
X137460000Y-73888750D02*
X138360000Y-76088750D01*
X138360000Y-76088750D02*
X136260000Y-74588750D01*
D10*
X141100000Y-77758750D02*
X141120000Y-77788750D01*
X140700000Y-77898750D02*
X140700000Y-77948750D01*
X139850000Y-77658750D02*
X140180000Y-78618750D01*
D11*
X134960000Y-75788750D02*
X136260000Y-74588750D01*
X138060000Y-77088750D02*
X137460000Y-73888750D01*
D10*
X137860000Y-78628750D02*
G75*
G03*
X137930000Y-78558750I-2J70002D01*
G01*
X134340000Y-77928750D02*
G75*
G03*
X134160000Y-77748750I-180001J-1D01*
G01*
X137500000Y-78448750D02*
G75*
G03*
X137680000Y-78628750I180001J1D01*
G01*
X133860000Y-78448750D02*
G75*
G03*
X134040000Y-78628750I180001J1D01*
G01*
X135840000Y-78628750D02*
G75*
G03*
X135910000Y-78558750I-2J70002D01*
G01*
X135480000Y-78448750D02*
G75*
G03*
X135660000Y-78628750I180001J1D01*
G01*
X134970000Y-78628750D02*
G75*
G03*
X135150000Y-78448750I-1J180001D01*
G01*
X134040000Y-77748750D02*
G75*
G03*
X133860000Y-77928750I1J-180001D01*
G01*
X134160000Y-78628750D02*
G75*
G03*
X134340000Y-78448750I-1J180001D01*
G01*
X140880000Y-77708750D02*
G75*
G03*
X140700000Y-77888750I1J-180001D01*
G01*
X138600000Y-78628750D02*
G75*
G03*
X138780000Y-78448750I-1J180001D01*
G01*
X137680000Y-77748750D02*
G75*
G03*
X137500000Y-77928750I1J-180001D01*
G01*
X138780000Y-77928750D02*
G75*
G03*
X138600000Y-77748750I-180001J-1D01*
G01*
X139620000Y-77928750D02*
G75*
G03*
X139440000Y-77748750I-180001J-1D01*
G01*
X140960000Y-78658750D02*
G75*
G03*
X141140000Y-78478750I-1J180001D01*
G01*
X135660000Y-77748750D02*
G75*
G03*
X135480000Y-77928750I1J-180001D01*
G01*
X135960000Y-77928750D02*
G75*
G03*
X135780000Y-77748750I-180001J-1D01*
G01*
X135150000Y-77928750D02*
G75*
G03*
X134970000Y-77748750I-180001J-1D01*
G01*
X136780000Y-77928750D02*
G75*
G03*
X136600000Y-77748750I-180001J-1D01*
G01*
X137980000Y-77928750D02*
G75*
G03*
X137800000Y-77748750I-180001J-1D01*
G01*
%TD*%
D12*
%TO.C,J1*%
X122710000Y-61550000D03*
X124510000Y-61550000D03*
%TD*%
D13*
%TO.C,D3*%
X131050000Y-64200000D03*
X132350000Y-64200000D03*
D14*
X131700000Y-60050000D03*
%TD*%
D13*
%TO.C,D1*%
X114650000Y-64200000D03*
X115950000Y-64200000D03*
D14*
X115300000Y-60050000D03*
%TD*%
D15*
%TO.C,C24*%
X116220000Y-58900000D03*
X115580000Y-58900000D03*
%TD*%
D16*
%TO.C,L7*%
X127150000Y-61710000D03*
X127150000Y-60740000D03*
%TD*%
D17*
%TO.C,L2*%
X124370000Y-67300000D03*
X123400000Y-67300000D03*
%TD*%
%TO.C,L1*%
X124385000Y-68400000D03*
X123415000Y-68400000D03*
%TD*%
D18*
%TO.C,R16*%
X116475000Y-58020000D03*
X116475000Y-57380000D03*
%TD*%
D19*
%TO.C,C41*%
X117650000Y-56550000D03*
X117010000Y-56550000D03*
%TD*%
D20*
%TO.C,SW1*%
X127025000Y-55875000D03*
X127775000Y-55875000D03*
X127775000Y-58525000D03*
X127025000Y-58525000D03*
%TD*%
D19*
%TO.C,C27*%
X116020000Y-65300000D03*
X115380000Y-65300000D03*
%TD*%
D21*
%TO.C,U8*%
X124100000Y-58600000D03*
X123700000Y-58600000D03*
X123300000Y-58600000D03*
X122900000Y-58600000D03*
X122500000Y-58600000D03*
X122100000Y-58600000D03*
X121700000Y-58600000D03*
X121300000Y-58600000D03*
X124100000Y-58200000D03*
X123700000Y-58200000D03*
X123300000Y-58200000D03*
X122900000Y-58200000D03*
X122500000Y-58200000D03*
X122100000Y-58200000D03*
X121700000Y-58200000D03*
X121300000Y-58200000D03*
X124100000Y-57800000D03*
X123700000Y-57800000D03*
X123300000Y-57800000D03*
X122900000Y-57800000D03*
X122500000Y-57800000D03*
X122100000Y-57800000D03*
X121700000Y-57800000D03*
X121300000Y-57800000D03*
X124100000Y-57400000D03*
X123700000Y-57400000D03*
X123300000Y-57400000D03*
X122900000Y-57400000D03*
X122500000Y-57400000D03*
X122100000Y-57400000D03*
X121700000Y-57400000D03*
X121300000Y-57400000D03*
X124100000Y-57000000D03*
X123700000Y-57000000D03*
X123300000Y-57000000D03*
X122900000Y-57000000D03*
X122500000Y-57000000D03*
X122100000Y-57000000D03*
X121700000Y-57000000D03*
X121300000Y-57000000D03*
X124100000Y-56600000D03*
X123700000Y-56600000D03*
X123300000Y-56600000D03*
X122900000Y-56600000D03*
X122500000Y-56600000D03*
X122100000Y-56600000D03*
X121700000Y-56600000D03*
X121300000Y-56600000D03*
X124100000Y-56200000D03*
X123700000Y-56200000D03*
X123300000Y-56200000D03*
X122900000Y-56200000D03*
X122500000Y-56200000D03*
X122100000Y-56200000D03*
X121700000Y-56200000D03*
X121300000Y-56200000D03*
X124100000Y-55800000D03*
X123700000Y-55800000D03*
X123300000Y-55800000D03*
X122900000Y-55800000D03*
X122500000Y-55800000D03*
X122100000Y-55800000D03*
X121700000Y-55800000D03*
X121300000Y-55800000D03*
%TD*%
D22*
%TO.C,R15*%
X126070000Y-61770000D03*
X126070000Y-61130000D03*
%TD*%
D23*
%TO.C,D2*%
X125600000Y-58550000D03*
X125600000Y-57650000D03*
%TD*%
D24*
%TO.C,U7*%
X127700000Y-67100000D03*
D25*
X129449999Y-69500000D03*
X128950000Y-69500000D03*
X128450001Y-69500000D03*
X127950000Y-69500000D03*
X127450000Y-69500000D03*
X126950002Y-69500000D03*
X126450000Y-69500000D03*
X125950001Y-69500000D03*
D26*
X125300000Y-68849999D03*
X125300000Y-68350000D03*
X125300000Y-67850001D03*
X125300000Y-67350000D03*
X125300000Y-66850000D03*
X125300000Y-66350002D03*
X125300000Y-65850000D03*
X125300000Y-65350001D03*
D25*
X125950001Y-64700000D03*
X126450000Y-64700000D03*
X126950002Y-64700000D03*
X127450000Y-64700000D03*
X127950000Y-64700000D03*
X128450001Y-64700000D03*
X128950000Y-64700000D03*
X129449999Y-64700000D03*
D26*
X130100000Y-65350001D03*
X130100000Y-65850000D03*
X130100000Y-66350002D03*
X130100000Y-66850000D03*
X130100000Y-67350000D03*
X130100000Y-67850001D03*
X130100000Y-68350000D03*
X130100000Y-68849999D03*
%TD*%
D27*
%TO.C,J3*%
X128580000Y-38247500D03*
D28*
X128580000Y-40787500D03*
X126040000Y-38247500D03*
X126040000Y-40787500D03*
X123500000Y-38247500D03*
X123500000Y-40787500D03*
X120960000Y-38247500D03*
X120960000Y-40787500D03*
X118420000Y-38247500D03*
X118420000Y-40787500D03*
%TD*%
D18*
%TO.C,C29*%
X115900000Y-67080000D03*
X115900000Y-67720000D03*
%TD*%
%TO.C,C40*%
X120275000Y-57005000D03*
X120275000Y-57645000D03*
%TD*%
D22*
%TO.C,C20*%
X118025000Y-69505000D03*
X118025000Y-70145000D03*
%TD*%
%TO.C,R25*%
X125100000Y-55980000D03*
X125100000Y-56620000D03*
%TD*%
D29*
%TO.C,C34*%
X124355000Y-66325000D03*
X123395000Y-66325000D03*
%TD*%
D18*
%TO.C,R7*%
X119100000Y-64345000D03*
X119100000Y-63705000D03*
%TD*%
D15*
%TO.C,R8*%
X123120000Y-63300000D03*
X122480000Y-63300000D03*
%TD*%
D18*
%TO.C,R20*%
X125900000Y-56620000D03*
X125900000Y-55980000D03*
%TD*%
D22*
%TO.C,C8*%
X124300000Y-63920000D03*
X124300000Y-63280000D03*
%TD*%
D19*
%TO.C,C14*%
X124250000Y-70275000D03*
X123610000Y-70275000D03*
%TD*%
D15*
%TO.C,R11*%
X118045000Y-65325000D03*
X117405000Y-65325000D03*
%TD*%
D30*
%TO.C,C12*%
X125830000Y-63600000D03*
X125830000Y-62640000D03*
%TD*%
D22*
%TO.C,R5*%
X127375000Y-70970000D03*
X127375000Y-70330000D03*
%TD*%
%TO.C,C16*%
X128275000Y-63820000D03*
X128275000Y-63180000D03*
%TD*%
D29*
%TO.C,C17*%
X124380000Y-69400000D03*
X123420000Y-69400000D03*
%TD*%
D18*
%TO.C,C4*%
X126625000Y-70330000D03*
X126625000Y-70970000D03*
%TD*%
D19*
%TO.C,C7*%
X125745000Y-70275000D03*
X125105000Y-70275000D03*
%TD*%
D22*
%TO.C,C37*%
X120300000Y-55370000D03*
X120300000Y-54730000D03*
%TD*%
D15*
%TO.C,C26*%
X130820000Y-57850000D03*
X130180000Y-57850000D03*
%TD*%
D31*
%TO.C,L3*%
X120930000Y-61720000D03*
X118130000Y-61720000D03*
%TD*%
D32*
%TO.C,C2*%
X123500000Y-64320000D03*
X123500000Y-65280000D03*
%TD*%
D29*
%TO.C,C1*%
X125830000Y-71125000D03*
X124870000Y-71125000D03*
%TD*%
D33*
%TO.C,U4*%
X115725000Y-66250000D03*
X115725000Y-65900000D03*
X116075000Y-66250000D03*
X116075000Y-65900000D03*
%TD*%
D34*
%TO.C,C18*%
X117425000Y-66425000D03*
X117425000Y-68325000D03*
%TD*%
D33*
%TO.C,U10*%
X118275000Y-55500000D03*
X118625000Y-55500000D03*
X118275000Y-55850000D03*
X118625000Y-55850000D03*
%TD*%
D35*
%TO.C,U3*%
X119037500Y-70050000D03*
X119037500Y-69550000D03*
X119037500Y-69050000D03*
X119037500Y-68550000D03*
X119037500Y-68050000D03*
X119037500Y-67550000D03*
X119037500Y-67050000D03*
X119037500Y-66550000D03*
X119037500Y-66050000D03*
D36*
X119950000Y-65912500D03*
X120450000Y-65912500D03*
X120950000Y-65912500D03*
X121450000Y-65912500D03*
D35*
X122362500Y-66050000D03*
X122362500Y-66550000D03*
X122362500Y-67050000D03*
X122362500Y-67550000D03*
X122362500Y-68050000D03*
X122362500Y-68550000D03*
X122362500Y-69050000D03*
X122362500Y-69550000D03*
X122362500Y-70050000D03*
X122362500Y-70550000D03*
D36*
X121450000Y-70687500D03*
X120950000Y-70687500D03*
X120450000Y-70687500D03*
X119950000Y-70687500D03*
D35*
X119037500Y-70550000D03*
%TD*%
D37*
%TO.C,L9*%
X118520000Y-56500000D03*
X119490000Y-56500000D03*
%TD*%
D15*
%TO.C,R12*%
X118350000Y-64625000D03*
X117710000Y-64625000D03*
%TD*%
D22*
%TO.C,C21*%
X123375000Y-71130000D03*
X123375000Y-71770000D03*
%TD*%
D15*
%TO.C,R6*%
X128770000Y-70275000D03*
X128130000Y-70275000D03*
%TD*%
D19*
%TO.C,C9*%
X129695000Y-62975000D03*
X129055000Y-62975000D03*
%TD*%
D22*
%TO.C,C6*%
X129975000Y-62170000D03*
X129975000Y-61530000D03*
%TD*%
%TO.C,C15*%
X124400000Y-65320000D03*
X124400000Y-64680000D03*
%TD*%
D38*
%TO.C,U5*%
X117299999Y-59574998D03*
X117300000Y-58575000D03*
X117300000Y-57575000D03*
X118100000Y-59575000D03*
X118100000Y-58575000D03*
X118900000Y-59575000D03*
X118900000Y-58575000D03*
X118900000Y-57575000D03*
%TD*%
D39*
%TO.C,L8*%
X120175000Y-58565000D03*
X120175000Y-59535000D03*
%TD*%
D19*
%TO.C,R4*%
X122645000Y-71675000D03*
X122005000Y-71675000D03*
%TD*%
D22*
%TO.C,C5*%
X125000000Y-63920000D03*
X125000000Y-63280000D03*
%TD*%
D40*
%TO.C,TP4*%
X124450000Y-54125000D03*
%TD*%
D30*
%TO.C,C25*%
X129800000Y-58620000D03*
X129800000Y-59580000D03*
%TD*%
D40*
%TO.C,J5*%
X128807047Y-59567641D03*
X127537047Y-59567641D03*
X126267047Y-59567641D03*
X124997047Y-59567641D03*
X123727047Y-59567641D03*
X122457047Y-59567641D03*
X121187047Y-59567641D03*
%TD*%
D41*
%TO.C,L4*%
X120137500Y-64500000D03*
X122262500Y-64500000D03*
%TD*%
D30*
%TO.C,C35*%
X128125000Y-62280000D03*
X128125000Y-61320000D03*
%TD*%
D19*
%TO.C,R3*%
X125495000Y-71900000D03*
X124855000Y-71900000D03*
%TD*%
%TO.C,R17*%
X130680000Y-58875000D03*
X131320000Y-58875000D03*
%TD*%
D40*
%TO.C,TP9*%
X129450000Y-56575000D03*
%TD*%
D30*
%TO.C,C13*%
X126750000Y-63600000D03*
X126750000Y-62640000D03*
%TD*%
D40*
%TO.C,TP2*%
X125800000Y-54400000D03*
%TD*%
D15*
%TO.C,R10*%
X121270000Y-71675000D03*
X120630000Y-71675000D03*
%TD*%
D40*
%TO.C,TP8*%
X123030000Y-54030000D03*
%TD*%
D22*
%TO.C,C11*%
X127575000Y-63820000D03*
X127575000Y-63180000D03*
%TD*%
D30*
%TO.C,C3*%
X129100000Y-62130000D03*
X129100000Y-61170000D03*
%TD*%
D22*
%TO.C,R9*%
X124075000Y-71130000D03*
X124075000Y-71770000D03*
%TD*%
D42*
%TO.C,C10*%
X129980000Y-63750000D03*
X129020000Y-63750000D03*
%TD*%
D33*
%TO.C,U9*%
X120100000Y-56375000D03*
X120100000Y-56025000D03*
X120450000Y-56375000D03*
X120450000Y-56025000D03*
%TD*%
D43*
%TO.C,F1*%
X117250000Y-63800000D03*
X118250000Y-63800000D03*
%TD*%
D22*
%TO.C,C38*%
X119325000Y-55645000D03*
X119325000Y-55005000D03*
%TD*%
M02*
