%TF.GenerationSoftware,KiCad,Pcbnew,(6.0.0)*%
%TF.CreationDate,2022-12-06T16:55:36-05:00*%
%TF.ProjectId,headstage-64s,68656164-7374-4616-9765-2d3634732e6b,B*%
%TF.SameCoordinates,Original*%
%TF.FileFunction,Component,L6,Bot*%
%TF.FilePolarity,Positive*%
%FSLAX46Y46*%
G04 Gerber Fmt 4.6, Leading zero omitted, Abs format (unit mm)*
G04 Created by KiCad (PCBNEW (6.0.0)) date 2022-12-06 16:55:36*
%MOMM*%
%LPD*%
G01*
G04 APERTURE LIST*
%TA.AperFunction,ComponentMain*%
%ADD10C,0.300000*%
%TD*%
%TA.AperFunction,ComponentOutline,Courtyard*%
%ADD11C,0.100000*%
%TD*%
%TA.AperFunction,ComponentPin*%
%ADD12P,0.360000X4X0.000000*%
%TD*%
%TA.AperFunction,ComponentPin*%
%ADD13C,0.000000*%
%TD*%
G04 APERTURE END LIST*
D10*
%TO.C,"R14"*%
%TO.CFtp,"R_0201_0603Metric"*%
%TO.CVal,"4.7k"*%
%TO.CLbN,"Resistor_SMD"*%
%TO.CMnt,SMD*%
%TO.CRot,0*%
X127270000Y-55650000D03*
D11*
X127969999Y-55999999D02*
X126570001Y-55999999D01*
X126570001Y-55300001D01*
X127969999Y-55300001D01*
X127969999Y-55999999D01*
D12*
%TO.P,"R14","1"*%
X126950000Y-55650000D03*
D13*
%TO.P,"R14","2"*%
X127590000Y-55650000D03*
%TD*%
D10*
%TO.C,"R13"*%
%TO.CFtp,"R_0201_0603Metric"*%
%TO.CVal,"0"*%
%TO.CLbN,"Resistor_SMD"*%
%TO.CMnt,SMD*%
%TO.CRot,-90*%
X128800000Y-69900000D03*
D11*
X129149999Y-70599999D02*
X128450001Y-70599999D01*
X128450001Y-69200001D01*
X129149999Y-69200001D01*
X129149999Y-70599999D01*
D12*
%TO.P,"R13","1"*%
X128800000Y-69580000D03*
D13*
%TO.P,"R13","2"*%
X128800000Y-70220000D03*
%TD*%
D10*
%TO.C,"L6"*%
%TO.CFtp,"L_0201_0603Metric"*%
%TO.CVal,"BLM03AX102SN1D"*%
%TO.CLbN,"Inductor_SMD"*%
%TO.CMnt,SMD*%
%TO.CRot,45*%
X115800000Y-67050000D03*
D11*
X116542460Y-66802513D02*
X115552513Y-67792460D01*
X115057540Y-67297487D01*
X116047487Y-66307540D01*
X116542460Y-66802513D01*
D12*
%TO.P,"L6","1","1"*%
X115573726Y-67276274D03*
D13*
%TO.P,"L6","2","2"*%
X116026274Y-66823726D03*
%TD*%
D10*
%TO.C,"C43"*%
%TO.CFtp,"C_0201_0603Metric"*%
%TO.CVal,"0.1uF"*%
%TO.CLbN,"Capacitor_SMD"*%
%TO.CMnt,SMD*%
%TO.CRot,-90*%
X123030000Y-57090000D03*
D11*
X123379999Y-57789999D02*
X122680001Y-57789999D01*
X122680001Y-56390001D01*
X123379999Y-56390001D01*
X123379999Y-57789999D01*
D12*
%TO.P,"C43","1"*%
X123030000Y-56770000D03*
D13*
%TO.P,"C43","2"*%
X123030000Y-57410000D03*
%TD*%
D10*
%TO.C,"C28"*%
%TO.CFtp,"C_0201_0603Metric"*%
%TO.CVal,"1uF"*%
%TO.CLbN,"Capacitor_SMD"*%
%TO.CMnt,SMD*%
%TO.CRot,-135*%
X116300000Y-67550000D03*
D11*
X117042460Y-67302513D02*
X116052513Y-68292460D01*
X115557540Y-67797487D01*
X116547487Y-66807540D01*
X117042460Y-67302513D01*
D12*
%TO.P,"C28","1"*%
X116526274Y-67323726D03*
D13*
%TO.P,"C28","2"*%
X116073726Y-67776274D03*
%TD*%
D10*
%TO.C,"C52"*%
%TO.CFtp,"C_0402_1005Metric"*%
%TO.CVal,"1uF"*%
%TO.CLbN,"Capacitor_SMD"*%
%TO.CMnt,SMD*%
%TO.CRot,90*%
X122225000Y-55050000D03*
D11*
X122684999Y-55959999D02*
X121765001Y-55959999D01*
X121765001Y-54140001D01*
X122684999Y-54140001D01*
X122684999Y-55959999D01*
D12*
%TO.P,"C52","1"*%
X122225000Y-55530000D03*
D13*
%TO.P,"C52","2"*%
X122225000Y-54570000D03*
%TD*%
D10*
%TO.C,"C54"*%
%TO.CFtp,"C_0402_1005Metric"*%
%TO.CVal,"2.2uF"*%
%TO.CLbN,"Capacitor_SMD"*%
%TO.CMnt,SMD*%
%TO.CRot,180*%
X121000000Y-59410000D03*
D11*
X121909999Y-59869999D02*
X120090001Y-59869999D01*
X120090001Y-58950001D01*
X121909999Y-58950001D01*
X121909999Y-59869999D01*
D12*
%TO.P,"C54","1"*%
X121480000Y-59410000D03*
D13*
%TO.P,"C54","2"*%
X120520000Y-59410000D03*
%TD*%
D10*
%TO.C,"U2"*%
%TO.CFtp,"TRIAD_BGA-9_3x3_1.7x1.7mm"*%
%TO.CVal,"TS4231"*%
%TO.CLbN,"jonnew"*%
%TO.CMnt,SMD*%
%TO.CRot,-90*%
X116500000Y-59000000D03*
D11*
X117599999Y-60099999D02*
X115400001Y-60099999D01*
X115400001Y-57900001D01*
X117599999Y-57900001D01*
X117599999Y-60099999D01*
D12*
%TO.P,"U2","A1","AVDD"*%
X116000000Y-58500000D03*
D13*
%TO.P,"U2","A2","IIN+"*%
X116000000Y-59000000D03*
%TO.P,"U2","A3","IIN-"*%
X116000000Y-59500000D03*
%TO.P,"U2","B1","RBIAS"*%
X116500000Y-58500000D03*
%TO.P,"U2","B2","AVSS"*%
X116500000Y-59000000D03*
%TO.P,"U2","B3","AVSS"*%
X116500000Y-59500000D03*
%TO.P,"U2","C1","D/CFGDATA"*%
X117000000Y-58500000D03*
%TO.P,"U2","C2","E/CFGCLK"*%
X117000000Y-59000000D03*
%TO.P,"U2","C3","DVDD"*%
X117000000Y-59500000D03*
%TD*%
D10*
%TO.C,"U11"*%
%TO.CFtp,"WINBOND_USON8-2x3x0.6"*%
%TO.CVal,"W25Q80EWUXIE"*%
%TO.CLbN,"jonnew"*%
%TO.CMnt,SMD*%
%TO.CRot,90*%
X127650000Y-58000000D03*
D11*
X128749999Y-59899999D02*
X126550001Y-59899999D01*
X126550001Y-56100001D01*
X128749999Y-56100001D01*
X128749999Y-59899999D01*
D12*
%TO.P,"U11","1","~{CS}"*%
X128400000Y-59250000D03*
D13*
%TO.P,"U11","2","DO/IO_{1}"*%
X127900000Y-59250000D03*
%TO.P,"U11","3","~{WP}/IO_{2}"*%
X127400000Y-59250000D03*
%TO.P,"U11","4","GND"*%
X126900000Y-59250000D03*
%TO.P,"U11","5","DI/IO_{0}"*%
X126900000Y-56750000D03*
%TO.P,"U11","6","CLK"*%
X127400000Y-56750000D03*
%TO.P,"U11","7","~{HOLD}/IO_{3}"*%
X127900000Y-56750000D03*
%TO.P,"U11","8","VCC"*%
X128400000Y-56750000D03*
%TO.P,"U11","9","GND"*%
X127650000Y-58000000D03*
%TD*%
D10*
%TO.C,"R2"*%
%TO.CFtp,"R_0201_0603Metric"*%
%TO.CVal,"1.2k"*%
%TO.CLbN,"Resistor_SMD"*%
%TO.CMnt,SMD*%
%TO.CRot,180*%
X123425000Y-54350000D03*
D11*
X124124999Y-54699999D02*
X122725001Y-54699999D01*
X122725001Y-54000001D01*
X124124999Y-54000001D01*
X124124999Y-54699999D01*
D12*
%TO.P,"R2","1"*%
X123745000Y-54350000D03*
D13*
%TO.P,"R2","2"*%
X123105000Y-54350000D03*
%TD*%
D10*
%TO.C,"C55"*%
%TO.CFtp,"C_0402_1005Metric"*%
%TO.CVal,"2.2uF"*%
%TO.CLbN,"Capacitor_SMD"*%
%TO.CMnt,SMD*%
%TO.CRot,0*%
X124380000Y-55500000D03*
D11*
X125289999Y-55959999D02*
X123470001Y-55959999D01*
X123470001Y-55040001D01*
X125289999Y-55040001D01*
X125289999Y-55959999D01*
D12*
%TO.P,"C55","1"*%
X123900000Y-55500000D03*
D13*
%TO.P,"C55","2"*%
X124860000Y-55500000D03*
%TD*%
D10*
%TO.C,"L10"*%
%TO.CFtp,"L_0201_0603Metric"*%
%TO.CVal,"BLM03PX121SN1D"*%
%TO.CLbN,"Inductor_SMD"*%
%TO.CMnt,SMD*%
%TO.CRot,-90*%
X119500000Y-58650000D03*
D11*
X119849999Y-59349999D02*
X119150001Y-59349999D01*
X119150001Y-57950001D01*
X119849999Y-57950001D01*
X119849999Y-59349999D01*
D12*
%TO.P,"L10","1","1"*%
X119500000Y-58330000D03*
D13*
%TO.P,"L10","2","2"*%
X119500000Y-58970000D03*
%TD*%
D10*
%TO.C,"L13"*%
%TO.CFtp,"L_0201_0603Metric"*%
%TO.CVal,"BLM03PX121SN1D"*%
%TO.CLbN,"Inductor_SMD"*%
%TO.CMnt,SMD*%
%TO.CRot,180*%
X118425000Y-59500000D03*
D11*
X119124999Y-59849999D02*
X117725001Y-59849999D01*
X117725001Y-59150001D01*
X119124999Y-59150001D01*
X119124999Y-59849999D01*
D12*
%TO.P,"L13","1","1"*%
X118745000Y-59500000D03*
D13*
%TO.P,"L13","2","2"*%
X118105000Y-59500000D03*
%TD*%
D10*
%TO.C,"R22"*%
%TO.CFtp,"R_0201_0603Metric"*%
%TO.CVal,"4.7k"*%
%TO.CLbN,"Resistor_SMD"*%
%TO.CMnt,SMD*%
%TO.CRot,0*%
X125800000Y-58000000D03*
D11*
X126499999Y-58349999D02*
X125100001Y-58349999D01*
X125100001Y-57650001D01*
X126499999Y-57650001D01*
X126499999Y-58349999D01*
D12*
%TO.P,"R22","1"*%
X125480000Y-58000000D03*
D13*
%TO.P,"R22","2"*%
X126120000Y-58000000D03*
%TD*%
D10*
%TO.C,"C45"*%
%TO.CFtp,"C_0201_0603Metric"*%
%TO.CVal,"0.1uF"*%
%TO.CLbN,"Capacitor_SMD"*%
%TO.CMnt,SMD*%
%TO.CRot,0*%
X123400000Y-58400000D03*
D11*
X124099999Y-58749999D02*
X122700001Y-58749999D01*
X122700001Y-58050001D01*
X124099999Y-58050001D01*
X124099999Y-58749999D01*
D12*
%TO.P,"C45","1"*%
X123080000Y-58400000D03*
D13*
%TO.P,"C45","2"*%
X123720000Y-58400000D03*
%TD*%
D10*
%TO.C,"L16"*%
%TO.CFtp,"L_0201_0603Metric"*%
%TO.CVal,"BLM03PX121SN1D"*%
%TO.CLbN,"Inductor_SMD"*%
%TO.CMnt,SMD*%
%TO.CRot,180*%
X119150000Y-55350000D03*
D11*
X119849999Y-55699999D02*
X118450001Y-55699999D01*
X118450001Y-55000001D01*
X119849999Y-55000001D01*
X119849999Y-55699999D01*
D12*
%TO.P,"L16","1","1"*%
X119470000Y-55350000D03*
D13*
%TO.P,"L16","2","2"*%
X118830000Y-55350000D03*
%TD*%
D10*
%TO.C,"C23"*%
%TO.CFtp,"C_0402_1005Metric"*%
%TO.CVal,"1uF"*%
%TO.CLbN,"Capacitor_SMD"*%
%TO.CMnt,SMD*%
%TO.CRot,0*%
X117000000Y-57350000D03*
D11*
X117909999Y-57809999D02*
X116090001Y-57809999D01*
X116090001Y-56890001D01*
X117909999Y-56890001D01*
X117909999Y-57809999D01*
D12*
%TO.P,"C23","1"*%
X116520000Y-57350000D03*
D13*
%TO.P,"C23","2"*%
X117480000Y-57350000D03*
%TD*%
D10*
%TO.C,"C57"*%
%TO.CFtp,"C_0402_1005Metric"*%
%TO.CVal,"2.2uF"*%
%TO.CLbN,"Capacitor_SMD"*%
%TO.CMnt,SMD*%
%TO.CRot,-90*%
X120300000Y-57950000D03*
D11*
X120759999Y-58859999D02*
X119840001Y-58859999D01*
X119840001Y-57040001D01*
X120759999Y-57040001D01*
X120759999Y-58859999D01*
D12*
%TO.P,"C57","1"*%
X120300000Y-57470000D03*
D13*
%TO.P,"C57","2"*%
X120300000Y-58430000D03*
%TD*%
D10*
%TO.C,"C49"*%
%TO.CFtp,"C_0201_0603Metric"*%
%TO.CVal,"0.1uF"*%
%TO.CLbN,"Capacitor_SMD"*%
%TO.CMnt,SMD*%
%TO.CRot,180*%
X120625000Y-56600000D03*
D11*
X121324999Y-56949999D02*
X119925001Y-56949999D01*
X119925001Y-56250001D01*
X121324999Y-56250001D01*
X121324999Y-56949999D01*
D12*
%TO.P,"C49","1"*%
X120945000Y-56600000D03*
D13*
%TO.P,"C49","2"*%
X120305000Y-56600000D03*
%TD*%
D10*
%TO.C,"C47"*%
%TO.CFtp,"C_0201_0603Metric"*%
%TO.CVal,"0.1uF"*%
%TO.CLbN,"Capacitor_SMD"*%
%TO.CMnt,SMD*%
%TO.CRot,0*%
X124100000Y-56400000D03*
D11*
X124799999Y-56749999D02*
X123400001Y-56749999D01*
X123400001Y-56050001D01*
X124799999Y-56050001D01*
X124799999Y-56749999D01*
D12*
%TO.P,"C47","1"*%
X123780000Y-56400000D03*
D13*
%TO.P,"C47","2"*%
X124420000Y-56400000D03*
%TD*%
D10*
%TO.C,"C51"*%
%TO.CFtp,"C_0402_1005Metric"*%
%TO.CVal,"1uF"*%
%TO.CLbN,"Capacitor_SMD"*%
%TO.CMnt,SMD*%
%TO.CRot,-90*%
X121250000Y-57950000D03*
D11*
X121709999Y-58859999D02*
X120790001Y-58859999D01*
X120790001Y-57040001D01*
X121709999Y-57040001D01*
X121709999Y-58859999D01*
D12*
%TO.P,"C51","1"*%
X121250000Y-57470000D03*
D13*
%TO.P,"C51","2"*%
X121250000Y-58430000D03*
%TD*%
D10*
%TO.C,"C56"*%
%TO.CFtp,"C_0402_1005Metric"*%
%TO.CVal,"2.2uF"*%
%TO.CLbN,"Capacitor_SMD"*%
%TO.CMnt,SMD*%
%TO.CRot,180*%
X120850000Y-55800000D03*
D11*
X121759999Y-56259999D02*
X119940001Y-56259999D01*
X119940001Y-55340001D01*
X121759999Y-55340001D01*
X121759999Y-56259999D01*
D12*
%TO.P,"C56","1"*%
X121330000Y-55800000D03*
D13*
%TO.P,"C56","2"*%
X120370000Y-55800000D03*
%TD*%
D10*
%TO.C,"C44"*%
%TO.CFtp,"C_0201_0603Metric"*%
%TO.CVal,"0.1uF"*%
%TO.CLbN,"Capacitor_SMD"*%
%TO.CMnt,SMD*%
%TO.CRot,90*%
X123050000Y-55600000D03*
D11*
X123399999Y-56299999D02*
X122700001Y-56299999D01*
X122700001Y-54900001D01*
X123399999Y-54900001D01*
X123399999Y-56299999D01*
D12*
%TO.P,"C44","1"*%
X123050000Y-55920000D03*
D13*
%TO.P,"C44","2"*%
X123050000Y-55280000D03*
%TD*%
D10*
%TO.C,"C48"*%
%TO.CFtp,"C_0201_0603Metric"*%
%TO.CVal,"0.1uF"*%
%TO.CLbN,"Capacitor_SMD"*%
%TO.CMnt,SMD*%
%TO.CRot,-90*%
X122330000Y-56750000D03*
D11*
X122679999Y-57449999D02*
X121980001Y-57449999D01*
X121980001Y-56050001D01*
X122679999Y-56050001D01*
X122679999Y-57449999D01*
D12*
%TO.P,"C48","1"*%
X122330000Y-56430000D03*
D13*
%TO.P,"C48","2"*%
X122330000Y-57070000D03*
%TD*%
D10*
%TO.C,"U1"*%
%TO.CFtp,"INTAN_BGA-100_17x13_9.0x7.0mm"*%
%TO.CVal,"RHD2164"*%
%TO.CLbN,"jonnew"*%
%TO.CMnt,SMD*%
%TO.CRot,180*%
X123500000Y-68000000D03*
D11*
X128199999Y-71699999D02*
X118800001Y-71699999D01*
X118800001Y-64300001D01*
X128199999Y-64300001D01*
X128199999Y-71699999D01*
D12*
%TO.P,"U1","A1","Elec16"*%
X127500000Y-65000000D03*
D13*
%TO.P,"U1","A2","Elec18"*%
X127000000Y-65000000D03*
%TO.P,"U1","A3","Elec20"*%
X126500000Y-65000000D03*
%TO.P,"U1","A4","Elec22"*%
X126000000Y-65000000D03*
%TO.P,"U1","A5","Elec24"*%
X125500000Y-65000000D03*
%TO.P,"U1","A6","Elec26"*%
X125000000Y-65000000D03*
%TO.P,"U1","A7","Elec28"*%
X124500000Y-65000000D03*
%TO.P,"U1","A8","Elec30"*%
X124000000Y-65000000D03*
%TO.P,"U1","A9","Elec32"*%
X123500000Y-65000000D03*
%TO.P,"U1","A10","Elec33"*%
X123000000Y-65000000D03*
%TO.P,"U1","A11","Elec35"*%
X122500000Y-65000000D03*
%TO.P,"U1","A12","Elec37"*%
X122000000Y-65000000D03*
%TO.P,"U1","A13","Elec39"*%
X121500000Y-65000000D03*
%TO.P,"U1","A14","Elec41"*%
X121000000Y-65000000D03*
%TO.P,"U1","A15","Elec43"*%
X120500000Y-65000000D03*
%TO.P,"U1","A16","Elec45"*%
X120000000Y-65000000D03*
%TO.P,"U1","A17","Elec47"*%
X119500000Y-65000000D03*
%TO.P,"U1","B1","Elec15"*%
X127500000Y-65500000D03*
%TO.P,"U1","B2","Elec17"*%
X127000000Y-65500000D03*
%TO.P,"U1","B3","Elec19"*%
X126500000Y-65500000D03*
%TO.P,"U1","B4","Elec21"*%
X126000000Y-65500000D03*
%TO.P,"U1","B5","Elec23"*%
X125500000Y-65500000D03*
%TO.P,"U1","B6","Elec25"*%
X125000000Y-65500000D03*
%TO.P,"U1","B7","Elec27"*%
X124500000Y-65500000D03*
%TO.P,"U1","B8","Elec29"*%
X124000000Y-65500000D03*
%TO.P,"U1","B9","Elec31"*%
X123500000Y-65500000D03*
%TO.P,"U1","B10","Elec34"*%
X123000000Y-65500000D03*
%TO.P,"U1","B11","Elec36"*%
X122500000Y-65500000D03*
%TO.P,"U1","B12","Elec38"*%
X122000000Y-65500000D03*
%TO.P,"U1","B13","Elec40"*%
X121500000Y-65500000D03*
%TO.P,"U1","B14","Elec42"*%
X121000000Y-65500000D03*
%TO.P,"U1","B15","Elec44"*%
X120500000Y-65500000D03*
%TO.P,"U1","B16","Elec46"*%
X120000000Y-65500000D03*
%TO.P,"U1","B17","Elec48"*%
X119500000Y-65500000D03*
%TO.P,"U1","C1","Elec13"*%
X127500000Y-66000000D03*
%TO.P,"U1","C2","Elec14"*%
X127000000Y-66000000D03*
%TO.P,"U1","C16","Elec49"*%
X120000000Y-66000000D03*
%TO.P,"U1","C17","Elec50"*%
X119500000Y-66000000D03*
%TO.P,"U1","D1","Elec11"*%
X127500000Y-66500000D03*
%TO.P,"U1","D2","Elec12"*%
X127000000Y-66500000D03*
%TO.P,"U1","D16","Elec51"*%
X120000000Y-66500000D03*
%TO.P,"U1","D17","Elec52"*%
X119500000Y-66500000D03*
%TO.P,"U1","E1","Elec9"*%
X127500000Y-67000000D03*
%TO.P,"U1","E2","Elec10"*%
X127000000Y-67000000D03*
%TO.P,"U1","E16","Elec53"*%
X120000000Y-67000000D03*
%TO.P,"U1","E17","Elec54"*%
X119500000Y-67000000D03*
%TO.P,"U1","F1","Elec7"*%
X127500000Y-67500000D03*
%TO.P,"U1","F2","Elec8"*%
X127000000Y-67500000D03*
%TO.P,"U1","F16","Elec55"*%
X120000000Y-67500000D03*
%TO.P,"U1","F17","Elec56"*%
X119500000Y-67500000D03*
%TO.P,"U1","G1","Elec5"*%
X127500000Y-68000000D03*
%TO.P,"U1","G2","Elec6"*%
X127000000Y-68000000D03*
%TO.P,"U1","G16","Elec57"*%
X120000000Y-68000000D03*
%TO.P,"U1","G17","Elec58"*%
X119500000Y-68000000D03*
%TO.P,"U1","H1","Elec3"*%
X127500000Y-68500000D03*
%TO.P,"U1","H2","Elec4"*%
X127000000Y-68500000D03*
%TO.P,"U1","H16","Elec59"*%
X120000000Y-68500000D03*
%TO.P,"U1","H17","Elec60"*%
X119500000Y-68500000D03*
%TO.P,"U1","J1","Elec1"*%
X127500000Y-69000000D03*
%TO.P,"U1","J2","Elec2"*%
X127000000Y-69000000D03*
%TO.P,"U1","J16","Elec61"*%
X120000000Y-69000000D03*
%TO.P,"U1","J17","Elec62"*%
X119500000Y-69000000D03*
%TO.P,"U1","K1"*%
X127500000Y-69500000D03*
%TO.P,"U1","K2","Elec0"*%
X127000000Y-69500000D03*
%TO.P,"U1","K16","Elec63"*%
X120000000Y-69500000D03*
%TO.P,"U1","K17"*%
X119500000Y-69500000D03*
%TO.P,"U1","L1"*%
X127500000Y-70000000D03*
%TO.P,"U1","L2"*%
X127000000Y-70000000D03*
%TO.P,"U1","L16"*%
X120000000Y-70000000D03*
%TO.P,"U1","L17","ElecTest"*%
X119500000Y-70000000D03*
%TO.P,"U1","M1","ElecRef"*%
X127500000Y-70500000D03*
%TO.P,"U1","M2","VESD"*%
X127000000Y-70500000D03*
%TO.P,"U1","M3"*%
X126500000Y-70500000D03*
%TO.P,"U1","M4"*%
X126000000Y-70500000D03*
%TO.P,"U1","M5"*%
X125500000Y-70500000D03*
%TO.P,"U1","M6"*%
X125000000Y-70500000D03*
%TO.P,"U1","M7"*%
X124500000Y-70500000D03*
%TO.P,"U1","M8"*%
X124000000Y-70500000D03*
%TO.P,"U1","M9"*%
X123500000Y-70500000D03*
%TO.P,"U1","M10"*%
X123000000Y-70500000D03*
%TO.P,"U1","M11"*%
X122500000Y-70500000D03*
%TO.P,"U1","M12"*%
X122000000Y-70500000D03*
%TO.P,"U1","M13"*%
X121500000Y-70500000D03*
%TO.P,"U1","M14"*%
X121000000Y-70500000D03*
%TO.P,"U1","M15","VDD"*%
X120500000Y-70500000D03*
%TO.P,"U1","M16","LVDSEn"*%
X120000000Y-70500000D03*
%TO.P,"U1","M17","GND"*%
X119500000Y-70500000D03*
%TO.P,"U1","N1","GND"*%
X127500000Y-71000000D03*
%TO.P,"U1","N2","VDD"*%
X127000000Y-71000000D03*
%TO.P,"U1","N3","AUXIN1"*%
X126500000Y-71000000D03*
%TO.P,"U1","N4","AUXIN2"*%
X126000000Y-71000000D03*
%TO.P,"U1","N5","AUXIN3"*%
X125500000Y-71000000D03*
%TO.P,"U1","N6","GND"*%
X125000000Y-71000000D03*
%TO.P,"U1","N7","~{CS-}"*%
X124500000Y-71000000D03*
%TO.P,"U1","N8","~{CS+}"*%
X124000000Y-71000000D03*
%TO.P,"U1","N9","SCLK-"*%
X123500000Y-71000000D03*
%TO.P,"U1","N10","SCLK+"*%
X123000000Y-71000000D03*
%TO.P,"U1","N11","MOSI-"*%
X122500000Y-71000000D03*
%TO.P,"U1","N12","MOSI+"*%
X122000000Y-71000000D03*
%TO.P,"U1","N13","MISO-"*%
X121500000Y-71000000D03*
%TO.P,"U1","N14","MISO+"*%
X121000000Y-71000000D03*
%TO.P,"U1","N15","VDD"*%
X120500000Y-71000000D03*
%TO.P,"U1","N16","AUXOUT"*%
X120000000Y-71000000D03*
%TO.P,"U1","N17","ADCRef"*%
X119500000Y-71000000D03*
%TD*%
D10*
%TO.C,"R1"*%
%TO.CFtp,"R_0201_0603Metric"*%
%TO.CVal,"1.2k"*%
%TO.CLbN,"Resistor_SMD"*%
%TO.CMnt,SMD*%
%TO.CRot,180*%
X124875000Y-54350000D03*
D11*
X125574999Y-54699999D02*
X124175001Y-54699999D01*
X124175001Y-54000001D01*
X125574999Y-54000001D01*
X125574999Y-54699999D01*
D12*
%TO.P,"R1","1"*%
X125195000Y-54350000D03*
D13*
%TO.P,"R1","2"*%
X124555000Y-54350000D03*
%TD*%
D10*
%TO.C,"L12"*%
%TO.CFtp,"L_0201_0603Metric"*%
%TO.CVal,"BLM03PX121SN1D"*%
%TO.CLbN,"Inductor_SMD"*%
%TO.CMnt,SMD*%
%TO.CRot,90*%
X125000000Y-59350000D03*
D11*
X125349999Y-60049999D02*
X124650001Y-60049999D01*
X124650001Y-58650001D01*
X125349999Y-58650001D01*
X125349999Y-60049999D01*
D12*
%TO.P,"L12","1","1"*%
X125000000Y-59670000D03*
D13*
%TO.P,"L12","2","2"*%
X125000000Y-59030000D03*
%TD*%
D10*
%TO.C,"C42"*%
%TO.CFtp,"C_0201_0603Metric"*%
%TO.CVal,"0.1uF"*%
%TO.CLbN,"Capacitor_SMD"*%
%TO.CMnt,SMD*%
%TO.CRot,-90*%
X129100000Y-56950000D03*
D11*
X129449999Y-57649999D02*
X128750001Y-57649999D01*
X128750001Y-56250001D01*
X129449999Y-56250001D01*
X129449999Y-57649999D01*
D12*
%TO.P,"C42","1"*%
X129100000Y-56630000D03*
D13*
%TO.P,"C42","2"*%
X129100000Y-57270000D03*
%TD*%
D10*
%TO.C,"C58"*%
%TO.CFtp,"C_0201_0603Metric"*%
%TO.CVal,"10nF"*%
%TO.CLbN,"Capacitor_SMD"*%
%TO.CMnt,SMD*%
%TO.CRot,180*%
X118375000Y-58350000D03*
D11*
X119074999Y-58699999D02*
X117675001Y-58699999D01*
X117675001Y-58000001D01*
X119074999Y-58000001D01*
X119074999Y-58699999D01*
D12*
%TO.P,"C58","1"*%
X118695000Y-58350000D03*
D13*
%TO.P,"C58","2"*%
X118055000Y-58350000D03*
%TD*%
D10*
%TO.C,"L11"*%
%TO.CFtp,"L_0201_0603Metric"*%
%TO.CVal,"BLM03PX121SN1D"*%
%TO.CLbN,"Inductor_SMD"*%
%TO.CMnt,SMD*%
%TO.CRot,90*%
X121375000Y-54575000D03*
D11*
X121724999Y-55274999D02*
X121025001Y-55274999D01*
X121025001Y-53875001D01*
X121724999Y-53875001D01*
X121724999Y-55274999D01*
D12*
%TO.P,"L11","1","1"*%
X121375000Y-54895000D03*
D13*
%TO.P,"L11","2","2"*%
X121375000Y-54255000D03*
%TD*%
D10*
%TO.C,"C30"*%
%TO.CFtp,"C_0201_0603Metric"*%
%TO.CVal,"1uF"*%
%TO.CLbN,"Capacitor_SMD"*%
%TO.CMnt,SMD*%
%TO.CRot,135*%
X116800000Y-68700000D03*
D11*
X117542460Y-68947487D02*
X117047487Y-69442460D01*
X116057540Y-68452513D01*
X116552513Y-67957540D01*
X117542460Y-68947487D01*
D12*
%TO.P,"C30","1"*%
X117026274Y-68926274D03*
D13*
%TO.P,"C30","2"*%
X116573726Y-68473726D03*
%TD*%
D10*
%TO.C,"L15"*%
%TO.CFtp,"L_0201_0603Metric"*%
%TO.CVal,"BLM03PX121SN1D"*%
%TO.CLbN,"Inductor_SMD"*%
%TO.CMnt,SMD*%
%TO.CRot,180*%
X120330000Y-54610000D03*
D11*
X121029999Y-54959999D02*
X119630001Y-54959999D01*
X119630001Y-54260001D01*
X121029999Y-54260001D01*
X121029999Y-54959999D01*
D12*
%TO.P,"L15","1","1"*%
X120650000Y-54610000D03*
D13*
%TO.P,"L15","2","2"*%
X120010000Y-54610000D03*
%TD*%
D10*
%TO.C,"C19"*%
%TO.CFtp,"C_0201_0603Metric"*%
%TO.CVal,"0.1uF"*%
%TO.CLbN,"Capacitor_SMD"*%
%TO.CMnt,SMD*%
%TO.CRot,-45*%
X118000000Y-68725000D03*
D11*
X118742460Y-68972487D02*
X118247487Y-69467460D01*
X117257540Y-68477513D01*
X117752513Y-67982540D01*
X118742460Y-68972487D01*
D12*
%TO.P,"C19","1"*%
X117773726Y-68498726D03*
D13*
%TO.P,"C19","2"*%
X118226274Y-68951274D03*
%TD*%
D10*
%TO.C,"U6"*%
%TO.CFtp,"TRIAD_BGA-9_3x3_1.7x1.7mm"*%
%TO.CVal,"TS4231"*%
%TO.CLbN,"jonnew"*%
%TO.CMnt,SMD*%
%TO.CRot,0*%
X130000000Y-58850000D03*
D11*
X131099999Y-59949999D02*
X128900001Y-59949999D01*
X128900001Y-57750001D01*
X131099999Y-57750001D01*
X131099999Y-59949999D01*
D12*
%TO.P,"U6","A1","AVDD"*%
X129500000Y-59350000D03*
D13*
%TO.P,"U6","A2","IIN+"*%
X130000000Y-59350000D03*
%TO.P,"U6","A3","IIN-"*%
X130500000Y-59350000D03*
%TO.P,"U6","B1","RBIAS"*%
X129500000Y-58850000D03*
%TO.P,"U6","B2","AVSS"*%
X130000000Y-58850000D03*
%TO.P,"U6","B3","AVSS"*%
X130500000Y-58850000D03*
%TO.P,"U6","C1","D/CFGDATA"*%
X129500000Y-58350000D03*
%TO.P,"U6","C2","E/CFGCLK"*%
X130000000Y-58350000D03*
%TO.P,"U6","C3","DVDD"*%
X130500000Y-58350000D03*
%TD*%
D10*
%TO.C,"C53"*%
%TO.CFtp,"C_0402_1005Metric"*%
%TO.CVal,"2.2uF"*%
%TO.CLbN,"Capacitor_SMD"*%
%TO.CMnt,SMD*%
%TO.CRot,0*%
X123600000Y-59250000D03*
D11*
X124509999Y-59709999D02*
X122690001Y-59709999D01*
X122690001Y-58790001D01*
X124509999Y-58790001D01*
X124509999Y-59709999D01*
D12*
%TO.P,"C53","1"*%
X123120000Y-59250000D03*
D13*
%TO.P,"C53","2"*%
X124080000Y-59250000D03*
%TD*%
D10*
%TO.C,"C50"*%
%TO.CFtp,"C_0402_1005Metric"*%
%TO.CVal,"10uF"*%
%TO.CLbN,"Capacitor_SMD"*%
%TO.CMnt,SMD*%
%TO.CRot,-90*%
X124590000Y-57760000D03*
D11*
X125049999Y-58669999D02*
X124130001Y-58669999D01*
X124130001Y-56850001D01*
X125049999Y-56850001D01*
X125049999Y-58669999D01*
D12*
%TO.P,"C50","1"*%
X124590000Y-57280000D03*
D13*
%TO.P,"C50","2"*%
X124590000Y-58240000D03*
%TD*%
D10*
%TO.C,"U13"*%
%TO.CFtp,"ONSEMI_567JZ_WLCSP4-0.64x0.64"*%
%TO.CVal,"NCP163AFCT330T2G"*%
%TO.CLbN,"jonnew"*%
%TO.CMnt,SMD*%
%TO.CRot,-45*%
X117100000Y-67850000D03*
D11*
X117594973Y-67850000D02*
X117100000Y-68344973D01*
X116605027Y-67850000D01*
X117100000Y-67355027D01*
X117594973Y-67850000D01*
D12*
%TO.P,"U13","A1","VIN"*%
X116852513Y-67850000D03*
D13*
%TO.P,"U13","A2","VOUT"*%
X117100000Y-68097487D03*
%TO.P,"U13","B1","EN"*%
X117100000Y-67602513D03*
%TO.P,"U13","B2","GND"*%
X117347487Y-67850000D03*
%TD*%
D10*
%TO.C,"J2"*%
%TO.CFtp,"HIROSE_DF40C70DP04V51"*%
%TO.CVal,"DF40C-70DP-0.4V(51)"*%
%TO.CLbN,"jonnew"*%
%TO.CMnt,SMD*%
%TO.CRot,180*%
X123500000Y-62000000D03*
D11*
X131899999Y-63899999D02*
X115100001Y-63899999D01*
X115100001Y-60100001D01*
X131899999Y-60100001D01*
X131899999Y-63899999D01*
D12*
%TO.P,"J2","1","Pin_1"*%
X130300000Y-63355000D03*
D13*
%TO.P,"J2","2","Pin_2"*%
X130300000Y-60645000D03*
%TO.P,"J2","3","Pin_3"*%
X129900000Y-63355000D03*
%TO.P,"J2","4","Pin_4"*%
X129900000Y-60645000D03*
%TO.P,"J2","5","Pin_5"*%
X129500000Y-63355000D03*
%TO.P,"J2","6","Pin_6"*%
X129500000Y-60645000D03*
%TO.P,"J2","7","Pin_7"*%
X129100000Y-63355000D03*
%TO.P,"J2","8","Pin_8"*%
X129100000Y-60645000D03*
%TO.P,"J2","9","Pin_9"*%
X128700000Y-63355000D03*
%TO.P,"J2","10","Pin_10"*%
X128700000Y-60645000D03*
%TO.P,"J2","11","Pin_11"*%
X128300000Y-63355000D03*
%TO.P,"J2","12","Pin_12"*%
X128300000Y-60645000D03*
%TO.P,"J2","13","Pin_13"*%
X127900000Y-63355000D03*
%TO.P,"J2","14","Pin_14"*%
X127900000Y-60645000D03*
%TO.P,"J2","15","Pin_15"*%
X127500000Y-63355000D03*
%TO.P,"J2","16","Pin_16"*%
X127500000Y-60645000D03*
%TO.P,"J2","17","Pin_17"*%
X127100000Y-63355000D03*
%TO.P,"J2","18","Pin_18"*%
X127100000Y-60645000D03*
%TO.P,"J2","19","Pin_19"*%
X126700000Y-63355000D03*
%TO.P,"J2","20","Pin_20"*%
X126700000Y-60645000D03*
%TO.P,"J2","21","Pin_21"*%
X126300000Y-63355000D03*
%TO.P,"J2","22","Pin_22"*%
X126300000Y-60645000D03*
%TO.P,"J2","23","Pin_23"*%
X125900000Y-63355000D03*
%TO.P,"J2","24","Pin_24"*%
X125900000Y-60645000D03*
%TO.P,"J2","25","Pin_25"*%
X125500000Y-63355000D03*
%TO.P,"J2","26","Pin_26"*%
X125500000Y-60645000D03*
%TO.P,"J2","27","Pin_27"*%
X125100000Y-63355000D03*
%TO.P,"J2","28","Pin_28"*%
X125100000Y-60645000D03*
%TO.P,"J2","29","Pin_29"*%
X124700000Y-63355000D03*
%TO.P,"J2","30","Pin_30"*%
X124700000Y-60645000D03*
%TO.P,"J2","31","Pin_31"*%
X124300000Y-63355000D03*
%TO.P,"J2","32","Pin_32"*%
X124300000Y-60645000D03*
%TO.P,"J2","33","Pin_33"*%
X123900000Y-63355000D03*
%TO.P,"J2","34","Pin_34"*%
X123900000Y-60645000D03*
%TO.P,"J2","35","Pin_35"*%
X123500000Y-63355000D03*
%TO.P,"J2","36","Pin_36"*%
X123500000Y-60645000D03*
%TO.P,"J2","37","Pin_37"*%
X123100000Y-63355000D03*
%TO.P,"J2","38","Pin_38"*%
X123100000Y-60645000D03*
%TO.P,"J2","39","Pin_39"*%
X122700000Y-63355000D03*
%TO.P,"J2","40","Pin_40"*%
X122700000Y-60645000D03*
%TO.P,"J2","41","Pin_41"*%
X122300000Y-63355000D03*
%TO.P,"J2","42","Pin_42"*%
X122300000Y-60645000D03*
%TO.P,"J2","43","Pin_43"*%
X121900000Y-63355000D03*
%TO.P,"J2","44","Pin_44"*%
X121900000Y-60645000D03*
%TO.P,"J2","45","Pin_45"*%
X121500000Y-63355000D03*
%TO.P,"J2","46","Pin_46"*%
X121500000Y-60645000D03*
%TO.P,"J2","47","Pin_47"*%
X121100000Y-63355000D03*
%TO.P,"J2","48","Pin_48"*%
X121100000Y-60645000D03*
%TO.P,"J2","49","Pin_49"*%
X120700000Y-63355000D03*
%TO.P,"J2","50","Pin_50"*%
X120700000Y-60645000D03*
%TO.P,"J2","51","Pin_51"*%
X120300000Y-63355000D03*
%TO.P,"J2","52","Pin_52"*%
X120300000Y-60645000D03*
%TO.P,"J2","53","Pin_53"*%
X119900000Y-63355000D03*
%TO.P,"J2","54","Pin_54"*%
X119900000Y-60645000D03*
%TO.P,"J2","55","Pin_55"*%
X119500000Y-63355000D03*
%TO.P,"J2","56","Pin_56"*%
X119500000Y-60645000D03*
%TO.P,"J2","57","Pin_57"*%
X119100000Y-63355000D03*
%TO.P,"J2","58","Pin_58"*%
X119100000Y-60645000D03*
%TO.P,"J2","59","Pin_59"*%
X118700000Y-63355000D03*
%TO.P,"J2","60","Pin_60"*%
X118700000Y-60645000D03*
%TO.P,"J2","61","Pin_61"*%
X118300000Y-63355000D03*
%TO.P,"J2","62","Pin_62"*%
X118300000Y-60645000D03*
%TO.P,"J2","63","Pin_63"*%
X117900000Y-63355000D03*
%TO.P,"J2","64","Pin_64"*%
X117900000Y-60645000D03*
%TO.P,"J2","65","Pin_65"*%
X117500000Y-63355000D03*
%TO.P,"J2","66","Pin_66"*%
X117500000Y-60645000D03*
%TO.P,"J2","67","Pin_67"*%
X117100000Y-63355000D03*
%TO.P,"J2","68","Pin_68"*%
X117100000Y-60645000D03*
%TO.P,"J2","69","Pin_69"*%
X116700000Y-63355000D03*
%TO.P,"J2","70","Pin_70"*%
X116700000Y-60645000D03*
%TO.P,"J2","MP1","MountPin1"*%
X130775000Y-63355000D03*
%TO.P,"J2","MP2","MountPin2"*%
X130775000Y-60645000D03*
%TO.P,"J2","MP3","MountPin3"*%
X116225000Y-63355000D03*
%TO.P,"J2","MP4","MountPin4"*%
X116225000Y-60645000D03*
%TD*%
D10*
%TO.C,"C22"*%
%TO.CFtp,"C_0201_0603Metric"*%
%TO.CVal,"10nF"*%
%TO.CLbN,"Capacitor_SMD"*%
%TO.CMnt,SMD*%
%TO.CRot,135*%
X117775000Y-69900000D03*
D11*
X118517460Y-70147487D02*
X118022487Y-70642460D01*
X117032540Y-69652513D01*
X117527513Y-69157540D01*
X118517460Y-70147487D01*
D12*
%TO.P,"C22","1"*%
X118001274Y-70126274D03*
D13*
%TO.P,"C22","2"*%
X117548726Y-69673726D03*
%TD*%
D10*
%TO.C,"U12"*%
%TO.CFtp,"MICROCHIP_VFLGA4-2.0x1.6"*%
%TO.CVal,"DSC6011JI1A-050.0000"*%
%TO.CLbN,"jonnew"*%
%TO.CMnt,SMD*%
%TO.CRot,0*%
X118825000Y-56850000D03*
D11*
X119724999Y-57949999D02*
X117925001Y-57949999D01*
X117925001Y-55750001D01*
X119724999Y-55750001D01*
X119724999Y-57949999D01*
D12*
%TO.P,"U12","1","EN"*%
X118350000Y-57575000D03*
D13*
%TO.P,"U12","2","GND"*%
X118350000Y-56075000D03*
%TO.P,"U12","3","OUT"*%
X119300000Y-56075000D03*
%TO.P,"U12","4","VCC"*%
X119300000Y-57625000D03*
%TD*%
D10*
%TO.C,"L14"*%
%TO.CFtp,"L_0201_0603Metric"*%
%TO.CVal,"BLM03PX121SN1D"*%
%TO.CLbN,"Inductor_SMD"*%
%TO.CMnt,SMD*%
%TO.CRot,0*%
X125500000Y-56500000D03*
D11*
X126199999Y-56849999D02*
X124800001Y-56849999D01*
X124800001Y-56150001D01*
X126199999Y-56150001D01*
X126199999Y-56849999D01*
D12*
%TO.P,"L14","1","1"*%
X125180000Y-56500000D03*
D13*
%TO.P,"L14","2","2"*%
X125820000Y-56500000D03*
%TD*%
D10*
%TO.C,"R21"*%
%TO.CFtp,"R_0201_0603Metric"*%
%TO.CVal,"4.7k"*%
%TO.CLbN,"Resistor_SMD"*%
%TO.CMnt,SMD*%
%TO.CRot,0*%
X125800000Y-57300000D03*
D11*
X126499999Y-57649999D02*
X125100001Y-57649999D01*
X125100001Y-56950001D01*
X126499999Y-56950001D01*
X126499999Y-57649999D01*
D12*
%TO.P,"R21","1"*%
X125480000Y-57300000D03*
D13*
%TO.P,"R21","2"*%
X126120000Y-57300000D03*
%TD*%
D10*
%TO.C,"C46"*%
%TO.CFtp,"C_0201_0603Metric"*%
%TO.CVal,"0.1uF"*%
%TO.CLbN,"Capacitor_SMD"*%
%TO.CMnt,SMD*%
%TO.CRot,-90*%
X122300000Y-58690000D03*
D11*
X122649999Y-59389999D02*
X121950001Y-59389999D01*
X121950001Y-57990001D01*
X122649999Y-57990001D01*
X122649999Y-59389999D01*
D12*
%TO.P,"C46","1"*%
X122300000Y-58370000D03*
D13*
%TO.P,"C46","2"*%
X122300000Y-59010000D03*
%TD*%
M02*
