%TF.GenerationSoftware,KiCad,Pcbnew,(6.0.0)*%
%TF.CreationDate,2022-12-06T17:03:37-05:00*%
%TF.ProjectId,headstage-64s,68656164-7374-4616-9765-2d3634732e6b,B*%
%TF.SameCoordinates,Original*%
%TF.FileFunction,Copper,L5,Inr*%
%TF.FilePolarity,Positive*%
%FSLAX46Y46*%
G04 Gerber Fmt 4.6, Leading zero omitted, Abs format (unit mm)*
G04 Created by KiCad (PCBNEW (6.0.0)) date 2022-12-06 17:03:37*
%MOMM*%
%LPD*%
G01*
G04 APERTURE LIST*
G04 Aperture macros list*
%AMRoundRect*
0 Rectangle with rounded corners*
0 $1 Rounding radius*
0 $2 $3 $4 $5 $6 $7 $8 $9 X,Y pos of 4 corners*
0 Add a 4 corners polygon primitive as box body*
4,1,4,$2,$3,$4,$5,$6,$7,$8,$9,$2,$3,0*
0 Add four circle primitives for the rounded corners*
1,1,$1+$1,$2,$3*
1,1,$1+$1,$4,$5*
1,1,$1+$1,$6,$7*
1,1,$1+$1,$8,$9*
0 Add four rect primitives between the rounded corners*
20,1,$1+$1,$2,$3,$4,$5,0*
20,1,$1+$1,$4,$5,$6,$7,0*
20,1,$1+$1,$6,$7,$8,$9,0*
20,1,$1+$1,$8,$9,$2,$3,0*%
G04 Aperture macros list end*
%TA.AperFunction,ComponentPad*%
%ADD10RoundRect,0.250000X-0.600000X0.600000X-0.600000X-0.600000X0.600000X-0.600000X0.600000X0.600000X0*%
%TD*%
%TA.AperFunction,ComponentPad*%
%ADD11C,1.700000*%
%TD*%
%TA.AperFunction,ViaPad*%
%ADD12C,0.200000*%
%TD*%
%TA.AperFunction,ViaPad*%
%ADD13C,0.300000*%
%TD*%
%TA.AperFunction,Conductor*%
%ADD14C,0.200000*%
%TD*%
%TA.AperFunction,Conductor*%
%ADD15C,0.100000*%
%TD*%
%TA.AperFunction,Conductor*%
%ADD16C,0.300000*%
%TD*%
%TA.AperFunction,Conductor*%
%ADD17C,0.150000*%
%TD*%
%TA.AperFunction,Conductor*%
%ADD18C,0.076200*%
%TD*%
G04 APERTURE END LIST*
D10*
%TO.N,/FPGA/DO_{Flash}{slash}TCK*%
%TO.C,J3*%
X128580000Y-38247500D03*
D11*
%TO.N,GND*%
X128580000Y-40787500D03*
%TO.N,/FPGA/SCLK_{Flash}{slash}TDO*%
X126040000Y-38247500D03*
%TO.N,+1V8*%
X126040000Y-40787500D03*
%TO.N,/FPGA/DI_{Flash}{slash}TMS*%
X123500000Y-38247500D03*
%TO.N,/FPGA/~{CS}_{Flash}*%
X123500000Y-40787500D03*
%TO.N,unconnected-(J3-Pad7)*%
X120960000Y-38247500D03*
%TO.N,/FPGA/CRESET_{B}*%
X120960000Y-40787500D03*
%TO.N,/FPGA/TDI*%
X118420000Y-38247500D03*
%TO.N,GND*%
X118420000Y-40787500D03*
%TD*%
D12*
%TO.N,GND*%
X130700000Y-60125000D03*
D13*
X119500000Y-32000000D03*
D12*
X130280000Y-58600000D03*
X118500288Y-59876803D03*
X115433557Y-65722252D03*
X119950000Y-71450000D03*
X123900000Y-69400000D03*
D13*
X128500000Y-79000000D03*
D12*
X116575000Y-68025000D03*
X128400000Y-60000000D03*
X115425500Y-66663330D03*
D13*
X128575000Y-67712400D03*
D12*
X115200000Y-58775000D03*
D13*
X118500000Y-79000000D03*
D12*
X127000000Y-60100000D03*
D13*
X126300000Y-67725000D03*
D12*
X118200000Y-70700000D03*
X117540521Y-70000000D03*
D13*
X136500000Y-56000000D03*
D12*
X126175000Y-55200000D03*
X123675000Y-71525000D03*
X119101469Y-58134825D03*
X116189174Y-60913674D03*
X122000000Y-54800000D03*
X121600000Y-67600000D03*
X132496194Y-60843346D03*
X122100000Y-62725000D03*
D13*
X126310926Y-49005195D03*
X105500000Y-79000000D03*
X129325000Y-67725000D03*
D12*
X130275000Y-69375000D03*
D13*
X126500000Y-32000000D03*
D12*
X121600000Y-68600000D03*
D13*
X105500000Y-50000000D03*
D12*
X121100000Y-69300000D03*
X126300000Y-55975000D03*
D13*
X110500000Y-55000000D03*
D12*
X130050000Y-69625000D03*
X123900000Y-67900000D03*
D13*
X105500000Y-32000000D03*
D12*
X125275000Y-70750000D03*
D13*
X136500000Y-70000000D03*
X118000000Y-48500000D03*
D12*
X132600000Y-61150000D03*
X123917193Y-66770970D03*
X122198899Y-60097941D03*
X115500000Y-67750000D03*
X120400000Y-68200000D03*
X125300000Y-53900000D03*
X129851424Y-56948576D03*
X130817600Y-63125000D03*
X118550000Y-55980000D03*
X120900000Y-67400000D03*
X126700000Y-59150000D03*
X119425000Y-71325000D03*
X117675000Y-67950000D03*
X132600000Y-61600000D03*
X114510000Y-60830000D03*
X124776424Y-67898576D03*
D13*
X105500000Y-39000000D03*
D12*
X121300000Y-66600000D03*
D13*
X141500000Y-32000000D03*
D12*
X127625000Y-54700000D03*
X126600000Y-57300000D03*
X114500000Y-61300000D03*
X117777732Y-59948069D03*
X117340000Y-69230000D03*
X123225000Y-70200000D03*
X128400000Y-55300000D03*
X120950000Y-68550000D03*
X118800000Y-54900000D03*
X125276726Y-55229574D03*
X122950000Y-67875000D03*
X124910000Y-69575500D03*
X122900000Y-66900000D03*
X124725000Y-70200000D03*
X120551424Y-69248576D03*
D13*
X105500000Y-60000000D03*
D12*
X122800000Y-70725000D03*
X116150500Y-63150000D03*
X128620000Y-70780000D03*
D13*
X105500000Y-70000000D03*
D12*
X122925000Y-66000000D03*
X122725000Y-62675000D03*
D13*
X141500000Y-76000000D03*
D12*
X123892537Y-68916551D03*
X121920000Y-57950000D03*
D13*
X129350000Y-66775000D03*
D12*
X128699500Y-57738000D03*
X118475000Y-69325000D03*
X126236599Y-70744797D03*
D13*
X141500000Y-64000000D03*
D12*
X124000000Y-60100000D03*
X120752485Y-55749500D03*
X128642371Y-55574781D03*
D13*
X126325000Y-66500000D03*
D12*
X116296978Y-65722252D03*
X122800500Y-57356340D03*
X118590000Y-57120000D03*
X121600000Y-60000000D03*
X132520000Y-65100000D03*
D13*
X141500000Y-41000000D03*
D12*
X114370000Y-61740000D03*
D13*
X141500000Y-52000000D03*
D12*
X121700000Y-66900000D03*
D13*
X125285660Y-69375500D03*
X111500000Y-72000000D03*
D12*
X129700000Y-69950000D03*
X115474500Y-60922447D03*
X122125000Y-71275000D03*
X119040000Y-56990000D03*
%TO.N,+3V3*%
X123739716Y-53807436D03*
D13*
X115953044Y-68273956D03*
X117670000Y-55850000D03*
X115740000Y-58160000D03*
X130525000Y-57350000D03*
X115075000Y-66750000D03*
D12*
%TO.N,+1V8*%
X126200000Y-71850000D03*
D13*
X125620000Y-60010000D03*
X123400000Y-67875000D03*
X120600000Y-55150000D03*
D12*
X123400000Y-59790000D03*
X126350000Y-58550000D03*
X128370000Y-57320000D03*
D13*
X118470000Y-58840000D03*
D12*
%TO.N,/Ref*%
X129350000Y-70175000D03*
X130300000Y-60125000D03*
D13*
%TO.N,+1V2*%
X117775000Y-59300000D03*
D12*
X125350000Y-59000000D03*
D13*
X121726213Y-54221171D03*
X119900000Y-55050000D03*
D12*
X124560000Y-57720000D03*
X122727602Y-56829298D03*
%TO.N,Net-(C45-Pad1)*%
X123638923Y-58911077D03*
X124590000Y-59180000D03*
%TO.N,/Ephys/Elec0*%
X131528427Y-65819483D03*
X129900000Y-60100000D03*
%TO.N,/Ephys/Elec1*%
X129499718Y-60196853D03*
X131410000Y-66130000D03*
%TO.N,/Ephys/Elec2*%
X131090780Y-65847036D03*
X129131135Y-60295193D03*
%TO.N,/Ephys/Elec3*%
X130960000Y-66160000D03*
X128700000Y-60200000D03*
%TO.N,/Ephys/Elec60*%
X115100000Y-65800000D03*
X118825000Y-60100000D03*
%TO.N,/Ephys/Elec61*%
X114886200Y-65528344D03*
X118300000Y-60150000D03*
%TO.N,/Ephys/Elec62*%
X117891669Y-60225053D03*
X114672400Y-65300000D03*
%TO.N,/Ephys/Elec63*%
X114457706Y-65031852D03*
X117475000Y-60150000D03*
D13*
%TO.N,+3.3VA*%
X121049279Y-69700721D03*
X117710000Y-69080000D03*
%TD*%
D14*
%TO.N,+3V3*%
X124391671Y-53871671D02*
X123841671Y-53871671D01*
X126550000Y-54750000D02*
X125270000Y-54750000D01*
X126850000Y-55050000D02*
X126550000Y-54750000D01*
X125270000Y-54750000D02*
X124391671Y-53871671D01*
X128040000Y-55540000D02*
X127550000Y-55050000D01*
X128040000Y-56240000D02*
X128040000Y-55540000D01*
X129150000Y-57350000D02*
X128040000Y-56240000D01*
X127550000Y-55050000D02*
X126850000Y-55050000D01*
X130525000Y-57350000D02*
X129150000Y-57350000D01*
D15*
%TO.N,/Ref*%
X131230000Y-67900000D02*
X130140000Y-68990000D01*
X131230000Y-66840000D02*
X131230000Y-67900000D01*
X131820000Y-61645000D02*
X131820000Y-66250000D01*
X131820000Y-66250000D02*
X131230000Y-66840000D01*
X129350000Y-69500000D02*
X129350000Y-70175000D01*
X130300000Y-60125000D02*
X131820000Y-61645000D01*
X130140000Y-68990000D02*
X129860000Y-68990000D01*
X129860000Y-68990000D02*
X129350000Y-69500000D01*
D14*
%TO.N,+3V3*%
X117670000Y-55850000D02*
X117839511Y-55680489D01*
X115953044Y-68273956D02*
X115953044Y-67243044D01*
D16*
X117670000Y-55955000D02*
X115740000Y-57885000D01*
X115740000Y-57885000D02*
X115740000Y-58160000D01*
D14*
X115220614Y-66886273D02*
X115211273Y-66886273D01*
X123841651Y-53871651D02*
X123841671Y-53871671D01*
X121052101Y-54400988D02*
X121581438Y-53871651D01*
X119272500Y-54852500D02*
X119587500Y-54852500D01*
X117839511Y-55680489D02*
X118444511Y-55680489D01*
X118444511Y-55680489D02*
X119272500Y-54852500D01*
D16*
X117670000Y-55850000D02*
X117670000Y-55955000D01*
D14*
X115297170Y-66962830D02*
X115220614Y-66886273D01*
X115953044Y-67243044D02*
X115672830Y-66962830D01*
X115672830Y-66962830D02*
X115297170Y-66962830D01*
X121581438Y-53871651D02*
X123841651Y-53871651D01*
X120039012Y-54400988D02*
X121052101Y-54400988D01*
X119587500Y-54852500D02*
X120039012Y-54400988D01*
D15*
X123841671Y-53871671D02*
X123803951Y-53871671D01*
X123803951Y-53871671D02*
X123739716Y-53807436D01*
D14*
X115211273Y-66886273D02*
X115075000Y-66750000D01*
D16*
%TO.N,+1V8*%
X125620000Y-60010000D02*
X125190000Y-59580000D01*
X126350000Y-59200000D02*
X125620000Y-59930000D01*
X118710000Y-58840000D02*
X119065664Y-58484336D01*
X123400000Y-67900000D02*
X123400000Y-59900000D01*
X126600000Y-58750000D02*
X128030000Y-57320000D01*
D15*
X123400000Y-69475000D02*
X125050000Y-71125000D01*
D16*
X123400000Y-59600000D02*
X123420000Y-59580000D01*
X119065664Y-58484336D02*
X119415664Y-58484336D01*
X118470000Y-58840000D02*
X118710000Y-58840000D01*
X123420000Y-59580000D02*
X125170000Y-59580000D01*
X125190000Y-59580000D02*
X125170000Y-59580000D01*
X128030000Y-57320000D02*
X128370000Y-57320000D01*
D15*
X125475000Y-71125000D02*
X126200000Y-71850000D01*
X123400000Y-59790000D02*
X123400000Y-59900000D01*
D16*
X121030000Y-59580000D02*
X119775000Y-58325000D01*
X126350000Y-59000000D02*
X126350000Y-59200000D01*
D15*
X123400000Y-67875000D02*
X123400000Y-69475000D01*
D16*
X123420000Y-59580000D02*
X121030000Y-59580000D01*
D14*
X126550000Y-58750000D02*
X126600000Y-58750000D01*
X126350000Y-58550000D02*
X126550000Y-58750000D01*
D16*
X123400000Y-59900000D02*
X123400000Y-59600000D01*
X119675000Y-58225000D02*
X119675000Y-56075000D01*
D15*
X125050000Y-71125000D02*
X125475000Y-71125000D01*
D16*
X119675000Y-56075000D02*
X120600000Y-55150000D01*
X119775000Y-58325000D02*
X119675000Y-58225000D01*
X119415664Y-58484336D02*
X119600000Y-58300000D01*
X126600000Y-58750000D02*
X126350000Y-59000000D01*
X125620000Y-59930000D02*
X125620000Y-60010000D01*
D14*
%TO.N,+1V2*%
X118889511Y-56100489D02*
X119080000Y-55910000D01*
D16*
X117590000Y-59115000D02*
X117590000Y-56685000D01*
D14*
X125350000Y-58990000D02*
X124560000Y-58200000D01*
X125350000Y-59000000D02*
X125350000Y-58990000D01*
D16*
X117590000Y-56685000D02*
X117862500Y-56412500D01*
X121069295Y-54925000D02*
X120894794Y-54750499D01*
X121726213Y-54221171D02*
X121726213Y-54268082D01*
D14*
X118859511Y-56100489D02*
X118889511Y-56100489D01*
D16*
X123114855Y-57685145D02*
X123114855Y-58185145D01*
D14*
X124560000Y-58200000D02*
X124560000Y-57720000D01*
D16*
X117775000Y-59300000D02*
X117590000Y-59115000D01*
X124350000Y-58350000D02*
X124500000Y-58200000D01*
X123114855Y-58185145D02*
X123279710Y-58350000D01*
D14*
X123139855Y-57660145D02*
X123139855Y-57241551D01*
D16*
X121300000Y-55825000D02*
X121300000Y-55155705D01*
D17*
X122727602Y-56827602D02*
X122351981Y-56451981D01*
D14*
X122351981Y-56425000D02*
X121900000Y-56425000D01*
D17*
X122351981Y-56451981D02*
X122351981Y-56425000D01*
D14*
X123139855Y-57241551D02*
X123114855Y-57216551D01*
D16*
X120894794Y-54750499D02*
X120199501Y-54750499D01*
X120199501Y-54750499D02*
X119900000Y-55050000D01*
D14*
X123114855Y-57216551D02*
X122727602Y-56829298D01*
X118547500Y-56412500D02*
X118859511Y-56100489D01*
D16*
X123279710Y-58350000D02*
X124300000Y-58350000D01*
X124300000Y-58350000D02*
X124350000Y-58350000D01*
D14*
X123114855Y-57685145D02*
X123139855Y-57660145D01*
D16*
X121726213Y-54268082D02*
X121069295Y-54925000D01*
X119080000Y-55910000D02*
X119900000Y-55090000D01*
X117862500Y-56412500D02*
X118547500Y-56412500D01*
D14*
X121900000Y-56425000D02*
X121300000Y-55825000D01*
D16*
X121300000Y-55155705D02*
X121069295Y-54925000D01*
D14*
%TO.N,Net-(C45-Pad1)*%
X124590000Y-59180000D02*
X124321077Y-58911077D01*
X124321077Y-58911077D02*
X123638923Y-58911077D01*
D18*
%TO.N,/Ephys/Elec0*%
X131528427Y-61728427D02*
X131528427Y-65819483D01*
X129900000Y-60100000D02*
X131528427Y-61728427D01*
%TO.N,/Ephys/Elec1*%
X131313801Y-66033801D02*
X131313801Y-62010936D01*
X131313801Y-62010936D02*
X129499718Y-60196853D01*
X131410000Y-66130000D02*
X131313801Y-66033801D01*
%TO.N,/Ephys/Elec2*%
X131100000Y-62264058D02*
X129131135Y-60295193D01*
X131090780Y-65847036D02*
X131100000Y-65837816D01*
X131100000Y-65837816D02*
X131100000Y-62264058D01*
%TO.N,/Ephys/Elec3*%
X128700000Y-60250000D02*
X128700000Y-60200000D01*
X130960000Y-66160000D02*
X130580000Y-65780000D01*
X130580000Y-65780000D02*
X130580000Y-62130000D01*
X130580000Y-62130000D02*
X128700000Y-60250000D01*
%TO.N,/Ephys/Elec60*%
X118700000Y-60100000D02*
X115100000Y-63700000D01*
X115100000Y-63700000D02*
X115100000Y-65800000D01*
X118825000Y-60100000D02*
X118700000Y-60100000D01*
%TO.N,/Ephys/Elec61*%
X114886200Y-63513800D02*
X114886200Y-65528344D01*
X118021533Y-60428467D02*
X117971533Y-60428467D01*
X118300000Y-60150000D02*
X118021533Y-60428467D01*
X117971533Y-60428467D02*
X114886200Y-63513800D01*
%TO.N,/Ephys/Elec62*%
X114672400Y-63327600D02*
X117774947Y-60225053D01*
X117774947Y-60225053D02*
X117891669Y-60225053D01*
X114672400Y-65300000D02*
X114672400Y-63327600D01*
%TO.N,/Ephys/Elec63*%
X117425000Y-60150000D02*
X114457706Y-63117294D01*
X114457706Y-63117294D02*
X114457706Y-65031852D01*
X117475000Y-60150000D02*
X117425000Y-60150000D01*
D14*
%TO.N,+3.3VA*%
X117710000Y-69080000D02*
X118330721Y-69700721D01*
X118330721Y-69700721D02*
X121049279Y-69700721D01*
%TD*%
%TA.AperFunction,Conductor*%
%TO.N,GND*%
G36*
X143408577Y-30091423D02*
G01*
X143420000Y-30119000D01*
X143420000Y-80881000D01*
X143408577Y-80908577D01*
X143381000Y-80920000D01*
X103619000Y-80920000D01*
X103591423Y-80908577D01*
X103580000Y-80881000D01*
X103580000Y-62774061D01*
X111472947Y-62774061D01*
X111472953Y-62774612D01*
X111480258Y-63448189D01*
X111480313Y-63453287D01*
X111525982Y-64131016D01*
X111609808Y-64805089D01*
X111656098Y-65059236D01*
X111729183Y-65460500D01*
X111731525Y-65473361D01*
X111731650Y-65473879D01*
X111731652Y-65473889D01*
X111832538Y-65892302D01*
X111890744Y-66133703D01*
X111890903Y-66134230D01*
X112085586Y-66779461D01*
X112086959Y-66784012D01*
X112319545Y-67422217D01*
X112319754Y-67422703D01*
X112319761Y-67422721D01*
X112444113Y-67712056D01*
X112587761Y-68046287D01*
X112588003Y-68046773D01*
X112588006Y-68046779D01*
X112652516Y-68176216D01*
X112890753Y-68654232D01*
X112891012Y-68654686D01*
X112891017Y-68654695D01*
X113131701Y-69076235D01*
X113227556Y-69244119D01*
X113228157Y-69243753D01*
X113228965Y-69244447D01*
X113233886Y-69251721D01*
X113234087Y-69252260D01*
X113233622Y-69252629D01*
X113383788Y-69412429D01*
X113558548Y-69544886D01*
X113683294Y-69609935D01*
X113733654Y-69636195D01*
X113743199Y-69643199D01*
X116784233Y-72684233D01*
X116794103Y-72700914D01*
X116796789Y-72710146D01*
X116797497Y-72711610D01*
X116797500Y-72711617D01*
X116875433Y-72872694D01*
X116892940Y-72908879D01*
X117020876Y-73088802D01*
X117177016Y-73244879D01*
X117356926Y-73372697D01*
X117356803Y-73372905D01*
X117362066Y-73375827D01*
X117362067Y-73375828D01*
X117708317Y-73568055D01*
X117948869Y-73701602D01*
X117949338Y-73701829D01*
X117949342Y-73701831D01*
X118557980Y-73996304D01*
X118557988Y-73996307D01*
X118558458Y-73996535D01*
X118558945Y-73996738D01*
X118558959Y-73996744D01*
X119183124Y-74256554D01*
X119183133Y-74256557D01*
X119183646Y-74256771D01*
X119400335Y-74332997D01*
X119821946Y-74481310D01*
X119821962Y-74481315D01*
X119822462Y-74481491D01*
X120472888Y-74669985D01*
X121132872Y-74821658D01*
X121133403Y-74821749D01*
X121133408Y-74821750D01*
X121290118Y-74848603D01*
X121800332Y-74936031D01*
X121800852Y-74936090D01*
X121800864Y-74936092D01*
X122472607Y-75012681D01*
X122472613Y-75012681D01*
X122473161Y-75012744D01*
X122473714Y-75012776D01*
X122473717Y-75012776D01*
X123148705Y-75051524D01*
X123148722Y-75051524D01*
X123149236Y-75051554D01*
X123149755Y-75051555D01*
X123149769Y-75051555D01*
X123497851Y-75051958D01*
X123826424Y-75052339D01*
X123826963Y-75052309D01*
X123826975Y-75052309D01*
X124502047Y-75015127D01*
X124502056Y-75015126D01*
X124502587Y-75015097D01*
X124503116Y-75015038D01*
X124503127Y-75015037D01*
X125175039Y-74940007D01*
X125175048Y-74940006D01*
X125175592Y-74939945D01*
X125843316Y-74827121D01*
X125843851Y-74826999D01*
X125843868Y-74826996D01*
X126294458Y-74724544D01*
X126503650Y-74676979D01*
X126875925Y-74570029D01*
X127154004Y-74490140D01*
X127154015Y-74490136D01*
X127154511Y-74489994D01*
X127155005Y-74489821D01*
X127155016Y-74489818D01*
X127604139Y-74332997D01*
X127793846Y-74266757D01*
X128419636Y-74007971D01*
X129029908Y-73714453D01*
X129622735Y-73387130D01*
X129623178Y-73386852D01*
X129623193Y-73386843D01*
X130195767Y-73027335D01*
X130195773Y-73027331D01*
X130196246Y-73027034D01*
X130748631Y-72635302D01*
X130817031Y-72580774D01*
X131055238Y-72390874D01*
X131278148Y-72213170D01*
X131442919Y-72065947D01*
X131752582Y-71789261D01*
X131783126Y-71761970D01*
X132261970Y-71283126D01*
X132375052Y-71156566D01*
X132712804Y-70778558D01*
X132712810Y-70778551D01*
X132713170Y-70778148D01*
X133034144Y-70375522D01*
X133134946Y-70249078D01*
X133134952Y-70249070D01*
X133135302Y-70248631D01*
X133527034Y-69696246D01*
X133564739Y-69636195D01*
X133886843Y-69123193D01*
X133886852Y-69123178D01*
X133887130Y-69122735D01*
X134214453Y-68529908D01*
X134507971Y-67919636D01*
X134657714Y-67557532D01*
X134766550Y-67294347D01*
X134766552Y-67294342D01*
X134766757Y-67293846D01*
X134933410Y-66816564D01*
X134989818Y-66655016D01*
X134989821Y-66655005D01*
X134989994Y-66654511D01*
X134992553Y-66645606D01*
X135079757Y-66342061D01*
X135176979Y-66003650D01*
X135238287Y-65734013D01*
X135326996Y-65343868D01*
X135326999Y-65343851D01*
X135327121Y-65343316D01*
X135343125Y-65248603D01*
X135439853Y-64676136D01*
X135439945Y-64675592D01*
X135440007Y-64675039D01*
X135515037Y-64003127D01*
X135515038Y-64003116D01*
X135515097Y-64002587D01*
X135515127Y-64002047D01*
X135552309Y-63326975D01*
X135552309Y-63326963D01*
X135552339Y-63326424D01*
X135551702Y-62776924D01*
X135551555Y-62649769D01*
X135551555Y-62649755D01*
X135551554Y-62649236D01*
X135545962Y-62551811D01*
X135512776Y-61973717D01*
X135512776Y-61973714D01*
X135512744Y-61973161D01*
X135512681Y-61972607D01*
X135436092Y-61300864D01*
X135436090Y-61300852D01*
X135436031Y-61300332D01*
X135341465Y-60748464D01*
X135321750Y-60633408D01*
X135321749Y-60633403D01*
X135321658Y-60632872D01*
X135169985Y-59972888D01*
X134981491Y-59322462D01*
X134981315Y-59321962D01*
X134981310Y-59321946D01*
X134769370Y-58719461D01*
X134756771Y-58683646D01*
X134756554Y-58683124D01*
X134496744Y-58058959D01*
X134496738Y-58058945D01*
X134496535Y-58058458D01*
X134493263Y-58051694D01*
X134201831Y-57449342D01*
X134201829Y-57449338D01*
X134201602Y-57448869D01*
X133872905Y-56856803D01*
X133874404Y-56855971D01*
X133874168Y-56855571D01*
X133872592Y-56856646D01*
X133871679Y-56855308D01*
X133871708Y-56855290D01*
X133852138Y-56829006D01*
X133796635Y-56754465D01*
X133741832Y-56680862D01*
X133690061Y-56631085D01*
X133586235Y-56531258D01*
X133586234Y-56531258D01*
X133585069Y-56530137D01*
X133578397Y-56525565D01*
X133407013Y-56408124D01*
X133407009Y-56408122D01*
X133405677Y-56407209D01*
X133404217Y-56406529D01*
X133404213Y-56406527D01*
X133277677Y-56347613D01*
X133208529Y-56315418D01*
X133085827Y-56281362D01*
X133000538Y-56257690D01*
X133000536Y-56257690D01*
X132998981Y-56257258D01*
X132920953Y-56248977D01*
X132856911Y-56242181D01*
X132832953Y-56230470D01*
X131547216Y-54897113D01*
X130282658Y-53585719D01*
X130271992Y-53563149D01*
X130268699Y-53534798D01*
X130264870Y-53501835D01*
X130250832Y-53453583D01*
X130203653Y-53291426D01*
X130203652Y-53291424D01*
X130203196Y-53289856D01*
X130107049Y-53091124D01*
X129979117Y-52911201D01*
X129901000Y-52833113D01*
X129824135Y-52756276D01*
X129824131Y-52756273D01*
X129822981Y-52755123D01*
X129821657Y-52754182D01*
X129821653Y-52754179D01*
X129666056Y-52643631D01*
X129643069Y-52627299D01*
X129643232Y-52627024D01*
X129312964Y-52443757D01*
X129049764Y-52297706D01*
X129049752Y-52297700D01*
X129049282Y-52297439D01*
X128465809Y-52015473D01*
X128438178Y-52002120D01*
X128438170Y-52002116D01*
X128437687Y-52001883D01*
X127810393Y-51741297D01*
X127608812Y-51670606D01*
X127169901Y-51516688D01*
X127169900Y-51516688D01*
X127169399Y-51516512D01*
X127168898Y-51516367D01*
X127168884Y-51516363D01*
X127111103Y-51499695D01*
X132225115Y-51499695D01*
X132242283Y-51575565D01*
X132290654Y-51636486D01*
X132294605Y-51638400D01*
X132294606Y-51638401D01*
X132325657Y-51653445D01*
X132360659Y-51670403D01*
X132399456Y-51670504D01*
X132434055Y-51670595D01*
X132434057Y-51670595D01*
X132438448Y-51670606D01*
X132508629Y-51637056D01*
X132557319Y-51576390D01*
X132568855Y-51526620D01*
X132574386Y-51502760D01*
X132574386Y-51502757D01*
X132574884Y-51500610D01*
X132574885Y-51500000D01*
X132557585Y-51424160D01*
X132509107Y-51363324D01*
X132439043Y-51329529D01*
X132434650Y-51329525D01*
X132434649Y-51329525D01*
X132400336Y-51329495D01*
X132361254Y-51329461D01*
X132291132Y-51363134D01*
X132242548Y-51423885D01*
X132225115Y-51499695D01*
X127111103Y-51499695D01*
X126517287Y-51328397D01*
X126517285Y-51328396D01*
X126516746Y-51328241D01*
X126516202Y-51328117D01*
X126516191Y-51328114D01*
X125855037Y-51177207D01*
X125855035Y-51177207D01*
X125854511Y-51177087D01*
X125853985Y-51176998D01*
X125853981Y-51176997D01*
X125185362Y-51063622D01*
X125185347Y-51063620D01*
X125184805Y-51063528D01*
X125184254Y-51063466D01*
X125184252Y-51063466D01*
X124510295Y-50987989D01*
X124510294Y-50987989D01*
X124509759Y-50987929D01*
X124509221Y-50987899D01*
X124509217Y-50987899D01*
X123832069Y-50950558D01*
X123832065Y-50950558D01*
X123831523Y-50950528D01*
X123491890Y-50950987D01*
X123152807Y-50951444D01*
X123152798Y-50951444D01*
X123152258Y-50951445D01*
X122722705Y-50976297D01*
X122474675Y-50990646D01*
X122474667Y-50990647D01*
X122474126Y-50990678D01*
X122233409Y-51018295D01*
X121799841Y-51068036D01*
X121799826Y-51068038D01*
X121799287Y-51068100D01*
X121798735Y-51068195D01*
X121798729Y-51068196D01*
X121520229Y-51116194D01*
X121129889Y-51183467D01*
X121129362Y-51183589D01*
X121129351Y-51183591D01*
X120468602Y-51336286D01*
X120468598Y-51336287D01*
X120468066Y-51336410D01*
X119815923Y-51526442D01*
X119499403Y-51638401D01*
X119176060Y-51752773D01*
X119176049Y-51752777D01*
X119175538Y-51752958D01*
X118548951Y-52015237D01*
X118548479Y-52015467D01*
X118548465Y-52015473D01*
X118267375Y-52152249D01*
X117938156Y-52312444D01*
X117345099Y-52643631D01*
X117344657Y-52643912D01*
X117344643Y-52643920D01*
X116921622Y-52912528D01*
X116771668Y-53007745D01*
X116771242Y-53008051D01*
X116771225Y-53008062D01*
X116499589Y-53202881D01*
X116219689Y-53403626D01*
X116219256Y-53403975D01*
X116219247Y-53403982D01*
X115834897Y-53713913D01*
X115690920Y-53830013D01*
X115187046Y-54285549D01*
X115067127Y-54406939D01*
X114714986Y-54763401D01*
X114709670Y-54768782D01*
X114260313Y-55278175D01*
X114259972Y-55278609D01*
X114259965Y-55278617D01*
X113840854Y-55811532D01*
X113840405Y-55812103D01*
X113840092Y-55812551D01*
X113840083Y-55812563D01*
X113451592Y-56368429D01*
X113451584Y-56368441D01*
X113451285Y-56368869D01*
X113451011Y-56369312D01*
X113451004Y-56369323D01*
X113100447Y-56936574D01*
X113094191Y-56946697D01*
X112969994Y-57175610D01*
X112776236Y-57532735D01*
X112770260Y-57543749D01*
X112480524Y-58158123D01*
X112376938Y-58414317D01*
X112226105Y-58787366D01*
X112226099Y-58787383D01*
X112225905Y-58787862D01*
X112225741Y-58788344D01*
X112225737Y-58788355D01*
X112009488Y-59424277D01*
X112007215Y-59430962D01*
X111825150Y-60085373D01*
X111680289Y-60749013D01*
X111680200Y-60749569D01*
X111680199Y-60749575D01*
X111678496Y-60760230D01*
X111573094Y-61419767D01*
X111503907Y-62095501D01*
X111503882Y-62096043D01*
X111503881Y-62096060D01*
X111497235Y-62241730D01*
X111472947Y-62774061D01*
X103580000Y-62774061D01*
X103580000Y-41510218D01*
X117806561Y-41510218D01*
X117808311Y-41514442D01*
X117873748Y-41570132D01*
X117876862Y-41572296D01*
X118036161Y-41661326D01*
X118039643Y-41662847D01*
X118213197Y-41719238D01*
X118216908Y-41720054D01*
X118398122Y-41741663D01*
X118401904Y-41741742D01*
X118583863Y-41727741D01*
X118587602Y-41727082D01*
X118763368Y-41678007D01*
X118766907Y-41676635D01*
X118929798Y-41594352D01*
X118933001Y-41592319D01*
X119031168Y-41515623D01*
X119034091Y-41510456D01*
X119033017Y-41506583D01*
X118425485Y-40899051D01*
X118420000Y-40896779D01*
X118414515Y-40899051D01*
X117808833Y-41504733D01*
X117806561Y-41510218D01*
X103580000Y-41510218D01*
X103580000Y-40776072D01*
X117465656Y-40776072D01*
X117480926Y-40957922D01*
X117481612Y-40961657D01*
X117531912Y-41137078D01*
X117533310Y-41140607D01*
X117616724Y-41302912D01*
X117618785Y-41306111D01*
X117692022Y-41398513D01*
X117697210Y-41401401D01*
X117701158Y-41400276D01*
X118308449Y-40792985D01*
X118310721Y-40787500D01*
X118529279Y-40787500D01*
X118531551Y-40792985D01*
X119137243Y-41398677D01*
X119141948Y-41400626D01*
X119148284Y-41397725D01*
X119198795Y-41339208D01*
X119200988Y-41336098D01*
X119291123Y-41177433D01*
X119292672Y-41173954D01*
X119350272Y-41000801D01*
X119351114Y-40997095D01*
X119374087Y-40815245D01*
X119374240Y-40813056D01*
X119374582Y-40788593D01*
X119374491Y-40786416D01*
X119373290Y-40774165D01*
X120004994Y-40774165D01*
X120008260Y-40813056D01*
X120020425Y-40957922D01*
X120020592Y-40959914D01*
X120021116Y-40961743D01*
X120021117Y-40961746D01*
X120071393Y-41137078D01*
X120071971Y-41139095D01*
X120157176Y-41304885D01*
X120272959Y-41450968D01*
X120414912Y-41571779D01*
X120416579Y-41572710D01*
X120416578Y-41572710D01*
X120575960Y-41661786D01*
X120575965Y-41661788D01*
X120577627Y-41662717D01*
X120579440Y-41663306D01*
X120579442Y-41663307D01*
X120753090Y-41719729D01*
X120753094Y-41719730D01*
X120754907Y-41720319D01*
X120756799Y-41720545D01*
X120756801Y-41720545D01*
X120933901Y-41741663D01*
X120939998Y-41742390D01*
X121125851Y-41728089D01*
X121127687Y-41727576D01*
X121127689Y-41727576D01*
X121215619Y-41703025D01*
X121305387Y-41677962D01*
X121471768Y-41593917D01*
X121618655Y-41479156D01*
X121740454Y-41338050D01*
X121832526Y-41175974D01*
X121891364Y-40999101D01*
X121914727Y-40814168D01*
X121914930Y-40799588D01*
X121915084Y-40788593D01*
X121915084Y-40788589D01*
X121915099Y-40787500D01*
X121914561Y-40782015D01*
X121913791Y-40774165D01*
X122544994Y-40774165D01*
X122548260Y-40813056D01*
X122560425Y-40957922D01*
X122560592Y-40959914D01*
X122561116Y-40961743D01*
X122561117Y-40961746D01*
X122611393Y-41137078D01*
X122611971Y-41139095D01*
X122697176Y-41304885D01*
X122812959Y-41450968D01*
X122954912Y-41571779D01*
X122956579Y-41572710D01*
X122956578Y-41572710D01*
X123115960Y-41661786D01*
X123115965Y-41661788D01*
X123117627Y-41662717D01*
X123119440Y-41663306D01*
X123119442Y-41663307D01*
X123293090Y-41719729D01*
X123293094Y-41719730D01*
X123294907Y-41720319D01*
X123296799Y-41720545D01*
X123296801Y-41720545D01*
X123473901Y-41741663D01*
X123479998Y-41742390D01*
X123665851Y-41728089D01*
X123667687Y-41727576D01*
X123667689Y-41727576D01*
X123755619Y-41703025D01*
X123845387Y-41677962D01*
X124011768Y-41593917D01*
X124158655Y-41479156D01*
X124280454Y-41338050D01*
X124372526Y-41175974D01*
X124431364Y-40999101D01*
X124454727Y-40814168D01*
X124454930Y-40799588D01*
X124455084Y-40788593D01*
X124455084Y-40788589D01*
X124455099Y-40787500D01*
X124454561Y-40782015D01*
X124453791Y-40774165D01*
X125084994Y-40774165D01*
X125088260Y-40813056D01*
X125100425Y-40957922D01*
X125100592Y-40959914D01*
X125101116Y-40961743D01*
X125101117Y-40961746D01*
X125151393Y-41137078D01*
X125151971Y-41139095D01*
X125237176Y-41304885D01*
X125352959Y-41450968D01*
X125494912Y-41571779D01*
X125496579Y-41572710D01*
X125496578Y-41572710D01*
X125655960Y-41661786D01*
X125655965Y-41661788D01*
X125657627Y-41662717D01*
X125659440Y-41663306D01*
X125659442Y-41663307D01*
X125833090Y-41719729D01*
X125833094Y-41719730D01*
X125834907Y-41720319D01*
X125836799Y-41720545D01*
X125836801Y-41720545D01*
X126013901Y-41741663D01*
X126019998Y-41742390D01*
X126205851Y-41728089D01*
X126207687Y-41727576D01*
X126207689Y-41727576D01*
X126295619Y-41703025D01*
X126385387Y-41677962D01*
X126551768Y-41593917D01*
X126658898Y-41510218D01*
X127966561Y-41510218D01*
X127968311Y-41514442D01*
X128033748Y-41570132D01*
X128036862Y-41572296D01*
X128196161Y-41661326D01*
X128199643Y-41662847D01*
X128373197Y-41719238D01*
X128376908Y-41720054D01*
X128558122Y-41741663D01*
X128561904Y-41741742D01*
X128743863Y-41727741D01*
X128747602Y-41727082D01*
X128923368Y-41678007D01*
X128926907Y-41676635D01*
X129089798Y-41594352D01*
X129093001Y-41592319D01*
X129191168Y-41515623D01*
X129194091Y-41510456D01*
X129193017Y-41506583D01*
X128585485Y-40899051D01*
X128580000Y-40896779D01*
X128574515Y-40899051D01*
X127968833Y-41504733D01*
X127966561Y-41510218D01*
X126658898Y-41510218D01*
X126698655Y-41479156D01*
X126820454Y-41338050D01*
X126912526Y-41175974D01*
X126971364Y-40999101D01*
X126994727Y-40814168D01*
X126994930Y-40799588D01*
X126995084Y-40788593D01*
X126995084Y-40788589D01*
X126995099Y-40787500D01*
X126994561Y-40782015D01*
X126993978Y-40776072D01*
X127625656Y-40776072D01*
X127640926Y-40957922D01*
X127641612Y-40961657D01*
X127691912Y-41137078D01*
X127693310Y-41140607D01*
X127776724Y-41302912D01*
X127778785Y-41306111D01*
X127852022Y-41398513D01*
X127857210Y-41401401D01*
X127861158Y-41400276D01*
X128468449Y-40792985D01*
X128470721Y-40787500D01*
X128689279Y-40787500D01*
X128691551Y-40792985D01*
X129297243Y-41398677D01*
X129301948Y-41400626D01*
X129308284Y-41397725D01*
X129358795Y-41339208D01*
X129360988Y-41336098D01*
X129451123Y-41177433D01*
X129452672Y-41173954D01*
X129510272Y-41000801D01*
X129511114Y-40997095D01*
X129534087Y-40815245D01*
X129534240Y-40813056D01*
X129534582Y-40788593D01*
X129534491Y-40786416D01*
X129516604Y-40603987D01*
X129515863Y-40600250D01*
X129463121Y-40425561D01*
X129461673Y-40422045D01*
X129376001Y-40260921D01*
X129373897Y-40257754D01*
X129307787Y-40176695D01*
X129302558Y-40173880D01*
X129298455Y-40175111D01*
X128691551Y-40782015D01*
X128689279Y-40787500D01*
X128470721Y-40787500D01*
X128468449Y-40782015D01*
X127862745Y-40176311D01*
X127857260Y-40174039D01*
X127853127Y-40175751D01*
X127793572Y-40246727D01*
X127791431Y-40249854D01*
X127703516Y-40409771D01*
X127702018Y-40413266D01*
X127646840Y-40587208D01*
X127646050Y-40590923D01*
X127625708Y-40772278D01*
X127625656Y-40776072D01*
X126993978Y-40776072D01*
X126977096Y-40603890D01*
X126977095Y-40603886D01*
X126976909Y-40601987D01*
X126923033Y-40423540D01*
X126917571Y-40413266D01*
X126836419Y-40260643D01*
X126835522Y-40258956D01*
X126717710Y-40114505D01*
X126657679Y-40064842D01*
X127966255Y-40064842D01*
X127967432Y-40068866D01*
X128574515Y-40675949D01*
X128580000Y-40678221D01*
X128585485Y-40675949D01*
X129191244Y-40070190D01*
X129193516Y-40064705D01*
X129191841Y-40060661D01*
X129115272Y-39997317D01*
X129112125Y-39995195D01*
X128951597Y-39908398D01*
X128948104Y-39906930D01*
X128773771Y-39852964D01*
X128770048Y-39852200D01*
X128588564Y-39833126D01*
X128584760Y-39833099D01*
X128403026Y-39849639D01*
X128399296Y-39850350D01*
X128224240Y-39901872D01*
X128220705Y-39903300D01*
X128058990Y-39987842D01*
X128055809Y-39989924D01*
X127969107Y-40059634D01*
X127966255Y-40064842D01*
X126657679Y-40064842D01*
X126645898Y-40055096D01*
X126575553Y-39996901D01*
X126575550Y-39996899D01*
X126574085Y-39995687D01*
X126558801Y-39987423D01*
X126411798Y-39907938D01*
X126411794Y-39907936D01*
X126410116Y-39907029D01*
X126408291Y-39906464D01*
X126233875Y-39852474D01*
X126233873Y-39852474D01*
X126232049Y-39851909D01*
X126046668Y-39832424D01*
X126044767Y-39832597D01*
X126044764Y-39832597D01*
X125862929Y-39849145D01*
X125862925Y-39849146D01*
X125861032Y-39849318D01*
X125859210Y-39849854D01*
X125859206Y-39849855D01*
X125684044Y-39901409D01*
X125684040Y-39901410D01*
X125682214Y-39901948D01*
X125517023Y-39988307D01*
X125371752Y-40105108D01*
X125251935Y-40247901D01*
X125162135Y-40411246D01*
X125105772Y-40588924D01*
X125105560Y-40590815D01*
X125105559Y-40590819D01*
X125085206Y-40772272D01*
X125084994Y-40774165D01*
X124453791Y-40774165D01*
X124437096Y-40603890D01*
X124437095Y-40603886D01*
X124436909Y-40601987D01*
X124383033Y-40423540D01*
X124377571Y-40413266D01*
X124296419Y-40260643D01*
X124295522Y-40258956D01*
X124177710Y-40114505D01*
X124105898Y-40055096D01*
X124035553Y-39996901D01*
X124035550Y-39996899D01*
X124034085Y-39995687D01*
X124018801Y-39987423D01*
X123871798Y-39907938D01*
X123871794Y-39907936D01*
X123870116Y-39907029D01*
X123868291Y-39906464D01*
X123693875Y-39852474D01*
X123693873Y-39852474D01*
X123692049Y-39851909D01*
X123506668Y-39832424D01*
X123504767Y-39832597D01*
X123504764Y-39832597D01*
X123322929Y-39849145D01*
X123322925Y-39849146D01*
X123321032Y-39849318D01*
X123319210Y-39849854D01*
X123319206Y-39849855D01*
X123144044Y-39901409D01*
X123144040Y-39901410D01*
X123142214Y-39901948D01*
X122977023Y-39988307D01*
X122831752Y-40105108D01*
X122711935Y-40247901D01*
X122622135Y-40411246D01*
X122565772Y-40588924D01*
X122565560Y-40590815D01*
X122565559Y-40590819D01*
X122545206Y-40772272D01*
X122544994Y-40774165D01*
X121913791Y-40774165D01*
X121897096Y-40603890D01*
X121897095Y-40603886D01*
X121896909Y-40601987D01*
X121843033Y-40423540D01*
X121837571Y-40413266D01*
X121756419Y-40260643D01*
X121755522Y-40258956D01*
X121637710Y-40114505D01*
X121565898Y-40055096D01*
X121495553Y-39996901D01*
X121495550Y-39996899D01*
X121494085Y-39995687D01*
X121478801Y-39987423D01*
X121331798Y-39907938D01*
X121331794Y-39907936D01*
X121330116Y-39907029D01*
X121328291Y-39906464D01*
X121153875Y-39852474D01*
X121153873Y-39852474D01*
X121152049Y-39851909D01*
X120966668Y-39832424D01*
X120964767Y-39832597D01*
X120964764Y-39832597D01*
X120782929Y-39849145D01*
X120782925Y-39849146D01*
X120781032Y-39849318D01*
X120779210Y-39849854D01*
X120779206Y-39849855D01*
X120604044Y-39901409D01*
X120604040Y-39901410D01*
X120602214Y-39901948D01*
X120437023Y-39988307D01*
X120291752Y-40105108D01*
X120171935Y-40247901D01*
X120082135Y-40411246D01*
X120025772Y-40588924D01*
X120025560Y-40590815D01*
X120025559Y-40590819D01*
X120005206Y-40772272D01*
X120004994Y-40774165D01*
X119373290Y-40774165D01*
X119356604Y-40603987D01*
X119355863Y-40600250D01*
X119303121Y-40425561D01*
X119301673Y-40422045D01*
X119216001Y-40260921D01*
X119213897Y-40257754D01*
X119147787Y-40176695D01*
X119142558Y-40173880D01*
X119138455Y-40175111D01*
X118531551Y-40782015D01*
X118529279Y-40787500D01*
X118310721Y-40787500D01*
X118308449Y-40782015D01*
X117702745Y-40176311D01*
X117697260Y-40174039D01*
X117693127Y-40175751D01*
X117633572Y-40246727D01*
X117631431Y-40249854D01*
X117543516Y-40409771D01*
X117542018Y-40413266D01*
X117486840Y-40587208D01*
X117486050Y-40590923D01*
X117465708Y-40772278D01*
X117465656Y-40776072D01*
X103580000Y-40776072D01*
X103580000Y-40064842D01*
X117806255Y-40064842D01*
X117807432Y-40068866D01*
X118414515Y-40675949D01*
X118420000Y-40678221D01*
X118425485Y-40675949D01*
X119031244Y-40070190D01*
X119033516Y-40064705D01*
X119031841Y-40060661D01*
X118955272Y-39997317D01*
X118952125Y-39995195D01*
X118791597Y-39908398D01*
X118788104Y-39906930D01*
X118613771Y-39852964D01*
X118610048Y-39852200D01*
X118428564Y-39833126D01*
X118424760Y-39833099D01*
X118243026Y-39849639D01*
X118239296Y-39850350D01*
X118064240Y-39901872D01*
X118060705Y-39903300D01*
X117898990Y-39987842D01*
X117895809Y-39989924D01*
X117809107Y-40059634D01*
X117806255Y-40064842D01*
X103580000Y-40064842D01*
X103580000Y-38234165D01*
X117464994Y-38234165D01*
X117480592Y-38419914D01*
X117481116Y-38421743D01*
X117481117Y-38421746D01*
X117491829Y-38459101D01*
X117531971Y-38599095D01*
X117617176Y-38764885D01*
X117732959Y-38910968D01*
X117874912Y-39031779D01*
X117876579Y-39032710D01*
X117876578Y-39032710D01*
X118035960Y-39121786D01*
X118035965Y-39121788D01*
X118037627Y-39122717D01*
X118039440Y-39123306D01*
X118039442Y-39123307D01*
X118213090Y-39179729D01*
X118213094Y-39179730D01*
X118214907Y-39180319D01*
X118216799Y-39180545D01*
X118216801Y-39180545D01*
X118398111Y-39202165D01*
X118399998Y-39202390D01*
X118585851Y-39188089D01*
X118587687Y-39187576D01*
X118587689Y-39187576D01*
X118675619Y-39163025D01*
X118765387Y-39137962D01*
X118767702Y-39136793D01*
X118930067Y-39054776D01*
X118931768Y-39053917D01*
X119078655Y-38939156D01*
X119200454Y-38798050D01*
X119292526Y-38635974D01*
X119351364Y-38459101D01*
X119374727Y-38274168D01*
X119375099Y-38247500D01*
X119373978Y-38236065D01*
X119373792Y-38234165D01*
X120004994Y-38234165D01*
X120020592Y-38419914D01*
X120021116Y-38421743D01*
X120021117Y-38421746D01*
X120031829Y-38459101D01*
X120071971Y-38599095D01*
X120157176Y-38764885D01*
X120272959Y-38910968D01*
X120414912Y-39031779D01*
X120416579Y-39032710D01*
X120416578Y-39032710D01*
X120575960Y-39121786D01*
X120575965Y-39121788D01*
X120577627Y-39122717D01*
X120579440Y-39123306D01*
X120579442Y-39123307D01*
X120753090Y-39179729D01*
X120753094Y-39179730D01*
X120754907Y-39180319D01*
X120756799Y-39180545D01*
X120756801Y-39180545D01*
X120938111Y-39202165D01*
X120939998Y-39202390D01*
X121125851Y-39188089D01*
X121127687Y-39187576D01*
X121127689Y-39187576D01*
X121215619Y-39163025D01*
X121305387Y-39137962D01*
X121307702Y-39136793D01*
X121470067Y-39054776D01*
X121471768Y-39053917D01*
X121618655Y-38939156D01*
X121740454Y-38798050D01*
X121832526Y-38635974D01*
X121891364Y-38459101D01*
X121914727Y-38274168D01*
X121915099Y-38247500D01*
X121913978Y-38236065D01*
X121913792Y-38234165D01*
X122544994Y-38234165D01*
X122560592Y-38419914D01*
X122561116Y-38421743D01*
X122561117Y-38421746D01*
X122571829Y-38459101D01*
X122611971Y-38599095D01*
X122697176Y-38764885D01*
X122812959Y-38910968D01*
X122954912Y-39031779D01*
X122956579Y-39032710D01*
X122956578Y-39032710D01*
X123115960Y-39121786D01*
X123115965Y-39121788D01*
X123117627Y-39122717D01*
X123119440Y-39123306D01*
X123119442Y-39123307D01*
X123293090Y-39179729D01*
X123293094Y-39179730D01*
X123294907Y-39180319D01*
X123296799Y-39180545D01*
X123296801Y-39180545D01*
X123478111Y-39202165D01*
X123479998Y-39202390D01*
X123665851Y-39188089D01*
X123667687Y-39187576D01*
X123667689Y-39187576D01*
X123755619Y-39163025D01*
X123845387Y-39137962D01*
X123847702Y-39136793D01*
X124010067Y-39054776D01*
X124011768Y-39053917D01*
X124158655Y-38939156D01*
X124280454Y-38798050D01*
X124372526Y-38635974D01*
X124431364Y-38459101D01*
X124454727Y-38274168D01*
X124455099Y-38247500D01*
X124453978Y-38236065D01*
X124453792Y-38234165D01*
X125084994Y-38234165D01*
X125100592Y-38419914D01*
X125101116Y-38421743D01*
X125101117Y-38421746D01*
X125111829Y-38459101D01*
X125151971Y-38599095D01*
X125237176Y-38764885D01*
X125352959Y-38910968D01*
X125494912Y-39031779D01*
X125496579Y-39032710D01*
X125496578Y-39032710D01*
X125655960Y-39121786D01*
X125655965Y-39121788D01*
X125657627Y-39122717D01*
X125659440Y-39123306D01*
X125659442Y-39123307D01*
X125833090Y-39179729D01*
X125833094Y-39179730D01*
X125834907Y-39180319D01*
X125836799Y-39180545D01*
X125836801Y-39180545D01*
X126018111Y-39202165D01*
X126019998Y-39202390D01*
X126205851Y-39188089D01*
X126207687Y-39187576D01*
X126207689Y-39187576D01*
X126295619Y-39163025D01*
X126385387Y-39137962D01*
X126387702Y-39136793D01*
X126550067Y-39054776D01*
X126551768Y-39053917D01*
X126698655Y-38939156D01*
X126749097Y-38880718D01*
X127629500Y-38880718D01*
X127639642Y-38949612D01*
X127640976Y-38952330D01*
X127640977Y-38952332D01*
X127689646Y-39051460D01*
X127689648Y-39051463D01*
X127691068Y-39054355D01*
X127773650Y-39136793D01*
X127776544Y-39138208D01*
X127776546Y-39138209D01*
X127825651Y-39162212D01*
X127878482Y-39188036D01*
X127946782Y-39198000D01*
X129213218Y-39198000D01*
X129214629Y-39197792D01*
X129214633Y-39197792D01*
X129245071Y-39193311D01*
X129282112Y-39187858D01*
X129284830Y-39186524D01*
X129284832Y-39186523D01*
X129383960Y-39137854D01*
X129383963Y-39137852D01*
X129386855Y-39136432D01*
X129469293Y-39053850D01*
X129479627Y-39032710D01*
X129519207Y-38951736D01*
X129520536Y-38949018D01*
X129530500Y-38880718D01*
X129530500Y-37614282D01*
X129520358Y-37545388D01*
X129519023Y-37542668D01*
X129470354Y-37443540D01*
X129470352Y-37443537D01*
X129468932Y-37440645D01*
X129386350Y-37358207D01*
X129383456Y-37356792D01*
X129383454Y-37356791D01*
X129287432Y-37309855D01*
X129281518Y-37306964D01*
X129213218Y-37297000D01*
X127946782Y-37297000D01*
X127945371Y-37297208D01*
X127945367Y-37297208D01*
X127914929Y-37301689D01*
X127877888Y-37307142D01*
X127875170Y-37308476D01*
X127875168Y-37308477D01*
X127776040Y-37357146D01*
X127776037Y-37357148D01*
X127773145Y-37358568D01*
X127690707Y-37441150D01*
X127689292Y-37444044D01*
X127689291Y-37444046D01*
X127665288Y-37493151D01*
X127639464Y-37545982D01*
X127629500Y-37614282D01*
X127629500Y-38880718D01*
X126749097Y-38880718D01*
X126820454Y-38798050D01*
X126912526Y-38635974D01*
X126971364Y-38459101D01*
X126994727Y-38274168D01*
X126995099Y-38247500D01*
X126993978Y-38236065D01*
X126977096Y-38063890D01*
X126977095Y-38063886D01*
X126976909Y-38061987D01*
X126923033Y-37883540D01*
X126916497Y-37871246D01*
X126836419Y-37720643D01*
X126835522Y-37718956D01*
X126717710Y-37574505D01*
X126645898Y-37515096D01*
X126575553Y-37456901D01*
X126575550Y-37456899D01*
X126574085Y-37455687D01*
X126558801Y-37447423D01*
X126411798Y-37367938D01*
X126411794Y-37367936D01*
X126410116Y-37367029D01*
X126408291Y-37366464D01*
X126233875Y-37312474D01*
X126233873Y-37312474D01*
X126232049Y-37311909D01*
X126046668Y-37292424D01*
X126044767Y-37292597D01*
X126044764Y-37292597D01*
X125862929Y-37309145D01*
X125862925Y-37309146D01*
X125861032Y-37309318D01*
X125859210Y-37309854D01*
X125859206Y-37309855D01*
X125684044Y-37361409D01*
X125684040Y-37361410D01*
X125682214Y-37361948D01*
X125517023Y-37448307D01*
X125371752Y-37565108D01*
X125251935Y-37707901D01*
X125162135Y-37871246D01*
X125105772Y-38048924D01*
X125105560Y-38050815D01*
X125105559Y-38050819D01*
X125104093Y-38063890D01*
X125084994Y-38234165D01*
X124453792Y-38234165D01*
X124437096Y-38063890D01*
X124437095Y-38063886D01*
X124436909Y-38061987D01*
X124383033Y-37883540D01*
X124376497Y-37871246D01*
X124296419Y-37720643D01*
X124295522Y-37718956D01*
X124177710Y-37574505D01*
X124105898Y-37515096D01*
X124035553Y-37456901D01*
X124035550Y-37456899D01*
X124034085Y-37455687D01*
X124018801Y-37447423D01*
X123871798Y-37367938D01*
X123871794Y-37367936D01*
X123870116Y-37367029D01*
X123868291Y-37366464D01*
X123693875Y-37312474D01*
X123693873Y-37312474D01*
X123692049Y-37311909D01*
X123506668Y-37292424D01*
X123504767Y-37292597D01*
X123504764Y-37292597D01*
X123322929Y-37309145D01*
X123322925Y-37309146D01*
X123321032Y-37309318D01*
X123319210Y-37309854D01*
X123319206Y-37309855D01*
X123144044Y-37361409D01*
X123144040Y-37361410D01*
X123142214Y-37361948D01*
X122977023Y-37448307D01*
X122831752Y-37565108D01*
X122711935Y-37707901D01*
X122622135Y-37871246D01*
X122565772Y-38048924D01*
X122565560Y-38050815D01*
X122565559Y-38050819D01*
X122564093Y-38063890D01*
X122544994Y-38234165D01*
X121913792Y-38234165D01*
X121897096Y-38063890D01*
X121897095Y-38063886D01*
X121896909Y-38061987D01*
X121843033Y-37883540D01*
X121836497Y-37871246D01*
X121756419Y-37720643D01*
X121755522Y-37718956D01*
X121637710Y-37574505D01*
X121565898Y-37515096D01*
X121495553Y-37456901D01*
X121495550Y-37456899D01*
X121494085Y-37455687D01*
X121478801Y-37447423D01*
X121331798Y-37367938D01*
X121331794Y-37367936D01*
X121330116Y-37367029D01*
X121328291Y-37366464D01*
X121153875Y-37312474D01*
X121153873Y-37312474D01*
X121152049Y-37311909D01*
X120966668Y-37292424D01*
X120964767Y-37292597D01*
X120964764Y-37292597D01*
X120782929Y-37309145D01*
X120782925Y-37309146D01*
X120781032Y-37309318D01*
X120779210Y-37309854D01*
X120779206Y-37309855D01*
X120604044Y-37361409D01*
X120604040Y-37361410D01*
X120602214Y-37361948D01*
X120437023Y-37448307D01*
X120291752Y-37565108D01*
X120171935Y-37707901D01*
X120082135Y-37871246D01*
X120025772Y-38048924D01*
X120025560Y-38050815D01*
X120025559Y-38050819D01*
X120024093Y-38063890D01*
X120004994Y-38234165D01*
X119373792Y-38234165D01*
X119357096Y-38063890D01*
X119357095Y-38063886D01*
X119356909Y-38061987D01*
X119303033Y-37883540D01*
X119296497Y-37871246D01*
X119216419Y-37720643D01*
X119215522Y-37718956D01*
X119097710Y-37574505D01*
X119025898Y-37515096D01*
X118955553Y-37456901D01*
X118955550Y-37456899D01*
X118954085Y-37455687D01*
X118938801Y-37447423D01*
X118791798Y-37367938D01*
X118791794Y-37367936D01*
X118790116Y-37367029D01*
X118788291Y-37366464D01*
X118613875Y-37312474D01*
X118613873Y-37312474D01*
X118612049Y-37311909D01*
X118426668Y-37292424D01*
X118424767Y-37292597D01*
X118424764Y-37292597D01*
X118242929Y-37309145D01*
X118242925Y-37309146D01*
X118241032Y-37309318D01*
X118239210Y-37309854D01*
X118239206Y-37309855D01*
X118064044Y-37361409D01*
X118064040Y-37361410D01*
X118062214Y-37361948D01*
X117897023Y-37448307D01*
X117751752Y-37565108D01*
X117631935Y-37707901D01*
X117542135Y-37871246D01*
X117485772Y-38048924D01*
X117485560Y-38050815D01*
X117485559Y-38050819D01*
X117484093Y-38063890D01*
X117464994Y-38234165D01*
X103580000Y-38234165D01*
X103580000Y-30119000D01*
X103591423Y-30091423D01*
X103619000Y-30080000D01*
X143381000Y-30080000D01*
X143408577Y-30091423D01*
G37*
%TD.AperFunction*%
%TA.AperFunction,Conductor*%
G36*
X130843548Y-57343548D02*
G01*
X131513692Y-58013692D01*
X131523332Y-58029610D01*
X131529789Y-58050222D01*
X131530516Y-58051659D01*
X131530518Y-58051663D01*
X131574773Y-58139090D01*
X131605604Y-58199998D01*
X131199879Y-58199998D01*
X130591968Y-57592087D01*
X130618976Y-57586715D01*
X130618977Y-57586714D01*
X130622740Y-57585966D01*
X130705601Y-57530601D01*
X130760966Y-57447740D01*
X130762098Y-57442049D01*
X130777720Y-57363516D01*
X130794304Y-57338697D01*
X130823580Y-57332874D01*
X130843548Y-57343548D01*
G37*
%TD.AperFunction*%
%TA.AperFunction,Conductor*%
G36*
X128241028Y-54858963D02*
G01*
X128244817Y-54862110D01*
X128247379Y-54863497D01*
X128251546Y-54867241D01*
X128254280Y-54870608D01*
X128254281Y-54870608D01*
X128254069Y-54870935D01*
X128448768Y-54975007D01*
X128450316Y-54975526D01*
X128450321Y-54975528D01*
X128483128Y-54986523D01*
X128498828Y-55001172D01*
X128500000Y-55000000D01*
X130531452Y-57031452D01*
X130542875Y-57059029D01*
X130531452Y-57086606D01*
X130511484Y-57097280D01*
X130431024Y-57113285D01*
X130431023Y-57113286D01*
X130427260Y-57114034D01*
X130424069Y-57116166D01*
X130384016Y-57142928D01*
X130362349Y-57149500D01*
X130149381Y-57149500D01*
X128199879Y-55199998D01*
X128199879Y-54836616D01*
X128241028Y-54858963D01*
G37*
%TD.AperFunction*%
%TD*%
%TA.AperFunction,Conductor*%
%TO.N,GND*%
G36*
X119421164Y-55978250D02*
G01*
X119432587Y-56005827D01*
X119431838Y-56013435D01*
X119419592Y-56075000D01*
X119420341Y-56078765D01*
X119420341Y-56078767D01*
X119423751Y-56095910D01*
X119424500Y-56103518D01*
X119424500Y-58105086D01*
X119413077Y-58132663D01*
X119323327Y-58222413D01*
X119295750Y-58233836D01*
X119094182Y-58233836D01*
X119086574Y-58233087D01*
X119069431Y-58229677D01*
X119069429Y-58229677D01*
X119065664Y-58228928D01*
X119042016Y-58233632D01*
X119040990Y-58233836D01*
X118997464Y-58242494D01*
X118971688Y-58247621D01*
X118971687Y-58247622D01*
X118967924Y-58248370D01*
X118921900Y-58279122D01*
X118906356Y-58289508D01*
X118888256Y-58301601D01*
X118888254Y-58301603D01*
X118885063Y-58303735D01*
X118882931Y-58306926D01*
X118882927Y-58306930D01*
X118873218Y-58321461D01*
X118868368Y-58327371D01*
X118738676Y-58457064D01*
X118617663Y-58578077D01*
X118590086Y-58589500D01*
X118498518Y-58589500D01*
X118490910Y-58588751D01*
X118473767Y-58585341D01*
X118473765Y-58585341D01*
X118470000Y-58584592D01*
X118445326Y-58589500D01*
X118376024Y-58603285D01*
X118376023Y-58603286D01*
X118372260Y-58604034D01*
X118289399Y-58659399D01*
X118234034Y-58742260D01*
X118233286Y-58746023D01*
X118233285Y-58746024D01*
X118222457Y-58800460D01*
X118214592Y-58840000D01*
X118215341Y-58843765D01*
X118233170Y-58933395D01*
X118234034Y-58937740D01*
X118289399Y-59020601D01*
X118372260Y-59075966D01*
X118376023Y-59076714D01*
X118376024Y-59076715D01*
X118434774Y-59088401D01*
X118437087Y-59088861D01*
X118470000Y-59095408D01*
X118473765Y-59094659D01*
X118473767Y-59094659D01*
X118490910Y-59091249D01*
X118498518Y-59090500D01*
X118681482Y-59090500D01*
X118689090Y-59091249D01*
X118706233Y-59094659D01*
X118706235Y-59094659D01*
X118710000Y-59095408D01*
X118713765Y-59094659D01*
X118720960Y-59093228D01*
X118742914Y-59088861D01*
X118803977Y-59076715D01*
X118803978Y-59076714D01*
X118807741Y-59075966D01*
X118846308Y-59050196D01*
X118890601Y-59020601D01*
X118892733Y-59017410D01*
X118892737Y-59017406D01*
X118902448Y-59002872D01*
X118907298Y-58996962D01*
X118919510Y-58984750D01*
X118947087Y-58973327D01*
X118974664Y-58984750D01*
X118984985Y-59009724D01*
X118985115Y-59009695D01*
X118986084Y-59013977D01*
X118986084Y-59013979D01*
X119001313Y-59081279D01*
X119002283Y-59085565D01*
X119005014Y-59089004D01*
X119005015Y-59089006D01*
X119009849Y-59095094D01*
X119050654Y-59146486D01*
X119054605Y-59148400D01*
X119054606Y-59148401D01*
X119077637Y-59159559D01*
X119120659Y-59180403D01*
X119159456Y-59180504D01*
X119194055Y-59180595D01*
X119194057Y-59180595D01*
X119198448Y-59180606D01*
X119268629Y-59147056D01*
X119317319Y-59086390D01*
X119330633Y-59028949D01*
X119334386Y-59012760D01*
X119334386Y-59012757D01*
X119334884Y-59010610D01*
X119334885Y-59010000D01*
X119317585Y-58934160D01*
X119269107Y-58873324D01*
X119199043Y-58839529D01*
X119194650Y-58839525D01*
X119194649Y-58839525D01*
X119172929Y-58839506D01*
X119158887Y-58839494D01*
X119131320Y-58828047D01*
X119119921Y-58800460D01*
X119131344Y-58772917D01*
X119158002Y-58746259D01*
X119185579Y-58734836D01*
X119387146Y-58734836D01*
X119394754Y-58735585D01*
X119411897Y-58738995D01*
X119411899Y-58738995D01*
X119415664Y-58739744D01*
X119513405Y-58720302D01*
X119516597Y-58718169D01*
X119516602Y-58718167D01*
X119543200Y-58700394D01*
X119593071Y-58667072D01*
X119593074Y-58667069D01*
X119596265Y-58664937D01*
X119598397Y-58661746D01*
X119598400Y-58661743D01*
X119608112Y-58647208D01*
X119612962Y-58641298D01*
X119647423Y-58606837D01*
X119675000Y-58595414D01*
X119702577Y-58606837D01*
X120832702Y-59736962D01*
X120837552Y-59742872D01*
X120847263Y-59757406D01*
X120847267Y-59757410D01*
X120849399Y-59760601D01*
X120894473Y-59790718D01*
X120932259Y-59815966D01*
X120936022Y-59816714D01*
X120936023Y-59816715D01*
X121004703Y-59830376D01*
X121009092Y-59831249D01*
X121026235Y-59834659D01*
X121030000Y-59835408D01*
X121033765Y-59834659D01*
X121033767Y-59834659D01*
X121050910Y-59831249D01*
X121058518Y-59830500D01*
X123110500Y-59830500D01*
X123138077Y-59841923D01*
X123149500Y-59869500D01*
X123149500Y-67846482D01*
X123148751Y-67854090D01*
X123147640Y-67859678D01*
X123144592Y-67875000D01*
X123145341Y-67878765D01*
X123145341Y-67878767D01*
X123148751Y-67895910D01*
X123149500Y-67903518D01*
X123149500Y-67924674D01*
X123149872Y-67926542D01*
X123149872Y-67926546D01*
X123163285Y-67993976D01*
X123164034Y-67997740D01*
X123219399Y-68080601D01*
X123232169Y-68089133D01*
X123248751Y-68113950D01*
X123249500Y-68121559D01*
X123249500Y-69515327D01*
X123252067Y-69519773D01*
X123257189Y-69528645D01*
X123261085Y-69538051D01*
X123265065Y-69552904D01*
X123322095Y-69609935D01*
X123322096Y-69609935D01*
X124225968Y-70513807D01*
X124237391Y-70541384D01*
X124225968Y-70568961D01*
X124215274Y-70576540D01*
X124195093Y-70586231D01*
X124195090Y-70586233D01*
X124191132Y-70588134D01*
X124142548Y-70648885D01*
X124125115Y-70724695D01*
X124142283Y-70800565D01*
X124190654Y-70861486D01*
X124194605Y-70863400D01*
X124194606Y-70863401D01*
X124225657Y-70878445D01*
X124260659Y-70895403D01*
X124299456Y-70895504D01*
X124334055Y-70895595D01*
X124334057Y-70895595D01*
X124338448Y-70895606D01*
X124408629Y-70862056D01*
X124455125Y-70804123D01*
X124481296Y-70789766D01*
X124509952Y-70798119D01*
X124513118Y-70800957D01*
X124972096Y-71259935D01*
X124977884Y-71261486D01*
X124986949Y-71263915D01*
X124996356Y-71267811D01*
X125009673Y-71275500D01*
X125180745Y-71275500D01*
X125208322Y-71286923D01*
X125219745Y-71314500D01*
X125215913Y-71331231D01*
X125213327Y-71334465D01*
X125212343Y-71338745D01*
X125197210Y-71404553D01*
X125195894Y-71410275D01*
X125198232Y-71420606D01*
X125211630Y-71479815D01*
X125213062Y-71486145D01*
X125215794Y-71489586D01*
X125237248Y-71516606D01*
X125261433Y-71547066D01*
X125265384Y-71548980D01*
X125265385Y-71548981D01*
X125288042Y-71559958D01*
X125331438Y-71580983D01*
X125370235Y-71581084D01*
X125404834Y-71581175D01*
X125404836Y-71581175D01*
X125409227Y-71581186D01*
X125479408Y-71547636D01*
X125528098Y-71486970D01*
X125530298Y-71477478D01*
X125547653Y-71453192D01*
X125577097Y-71448291D01*
X125595868Y-71458707D01*
X125988578Y-71851417D01*
X125999038Y-71870386D01*
X126014533Y-71938861D01*
X126017265Y-71942301D01*
X126017265Y-71942302D01*
X126066359Y-72004132D01*
X126074561Y-72032832D01*
X126060067Y-72058926D01*
X126046302Y-72065947D01*
X125742199Y-72150842D01*
X125739770Y-72151437D01*
X125150987Y-72275753D01*
X125148550Y-72276187D01*
X124553006Y-72362508D01*
X124550530Y-72362786D01*
X123950679Y-72410752D01*
X123948200Y-72410871D01*
X123679352Y-72415078D01*
X123346522Y-72420286D01*
X123344021Y-72420245D01*
X122903333Y-72398857D01*
X122742980Y-72391075D01*
X122740496Y-72390874D01*
X122391573Y-72351404D01*
X122142548Y-72323234D01*
X122140073Y-72322873D01*
X121878762Y-72276189D01*
X121547709Y-72217045D01*
X121545280Y-72216531D01*
X120960879Y-72072940D01*
X120958476Y-72072266D01*
X120859921Y-72041230D01*
X120384520Y-71891521D01*
X120382187Y-71890704D01*
X120037656Y-71757380D01*
X119820967Y-71673527D01*
X119818665Y-71672550D01*
X119383678Y-71471279D01*
X119272539Y-71419854D01*
X119270323Y-71418741D01*
X118932981Y-71235537D01*
X120549615Y-71235537D01*
X120557666Y-71271117D01*
X120564681Y-71302116D01*
X120566783Y-71311407D01*
X120569515Y-71314848D01*
X120581399Y-71329815D01*
X120615154Y-71372328D01*
X120619105Y-71374242D01*
X120619106Y-71374243D01*
X120644376Y-71386486D01*
X120685159Y-71406245D01*
X120723956Y-71406346D01*
X120758555Y-71406437D01*
X120758557Y-71406437D01*
X120762948Y-71406448D01*
X120833129Y-71372898D01*
X120881819Y-71312232D01*
X120896070Y-71250751D01*
X120896315Y-71249695D01*
X121500115Y-71249695D01*
X121505416Y-71273122D01*
X121516188Y-71320724D01*
X121517283Y-71325565D01*
X121520015Y-71329006D01*
X121527748Y-71338745D01*
X121565654Y-71386486D01*
X121569605Y-71388400D01*
X121569606Y-71388401D01*
X121592917Y-71399695D01*
X121635659Y-71420403D01*
X121674456Y-71420504D01*
X121709055Y-71420595D01*
X121709057Y-71420595D01*
X121713448Y-71420606D01*
X121783629Y-71387056D01*
X121832319Y-71326390D01*
X121838016Y-71301811D01*
X122248387Y-71301811D01*
X122265555Y-71377681D01*
X122268287Y-71381122D01*
X122284319Y-71401314D01*
X122313926Y-71438602D01*
X122317877Y-71440516D01*
X122317878Y-71440517D01*
X122333924Y-71448291D01*
X122383931Y-71472519D01*
X122422728Y-71472620D01*
X122457327Y-71472711D01*
X122457329Y-71472711D01*
X122461720Y-71472722D01*
X122531901Y-71439172D01*
X122580591Y-71378506D01*
X122592862Y-71325565D01*
X122593688Y-71322003D01*
X122780977Y-71322003D01*
X122791586Y-71368887D01*
X122794923Y-71383632D01*
X122798145Y-71397873D01*
X122800877Y-71401314D01*
X122806098Y-71407889D01*
X122846516Y-71458794D01*
X122850467Y-71460708D01*
X122850468Y-71460709D01*
X122881131Y-71475565D01*
X122916521Y-71492711D01*
X122955318Y-71492812D01*
X122989917Y-71492903D01*
X122989919Y-71492903D01*
X122994310Y-71492914D01*
X123064491Y-71459364D01*
X123113181Y-71398698D01*
X123122391Y-71358962D01*
X123130248Y-71325068D01*
X123130248Y-71325065D01*
X123130746Y-71322918D01*
X123130747Y-71322308D01*
X123113447Y-71246468D01*
X123064969Y-71185632D01*
X122994905Y-71151837D01*
X122990512Y-71151833D01*
X122990511Y-71151833D01*
X122956198Y-71151803D01*
X122917116Y-71151769D01*
X122846994Y-71185442D01*
X122798410Y-71246193D01*
X122797426Y-71250472D01*
X122782359Y-71315995D01*
X122780977Y-71322003D01*
X122593688Y-71322003D01*
X122597658Y-71304876D01*
X122597658Y-71304873D01*
X122598156Y-71302726D01*
X122598157Y-71302116D01*
X122580857Y-71226276D01*
X122532379Y-71165440D01*
X122497347Y-71148542D01*
X122466273Y-71133554D01*
X122462315Y-71131645D01*
X122457922Y-71131641D01*
X122457921Y-71131641D01*
X122423608Y-71131611D01*
X122384526Y-71131577D01*
X122314404Y-71165250D01*
X122265820Y-71226001D01*
X122264836Y-71230280D01*
X122251811Y-71286923D01*
X122248387Y-71301811D01*
X121838016Y-71301811D01*
X121845897Y-71267811D01*
X121849386Y-71252760D01*
X121849386Y-71252757D01*
X121849884Y-71250610D01*
X121849885Y-71250000D01*
X121832585Y-71174160D01*
X121784107Y-71113324D01*
X121714043Y-71079529D01*
X121709650Y-71079525D01*
X121709649Y-71079525D01*
X121675336Y-71079495D01*
X121636254Y-71079461D01*
X121566132Y-71113134D01*
X121517548Y-71173885D01*
X121516564Y-71178164D01*
X121501709Y-71242765D01*
X121500115Y-71249695D01*
X120896315Y-71249695D01*
X120898886Y-71238602D01*
X120898886Y-71238599D01*
X120899384Y-71236452D01*
X120899385Y-71235842D01*
X120882085Y-71160002D01*
X120833607Y-71099166D01*
X120792763Y-71079465D01*
X120767501Y-71067280D01*
X120763543Y-71065371D01*
X120759150Y-71065367D01*
X120759149Y-71065367D01*
X120724836Y-71065337D01*
X120685754Y-71065303D01*
X120615632Y-71098976D01*
X120567048Y-71159727D01*
X120566064Y-71164006D01*
X120550760Y-71230559D01*
X120549615Y-71235537D01*
X118932981Y-71235537D01*
X118758970Y-71141035D01*
X118757900Y-71140147D01*
X118756581Y-71139737D01*
X118753761Y-71138206D01*
X118750474Y-71135248D01*
X118745721Y-71129394D01*
X118745933Y-71129067D01*
X118590021Y-71045724D01*
X118552676Y-71025761D01*
X118552673Y-71025760D01*
X118551233Y-71024990D01*
X118341908Y-70954827D01*
X118340297Y-70954574D01*
X118340294Y-70954573D01*
X118287078Y-70946207D01*
X118251126Y-70940556D01*
X118229606Y-70929606D01*
X116380000Y-69080000D01*
X117454592Y-69080000D01*
X117455341Y-69083765D01*
X117470740Y-69161178D01*
X117474034Y-69177740D01*
X117529399Y-69260601D01*
X117612260Y-69315966D01*
X117616025Y-69316715D01*
X117663267Y-69326112D01*
X117683236Y-69336786D01*
X118160062Y-69813612D01*
X118167642Y-69824308D01*
X118169773Y-69828745D01*
X118173203Y-69831488D01*
X118195157Y-69849045D01*
X118198376Y-69851926D01*
X118204929Y-69858479D01*
X118206784Y-69859645D01*
X118212510Y-69863244D01*
X118216114Y-69865805D01*
X118224197Y-69872269D01*
X118241213Y-69885877D01*
X118246193Y-69887022D01*
X118246309Y-69887049D01*
X118258321Y-69892037D01*
X118262749Y-69894820D01*
X118294692Y-69898431D01*
X118299030Y-69899173D01*
X118307940Y-69901221D01*
X118317178Y-69901221D01*
X118321559Y-69901468D01*
X118349281Y-69904602D01*
X118349282Y-69904602D01*
X118353645Y-69905095D01*
X118358497Y-69903401D01*
X118371353Y-69901221D01*
X120886628Y-69901221D01*
X120908295Y-69907793D01*
X120951539Y-69936687D01*
X120955302Y-69937435D01*
X120955303Y-69937436D01*
X121045514Y-69955380D01*
X121049279Y-69956129D01*
X121053044Y-69955380D01*
X121143255Y-69937436D01*
X121143256Y-69937435D01*
X121147019Y-69936687D01*
X121229880Y-69881322D01*
X121285245Y-69798461D01*
X121304687Y-69700721D01*
X121292403Y-69638964D01*
X121285994Y-69606745D01*
X121285993Y-69606744D01*
X121285245Y-69602981D01*
X121229880Y-69520120D01*
X121147019Y-69464755D01*
X121143256Y-69464007D01*
X121143255Y-69464006D01*
X121053044Y-69446062D01*
X121049279Y-69445313D01*
X121045514Y-69446062D01*
X120955303Y-69464006D01*
X120955302Y-69464007D01*
X120951539Y-69464755D01*
X120948348Y-69466887D01*
X120908295Y-69493649D01*
X120886628Y-69500221D01*
X118429924Y-69500221D01*
X118402347Y-69488798D01*
X117966786Y-69053236D01*
X117956112Y-69033267D01*
X117946715Y-68986025D01*
X117946715Y-68986024D01*
X117945966Y-68982260D01*
X117890601Y-68899399D01*
X117807740Y-68844034D01*
X117803977Y-68843286D01*
X117803976Y-68843285D01*
X117713765Y-68825341D01*
X117710000Y-68824592D01*
X117706235Y-68825341D01*
X117616024Y-68843285D01*
X117616023Y-68843286D01*
X117612260Y-68844034D01*
X117529399Y-68899399D01*
X117474034Y-68982260D01*
X117473286Y-68986023D01*
X117473285Y-68986024D01*
X117472065Y-68992159D01*
X117454592Y-69080000D01*
X116380000Y-69080000D01*
X115889564Y-68589564D01*
X115878141Y-68561987D01*
X115889564Y-68534410D01*
X115917141Y-68522987D01*
X115924749Y-68523736D01*
X115949278Y-68528615D01*
X115949279Y-68528615D01*
X115953044Y-68529364D01*
X115956809Y-68528615D01*
X116047020Y-68510671D01*
X116047021Y-68510670D01*
X116050784Y-68509922D01*
X116133645Y-68454557D01*
X116189010Y-68371696D01*
X116197001Y-68331526D01*
X116207703Y-68277721D01*
X116208452Y-68273956D01*
X116189010Y-68176216D01*
X116160116Y-68132972D01*
X116153544Y-68111305D01*
X116153544Y-67283891D01*
X116155747Y-67270968D01*
X116155924Y-67270465D01*
X116155924Y-67270464D01*
X116157378Y-67266324D01*
X116153783Y-67234021D01*
X116153544Y-67229708D01*
X116153544Y-67220441D01*
X116151552Y-67211709D01*
X116150814Y-67207348D01*
X116147746Y-67179774D01*
X116147745Y-67179772D01*
X116147260Y-67175410D01*
X116144930Y-67171689D01*
X116144929Y-67171685D01*
X116144486Y-67170978D01*
X116139519Y-67158959D01*
X116138356Y-67153859D01*
X116134393Y-67148885D01*
X116118328Y-67128726D01*
X116115772Y-67125116D01*
X116112097Y-67119246D01*
X116110927Y-67117377D01*
X116104396Y-67110846D01*
X116101473Y-67107574D01*
X116086631Y-67088949D01*
X116081349Y-67082320D01*
X116076717Y-67080086D01*
X116066088Y-67072538D01*
X115943245Y-66949695D01*
X120700115Y-66949695D01*
X120717283Y-67025565D01*
X120720015Y-67029006D01*
X120724454Y-67034597D01*
X120765654Y-67086486D01*
X120769605Y-67088400D01*
X120769606Y-67088401D01*
X120797927Y-67102122D01*
X120835659Y-67120403D01*
X120874456Y-67120504D01*
X120909055Y-67120595D01*
X120909057Y-67120595D01*
X120913448Y-67120606D01*
X120983629Y-67087056D01*
X121032319Y-67026390D01*
X121049884Y-66950610D01*
X121049885Y-66950000D01*
X121032585Y-66874160D01*
X120984107Y-66813324D01*
X120925545Y-66785077D01*
X120905669Y-66762808D01*
X120907362Y-66733006D01*
X120925668Y-66714764D01*
X120979669Y-66688949D01*
X120983629Y-66687056D01*
X121032319Y-66626390D01*
X121046024Y-66567265D01*
X121049386Y-66552760D01*
X121049386Y-66552757D01*
X121049884Y-66550610D01*
X121049885Y-66550000D01*
X121032585Y-66474160D01*
X120984107Y-66413324D01*
X120942749Y-66393375D01*
X120918001Y-66381438D01*
X120914043Y-66379529D01*
X120909650Y-66379525D01*
X120909649Y-66379525D01*
X120875336Y-66379495D01*
X120836254Y-66379461D01*
X120766132Y-66413134D01*
X120717548Y-66473885D01*
X120716564Y-66478164D01*
X120702730Y-66538324D01*
X120700115Y-66549695D01*
X120710460Y-66595414D01*
X120714655Y-66613949D01*
X120717283Y-66625565D01*
X120765654Y-66686486D01*
X120769605Y-66688400D01*
X120769606Y-66688401D01*
X120824410Y-66714953D01*
X120844247Y-66737257D01*
X120842503Y-66767056D01*
X120824288Y-66785207D01*
X120766132Y-66813134D01*
X120717548Y-66873885D01*
X120716564Y-66878164D01*
X120707734Y-66916564D01*
X120700115Y-66949695D01*
X115943245Y-66949695D01*
X115843489Y-66849939D01*
X115835909Y-66839243D01*
X115835680Y-66838766D01*
X115835679Y-66838765D01*
X115833778Y-66834806D01*
X115808393Y-66814505D01*
X115805175Y-66811625D01*
X115798622Y-66805072D01*
X115791041Y-66800307D01*
X115787437Y-66797746D01*
X115765768Y-66780417D01*
X115762338Y-66777674D01*
X115757242Y-66776502D01*
X115745230Y-66771514D01*
X115744522Y-66771069D01*
X115740802Y-66768731D01*
X115708859Y-66765120D01*
X115704521Y-66764378D01*
X115695611Y-66762330D01*
X115686373Y-66762330D01*
X115681992Y-66762083D01*
X115654270Y-66758949D01*
X115654269Y-66758949D01*
X115649906Y-66758456D01*
X115645054Y-66760150D01*
X115632198Y-66762330D01*
X115400342Y-66762330D01*
X115375984Y-66753788D01*
X115357429Y-66738949D01*
X115356176Y-66737947D01*
X115352958Y-66735067D01*
X115346407Y-66728516D01*
X115344554Y-66727351D01*
X115344551Y-66727349D01*
X115338826Y-66723751D01*
X115335223Y-66721191D01*
X115334372Y-66720510D01*
X115333801Y-66720054D01*
X115319905Y-66697202D01*
X115311716Y-66656028D01*
X115311715Y-66656026D01*
X115310966Y-66652260D01*
X115306385Y-66645403D01*
X115257735Y-66572593D01*
X115255601Y-66569399D01*
X115172740Y-66514034D01*
X115168977Y-66513286D01*
X115168976Y-66513285D01*
X115099308Y-66499427D01*
X115075000Y-66494592D01*
X115050692Y-66499427D01*
X114981024Y-66513285D01*
X114981023Y-66513286D01*
X114977260Y-66514034D01*
X114894399Y-66569399D01*
X114866223Y-66611569D01*
X114841406Y-66628151D01*
X114812130Y-66622328D01*
X114797425Y-66603975D01*
X114762620Y-66514034D01*
X114609295Y-66117815D01*
X114608473Y-66115468D01*
X114605349Y-66105545D01*
X114465942Y-65662861D01*
X114427728Y-65541511D01*
X114427059Y-65539124D01*
X114362925Y-65278108D01*
X114367438Y-65248603D01*
X114391493Y-65230929D01*
X114408499Y-65230810D01*
X114411443Y-65232237D01*
X114415833Y-65232249D01*
X114415835Y-65232249D01*
X114433348Y-65232295D01*
X114460895Y-65243791D01*
X114472245Y-65271398D01*
X114471254Y-65280029D01*
X114466744Y-65299641D01*
X114486933Y-65388861D01*
X114543815Y-65460500D01*
X114547766Y-65462414D01*
X114547767Y-65462415D01*
X114570360Y-65473361D01*
X114626137Y-65500385D01*
X114630527Y-65500396D01*
X114630529Y-65500397D01*
X114643251Y-65500430D01*
X114670798Y-65511925D01*
X114681186Y-65530822D01*
X114700733Y-65617205D01*
X114757615Y-65688844D01*
X114761566Y-65690758D01*
X114761567Y-65690759D01*
X114793925Y-65706436D01*
X114839937Y-65728729D01*
X114861753Y-65728786D01*
X114889300Y-65740281D01*
X114900651Y-65767888D01*
X114899659Y-65776525D01*
X114895328Y-65795359D01*
X114895328Y-65795362D01*
X114894344Y-65799641D01*
X114905012Y-65846786D01*
X114909157Y-65865101D01*
X114914533Y-65888861D01*
X114971415Y-65960500D01*
X114975366Y-65962414D01*
X114975367Y-65962415D01*
X115012576Y-65980443D01*
X115053737Y-66000385D01*
X115058127Y-66000397D01*
X115058129Y-66000397D01*
X115099589Y-66000505D01*
X115145213Y-66000625D01*
X115227743Y-65961171D01*
X115230488Y-65957750D01*
X115230490Y-65957749D01*
X115282251Y-65893255D01*
X115284999Y-65889831D01*
X115300771Y-65821788D01*
X115305158Y-65802864D01*
X115305158Y-65802860D01*
X115305655Y-65800718D01*
X115305656Y-65800000D01*
X115285312Y-65710815D01*
X115282575Y-65707381D01*
X115282574Y-65707378D01*
X115247100Y-65662861D01*
X115238600Y-65638556D01*
X115238600Y-63773564D01*
X115250023Y-63745987D01*
X118703134Y-60292876D01*
X118730711Y-60281453D01*
X118747713Y-60285354D01*
X118778737Y-60300385D01*
X118783124Y-60300397D01*
X118783126Y-60300397D01*
X118824925Y-60300506D01*
X118870213Y-60300625D01*
X118952743Y-60261171D01*
X118955488Y-60257750D01*
X118955490Y-60257749D01*
X119007251Y-60193255D01*
X119009999Y-60189831D01*
X119023324Y-60132344D01*
X119030158Y-60102864D01*
X119030158Y-60102860D01*
X119030655Y-60100718D01*
X119030656Y-60100000D01*
X119013453Y-60024584D01*
X119011289Y-60015097D01*
X119011289Y-60015096D01*
X119010312Y-60010815D01*
X119002775Y-60001356D01*
X118991455Y-59987151D01*
X118953305Y-59939276D01*
X118870913Y-59899535D01*
X118866520Y-59899531D01*
X118866519Y-59899531D01*
X118825403Y-59899495D01*
X118779437Y-59899455D01*
X118696976Y-59939052D01*
X118694232Y-59942483D01*
X118694231Y-59942484D01*
X118690129Y-59947613D01*
X118669765Y-59960927D01*
X118667996Y-59961401D01*
X118662862Y-59961401D01*
X118656694Y-59964962D01*
X118650947Y-59968280D01*
X118641543Y-59972175D01*
X118628256Y-59975735D01*
X118614899Y-59989092D01*
X118614897Y-59989093D01*
X118541843Y-60062147D01*
X118514266Y-60073570D01*
X118486689Y-60062147D01*
X118483766Y-60058875D01*
X118473192Y-60045606D01*
X118428305Y-59989276D01*
X118356860Y-59954815D01*
X118349871Y-59951444D01*
X118345913Y-59949535D01*
X118341520Y-59949531D01*
X118341519Y-59949531D01*
X118300403Y-59949495D01*
X118254437Y-59949455D01*
X118250478Y-59951356D01*
X118227548Y-59962367D01*
X118171976Y-59989052D01*
X118169233Y-59992482D01*
X118121870Y-60051707D01*
X118114844Y-60060492D01*
X118113861Y-60064769D01*
X118113860Y-60064770D01*
X118111033Y-60077065D01*
X118093720Y-60101380D01*
X118064284Y-60106332D01*
X118042527Y-60092631D01*
X118019974Y-60064329D01*
X117960858Y-60035815D01*
X117941540Y-60026497D01*
X117937582Y-60024588D01*
X117933189Y-60024584D01*
X117933188Y-60024584D01*
X117892072Y-60024548D01*
X117846106Y-60024508D01*
X117842147Y-60026409D01*
X117827313Y-60033532D01*
X117763645Y-60064105D01*
X117760902Y-60067535D01*
X117754540Y-60075490D01*
X117737797Y-60086436D01*
X117737808Y-60086455D01*
X117737610Y-60086569D01*
X117737469Y-60086650D01*
X117737465Y-60086653D01*
X117733363Y-60089021D01*
X117725894Y-60093333D01*
X117716493Y-60097227D01*
X117715435Y-60097511D01*
X117710489Y-60098836D01*
X117680897Y-60094943D01*
X117662371Y-60069840D01*
X117660312Y-60060815D01*
X117654866Y-60053980D01*
X117644485Y-60040954D01*
X117603305Y-59989276D01*
X117531860Y-59954815D01*
X117524871Y-59951444D01*
X117520913Y-59949535D01*
X117516520Y-59949531D01*
X117516519Y-59949531D01*
X117475403Y-59949495D01*
X117429437Y-59949455D01*
X117425478Y-59951356D01*
X117402548Y-59962367D01*
X117346976Y-59989052D01*
X117344233Y-59992482D01*
X117296870Y-60051707D01*
X117289844Y-60060492D01*
X117288860Y-60064769D01*
X117288860Y-60064770D01*
X117283797Y-60086788D01*
X117273366Y-60105624D01*
X114346799Y-63032191D01*
X114346798Y-63032193D01*
X114333441Y-63045550D01*
X114332113Y-63050508D01*
X114329881Y-63058837D01*
X114325986Y-63068241D01*
X114319107Y-63080156D01*
X114319107Y-63099045D01*
X114319106Y-63099048D01*
X114319106Y-64714598D01*
X114307683Y-64742175D01*
X114280106Y-64753598D01*
X114252529Y-64742175D01*
X114241714Y-64721457D01*
X114177126Y-64359928D01*
X114176765Y-64357453D01*
X114142186Y-64051774D01*
X114109124Y-63759504D01*
X114108923Y-63757016D01*
X114079753Y-63155979D01*
X114079712Y-63153478D01*
X114086410Y-62725467D01*
X114089127Y-62551801D01*
X114089246Y-62549312D01*
X114124236Y-62111754D01*
X114137212Y-61949471D01*
X114137491Y-61946990D01*
X114181618Y-61642547D01*
X114223810Y-61351450D01*
X114224246Y-61349000D01*
X114229613Y-61323584D01*
X114348561Y-60760230D01*
X114349156Y-60757801D01*
X114510957Y-60178211D01*
X114511707Y-60175824D01*
X114599574Y-59924535D01*
X114617001Y-59874695D01*
X116225115Y-59874695D01*
X116227341Y-59884533D01*
X116239729Y-59939276D01*
X116242283Y-59950565D01*
X116290654Y-60011486D01*
X116294605Y-60013400D01*
X116294606Y-60013401D01*
X116325657Y-60028445D01*
X116360659Y-60045403D01*
X116399456Y-60045504D01*
X116434055Y-60045595D01*
X116434057Y-60045595D01*
X116438448Y-60045606D01*
X116508629Y-60012056D01*
X116557319Y-59951390D01*
X116568916Y-59901356D01*
X116574386Y-59877760D01*
X116574386Y-59877757D01*
X116574884Y-59875610D01*
X116574885Y-59875000D01*
X116557585Y-59799160D01*
X116509107Y-59738324D01*
X116439043Y-59704529D01*
X116434650Y-59704525D01*
X116434649Y-59704525D01*
X116400336Y-59704495D01*
X116361254Y-59704461D01*
X116291132Y-59738134D01*
X116242548Y-59798885D01*
X116241564Y-59803164D01*
X116226310Y-59869500D01*
X116225115Y-59874695D01*
X114617001Y-59874695D01*
X114710330Y-59607789D01*
X114711226Y-59605468D01*
X114713542Y-59600000D01*
X114787165Y-59426119D01*
X115551539Y-59426119D01*
X115568707Y-59501989D01*
X115571439Y-59505430D01*
X115586092Y-59523885D01*
X115617078Y-59562910D01*
X115621029Y-59564824D01*
X115621030Y-59564825D01*
X115652080Y-59579868D01*
X115687083Y-59596827D01*
X115725880Y-59596928D01*
X115760479Y-59597019D01*
X115760481Y-59597019D01*
X115764872Y-59597030D01*
X115835053Y-59563480D01*
X115883743Y-59502814D01*
X115896871Y-59446175D01*
X115900810Y-59429184D01*
X115900810Y-59429181D01*
X115901308Y-59427034D01*
X115901309Y-59426424D01*
X115884009Y-59350584D01*
X115853452Y-59312238D01*
X116060234Y-59312238D01*
X116069817Y-59354588D01*
X116076187Y-59382737D01*
X116077402Y-59388108D01*
X116080134Y-59391549D01*
X116086367Y-59399399D01*
X116125773Y-59449029D01*
X116129724Y-59450943D01*
X116129725Y-59450944D01*
X116142155Y-59456966D01*
X116195778Y-59482946D01*
X116234575Y-59483047D01*
X116269174Y-59483138D01*
X116269176Y-59483138D01*
X116273567Y-59483149D01*
X116343748Y-59449599D01*
X116392438Y-59388933D01*
X116407352Y-59324592D01*
X116409505Y-59315303D01*
X116409505Y-59315300D01*
X116410003Y-59313153D01*
X116410004Y-59312543D01*
X116392704Y-59236703D01*
X116344226Y-59175867D01*
X116295947Y-59152580D01*
X116278120Y-59143981D01*
X116274162Y-59142072D01*
X116269769Y-59142068D01*
X116269768Y-59142068D01*
X116235455Y-59142038D01*
X116196373Y-59142004D01*
X116126251Y-59175677D01*
X116077667Y-59236428D01*
X116076683Y-59240707D01*
X116062414Y-59302760D01*
X116060234Y-59312238D01*
X115853452Y-59312238D01*
X115835531Y-59289748D01*
X115765467Y-59255953D01*
X115761074Y-59255949D01*
X115761073Y-59255949D01*
X115726760Y-59255919D01*
X115687678Y-59255885D01*
X115617556Y-59289558D01*
X115568972Y-59350309D01*
X115567988Y-59354588D01*
X115552873Y-59420319D01*
X115551539Y-59426119D01*
X114787165Y-59426119D01*
X114945847Y-59051346D01*
X114946890Y-59049086D01*
X114951896Y-59039101D01*
X115216556Y-58511131D01*
X115217747Y-58508934D01*
X115229451Y-58488905D01*
X115266318Y-58425811D01*
X115416737Y-58168388D01*
X115440513Y-58150341D01*
X115470086Y-58154391D01*
X115488661Y-58180457D01*
X115489500Y-58184674D01*
X115502595Y-58250504D01*
X115504034Y-58257740D01*
X115559399Y-58340601D01*
X115642260Y-58395966D01*
X115646023Y-58396714D01*
X115646024Y-58396715D01*
X115715692Y-58410573D01*
X115734516Y-58414317D01*
X115736235Y-58414659D01*
X115740000Y-58415408D01*
X115743765Y-58414659D01*
X115745485Y-58414317D01*
X115764308Y-58410573D01*
X115833976Y-58396715D01*
X115833977Y-58396714D01*
X115837740Y-58395966D01*
X115920601Y-58340601D01*
X115954740Y-58289508D01*
X115973831Y-58260936D01*
X115973832Y-58260934D01*
X115975966Y-58257740D01*
X115976715Y-58253974D01*
X115976716Y-58253972D01*
X115979031Y-58242335D01*
X116429627Y-58242335D01*
X116446795Y-58318205D01*
X116495166Y-58379126D01*
X116499117Y-58381040D01*
X116499118Y-58381041D01*
X116522733Y-58392482D01*
X116565171Y-58413043D01*
X116603968Y-58413144D01*
X116638567Y-58413235D01*
X116638569Y-58413235D01*
X116642960Y-58413246D01*
X116713141Y-58379696D01*
X116761831Y-58319030D01*
X116773102Y-58270403D01*
X116778898Y-58245400D01*
X116778898Y-58245397D01*
X116779396Y-58243250D01*
X116779397Y-58242640D01*
X116762097Y-58166800D01*
X116759358Y-58163363D01*
X116757695Y-58159908D01*
X116756027Y-58130105D01*
X116775921Y-58107852D01*
X116805724Y-58106184D01*
X116809840Y-58107895D01*
X116831705Y-58118488D01*
X116831708Y-58118489D01*
X116835659Y-58120403D01*
X116874456Y-58120504D01*
X116909055Y-58120595D01*
X116909057Y-58120595D01*
X116913448Y-58120606D01*
X116983629Y-58087056D01*
X117032319Y-58026390D01*
X117046140Y-57966762D01*
X117049386Y-57952760D01*
X117049386Y-57952757D01*
X117049884Y-57950610D01*
X117049885Y-57950000D01*
X117032585Y-57874160D01*
X116984107Y-57813324D01*
X116931647Y-57788020D01*
X116918001Y-57781438D01*
X116914043Y-57779529D01*
X116909650Y-57779525D01*
X116909649Y-57779525D01*
X116875336Y-57779495D01*
X116836254Y-57779461D01*
X116766132Y-57813134D01*
X116717548Y-57873885D01*
X116716564Y-57878164D01*
X116701102Y-57945404D01*
X116700115Y-57949695D01*
X116717283Y-58025565D01*
X116720014Y-58029004D01*
X116721839Y-58032814D01*
X116723454Y-58062619D01*
X116703519Y-58084836D01*
X116673714Y-58086451D01*
X116669725Y-58084792D01*
X116647513Y-58074078D01*
X116643555Y-58072169D01*
X116639162Y-58072165D01*
X116639161Y-58072165D01*
X116604848Y-58072135D01*
X116565766Y-58072101D01*
X116495644Y-58105774D01*
X116447060Y-58166525D01*
X116446076Y-58170804D01*
X116431754Y-58233087D01*
X116429627Y-58242335D01*
X115979031Y-58242335D01*
X115982029Y-58227259D01*
X115990500Y-58184674D01*
X115993298Y-58170606D01*
X115995408Y-58160000D01*
X115994293Y-58154391D01*
X115991249Y-58139090D01*
X115990500Y-58131482D01*
X115990500Y-58004914D01*
X116001923Y-57977337D01*
X117272923Y-56706337D01*
X117300500Y-56694914D01*
X117328077Y-56706337D01*
X117339500Y-56733914D01*
X117339500Y-59086482D01*
X117338751Y-59094090D01*
X117335677Y-59109547D01*
X117334592Y-59115000D01*
X117337469Y-59129465D01*
X117352969Y-59207385D01*
X117354034Y-59212741D01*
X117370045Y-59236703D01*
X117409399Y-59295601D01*
X117412590Y-59297733D01*
X117412594Y-59297737D01*
X117427128Y-59307448D01*
X117433038Y-59312298D01*
X117577706Y-59456966D01*
X117582557Y-59462877D01*
X117592265Y-59477408D01*
X117592267Y-59477410D01*
X117594399Y-59480601D01*
X117597590Y-59482733D01*
X117597591Y-59482734D01*
X117615316Y-59494577D01*
X117615317Y-59494578D01*
X117654049Y-59520457D01*
X117677260Y-59535966D01*
X117681023Y-59536715D01*
X117681024Y-59536715D01*
X117771235Y-59554660D01*
X117775000Y-59555409D01*
X117778765Y-59554660D01*
X117868976Y-59536715D01*
X117872741Y-59535966D01*
X117955601Y-59480601D01*
X118010966Y-59397741D01*
X118030409Y-59300000D01*
X118016190Y-59228519D01*
X118011715Y-59206024D01*
X118011715Y-59206023D01*
X118010966Y-59202260D01*
X118008465Y-59198516D01*
X117969578Y-59140317D01*
X117969576Y-59140315D01*
X117957734Y-59122591D01*
X117957733Y-59122590D01*
X117955601Y-59119399D01*
X117952410Y-59117267D01*
X117952408Y-59117265D01*
X117937877Y-59107557D01*
X117931966Y-59102706D01*
X117851923Y-59022663D01*
X117840500Y-58995086D01*
X117840500Y-56992184D01*
X117851923Y-56964607D01*
X117879500Y-56953184D01*
X117907077Y-56964607D01*
X117910043Y-56967933D01*
X117916859Y-56976517D01*
X117940654Y-57006486D01*
X117944605Y-57008400D01*
X117944606Y-57008401D01*
X117969680Y-57020549D01*
X118010659Y-57040403D01*
X118049456Y-57040504D01*
X118084055Y-57040595D01*
X118084057Y-57040595D01*
X118088448Y-57040606D01*
X118158629Y-57007056D01*
X118207319Y-56946390D01*
X118223050Y-56878524D01*
X118224386Y-56872760D01*
X118224386Y-56872757D01*
X118224884Y-56870610D01*
X118224885Y-56870000D01*
X118207585Y-56794160D01*
X118177465Y-56756362D01*
X118161846Y-56736761D01*
X118159107Y-56733324D01*
X118156166Y-56731905D01*
X118142057Y-56706348D01*
X118150334Y-56677669D01*
X118176466Y-56663243D01*
X118180814Y-56663000D01*
X118572174Y-56663000D01*
X118574042Y-56662628D01*
X118574046Y-56662628D01*
X118641476Y-56649215D01*
X118641477Y-56649214D01*
X118645240Y-56648466D01*
X118728101Y-56593101D01*
X118783466Y-56510240D01*
X118785337Y-56500834D01*
X118801920Y-56476014D01*
X118831195Y-56470190D01*
X118854131Y-56484190D01*
X118895654Y-56536486D01*
X118899605Y-56538400D01*
X118899606Y-56538401D01*
X118921615Y-56549064D01*
X118965659Y-56570403D01*
X119004456Y-56570504D01*
X119039055Y-56570595D01*
X119039057Y-56570595D01*
X119043448Y-56570606D01*
X119113629Y-56537056D01*
X119162319Y-56476390D01*
X119171529Y-56436654D01*
X119179386Y-56402760D01*
X119179386Y-56402757D01*
X119179884Y-56400610D01*
X119179885Y-56400000D01*
X119162585Y-56324160D01*
X119140923Y-56296976D01*
X119116845Y-56266759D01*
X119116843Y-56266757D01*
X119114107Y-56263324D01*
X119100040Y-56256539D01*
X119093502Y-56253385D01*
X119073626Y-56231115D01*
X119075319Y-56201314D01*
X119082869Y-56190681D01*
X119106764Y-56166786D01*
X119126733Y-56156112D01*
X119173973Y-56146716D01*
X119173975Y-56146715D01*
X119177741Y-56145966D01*
X119180935Y-56143832D01*
X119180937Y-56143831D01*
X119238085Y-56105645D01*
X119238087Y-56105644D01*
X119239683Y-56104577D01*
X119366010Y-55978250D01*
X119393587Y-55966827D01*
X119421164Y-55978250D01*
G37*
%TD.AperFunction*%
%TA.AperFunction,Conductor*%
G36*
X123818832Y-54072158D02*
G01*
X123818890Y-54072171D01*
X123828131Y-54072171D01*
X123832512Y-54072418D01*
X123864594Y-54076045D01*
X123869442Y-54074352D01*
X123882300Y-54072171D01*
X124292467Y-54072171D01*
X124320044Y-54083594D01*
X125099341Y-54862891D01*
X125106921Y-54873587D01*
X125109052Y-54878024D01*
X125112482Y-54880767D01*
X125134436Y-54898324D01*
X125137655Y-54901205D01*
X125144208Y-54907758D01*
X125146063Y-54908924D01*
X125151789Y-54912523D01*
X125155393Y-54915084D01*
X125177062Y-54932413D01*
X125180492Y-54935156D01*
X125185472Y-54936301D01*
X125185588Y-54936328D01*
X125197600Y-54941316D01*
X125202028Y-54944099D01*
X125206392Y-54944592D01*
X125206394Y-54944593D01*
X125233962Y-54947709D01*
X125238322Y-54948454D01*
X125241083Y-54949089D01*
X125247219Y-54950500D01*
X125256452Y-54950500D01*
X125260833Y-54950747D01*
X125292924Y-54954375D01*
X125297780Y-54952679D01*
X125310633Y-54950500D01*
X126450796Y-54950500D01*
X126478373Y-54961923D01*
X126679341Y-55162891D01*
X126686921Y-55173587D01*
X126689052Y-55178024D01*
X126696804Y-55184223D01*
X126714436Y-55198324D01*
X126717655Y-55201205D01*
X126724208Y-55207758D01*
X126726063Y-55208924D01*
X126731789Y-55212523D01*
X126735393Y-55215084D01*
X126760492Y-55235156D01*
X126765472Y-55236301D01*
X126765588Y-55236328D01*
X126777600Y-55241316D01*
X126782028Y-55244099D01*
X126813971Y-55247710D01*
X126818309Y-55248452D01*
X126827219Y-55250500D01*
X126836457Y-55250500D01*
X126840838Y-55250747D01*
X126868560Y-55253881D01*
X126868561Y-55253881D01*
X126872924Y-55254374D01*
X126877776Y-55252680D01*
X126890632Y-55250500D01*
X127450796Y-55250500D01*
X127478373Y-55261923D01*
X127828077Y-55611627D01*
X127839500Y-55639204D01*
X127839500Y-56199152D01*
X127837297Y-56212073D01*
X127837121Y-56212574D01*
X127837121Y-56212576D01*
X127835666Y-56216719D01*
X127838333Y-56240684D01*
X127839261Y-56249024D01*
X127839500Y-56253337D01*
X127839500Y-56262603D01*
X127841491Y-56271328D01*
X127842228Y-56275687D01*
X127845783Y-56307633D01*
X127848558Y-56312066D01*
X127853524Y-56324082D01*
X127854688Y-56329185D01*
X127857426Y-56332621D01*
X127874712Y-56354313D01*
X127877263Y-56357914D01*
X127882116Y-56365666D01*
X127888648Y-56372198D01*
X127891571Y-56375470D01*
X127911695Y-56400724D01*
X127916327Y-56402958D01*
X127926956Y-56410506D01*
X128587791Y-57071341D01*
X128596349Y-57092001D01*
X128598691Y-57091535D01*
X128618659Y-57102209D01*
X128979341Y-57462891D01*
X128986921Y-57473587D01*
X128989052Y-57478024D01*
X128992322Y-57480639D01*
X129000517Y-57509217D01*
X128986047Y-57535324D01*
X128978651Y-57539959D01*
X128917267Y-57569436D01*
X128917264Y-57569438D01*
X128913306Y-57571339D01*
X128864722Y-57632090D01*
X128863738Y-57636369D01*
X128848314Y-57703444D01*
X128847289Y-57707900D01*
X128864457Y-57783770D01*
X128912828Y-57844691D01*
X128916779Y-57846605D01*
X128916780Y-57846606D01*
X128936917Y-57856362D01*
X128982833Y-57878608D01*
X129021630Y-57878709D01*
X129056229Y-57878800D01*
X129056231Y-57878800D01*
X129060622Y-57878811D01*
X129130803Y-57845261D01*
X129179493Y-57784595D01*
X129189267Y-57742427D01*
X129196560Y-57710965D01*
X129196560Y-57710962D01*
X129197058Y-57708815D01*
X129197059Y-57708205D01*
X129179759Y-57632365D01*
X129164969Y-57613805D01*
X129156716Y-57585119D01*
X129171164Y-57559000D01*
X129195469Y-57550500D01*
X130362349Y-57550500D01*
X130384016Y-57557072D01*
X130386915Y-57559009D01*
X130414979Y-57577760D01*
X130427260Y-57585966D01*
X130431023Y-57586714D01*
X130431024Y-57586715D01*
X130500692Y-57600573D01*
X130520265Y-57604466D01*
X130521235Y-57604659D01*
X130525000Y-57605408D01*
X130528765Y-57604659D01*
X130529736Y-57604466D01*
X130591968Y-57592087D01*
X131199879Y-58199998D01*
X131605604Y-58199998D01*
X131628004Y-58244249D01*
X131628335Y-58244045D01*
X131631069Y-58246374D01*
X131631360Y-58246622D01*
X131635700Y-58251973D01*
X131636885Y-58251330D01*
X131638313Y-58253960D01*
X131638462Y-58255378D01*
X131640344Y-58257699D01*
X131918735Y-58770312D01*
X131919853Y-58772539D01*
X132029601Y-59009724D01*
X132172550Y-59318665D01*
X132173527Y-59320967D01*
X132245223Y-59506239D01*
X132390704Y-59882186D01*
X132391521Y-59884519D01*
X132554171Y-60401014D01*
X132572266Y-60458475D01*
X132572940Y-60460878D01*
X132678587Y-60890849D01*
X132716529Y-61045270D01*
X132717047Y-61047717D01*
X132822872Y-61640072D01*
X132823233Y-61642547D01*
X132839442Y-61785837D01*
X132880100Y-62145245D01*
X132890874Y-62240491D01*
X132891075Y-62242984D01*
X132920245Y-62844021D01*
X132920286Y-62846522D01*
X132916334Y-63099054D01*
X132911860Y-63385010D01*
X132910871Y-63448189D01*
X132910752Y-63450678D01*
X132867713Y-63988910D01*
X132862786Y-64050525D01*
X132862508Y-64053005D01*
X132802167Y-64469316D01*
X132776190Y-64648536D01*
X132775754Y-64650986D01*
X132653025Y-65232249D01*
X132651437Y-65239770D01*
X132650844Y-65242192D01*
X132649054Y-65248603D01*
X132489042Y-65821788D01*
X132488292Y-65824175D01*
X132423993Y-66008061D01*
X132294104Y-66379529D01*
X132289674Y-66392198D01*
X132288778Y-66394519D01*
X132054490Y-66947853D01*
X132054156Y-66948642D01*
X132053113Y-66950903D01*
X131808716Y-67438451D01*
X131783444Y-67488866D01*
X131782253Y-67491063D01*
X131775182Y-67503164D01*
X131478660Y-68010623D01*
X131477329Y-68012741D01*
X131409129Y-68113950D01*
X131142303Y-68509922D01*
X131141066Y-68511757D01*
X131139606Y-68513781D01*
X131031425Y-68654006D01*
X130772037Y-68990228D01*
X130770446Y-68992159D01*
X130373093Y-69444064D01*
X130371382Y-69445888D01*
X129945888Y-69871381D01*
X129944064Y-69873092D01*
X129612387Y-70164731D01*
X129584134Y-70174363D01*
X129557346Y-70161196D01*
X129548611Y-70144116D01*
X129536289Y-70090097D01*
X129536289Y-70090096D01*
X129535312Y-70085815D01*
X129530133Y-70079315D01*
X129515754Y-70061272D01*
X129509000Y-70052796D01*
X129500500Y-70028491D01*
X129500500Y-69578493D01*
X129511923Y-69550916D01*
X129910916Y-69151923D01*
X129938493Y-69140500D01*
X130180327Y-69140500D01*
X130193644Y-69132811D01*
X130203051Y-69128915D01*
X130212944Y-69126264D01*
X130217904Y-69124935D01*
X130274935Y-69067905D01*
X130274935Y-69067904D01*
X131364935Y-67977904D01*
X131368915Y-67963051D01*
X131372811Y-67953645D01*
X131377933Y-67944773D01*
X131380500Y-67940327D01*
X131380501Y-67859674D01*
X131380500Y-67859672D01*
X131380500Y-66918493D01*
X131391923Y-66890916D01*
X131954935Y-66327904D01*
X131958915Y-66313051D01*
X131962811Y-66303645D01*
X131967933Y-66294773D01*
X131970500Y-66290327D01*
X131970501Y-66209674D01*
X131970500Y-66209672D01*
X131970500Y-61604673D01*
X131962811Y-61591355D01*
X131958915Y-61581949D01*
X131956264Y-61572056D01*
X131954935Y-61567096D01*
X131897905Y-61510065D01*
X131897904Y-61510065D01*
X130511480Y-60123641D01*
X130501034Y-60104738D01*
X130496859Y-60086436D01*
X130485312Y-60035815D01*
X130476363Y-60024584D01*
X130469179Y-60015570D01*
X130428305Y-59964276D01*
X130345913Y-59924535D01*
X130341520Y-59924531D01*
X130341519Y-59924531D01*
X130300403Y-59924495D01*
X130254437Y-59924455D01*
X130250478Y-59926356D01*
X130227548Y-59937367D01*
X130171976Y-59964052D01*
X130140413Y-60003520D01*
X130114270Y-60017922D01*
X130085598Y-60009619D01*
X130079456Y-60003466D01*
X130066455Y-59987151D01*
X130028305Y-59939276D01*
X129945913Y-59899535D01*
X129941520Y-59899531D01*
X129941519Y-59899531D01*
X129900403Y-59899495D01*
X129854437Y-59899455D01*
X129771976Y-59939052D01*
X129769233Y-59942482D01*
X129723607Y-59999535D01*
X129714844Y-60010492D01*
X129713861Y-60014769D01*
X129713860Y-60014770D01*
X129708945Y-60036144D01*
X129691632Y-60060459D01*
X129662196Y-60065411D01*
X129640437Y-60051708D01*
X129628023Y-60036129D01*
X129555701Y-60001245D01*
X129549589Y-59998297D01*
X129545631Y-59996388D01*
X129541238Y-59996384D01*
X129541237Y-59996384D01*
X129500121Y-59996348D01*
X129454155Y-59996308D01*
X129450196Y-59998209D01*
X129443459Y-60001444D01*
X129395429Y-60024508D01*
X129393573Y-60025399D01*
X129363769Y-60027039D01*
X129341534Y-60007124D01*
X129339894Y-59977320D01*
X129346276Y-59965831D01*
X129349832Y-59961401D01*
X129363324Y-59944590D01*
X129377980Y-59881362D01*
X129380391Y-59870960D01*
X129380391Y-59870957D01*
X129380889Y-59868810D01*
X129380890Y-59868200D01*
X129363590Y-59792360D01*
X129315112Y-59731524D01*
X129245048Y-59697729D01*
X129240655Y-59697725D01*
X129240654Y-59697725D01*
X129206341Y-59697695D01*
X129167259Y-59697661D01*
X129097137Y-59731334D01*
X129048553Y-59792085D01*
X129047569Y-59796364D01*
X129038591Y-59835408D01*
X129031120Y-59867895D01*
X129042902Y-59919964D01*
X129047222Y-59939052D01*
X129048288Y-59943765D01*
X129051020Y-59947206D01*
X129062291Y-59961401D01*
X129096659Y-60004686D01*
X129100612Y-60006601D01*
X129100613Y-60006602D01*
X129129450Y-60020573D01*
X129149288Y-60042877D01*
X129147544Y-60072675D01*
X129125240Y-60092513D01*
X129112413Y-60094671D01*
X129095605Y-60094657D01*
X129085572Y-60094648D01*
X129081613Y-60096549D01*
X129058458Y-60107668D01*
X129003111Y-60134245D01*
X128969860Y-60175824D01*
X128966113Y-60180509D01*
X128939969Y-60194912D01*
X128911297Y-60186609D01*
X128897632Y-60164824D01*
X128886289Y-60115097D01*
X128886289Y-60115096D01*
X128885312Y-60110815D01*
X128881176Y-60105624D01*
X128867771Y-60088803D01*
X128828305Y-60039276D01*
X128775865Y-60013982D01*
X128749871Y-60001444D01*
X128745913Y-59999535D01*
X128741520Y-59999531D01*
X128741519Y-59999531D01*
X128700403Y-59999495D01*
X128654437Y-59999455D01*
X128571976Y-60039052D01*
X128569233Y-60042482D01*
X128519446Y-60104738D01*
X128514844Y-60110492D01*
X128513860Y-60114771D01*
X128495933Y-60192733D01*
X128494344Y-60199641D01*
X128514533Y-60288861D01*
X128571415Y-60360500D01*
X128575366Y-60362414D01*
X128575367Y-60362415D01*
X128649056Y-60398117D01*
X128659628Y-60405638D01*
X130429977Y-62175987D01*
X130441400Y-62203564D01*
X130441400Y-65798246D01*
X130441401Y-65798250D01*
X130441401Y-65817138D01*
X130443968Y-65821584D01*
X130448280Y-65829053D01*
X130452175Y-65838457D01*
X130455735Y-65851744D01*
X130469092Y-65865101D01*
X130469093Y-65865103D01*
X130743884Y-66139894D01*
X130752245Y-66160116D01*
X130754344Y-66159641D01*
X130765667Y-66209678D01*
X130774533Y-66248861D01*
X130777265Y-66252301D01*
X130777265Y-66252302D01*
X130778022Y-66253255D01*
X130831415Y-66320500D01*
X130835366Y-66322414D01*
X130835367Y-66322415D01*
X130851817Y-66330385D01*
X130913737Y-66360385D01*
X130918127Y-66360397D01*
X130918129Y-66360397D01*
X130959589Y-66360505D01*
X131005213Y-66360625D01*
X131087743Y-66321171D01*
X131090488Y-66317750D01*
X131090490Y-66317749D01*
X131142251Y-66253255D01*
X131144999Y-66249831D01*
X131145990Y-66245556D01*
X131145991Y-66245554D01*
X131151010Y-66223898D01*
X131168365Y-66199612D01*
X131197809Y-66194711D01*
X131222095Y-66212066D01*
X131223627Y-66214855D01*
X131224533Y-66218861D01*
X131281415Y-66290500D01*
X131285366Y-66292414D01*
X131285367Y-66292415D01*
X131322576Y-66310443D01*
X131363737Y-66330385D01*
X131368127Y-66330397D01*
X131368129Y-66330397D01*
X131432544Y-66330566D01*
X131460091Y-66342061D01*
X131471441Y-66369669D01*
X131460018Y-66397143D01*
X131095065Y-66762096D01*
X131093287Y-66768731D01*
X131091085Y-66776949D01*
X131087189Y-66786355D01*
X131079500Y-66799673D01*
X131079500Y-66804807D01*
X131079499Y-66880322D01*
X131079500Y-66880330D01*
X131079500Y-67821507D01*
X131068077Y-67849084D01*
X130089084Y-68828077D01*
X130061507Y-68839500D01*
X129819673Y-68839500D01*
X129815227Y-68842067D01*
X129806355Y-68847189D01*
X129796949Y-68851085D01*
X129782096Y-68855065D01*
X129725065Y-68912095D01*
X129725065Y-68912096D01*
X129215065Y-69422096D01*
X129213736Y-69427056D01*
X129211085Y-69436949D01*
X129207189Y-69446355D01*
X129199500Y-69459673D01*
X129199499Y-69510193D01*
X129199499Y-69540322D01*
X129199500Y-69540330D01*
X129199500Y-70028480D01*
X129190958Y-70052838D01*
X129173183Y-70075065D01*
X129164844Y-70085492D01*
X129163860Y-70089771D01*
X129145387Y-70170106D01*
X129144344Y-70174641D01*
X129164533Y-70263861D01*
X129221415Y-70335500D01*
X129225366Y-70337414D01*
X129225367Y-70337415D01*
X129243812Y-70346351D01*
X129279287Y-70363539D01*
X129299123Y-70385842D01*
X129297379Y-70415641D01*
X129286103Y-70429515D01*
X129095529Y-70576540D01*
X129013786Y-70639603D01*
X129011762Y-70641063D01*
X128966034Y-70671877D01*
X128512742Y-70977329D01*
X128510624Y-70978660D01*
X128431336Y-71024990D01*
X128283743Y-71111233D01*
X128274917Y-71116390D01*
X128245344Y-71120440D01*
X128221568Y-71102393D01*
X128217218Y-71091390D01*
X128214948Y-71081438D01*
X128207585Y-71049160D01*
X128159107Y-70988324D01*
X128089043Y-70954529D01*
X128084650Y-70954525D01*
X128084649Y-70954525D01*
X128050336Y-70954495D01*
X128011254Y-70954461D01*
X127941132Y-70988134D01*
X127892548Y-71048885D01*
X127891564Y-71053164D01*
X127876985Y-71116564D01*
X127875115Y-71124695D01*
X127892283Y-71200565D01*
X127895015Y-71204006D01*
X127936996Y-71256879D01*
X127945198Y-71285579D01*
X127930704Y-71311673D01*
X127923932Y-71315994D01*
X127450903Y-71553113D01*
X127448654Y-71554151D01*
X126894520Y-71788777D01*
X126892211Y-71789668D01*
X126444999Y-71946044D01*
X126415198Y-71944364D01*
X126395313Y-71922103D01*
X126394134Y-71900424D01*
X126405157Y-71852866D01*
X126405655Y-71850718D01*
X126405656Y-71850000D01*
X126385312Y-71760815D01*
X126328305Y-71689276D01*
X126245913Y-71649535D01*
X126241521Y-71649531D01*
X126241520Y-71649531D01*
X126231492Y-71649523D01*
X126228479Y-71649520D01*
X126200936Y-71638097D01*
X125962534Y-71399695D01*
X126425115Y-71399695D01*
X126442283Y-71475565D01*
X126445015Y-71479006D01*
X126453416Y-71489586D01*
X126490654Y-71536486D01*
X126494605Y-71538400D01*
X126494606Y-71538401D01*
X126516444Y-71548981D01*
X126560659Y-71570403D01*
X126599456Y-71570504D01*
X126634055Y-71570595D01*
X126634057Y-71570595D01*
X126638448Y-71570606D01*
X126708629Y-71537056D01*
X126757319Y-71476390D01*
X126770683Y-71418733D01*
X126774386Y-71402760D01*
X126774386Y-71402757D01*
X126774884Y-71400610D01*
X126774885Y-71400000D01*
X126757585Y-71324160D01*
X126709107Y-71263324D01*
X126639043Y-71229529D01*
X126634650Y-71229525D01*
X126634649Y-71229525D01*
X126600336Y-71229495D01*
X126561254Y-71229461D01*
X126491132Y-71263134D01*
X126442548Y-71323885D01*
X126441564Y-71328164D01*
X126426328Y-71394421D01*
X126425115Y-71399695D01*
X125962534Y-71399695D01*
X125552904Y-70990065D01*
X125538051Y-70986085D01*
X125528645Y-70982189D01*
X125519773Y-70977067D01*
X125515327Y-70974500D01*
X125434737Y-70974499D01*
X125434674Y-70974499D01*
X125434673Y-70974500D01*
X125128493Y-70974500D01*
X125100916Y-70963077D01*
X124332242Y-70194403D01*
X127081981Y-70194403D01*
X127099149Y-70270273D01*
X127147520Y-70331194D01*
X127151471Y-70333108D01*
X127151472Y-70333109D01*
X127160360Y-70337415D01*
X127217525Y-70365111D01*
X127256322Y-70365212D01*
X127290921Y-70365303D01*
X127290923Y-70365303D01*
X127295314Y-70365314D01*
X127365495Y-70331764D01*
X127414185Y-70271098D01*
X127431750Y-70195318D01*
X127431751Y-70194708D01*
X127414451Y-70118868D01*
X127365973Y-70058032D01*
X127330941Y-70041135D01*
X127299867Y-70026146D01*
X127295909Y-70024237D01*
X127291516Y-70024233D01*
X127291515Y-70024233D01*
X127257202Y-70024203D01*
X127218120Y-70024169D01*
X127147998Y-70057842D01*
X127099414Y-70118593D01*
X127098430Y-70122872D01*
X127083122Y-70189442D01*
X127081981Y-70194403D01*
X124332242Y-70194403D01*
X124137034Y-69999195D01*
X127850115Y-69999195D01*
X127867283Y-70075065D01*
X127915654Y-70135986D01*
X127919605Y-70137900D01*
X127919606Y-70137901D01*
X127932434Y-70144116D01*
X127985659Y-70169903D01*
X128024456Y-70170004D01*
X128059055Y-70170095D01*
X128059057Y-70170095D01*
X128063448Y-70170106D01*
X128133629Y-70136556D01*
X128182319Y-70075890D01*
X128194293Y-70024233D01*
X128199386Y-70002260D01*
X128199386Y-70002257D01*
X128199884Y-70000110D01*
X128199885Y-69999500D01*
X128182585Y-69923660D01*
X128134107Y-69862824D01*
X128064043Y-69829029D01*
X128059650Y-69829025D01*
X128059649Y-69829025D01*
X128025336Y-69828995D01*
X127986254Y-69828961D01*
X127916132Y-69862634D01*
X127867548Y-69923385D01*
X127866564Y-69927664D01*
X127860191Y-69955380D01*
X127850115Y-69999195D01*
X124137034Y-69999195D01*
X123561923Y-69424084D01*
X123550500Y-69396507D01*
X123550500Y-69049695D01*
X124675115Y-69049695D01*
X124692283Y-69125565D01*
X124740654Y-69186486D01*
X124744605Y-69188400D01*
X124744606Y-69188401D01*
X124775656Y-69203444D01*
X124810659Y-69220403D01*
X124849456Y-69220504D01*
X124884055Y-69220595D01*
X124884057Y-69220595D01*
X124888448Y-69220606D01*
X124958629Y-69187056D01*
X125007319Y-69126390D01*
X125018072Y-69080000D01*
X125024386Y-69052760D01*
X125024386Y-69052757D01*
X125024884Y-69050610D01*
X125024885Y-69050000D01*
X125007585Y-68974160D01*
X124959107Y-68913324D01*
X124889043Y-68879529D01*
X124884650Y-68879525D01*
X124884649Y-68879525D01*
X124850336Y-68879495D01*
X124811254Y-68879461D01*
X124741132Y-68913134D01*
X124692548Y-68973885D01*
X124691564Y-68978164D01*
X124676225Y-69044870D01*
X124675115Y-69049695D01*
X123550500Y-69049695D01*
X123550500Y-68574695D01*
X124725115Y-68574695D01*
X124742283Y-68650565D01*
X124745015Y-68654006D01*
X124745657Y-68654815D01*
X124790654Y-68711486D01*
X124794605Y-68713400D01*
X124794606Y-68713401D01*
X124825656Y-68728444D01*
X124860659Y-68745403D01*
X124899456Y-68745504D01*
X124934055Y-68745595D01*
X124934057Y-68745595D01*
X124938448Y-68745606D01*
X125008629Y-68712056D01*
X125057319Y-68651390D01*
X125074884Y-68575610D01*
X125074885Y-68575000D01*
X125057585Y-68499160D01*
X125009107Y-68438324D01*
X124939043Y-68404529D01*
X124934650Y-68404525D01*
X124934649Y-68404525D01*
X124900336Y-68404495D01*
X124861254Y-68404461D01*
X124791132Y-68438134D01*
X124742548Y-68498885D01*
X124741564Y-68503164D01*
X124737006Y-68522987D01*
X124725115Y-68574695D01*
X123550500Y-68574695D01*
X123550500Y-68121559D01*
X123561923Y-68093982D01*
X123567824Y-68089138D01*
X123580601Y-68080601D01*
X123635966Y-67997740D01*
X123636715Y-67993976D01*
X123650128Y-67926546D01*
X123650128Y-67926542D01*
X123650500Y-67924674D01*
X123650500Y-67903518D01*
X123651249Y-67895910D01*
X123654659Y-67878767D01*
X123654659Y-67878765D01*
X123655408Y-67875000D01*
X123652361Y-67859678D01*
X123651249Y-67854090D01*
X123650500Y-67846482D01*
X123650500Y-67574695D01*
X124725115Y-67574695D01*
X124742283Y-67650565D01*
X124790654Y-67711486D01*
X124794605Y-67713400D01*
X124794606Y-67713401D01*
X124825657Y-67728445D01*
X124860659Y-67745403D01*
X124899456Y-67745504D01*
X124934055Y-67745595D01*
X124934057Y-67745595D01*
X124938448Y-67745606D01*
X125008629Y-67712056D01*
X125057319Y-67651390D01*
X125074884Y-67575610D01*
X125074885Y-67575000D01*
X125057585Y-67499160D01*
X125009107Y-67438324D01*
X124939043Y-67404529D01*
X124934650Y-67404525D01*
X124934649Y-67404525D01*
X124900336Y-67404495D01*
X124861254Y-67404461D01*
X124791132Y-67438134D01*
X124742548Y-67498885D01*
X124741564Y-67503164D01*
X124732734Y-67541564D01*
X124725115Y-67574695D01*
X123650500Y-67574695D01*
X123650500Y-67296855D01*
X129603467Y-67296855D01*
X129620635Y-67372725D01*
X129669006Y-67433646D01*
X129672957Y-67435560D01*
X129672958Y-67435561D01*
X129739011Y-67467563D01*
X129738298Y-67469035D01*
X129757131Y-67482473D01*
X129762052Y-67511914D01*
X129748331Y-67533656D01*
X129745092Y-67536232D01*
X129741132Y-67538134D01*
X129692548Y-67598885D01*
X129691564Y-67603164D01*
X129679687Y-67654815D01*
X129675115Y-67674695D01*
X129686897Y-67726764D01*
X129690682Y-67743488D01*
X129692283Y-67750565D01*
X129740654Y-67811486D01*
X129744605Y-67813400D01*
X129744606Y-67813401D01*
X129761337Y-67821507D01*
X129810659Y-67845403D01*
X129849456Y-67845504D01*
X129884055Y-67845595D01*
X129884057Y-67845595D01*
X129888448Y-67845606D01*
X129958629Y-67812056D01*
X130007319Y-67751390D01*
X130024884Y-67675610D01*
X130024885Y-67675000D01*
X130007585Y-67599160D01*
X129959107Y-67538324D01*
X129889043Y-67504529D01*
X129889815Y-67502929D01*
X129871254Y-67489738D01*
X129866276Y-67460307D01*
X129880066Y-67438451D01*
X129883020Y-67436110D01*
X129886981Y-67434216D01*
X129895611Y-67423464D01*
X129932922Y-67376975D01*
X129935671Y-67373550D01*
X129953236Y-67297770D01*
X129953237Y-67297160D01*
X129935937Y-67221320D01*
X129887459Y-67160484D01*
X129817395Y-67126689D01*
X129813002Y-67126685D01*
X129813001Y-67126685D01*
X129778688Y-67126655D01*
X129739606Y-67126621D01*
X129669484Y-67160294D01*
X129620900Y-67221045D01*
X129619916Y-67225324D01*
X129609536Y-67270465D01*
X129603467Y-67296855D01*
X123650500Y-67296855D01*
X123650500Y-67049695D01*
X124700115Y-67049695D01*
X124711897Y-67101764D01*
X124715682Y-67118488D01*
X124717283Y-67125565D01*
X124765654Y-67186486D01*
X124769605Y-67188400D01*
X124769606Y-67188401D01*
X124800657Y-67203445D01*
X124835659Y-67220403D01*
X124874456Y-67220504D01*
X124909055Y-67220595D01*
X124909057Y-67220595D01*
X124913448Y-67220606D01*
X124983629Y-67187056D01*
X125032319Y-67126390D01*
X125045027Y-67071565D01*
X125049386Y-67052760D01*
X125049386Y-67052757D01*
X125049884Y-67050610D01*
X125049885Y-67050000D01*
X125032585Y-66974160D01*
X124984107Y-66913324D01*
X124914043Y-66879529D01*
X124909650Y-66879525D01*
X124909649Y-66879525D01*
X124875336Y-66879495D01*
X124836254Y-66879461D01*
X124766132Y-66913134D01*
X124717548Y-66973885D01*
X124716564Y-66978164D01*
X124701150Y-67045195D01*
X124700115Y-67049695D01*
X123650500Y-67049695D01*
X123650500Y-66599695D01*
X124650115Y-66599695D01*
X124655969Y-66625565D01*
X124662010Y-66652260D01*
X124667283Y-66675565D01*
X124670015Y-66679006D01*
X124673222Y-66683045D01*
X124715654Y-66736486D01*
X124719605Y-66738400D01*
X124719606Y-66738401D01*
X124735867Y-66746279D01*
X124785659Y-66770403D01*
X124824456Y-66770504D01*
X124859055Y-66770595D01*
X124859057Y-66770595D01*
X124863448Y-66770606D01*
X124933629Y-66737056D01*
X124982319Y-66676390D01*
X124993500Y-66628151D01*
X124999386Y-66602760D01*
X124999386Y-66602757D01*
X124999884Y-66600610D01*
X124999885Y-66600000D01*
X124982585Y-66524160D01*
X124943168Y-66474695D01*
X125400115Y-66474695D01*
X125417283Y-66550565D01*
X125465654Y-66611486D01*
X125469605Y-66613400D01*
X125469606Y-66613401D01*
X125485867Y-66621279D01*
X125535659Y-66645403D01*
X125574456Y-66645504D01*
X125609055Y-66645595D01*
X125609057Y-66645595D01*
X125613448Y-66645606D01*
X125683629Y-66612056D01*
X125732319Y-66551390D01*
X125749103Y-66478980D01*
X125749386Y-66477760D01*
X125749386Y-66477757D01*
X125749884Y-66475610D01*
X125749885Y-66475000D01*
X125732585Y-66399160D01*
X125684107Y-66338324D01*
X125655851Y-66324695D01*
X129600115Y-66324695D01*
X129601444Y-66330566D01*
X129616188Y-66395724D01*
X129617283Y-66400565D01*
X129620015Y-66404006D01*
X129640226Y-66429461D01*
X129665654Y-66461486D01*
X129669605Y-66463400D01*
X129669606Y-66463401D01*
X129720267Y-66487946D01*
X129740104Y-66510250D01*
X129738360Y-66540049D01*
X129733720Y-66547402D01*
X129716129Y-66569399D01*
X129692548Y-66598885D01*
X129691564Y-66603164D01*
X129679408Y-66656028D01*
X129675115Y-66674695D01*
X129686897Y-66726764D01*
X129689655Y-66738949D01*
X129692283Y-66750565D01*
X129695015Y-66754006D01*
X129703249Y-66764376D01*
X129740654Y-66811486D01*
X129744605Y-66813400D01*
X129744606Y-66813401D01*
X129755011Y-66818442D01*
X129810659Y-66845403D01*
X129849456Y-66845504D01*
X129884055Y-66845595D01*
X129884057Y-66845595D01*
X129888448Y-66845606D01*
X129958629Y-66812056D01*
X130007319Y-66751390D01*
X130023821Y-66680198D01*
X130024386Y-66677760D01*
X130024386Y-66677757D01*
X130024884Y-66675610D01*
X130024885Y-66675000D01*
X130007585Y-66599160D01*
X129959107Y-66538324D01*
X129904725Y-66512093D01*
X129884850Y-66489825D01*
X129886542Y-66460024D01*
X129891251Y-66452560D01*
X129932319Y-66401390D01*
X129946071Y-66342061D01*
X129949386Y-66327760D01*
X129949386Y-66327757D01*
X129949884Y-66325610D01*
X129949885Y-66325000D01*
X129932585Y-66249160D01*
X129884107Y-66188324D01*
X129814043Y-66154529D01*
X129809650Y-66154525D01*
X129809649Y-66154525D01*
X129775336Y-66154495D01*
X129736254Y-66154461D01*
X129666132Y-66188134D01*
X129617548Y-66248885D01*
X129616564Y-66253164D01*
X129602793Y-66313051D01*
X129600115Y-66324695D01*
X125655851Y-66324695D01*
X125614043Y-66304529D01*
X125609650Y-66304525D01*
X125609649Y-66304525D01*
X125575336Y-66304495D01*
X125536254Y-66304461D01*
X125466132Y-66338134D01*
X125417548Y-66398885D01*
X125416564Y-66403164D01*
X125401985Y-66466564D01*
X125400115Y-66474695D01*
X124943168Y-66474695D01*
X124934107Y-66463324D01*
X124864043Y-66429529D01*
X124859650Y-66429525D01*
X124859649Y-66429525D01*
X124825336Y-66429495D01*
X124786254Y-66429461D01*
X124716132Y-66463134D01*
X124667548Y-66523885D01*
X124666564Y-66528164D01*
X124657082Y-66569399D01*
X124650115Y-66599695D01*
X123650500Y-66599695D01*
X123650500Y-65932191D01*
X124582611Y-65932191D01*
X124589017Y-65960500D01*
X124597668Y-65998730D01*
X124599779Y-66008061D01*
X124648150Y-66068982D01*
X124652101Y-66070896D01*
X124652102Y-66070897D01*
X124683153Y-66085941D01*
X124718155Y-66102899D01*
X124756952Y-66103000D01*
X124791551Y-66103091D01*
X124791553Y-66103091D01*
X124795944Y-66103102D01*
X124866125Y-66069552D01*
X124914815Y-66008886D01*
X124925537Y-65962627D01*
X124931882Y-65935256D01*
X124931882Y-65935253D01*
X124932380Y-65933106D01*
X124932381Y-65932496D01*
X124915081Y-65856656D01*
X124866603Y-65795820D01*
X124831571Y-65778923D01*
X124800497Y-65763934D01*
X124796539Y-65762025D01*
X124792146Y-65762021D01*
X124792145Y-65762021D01*
X124757832Y-65761991D01*
X124718750Y-65761957D01*
X124648628Y-65795630D01*
X124600044Y-65856381D01*
X124599060Y-65860660D01*
X124591565Y-65893255D01*
X124582611Y-65932191D01*
X123650500Y-65932191D01*
X123650500Y-59869500D01*
X123661923Y-59841923D01*
X123689500Y-59830500D01*
X125070086Y-59830500D01*
X125097663Y-59841923D01*
X125260425Y-60004686D01*
X125422704Y-60166965D01*
X125427554Y-60172875D01*
X125437264Y-60187407D01*
X125437267Y-60187410D01*
X125439399Y-60190601D01*
X125460316Y-60204577D01*
X125460317Y-60204578D01*
X125522260Y-60245966D01*
X125526023Y-60246715D01*
X125526024Y-60246715D01*
X125616235Y-60264660D01*
X125620000Y-60265409D01*
X125623765Y-60264660D01*
X125641305Y-60261171D01*
X125717741Y-60245966D01*
X125800601Y-60190601D01*
X125855966Y-60107741D01*
X125858058Y-60097227D01*
X125866903Y-60052760D01*
X125867513Y-60049695D01*
X127875115Y-60049695D01*
X127885287Y-60094648D01*
X127889841Y-60114771D01*
X127892283Y-60125565D01*
X127895015Y-60129006D01*
X127901639Y-60137348D01*
X127940654Y-60186486D01*
X127944605Y-60188400D01*
X127944606Y-60188401D01*
X127967806Y-60199641D01*
X128010659Y-60220403D01*
X128049456Y-60220504D01*
X128084055Y-60220595D01*
X128084057Y-60220595D01*
X128088448Y-60220606D01*
X128158629Y-60187056D01*
X128207319Y-60126390D01*
X128220961Y-60067535D01*
X128224386Y-60052760D01*
X128224386Y-60052757D01*
X128224884Y-60050610D01*
X128224885Y-60050000D01*
X128207585Y-59974160D01*
X128159107Y-59913324D01*
X128124075Y-59896426D01*
X128093001Y-59881438D01*
X128089043Y-59879529D01*
X128084650Y-59879525D01*
X128084649Y-59879525D01*
X128050336Y-59879495D01*
X128011254Y-59879461D01*
X127941132Y-59913134D01*
X127892548Y-59973885D01*
X127891564Y-59978164D01*
X127876164Y-60045134D01*
X127875115Y-60049695D01*
X125867513Y-60049695D01*
X125868420Y-60045134D01*
X125879094Y-60025166D01*
X126304565Y-59599695D01*
X130551955Y-59599695D01*
X130569123Y-59675565D01*
X130571855Y-59679006D01*
X130588237Y-59699638D01*
X130617494Y-59736486D01*
X130621445Y-59738400D01*
X130621446Y-59738401D01*
X130652497Y-59753445D01*
X130687499Y-59770403D01*
X130726296Y-59770504D01*
X130760895Y-59770595D01*
X130760897Y-59770595D01*
X130765288Y-59770606D01*
X130835469Y-59737056D01*
X130884159Y-59676390D01*
X130901724Y-59600610D01*
X130901725Y-59600000D01*
X130884425Y-59524160D01*
X130835947Y-59463324D01*
X130785413Y-59438949D01*
X130769841Y-59431438D01*
X130765883Y-59429529D01*
X130761490Y-59429525D01*
X130761489Y-59429525D01*
X130727176Y-59429495D01*
X130688094Y-59429461D01*
X130617972Y-59463134D01*
X130569388Y-59523885D01*
X130568404Y-59528164D01*
X130553004Y-59595135D01*
X130551955Y-59599695D01*
X126304565Y-59599695D01*
X126506962Y-59397298D01*
X126512872Y-59392448D01*
X126527406Y-59382737D01*
X126527410Y-59382733D01*
X126530601Y-59380601D01*
X126584660Y-59299695D01*
X129075115Y-59299695D01*
X129092283Y-59375565D01*
X129095015Y-59379006D01*
X129105688Y-59392448D01*
X129140654Y-59436486D01*
X129144605Y-59438400D01*
X129144606Y-59438401D01*
X129175657Y-59453445D01*
X129210659Y-59470403D01*
X129249456Y-59470504D01*
X129284055Y-59470595D01*
X129284057Y-59470595D01*
X129288448Y-59470606D01*
X129358629Y-59437056D01*
X129407319Y-59376390D01*
X129419819Y-59322462D01*
X129424386Y-59302760D01*
X129424386Y-59302757D01*
X129424884Y-59300610D01*
X129424885Y-59300000D01*
X129424815Y-59299695D01*
X131225115Y-59299695D01*
X131242283Y-59375565D01*
X131245015Y-59379006D01*
X131255688Y-59392448D01*
X131290654Y-59436486D01*
X131294605Y-59438400D01*
X131294606Y-59438401D01*
X131325657Y-59453445D01*
X131360659Y-59470403D01*
X131399456Y-59470504D01*
X131434055Y-59470595D01*
X131434057Y-59470595D01*
X131438448Y-59470606D01*
X131508629Y-59437056D01*
X131557319Y-59376390D01*
X131569819Y-59322462D01*
X131574386Y-59302760D01*
X131574386Y-59302757D01*
X131574884Y-59300610D01*
X131574885Y-59300000D01*
X131557585Y-59224160D01*
X131509107Y-59163324D01*
X131467736Y-59143369D01*
X131443001Y-59131438D01*
X131439043Y-59129529D01*
X131434650Y-59129525D01*
X131434649Y-59129525D01*
X131400336Y-59129495D01*
X131361254Y-59129461D01*
X131291132Y-59163134D01*
X131242548Y-59223885D01*
X131241564Y-59228164D01*
X131226791Y-59292407D01*
X131225115Y-59299695D01*
X129424815Y-59299695D01*
X129407585Y-59224160D01*
X129398486Y-59212741D01*
X129394218Y-59207385D01*
X129385966Y-59178699D01*
X129400415Y-59152580D01*
X129407899Y-59147895D01*
X129413405Y-59145263D01*
X129413406Y-59145262D01*
X129417366Y-59143369D01*
X129466056Y-59082703D01*
X129475527Y-59041843D01*
X129483123Y-59009073D01*
X129483123Y-59009070D01*
X129483621Y-59006923D01*
X129483622Y-59006313D01*
X129466322Y-58930473D01*
X129417844Y-58869637D01*
X129359382Y-58841438D01*
X129351738Y-58837751D01*
X129347780Y-58835842D01*
X129343387Y-58835838D01*
X129343386Y-58835838D01*
X129309073Y-58835808D01*
X129269991Y-58835774D01*
X129199869Y-58869447D01*
X129151285Y-58930198D01*
X129150301Y-58934477D01*
X129135152Y-59000356D01*
X129133852Y-59006008D01*
X129151020Y-59081878D01*
X129154395Y-59086128D01*
X129164620Y-59099007D01*
X129172822Y-59127708D01*
X129158328Y-59153801D01*
X129150959Y-59158415D01*
X129141132Y-59163134D01*
X129092548Y-59223885D01*
X129091564Y-59228164D01*
X129076791Y-59292407D01*
X129075115Y-59299695D01*
X126584660Y-59299695D01*
X126585966Y-59297740D01*
X126586912Y-59292988D01*
X126600500Y-59224674D01*
X126601339Y-59220457D01*
X126605408Y-59200000D01*
X126603795Y-59191887D01*
X126601249Y-59179090D01*
X126600500Y-59171482D01*
X126600500Y-59119914D01*
X126611923Y-59092337D01*
X127104565Y-58599695D01*
X128575115Y-58599695D01*
X128581408Y-58627504D01*
X128591188Y-58670724D01*
X128592283Y-58675565D01*
X128595015Y-58679006D01*
X128598699Y-58683646D01*
X128640654Y-58736486D01*
X128644605Y-58738400D01*
X128644606Y-58738401D01*
X128664939Y-58748252D01*
X128710659Y-58770403D01*
X128749456Y-58770504D01*
X128784055Y-58770595D01*
X128784057Y-58770595D01*
X128788448Y-58770606D01*
X128858629Y-58737056D01*
X128907319Y-58676390D01*
X128919498Y-58623848D01*
X128924386Y-58602760D01*
X128924386Y-58602757D01*
X128924884Y-58600610D01*
X128924885Y-58600000D01*
X128907585Y-58524160D01*
X128859107Y-58463324D01*
X128810629Y-58439941D01*
X128793001Y-58431438D01*
X128789043Y-58429529D01*
X128784650Y-58429525D01*
X128784649Y-58429525D01*
X128750336Y-58429495D01*
X128711254Y-58429461D01*
X128641132Y-58463134D01*
X128592548Y-58523885D01*
X128591564Y-58528164D01*
X128576383Y-58594182D01*
X128575115Y-58599695D01*
X127104565Y-58599695D01*
X127604565Y-58099695D01*
X129275612Y-58099695D01*
X129284526Y-58139090D01*
X129291179Y-58168488D01*
X129292780Y-58175565D01*
X129295512Y-58179006D01*
X129303376Y-58188910D01*
X129341151Y-58236486D01*
X129345102Y-58238400D01*
X129345103Y-58238401D01*
X129370084Y-58250504D01*
X129411156Y-58270403D01*
X129449953Y-58270504D01*
X129484552Y-58270595D01*
X129484554Y-58270595D01*
X129488945Y-58270606D01*
X129559126Y-58237056D01*
X129569758Y-58223809D01*
X129595927Y-58209452D01*
X129624584Y-58217805D01*
X129630713Y-58223966D01*
X129640654Y-58236486D01*
X129644605Y-58238400D01*
X129644606Y-58238401D01*
X129669587Y-58250504D01*
X129710659Y-58270403D01*
X129749456Y-58270504D01*
X129784055Y-58270595D01*
X129784057Y-58270595D01*
X129788448Y-58270606D01*
X129858629Y-58237056D01*
X129907319Y-58176390D01*
X129920296Y-58120403D01*
X129924386Y-58102760D01*
X129924386Y-58102757D01*
X129924884Y-58100610D01*
X129924885Y-58100000D01*
X129924815Y-58099695D01*
X130575115Y-58099695D01*
X130584029Y-58139090D01*
X130590682Y-58168488D01*
X130592283Y-58175565D01*
X130595015Y-58179006D01*
X130602879Y-58188910D01*
X130640654Y-58236486D01*
X130644605Y-58238400D01*
X130644606Y-58238401D01*
X130669587Y-58250504D01*
X130710659Y-58270403D01*
X130749456Y-58270504D01*
X130784055Y-58270595D01*
X130784057Y-58270595D01*
X130788448Y-58270606D01*
X130858629Y-58237056D01*
X130907319Y-58176390D01*
X130920296Y-58120403D01*
X130924386Y-58102760D01*
X130924386Y-58102757D01*
X130924884Y-58100610D01*
X130924885Y-58100000D01*
X130907585Y-58024160D01*
X130859107Y-57963324D01*
X130789043Y-57929529D01*
X130784650Y-57929525D01*
X130784649Y-57929525D01*
X130750336Y-57929495D01*
X130711254Y-57929461D01*
X130641132Y-57963134D01*
X130592548Y-58023885D01*
X130591564Y-58028164D01*
X130577787Y-58088077D01*
X130575115Y-58099695D01*
X129924815Y-58099695D01*
X129907585Y-58024160D01*
X129859107Y-57963324D01*
X129789043Y-57929529D01*
X129784650Y-57929525D01*
X129784649Y-57929525D01*
X129750336Y-57929495D01*
X129711254Y-57929461D01*
X129641132Y-57963134D01*
X129630775Y-57976085D01*
X129630732Y-57976139D01*
X129604587Y-57990541D01*
X129575915Y-57982238D01*
X129569774Y-57976085D01*
X129562344Y-57966762D01*
X129562343Y-57966761D01*
X129559604Y-57963324D01*
X129489540Y-57929529D01*
X129485147Y-57929525D01*
X129485146Y-57929525D01*
X129450833Y-57929495D01*
X129411751Y-57929461D01*
X129341629Y-57963134D01*
X129293045Y-58023885D01*
X129292061Y-58028164D01*
X129278284Y-58088077D01*
X129275612Y-58099695D01*
X127604565Y-58099695D01*
X128122337Y-57581923D01*
X128149914Y-57570500D01*
X128394674Y-57570500D01*
X128396542Y-57570128D01*
X128396546Y-57570128D01*
X128463976Y-57556715D01*
X128463977Y-57556714D01*
X128467740Y-57555966D01*
X128550601Y-57500601D01*
X128605966Y-57417740D01*
X128607491Y-57410077D01*
X128624059Y-57326782D01*
X128625408Y-57320000D01*
X128612014Y-57252664D01*
X128606715Y-57226024D01*
X128606714Y-57226023D01*
X128605966Y-57222260D01*
X128558655Y-57151453D01*
X128555689Y-57136545D01*
X128538547Y-57131345D01*
X128526996Y-57123627D01*
X128467740Y-57084034D01*
X128463977Y-57083286D01*
X128463976Y-57083285D01*
X128396546Y-57069872D01*
X128396542Y-57069872D01*
X128394674Y-57069500D01*
X128058517Y-57069500D01*
X128050908Y-57068751D01*
X128033765Y-57065341D01*
X128030000Y-57064592D01*
X128026235Y-57065341D01*
X128026230Y-57065341D01*
X128005328Y-57069499D01*
X128005326Y-57069499D01*
X128005326Y-57069500D01*
X127936024Y-57083285D01*
X127936023Y-57083286D01*
X127932260Y-57084034D01*
X127849399Y-57139399D01*
X127847267Y-57142590D01*
X127847263Y-57142594D01*
X127837552Y-57157128D01*
X127832702Y-57163038D01*
X126567222Y-58428518D01*
X126539645Y-58439941D01*
X126512068Y-58428518D01*
X126501352Y-58417802D01*
X126498429Y-58414530D01*
X126495718Y-58411128D01*
X126478305Y-58389276D01*
X126449158Y-58375217D01*
X126445364Y-58373118D01*
X126421691Y-58358238D01*
X126421689Y-58358237D01*
X126417972Y-58355901D01*
X126412991Y-58355338D01*
X126400428Y-58351713D01*
X126395913Y-58349535D01*
X126391521Y-58349531D01*
X126391520Y-58349531D01*
X126373865Y-58349516D01*
X126363566Y-58349507D01*
X126359223Y-58349260D01*
X126353551Y-58348619D01*
X126331440Y-58346119D01*
X126331438Y-58346119D01*
X126327076Y-58345626D01*
X126322929Y-58347074D01*
X126322338Y-58347280D01*
X126309453Y-58349459D01*
X126309095Y-58349459D01*
X126304437Y-58349455D01*
X126292186Y-58355338D01*
X126275278Y-58363457D01*
X126271254Y-58365120D01*
X126240715Y-58375784D01*
X126237606Y-58378887D01*
X126237605Y-58378888D01*
X126237163Y-58379329D01*
X126226498Y-58386880D01*
X126225937Y-58387149D01*
X126225934Y-58387151D01*
X126221976Y-58389052D01*
X126219233Y-58392482D01*
X126201771Y-58414317D01*
X126198866Y-58417560D01*
X126184964Y-58431438D01*
X126175975Y-58440411D01*
X126174314Y-58445142D01*
X126167976Y-58456576D01*
X126164844Y-58460492D01*
X126157595Y-58492017D01*
X126156386Y-58496193D01*
X126145666Y-58526719D01*
X126146151Y-58531081D01*
X126146151Y-58531085D01*
X126146220Y-58531705D01*
X126145468Y-58544753D01*
X126145328Y-58545360D01*
X126145328Y-58545362D01*
X126144344Y-58549641D01*
X126147070Y-58561687D01*
X126151481Y-58581184D01*
X126152204Y-58585477D01*
X126155091Y-58611414D01*
X126155783Y-58617633D01*
X126158115Y-58621358D01*
X126158445Y-58621886D01*
X126163427Y-58633974D01*
X126164533Y-58638861D01*
X126167264Y-58642300D01*
X126184644Y-58664190D01*
X126187156Y-58667744D01*
X126192116Y-58675666D01*
X126198502Y-58682052D01*
X126201467Y-58685377D01*
X126221415Y-58710500D01*
X126223992Y-58711748D01*
X126237944Y-58737130D01*
X126229614Y-58765793D01*
X126226756Y-58768984D01*
X126193038Y-58802702D01*
X126187128Y-58807552D01*
X126172593Y-58817264D01*
X126172590Y-58817267D01*
X126169399Y-58819399D01*
X126168681Y-58820474D01*
X126142303Y-58831400D01*
X126114726Y-58819977D01*
X126111867Y-58816778D01*
X126111846Y-58816761D01*
X126109107Y-58813324D01*
X126053968Y-58786728D01*
X126043001Y-58781438D01*
X126039043Y-58779529D01*
X126034650Y-58779525D01*
X126034649Y-58779525D01*
X126000336Y-58779495D01*
X125961254Y-58779461D01*
X125891132Y-58813134D01*
X125842548Y-58873885D01*
X125841564Y-58878164D01*
X125827130Y-58940933D01*
X125825115Y-58949695D01*
X125835811Y-58996962D01*
X125839042Y-59011240D01*
X125842283Y-59025565D01*
X125845015Y-59029006D01*
X125855208Y-59041843D01*
X125890654Y-59086486D01*
X125894605Y-59088400D01*
X125894606Y-59088401D01*
X125921443Y-59101403D01*
X125960659Y-59120403D01*
X125965049Y-59120414D01*
X125965051Y-59120415D01*
X125981231Y-59120457D01*
X126008778Y-59131952D01*
X126020129Y-59159559D01*
X126008706Y-59187034D01*
X125607577Y-59588163D01*
X125580000Y-59599586D01*
X125552423Y-59588163D01*
X125387298Y-59423038D01*
X125382448Y-59417128D01*
X125372737Y-59402594D01*
X125372733Y-59402590D01*
X125370601Y-59399399D01*
X125345664Y-59382737D01*
X125298116Y-59350966D01*
X125290937Y-59346169D01*
X125290935Y-59346168D01*
X125287741Y-59344034D01*
X125190000Y-59324592D01*
X125186235Y-59325341D01*
X125186233Y-59325341D01*
X125169090Y-59328751D01*
X125161482Y-59329500D01*
X124807232Y-59329500D01*
X124779655Y-59318077D01*
X124768232Y-59290500D01*
X124772149Y-59273464D01*
X124772250Y-59273257D01*
X124774999Y-59269831D01*
X124782352Y-59238109D01*
X124783543Y-59234010D01*
X124794334Y-59203281D01*
X124793849Y-59198920D01*
X124793849Y-59198917D01*
X124793804Y-59198516D01*
X124794572Y-59185388D01*
X124795158Y-59182862D01*
X124795655Y-59180718D01*
X124795656Y-59180000D01*
X124788508Y-59148665D01*
X124787771Y-59144310D01*
X124787735Y-59143981D01*
X124785057Y-59119914D01*
X124784703Y-59116733D01*
X124784703Y-59116732D01*
X124784217Y-59112367D01*
X124781442Y-59107934D01*
X124776476Y-59095918D01*
X124775312Y-59090815D01*
X124755285Y-59065683D01*
X124752737Y-59062086D01*
X124747884Y-59054334D01*
X124741352Y-59047802D01*
X124738429Y-59044530D01*
X124734103Y-59039101D01*
X124718305Y-59019276D01*
X124713673Y-59017042D01*
X124703044Y-59009494D01*
X124644232Y-58950682D01*
X124632809Y-58923105D01*
X124644232Y-58895528D01*
X124654988Y-58887919D01*
X124694669Y-58868949D01*
X124698629Y-58867056D01*
X124747319Y-58806390D01*
X124755427Y-58771412D01*
X124756950Y-58764840D01*
X124774305Y-58740555D01*
X124803750Y-58735654D01*
X124822520Y-58746070D01*
X125161212Y-59084762D01*
X125164470Y-59089359D01*
X125164688Y-59089185D01*
X125182489Y-59111523D01*
X125193165Y-59124921D01*
X125193208Y-59124975D01*
X125218726Y-59157114D01*
X125218727Y-59157115D01*
X125221415Y-59160500D01*
X125221580Y-59160580D01*
X125221695Y-59160724D01*
X125225608Y-59162611D01*
X125225610Y-59162613D01*
X125249132Y-59173958D01*
X125261659Y-59180000D01*
X125262432Y-59180373D01*
X125262482Y-59180429D01*
X125262494Y-59180403D01*
X125299763Y-59198460D01*
X125299764Y-59198460D01*
X125303737Y-59200385D01*
X125303922Y-59200385D01*
X125304087Y-59200465D01*
X125308498Y-59200469D01*
X125349233Y-59200505D01*
X125349300Y-59200505D01*
X125390878Y-59200614D01*
X125390879Y-59200614D01*
X125395213Y-59200625D01*
X125395381Y-59200545D01*
X125395563Y-59200545D01*
X125399512Y-59198649D01*
X125436478Y-59180898D01*
X125436539Y-59180869D01*
X125473849Y-59163033D01*
X125473850Y-59163032D01*
X125477743Y-59161171D01*
X125477858Y-59161028D01*
X125478024Y-59160948D01*
X125506561Y-59125264D01*
X125534999Y-59089831D01*
X125535040Y-59089653D01*
X125535156Y-59089508D01*
X125536248Y-59084762D01*
X125541805Y-59060595D01*
X125545485Y-59044592D01*
X125546758Y-59039101D01*
X125549170Y-59028698D01*
X125550364Y-59024586D01*
X125554334Y-59013281D01*
X125553881Y-59009209D01*
X125554443Y-59005946D01*
X125555038Y-59003380D01*
X125555655Y-59000718D01*
X125555656Y-59000000D01*
X125554665Y-58995653D01*
X125551477Y-58981680D01*
X125550500Y-58973006D01*
X125550500Y-58967397D01*
X125548508Y-58958664D01*
X125547771Y-58954309D01*
X125547735Y-58953980D01*
X125545596Y-58934756D01*
X125544703Y-58926733D01*
X125544703Y-58926732D01*
X125544217Y-58922367D01*
X125541442Y-58917934D01*
X125536476Y-58905918D01*
X125535312Y-58900815D01*
X125515285Y-58875683D01*
X125512737Y-58872086D01*
X125507884Y-58864334D01*
X125501352Y-58857802D01*
X125498429Y-58854530D01*
X125490219Y-58844227D01*
X125478305Y-58829276D01*
X125473673Y-58827042D01*
X125463044Y-58819494D01*
X124771923Y-58128373D01*
X124760500Y-58100796D01*
X124760500Y-57970304D01*
X124771923Y-57942727D01*
X124799500Y-57931304D01*
X124816504Y-57935206D01*
X124857685Y-57955158D01*
X124857688Y-57955159D01*
X124861639Y-57957073D01*
X124900436Y-57957174D01*
X124935035Y-57957265D01*
X124935037Y-57957265D01*
X124939428Y-57957276D01*
X125009609Y-57923726D01*
X125058299Y-57863060D01*
X125069902Y-57813000D01*
X125075366Y-57789430D01*
X125075366Y-57789427D01*
X125075864Y-57787280D01*
X125075865Y-57786670D01*
X125058565Y-57710830D01*
X125010087Y-57649994D01*
X124940023Y-57616199D01*
X124935630Y-57616195D01*
X124935629Y-57616195D01*
X124901316Y-57616165D01*
X124862234Y-57616131D01*
X124795766Y-57648049D01*
X124765962Y-57649689D01*
X124745425Y-57631313D01*
X124745312Y-57630815D01*
X124688305Y-57559276D01*
X124605913Y-57519535D01*
X124601520Y-57519531D01*
X124601519Y-57519531D01*
X124560403Y-57519495D01*
X124514437Y-57519455D01*
X124431976Y-57559052D01*
X124429233Y-57562482D01*
X124384809Y-57618032D01*
X124374844Y-57630492D01*
X124373860Y-57634771D01*
X124355587Y-57714237D01*
X124354344Y-57719641D01*
X124357297Y-57732691D01*
X124358538Y-57738176D01*
X124359500Y-57746783D01*
X124359500Y-57971759D01*
X124348077Y-57999336D01*
X124342171Y-58004184D01*
X124340317Y-58005423D01*
X124257663Y-58088077D01*
X124230086Y-58099500D01*
X123706831Y-58099500D01*
X123679254Y-58088077D01*
X123667831Y-58060500D01*
X123668838Y-58051694D01*
X123674386Y-58027760D01*
X123674386Y-58027757D01*
X123674884Y-58025610D01*
X123674885Y-58025000D01*
X123657585Y-57949160D01*
X123609107Y-57888324D01*
X123550790Y-57860195D01*
X123543001Y-57856438D01*
X123539043Y-57854529D01*
X123534650Y-57854525D01*
X123534649Y-57854525D01*
X123500336Y-57854495D01*
X123461254Y-57854461D01*
X123457296Y-57856362D01*
X123457295Y-57856362D01*
X123421237Y-57873677D01*
X123391433Y-57875317D01*
X123369198Y-57855402D01*
X123365355Y-57838520D01*
X123365355Y-57757163D01*
X123376778Y-57729586D01*
X123404355Y-57718163D01*
X123421359Y-57722065D01*
X123456705Y-57739190D01*
X123456708Y-57739191D01*
X123460659Y-57741105D01*
X123499456Y-57741206D01*
X123534055Y-57741297D01*
X123534057Y-57741297D01*
X123538448Y-57741308D01*
X123608629Y-57707758D01*
X123623629Y-57689069D01*
X123655703Y-57649106D01*
X123681873Y-57634749D01*
X123710529Y-57643102D01*
X123716771Y-57650972D01*
X123717283Y-57650565D01*
X123765654Y-57711486D01*
X123769605Y-57713400D01*
X123769606Y-57713401D01*
X123787489Y-57722065D01*
X123835659Y-57745403D01*
X123874456Y-57745504D01*
X123909055Y-57745595D01*
X123909057Y-57745595D01*
X123913448Y-57745606D01*
X123983629Y-57712056D01*
X124032319Y-57651390D01*
X124043182Y-57604526D01*
X124049386Y-57577760D01*
X124049386Y-57577757D01*
X124049884Y-57575610D01*
X124049885Y-57575000D01*
X124032585Y-57499160D01*
X123984107Y-57438324D01*
X123925545Y-57410077D01*
X123905669Y-57387808D01*
X123907362Y-57358006D01*
X123925668Y-57339764D01*
X123945627Y-57330223D01*
X123958236Y-57324195D01*
X126949521Y-57324195D01*
X126966689Y-57400065D01*
X127015060Y-57460986D01*
X127019011Y-57462900D01*
X127019012Y-57462901D01*
X127041836Y-57473959D01*
X127085065Y-57494903D01*
X127123862Y-57495004D01*
X127158461Y-57495095D01*
X127158463Y-57495095D01*
X127162854Y-57495106D01*
X127233035Y-57461556D01*
X127281725Y-57400890D01*
X127295850Y-57339953D01*
X127298792Y-57327260D01*
X127298792Y-57327257D01*
X127299290Y-57325110D01*
X127299291Y-57324500D01*
X127281991Y-57248660D01*
X127233513Y-57187824D01*
X127182127Y-57163038D01*
X127167407Y-57155938D01*
X127163449Y-57154029D01*
X127159056Y-57154025D01*
X127159055Y-57154025D01*
X127124742Y-57153995D01*
X127085660Y-57153961D01*
X127015538Y-57187634D01*
X126966954Y-57248385D01*
X126965970Y-57252664D01*
X126952055Y-57313177D01*
X126949521Y-57324195D01*
X123958236Y-57324195D01*
X123983629Y-57312056D01*
X124032319Y-57251390D01*
X124047097Y-57187634D01*
X124049386Y-57177760D01*
X124049386Y-57177757D01*
X124049884Y-57175610D01*
X124049885Y-57175000D01*
X124032585Y-57099160D01*
X123984107Y-57038324D01*
X123947254Y-57020548D01*
X123927379Y-56998280D01*
X123929071Y-56968479D01*
X123947377Y-56950236D01*
X123954059Y-56947042D01*
X123975527Y-56936779D01*
X123985226Y-56924695D01*
X126025115Y-56924695D01*
X126034966Y-56968229D01*
X126040387Y-56992184D01*
X126042283Y-57000565D01*
X126090654Y-57061486D01*
X126094605Y-57063400D01*
X126094606Y-57063401D01*
X126110384Y-57071045D01*
X126160659Y-57095403D01*
X126199456Y-57095504D01*
X126234055Y-57095595D01*
X126234057Y-57095595D01*
X126238448Y-57095606D01*
X126308629Y-57062056D01*
X126357319Y-57001390D01*
X126369996Y-56946697D01*
X126374386Y-56927760D01*
X126374386Y-56927757D01*
X126374884Y-56925610D01*
X126374885Y-56925000D01*
X126357585Y-56849160D01*
X126309107Y-56788324D01*
X126239043Y-56754529D01*
X126234650Y-56754525D01*
X126234649Y-56754525D01*
X126200336Y-56754495D01*
X126161254Y-56754461D01*
X126091132Y-56788134D01*
X126042548Y-56848885D01*
X126041564Y-56853164D01*
X126027742Y-56913272D01*
X126025115Y-56924695D01*
X123985226Y-56924695D01*
X124024217Y-56876113D01*
X124034632Y-56831182D01*
X124041284Y-56802483D01*
X124041284Y-56802480D01*
X124041782Y-56800333D01*
X124041783Y-56799723D01*
X124024483Y-56723883D01*
X124005208Y-56699695D01*
X126450115Y-56699695D01*
X126467283Y-56775565D01*
X126470015Y-56779006D01*
X126481829Y-56793885D01*
X126515654Y-56836486D01*
X126519605Y-56838400D01*
X126519606Y-56838401D01*
X126541813Y-56849160D01*
X126585659Y-56870403D01*
X126624456Y-56870504D01*
X126659055Y-56870595D01*
X126659057Y-56870595D01*
X126663448Y-56870606D01*
X126733629Y-56837056D01*
X126782319Y-56776390D01*
X126791529Y-56736654D01*
X126799386Y-56702760D01*
X126799386Y-56702757D01*
X126799884Y-56700610D01*
X126799885Y-56700000D01*
X126782585Y-56624160D01*
X126734107Y-56563324D01*
X126683573Y-56538949D01*
X126668001Y-56531438D01*
X126664043Y-56529529D01*
X126659650Y-56529525D01*
X126659649Y-56529525D01*
X126625336Y-56529495D01*
X126586254Y-56529461D01*
X126516132Y-56563134D01*
X126467548Y-56623885D01*
X126466564Y-56628164D01*
X126454446Y-56680862D01*
X126450115Y-56699695D01*
X124005208Y-56699695D01*
X123976005Y-56663047D01*
X123920816Y-56636427D01*
X123909899Y-56631161D01*
X123905941Y-56629252D01*
X123901548Y-56629248D01*
X123901547Y-56629248D01*
X123867234Y-56629218D01*
X123828152Y-56629184D01*
X123758030Y-56662857D01*
X123709446Y-56723608D01*
X123708462Y-56727887D01*
X123693045Y-56794932D01*
X123692013Y-56799418D01*
X123703269Y-56849160D01*
X123708122Y-56870606D01*
X123709181Y-56875288D01*
X123757552Y-56936209D01*
X123761505Y-56938124D01*
X123761506Y-56938125D01*
X123794712Y-56954213D01*
X123814550Y-56976517D01*
X123812806Y-57006315D01*
X123794591Y-57024467D01*
X123770093Y-57036231D01*
X123770090Y-57036233D01*
X123766132Y-57038134D01*
X123717548Y-57098885D01*
X123716564Y-57103164D01*
X123701313Y-57169487D01*
X123700115Y-57174695D01*
X123717283Y-57250565D01*
X123720015Y-57254006D01*
X123727258Y-57263128D01*
X123765654Y-57311486D01*
X123769605Y-57313400D01*
X123769606Y-57313401D01*
X123824410Y-57339953D01*
X123844247Y-57362257D01*
X123842503Y-57392056D01*
X123824288Y-57410207D01*
X123766132Y-57438134D01*
X123720733Y-57494903D01*
X123719362Y-57496617D01*
X123693217Y-57511020D01*
X123664546Y-57502717D01*
X123658018Y-57494517D01*
X123657585Y-57494862D01*
X123609107Y-57434026D01*
X123559456Y-57410077D01*
X123543001Y-57402140D01*
X123539043Y-57400231D01*
X123534650Y-57400227D01*
X123534649Y-57400227D01*
X123500336Y-57400197D01*
X123461254Y-57400163D01*
X123457296Y-57402063D01*
X123457294Y-57402064D01*
X123396238Y-57431384D01*
X123366433Y-57433025D01*
X123344199Y-57413111D01*
X123340355Y-57396228D01*
X123340355Y-57282399D01*
X123342558Y-57269476D01*
X123342735Y-57268973D01*
X123342735Y-57268972D01*
X123344189Y-57264832D01*
X123343075Y-57254815D01*
X123340594Y-57232526D01*
X123340355Y-57228213D01*
X123340355Y-57218948D01*
X123339870Y-57216821D01*
X123339869Y-57216813D01*
X123338365Y-57210220D01*
X123337627Y-57205861D01*
X123335918Y-57190508D01*
X123334072Y-57173917D01*
X123331297Y-57169484D01*
X123326331Y-57157467D01*
X123325167Y-57152366D01*
X123313781Y-57138077D01*
X123305142Y-57127237D01*
X123302591Y-57123636D01*
X123297738Y-57115884D01*
X123291207Y-57109353D01*
X123288284Y-57106081D01*
X123286182Y-57103443D01*
X123268160Y-57080827D01*
X123263528Y-57078593D01*
X123252899Y-57071045D01*
X122878954Y-56697100D01*
X122876031Y-56693828D01*
X122868996Y-56685000D01*
X122855907Y-56668574D01*
X122826760Y-56654515D01*
X122822976Y-56652422D01*
X122803633Y-56640264D01*
X122786364Y-56615920D01*
X122791367Y-56586493D01*
X122807566Y-56572060D01*
X122827768Y-56562402D01*
X122831728Y-56560509D01*
X122880418Y-56499843D01*
X122892042Y-56449695D01*
X123275115Y-56449695D01*
X123292283Y-56525565D01*
X123295015Y-56529006D01*
X123300954Y-56536486D01*
X123340654Y-56586486D01*
X123344605Y-56588400D01*
X123344606Y-56588401D01*
X123358712Y-56595235D01*
X123410659Y-56620403D01*
X123449456Y-56620504D01*
X123484055Y-56620595D01*
X123484057Y-56620595D01*
X123488448Y-56620606D01*
X123558629Y-56587056D01*
X123607319Y-56526390D01*
X123618302Y-56479006D01*
X123624386Y-56452760D01*
X123624386Y-56452757D01*
X123624884Y-56450610D01*
X123624885Y-56450000D01*
X123607585Y-56374160D01*
X123559107Y-56313324D01*
X123489043Y-56279529D01*
X123484650Y-56279525D01*
X123484649Y-56279525D01*
X123450336Y-56279495D01*
X123411254Y-56279461D01*
X123341132Y-56313134D01*
X123292548Y-56373885D01*
X123291564Y-56378164D01*
X123281150Y-56423453D01*
X123275115Y-56449695D01*
X122892042Y-56449695D01*
X122892469Y-56447853D01*
X122897485Y-56426213D01*
X122897485Y-56426210D01*
X122897983Y-56424063D01*
X122897984Y-56423453D01*
X122880684Y-56347613D01*
X122832222Y-56286797D01*
X122823969Y-56258112D01*
X122838417Y-56231993D01*
X122862823Y-56223493D01*
X122870824Y-56223514D01*
X122870826Y-56223514D01*
X122875218Y-56223525D01*
X122945399Y-56189975D01*
X122994089Y-56129309D01*
X123006136Y-56077334D01*
X123011156Y-56055679D01*
X123011156Y-56055676D01*
X123011654Y-56053529D01*
X123011655Y-56052919D01*
X123005525Y-56026048D01*
X123395770Y-56026048D01*
X123403671Y-56060966D01*
X123411208Y-56094271D01*
X123412938Y-56101918D01*
X123415670Y-56105359D01*
X123428973Y-56122113D01*
X123461309Y-56162839D01*
X123465260Y-56164753D01*
X123465261Y-56164754D01*
X123494170Y-56178760D01*
X123531314Y-56196756D01*
X123570111Y-56196857D01*
X123604710Y-56196948D01*
X123604712Y-56196948D01*
X123609103Y-56196959D01*
X123679284Y-56163409D01*
X123727974Y-56102743D01*
X123740058Y-56050610D01*
X123745041Y-56029113D01*
X123745041Y-56029110D01*
X123745539Y-56026963D01*
X123745540Y-56026353D01*
X123739674Y-56000639D01*
X124098803Y-56000639D01*
X124110041Y-56050301D01*
X124114778Y-56071235D01*
X124115971Y-56076509D01*
X124118703Y-56079950D01*
X124132743Y-56097632D01*
X124164342Y-56137430D01*
X124168293Y-56139344D01*
X124168294Y-56139345D01*
X124193901Y-56151751D01*
X124234347Y-56171347D01*
X124273144Y-56171448D01*
X124307743Y-56171539D01*
X124307745Y-56171539D01*
X124312136Y-56171550D01*
X124382317Y-56138000D01*
X124431007Y-56077334D01*
X124437413Y-56049695D01*
X125350115Y-56049695D01*
X125356931Y-56079815D01*
X125362227Y-56103219D01*
X125367283Y-56125565D01*
X125370015Y-56129006D01*
X125377911Y-56138950D01*
X125415654Y-56186486D01*
X125419605Y-56188400D01*
X125419606Y-56188401D01*
X125437270Y-56196959D01*
X125485659Y-56220403D01*
X125524456Y-56220504D01*
X125559055Y-56220595D01*
X125559057Y-56220595D01*
X125563448Y-56220606D01*
X125633629Y-56187056D01*
X125682319Y-56126390D01*
X125693881Y-56076509D01*
X125699386Y-56052760D01*
X125699386Y-56052757D01*
X125699884Y-56050610D01*
X125699885Y-56050000D01*
X125682585Y-55974160D01*
X125634107Y-55913324D01*
X125580747Y-55887586D01*
X125568001Y-55881438D01*
X125564043Y-55879529D01*
X125559650Y-55879525D01*
X125559649Y-55879525D01*
X125525336Y-55879495D01*
X125486254Y-55879461D01*
X125416132Y-55913134D01*
X125367548Y-55973885D01*
X125366564Y-55978164D01*
X125355483Y-56026353D01*
X125350115Y-56049695D01*
X124437413Y-56049695D01*
X124442184Y-56029113D01*
X124448074Y-56003704D01*
X124448074Y-56003701D01*
X124448572Y-56001554D01*
X124448573Y-56000944D01*
X124431273Y-55925104D01*
X124396909Y-55881979D01*
X124388657Y-55853295D01*
X124403105Y-55827175D01*
X124416812Y-55820600D01*
X124418948Y-55820606D01*
X124489129Y-55787056D01*
X124537819Y-55726390D01*
X124548802Y-55679006D01*
X124554886Y-55652760D01*
X124554886Y-55652757D01*
X124555384Y-55650610D01*
X124555385Y-55650000D01*
X124538085Y-55574160D01*
X124489607Y-55513324D01*
X124419543Y-55479529D01*
X124415150Y-55479525D01*
X124415149Y-55479525D01*
X124380836Y-55479495D01*
X124341754Y-55479461D01*
X124271632Y-55513134D01*
X124223048Y-55573885D01*
X124205615Y-55649695D01*
X124222783Y-55725565D01*
X124225515Y-55729006D01*
X124257289Y-55769024D01*
X124265491Y-55797724D01*
X124250997Y-55823818D01*
X124237259Y-55830407D01*
X124234942Y-55830405D01*
X124164820Y-55864078D01*
X124116236Y-55924829D01*
X124115252Y-55929108D01*
X124101837Y-55987446D01*
X124098803Y-56000639D01*
X123739674Y-56000639D01*
X123728240Y-55950513D01*
X123679762Y-55889677D01*
X123632284Y-55866776D01*
X123613656Y-55857791D01*
X123609698Y-55855882D01*
X123605305Y-55855878D01*
X123605304Y-55855878D01*
X123570991Y-55855848D01*
X123531909Y-55855814D01*
X123461787Y-55889487D01*
X123413203Y-55950238D01*
X123412219Y-55954517D01*
X123399992Y-56007689D01*
X123395770Y-56026048D01*
X123005525Y-56026048D01*
X122994355Y-55977079D01*
X122945877Y-55916243D01*
X122897926Y-55893114D01*
X122879771Y-55884357D01*
X122875813Y-55882448D01*
X122871420Y-55882444D01*
X122871419Y-55882444D01*
X122837106Y-55882414D01*
X122798024Y-55882380D01*
X122727902Y-55916053D01*
X122679318Y-55976804D01*
X122678334Y-55981083D01*
X122662980Y-56047853D01*
X122661885Y-56052614D01*
X122679053Y-56128484D01*
X122681785Y-56131925D01*
X122727424Y-56189405D01*
X122725633Y-56190827D01*
X122735980Y-56209632D01*
X122727662Y-56238299D01*
X122701510Y-56252688D01*
X122697184Y-56252925D01*
X122692342Y-56252921D01*
X122684353Y-56252914D01*
X122614231Y-56286587D01*
X122587145Y-56320457D01*
X122586573Y-56321172D01*
X122560429Y-56335575D01*
X122531757Y-56327272D01*
X122520958Y-56313696D01*
X122514830Y-56300935D01*
X122512929Y-56296976D01*
X122491028Y-56279461D01*
X122444918Y-56242586D01*
X122444917Y-56242586D01*
X122441489Y-56239844D01*
X122374762Y-56224500D01*
X122372558Y-56224500D01*
X122370364Y-56224251D01*
X122370443Y-56223558D01*
X122345139Y-56213077D01*
X122333716Y-56185500D01*
X122345139Y-56157923D01*
X122355896Y-56150314D01*
X122379668Y-56138950D01*
X122379669Y-56138949D01*
X122383629Y-56137056D01*
X122432319Y-56076390D01*
X122448261Y-56007614D01*
X122449386Y-56002760D01*
X122449386Y-56002757D01*
X122449884Y-56000610D01*
X122449885Y-56000000D01*
X122432585Y-55924160D01*
X122384107Y-55863324D01*
X122334800Y-55839541D01*
X122318001Y-55831438D01*
X122314043Y-55829529D01*
X122309650Y-55829525D01*
X122309649Y-55829525D01*
X122275336Y-55829495D01*
X122236254Y-55829461D01*
X122166132Y-55863134D01*
X122117548Y-55923885D01*
X122117502Y-55923848D01*
X122097233Y-55941908D01*
X122067433Y-55940189D01*
X122053910Y-55929385D01*
X122022032Y-55889381D01*
X121969574Y-55864078D01*
X121955926Y-55857495D01*
X121951968Y-55855586D01*
X121947575Y-55855582D01*
X121947574Y-55855582D01*
X121913261Y-55855552D01*
X121874179Y-55855518D01*
X121804057Y-55889191D01*
X121765215Y-55937761D01*
X121761815Y-55942012D01*
X121735670Y-55956415D01*
X121706999Y-55948112D01*
X121703780Y-55945231D01*
X121648227Y-55889677D01*
X121561923Y-55803373D01*
X121550500Y-55775796D01*
X121550500Y-55599695D01*
X123245615Y-55599695D01*
X123262783Y-55675565D01*
X123311154Y-55736486D01*
X123315105Y-55738400D01*
X123315106Y-55738401D01*
X123336898Y-55748959D01*
X123381159Y-55770403D01*
X123419956Y-55770504D01*
X123454555Y-55770595D01*
X123454557Y-55770595D01*
X123458948Y-55770606D01*
X123529129Y-55737056D01*
X123577819Y-55676390D01*
X123590183Y-55623050D01*
X123594886Y-55602760D01*
X123594886Y-55602757D01*
X123595384Y-55600610D01*
X123595385Y-55600000D01*
X123578085Y-55524160D01*
X123529607Y-55463324D01*
X123459543Y-55429529D01*
X123455150Y-55429525D01*
X123455149Y-55429525D01*
X123420836Y-55429495D01*
X123381754Y-55429461D01*
X123311632Y-55463134D01*
X123263048Y-55523885D01*
X123262064Y-55528164D01*
X123253121Y-55567056D01*
X123245615Y-55599695D01*
X121550500Y-55599695D01*
X121550500Y-55558016D01*
X121561923Y-55530439D01*
X121589500Y-55519016D01*
X121606504Y-55522918D01*
X121657054Y-55547409D01*
X121695851Y-55547510D01*
X121730450Y-55547601D01*
X121730452Y-55547601D01*
X121734843Y-55547612D01*
X121805024Y-55514062D01*
X121853714Y-55453396D01*
X121870657Y-55380301D01*
X121870781Y-55379766D01*
X121870781Y-55379763D01*
X121870797Y-55379695D01*
X126335115Y-55379695D01*
X126352283Y-55455565D01*
X126355015Y-55459006D01*
X126362106Y-55467937D01*
X126400654Y-55516486D01*
X126404605Y-55518400D01*
X126404606Y-55518401D01*
X126416493Y-55524160D01*
X126470659Y-55550403D01*
X126509456Y-55550504D01*
X126544055Y-55550595D01*
X126544057Y-55550595D01*
X126548448Y-55550606D01*
X126618629Y-55517056D01*
X126667319Y-55456390D01*
X126684884Y-55380610D01*
X126684885Y-55380000D01*
X126667585Y-55304160D01*
X126619107Y-55243324D01*
X126560560Y-55215084D01*
X126553001Y-55211438D01*
X126549043Y-55209529D01*
X126544650Y-55209525D01*
X126544649Y-55209525D01*
X126510336Y-55209495D01*
X126471254Y-55209461D01*
X126401132Y-55243134D01*
X126352548Y-55303885D01*
X126351564Y-55308164D01*
X126337461Y-55369494D01*
X126335115Y-55379695D01*
X121870797Y-55379695D01*
X121871279Y-55377616D01*
X121871280Y-55377006D01*
X121853980Y-55301166D01*
X121805502Y-55240330D01*
X121748452Y-55212812D01*
X121739396Y-55208444D01*
X121735438Y-55206535D01*
X121731045Y-55206531D01*
X121731044Y-55206531D01*
X121696731Y-55206501D01*
X121657649Y-55206467D01*
X121653691Y-55208367D01*
X121653689Y-55208368D01*
X121606383Y-55231085D01*
X121576578Y-55232726D01*
X121554344Y-55212812D01*
X121550500Y-55195929D01*
X121550500Y-55184223D01*
X121551249Y-55176615D01*
X121554659Y-55159472D01*
X121554659Y-55159470D01*
X121555408Y-55155705D01*
X121554213Y-55149695D01*
X124250115Y-55149695D01*
X124267283Y-55225565D01*
X124270015Y-55229006D01*
X124284865Y-55247709D01*
X124315654Y-55286486D01*
X124319605Y-55288400D01*
X124319606Y-55288401D01*
X124338862Y-55297730D01*
X124385659Y-55320403D01*
X124424456Y-55320504D01*
X124459055Y-55320595D01*
X124459057Y-55320595D01*
X124463448Y-55320606D01*
X124533629Y-55287056D01*
X124582319Y-55226390D01*
X124595948Y-55167593D01*
X124599386Y-55152760D01*
X124599386Y-55152757D01*
X124599884Y-55150610D01*
X124599885Y-55150000D01*
X124597185Y-55138164D01*
X124602190Y-55108738D01*
X124626537Y-55091469D01*
X124635307Y-55090493D01*
X124678448Y-55090606D01*
X124748629Y-55057056D01*
X124797319Y-54996390D01*
X124807956Y-54950500D01*
X124814386Y-54922760D01*
X124814386Y-54922757D01*
X124814884Y-54920610D01*
X124814885Y-54920000D01*
X124797585Y-54844160D01*
X124749107Y-54783324D01*
X124703832Y-54761486D01*
X124683001Y-54751438D01*
X124679043Y-54749529D01*
X124674650Y-54749525D01*
X124674649Y-54749525D01*
X124640336Y-54749495D01*
X124601254Y-54749461D01*
X124531132Y-54783134D01*
X124482548Y-54843885D01*
X124481564Y-54848164D01*
X124467592Y-54908924D01*
X124465115Y-54919695D01*
X124467875Y-54931891D01*
X124462821Y-54961309D01*
X124438445Y-54978537D01*
X124429803Y-54979499D01*
X124418067Y-54979489D01*
X124386254Y-54979461D01*
X124316132Y-55013134D01*
X124267548Y-55073885D01*
X124266564Y-55078164D01*
X124255528Y-55126157D01*
X124250115Y-55149695D01*
X121554213Y-55149695D01*
X121542457Y-55090594D01*
X121536715Y-55061728D01*
X121536714Y-55061727D01*
X121535966Y-55057964D01*
X121497903Y-55000999D01*
X121480601Y-54975104D01*
X121477410Y-54972972D01*
X121477406Y-54972968D01*
X121462872Y-54963257D01*
X121456962Y-54958407D01*
X121451132Y-54952577D01*
X121439709Y-54925000D01*
X121451132Y-54897423D01*
X121723860Y-54624695D01*
X122575115Y-54624695D01*
X122592283Y-54700565D01*
X122640654Y-54761486D01*
X122644605Y-54763400D01*
X122644606Y-54763401D01*
X122655713Y-54768782D01*
X122710659Y-54795403D01*
X122749456Y-54795504D01*
X122784055Y-54795595D01*
X122784057Y-54795595D01*
X122788448Y-54795606D01*
X122792879Y-54793488D01*
X122795268Y-54792346D01*
X122825075Y-54790759D01*
X122847274Y-54810714D01*
X122850274Y-54824002D01*
X122850115Y-54824695D01*
X122867283Y-54900565D01*
X122870015Y-54904006D01*
X122872994Y-54907758D01*
X122915654Y-54961486D01*
X122919605Y-54963400D01*
X122919606Y-54963401D01*
X122939353Y-54972968D01*
X122985659Y-54995403D01*
X123024456Y-54995504D01*
X123059055Y-54995595D01*
X123059057Y-54995595D01*
X123063448Y-54995606D01*
X123133629Y-54962056D01*
X123143550Y-54949695D01*
X123325115Y-54949695D01*
X123342283Y-55025565D01*
X123390654Y-55086486D01*
X123394605Y-55088400D01*
X123394606Y-55088401D01*
X123402035Y-55092000D01*
X123460659Y-55120403D01*
X123499456Y-55120504D01*
X123534055Y-55120595D01*
X123534057Y-55120595D01*
X123538448Y-55120606D01*
X123608629Y-55087056D01*
X123628957Y-55061728D01*
X123653439Y-55031225D01*
X123679609Y-55016868D01*
X123708265Y-55025221D01*
X123714396Y-55031384D01*
X123758138Y-55086475D01*
X123762089Y-55088389D01*
X123762090Y-55088390D01*
X123793140Y-55103433D01*
X123828143Y-55120392D01*
X123866940Y-55120493D01*
X123901539Y-55120584D01*
X123901541Y-55120584D01*
X123905932Y-55120595D01*
X123976113Y-55087045D01*
X124024803Y-55026379D01*
X124034013Y-54986643D01*
X124041870Y-54952749D01*
X124041870Y-54952746D01*
X124042368Y-54950599D01*
X124042369Y-54949989D01*
X124025069Y-54874149D01*
X123976591Y-54813313D01*
X123906527Y-54779518D01*
X123902134Y-54779514D01*
X123902133Y-54779514D01*
X123867820Y-54779484D01*
X123828738Y-54779450D01*
X123758616Y-54813123D01*
X123755873Y-54816553D01*
X123714160Y-54868712D01*
X123688015Y-54883115D01*
X123659344Y-54874812D01*
X123653202Y-54868659D01*
X123611846Y-54816761D01*
X123609107Y-54813324D01*
X123562325Y-54790759D01*
X123543001Y-54781438D01*
X123539043Y-54779529D01*
X123534650Y-54779525D01*
X123534649Y-54779525D01*
X123500336Y-54779495D01*
X123461254Y-54779461D01*
X123391132Y-54813134D01*
X123342548Y-54873885D01*
X123341564Y-54878164D01*
X123326402Y-54944099D01*
X123325115Y-54949695D01*
X123143550Y-54949695D01*
X123182319Y-54901390D01*
X123196443Y-54840457D01*
X123199386Y-54827760D01*
X123199386Y-54827757D01*
X123199884Y-54825610D01*
X123199885Y-54825000D01*
X123182585Y-54749160D01*
X123134107Y-54688324D01*
X123064043Y-54654529D01*
X123059650Y-54654525D01*
X123059649Y-54654525D01*
X123025336Y-54654495D01*
X122986254Y-54654461D01*
X122982297Y-54656361D01*
X122982293Y-54656362D01*
X122980434Y-54657255D01*
X122950630Y-54658895D01*
X122928396Y-54638979D01*
X122924794Y-54626429D01*
X122924762Y-54626138D01*
X122924884Y-54625610D01*
X122924885Y-54625000D01*
X122924196Y-54621976D01*
X122908562Y-54553443D01*
X122907585Y-54549160D01*
X122859107Y-54488324D01*
X122789043Y-54454529D01*
X122784650Y-54454525D01*
X122784649Y-54454525D01*
X122750336Y-54454495D01*
X122711254Y-54454461D01*
X122641132Y-54488134D01*
X122592548Y-54548885D01*
X122591564Y-54553164D01*
X122579216Y-54606863D01*
X122575115Y-54624695D01*
X121723860Y-54624695D01*
X121883175Y-54465380D01*
X121889085Y-54460530D01*
X121903620Y-54450818D01*
X121903623Y-54450815D01*
X121906814Y-54448683D01*
X121942270Y-54395618D01*
X121962179Y-54365823D01*
X121981621Y-54268082D01*
X121980872Y-54264317D01*
X121980872Y-54264313D01*
X121978469Y-54252234D01*
X121978469Y-54237014D01*
X121980871Y-54224939D01*
X121981621Y-54221171D01*
X121962179Y-54123431D01*
X121962464Y-54123374D01*
X121962463Y-54096228D01*
X121983569Y-54075120D01*
X121998495Y-54072151D01*
X123818714Y-54072151D01*
X123818832Y-54072158D01*
G37*
%TD.AperFunction*%
%TA.AperFunction,Conductor*%
G36*
X115601203Y-67174753D02*
G01*
X115741121Y-67314670D01*
X115752544Y-67342247D01*
X115752544Y-68111305D01*
X115745972Y-68132972D01*
X115717078Y-68176216D01*
X115697636Y-68273956D01*
X115698385Y-68277721D01*
X115698385Y-68277722D01*
X115703264Y-68302251D01*
X115697440Y-68331526D01*
X115672621Y-68348110D01*
X115643346Y-68342286D01*
X115637436Y-68337436D01*
X115600000Y-68300000D01*
X115588106Y-68300000D01*
X115560529Y-68288577D01*
X115549442Y-68266107D01*
X115535772Y-68162609D01*
X115535557Y-68160981D01*
X115470918Y-67951439D01*
X115372169Y-67755647D01*
X115371664Y-67755957D01*
X115363508Y-67749009D01*
X115362866Y-67748213D01*
X115361692Y-67746052D01*
X115361542Y-67744630D01*
X115359655Y-67742303D01*
X115344257Y-67713949D01*
X115202621Y-67453150D01*
X115199498Y-67423464D01*
X115218280Y-67400265D01*
X115236995Y-67395537D01*
X115259055Y-67395595D01*
X115259057Y-67395595D01*
X115263448Y-67395606D01*
X115333629Y-67362056D01*
X115382319Y-67301390D01*
X115399884Y-67225610D01*
X115399885Y-67225000D01*
X115396692Y-67211003D01*
X115401695Y-67181577D01*
X115426041Y-67164307D01*
X115434715Y-67163330D01*
X115573626Y-67163330D01*
X115601203Y-67174753D01*
G37*
%TD.AperFunction*%
%TA.AperFunction,Conductor*%
G36*
X130785177Y-62145245D02*
G01*
X130949977Y-62310045D01*
X130961400Y-62337622D01*
X130961400Y-65674107D01*
X130952858Y-65698465D01*
X130945730Y-65707378D01*
X130905624Y-65757528D01*
X130904641Y-65761805D01*
X130904640Y-65761806D01*
X130904591Y-65762021D01*
X130892973Y-65812543D01*
X130875662Y-65836858D01*
X130846226Y-65841810D01*
X130827389Y-65831379D01*
X130730023Y-65734013D01*
X130718600Y-65706436D01*
X130718600Y-62172822D01*
X130730023Y-62145245D01*
X130757600Y-62133822D01*
X130785177Y-62145245D01*
G37*
%TD.AperFunction*%
%TA.AperFunction,Conductor*%
G36*
X120688316Y-55471099D02*
G01*
X120698776Y-55490066D01*
X120702283Y-55505565D01*
X120705015Y-55509006D01*
X120720448Y-55528443D01*
X120750654Y-55566486D01*
X120754605Y-55568400D01*
X120754606Y-55568401D01*
X120772753Y-55577193D01*
X120820659Y-55600403D01*
X120859456Y-55600504D01*
X120894055Y-55600595D01*
X120894057Y-55600595D01*
X120898448Y-55600606D01*
X120968629Y-55567056D01*
X120980086Y-55552781D01*
X121006254Y-55538425D01*
X121034911Y-55546777D01*
X121049268Y-55572947D01*
X121049500Y-55577193D01*
X121049500Y-55847463D01*
X121038077Y-55875040D01*
X121010500Y-55886463D01*
X120993578Y-55880534D01*
X120992856Y-55882030D01*
X120926750Y-55850144D01*
X120922792Y-55848235D01*
X120918399Y-55848231D01*
X120918398Y-55848231D01*
X120884085Y-55848201D01*
X120845003Y-55848167D01*
X120774881Y-55881840D01*
X120726297Y-55942591D01*
X120725313Y-55946870D01*
X120710006Y-56013436D01*
X120708864Y-56018401D01*
X120726032Y-56094271D01*
X120774403Y-56155192D01*
X120778354Y-56157106D01*
X120778355Y-56157107D01*
X120799470Y-56167337D01*
X120844408Y-56189109D01*
X120883205Y-56189210D01*
X120917804Y-56189301D01*
X120917806Y-56189301D01*
X120922197Y-56189312D01*
X120992378Y-56155762D01*
X121041068Y-56095096D01*
X121056977Y-56026460D01*
X121074332Y-56002174D01*
X121103776Y-55997273D01*
X121119233Y-56005850D01*
X121119399Y-56005601D01*
X121122411Y-56007614D01*
X121122415Y-56007616D01*
X121202260Y-56060966D01*
X121206025Y-56061715D01*
X121253267Y-56071112D01*
X121273236Y-56081786D01*
X121386976Y-56195526D01*
X121398399Y-56223103D01*
X121386976Y-56250680D01*
X121376282Y-56258259D01*
X121370093Y-56261231D01*
X121370090Y-56261233D01*
X121366132Y-56263134D01*
X121317548Y-56323885D01*
X121316564Y-56328164D01*
X121305686Y-56375470D01*
X121300115Y-56399695D01*
X121317283Y-56475565D01*
X121365654Y-56536486D01*
X121369605Y-56538400D01*
X121369606Y-56538401D01*
X121420614Y-56563114D01*
X121440451Y-56585418D01*
X121438707Y-56615217D01*
X121420492Y-56633368D01*
X121359510Y-56662652D01*
X121310926Y-56723403D01*
X121309942Y-56727682D01*
X121295207Y-56791761D01*
X121293493Y-56799213D01*
X121301927Y-56836486D01*
X121307916Y-56862950D01*
X121310661Y-56875083D01*
X121313393Y-56878524D01*
X121328008Y-56896931D01*
X121359032Y-56936004D01*
X121362983Y-56937918D01*
X121362984Y-56937919D01*
X121394034Y-56952962D01*
X121429037Y-56969921D01*
X121467834Y-56970022D01*
X121502433Y-56970113D01*
X121502435Y-56970113D01*
X121506826Y-56970124D01*
X121577007Y-56936574D01*
X121625697Y-56875908D01*
X121638166Y-56822113D01*
X121642764Y-56802278D01*
X121642764Y-56802275D01*
X121643262Y-56800128D01*
X121643263Y-56799518D01*
X121625963Y-56723678D01*
X121577485Y-56662842D01*
X121522721Y-56636427D01*
X121502845Y-56614158D01*
X121504538Y-56584356D01*
X121522844Y-56566114D01*
X121583629Y-56537056D01*
X121620906Y-56490610D01*
X121647073Y-56476255D01*
X121675730Y-56484607D01*
X121678896Y-56487446D01*
X121729341Y-56537891D01*
X121736921Y-56548587D01*
X121739052Y-56553024D01*
X121761024Y-56570595D01*
X121764436Y-56573324D01*
X121767655Y-56576205D01*
X121774208Y-56582758D01*
X121776063Y-56583924D01*
X121781789Y-56587523D01*
X121785393Y-56590084D01*
X121810492Y-56610156D01*
X121813177Y-56610774D01*
X121832401Y-56632352D01*
X121830682Y-56662151D01*
X121826031Y-56669530D01*
X121822548Y-56673885D01*
X121821564Y-56678164D01*
X121808880Y-56733324D01*
X121805115Y-56749695D01*
X121822283Y-56825565D01*
X121825015Y-56829006D01*
X121826794Y-56831246D01*
X121870654Y-56886486D01*
X121874605Y-56888400D01*
X121874606Y-56888401D01*
X121899899Y-56900655D01*
X121940659Y-56920403D01*
X121979456Y-56920504D01*
X122014055Y-56920595D01*
X122014057Y-56920595D01*
X122018448Y-56920606D01*
X122088629Y-56887056D01*
X122137319Y-56826390D01*
X122148302Y-56779006D01*
X122154386Y-56752760D01*
X122154386Y-56752757D01*
X122154884Y-56750610D01*
X122154885Y-56750000D01*
X122137585Y-56674160D01*
X122139558Y-56673710D01*
X122138331Y-56651594D01*
X122158237Y-56629351D01*
X122175134Y-56625500D01*
X122261152Y-56625500D01*
X122288729Y-56636923D01*
X122521791Y-56869985D01*
X122530768Y-56888658D01*
X122531455Y-56888419D01*
X122532899Y-56892567D01*
X122533385Y-56896931D01*
X122535715Y-56900653D01*
X122535716Y-56900655D01*
X122536047Y-56901184D01*
X122541029Y-56913272D01*
X122542135Y-56918159D01*
X122544866Y-56921598D01*
X122562246Y-56943488D01*
X122564758Y-56947042D01*
X122569718Y-56954964D01*
X122576104Y-56961350D01*
X122579069Y-56964675D01*
X122599017Y-56989798D01*
X122602969Y-56991713D01*
X122602972Y-56991715D01*
X122603837Y-56992134D01*
X122614408Y-56999654D01*
X122772218Y-57157463D01*
X122927932Y-57313177D01*
X122939355Y-57340754D01*
X122939355Y-57485080D01*
X122932782Y-57506747D01*
X122899395Y-57556715D01*
X122878889Y-57587405D01*
X122877279Y-57586329D01*
X122861047Y-57602539D01*
X122831198Y-57602518D01*
X122810105Y-57581397D01*
X122808126Y-57575179D01*
X122806205Y-57566757D01*
X122757727Y-57505921D01*
X122687663Y-57472126D01*
X122683270Y-57472122D01*
X122683269Y-57472122D01*
X122648956Y-57472092D01*
X122609874Y-57472058D01*
X122539752Y-57505731D01*
X122537009Y-57509161D01*
X122508662Y-57544606D01*
X122482517Y-57559009D01*
X122453846Y-57550706D01*
X122440181Y-57528921D01*
X122439231Y-57524755D01*
X122433458Y-57499448D01*
X122384980Y-57438612D01*
X122341708Y-57417740D01*
X122318874Y-57406726D01*
X122314916Y-57404817D01*
X122310523Y-57404813D01*
X122310522Y-57404813D01*
X122276209Y-57404783D01*
X122237127Y-57404749D01*
X122167005Y-57438422D01*
X122118421Y-57499173D01*
X122117437Y-57503452D01*
X122102019Y-57570500D01*
X122100988Y-57574983D01*
X122110729Y-57618032D01*
X122114879Y-57636369D01*
X122118156Y-57650853D01*
X122166527Y-57711774D01*
X122170478Y-57713688D01*
X122170479Y-57713689D01*
X122201530Y-57728733D01*
X122236532Y-57745691D01*
X122275329Y-57745792D01*
X122309928Y-57745883D01*
X122309930Y-57745883D01*
X122314321Y-57745894D01*
X122384502Y-57712344D01*
X122401535Y-57691122D01*
X122415867Y-57673265D01*
X122442037Y-57658908D01*
X122470693Y-57667261D01*
X122484320Y-57689068D01*
X122485826Y-57695725D01*
X122489551Y-57712185D01*
X122490903Y-57718162D01*
X122493635Y-57721603D01*
X122497671Y-57726686D01*
X122539274Y-57779083D01*
X122543225Y-57780997D01*
X122543226Y-57780998D01*
X122599149Y-57808092D01*
X122618986Y-57830396D01*
X122617242Y-57860195D01*
X122612602Y-57867548D01*
X122567548Y-57923885D01*
X122566564Y-57928164D01*
X122552630Y-57988760D01*
X122550115Y-57999695D01*
X122555000Y-58021282D01*
X122564354Y-58062619D01*
X122567283Y-58075565D01*
X122615654Y-58136486D01*
X122619605Y-58138400D01*
X122619606Y-58138401D01*
X122642418Y-58149453D01*
X122685659Y-58170403D01*
X122724456Y-58170504D01*
X122759055Y-58170595D01*
X122759057Y-58170595D01*
X122763448Y-58170606D01*
X122785634Y-58160000D01*
X122804375Y-58151041D01*
X122834182Y-58149453D01*
X122856382Y-58169406D01*
X122859682Y-58183962D01*
X122859447Y-58185145D01*
X122862402Y-58200000D01*
X122873288Y-58254726D01*
X122878889Y-58282886D01*
X122892820Y-58303735D01*
X122934254Y-58365746D01*
X122937445Y-58367878D01*
X122937449Y-58367882D01*
X122951983Y-58377593D01*
X122957893Y-58382443D01*
X123082412Y-58506962D01*
X123087262Y-58512872D01*
X123096974Y-58527407D01*
X123096977Y-58527410D01*
X123099109Y-58530601D01*
X123121198Y-58545360D01*
X123150125Y-58564688D01*
X123178005Y-58583317D01*
X123181969Y-58585966D01*
X123185732Y-58586714D01*
X123185733Y-58586715D01*
X123250989Y-58599695D01*
X123272803Y-58604034D01*
X123275945Y-58604659D01*
X123279710Y-58605408D01*
X123283475Y-58604659D01*
X123283477Y-58604659D01*
X123300620Y-58601249D01*
X123308228Y-58600500D01*
X124321482Y-58600500D01*
X124329090Y-58601249D01*
X124346233Y-58604659D01*
X124346235Y-58604659D01*
X124350000Y-58605408D01*
X124391656Y-58597122D01*
X124420931Y-58602946D01*
X124437515Y-58627764D01*
X124434490Y-58651457D01*
X124432548Y-58653885D01*
X124431564Y-58658162D01*
X124431564Y-58658163D01*
X124425105Y-58686250D01*
X124407792Y-58710565D01*
X124382717Y-58716262D01*
X124373552Y-58715226D01*
X124357109Y-58713367D01*
X124352768Y-58712625D01*
X124343858Y-58710577D01*
X124334620Y-58710577D01*
X124330239Y-58710330D01*
X124302517Y-58707196D01*
X124302516Y-58707196D01*
X124298153Y-58706703D01*
X124293301Y-58708397D01*
X124280445Y-58710577D01*
X123644815Y-58710577D01*
X123593360Y-58710532D01*
X123576343Y-58718703D01*
X123568143Y-58721566D01*
X123549738Y-58725765D01*
X123546302Y-58728503D01*
X123535145Y-58737394D01*
X123527723Y-58742050D01*
X123510899Y-58750129D01*
X123508156Y-58753559D01*
X123499111Y-58764869D01*
X123492958Y-58771011D01*
X123481634Y-58780034D01*
X123481632Y-58780036D01*
X123478199Y-58782772D01*
X123476292Y-58786725D01*
X123476290Y-58786728D01*
X123470093Y-58799578D01*
X123465422Y-58806995D01*
X123456510Y-58818137D01*
X123456507Y-58818143D01*
X123453767Y-58821569D01*
X123452783Y-58825848D01*
X123449537Y-58839964D01*
X123446657Y-58848166D01*
X123438458Y-58865164D01*
X123438454Y-58869556D01*
X123438454Y-58869557D01*
X123438452Y-58872077D01*
X123438443Y-58883045D01*
X123438442Y-58883821D01*
X123437450Y-58892527D01*
X123433267Y-58910718D01*
X123437433Y-58929128D01*
X123438394Y-58937767D01*
X123438388Y-58945292D01*
X123438378Y-58956640D01*
X123446458Y-58973467D01*
X123449337Y-58981735D01*
X123453456Y-58999938D01*
X123456186Y-59003377D01*
X123456188Y-59003380D01*
X123465193Y-59014721D01*
X123469806Y-59022088D01*
X123477975Y-59039101D01*
X123481404Y-59041843D01*
X123492550Y-59050757D01*
X123498733Y-59056961D01*
X123510338Y-59071577D01*
X123514291Y-59073492D01*
X123514292Y-59073493D01*
X123514992Y-59073832D01*
X123527326Y-59079807D01*
X123534674Y-59084444D01*
X123549415Y-59096233D01*
X123567604Y-59100415D01*
X123575862Y-59103323D01*
X123592660Y-59111462D01*
X123597049Y-59111474D01*
X123597051Y-59111474D01*
X123615766Y-59111523D01*
X123615954Y-59111534D01*
X123616142Y-59111577D01*
X123636492Y-59111577D01*
X123684136Y-59111702D01*
X123684339Y-59111605D01*
X123684588Y-59111577D01*
X124221873Y-59111577D01*
X124249450Y-59123000D01*
X124389373Y-59262923D01*
X124400796Y-59290500D01*
X124389373Y-59318077D01*
X124361796Y-59329500D01*
X123448518Y-59329500D01*
X123440910Y-59328751D01*
X123423767Y-59325341D01*
X123423765Y-59325341D01*
X123420000Y-59324592D01*
X123416235Y-59325341D01*
X123416233Y-59325341D01*
X123399090Y-59328751D01*
X123391482Y-59329500D01*
X121149914Y-59329500D01*
X121122337Y-59318077D01*
X120922827Y-59118567D01*
X120911404Y-59090990D01*
X120922827Y-59063413D01*
X120950404Y-59051990D01*
X120959177Y-59052989D01*
X120961847Y-59053605D01*
X120965801Y-59055521D01*
X121004695Y-59055622D01*
X121039197Y-59055713D01*
X121039199Y-59055713D01*
X121043590Y-59055724D01*
X121113771Y-59022174D01*
X121116516Y-59018753D01*
X121116518Y-59018752D01*
X121124631Y-59008643D01*
X121125145Y-59008002D01*
X121151315Y-58993645D01*
X121179972Y-59001997D01*
X121186103Y-59008161D01*
X121197658Y-59022713D01*
X121200654Y-59026486D01*
X121204605Y-59028400D01*
X121204606Y-59028401D01*
X121205855Y-59029006D01*
X121270659Y-59060403D01*
X121309456Y-59060504D01*
X121344055Y-59060595D01*
X121344057Y-59060595D01*
X121348448Y-59060606D01*
X121418629Y-59027056D01*
X121467319Y-58966390D01*
X121477978Y-58920403D01*
X121484386Y-58892760D01*
X121484386Y-58892757D01*
X121484884Y-58890610D01*
X121484885Y-58890000D01*
X121467585Y-58814160D01*
X121419107Y-58753324D01*
X121378281Y-58733632D01*
X121353001Y-58721438D01*
X121349043Y-58719529D01*
X121344650Y-58719525D01*
X121344649Y-58719525D01*
X121310336Y-58719495D01*
X121271254Y-58719461D01*
X121201132Y-58753134D01*
X121198389Y-58756564D01*
X121189998Y-58767056D01*
X121163853Y-58781459D01*
X121135182Y-58773156D01*
X121129039Y-58767002D01*
X121116988Y-58751879D01*
X121116987Y-58751879D01*
X121114249Y-58748442D01*
X121057462Y-58721051D01*
X121048143Y-58716556D01*
X121044185Y-58714647D01*
X121039792Y-58714643D01*
X121039791Y-58714643D01*
X121005478Y-58714613D01*
X120966396Y-58714579D01*
X120896274Y-58748252D01*
X120847690Y-58809003D01*
X120846706Y-58813282D01*
X120832109Y-58876761D01*
X120830257Y-58884813D01*
X120841776Y-58935717D01*
X120836722Y-58965135D01*
X120812346Y-58982362D01*
X120782927Y-58977308D01*
X120776161Y-58971901D01*
X120229156Y-58424896D01*
X121725115Y-58424896D01*
X121734544Y-58466564D01*
X121741250Y-58496199D01*
X121742283Y-58500766D01*
X121745015Y-58504207D01*
X121748768Y-58508934D01*
X121790654Y-58561687D01*
X121794605Y-58563601D01*
X121794611Y-58563606D01*
X121796238Y-58564394D01*
X121797832Y-58566186D01*
X121798035Y-58566349D01*
X121798007Y-58566384D01*
X121816074Y-58586699D01*
X121814327Y-58616497D01*
X121809690Y-58623847D01*
X121769673Y-58673885D01*
X121768689Y-58678164D01*
X121753950Y-58742260D01*
X121752240Y-58749695D01*
X121763528Y-58799578D01*
X121768144Y-58819977D01*
X121769408Y-58825565D01*
X121772140Y-58829006D01*
X121785084Y-58845308D01*
X121817779Y-58886486D01*
X121821730Y-58888400D01*
X121821731Y-58888401D01*
X121840262Y-58897379D01*
X121887784Y-58920403D01*
X121926581Y-58920504D01*
X121961180Y-58920595D01*
X121961182Y-58920595D01*
X121965573Y-58920606D01*
X122035754Y-58887056D01*
X122084444Y-58826390D01*
X122096783Y-58773156D01*
X122101511Y-58752760D01*
X122101511Y-58752757D01*
X122102009Y-58750610D01*
X122102010Y-58750000D01*
X122084710Y-58674160D01*
X122036232Y-58613324D01*
X122032274Y-58611415D01*
X122032273Y-58611414D01*
X122030944Y-58610773D01*
X122029642Y-58609314D01*
X122028844Y-58608677D01*
X122028952Y-58608541D01*
X122011069Y-58588503D01*
X122012763Y-58558702D01*
X122017474Y-58551236D01*
X122022678Y-58544753D01*
X122057319Y-58501591D01*
X122067752Y-58456581D01*
X122074386Y-58427961D01*
X122074386Y-58427958D01*
X122074884Y-58425811D01*
X122074885Y-58425201D01*
X122057585Y-58349361D01*
X122009107Y-58288525D01*
X121971536Y-58270403D01*
X121943001Y-58256639D01*
X121939043Y-58254730D01*
X121934650Y-58254726D01*
X121934649Y-58254726D01*
X121900336Y-58254696D01*
X121861254Y-58254662D01*
X121791132Y-58288335D01*
X121742548Y-58349086D01*
X121741564Y-58353365D01*
X121727104Y-58416248D01*
X121725115Y-58424896D01*
X120229156Y-58424896D01*
X119936923Y-58132663D01*
X119925500Y-58105086D01*
X119925500Y-57774696D01*
X120571030Y-57774696D01*
X120579771Y-57813324D01*
X120586998Y-57845261D01*
X120588198Y-57850566D01*
X120590930Y-57854007D01*
X120607850Y-57875317D01*
X120636569Y-57911487D01*
X120640520Y-57913401D01*
X120640521Y-57913402D01*
X120670990Y-57928164D01*
X120706574Y-57945404D01*
X120745371Y-57945505D01*
X120779970Y-57945596D01*
X120779972Y-57945596D01*
X120784363Y-57945607D01*
X120854544Y-57912057D01*
X120903234Y-57851391D01*
X120918717Y-57784595D01*
X120920301Y-57777761D01*
X120920301Y-57777758D01*
X120920799Y-57775611D01*
X120920800Y-57775001D01*
X120903500Y-57699161D01*
X120855022Y-57638325D01*
X120784958Y-57604530D01*
X120780565Y-57604526D01*
X120780564Y-57604526D01*
X120746251Y-57604496D01*
X120707169Y-57604462D01*
X120637047Y-57638135D01*
X120588463Y-57698886D01*
X120587479Y-57703165D01*
X120575062Y-57757163D01*
X120571030Y-57774696D01*
X119925500Y-57774696D01*
X119925500Y-57250912D01*
X120605115Y-57250912D01*
X120622283Y-57326782D01*
X120670654Y-57387703D01*
X120674605Y-57389617D01*
X120674606Y-57389618D01*
X120704941Y-57404315D01*
X120740659Y-57421620D01*
X120779456Y-57421721D01*
X120814055Y-57421812D01*
X120814057Y-57421812D01*
X120818448Y-57421823D01*
X120888629Y-57388273D01*
X120937319Y-57327607D01*
X120954103Y-57255197D01*
X120954386Y-57253977D01*
X120954386Y-57253974D01*
X120954884Y-57251827D01*
X120954885Y-57251217D01*
X120953518Y-57245224D01*
X120947750Y-57219935D01*
X120952754Y-57190508D01*
X120977100Y-57173239D01*
X120985871Y-57172262D01*
X121009121Y-57172323D01*
X121079302Y-57138773D01*
X121127992Y-57078107D01*
X121138426Y-57033091D01*
X121145059Y-57004477D01*
X121145059Y-57004474D01*
X121145557Y-57002327D01*
X121145558Y-57001717D01*
X121128258Y-56925877D01*
X121079780Y-56865041D01*
X121024550Y-56838401D01*
X121013674Y-56833155D01*
X121009716Y-56831246D01*
X121005323Y-56831242D01*
X121005322Y-56831242D01*
X120971009Y-56831212D01*
X120931927Y-56831178D01*
X120861805Y-56864851D01*
X120813221Y-56925602D01*
X120812237Y-56929881D01*
X120796777Y-56997113D01*
X120795788Y-57001412D01*
X120802957Y-57033093D01*
X120797903Y-57062509D01*
X120773527Y-57079737D01*
X120764887Y-57080699D01*
X120741254Y-57080678D01*
X120671132Y-57114351D01*
X120622548Y-57175102D01*
X120621564Y-57179381D01*
X120610335Y-57228213D01*
X120605115Y-57250912D01*
X119925500Y-57250912D01*
X119925500Y-56194914D01*
X119936923Y-56167337D01*
X120633162Y-55471099D01*
X120660739Y-55459676D01*
X120688316Y-55471099D01*
G37*
%TD.AperFunction*%
%TA.AperFunction,Conductor*%
G36*
X124707024Y-53659748D02*
G01*
X124857453Y-53676765D01*
X124859928Y-53677126D01*
X125059048Y-53712699D01*
X125452292Y-53782953D01*
X125454721Y-53783467D01*
X126039122Y-53927058D01*
X126041521Y-53927731D01*
X126615481Y-54108478D01*
X126617815Y-54109295D01*
X126870307Y-54207002D01*
X127179034Y-54326471D01*
X127181336Y-54327448D01*
X127460109Y-54456438D01*
X127727462Y-54580145D01*
X127729679Y-54581258D01*
X127941472Y-54696279D01*
X128199879Y-54836616D01*
X128199879Y-55199998D01*
X130149381Y-57149500D01*
X129249203Y-57149500D01*
X129221626Y-57138077D01*
X128251923Y-56168373D01*
X128240500Y-56140796D01*
X128240500Y-55580848D01*
X128242703Y-55567927D01*
X128242879Y-55567426D01*
X128242879Y-55567424D01*
X128244334Y-55563281D01*
X128240739Y-55530975D01*
X128240500Y-55526663D01*
X128240500Y-55517397D01*
X128238508Y-55508664D01*
X128237771Y-55504309D01*
X128234703Y-55476733D01*
X128234703Y-55476732D01*
X128234217Y-55472367D01*
X128231442Y-55467934D01*
X128226476Y-55455918D01*
X128225312Y-55450815D01*
X128205285Y-55425683D01*
X128202737Y-55422086D01*
X128197884Y-55414334D01*
X128191352Y-55407802D01*
X128188429Y-55404530D01*
X128172053Y-55383980D01*
X128168305Y-55379276D01*
X128163673Y-55377042D01*
X128153044Y-55369494D01*
X127720659Y-54937109D01*
X127713079Y-54926413D01*
X127712850Y-54925936D01*
X127712849Y-54925935D01*
X127710948Y-54921976D01*
X127685563Y-54901675D01*
X127682345Y-54898795D01*
X127675792Y-54892242D01*
X127668211Y-54887477D01*
X127664607Y-54884916D01*
X127642938Y-54867587D01*
X127639508Y-54864844D01*
X127634412Y-54863672D01*
X127622400Y-54858684D01*
X127621692Y-54858239D01*
X127617972Y-54855901D01*
X127586029Y-54852290D01*
X127581691Y-54851548D01*
X127572781Y-54849500D01*
X127563543Y-54849500D01*
X127559162Y-54849253D01*
X127531440Y-54846119D01*
X127531439Y-54846119D01*
X127527076Y-54845626D01*
X127522224Y-54847320D01*
X127509368Y-54849500D01*
X126949203Y-54849500D01*
X126921626Y-54838077D01*
X126720659Y-54637109D01*
X126713079Y-54626413D01*
X126712850Y-54625936D01*
X126712849Y-54625935D01*
X126710948Y-54621976D01*
X126685563Y-54601675D01*
X126682345Y-54598795D01*
X126675792Y-54592242D01*
X126668211Y-54587477D01*
X126664607Y-54584916D01*
X126642938Y-54567587D01*
X126639508Y-54564844D01*
X126634412Y-54563672D01*
X126622400Y-54558684D01*
X126621692Y-54558239D01*
X126617972Y-54555901D01*
X126586029Y-54552290D01*
X126581691Y-54551548D01*
X126572781Y-54549500D01*
X126563543Y-54549500D01*
X126559162Y-54549253D01*
X126531440Y-54546119D01*
X126531439Y-54546119D01*
X126527076Y-54545626D01*
X126522224Y-54547320D01*
X126509368Y-54549500D01*
X125369204Y-54549500D01*
X125341627Y-54538077D01*
X124562330Y-53758780D01*
X124554750Y-53748084D01*
X124554521Y-53747607D01*
X124554520Y-53747606D01*
X124552619Y-53743647D01*
X124527234Y-53723346D01*
X124524016Y-53720466D01*
X124517463Y-53713913D01*
X124515532Y-53712699D01*
X124515512Y-53712670D01*
X124513899Y-53711384D01*
X124514270Y-53710919D01*
X124498266Y-53688350D01*
X124503275Y-53658924D01*
X124527624Y-53641658D01*
X124540674Y-53640930D01*
X124707024Y-53659748D01*
G37*
%TD.AperFunction*%
%TA.AperFunction,Conductor*%
G36*
X119516163Y-55064423D02*
G01*
X119527586Y-55092000D01*
X119516163Y-55119577D01*
X118885423Y-55750317D01*
X118884356Y-55751913D01*
X118884355Y-55751915D01*
X118846169Y-55809063D01*
X118846168Y-55809065D01*
X118844034Y-55812259D01*
X118843285Y-55816025D01*
X118843284Y-55816027D01*
X118833888Y-55863268D01*
X118823214Y-55883237D01*
X118809343Y-55897108D01*
X118795350Y-55905886D01*
X118791878Y-55906272D01*
X118787445Y-55909047D01*
X118775429Y-55914013D01*
X118770326Y-55915177D01*
X118751316Y-55930326D01*
X118745193Y-55935205D01*
X118741583Y-55937761D01*
X118735718Y-55941433D01*
X118735716Y-55941435D01*
X118733845Y-55942606D01*
X118727318Y-55949133D01*
X118724046Y-55952056D01*
X118698787Y-55972184D01*
X118696554Y-55976814D01*
X118689005Y-55987446D01*
X118525873Y-56150577D01*
X118498296Y-56162000D01*
X117905925Y-56162000D01*
X117878348Y-56150577D01*
X117866925Y-56123000D01*
X117873496Y-56101335D01*
X117891213Y-56074820D01*
X117905966Y-56052741D01*
X117906939Y-56047853D01*
X117921597Y-55974160D01*
X117925408Y-55955000D01*
X117924516Y-55950513D01*
X117921249Y-55934090D01*
X117920500Y-55926482D01*
X117920500Y-55919989D01*
X117931923Y-55892412D01*
X117959500Y-55880989D01*
X118403663Y-55880989D01*
X118416584Y-55883192D01*
X118417085Y-55883368D01*
X118417087Y-55883368D01*
X118421230Y-55884823D01*
X118453536Y-55881228D01*
X118457848Y-55880989D01*
X118467114Y-55880989D01*
X118475847Y-55878997D01*
X118480198Y-55878261D01*
X118494409Y-55876679D01*
X118507778Y-55875192D01*
X118507779Y-55875192D01*
X118512144Y-55874706D01*
X118516577Y-55871931D01*
X118528593Y-55866965D01*
X118533696Y-55865801D01*
X118558828Y-55845774D01*
X118562425Y-55843226D01*
X118570177Y-55838373D01*
X118576709Y-55831841D01*
X118579981Y-55828918D01*
X118586381Y-55823818D01*
X118605235Y-55808794D01*
X118607469Y-55804162D01*
X118615017Y-55793533D01*
X118979089Y-55429461D01*
X119344126Y-55064423D01*
X119371703Y-55053000D01*
X119488586Y-55053000D01*
X119516163Y-55064423D01*
G37*
%TD.AperFunction*%
%TA.AperFunction,Conductor*%
G36*
X119076039Y-54727645D02*
G01*
X119078185Y-54757417D01*
X119068751Y-54772699D01*
X118372884Y-55468566D01*
X118345307Y-55479989D01*
X117945596Y-55479989D01*
X117918019Y-55468566D01*
X117906596Y-55440989D01*
X117918019Y-55413412D01*
X117921769Y-55410113D01*
X117986233Y-55360381D01*
X117988242Y-55358932D01*
X118060463Y-55310266D01*
X118258801Y-55176615D01*
X118487257Y-55022669D01*
X118489375Y-55021338D01*
X118903202Y-54779529D01*
X119008936Y-54717746D01*
X119011133Y-54716555D01*
X119023697Y-54710257D01*
X119053469Y-54708111D01*
X119076039Y-54727645D01*
G37*
%TD.AperFunction*%
%TD*%
M02*
