%TF.GenerationSoftware,KiCad,Pcbnew,(6.0.0)*%
%TF.CreationDate,2022-03-02T03:39:50-08:00*%
%TF.ProjectId,headstage-64s,68656164-7374-4616-9765-2d3634732e6b,A*%
%TF.SameCoordinates,Original*%
%TF.FileFunction,Paste,Bot*%
%TF.FilePolarity,Positive*%
%FSLAX46Y46*%
G04 Gerber Fmt 4.6, Leading zero omitted, Abs format (unit mm)*
G04 Created by KiCad (PCBNEW (6.0.0)) date 2022-03-02 03:39:50*
%MOMM*%
%LPD*%
G01*
G04 APERTURE LIST*
G04 Aperture macros list*
%AMRoundRect*
0 Rectangle with rounded corners*
0 $1 Rounding radius*
0 $2 $3 $4 $5 $6 $7 $8 $9 X,Y pos of 4 corners*
0 Add a 4 corners polygon primitive as box body*
4,1,4,$2,$3,$4,$5,$6,$7,$8,$9,$2,$3,0*
0 Add four circle primitives for the rounded corners*
1,1,$1+$1,$2,$3*
1,1,$1+$1,$4,$5*
1,1,$1+$1,$6,$7*
1,1,$1+$1,$8,$9*
0 Add four rect primitives between the rounded corners*
20,1,$1+$1,$2,$3,$4,$5,0*
20,1,$1+$1,$4,$5,$6,$7,0*
20,1,$1+$1,$6,$7,$8,$9,0*
20,1,$1+$1,$8,$9,$2,$3,0*%
%AMFreePoly0*
4,1,6,0.350000,-0.250000,-0.225000,-0.250000,-0.350000,-0.125000,-0.350000,0.250000,0.350000,0.250000,0.350000,-0.250000,0.350000,-0.250000,$1*%
G04 Aperture macros list end*
%ADD10RoundRect,0.079500X-0.100500X0.079500X-0.100500X-0.079500X0.100500X-0.079500X0.100500X0.079500X0*%
%ADD11RoundRect,0.079500X0.014849X-0.127279X0.127279X-0.014849X-0.014849X0.127279X-0.127279X0.014849X0*%
%ADD12RoundRect,0.079500X-0.014849X0.127279X-0.127279X0.014849X0.014849X-0.127279X0.127279X-0.014849X0*%
%ADD13RoundRect,0.140000X0.170000X-0.140000X0.170000X0.140000X-0.170000X0.140000X-0.170000X-0.140000X0*%
%ADD14RoundRect,0.140000X0.140000X0.170000X-0.140000X0.170000X-0.140000X-0.170000X0.140000X-0.170000X0*%
%ADD15C,0.250000*%
%ADD16RoundRect,0.079500X0.079500X0.100500X-0.079500X0.100500X-0.079500X-0.100500X0.079500X-0.100500X0*%
%ADD17RoundRect,0.140000X-0.140000X-0.170000X0.140000X-0.170000X0.140000X0.170000X-0.140000X0.170000X0*%
%ADD18RoundRect,0.079500X-0.079500X-0.100500X0.079500X-0.100500X0.079500X0.100500X-0.079500X0.100500X0*%
%ADD19RoundRect,0.140000X-0.170000X0.140000X-0.170000X-0.140000X0.170000X-0.140000X0.170000X0.140000X0*%
%ADD20RoundRect,0.079500X0.100500X-0.079500X0.100500X0.079500X-0.100500X0.079500X-0.100500X-0.079500X0*%
%ADD21RoundRect,0.079500X0.127279X0.014849X0.014849X0.127279X-0.127279X-0.014849X-0.014849X-0.127279X0*%
%ADD22RoundRect,0.079500X-0.127279X-0.014849X-0.014849X-0.127279X0.127279X0.014849X0.014849X0.127279X0*%
%ADD23C,0.200000*%
%ADD24R,0.230000X0.660000*%
%ADD25R,0.350000X0.660000*%
%ADD26FreePoly0,0.000000*%
%ADD27R,0.700000X0.400000*%
G04 APERTURE END LIST*
%TO.C,U11*%
G36*
X128500000Y-56300000D02*
G01*
X128300000Y-56300000D01*
X128300000Y-56950000D01*
X128500000Y-56950000D01*
X128500000Y-56300000D01*
G37*
G36*
X128250000Y-58110000D02*
G01*
X127750000Y-58110000D01*
X127750000Y-57890000D01*
X128250000Y-57890000D01*
X128250000Y-58110000D01*
G37*
G36*
X127000000Y-56300000D02*
G01*
X126800000Y-56300000D01*
X126800000Y-56950000D01*
X127000000Y-56950000D01*
X127000000Y-56300000D01*
G37*
G36*
X127500000Y-59050000D02*
G01*
X127300000Y-59050000D01*
X127300000Y-59700000D01*
X127500000Y-59700000D01*
X127500000Y-59050000D01*
G37*
G36*
X127000000Y-59050000D02*
G01*
X126800000Y-59050000D01*
X126800000Y-59700000D01*
X127000000Y-59700000D01*
X127000000Y-59050000D01*
G37*
G36*
X127500000Y-56300000D02*
G01*
X127300000Y-56300000D01*
X127300000Y-56950000D01*
X127500000Y-56950000D01*
X127500000Y-56300000D01*
G37*
G36*
X128500000Y-59050000D02*
G01*
X128300000Y-59050000D01*
X128300000Y-59700000D01*
X128500000Y-59700000D01*
X128500000Y-59050000D01*
G37*
G36*
X128000000Y-59050000D02*
G01*
X127800000Y-59050000D01*
X127800000Y-59700000D01*
X128000000Y-59700000D01*
X128000000Y-59050000D01*
G37*
G36*
X128000000Y-56300000D02*
G01*
X127800000Y-56300000D01*
X127800000Y-56950000D01*
X128000000Y-56950000D01*
X128000000Y-56300000D01*
G37*
G36*
X127550000Y-58110000D02*
G01*
X127050000Y-58110000D01*
X127050000Y-57890000D01*
X127550000Y-57890000D01*
X127550000Y-58110000D01*
G37*
%TD*%
D10*
%TO.C,R13*%
X128800000Y-69555000D03*
X128800000Y-70245000D03*
%TD*%
D11*
%TO.C,L6*%
X116043952Y-66806048D03*
X115556048Y-67293952D03*
%TD*%
D10*
%TO.C,C43*%
X123030000Y-56745000D03*
X123030000Y-57435000D03*
%TD*%
D12*
%TO.C,C28*%
X116056048Y-67793952D03*
X116543952Y-67306048D03*
%TD*%
D13*
%TO.C,C52*%
X122225000Y-55530000D03*
X122225000Y-54570000D03*
%TD*%
D14*
%TO.C,C54*%
X121480000Y-59410000D03*
X120520000Y-59410000D03*
%TD*%
D15*
%TO.C,U2*%
X116000000Y-58500000D03*
X116000000Y-59000000D03*
X116000000Y-59500000D03*
X116500000Y-58500000D03*
X116500000Y-59000000D03*
X116500000Y-59500000D03*
X117000000Y-58500000D03*
X117000000Y-59000000D03*
X117000000Y-59500000D03*
%TD*%
D16*
%TO.C,R2*%
X123770000Y-54350000D03*
X123080000Y-54350000D03*
%TD*%
D17*
%TO.C,C55*%
X123900000Y-55500000D03*
X124860000Y-55500000D03*
%TD*%
D10*
%TO.C,L10*%
X119500000Y-58995000D03*
X119500000Y-58305000D03*
%TD*%
D16*
%TO.C,L13*%
X118770000Y-59500000D03*
X118080000Y-59500000D03*
%TD*%
D18*
%TO.C,R22*%
X125455000Y-58000000D03*
X126145000Y-58000000D03*
%TD*%
%TO.C,C45*%
X123055000Y-58400000D03*
X123745000Y-58400000D03*
%TD*%
D16*
%TO.C,L16*%
X118805000Y-55350000D03*
X119495000Y-55350000D03*
%TD*%
D17*
%TO.C,C23*%
X116520000Y-57350000D03*
X117480000Y-57350000D03*
%TD*%
D19*
%TO.C,C57*%
X120300000Y-57470000D03*
X120300000Y-58430000D03*
%TD*%
D16*
%TO.C,C49*%
X120970000Y-56600000D03*
X120280000Y-56600000D03*
%TD*%
D18*
%TO.C,C47*%
X123755000Y-56400000D03*
X124445000Y-56400000D03*
%TD*%
D19*
%TO.C,C51*%
X121250000Y-57470000D03*
X121250000Y-58430000D03*
%TD*%
D14*
%TO.C,C56*%
X121330000Y-55800000D03*
X120370000Y-55800000D03*
%TD*%
D20*
%TO.C,C44*%
X123050000Y-55945000D03*
X123050000Y-55255000D03*
%TD*%
D10*
%TO.C,C48*%
X122330000Y-57095000D03*
X122330000Y-56405000D03*
%TD*%
D15*
%TO.C,U1*%
X127500000Y-65000000D03*
X127000000Y-65000000D03*
X126500000Y-65000000D03*
X126000000Y-65000000D03*
X125500000Y-65000000D03*
X125000000Y-65000000D03*
X124500000Y-65000000D03*
X124000000Y-65000000D03*
X123500000Y-65000000D03*
X123000000Y-65000000D03*
X122500000Y-65000000D03*
X122000000Y-65000000D03*
X121500000Y-65000000D03*
X121000000Y-65000000D03*
X120500000Y-65000000D03*
X120000000Y-65000000D03*
X119500000Y-65000000D03*
X127500000Y-65500000D03*
X127000000Y-65500000D03*
X126500000Y-65500000D03*
X126000000Y-65500000D03*
X125500000Y-65500000D03*
X125000000Y-65500000D03*
X124500000Y-65500000D03*
X124000000Y-65500000D03*
X123500000Y-65500000D03*
X123000000Y-65500000D03*
X122500000Y-65500000D03*
X122000000Y-65500000D03*
X121500000Y-65500000D03*
X121000000Y-65500000D03*
X120500000Y-65500000D03*
X120000000Y-65500000D03*
X119500000Y-65500000D03*
X127500000Y-66000000D03*
X127000000Y-66000000D03*
X120000000Y-66000000D03*
X119500000Y-66000000D03*
X127500000Y-66500000D03*
X127000000Y-66500000D03*
X120000000Y-66500000D03*
X119500000Y-66500000D03*
X127500000Y-67000000D03*
X127000000Y-67000000D03*
X120000000Y-67000000D03*
X119500000Y-67000000D03*
X127500000Y-67500000D03*
X127000000Y-67500000D03*
X120000000Y-67500000D03*
X119500000Y-67500000D03*
X127500000Y-68000000D03*
X127000000Y-68000000D03*
X120000000Y-68000000D03*
X119500000Y-68000000D03*
X127500000Y-68500000D03*
X127000000Y-68500000D03*
X120000000Y-68500000D03*
X119500000Y-68500000D03*
X127500000Y-69000000D03*
X127000000Y-69000000D03*
X120000000Y-69000000D03*
X119500000Y-69000000D03*
X127500000Y-69500000D03*
X127000000Y-69500000D03*
X120000000Y-69500000D03*
X119500000Y-69500000D03*
X127500000Y-70000000D03*
X127000000Y-70000000D03*
X120000000Y-70000000D03*
X119500000Y-70000000D03*
X127500000Y-70500000D03*
X127000000Y-70500000D03*
X126500000Y-70500000D03*
X126000000Y-70500000D03*
X125500000Y-70500000D03*
X125000000Y-70500000D03*
X124500000Y-70500000D03*
X124000000Y-70500000D03*
X123500000Y-70500000D03*
X123000000Y-70500000D03*
X122500000Y-70500000D03*
X122000000Y-70500000D03*
X121500000Y-70500000D03*
X121000000Y-70500000D03*
X120500000Y-70500000D03*
X120000000Y-70500000D03*
X119500000Y-70500000D03*
X127500000Y-71000000D03*
X127000000Y-71000000D03*
X126500000Y-71000000D03*
X126000000Y-71000000D03*
X125500000Y-71000000D03*
X125000000Y-71000000D03*
X124500000Y-71000000D03*
X124000000Y-71000000D03*
X123500000Y-71000000D03*
X123000000Y-71000000D03*
X122500000Y-71000000D03*
X122000000Y-71000000D03*
X121500000Y-71000000D03*
X121000000Y-71000000D03*
X120500000Y-71000000D03*
X120000000Y-71000000D03*
X119500000Y-71000000D03*
%TD*%
D16*
%TO.C,R1*%
X125220000Y-54350000D03*
X124530000Y-54350000D03*
%TD*%
D20*
%TO.C,L12*%
X125000000Y-59005000D03*
X125000000Y-59695000D03*
%TD*%
D10*
%TO.C,C42*%
X129100000Y-56605000D03*
X129100000Y-57295000D03*
%TD*%
D16*
%TO.C,C58*%
X118720000Y-58350000D03*
X118030000Y-58350000D03*
%TD*%
D20*
%TO.C,L11*%
X121375000Y-54230000D03*
X121375000Y-54920000D03*
%TD*%
D21*
%TO.C,C30*%
X117043952Y-68943952D03*
X116556048Y-68456048D03*
%TD*%
D16*
%TO.C,L15*%
X119985000Y-54610000D03*
X120675000Y-54610000D03*
%TD*%
D22*
%TO.C,C19*%
X117756048Y-68481048D03*
X118243952Y-68968952D03*
%TD*%
D15*
%TO.C,U6*%
X129500000Y-59350000D03*
X130000000Y-59350000D03*
X130500000Y-59350000D03*
X129500000Y-58850000D03*
X130000000Y-58850000D03*
X130500000Y-58850000D03*
X129500000Y-58350000D03*
X130000000Y-58350000D03*
X130500000Y-58350000D03*
%TD*%
D17*
%TO.C,C53*%
X123120000Y-59250000D03*
X124080000Y-59250000D03*
%TD*%
D19*
%TO.C,C50*%
X124590000Y-57280000D03*
X124590000Y-58240000D03*
%TD*%
D23*
%TO.C,U13*%
X116852513Y-67850000D03*
X117100000Y-68097487D03*
X117100000Y-67602513D03*
X117347487Y-67850000D03*
%TD*%
D24*
%TO.C,J2*%
X130300000Y-63355000D03*
X130300000Y-60645000D03*
X129900000Y-63355000D03*
X129900000Y-60645000D03*
X129500000Y-63355000D03*
X129500000Y-60645000D03*
X129100000Y-63355000D03*
X129100000Y-60645000D03*
X128700000Y-63355000D03*
X128700000Y-60645000D03*
X128300000Y-63355000D03*
X128300000Y-60645000D03*
X127900000Y-63355000D03*
X127900000Y-60645000D03*
X127500000Y-63355000D03*
X127500000Y-60645000D03*
X127100000Y-63355000D03*
X127100000Y-60645000D03*
X126700000Y-63355000D03*
X126700000Y-60645000D03*
X126300000Y-63355000D03*
X126300000Y-60645000D03*
X125900000Y-63355000D03*
X125900000Y-60645000D03*
X125500000Y-63355000D03*
X125500000Y-60645000D03*
X125100000Y-63355000D03*
X125100000Y-60645000D03*
X124700000Y-63355000D03*
X124700000Y-60645000D03*
X124300000Y-63355000D03*
X124300000Y-60645000D03*
X123900000Y-63355000D03*
X123900000Y-60645000D03*
X123500000Y-63355000D03*
X123500000Y-60645000D03*
X123100000Y-63355000D03*
X123100000Y-60645000D03*
X122700000Y-63355000D03*
X122700000Y-60645000D03*
X122300000Y-63355000D03*
X122300000Y-60645000D03*
X121900000Y-63355000D03*
X121900000Y-60645000D03*
X121500000Y-63355000D03*
X121500000Y-60645000D03*
X121100000Y-63355000D03*
X121100000Y-60645000D03*
X120700000Y-63355000D03*
X120700000Y-60645000D03*
X120300000Y-63355000D03*
X120300000Y-60645000D03*
X119900000Y-63355000D03*
X119900000Y-60645000D03*
X119500000Y-63355000D03*
X119500000Y-60645000D03*
X119100000Y-63355000D03*
X119100000Y-60645000D03*
X118700000Y-63355000D03*
X118700000Y-60645000D03*
X118300000Y-63355000D03*
X118300000Y-60645000D03*
X117900000Y-63355000D03*
X117900000Y-60645000D03*
X117500000Y-63355000D03*
X117500000Y-60645000D03*
X117100000Y-63355000D03*
X117100000Y-60645000D03*
X116700000Y-63355000D03*
X116700000Y-60645000D03*
D25*
X130775000Y-63355000D03*
X130775000Y-60645000D03*
X116225000Y-63355000D03*
X116225000Y-60645000D03*
%TD*%
D21*
%TO.C,C22*%
X118018952Y-70143952D03*
X117531048Y-69656048D03*
%TD*%
D26*
%TO.C,U12*%
X118350000Y-57575000D03*
D27*
X118350000Y-56075000D03*
X119300000Y-56075000D03*
X119300000Y-57625000D03*
%TD*%
D18*
%TO.C,L14*%
X125845000Y-56500000D03*
X125155000Y-56500000D03*
%TD*%
%TO.C,R21*%
X126145000Y-57300000D03*
X125455000Y-57300000D03*
%TD*%
D10*
%TO.C,C46*%
X122300000Y-59035000D03*
X122300000Y-58345000D03*
%TD*%
M02*
