%TF.GenerationSoftware,KiCad,Pcbnew,(6.0.0)*%
%TF.CreationDate,2022-03-02T03:39:50-08:00*%
%TF.ProjectId,headstage-64s,68656164-7374-4616-9765-2d3634732e6b,A*%
%TF.SameCoordinates,Original*%
%TF.FileFunction,Legend,Top*%
%TF.FilePolarity,Positive*%
%FSLAX46Y46*%
G04 Gerber Fmt 4.6, Leading zero omitted, Abs format (unit mm)*
G04 Created by KiCad (PCBNEW (6.0.0)) date 2022-03-02 03:39:50*
%MOMM*%
%LPD*%
G01*
G04 APERTURE LIST*
%ADD10C,0.120000*%
%ADD11C,0.200000*%
%ADD12C,0.125000*%
%ADD13C,0.150000*%
G04 APERTURE END LIST*
D10*
X129280000Y-59100000D02*
X129280000Y-60100000D01*
X124130000Y-59560000D02*
G75*
G03*
X124130000Y-59560000I-400000J0D01*
G01*
X120700000Y-60100000D02*
X120700000Y-59100000D01*
X125675000Y-60100000D02*
X129280000Y-60100000D01*
X121590000Y-59570000D02*
G75*
G03*
X121590000Y-59570000I-400000J0D01*
G01*
X123650000Y-60100000D02*
X123110000Y-60100000D01*
X121300000Y-60100000D02*
X120700000Y-60100000D01*
X124900000Y-59100000D02*
X129280000Y-59100000D01*
D11*
X128225236Y-46952380D02*
X127653808Y-46952380D01*
X127939522Y-46952380D02*
X127939522Y-45952380D01*
X127844284Y-46095238D01*
X127749046Y-46190476D01*
X127653808Y-46238095D01*
X128653808Y-46857142D02*
X128701427Y-46904761D01*
X128653808Y-46952380D01*
X128606189Y-46904761D01*
X128653808Y-46857142D01*
X128653808Y-46952380D01*
X129272855Y-46380952D02*
X129177617Y-46333333D01*
X129129998Y-46285714D01*
X129082379Y-46190476D01*
X129082379Y-46142857D01*
X129129998Y-46047619D01*
X129177617Y-46000000D01*
X129272855Y-45952380D01*
X129463332Y-45952380D01*
X129558570Y-46000000D01*
X129606189Y-46047619D01*
X129653808Y-46142857D01*
X129653808Y-46190476D01*
X129606189Y-46285714D01*
X129558570Y-46333333D01*
X129463332Y-46380952D01*
X129272855Y-46380952D01*
X129177617Y-46428571D01*
X129129998Y-46476190D01*
X129082379Y-46571428D01*
X129082379Y-46761904D01*
X129129998Y-46857142D01*
X129177617Y-46904761D01*
X129272855Y-46952380D01*
X129463332Y-46952380D01*
X129558570Y-46904761D01*
X129606189Y-46857142D01*
X129653808Y-46761904D01*
X129653808Y-46571428D01*
X129606189Y-46476190D01*
X129558570Y-46428571D01*
X129463332Y-46380952D01*
X129939522Y-45952380D02*
X130272855Y-46952380D01*
X130606189Y-45952380D01*
X116844285Y-46952380D02*
X116844285Y-45952380D01*
X117415713Y-46952380D01*
X117415713Y-45952380D01*
X118463332Y-46857142D02*
X118415713Y-46904761D01*
X118272856Y-46952380D01*
X118177618Y-46952380D01*
X118034761Y-46904761D01*
X117939523Y-46809523D01*
X117891904Y-46714285D01*
X117844285Y-46523809D01*
X117844285Y-46380952D01*
X117891904Y-46190476D01*
X117939523Y-46095238D01*
X118034761Y-46000000D01*
X118177618Y-45952380D01*
X118272856Y-45952380D01*
X118415713Y-46000000D01*
X118463332Y-46047619D01*
X122082380Y-45810000D02*
X123082380Y-45810000D01*
X122891903Y-46997142D02*
X122844284Y-47044761D01*
X122701427Y-47092380D01*
X122606189Y-47092380D01*
X122463332Y-47044761D01*
X122368094Y-46949523D01*
X122320475Y-46854285D01*
X122272856Y-46663809D01*
X122272856Y-46520952D01*
X122320475Y-46330476D01*
X122368094Y-46235238D01*
X122463332Y-46140000D01*
X122606189Y-46092380D01*
X122701427Y-46092380D01*
X122844284Y-46140000D01*
X122891903Y-46187619D01*
X123082380Y-45810000D02*
X124034760Y-45810000D01*
X123272856Y-47044761D02*
X123415713Y-47092380D01*
X123653808Y-47092380D01*
X123749046Y-47044761D01*
X123796665Y-46997142D01*
X123844284Y-46901904D01*
X123844284Y-46806666D01*
X123796665Y-46711428D01*
X123749046Y-46663809D01*
X123653808Y-46616190D01*
X123463332Y-46568571D01*
X123368094Y-46520952D01*
X123320475Y-46473333D01*
X123272856Y-46378095D01*
X123272856Y-46282857D01*
X123320475Y-46187619D01*
X123368094Y-46140000D01*
X123463332Y-46092380D01*
X123701427Y-46092380D01*
X123844284Y-46140000D01*
X134891904Y-46000000D02*
X134796666Y-45952380D01*
X134653809Y-45952380D01*
X134510952Y-46000000D01*
X134415714Y-46095238D01*
X134368095Y-46190476D01*
X134320476Y-46380952D01*
X134320476Y-46523809D01*
X134368095Y-46714285D01*
X134415714Y-46809523D01*
X134510952Y-46904761D01*
X134653809Y-46952380D01*
X134749047Y-46952380D01*
X134891904Y-46904761D01*
X134939523Y-46857142D01*
X134939523Y-46523809D01*
X134749047Y-46523809D01*
X135368095Y-46952380D02*
X135368095Y-45952380D01*
X135939523Y-46952380D01*
X135939523Y-45952380D01*
X136415714Y-46952380D02*
X136415714Y-45952380D01*
X136653809Y-45952380D01*
X136796666Y-46000000D01*
X136891904Y-46095238D01*
X136939523Y-46190476D01*
X136987142Y-46380952D01*
X136987142Y-46523809D01*
X136939523Y-46714285D01*
X136891904Y-46809523D01*
X136796666Y-46904761D01*
X136653809Y-46952380D01*
X136415714Y-46952380D01*
D12*
X124251428Y-60446190D02*
X123965714Y-60446190D01*
X124108571Y-60446190D02*
X124108571Y-59946190D01*
X124060952Y-60017619D01*
X124013333Y-60065238D01*
X123965714Y-60089047D01*
X124465714Y-60398571D02*
X124489523Y-60422380D01*
X124465714Y-60446190D01*
X124441904Y-60422380D01*
X124465714Y-60398571D01*
X124465714Y-60446190D01*
X124775238Y-60160476D02*
X124727619Y-60136666D01*
X124703809Y-60112857D01*
X124680000Y-60065238D01*
X124680000Y-60041428D01*
X124703809Y-59993809D01*
X124727619Y-59970000D01*
X124775238Y-59946190D01*
X124870476Y-59946190D01*
X124918095Y-59970000D01*
X124941904Y-59993809D01*
X124965714Y-60041428D01*
X124965714Y-60065238D01*
X124941904Y-60112857D01*
X124918095Y-60136666D01*
X124870476Y-60160476D01*
X124775238Y-60160476D01*
X124727619Y-60184285D01*
X124703809Y-60208095D01*
X124680000Y-60255714D01*
X124680000Y-60350952D01*
X124703809Y-60398571D01*
X124727619Y-60422380D01*
X124775238Y-60446190D01*
X124870476Y-60446190D01*
X124918095Y-60422380D01*
X124941904Y-60398571D01*
X124965714Y-60350952D01*
X124965714Y-60255714D01*
X124941904Y-60208095D01*
X124918095Y-60184285D01*
X124870476Y-60160476D01*
X125108571Y-59946190D02*
X125275238Y-60446190D01*
X125441904Y-59946190D01*
D11*
X135012857Y-31647380D02*
X135012857Y-30647380D01*
X135250952Y-30647380D01*
X135393809Y-30695000D01*
X135489047Y-30790238D01*
X135536666Y-30885476D01*
X135584285Y-31075952D01*
X135584285Y-31218809D01*
X135536666Y-31409285D01*
X135489047Y-31504523D01*
X135393809Y-31599761D01*
X135250952Y-31647380D01*
X135012857Y-31647380D01*
X136203333Y-30647380D02*
X136393809Y-30647380D01*
X136489047Y-30695000D01*
X136584285Y-30790238D01*
X136631904Y-30980714D01*
X136631904Y-31314047D01*
X136584285Y-31504523D01*
X136489047Y-31599761D01*
X136393809Y-31647380D01*
X136203333Y-31647380D01*
X136108095Y-31599761D01*
X136012857Y-31504523D01*
X135965238Y-31314047D01*
X135965238Y-30980714D01*
X136012857Y-30790238D01*
X136108095Y-30695000D01*
X136203333Y-30647380D01*
X137774761Y-30599761D02*
X136917619Y-31885476D01*
X134393809Y-32257380D02*
X134965238Y-32257380D01*
X134679523Y-33257380D02*
X134679523Y-32257380D01*
X135870000Y-33162142D02*
X135822380Y-33209761D01*
X135679523Y-33257380D01*
X135584285Y-33257380D01*
X135441428Y-33209761D01*
X135346190Y-33114523D01*
X135298571Y-33019285D01*
X135250952Y-32828809D01*
X135250952Y-32685952D01*
X135298571Y-32495476D01*
X135346190Y-32400238D01*
X135441428Y-32305000D01*
X135584285Y-32257380D01*
X135679523Y-32257380D01*
X135822380Y-32305000D01*
X135870000Y-32352619D01*
X136774761Y-33257380D02*
X136298571Y-33257380D01*
X136298571Y-32257380D01*
X137108095Y-33257380D02*
X137108095Y-32257380D01*
X137679523Y-33257380D02*
X137250952Y-32685952D01*
X137679523Y-32257380D02*
X137108095Y-32828809D01*
X108647380Y-40666666D02*
X109361666Y-40666666D01*
X109504523Y-40714285D01*
X109599761Y-40809523D01*
X109647380Y-40952380D01*
X109647380Y-41047619D01*
X108647380Y-40333333D02*
X108647380Y-39761904D01*
X109647380Y-40047619D02*
X108647380Y-40047619D01*
X109361666Y-39476190D02*
X109361666Y-39000000D01*
X109647380Y-39571428D02*
X108647380Y-39238095D01*
X109647380Y-38904761D01*
X108695000Y-38047619D02*
X108647380Y-38142857D01*
X108647380Y-38285714D01*
X108695000Y-38428571D01*
X108790238Y-38523809D01*
X108885476Y-38571428D01*
X109075952Y-38619047D01*
X109218809Y-38619047D01*
X109409285Y-38571428D01*
X109504523Y-38523809D01*
X109599761Y-38428571D01*
X109647380Y-38285714D01*
X109647380Y-38190476D01*
X109599761Y-38047619D01*
X109552142Y-38000000D01*
X109218809Y-38000000D01*
X109218809Y-38190476D01*
X111257380Y-40666666D02*
X111257380Y-40714285D01*
X111209761Y-40809523D01*
X111066904Y-40952380D01*
X110781190Y-41190476D01*
X110638333Y-41285714D01*
X110495476Y-41333333D01*
X110400238Y-41333333D01*
X110305000Y-41285714D01*
X110257380Y-41190476D01*
X110257380Y-41142857D01*
X110305000Y-41047619D01*
X110400238Y-41000000D01*
X110447857Y-41000000D01*
X110543095Y-41047619D01*
X110590714Y-41095238D01*
X110781190Y-41380952D01*
X110828809Y-41428571D01*
X110924047Y-41476190D01*
X111066904Y-41476190D01*
X111162142Y-41428571D01*
X111209761Y-41380952D01*
X111257380Y-41285714D01*
X111257380Y-41142857D01*
X111209761Y-41047619D01*
X111162142Y-41000000D01*
X110971666Y-40857142D01*
X110828809Y-40809523D01*
X110733571Y-40809523D01*
X111209761Y-39523809D02*
X111257380Y-39380952D01*
X111257380Y-39142857D01*
X111209761Y-39047619D01*
X111162142Y-39000000D01*
X111066904Y-38952380D01*
X110971666Y-38952380D01*
X110876428Y-39000000D01*
X110828809Y-39047619D01*
X110781190Y-39142857D01*
X110733571Y-39333333D01*
X110685952Y-39428571D01*
X110638333Y-39476190D01*
X110543095Y-39523809D01*
X110447857Y-39523809D01*
X110352619Y-39476190D01*
X110305000Y-39428571D01*
X110257380Y-39333333D01*
X110257380Y-39095238D01*
X110305000Y-38952380D01*
X111257380Y-38523809D02*
X110257380Y-38523809D01*
X110257380Y-38142857D01*
X110305000Y-38047619D01*
X110352619Y-38000000D01*
X110447857Y-37952380D01*
X110590714Y-37952380D01*
X110685952Y-38000000D01*
X110733571Y-38047619D01*
X110781190Y-38142857D01*
X110781190Y-38523809D01*
X111257380Y-37523809D02*
X110257380Y-37523809D01*
D12*
X121819047Y-59960000D02*
X121771428Y-59936190D01*
X121700000Y-59936190D01*
X121628571Y-59960000D01*
X121580952Y-60007619D01*
X121557142Y-60055238D01*
X121533333Y-60150476D01*
X121533333Y-60221904D01*
X121557142Y-60317142D01*
X121580952Y-60364761D01*
X121628571Y-60412380D01*
X121700000Y-60436190D01*
X121747619Y-60436190D01*
X121819047Y-60412380D01*
X121842857Y-60388571D01*
X121842857Y-60221904D01*
X121747619Y-60221904D01*
X122057142Y-60436190D02*
X122057142Y-59936190D01*
X122342857Y-60436190D01*
X122342857Y-59936190D01*
X122580952Y-60436190D02*
X122580952Y-59936190D01*
X122700000Y-59936190D01*
X122771428Y-59960000D01*
X122819047Y-60007619D01*
X122842857Y-60055238D01*
X122866666Y-60150476D01*
X122866666Y-60221904D01*
X122842857Y-60317142D01*
X122819047Y-60364761D01*
X122771428Y-60412380D01*
X122700000Y-60436190D01*
X122580952Y-60436190D01*
D11*
X116106904Y-32452380D02*
X116106904Y-31452380D01*
X116678332Y-32452380D01*
X116678332Y-31452380D01*
X117725951Y-32357142D02*
X117678332Y-32404761D01*
X117535475Y-32452380D01*
X117440237Y-32452380D01*
X117297380Y-32404761D01*
X117202142Y-32309523D01*
X117154523Y-32214285D01*
X117106904Y-32023809D01*
X117106904Y-31880952D01*
X117154523Y-31690476D01*
X117202142Y-31595238D01*
X117297380Y-31500000D01*
X117440237Y-31452380D01*
X117535475Y-31452380D01*
X117678332Y-31500000D01*
X117725951Y-31547619D01*
X110891904Y-46000000D02*
X110796666Y-45952380D01*
X110653809Y-45952380D01*
X110510952Y-46000000D01*
X110415714Y-46095238D01*
X110368095Y-46190476D01*
X110320476Y-46380952D01*
X110320476Y-46523809D01*
X110368095Y-46714285D01*
X110415714Y-46809523D01*
X110510952Y-46904761D01*
X110653809Y-46952380D01*
X110749047Y-46952380D01*
X110891904Y-46904761D01*
X110939523Y-46857142D01*
X110939523Y-46523809D01*
X110749047Y-46523809D01*
X111368095Y-46952380D02*
X111368095Y-45952380D01*
X111939523Y-46952380D01*
X111939523Y-45952380D01*
X112415714Y-46952380D02*
X112415714Y-45952380D01*
X112653809Y-45952380D01*
X112796666Y-46000000D01*
X112891904Y-46095238D01*
X112939523Y-46190476D01*
X112987142Y-46380952D01*
X112987142Y-46523809D01*
X112939523Y-46714285D01*
X112891904Y-46809523D01*
X112796666Y-46904761D01*
X112653809Y-46952380D01*
X112415714Y-46952380D01*
D13*
X104880952Y-75342380D02*
X104880952Y-74342380D01*
X104880952Y-74818571D02*
X105452380Y-74818571D01*
X105452380Y-75342380D02*
X105452380Y-74342380D01*
X106309523Y-75294761D02*
X106214285Y-75342380D01*
X106023809Y-75342380D01*
X105928571Y-75294761D01*
X105880952Y-75199523D01*
X105880952Y-74818571D01*
X105928571Y-74723333D01*
X106023809Y-74675714D01*
X106214285Y-74675714D01*
X106309523Y-74723333D01*
X106357142Y-74818571D01*
X106357142Y-74913809D01*
X105880952Y-75009047D01*
X107214285Y-75342380D02*
X107214285Y-74818571D01*
X107166666Y-74723333D01*
X107071428Y-74675714D01*
X106880952Y-74675714D01*
X106785714Y-74723333D01*
X107214285Y-75294761D02*
X107119047Y-75342380D01*
X106880952Y-75342380D01*
X106785714Y-75294761D01*
X106738095Y-75199523D01*
X106738095Y-75104285D01*
X106785714Y-75009047D01*
X106880952Y-74961428D01*
X107119047Y-74961428D01*
X107214285Y-74913809D01*
X108119047Y-75342380D02*
X108119047Y-74342380D01*
X108119047Y-75294761D02*
X108023809Y-75342380D01*
X107833333Y-75342380D01*
X107738095Y-75294761D01*
X107690476Y-75247142D01*
X107642857Y-75151904D01*
X107642857Y-74866190D01*
X107690476Y-74770952D01*
X107738095Y-74723333D01*
X107833333Y-74675714D01*
X108023809Y-74675714D01*
X108119047Y-74723333D01*
X108547619Y-75294761D02*
X108642857Y-75342380D01*
X108833333Y-75342380D01*
X108928571Y-75294761D01*
X108976190Y-75199523D01*
X108976190Y-75151904D01*
X108928571Y-75056666D01*
X108833333Y-75009047D01*
X108690476Y-75009047D01*
X108595238Y-74961428D01*
X108547619Y-74866190D01*
X108547619Y-74818571D01*
X108595238Y-74723333D01*
X108690476Y-74675714D01*
X108833333Y-74675714D01*
X108928571Y-74723333D01*
X109261904Y-74675714D02*
X109642857Y-74675714D01*
X109404761Y-74342380D02*
X109404761Y-75199523D01*
X109452380Y-75294761D01*
X109547619Y-75342380D01*
X109642857Y-75342380D01*
X110404761Y-75342380D02*
X110404761Y-74818571D01*
X110357142Y-74723333D01*
X110261904Y-74675714D01*
X110071428Y-74675714D01*
X109976190Y-74723333D01*
X110404761Y-75294761D02*
X110309523Y-75342380D01*
X110071428Y-75342380D01*
X109976190Y-75294761D01*
X109928571Y-75199523D01*
X109928571Y-75104285D01*
X109976190Y-75009047D01*
X110071428Y-74961428D01*
X110309523Y-74961428D01*
X110404761Y-74913809D01*
X111309523Y-74675714D02*
X111309523Y-75485238D01*
X111261904Y-75580476D01*
X111214285Y-75628095D01*
X111119047Y-75675714D01*
X110976190Y-75675714D01*
X110880952Y-75628095D01*
X111309523Y-75294761D02*
X111214285Y-75342380D01*
X111023809Y-75342380D01*
X110928571Y-75294761D01*
X110880952Y-75247142D01*
X110833333Y-75151904D01*
X110833333Y-74866190D01*
X110880952Y-74770952D01*
X110928571Y-74723333D01*
X111023809Y-74675714D01*
X111214285Y-74675714D01*
X111309523Y-74723333D01*
X112166666Y-75294761D02*
X112071428Y-75342380D01*
X111880952Y-75342380D01*
X111785714Y-75294761D01*
X111738095Y-75199523D01*
X111738095Y-74818571D01*
X111785714Y-74723333D01*
X111880952Y-74675714D01*
X112071428Y-74675714D01*
X112166666Y-74723333D01*
X112214285Y-74818571D01*
X112214285Y-74913809D01*
X111738095Y-75009047D01*
X112642857Y-74961428D02*
X113404761Y-74961428D01*
X114309523Y-74342380D02*
X114119047Y-74342380D01*
X114023809Y-74390000D01*
X113976190Y-74437619D01*
X113880952Y-74580476D01*
X113833333Y-74770952D01*
X113833333Y-75151904D01*
X113880952Y-75247142D01*
X113928571Y-75294761D01*
X114023809Y-75342380D01*
X114214285Y-75342380D01*
X114309523Y-75294761D01*
X114357142Y-75247142D01*
X114404761Y-75151904D01*
X114404761Y-74913809D01*
X114357142Y-74818571D01*
X114309523Y-74770952D01*
X114214285Y-74723333D01*
X114023809Y-74723333D01*
X113928571Y-74770952D01*
X113880952Y-74818571D01*
X113833333Y-74913809D01*
X115261904Y-74675714D02*
X115261904Y-75342380D01*
X115023809Y-74294761D02*
X114785714Y-75009047D01*
X115404761Y-75009047D01*
X115738095Y-75294761D02*
X115833333Y-75342380D01*
X116023809Y-75342380D01*
X116119047Y-75294761D01*
X116166666Y-75199523D01*
X116166666Y-75151904D01*
X116119047Y-75056666D01*
X116023809Y-75009047D01*
X115880952Y-75009047D01*
X115785714Y-74961428D01*
X115738095Y-74866190D01*
X115738095Y-74818571D01*
X115785714Y-74723333D01*
X115880952Y-74675714D01*
X116023809Y-74675714D01*
X116119047Y-74723333D01*
X108952380Y-76952380D02*
X108619047Y-76476190D01*
X108380952Y-76952380D02*
X108380952Y-75952380D01*
X108761904Y-75952380D01*
X108857142Y-76000000D01*
X108904761Y-76047619D01*
X108952380Y-76142857D01*
X108952380Y-76285714D01*
X108904761Y-76380952D01*
X108857142Y-76428571D01*
X108761904Y-76476190D01*
X108380952Y-76476190D01*
X109761904Y-76904761D02*
X109666666Y-76952380D01*
X109476190Y-76952380D01*
X109380952Y-76904761D01*
X109333333Y-76809523D01*
X109333333Y-76428571D01*
X109380952Y-76333333D01*
X109476190Y-76285714D01*
X109666666Y-76285714D01*
X109761904Y-76333333D01*
X109809523Y-76428571D01*
X109809523Y-76523809D01*
X109333333Y-76619047D01*
X110142857Y-76285714D02*
X110380952Y-76952380D01*
X110619047Y-76285714D01*
X111000000Y-76857142D02*
X111047619Y-76904761D01*
X111000000Y-76952380D01*
X110952380Y-76904761D01*
X111000000Y-76857142D01*
X111000000Y-76952380D01*
X112190476Y-76666666D02*
X112666666Y-76666666D01*
X112095238Y-76952380D02*
X112428571Y-75952380D01*
X112761904Y-76952380D01*
X108047619Y-77562380D02*
X108047619Y-78276666D01*
X108000000Y-78419523D01*
X107904761Y-78514761D01*
X107761904Y-78562380D01*
X107666666Y-78562380D01*
X108523809Y-78562380D02*
X108523809Y-77562380D01*
X108904761Y-77562380D01*
X109000000Y-77610000D01*
X109047619Y-77657619D01*
X109095238Y-77752857D01*
X109095238Y-77895714D01*
X109047619Y-77990952D01*
X109000000Y-78038571D01*
X108904761Y-78086190D01*
X108523809Y-78086190D01*
X109523809Y-78562380D02*
X109523809Y-77562380D01*
X110095238Y-78562380D01*
X110095238Y-77562380D01*
X111380952Y-77562380D02*
X111285714Y-77752857D01*
X111761904Y-77657619D02*
X111809523Y-77610000D01*
X111904761Y-77562380D01*
X112142857Y-77562380D01*
X112238095Y-77610000D01*
X112285714Y-77657619D01*
X112333333Y-77752857D01*
X112333333Y-77848095D01*
X112285714Y-77990952D01*
X111714285Y-78562380D01*
X112333333Y-78562380D01*
X112714285Y-77657619D02*
X112761904Y-77610000D01*
X112857142Y-77562380D01*
X113095238Y-77562380D01*
X113190476Y-77610000D01*
X113238095Y-77657619D01*
X113285714Y-77752857D01*
X113285714Y-77848095D01*
X113238095Y-77990952D01*
X112666666Y-78562380D01*
X113285714Y-78562380D01*
D11*
X121824760Y-31647380D02*
X121824760Y-30647380D01*
X122062855Y-30647380D01*
X122205713Y-30695000D01*
X122300951Y-30790238D01*
X122348570Y-30885476D01*
X122396189Y-31075952D01*
X122396189Y-31218809D01*
X122348570Y-31409285D01*
X122300951Y-31504523D01*
X122205713Y-31599761D01*
X122062855Y-31647380D01*
X121824760Y-31647380D01*
X122824760Y-31647380D02*
X122824760Y-30647380D01*
X124015236Y-30599761D02*
X123158094Y-31885476D01*
X121348570Y-32257380D02*
X121919998Y-32257380D01*
X121634284Y-33257380D02*
X121634284Y-32257380D01*
X122253332Y-33257380D02*
X122253332Y-32257380D01*
X122586665Y-32971666D01*
X122919998Y-32257380D01*
X122919998Y-33257380D01*
X123348570Y-33209761D02*
X123491427Y-33257380D01*
X123729522Y-33257380D01*
X123824760Y-33209761D01*
X123872379Y-33162142D01*
X123919998Y-33066904D01*
X123919998Y-32971666D01*
X123872379Y-32876428D01*
X123824760Y-32828809D01*
X123729522Y-32781190D01*
X123539046Y-32733571D01*
X123443808Y-32685952D01*
X123396189Y-32638333D01*
X123348570Y-32543095D01*
X123348570Y-32447857D01*
X123396189Y-32352619D01*
X123443808Y-32305000D01*
X123539046Y-32257380D01*
X123777141Y-32257380D01*
X123919998Y-32305000D01*
X127533093Y-31599761D02*
X127675950Y-31647380D01*
X127914045Y-31647380D01*
X128009283Y-31599761D01*
X128056902Y-31552142D01*
X128104522Y-31456904D01*
X128104522Y-31361666D01*
X128056902Y-31266428D01*
X128009283Y-31218809D01*
X127914045Y-31171190D01*
X127723569Y-31123571D01*
X127628331Y-31075952D01*
X127580712Y-31028333D01*
X127533093Y-30933095D01*
X127533093Y-30837857D01*
X127580712Y-30742619D01*
X127628331Y-30695000D01*
X127723569Y-30647380D01*
X127961664Y-30647380D01*
X128104522Y-30695000D01*
X129104522Y-31552142D02*
X129056902Y-31599761D01*
X128914045Y-31647380D01*
X128818807Y-31647380D01*
X128675950Y-31599761D01*
X128580712Y-31504523D01*
X128533093Y-31409285D01*
X128485474Y-31218809D01*
X128485474Y-31075952D01*
X128533093Y-30885476D01*
X128580712Y-30790238D01*
X128675950Y-30695000D01*
X128818807Y-30647380D01*
X128914045Y-30647380D01*
X129056902Y-30695000D01*
X129104522Y-30742619D01*
X130009283Y-31647380D02*
X129533093Y-31647380D01*
X129533093Y-30647380D01*
X130342617Y-31647380D02*
X130342617Y-30647380D01*
X130914045Y-31647380D02*
X130485474Y-31075952D01*
X130914045Y-30647380D02*
X130342617Y-31218809D01*
X128199760Y-32209761D02*
X127342617Y-33495476D01*
X128390236Y-32257380D02*
X128961664Y-32257380D01*
X128675950Y-33257380D02*
X128675950Y-32257380D01*
X129294998Y-33257380D02*
X129294998Y-32257380D01*
X129533093Y-32257380D01*
X129675950Y-32305000D01*
X129771188Y-32400238D01*
X129818807Y-32495476D01*
X129866426Y-32685952D01*
X129866426Y-32828809D01*
X129818807Y-33019285D01*
X129771188Y-33114523D01*
X129675950Y-33209761D01*
X129533093Y-33257380D01*
X129294998Y-33257380D01*
X130485474Y-32257380D02*
X130675950Y-32257380D01*
X130771188Y-32305000D01*
X130866426Y-32400238D01*
X130914045Y-32590714D01*
X130914045Y-32924047D01*
X130866426Y-33114523D01*
X130771188Y-33209761D01*
X130675950Y-33257380D01*
X130485474Y-33257380D01*
X130390236Y-33209761D01*
X130294998Y-33114523D01*
X130247379Y-32924047D01*
X130247379Y-32590714D01*
X130294998Y-32400238D01*
X130390236Y-32305000D01*
X130485474Y-32257380D01*
X110227142Y-31452380D02*
X110798571Y-31452380D01*
X110512857Y-32452380D02*
X110512857Y-31452380D01*
X111131904Y-32452380D02*
X111131904Y-31452380D01*
X111370000Y-31452380D01*
X111512857Y-31500000D01*
X111608095Y-31595238D01*
X111655714Y-31690476D01*
X111703333Y-31880952D01*
X111703333Y-32023809D01*
X111655714Y-32214285D01*
X111608095Y-32309523D01*
X111512857Y-32404761D01*
X111370000Y-32452380D01*
X111131904Y-32452380D01*
X112131904Y-32452380D02*
X112131904Y-31452380D01*
D12*
X126340297Y-55156190D02*
X126340297Y-54656190D01*
X126673630Y-54656190D02*
X126768869Y-54656190D01*
X126816488Y-54680000D01*
X126864107Y-54727619D01*
X126887916Y-54822857D01*
X126887916Y-54989523D01*
X126864107Y-55084761D01*
X126816488Y-55132380D01*
X126768869Y-55156190D01*
X126673630Y-55156190D01*
X126626011Y-55132380D01*
X126578392Y-55084761D01*
X126554583Y-54989523D01*
X126554583Y-54822857D01*
X126578392Y-54727619D01*
X126626011Y-54680000D01*
X126673630Y-54656190D01*
X127287916Y-55210952D02*
X127059345Y-55210952D01*
X127173630Y-55210952D02*
X127173630Y-54810952D01*
X127135535Y-54868095D01*
X127097440Y-54906190D01*
X127059345Y-54925238D01*
X127943154Y-60276190D02*
X127943154Y-60633333D01*
X127919345Y-60704761D01*
X127871726Y-60752380D01*
X127800297Y-60776190D01*
X127752678Y-60776190D01*
X128109821Y-60276190D02*
X128395535Y-60276190D01*
X128252678Y-60776190D02*
X128252678Y-60276190D01*
X128538392Y-60633333D02*
X128776488Y-60633333D01*
X128490773Y-60776190D02*
X128657440Y-60276190D01*
X128824107Y-60776190D01*
X129252678Y-60300000D02*
X129205059Y-60276190D01*
X129133630Y-60276190D01*
X129062202Y-60300000D01*
X129014583Y-60347619D01*
X128990773Y-60395238D01*
X128966964Y-60490476D01*
X128966964Y-60561904D01*
X128990773Y-60657142D01*
X129014583Y-60704761D01*
X129062202Y-60752380D01*
X129133630Y-60776190D01*
X129181250Y-60776190D01*
X129252678Y-60752380D01*
X129276488Y-60728571D01*
X129276488Y-60561904D01*
X129181250Y-60561904D01*
X128533809Y-57316011D02*
X128771904Y-57149345D01*
X128533809Y-57030297D02*
X129033809Y-57030297D01*
X129033809Y-57220773D01*
X129010000Y-57268392D01*
X128986190Y-57292202D01*
X128938571Y-57316011D01*
X128867142Y-57316011D01*
X128819523Y-57292202D01*
X128795714Y-57268392D01*
X128771904Y-57220773D01*
X128771904Y-57030297D01*
X128557619Y-57506488D02*
X128533809Y-57577916D01*
X128533809Y-57696964D01*
X128557619Y-57744583D01*
X128581428Y-57768392D01*
X128629047Y-57792202D01*
X128676666Y-57792202D01*
X128724285Y-57768392D01*
X128748095Y-57744583D01*
X128771904Y-57696964D01*
X128795714Y-57601726D01*
X128819523Y-57554107D01*
X128843333Y-57530297D01*
X128890952Y-57506488D01*
X128938571Y-57506488D01*
X128986190Y-57530297D01*
X129010000Y-57554107D01*
X129033809Y-57601726D01*
X129033809Y-57720773D01*
X129010000Y-57792202D01*
X129033809Y-57935059D02*
X129033809Y-58220773D01*
X128533809Y-58077916D02*
X129033809Y-58077916D01*
X123751904Y-54656190D02*
X124061428Y-54656190D01*
X123894761Y-54846666D01*
X123966190Y-54846666D01*
X124013809Y-54870476D01*
X124037619Y-54894285D01*
X124061428Y-54941904D01*
X124061428Y-55060952D01*
X124037619Y-55108571D01*
X124013809Y-55132380D01*
X123966190Y-55156190D01*
X123823333Y-55156190D01*
X123775714Y-55132380D01*
X123751904Y-55108571D01*
X124275714Y-55108571D02*
X124299523Y-55132380D01*
X124275714Y-55156190D01*
X124251904Y-55132380D01*
X124275714Y-55108571D01*
X124275714Y-55156190D01*
X124466190Y-54656190D02*
X124775714Y-54656190D01*
X124609047Y-54846666D01*
X124680476Y-54846666D01*
X124728095Y-54870476D01*
X124751904Y-54894285D01*
X124775714Y-54941904D01*
X124775714Y-55060952D01*
X124751904Y-55108571D01*
X124728095Y-55132380D01*
X124680476Y-55156190D01*
X124537619Y-55156190D01*
X124490000Y-55132380D01*
X124466190Y-55108571D01*
X124918571Y-54656190D02*
X125085238Y-55156190D01*
X125251904Y-54656190D01*
X122031428Y-55156190D02*
X121745714Y-55156190D01*
X121888571Y-55156190D02*
X121888571Y-54656190D01*
X121840952Y-54727619D01*
X121793333Y-54775238D01*
X121745714Y-54799047D01*
X122245714Y-55108571D02*
X122269523Y-55132380D01*
X122245714Y-55156190D01*
X122221904Y-55132380D01*
X122245714Y-55108571D01*
X122245714Y-55156190D01*
X122460000Y-54703809D02*
X122483809Y-54680000D01*
X122531428Y-54656190D01*
X122650476Y-54656190D01*
X122698095Y-54680000D01*
X122721904Y-54703809D01*
X122745714Y-54751428D01*
X122745714Y-54799047D01*
X122721904Y-54870476D01*
X122436190Y-55156190D01*
X122745714Y-55156190D01*
X122888571Y-54656190D02*
X123055238Y-55156190D01*
X123221904Y-54656190D01*
X128598313Y-55211415D02*
X128951867Y-55564968D01*
X128464805Y-55917343D02*
X128431133Y-55917343D01*
X128363790Y-55883671D01*
X128330118Y-55850000D01*
X128296446Y-55782656D01*
X128296446Y-55715312D01*
X128313282Y-55664805D01*
X128363790Y-55580625D01*
X128414297Y-55530118D01*
X128498477Y-55479610D01*
X128548984Y-55462774D01*
X128616328Y-55462774D01*
X128683671Y-55496446D01*
X128717343Y-55530118D01*
X128751015Y-55597461D01*
X128751015Y-55631133D01*
X128951867Y-55564968D02*
X129288584Y-55901686D01*
X128582656Y-56068866D02*
X128616328Y-56136209D01*
X128700507Y-56220389D01*
X128751015Y-56237225D01*
X128784687Y-56237225D01*
X128835194Y-56220389D01*
X128868866Y-56186717D01*
X128885702Y-56136209D01*
X128885702Y-56102538D01*
X128868866Y-56052030D01*
X128818358Y-55967851D01*
X128801522Y-55917343D01*
X128801522Y-55883671D01*
X128818358Y-55833164D01*
X128852030Y-55799492D01*
X128902538Y-55782656D01*
X128936209Y-55782656D01*
X128986717Y-55799492D01*
X129070896Y-55883671D01*
X129104568Y-55951015D01*
D13*
%TO.C,*%
D10*
%TO.C,U8*%
X124550000Y-57750000D02*
X124550000Y-59050000D01*
X120850000Y-55700000D02*
X120850000Y-55350000D01*
X124550000Y-55350000D02*
X124550000Y-55700000D01*
X120850000Y-59050000D02*
X120850000Y-58700000D01*
X121200000Y-59050000D02*
X120850000Y-59050000D01*
X124550000Y-59050000D02*
X123200000Y-59050000D01*
X120850000Y-55350000D02*
X121200000Y-55350000D01*
X124200000Y-55350000D02*
X124550000Y-55350000D01*
%TO.C,D2*%
X126000000Y-57200000D02*
X125200000Y-57200000D01*
%TO.C,U7*%
X130400000Y-69250001D02*
X130400000Y-69800000D01*
X125000000Y-69600000D02*
X125000000Y-69800000D01*
X130400000Y-64400000D02*
X130400000Y-64600000D01*
X125200000Y-69800000D02*
X125000000Y-69800000D01*
X125000000Y-64400000D02*
X125000000Y-64600000D01*
X130400000Y-64400000D02*
X130200000Y-64400000D01*
X125200000Y-64400000D02*
X125000000Y-64400000D01*
X130400000Y-69800000D02*
X129825000Y-69800000D01*
%TO.C,G\u002A\u002A\u002A*%
G36*
X131502478Y-67380469D02*
G01*
X131452016Y-67375419D01*
X131399109Y-67370101D01*
X131344301Y-67364571D01*
X131288131Y-67358885D01*
X131231140Y-67353098D01*
X131173868Y-67347265D01*
X131116856Y-67341440D01*
X131060645Y-67335679D01*
X131005773Y-67330037D01*
X130952783Y-67324569D01*
X130902216Y-67319330D01*
X130854610Y-67314375D01*
X130810508Y-67309758D01*
X130770448Y-67305537D01*
X130734973Y-67301765D01*
X130704623Y-67298496D01*
X130679936Y-67295787D01*
X130661456Y-67293692D01*
X130649721Y-67292266D01*
X130645273Y-67291566D01*
X130645251Y-67291550D01*
X130645164Y-67287032D01*
X130645882Y-67275448D01*
X130647326Y-67257544D01*
X130649418Y-67234065D01*
X130652079Y-67205757D01*
X130655228Y-67173362D01*
X130658789Y-67137629D01*
X130662680Y-67099301D01*
X130666825Y-67059124D01*
X130671143Y-67017842D01*
X130675555Y-66976203D01*
X130679983Y-66934949D01*
X130684347Y-66894826D01*
X130688199Y-66859935D01*
X130723878Y-66859935D01*
X130728803Y-66882502D01*
X130740150Y-66902869D01*
X130756017Y-66918299D01*
X130774917Y-66932067D01*
X131095525Y-66976458D01*
X131160406Y-66985442D01*
X131217932Y-66993416D01*
X131268569Y-67000456D01*
X131312782Y-67006635D01*
X131351037Y-67012031D01*
X131383799Y-67016718D01*
X131411535Y-67020769D01*
X131434709Y-67024262D01*
X131453786Y-67027270D01*
X131469234Y-67029869D01*
X131481518Y-67032134D01*
X131491102Y-67034140D01*
X131498453Y-67035962D01*
X131504036Y-67037676D01*
X131508318Y-67039356D01*
X131511762Y-67041077D01*
X131514837Y-67042915D01*
X131517261Y-67044469D01*
X131528092Y-67053601D01*
X131539246Y-67066343D01*
X131545068Y-67074761D01*
X131556573Y-67100662D01*
X131560577Y-67127478D01*
X131557133Y-67154076D01*
X131546294Y-67179316D01*
X131539821Y-67188879D01*
X131531008Y-67205029D01*
X131525336Y-67224483D01*
X131523469Y-67244003D01*
X131525557Y-67258858D01*
X131533522Y-67276220D01*
X131545303Y-67292544D01*
X131558680Y-67304941D01*
X131563097Y-67307694D01*
X131583584Y-67314797D01*
X131606606Y-67316582D01*
X131628786Y-67312950D01*
X131636901Y-67309851D01*
X131651038Y-67300396D01*
X131666265Y-67285486D01*
X131680973Y-67267083D01*
X131693550Y-67247152D01*
X131700706Y-67232150D01*
X131706822Y-67213120D01*
X131712375Y-67189152D01*
X131716894Y-67163116D01*
X131719904Y-67137878D01*
X131720932Y-67116307D01*
X131720765Y-67110640D01*
X131715183Y-67070736D01*
X131702801Y-67033020D01*
X131683160Y-66996228D01*
X131675203Y-66984351D01*
X131649745Y-66952940D01*
X131645234Y-66947373D01*
X131612342Y-66917689D01*
X131576406Y-66895209D01*
X131537302Y-66879845D01*
X131527773Y-66877289D01*
X131518868Y-66875517D01*
X131503070Y-66872838D01*
X131481064Y-66869348D01*
X131453538Y-66865140D01*
X131421177Y-66860312D01*
X131384668Y-66854957D01*
X131344697Y-66849172D01*
X131301951Y-66843052D01*
X131257118Y-66836693D01*
X131210881Y-66830188D01*
X131163929Y-66823633D01*
X131116947Y-66817125D01*
X131070623Y-66810758D01*
X131025642Y-66804628D01*
X130982691Y-66798830D01*
X130942457Y-66793458D01*
X130905624Y-66788609D01*
X130872882Y-66784378D01*
X130844915Y-66780860D01*
X130822411Y-66778150D01*
X130806055Y-66776345D01*
X130796534Y-66775537D01*
X130794724Y-66775519D01*
X130776690Y-66780160D01*
X130758377Y-66790313D01*
X130742525Y-66804193D01*
X130734635Y-66814702D01*
X130725710Y-66836793D01*
X130723878Y-66859935D01*
X130688199Y-66859935D01*
X130688569Y-66856581D01*
X130692569Y-66820957D01*
X130696270Y-66788700D01*
X130699591Y-66760556D01*
X130702454Y-66737269D01*
X130704779Y-66719585D01*
X130706488Y-66708248D01*
X130707503Y-66704004D01*
X130707518Y-66703996D01*
X130711989Y-66704141D01*
X130723787Y-66705048D01*
X130742386Y-66706663D01*
X130767261Y-66708938D01*
X130797885Y-66711820D01*
X130833733Y-66715260D01*
X130874278Y-66719205D01*
X130918994Y-66723607D01*
X130967355Y-66728414D01*
X131018836Y-66733575D01*
X131072908Y-66739038D01*
X131115968Y-66743419D01*
X131171577Y-66749072D01*
X131224929Y-66754458D01*
X131275505Y-66759525D01*
X131322784Y-66764223D01*
X131366250Y-66768501D01*
X131405382Y-66772309D01*
X131439662Y-66775599D01*
X131468570Y-66778318D01*
X131491587Y-66780417D01*
X131508195Y-66781844D01*
X131517874Y-66782552D01*
X131520281Y-66782570D01*
X131516651Y-66781113D01*
X131505983Y-66777410D01*
X131488758Y-66771618D01*
X131465460Y-66763894D01*
X131436571Y-66754395D01*
X131402573Y-66743280D01*
X131363950Y-66730705D01*
X131321183Y-66716827D01*
X131274755Y-66701806D01*
X131225149Y-66685796D01*
X131172846Y-66668956D01*
X131118330Y-66651443D01*
X131112158Y-66649463D01*
X131057400Y-66631888D01*
X131004783Y-66614982D01*
X130954788Y-66598901D01*
X130907901Y-66583802D01*
X130864608Y-66569842D01*
X130825390Y-66557177D01*
X130790734Y-66545964D01*
X130761123Y-66536359D01*
X130737042Y-66528521D01*
X130718974Y-66522602D01*
X130707406Y-66518762D01*
X130702820Y-66517156D01*
X130702763Y-66517123D01*
X130703786Y-66513246D01*
X130707040Y-66502460D01*
X130712329Y-66485373D01*
X130719465Y-66462591D01*
X130727165Y-66438171D01*
X130791444Y-66438171D01*
X130791481Y-66438713D01*
X130796144Y-66456341D01*
X130805951Y-66474237D01*
X130819053Y-66489739D01*
X130833600Y-66500186D01*
X130834478Y-66500594D01*
X130839900Y-66502187D01*
X130852419Y-66505372D01*
X130871420Y-66510009D01*
X130896298Y-66515959D01*
X130926441Y-66523084D01*
X130961241Y-66531243D01*
X131000089Y-66540297D01*
X131042374Y-66550107D01*
X131087489Y-66560533D01*
X131134823Y-66571437D01*
X131183767Y-66582680D01*
X131233711Y-66594121D01*
X131284048Y-66605622D01*
X131334165Y-66617043D01*
X131383455Y-66628245D01*
X131431309Y-66639089D01*
X131477118Y-66649434D01*
X131520271Y-66659143D01*
X131560158Y-66668076D01*
X131596171Y-66676093D01*
X131627702Y-66683056D01*
X131654140Y-66688824D01*
X131674875Y-66693259D01*
X131689300Y-66696222D01*
X131694828Y-66697262D01*
X131721756Y-66698734D01*
X131745188Y-66693182D01*
X131760905Y-66684140D01*
X131776732Y-66667538D01*
X131787272Y-66646607D01*
X131791811Y-66623456D01*
X131789638Y-66600191D01*
X131789492Y-66599626D01*
X131784797Y-66586397D01*
X131778720Y-66574702D01*
X131777253Y-66572605D01*
X131772807Y-66567090D01*
X131768073Y-66562254D01*
X131762347Y-66557870D01*
X131754930Y-66553712D01*
X131745119Y-66549554D01*
X131732212Y-66545169D01*
X131715509Y-66540331D01*
X131694309Y-66534815D01*
X131667908Y-66528393D01*
X131635607Y-66520840D01*
X131596703Y-66511929D01*
X131571075Y-66506103D01*
X131399886Y-66467243D01*
X131414469Y-66397432D01*
X131420025Y-66370092D01*
X131423919Y-66348855D01*
X131426356Y-66332149D01*
X131427544Y-66318406D01*
X131427690Y-66306055D01*
X131427407Y-66299379D01*
X131421001Y-66255380D01*
X131407370Y-66213543D01*
X131387070Y-66174682D01*
X131360654Y-66139612D01*
X131328678Y-66109149D01*
X131291698Y-66084106D01*
X131274818Y-66075405D01*
X131260207Y-66069728D01*
X131239648Y-66063354D01*
X131215004Y-66056708D01*
X131188139Y-66050213D01*
X131160921Y-66044294D01*
X131135214Y-66039372D01*
X131112884Y-66035872D01*
X131095796Y-66034218D01*
X131093110Y-66034145D01*
X131048057Y-66037445D01*
X131005213Y-66047867D01*
X130965291Y-66064898D01*
X130955734Y-66070991D01*
X130929007Y-66088029D01*
X130897078Y-66116746D01*
X130870220Y-66150537D01*
X130849148Y-66188894D01*
X130838980Y-66215755D01*
X130833406Y-66234717D01*
X130827274Y-66257884D01*
X130820862Y-66283952D01*
X130814447Y-66311620D01*
X130808307Y-66339581D01*
X130802718Y-66366533D01*
X130797960Y-66391172D01*
X130794309Y-66412194D01*
X130792045Y-66428295D01*
X130791444Y-66438171D01*
X130727165Y-66438171D01*
X130728253Y-66434720D01*
X130738504Y-66402369D01*
X130750026Y-66366143D01*
X130762625Y-66326651D01*
X130776112Y-66284498D01*
X130785839Y-66254163D01*
X130799889Y-66210348D01*
X130813237Y-66168641D01*
X130825685Y-66129666D01*
X130837035Y-66094045D01*
X130847089Y-66062405D01*
X130855649Y-66035367D01*
X130862516Y-66013559D01*
X130867494Y-65997600D01*
X130870384Y-65988118D01*
X130871052Y-65985702D01*
X130868968Y-65979514D01*
X130863382Y-65977334D01*
X130854484Y-65975766D01*
X130870711Y-65849140D01*
X130918954Y-65849140D01*
X130925146Y-65872964D01*
X130937356Y-65894206D01*
X130950584Y-65907629D01*
X130952738Y-65909315D01*
X130954998Y-65910867D01*
X130957784Y-65912348D01*
X130961515Y-65913817D01*
X130966611Y-65915338D01*
X130973491Y-65916971D01*
X130982573Y-65918776D01*
X130994279Y-65920817D01*
X131009025Y-65923153D01*
X131027234Y-65925847D01*
X131049322Y-65928960D01*
X131075710Y-65932552D01*
X131106818Y-65936685D01*
X131143064Y-65941421D01*
X131184868Y-65946820D01*
X131232649Y-65952946D01*
X131286826Y-65959856D01*
X131347819Y-65967616D01*
X131416048Y-65976284D01*
X131447287Y-65980251D01*
X131516879Y-65989068D01*
X131579014Y-65996891D01*
X131634060Y-66003762D01*
X131682387Y-66009724D01*
X131724364Y-66014820D01*
X131760361Y-66019091D01*
X131790747Y-66022579D01*
X131815890Y-66025329D01*
X131836162Y-66027381D01*
X131851932Y-66028779D01*
X131863567Y-66029565D01*
X131871438Y-66029781D01*
X131875816Y-66029488D01*
X131897871Y-66021853D01*
X131916474Y-66008390D01*
X131930568Y-65990516D01*
X131939100Y-65969653D01*
X131941018Y-65947221D01*
X131940469Y-65942363D01*
X131933227Y-65918634D01*
X131919700Y-65898057D01*
X131909243Y-65888251D01*
X131900549Y-65882290D01*
X131891224Y-65878077D01*
X131878928Y-65874824D01*
X131861324Y-65871743D01*
X131859325Y-65871436D01*
X131848388Y-65869866D01*
X131830687Y-65867445D01*
X131807150Y-65864293D01*
X131778707Y-65860528D01*
X131746282Y-65856272D01*
X131710808Y-65851644D01*
X131673210Y-65846762D01*
X131634416Y-65841746D01*
X131595356Y-65836718D01*
X131556957Y-65831794D01*
X131520146Y-65827096D01*
X131485853Y-65822743D01*
X131455007Y-65818853D01*
X131428533Y-65815548D01*
X131407361Y-65812947D01*
X131392419Y-65811168D01*
X131386027Y-65810464D01*
X131374375Y-65808813D01*
X131367173Y-65806851D01*
X131365907Y-65805343D01*
X131370488Y-65803035D01*
X131380953Y-65798962D01*
X131395658Y-65793737D01*
X131409885Y-65788970D01*
X131421219Y-65785223D01*
X131439219Y-65779215D01*
X131463075Y-65771217D01*
X131491975Y-65761503D01*
X131525109Y-65750346D01*
X131561664Y-65738018D01*
X131600830Y-65724794D01*
X131641796Y-65710948D01*
X131677280Y-65698940D01*
X131718581Y-65684958D01*
X131758327Y-65671504D01*
X131795772Y-65658829D01*
X131830166Y-65647188D01*
X131860760Y-65636835D01*
X131886806Y-65628020D01*
X131907555Y-65621001D01*
X131922258Y-65616028D01*
X131929767Y-65613491D01*
X131956098Y-65601624D01*
X131975428Y-65586130D01*
X131987797Y-65566961D01*
X131993242Y-65544066D01*
X131993425Y-65532101D01*
X131988962Y-65510358D01*
X131978531Y-65489893D01*
X131963603Y-65473057D01*
X131951103Y-65464605D01*
X131947685Y-65463280D01*
X131942067Y-65461773D01*
X131933844Y-65460024D01*
X131922613Y-65457981D01*
X131907966Y-65455585D01*
X131889498Y-65452779D01*
X131866805Y-65449509D01*
X131839480Y-65445718D01*
X131807119Y-65441348D01*
X131769317Y-65436345D01*
X131725667Y-65430650D01*
X131675764Y-65424209D01*
X131619204Y-65416965D01*
X131555580Y-65408861D01*
X131491445Y-65400723D01*
X131422741Y-65392023D01*
X131361429Y-65384277D01*
X131307068Y-65377433D01*
X131259218Y-65371445D01*
X131217437Y-65366263D01*
X131181287Y-65361838D01*
X131150326Y-65358124D01*
X131124114Y-65355069D01*
X131102211Y-65352625D01*
X131084175Y-65350745D01*
X131069568Y-65349377D01*
X131057948Y-65348477D01*
X131048875Y-65347992D01*
X131041909Y-65347876D01*
X131036609Y-65348078D01*
X131032535Y-65348551D01*
X131029246Y-65349245D01*
X131028348Y-65349490D01*
X131007058Y-65359373D01*
X130989935Y-65374925D01*
X130977881Y-65394623D01*
X130971803Y-65416945D01*
X130972602Y-65440369D01*
X130973058Y-65442547D01*
X130980757Y-65464364D01*
X130993304Y-65481188D01*
X131011412Y-65493602D01*
X131035798Y-65502196D01*
X131049149Y-65504997D01*
X131058636Y-65506477D01*
X131075041Y-65508820D01*
X131097448Y-65511908D01*
X131124940Y-65515622D01*
X131156600Y-65519842D01*
X131191514Y-65524451D01*
X131228763Y-65529329D01*
X131267432Y-65534357D01*
X131306605Y-65539418D01*
X131345364Y-65544391D01*
X131382794Y-65549159D01*
X131417978Y-65553603D01*
X131449999Y-65557604D01*
X131477943Y-65561041D01*
X131500892Y-65563799D01*
X131517929Y-65565758D01*
X131518361Y-65565805D01*
X131534295Y-65567659D01*
X131543457Y-65569142D01*
X131546936Y-65570623D01*
X131545822Y-65572471D01*
X131542945Y-65574155D01*
X131541280Y-65575028D01*
X131539433Y-65575924D01*
X131536935Y-65577002D01*
X131533316Y-65578421D01*
X131528109Y-65580341D01*
X131520844Y-65582919D01*
X131511052Y-65586319D01*
X131498263Y-65590697D01*
X131482010Y-65596213D01*
X131461824Y-65603026D01*
X131437236Y-65611297D01*
X131407775Y-65621184D01*
X131372974Y-65632847D01*
X131332364Y-65646444D01*
X131285476Y-65662137D01*
X131231840Y-65680084D01*
X131197541Y-65691559D01*
X131156325Y-65705409D01*
X131117057Y-65718720D01*
X131080427Y-65731250D01*
X131047126Y-65742760D01*
X131017841Y-65753005D01*
X130993264Y-65761746D01*
X130974081Y-65768742D01*
X130960984Y-65773751D01*
X130954664Y-65776532D01*
X130954548Y-65776602D01*
X130940838Y-65788120D01*
X130928955Y-65803335D01*
X130921087Y-65819216D01*
X130919590Y-65824894D01*
X130918954Y-65849140D01*
X130870711Y-65849140D01*
X130899538Y-65624188D01*
X130906209Y-65572401D01*
X130912656Y-65522870D01*
X130918804Y-65476154D01*
X130924574Y-65432811D01*
X130929891Y-65393396D01*
X130934679Y-65358470D01*
X130938860Y-65328588D01*
X130942359Y-65304309D01*
X130945100Y-65286190D01*
X130947005Y-65274788D01*
X130947999Y-65270661D01*
X130948000Y-65270661D01*
X130952165Y-65270960D01*
X130963618Y-65272205D01*
X130981827Y-65274327D01*
X131006258Y-65277260D01*
X131036377Y-65280934D01*
X131071652Y-65285281D01*
X131111550Y-65290235D01*
X131155535Y-65295726D01*
X131203077Y-65301687D01*
X131253643Y-65308051D01*
X131306697Y-65314747D01*
X131361708Y-65321709D01*
X131418142Y-65328870D01*
X131475465Y-65336161D01*
X131533146Y-65343513D01*
X131590651Y-65350859D01*
X131647445Y-65358131D01*
X131702997Y-65365260D01*
X131756773Y-65372181D01*
X131808240Y-65378822D01*
X131856864Y-65385118D01*
X131902113Y-65390998D01*
X131943453Y-65396398D01*
X131980350Y-65401248D01*
X132012274Y-65405479D01*
X132038688Y-65409024D01*
X132059061Y-65411816D01*
X132072860Y-65413785D01*
X132079550Y-65414865D01*
X132080116Y-65415022D01*
X132079717Y-65418975D01*
X132078396Y-65430081D01*
X132076241Y-65447660D01*
X132073336Y-65471037D01*
X132069769Y-65499533D01*
X132065627Y-65532470D01*
X132060995Y-65569168D01*
X132055961Y-65608952D01*
X132050609Y-65651142D01*
X132045028Y-65695060D01*
X132039304Y-65740029D01*
X132033523Y-65785370D01*
X132027770Y-65830406D01*
X132022134Y-65874458D01*
X132016701Y-65916847D01*
X132011556Y-65956897D01*
X132006786Y-65993930D01*
X132002478Y-66027266D01*
X131998718Y-66056228D01*
X131995593Y-66080139D01*
X131993188Y-66098318D01*
X131991591Y-66110090D01*
X131990911Y-66114673D01*
X131986636Y-66116818D01*
X131975671Y-66117373D01*
X131961427Y-66116504D01*
X131952538Y-66115533D01*
X131936569Y-66113639D01*
X131914273Y-66110915D01*
X131886401Y-66107458D01*
X131853704Y-66103360D01*
X131816932Y-66098716D01*
X131776837Y-66093619D01*
X131734169Y-66088165D01*
X131689681Y-66082448D01*
X131678374Y-66080989D01*
X131634490Y-66075342D01*
X131592965Y-66070026D01*
X131554454Y-66065127D01*
X131519609Y-66060722D01*
X131489086Y-66056896D01*
X131463539Y-66053729D01*
X131443622Y-66051305D01*
X131429989Y-66049704D01*
X131423295Y-66049009D01*
X131422708Y-66048997D01*
X131426168Y-66050307D01*
X131436555Y-66053825D01*
X131453277Y-66059359D01*
X131475740Y-66066715D01*
X131503351Y-66075701D01*
X131535515Y-66086124D01*
X131571640Y-66097791D01*
X131611131Y-66110509D01*
X131653396Y-66124086D01*
X131688896Y-66135465D01*
X131733065Y-66149641D01*
X131775013Y-66163164D01*
X131814136Y-66175837D01*
X131849833Y-66187461D01*
X131881499Y-66197839D01*
X131908531Y-66206770D01*
X131930325Y-66214060D01*
X131946278Y-66219506D01*
X131955785Y-66222911D01*
X131958342Y-66224027D01*
X131957496Y-66228167D01*
X131954407Y-66239234D01*
X131949255Y-66256640D01*
X131942223Y-66279798D01*
X131933494Y-66308124D01*
X131923250Y-66341028D01*
X131911671Y-66377924D01*
X131898940Y-66418225D01*
X131885239Y-66461345D01*
X131870750Y-66506696D01*
X131869516Y-66510551D01*
X131854891Y-66556238D01*
X131840957Y-66599868D01*
X131827907Y-66640839D01*
X131815928Y-66678545D01*
X131805213Y-66712388D01*
X131795950Y-66741761D01*
X131788331Y-66766064D01*
X131782548Y-66784694D01*
X131778787Y-66797047D01*
X131777242Y-66802522D01*
X131777224Y-66802618D01*
X131777029Y-66807540D01*
X131779739Y-66810296D01*
X131787153Y-66811784D01*
X131797216Y-66812636D01*
X131818618Y-66814173D01*
X131816682Y-66839408D01*
X131815550Y-66852760D01*
X131813754Y-66872203D01*
X131811370Y-66896984D01*
X131808478Y-66926346D01*
X131805157Y-66959538D01*
X131801485Y-66995803D01*
X131797543Y-67034389D01*
X131793407Y-67074541D01*
X131789158Y-67115503D01*
X131784875Y-67156524D01*
X131780635Y-67196846D01*
X131776520Y-67235717D01*
X131772605Y-67272383D01*
X131768971Y-67306088D01*
X131765697Y-67336079D01*
X131762862Y-67361603D01*
X131760545Y-67381903D01*
X131758824Y-67396225D01*
X131757779Y-67403817D01*
X131757536Y-67404852D01*
X131753381Y-67404677D01*
X131741919Y-67403740D01*
X131723689Y-67402097D01*
X131699235Y-67399800D01*
X131669093Y-67396908D01*
X131633806Y-67393474D01*
X131593914Y-67389552D01*
X131570807Y-67387264D01*
X131549958Y-67385199D01*
X131502478Y-67380469D01*
G37*
G36*
X131088987Y-66194246D02*
G01*
X131100123Y-66195729D01*
X131115305Y-66198648D01*
X131136104Y-66203162D01*
X131144159Y-66204960D01*
X131176608Y-66212883D01*
X131202204Y-66220869D01*
X131221968Y-66229566D01*
X131236921Y-66239620D01*
X131248083Y-66251677D01*
X131256476Y-66266387D01*
X131261501Y-66279352D01*
X131264980Y-66292627D01*
X131266436Y-66306875D01*
X131265769Y-66323541D01*
X131262877Y-66344073D01*
X131257659Y-66369914D01*
X131254063Y-66385630D01*
X131249833Y-66402936D01*
X131246055Y-66417130D01*
X131243175Y-66426613D01*
X131241749Y-66429786D01*
X131237656Y-66429155D01*
X131226863Y-66426974D01*
X131210359Y-66423467D01*
X131189139Y-66418855D01*
X131164198Y-66413359D01*
X131136525Y-66407201D01*
X131107114Y-66400604D01*
X131076958Y-66393787D01*
X131047050Y-66386973D01*
X131018383Y-66380383D01*
X130991950Y-66374241D01*
X130972736Y-66369717D01*
X130970544Y-66365210D01*
X130971029Y-66353535D01*
X130974150Y-66334937D01*
X130979868Y-66309661D01*
X130986670Y-66283374D01*
X130996198Y-66254555D01*
X131007819Y-66232513D01*
X131022457Y-66216216D01*
X131041037Y-66204632D01*
X131064153Y-66196808D01*
X131072572Y-66194946D01*
X131080326Y-66194039D01*
X131088987Y-66194246D01*
G37*
%TO.C,J3*%
X121450000Y-36267500D02*
X121450000Y-34957500D01*
X113210000Y-34957500D02*
X133790000Y-34957500D01*
X132490000Y-36267500D02*
X132490000Y-42767500D01*
X113210000Y-44077500D02*
X113210000Y-34957500D01*
X133790000Y-34957500D02*
X133790000Y-44077500D01*
X114510000Y-36267500D02*
X121450000Y-36267500D01*
X129080000Y-33567500D02*
X128080000Y-33567500D01*
X128080000Y-33567500D02*
X128580000Y-34567500D01*
X128580000Y-34567500D02*
X129080000Y-33567500D01*
X132490000Y-42767500D02*
X114510000Y-42767500D01*
X114510000Y-42767500D02*
X114510000Y-36267500D01*
X125550000Y-36267500D02*
X132490000Y-36267500D01*
X125550000Y-34957500D02*
X125550000Y-36267500D01*
X121450000Y-36267500D02*
X121450000Y-36267500D01*
X133790000Y-44077500D02*
X113210000Y-44077500D01*
%TO.C,C34*%
X123982836Y-66685000D02*
X123767164Y-66685000D01*
X123982836Y-65965000D02*
X123767164Y-65965000D01*
%TO.C,C12*%
X126190000Y-63227836D02*
X126190000Y-63012164D01*
X125470000Y-63227836D02*
X125470000Y-63012164D01*
%TO.C,C17*%
X124007836Y-69040000D02*
X123792164Y-69040000D01*
X124007836Y-69760000D02*
X123792164Y-69760000D01*
%TO.C,L3*%
X118927936Y-63080000D02*
X120132064Y-63080000D01*
X118927936Y-60360000D02*
X120132064Y-60360000D01*
%TO.C,C2*%
X123860000Y-64692164D02*
X123860000Y-64907836D01*
X123140000Y-64692164D02*
X123140000Y-64907836D01*
%TO.C,C1*%
X125457836Y-70765000D02*
X125242164Y-70765000D01*
X125457836Y-71485000D02*
X125242164Y-71485000D01*
%TO.C,U4*%
X115540000Y-66435000D02*
X115540000Y-66435000D01*
%TO.C,C18*%
X118160000Y-67113748D02*
X118160000Y-67636252D01*
X116690000Y-67113748D02*
X116690000Y-67636252D01*
%TO.C,U10*%
X118090000Y-55315000D02*
X118090000Y-55315000D01*
%TO.C,U3*%
X118690000Y-65590000D02*
X118950000Y-65590000D01*
X118690000Y-71010000D02*
X118690000Y-70750000D01*
X122710000Y-71010000D02*
X122710000Y-70750000D01*
X118690000Y-65590000D02*
X118690000Y-65850000D01*
X122710000Y-65590000D02*
X122450000Y-65590000D01*
X122710000Y-65590000D02*
X122710000Y-65850000D01*
X122710000Y-71010000D02*
X122450000Y-71010000D01*
%TO.C,U5*%
X116875001Y-60100001D02*
X116875001Y-59550002D01*
X119324999Y-60100001D02*
X119324999Y-59900001D01*
X117425000Y-60100001D02*
X116875001Y-60100001D01*
X117075001Y-57049999D02*
X116875001Y-57049999D01*
X119324999Y-57049999D02*
X119124999Y-57049999D01*
X119324999Y-60100001D02*
X119124999Y-60100001D01*
X116875001Y-57249999D02*
X116875001Y-57049999D01*
X119324999Y-57249999D02*
X119324999Y-57049999D01*
%TO.C,D1*%
X116400000Y-60700000D02*
X116400000Y-63100000D01*
X116100000Y-60700000D02*
X116400000Y-60700000D01*
X114500000Y-60700000D02*
X114200000Y-60700000D01*
X114200000Y-60700000D02*
X114200000Y-63100000D01*
%TO.C,TP4*%
X124850000Y-54125000D02*
G75*
G03*
X124850000Y-54125000I-400000J0D01*
G01*
%TO.C,C25*%
X130160000Y-59207836D02*
X130160000Y-58992164D01*
X129440000Y-59207836D02*
X129440000Y-58992164D01*
%TO.C,L4*%
X121599622Y-65060000D02*
X120800378Y-65060000D01*
X121599622Y-63940000D02*
X120800378Y-63940000D01*
%TO.C,C35*%
X127765000Y-61907836D02*
X127765000Y-61692164D01*
X128485000Y-61907836D02*
X128485000Y-61692164D01*
%TO.C,D3*%
X130600000Y-60700000D02*
X130600000Y-63100000D01*
X132500000Y-60700000D02*
X132800000Y-60700000D01*
X130900000Y-60700000D02*
X130600000Y-60700000D01*
X132800000Y-60700000D02*
X132800000Y-63100000D01*
%TO.C,TP9*%
X129850000Y-56575000D02*
G75*
G03*
X129850000Y-56575000I-400000J0D01*
G01*
%TO.C,C13*%
X126390000Y-63227836D02*
X126390000Y-63012164D01*
X127110000Y-63227836D02*
X127110000Y-63012164D01*
%TO.C,TP2*%
X126200000Y-54400000D02*
G75*
G03*
X126200000Y-54400000I-400000J0D01*
G01*
%TO.C,TP8*%
X123430000Y-54030000D02*
G75*
G03*
X123430000Y-54030000I-400000J0D01*
G01*
%TO.C,C3*%
X129460000Y-61757836D02*
X129460000Y-61542164D01*
X128740000Y-61757836D02*
X128740000Y-61542164D01*
%TO.C,C10*%
X129392164Y-63390000D02*
X129607836Y-63390000D01*
X129392164Y-64110000D02*
X129607836Y-64110000D01*
%TO.C,U9*%
X119915000Y-56560000D02*
X119915000Y-56560000D01*
%TD*%
M02*
