%TF.GenerationSoftware,KiCad,Pcbnew,(6.0.0)*%
%TF.CreationDate,2022-03-02T03:39:50-08:00*%
%TF.ProjectId,headstage-64s,68656164-7374-4616-9765-2d3634732e6b,A*%
%TF.SameCoordinates,Original*%
%TF.FileFunction,Soldermask,Bot*%
%TF.FilePolarity,Negative*%
%FSLAX46Y46*%
G04 Gerber Fmt 4.6, Leading zero omitted, Abs format (unit mm)*
G04 Created by KiCad (PCBNEW (6.0.0)) date 2022-03-02 03:39:50*
%MOMM*%
%LPD*%
G01*
G04 APERTURE LIST*
G04 Aperture macros list*
%AMRoundRect*
0 Rectangle with rounded corners*
0 $1 Rounding radius*
0 $2 $3 $4 $5 $6 $7 $8 $9 X,Y pos of 4 corners*
0 Add a 4 corners polygon primitive as box body*
4,1,4,$2,$3,$4,$5,$6,$7,$8,$9,$2,$3,0*
0 Add four circle primitives for the rounded corners*
1,1,$1+$1,$2,$3*
1,1,$1+$1,$4,$5*
1,1,$1+$1,$6,$7*
1,1,$1+$1,$8,$9*
0 Add four rect primitives between the rounded corners*
20,1,$1+$1,$2,$3,$4,$5,0*
20,1,$1+$1,$4,$5,$6,$7,0*
20,1,$1+$1,$6,$7,$8,$9,0*
20,1,$1+$1,$8,$9,$2,$3,0*%
%AMFreePoly0*
4,1,6,0.350000,-0.250000,-0.225000,-0.250000,-0.350000,-0.125000,-0.350000,0.250000,0.350000,0.250000,0.350000,-0.250000,0.350000,-0.250000,$1*%
G04 Aperture macros list end*
%ADD10C,0.137500*%
%ADD11RoundRect,0.250000X-0.600000X0.600000X-0.600000X-0.600000X0.600000X-0.600000X0.600000X0.600000X0*%
%ADD12C,1.700000*%
%ADD13C,0.600000*%
%ADD14RoundRect,0.100000X-0.100000X0.130000X-0.100000X-0.130000X0.100000X-0.130000X0.100000X0.130000X0*%
%ADD15RoundRect,0.100000X-0.021213X-0.162635X0.162635X0.021213X0.021213X0.162635X-0.162635X-0.021213X0*%
%ADD16R,0.400000X0.460000*%
%ADD17RoundRect,0.100000X0.021213X0.162635X-0.162635X-0.021213X-0.021213X-0.162635X0.162635X0.021213X0*%
%ADD18RoundRect,0.140000X0.170000X-0.140000X0.170000X0.140000X-0.170000X0.140000X-0.170000X-0.140000X0*%
%ADD19RoundRect,0.140000X0.140000X0.170000X-0.140000X0.170000X-0.140000X-0.170000X0.140000X-0.170000X0*%
%ADD20C,0.250000*%
%ADD21R,0.300000X0.650000*%
%ADD22R,1.700000X0.300000*%
%ADD23RoundRect,0.100000X0.130000X0.100000X-0.130000X0.100000X-0.130000X-0.100000X0.130000X-0.100000X0*%
%ADD24RoundRect,0.140000X-0.140000X-0.170000X0.140000X-0.170000X0.140000X0.170000X-0.140000X0.170000X0*%
%ADD25RoundRect,0.100000X-0.130000X-0.100000X0.130000X-0.100000X0.130000X0.100000X-0.130000X0.100000X0*%
%ADD26RoundRect,0.140000X-0.170000X0.140000X-0.170000X-0.140000X0.170000X-0.140000X0.170000X0.140000X0*%
%ADD27RoundRect,0.100000X0.100000X-0.130000X0.100000X0.130000X-0.100000X0.130000X-0.100000X-0.130000X0*%
%ADD28C,0.260000*%
%ADD29RoundRect,0.100000X0.162635X-0.021213X-0.021213X0.162635X-0.162635X0.021213X0.021213X-0.162635X0*%
%ADD30RoundRect,0.100000X-0.162635X0.021213X0.021213X-0.162635X0.162635X-0.021213X-0.021213X0.162635X0*%
%ADD31C,0.200000*%
%ADD32R,0.230000X0.660000*%
%ADD33R,0.350000X0.660000*%
%ADD34FreePoly0,0.000000*%
%ADD35R,0.700000X0.400000*%
G04 APERTURE END LIST*
D10*
%TO.C,REF\u002A\u002A*%
X126480000Y-55980000D02*
X126330000Y-55480000D01*
X126480000Y-55980000D02*
X126780000Y-54380000D01*
X127380000Y-54730000D02*
X126480000Y-55980000D01*
X126330000Y-55480000D02*
X127380000Y-54730000D01*
X126780000Y-54380000D02*
X126330000Y-55480000D01*
X128030000Y-55330000D02*
X126330000Y-55480000D01*
X126480000Y-55980000D02*
X128030000Y-55330000D01*
X128030000Y-55330000D02*
X127380000Y-54730000D01*
%TD*%
D11*
%TO.C,J3*%
X128580000Y-38247500D03*
D12*
X128580000Y-40787500D03*
X126040000Y-38247500D03*
X126040000Y-40787500D03*
X123500000Y-38247500D03*
X123500000Y-40787500D03*
X120960000Y-38247500D03*
X120960000Y-40787500D03*
X118420000Y-38247500D03*
X118420000Y-40787500D03*
%TD*%
D13*
%TO.C,TP3*%
X123908332Y-72075000D03*
%TD*%
D14*
%TO.C,R13*%
X128800000Y-69580000D03*
X128800000Y-70220000D03*
%TD*%
D15*
%TO.C,L6*%
X115573726Y-67276274D03*
X116026274Y-66823726D03*
%TD*%
D16*
%TO.C,JP1*%
X125900000Y-59490000D03*
X125900000Y-58910000D03*
%TD*%
D14*
%TO.C,C43*%
X123030000Y-56770000D03*
X123030000Y-57410000D03*
%TD*%
D17*
%TO.C,C28*%
X116526274Y-67323726D03*
X116073726Y-67776274D03*
%TD*%
D18*
%TO.C,C52*%
X122225000Y-55530000D03*
X122225000Y-54570000D03*
%TD*%
D19*
%TO.C,C54*%
X121480000Y-59410000D03*
X120520000Y-59410000D03*
%TD*%
D20*
%TO.C,U2*%
X116000000Y-58500000D03*
X116000000Y-59000000D03*
X116000000Y-59500000D03*
X116500000Y-58500000D03*
X116500000Y-59000000D03*
X116500000Y-59500000D03*
X117000000Y-58500000D03*
X117000000Y-59000000D03*
X117000000Y-59500000D03*
%TD*%
D21*
%TO.C,U11*%
X128400000Y-59250000D03*
X127900000Y-59250000D03*
X127400000Y-59250000D03*
X126900000Y-59250000D03*
X126900000Y-56750000D03*
X127400000Y-56750000D03*
X127900000Y-56750000D03*
X128400000Y-56750000D03*
D22*
X127650000Y-58000000D03*
%TD*%
D23*
%TO.C,R2*%
X123745000Y-54350000D03*
X123105000Y-54350000D03*
%TD*%
D24*
%TO.C,C55*%
X123900000Y-55500000D03*
X124860000Y-55500000D03*
%TD*%
D14*
%TO.C,L10*%
X119500000Y-58330000D03*
X119500000Y-58970000D03*
%TD*%
D23*
%TO.C,L13*%
X118745000Y-59500000D03*
X118105000Y-59500000D03*
%TD*%
D25*
%TO.C,R22*%
X125480000Y-58000000D03*
X126120000Y-58000000D03*
%TD*%
%TO.C,C45*%
X123080000Y-58400000D03*
X123720000Y-58400000D03*
%TD*%
D23*
%TO.C,L16*%
X119470000Y-55350000D03*
X118830000Y-55350000D03*
%TD*%
D24*
%TO.C,C23*%
X116520000Y-57350000D03*
X117480000Y-57350000D03*
%TD*%
D26*
%TO.C,C57*%
X120300000Y-57470000D03*
X120300000Y-58430000D03*
%TD*%
D13*
%TO.C,TP5*%
X124775000Y-72075000D03*
%TD*%
D23*
%TO.C,C49*%
X120945000Y-56600000D03*
X120305000Y-56600000D03*
%TD*%
D25*
%TO.C,C47*%
X123780000Y-56400000D03*
X124420000Y-56400000D03*
%TD*%
D26*
%TO.C,C51*%
X121250000Y-57470000D03*
X121250000Y-58430000D03*
%TD*%
D19*
%TO.C,C56*%
X121330000Y-55800000D03*
X120370000Y-55800000D03*
%TD*%
D27*
%TO.C,C44*%
X123050000Y-55920000D03*
X123050000Y-55280000D03*
%TD*%
D14*
%TO.C,C48*%
X122330000Y-56430000D03*
X122330000Y-57070000D03*
%TD*%
D28*
%TO.C,U1*%
X127500000Y-65000000D03*
X127000000Y-65000000D03*
X126500000Y-65000000D03*
X126000000Y-65000000D03*
X125500000Y-65000000D03*
X125000000Y-65000000D03*
X124500000Y-65000000D03*
X124000000Y-65000000D03*
X123500000Y-65000000D03*
X123000000Y-65000000D03*
X122500000Y-65000000D03*
X122000000Y-65000000D03*
X121500000Y-65000000D03*
X121000000Y-65000000D03*
X120500000Y-65000000D03*
X120000000Y-65000000D03*
X119500000Y-65000000D03*
X127500000Y-65500000D03*
X127000000Y-65500000D03*
X126500000Y-65500000D03*
X126000000Y-65500000D03*
X125500000Y-65500000D03*
X125000000Y-65500000D03*
X124500000Y-65500000D03*
X124000000Y-65500000D03*
X123500000Y-65500000D03*
X123000000Y-65500000D03*
X122500000Y-65500000D03*
X122000000Y-65500000D03*
X121500000Y-65500000D03*
X121000000Y-65500000D03*
X120500000Y-65500000D03*
X120000000Y-65500000D03*
X119500000Y-65500000D03*
X127500000Y-66000000D03*
X127000000Y-66000000D03*
X120000000Y-66000000D03*
X119500000Y-66000000D03*
X127500000Y-66500000D03*
X127000000Y-66500000D03*
X120000000Y-66500000D03*
X119500000Y-66500000D03*
X127500000Y-67000000D03*
X127000000Y-67000000D03*
X120000000Y-67000000D03*
X119500000Y-67000000D03*
X127500000Y-67500000D03*
X127000000Y-67500000D03*
X120000000Y-67500000D03*
X119500000Y-67500000D03*
X127500000Y-68000000D03*
X127000000Y-68000000D03*
X120000000Y-68000000D03*
X119500000Y-68000000D03*
X127500000Y-68500000D03*
X127000000Y-68500000D03*
X120000000Y-68500000D03*
X119500000Y-68500000D03*
X127500000Y-69000000D03*
X127000000Y-69000000D03*
X120000000Y-69000000D03*
X119500000Y-69000000D03*
X127500000Y-69500000D03*
X127000000Y-69500000D03*
X120000000Y-69500000D03*
X119500000Y-69500000D03*
X127500000Y-70000000D03*
X127000000Y-70000000D03*
X120000000Y-70000000D03*
X119500000Y-70000000D03*
X127500000Y-70500000D03*
X127000000Y-70500000D03*
X126500000Y-70500000D03*
X126000000Y-70500000D03*
X125500000Y-70500000D03*
X125000000Y-70500000D03*
X124500000Y-70500000D03*
X124000000Y-70500000D03*
X123500000Y-70500000D03*
X123000000Y-70500000D03*
X122500000Y-70500000D03*
X122000000Y-70500000D03*
X121500000Y-70500000D03*
X121000000Y-70500000D03*
X120500000Y-70500000D03*
X120000000Y-70500000D03*
X119500000Y-70500000D03*
X127500000Y-71000000D03*
X127000000Y-71000000D03*
X126500000Y-71000000D03*
X126000000Y-71000000D03*
X125500000Y-71000000D03*
X125000000Y-71000000D03*
X124500000Y-71000000D03*
X124000000Y-71000000D03*
X123500000Y-71000000D03*
X123000000Y-71000000D03*
X122500000Y-71000000D03*
X122000000Y-71000000D03*
X121500000Y-71000000D03*
X121000000Y-71000000D03*
X120500000Y-71000000D03*
X120000000Y-71000000D03*
X119500000Y-71000000D03*
%TD*%
D23*
%TO.C,R1*%
X125195000Y-54350000D03*
X124555000Y-54350000D03*
%TD*%
D13*
%TO.C,TP1*%
X123041666Y-72075000D03*
%TD*%
D27*
%TO.C,L12*%
X125000000Y-59670000D03*
X125000000Y-59030000D03*
%TD*%
D14*
%TO.C,C42*%
X129100000Y-56630000D03*
X129100000Y-57270000D03*
%TD*%
D23*
%TO.C,C58*%
X118695000Y-58350000D03*
X118055000Y-58350000D03*
%TD*%
D27*
%TO.C,L11*%
X121375000Y-54895000D03*
X121375000Y-54255000D03*
%TD*%
D29*
%TO.C,C30*%
X117026274Y-68926274D03*
X116573726Y-68473726D03*
%TD*%
D23*
%TO.C,L15*%
X120650000Y-54610000D03*
X120010000Y-54610000D03*
%TD*%
D30*
%TO.C,C19*%
X117773726Y-68498726D03*
X118226274Y-68951274D03*
%TD*%
D20*
%TO.C,U6*%
X129500000Y-59350000D03*
X130000000Y-59350000D03*
X130500000Y-59350000D03*
X129500000Y-58850000D03*
X130000000Y-58850000D03*
X130500000Y-58850000D03*
X129500000Y-58350000D03*
X130000000Y-58350000D03*
X130500000Y-58350000D03*
%TD*%
D24*
%TO.C,C53*%
X123120000Y-59250000D03*
X124080000Y-59250000D03*
%TD*%
D26*
%TO.C,C50*%
X124590000Y-57280000D03*
X124590000Y-58240000D03*
%TD*%
D31*
%TO.C,U13*%
X116852513Y-67850000D03*
X117100000Y-68097487D03*
X117100000Y-67602513D03*
X117347487Y-67850000D03*
%TD*%
D32*
%TO.C,J2*%
X130300000Y-63355000D03*
X130300000Y-60645000D03*
X129900000Y-63355000D03*
X129900000Y-60645000D03*
X129500000Y-63355000D03*
X129500000Y-60645000D03*
X129100000Y-63355000D03*
X129100000Y-60645000D03*
X128700000Y-63355000D03*
X128700000Y-60645000D03*
X128300000Y-63355000D03*
X128300000Y-60645000D03*
X127900000Y-63355000D03*
X127900000Y-60645000D03*
X127500000Y-63355000D03*
X127500000Y-60645000D03*
X127100000Y-63355000D03*
X127100000Y-60645000D03*
X126700000Y-63355000D03*
X126700000Y-60645000D03*
X126300000Y-63355000D03*
X126300000Y-60645000D03*
X125900000Y-63355000D03*
X125900000Y-60645000D03*
X125500000Y-63355000D03*
X125500000Y-60645000D03*
X125100000Y-63355000D03*
X125100000Y-60645000D03*
X124700000Y-63355000D03*
X124700000Y-60645000D03*
X124300000Y-63355000D03*
X124300000Y-60645000D03*
X123900000Y-63355000D03*
X123900000Y-60645000D03*
X123500000Y-63355000D03*
X123500000Y-60645000D03*
X123100000Y-63355000D03*
X123100000Y-60645000D03*
X122700000Y-63355000D03*
X122700000Y-60645000D03*
X122300000Y-63355000D03*
X122300000Y-60645000D03*
X121900000Y-63355000D03*
X121900000Y-60645000D03*
X121500000Y-63355000D03*
X121500000Y-60645000D03*
X121100000Y-63355000D03*
X121100000Y-60645000D03*
X120700000Y-63355000D03*
X120700000Y-60645000D03*
X120300000Y-63355000D03*
X120300000Y-60645000D03*
X119900000Y-63355000D03*
X119900000Y-60645000D03*
X119500000Y-63355000D03*
X119500000Y-60645000D03*
X119100000Y-63355000D03*
X119100000Y-60645000D03*
X118700000Y-63355000D03*
X118700000Y-60645000D03*
X118300000Y-63355000D03*
X118300000Y-60645000D03*
X117900000Y-63355000D03*
X117900000Y-60645000D03*
X117500000Y-63355000D03*
X117500000Y-60645000D03*
X117100000Y-63355000D03*
X117100000Y-60645000D03*
X116700000Y-63355000D03*
X116700000Y-60645000D03*
D33*
X130775000Y-63355000D03*
X130775000Y-60645000D03*
X116225000Y-63355000D03*
X116225000Y-60645000D03*
%TD*%
D29*
%TO.C,C22*%
X118001274Y-70126274D03*
X117548726Y-69673726D03*
%TD*%
D34*
%TO.C,U12*%
X118350000Y-57575000D03*
D35*
X118350000Y-56075000D03*
X119300000Y-56075000D03*
X119300000Y-57625000D03*
%TD*%
D13*
%TO.C,TP10*%
X122175000Y-72075000D03*
%TD*%
D25*
%TO.C,L14*%
X125180000Y-56500000D03*
X125820000Y-56500000D03*
%TD*%
%TO.C,R21*%
X125480000Y-57300000D03*
X126120000Y-57300000D03*
%TD*%
D14*
%TO.C,C46*%
X122300000Y-58370000D03*
X122300000Y-59010000D03*
%TD*%
M02*
