M48
; DRILL file {KiCad (6.0.0)} date Tue Jan 25 07:30:48 2022
; FORMAT={-:-/ absolute / inch / decimal}
; #@! TF.CreationDate,2022-01-25T07:30:48-08:00
; #@! TF.GenerationSoftware,Kicad,Pcbnew,(6.0.0)
; #@! TF.FileFunction,Plated,1,6,PTH
FMAT,2
INCH
; #@! TA.AperFunction,Plated,PTH,ViaDrill
T1C0.0039
; #@! TA.AperFunction,Plated,PTH,ViaDrill
T2C0.0079
; #@! TA.AperFunction,Plated,PTH,ComponentDrill
T3C0.0394
%
G90
G05
T1
X4.5Y-2.4321
X4.5059Y-2.3947
X4.5062Y-2.5603
X4.5079Y-2.4134
X4.5147Y-2.5709
X4.5231Y-2.5799
X4.5315Y-2.5906
X4.5354Y-2.314
X4.5364Y-2.6467
X4.5443Y-2.6245
X4.5446Y-2.5875
X4.5462Y-2.3985
X4.5472Y-2.6673
X4.5562Y-2.3396
X4.5729Y-2.4862
X4.5744Y-2.3982
X4.5762Y-2.3351
X4.5786Y-2.5875
X4.5827Y-2.3573
X4.5896Y-2.6781
X4.5907Y-2.293
X4.6014Y-2.2815
X4.6197Y-2.7256
X4.625Y-2.3681
X4.6276Y-2.7559
X4.6329Y-2.6752
X4.6369Y-2.3602
X4.6414Y-2.3711
X4.6476Y-2.239
X4.6535Y-2.7835
X4.6575Y-2.3681
X4.6644Y-2.7293
X4.6654Y-2.3574
X4.6673Y-2.2039
X4.6689Y-2.2488
X4.6772Y-2.1614
X4.6781Y-2.3661
X4.6852Y-2.2205
X4.6866Y-2.2437
X4.689Y-2.2888
X4.6913Y-2.3232
X4.7018Y-2.8081
X4.7224Y-2.813
X4.7402Y-2.685
X4.7461Y-2.7263
X4.7529Y-2.8046
X4.7538Y-2.2746
X4.754Y-2.1949
X4.7551Y-2.254
X4.7583Y-2.1823
X4.7589Y-2.6201
X4.7589Y-2.6358
X4.7592Y-2.2055
X4.7598Y-2.6535
X4.7618Y-2.6988
X4.7626Y-2.2442
X4.764Y-2.3183
X4.7677Y-2.7283
X4.7756Y-2.622
X4.776Y-2.3185
X4.7822Y-2.2362
X4.7825Y-2.2205
X4.7874Y-2.3622
X4.7874Y-2.6614
X4.7874Y-2.7008
X4.7904Y-2.8051
X4.7912Y-2.1802
X4.7913Y-2.6339
X4.7992Y-2.3002
X4.7997Y-2.2058
X4.8Y-2.2815
X4.8003Y-2.313
X4.8024Y-2.2343
X4.8031Y-2.1575
X4.8071Y-2.4695
X4.8081Y-2.8061
X4.811Y-2.3661
X4.814Y-2.2047
X4.814Y-2.2667
X4.8198Y-2.8072
X4.8287Y-2.2694
X4.8316Y-2.2214
X4.8317Y-2.2835
X4.8317Y-2.4675
X4.8318Y-2.2374
X4.8327Y-2.1506
X4.8346Y-2.7844
X4.8347Y-2.2581
X4.8361Y-2.2068
X4.8386Y-2.6339
X4.8396Y-2.5984
X4.8406Y-2.6722
X4.8408Y-2.808
X4.8435Y-2.1585
X4.8514Y-2.7638
X4.8583Y-2.3539
X4.8591Y-2.189
X4.8602Y-2.2224
X4.8622Y-2.1634
X4.8622Y-2.2666
X4.8622Y-2.2844
X4.865Y-2.2058
X4.8677Y-2.3193
X4.8691Y-2.8159
X4.8716Y-2.1184
X4.8766Y-2.2362
X4.8767Y-2.1634
X4.877Y-2.251
X4.877Y-2.2667
X4.8777Y-2.7133
X4.878Y-2.6732
X4.878Y-2.7323
X4.8786Y-2.6288
X4.8819Y-2.3661
X4.8927Y-2.2048
X4.8937Y-2.7844
X4.8969Y-2.1909
X4.8986Y-2.1713
X4.9039Y-2.2724
X4.9051Y-2.3122
X4.9051Y-2.3299
X4.9071Y-2.1622
X4.9104Y-2.7638
X4.9117Y-2.5958
X4.9125Y-2.6732
X4.9144Y-2.622
X4.9154Y-2.7185
X4.9163Y-2.6398
X4.9173Y-2.6604
X4.9173Y-2.6998
X4.9174Y-2.2751
X4.9177Y-2.7392
X4.9321Y-2.7854
X4.9331Y-2.122
X4.935Y-2.3228
X4.9359Y-2.8114
X4.9415Y-2.1752
X4.9419Y-2.2067
X4.9439Y-2.6171
X4.9606Y-2.3209
X4.9675Y-2.1732
X4.9685Y-2.2411
X4.9685Y-2.8287
X4.9699Y-2.7852
X4.9724Y-2.2037
X4.9744Y-2.3051
X4.9843Y-2.2559
X4.9843Y-2.811
X4.9852Y-2.2323
X4.9882Y-2.3287
X5.0Y-2.3661
X5.0049Y-2.2569
X5.0101Y-2.7636
X5.0246Y-2.1535
X5.0404Y-2.7559
X5.0413Y-2.3642
X5.0413Y-2.8002
X5.0551Y-2.1772
X5.0551Y-2.2571
X5.0551Y-2.3622
X5.0638Y-2.7866
X5.065Y-2.1929
X5.0669Y-2.2731
X5.0669Y-2.3701
X5.0689Y-2.3071
X5.0796Y-2.272
X5.0839Y-2.3738
X5.0869Y-2.357
X5.0886Y-2.3346
X5.0909Y-2.3231
X5.0925Y-2.7628
X5.0965Y-2.2874
X5.0984Y-2.37
X5.1063Y-2.7539
X5.1083Y-2.2874
X5.1093Y-2.6112
X5.1094Y-2.6495
X5.1122Y-2.625
X5.1122Y-2.6644
X5.1123Y-2.2421
X5.1142Y-2.3661
X5.1201Y-2.7411
X5.1289Y-2.7313
X5.1291Y-2.3071
X5.1299Y-2.3671
X5.1457Y-2.3671
X5.1467Y-2.3465
X5.1476Y-2.2874
X5.1503Y-2.4852
X5.1559Y-2.6047
X5.1611Y-2.5924
X5.1732Y-2.3346
X5.1736Y-2.6035
X5.1783Y-2.5913
X5.2126Y-2.0276
X5.2164Y-2.3954
X5.2173Y-2.563
X5.2205Y-2.4075
X5.2205Y-2.4252
T2
X4.1142Y-1.5354
X4.1535Y-1.9685
X4.1732Y-1.2402
X4.252Y-2.6969
X4.2913Y-2.2835
X4.5305Y-2.628
X4.5577Y-2.2916
X4.5651Y-2.688
X4.6327Y-2.1988
X4.6343Y-2.7197
X4.6368Y-2.3346
X4.6457Y-1.9094
X4.6642Y-2.3165
X4.7205Y-2.1673
X4.748Y-2.1713
X4.7657Y-2.7441
X4.7924Y-2.1347
X4.8583Y-2.6722
X4.8622Y-3.0906
X4.9325Y-2.7313
X4.9457Y-2.3626
X4.9724Y-2.6663
X4.9734Y-2.6181
X5.062Y-2.6658
X5.0915Y-2.6663
X5.0925Y-2.6289
X5.1388Y-2.2579
X5.4724Y-1.378
X5.4724Y-2.6969
X5.4921Y-1.6929
X5.6102Y-2.0276
T3
X4.6622Y-1.5058
X4.6622Y-1.6058
X4.7622Y-1.5058
X4.7622Y-1.6058
X4.8622Y-1.5058
X4.8622Y-1.6058
X4.9622Y-1.5058
X4.9622Y-1.6058
X5.0622Y-1.5058
X5.0622Y-1.6058
T0
M30
