%FSLAX45Y45*%
G04 Gerber Fmt 4.5, Leading zero omitted, Abs format (unit mm)*
G04 Created by KiCad (PCBNEW (6.0.0)) date 2022-01-23 05:48:25*
%MOMM*%
%LPD*%
G01*
G04 APERTURE LIST*
%TA.AperFunction,Profile*%
%ADD10C,0.050000*%
%TD*%
%ADD11C,0.200000*%
%ADD12C,0.020000*%
%ADD13C,0.050000*%
G04 APERTURE END LIST*
D10*
X18365000Y-6291848D02*
X18365000Y-6331508D01*
X18570000Y-6803934D02*
G75*
G03*
X18720000Y-6653934I0J150000D01*
G01*
X19460606Y-6221212D02*
G75*
G03*
X19473337Y-6193021I-17808J25012D01*
G01*
X18070000Y-6803934D02*
X18570000Y-6803934D01*
X20470000Y-6803934D02*
X20970000Y-6803934D01*
X19450355Y-6356152D02*
G75*
G03*
X19475000Y-6331508I0J24645D01*
G01*
X20790606Y-6240000D02*
G75*
G03*
X20778995Y-6221212I-21005J0D01*
G01*
X20673337Y-6160000D02*
G75*
G03*
X20648000Y-6135000I-25002J0D01*
G01*
X19770000Y-6803934D02*
G75*
G03*
X19920000Y-6653934I0J150000D01*
G01*
X17190606Y-6267203D02*
X17190606Y-6240000D01*
X20320000Y-6285000D02*
X20320000Y-6653934D01*
X18185000Y-6428726D02*
X18185000Y-6703934D01*
X18248000Y-6135000D02*
X18070000Y-6135000D01*
X17190606Y-6240000D02*
G75*
G03*
X17178995Y-6221212I-21005J0D01*
G01*
X18275000Y-6331508D02*
X18275000Y-6291848D01*
X19448000Y-6135000D02*
X19270000Y-6135000D01*
X20660606Y-6221212D02*
G75*
G03*
X20648995Y-6240000I9394J-18788D01*
G01*
X18273337Y-6193021D02*
X18273337Y-6160000D01*
X18365000Y-6331508D02*
G75*
G03*
X18389645Y-6356152I24645J0D01*
G01*
X20585000Y-6428726D02*
X20585000Y-6703934D01*
X19566265Y-6193021D02*
G75*
G03*
X19578995Y-6221212I30538J-3180D01*
G01*
X20675000Y-6291848D02*
G75*
G03*
X20648995Y-6267203I-24680J0D01*
G01*
X20855000Y-6703934D02*
X20855000Y-6428726D01*
X20792000Y-6135000D02*
G75*
G03*
X20766265Y-6160000I-1046J-24670D01*
G01*
X20470000Y-6135000D02*
G75*
G03*
X20320000Y-6285000I0J-150000D01*
G01*
X19565000Y-6291848D02*
X19565000Y-6331508D01*
X18250355Y-6356152D02*
G75*
G03*
X18275000Y-6331508I0J24645D01*
G01*
X19566265Y-6160000D02*
X19566265Y-6193021D01*
X20766265Y-6160000D02*
X20766265Y-6193021D01*
X18273337Y-6160000D02*
G75*
G03*
X18248000Y-6135000I-25002J0D01*
G01*
X20791005Y-6267203D02*
G75*
G03*
X20765000Y-6291848I-1325J-24645D01*
G01*
X20673337Y-6193021D02*
X20673337Y-6160000D01*
X20790606Y-6267203D02*
X20790606Y-6240000D01*
X20675000Y-6331508D02*
X20675000Y-6291848D01*
X19592000Y-6135000D02*
G75*
G03*
X19566265Y-6160000I-1046J-24670D01*
G01*
X21120000Y-6285000D02*
G75*
G03*
X20970000Y-6135000I-150000J0D01*
G01*
X19270000Y-6803934D02*
X19770000Y-6803934D01*
X19120000Y-6285000D02*
X19120000Y-6653934D01*
X20765000Y-6331508D02*
G75*
G03*
X20789645Y-6356152I24645J0D01*
G01*
X19475000Y-6291848D02*
G75*
G03*
X19448995Y-6267203I-24680J0D01*
G01*
X20650355Y-6356152D02*
G75*
G03*
X20585000Y-6428726I7617J-72573D01*
G01*
X19920000Y-6285000D02*
G75*
G03*
X19770000Y-6135000I-150000J0D01*
G01*
X20970000Y-6803934D02*
G75*
G03*
X21120000Y-6653934I0J150000D01*
G01*
X19460606Y-6221212D02*
G75*
G03*
X19448995Y-6240000I9394J-18788D01*
G01*
X19450355Y-6356152D02*
G75*
G03*
X19385000Y-6428726I7617J-72573D01*
G01*
X18390606Y-6267203D02*
X18390606Y-6240000D01*
X18390606Y-6240000D02*
G75*
G03*
X18378995Y-6221212I-21005J0D01*
G01*
X19270000Y-6135000D02*
G75*
G03*
X19120000Y-6285000I0J-150000D01*
G01*
X18260606Y-6221212D02*
G75*
G03*
X18248995Y-6240000I9394J-18788D01*
G01*
X18455000Y-6703934D02*
X18455000Y-6428726D01*
X17050355Y-6356152D02*
G75*
G03*
X16985000Y-6428726I7617J-72573D01*
G01*
X18070000Y-6135000D02*
G75*
G03*
X17920000Y-6285000I0J-150000D01*
G01*
X19475000Y-6331508D02*
X19475000Y-6291848D01*
X20585000Y-6703934D02*
X20855000Y-6703934D01*
X20855000Y-6428726D02*
G75*
G03*
X20789645Y-6356152I-72973J0D01*
G01*
X18391005Y-6267203D02*
G75*
G03*
X18365000Y-6291848I-1325J-24645D01*
G01*
X15831066Y-6291848D02*
G75*
G03*
X15805061Y-6267203I-24680J0D01*
G01*
X20648995Y-6240000D02*
X20648995Y-6267203D01*
X20320000Y-6653934D02*
G75*
G03*
X20470000Y-6803934I150000J0D01*
G01*
X18366265Y-6160000D02*
X18366265Y-6193021D01*
X15804066Y-6135000D02*
X15626066Y-6135000D01*
X17520000Y-6285000D02*
G75*
G03*
X17370000Y-6135000I-150000J0D01*
G01*
X15816672Y-6221212D02*
G75*
G03*
X15829403Y-6193021I-17808J25012D01*
G01*
X19448995Y-6240000D02*
X19448995Y-6267203D01*
X16985000Y-6703934D02*
X17255000Y-6703934D01*
X15921066Y-6291848D02*
X15921066Y-6331508D01*
X17520000Y-6653934D02*
X17520000Y-6285000D01*
X19590606Y-6267203D02*
X19590606Y-6240000D01*
X18260606Y-6221212D02*
G75*
G03*
X18273337Y-6193021I-17808J25012D01*
G01*
X17255000Y-6703934D02*
X17255000Y-6428726D01*
X16720000Y-6653934D02*
G75*
G03*
X16870000Y-6803934I150000J0D01*
G01*
X18570000Y-6135000D02*
X18392000Y-6135000D01*
X19770000Y-6135000D02*
X19592000Y-6135000D01*
X17255000Y-6428726D02*
G75*
G03*
X17189645Y-6356152I-72973J0D01*
G01*
X20648000Y-6135000D02*
X20470000Y-6135000D01*
X18720000Y-6653934D02*
X18720000Y-6285000D01*
X15946672Y-6240000D02*
G75*
G03*
X15935061Y-6221212I-21005J0D01*
G01*
X15816672Y-6221212D02*
G75*
G03*
X15805061Y-6240000I9394J-18788D01*
G01*
X17050355Y-6356152D02*
G75*
G03*
X17075000Y-6331508I0J24645D01*
G01*
X15922330Y-6160000D02*
X15922330Y-6193021D01*
X17075000Y-6291848D02*
G75*
G03*
X17048995Y-6267203I-24680J0D01*
G01*
X18720000Y-6285000D02*
G75*
G03*
X18570000Y-6135000I-150000J0D01*
G01*
X18185000Y-6703934D02*
X18455000Y-6703934D01*
X19473337Y-6160000D02*
G75*
G03*
X19448000Y-6135000I-25002J0D01*
G01*
X19590606Y-6240000D02*
G75*
G03*
X19578995Y-6221212I-21005J0D01*
G01*
X19473337Y-6193021D02*
X19473337Y-6160000D01*
X15626066Y-6135000D02*
G75*
G03*
X15476066Y-6285000I0J-150000D01*
G01*
X19120000Y-6653934D02*
G75*
G03*
X19270000Y-6803934I150000J0D01*
G01*
X16870000Y-6803934D02*
X17370000Y-6803934D01*
X20650355Y-6356152D02*
G75*
G03*
X20675000Y-6331508I0J24645D01*
G01*
X20765000Y-6291848D02*
X20765000Y-6331508D01*
X17920000Y-6285000D02*
X17920000Y-6653934D01*
X17073337Y-6193021D02*
X17073337Y-6160000D01*
X16011066Y-6703934D02*
X16011066Y-6428726D01*
X15806421Y-6356152D02*
G75*
G03*
X15831066Y-6331508I0J24645D01*
G01*
X20766265Y-6193021D02*
G75*
G03*
X20778995Y-6221212I30538J-3180D01*
G01*
X21120000Y-6653934D02*
X21120000Y-6285000D01*
X17920000Y-6653934D02*
G75*
G03*
X18070000Y-6803934I150000J0D01*
G01*
X19385000Y-6703934D02*
X19655000Y-6703934D01*
X17166265Y-6193021D02*
G75*
G03*
X17178995Y-6221212I30538J-3180D01*
G01*
X19385000Y-6428726D02*
X19385000Y-6703934D01*
X15829403Y-6160000D02*
G75*
G03*
X15804066Y-6135000I-25002J0D01*
G01*
X16720000Y-6285000D02*
X16720000Y-6653934D01*
X18366265Y-6193021D02*
G75*
G03*
X18378995Y-6221212I30538J-3180D01*
G01*
X15476066Y-6653934D02*
G75*
G03*
X15626066Y-6803934I150000J0D01*
G01*
X17048000Y-6135000D02*
X16870000Y-6135000D01*
X15948066Y-6135000D02*
G75*
G03*
X15922330Y-6160000I-1046J-24670D01*
G01*
X19655000Y-6703934D02*
X19655000Y-6428726D01*
X17048995Y-6240000D02*
X17048995Y-6267203D01*
X20970000Y-6135000D02*
X20792000Y-6135000D01*
X19655000Y-6428726D02*
G75*
G03*
X19589645Y-6356152I-72973J0D01*
G01*
X20660606Y-6221212D02*
G75*
G03*
X20673337Y-6193021I-17808J25012D01*
G01*
X16011066Y-6428726D02*
G75*
G03*
X15945711Y-6356152I-72973J0D01*
G01*
X15831066Y-6331508D02*
X15831066Y-6291848D01*
X16276066Y-6653934D02*
X16276066Y-6285000D01*
X15921066Y-6331508D02*
G75*
G03*
X15945711Y-6356152I24645J0D01*
G01*
X17166265Y-6160000D02*
X17166265Y-6193021D01*
X17370000Y-6803934D02*
G75*
G03*
X17520000Y-6653934I0J150000D01*
G01*
X18275000Y-6291848D02*
G75*
G03*
X18248995Y-6267203I-24680J0D01*
G01*
X18455000Y-6428726D02*
G75*
G03*
X18389645Y-6356152I-72973J0D01*
G01*
X17191005Y-6267203D02*
G75*
G03*
X17165000Y-6291848I-1325J-24645D01*
G01*
X15805061Y-6240000D02*
X15805061Y-6267203D01*
X15829403Y-6193021D02*
X15829403Y-6160000D01*
X18392000Y-6135000D02*
G75*
G03*
X18366265Y-6160000I-1046J-24670D01*
G01*
X15947071Y-6267203D02*
G75*
G03*
X15921066Y-6291848I-1325J-24645D01*
G01*
X17075000Y-6331508D02*
X17075000Y-6291848D01*
X17073337Y-6160000D02*
G75*
G03*
X17048000Y-6135000I-25002J0D01*
G01*
X15626066Y-6803934D02*
X16126066Y-6803934D01*
X16126066Y-6135000D02*
X15948066Y-6135000D01*
X17370000Y-6135000D02*
X17192000Y-6135000D01*
X17192000Y-6135000D02*
G75*
G03*
X17166265Y-6160000I-1046J-24670D01*
G01*
X19591005Y-6267203D02*
G75*
G03*
X19565000Y-6291848I-1325J-24645D01*
G01*
X15476066Y-6285000D02*
X15476066Y-6653934D01*
X19565000Y-6331508D02*
G75*
G03*
X19589645Y-6356152I24645J0D01*
G01*
X16870000Y-6135000D02*
G75*
G03*
X16720000Y-6285000I0J-150000D01*
G01*
X15922330Y-6193021D02*
G75*
G03*
X15935061Y-6221212I30538J-3180D01*
G01*
X18248995Y-6240000D02*
X18248995Y-6267203D01*
X15741066Y-6703934D02*
X16011066Y-6703934D01*
X17060606Y-6221212D02*
G75*
G03*
X17048995Y-6240000I9394J-18788D01*
G01*
X18250355Y-6356152D02*
G75*
G03*
X18185000Y-6428726I7617J-72573D01*
G01*
X16276066Y-6285000D02*
G75*
G03*
X16126066Y-6135000I-150000J0D01*
G01*
X15806421Y-6356152D02*
G75*
G03*
X15741066Y-6428726I7617J-72573D01*
G01*
X16126066Y-6803934D02*
G75*
G03*
X16276066Y-6653934I0J150000D01*
G01*
X19920000Y-6653934D02*
X19920000Y-6285000D01*
X15946672Y-6267203D02*
X15946672Y-6240000D01*
X17165000Y-6291848D02*
X17165000Y-6331508D01*
X16985000Y-6428726D02*
X16985000Y-6703934D01*
X15741066Y-6428726D02*
X15741066Y-6703934D01*
X17165000Y-6331508D02*
G75*
G03*
X17189645Y-6356152I24645J0D01*
G01*
X17060606Y-6221212D02*
G75*
G03*
X17073337Y-6193021I-17808J25012D01*
G01*
X20792000Y-7247132D02*
G75*
G03*
X20766265Y-7272132I-1046J-24670D01*
G01*
X20790606Y-7352132D02*
G75*
G03*
X20778995Y-7333345I-21005J0D01*
G01*
X19592000Y-7247132D02*
G75*
G03*
X19566265Y-7272132I-1046J-24670D01*
G01*
X20673337Y-7272132D02*
G75*
G03*
X20648000Y-7247132I-25002J0D01*
G01*
X20585000Y-7540858D02*
X20585000Y-7816066D01*
X20766265Y-7272132D02*
X20766265Y-7305153D01*
X20675000Y-7443640D02*
X20675000Y-7403980D01*
X20673337Y-7305153D02*
X20673337Y-7272132D01*
X20791005Y-7379335D02*
G75*
G03*
X20765000Y-7403980I-1325J-24645D01*
G01*
X20470000Y-7916066D02*
X20970000Y-7916066D01*
X20320000Y-7397132D02*
X20320000Y-7766066D01*
X20790606Y-7379335D02*
X20790606Y-7352132D01*
X21120000Y-7397132D02*
G75*
G03*
X20970000Y-7247132I-150000J0D01*
G01*
X19270000Y-7247132D02*
G75*
G03*
X19120000Y-7397132I0J-150000D01*
G01*
X19460606Y-7333345D02*
G75*
G03*
X19448995Y-7352132I9394J-18788D01*
G01*
X18248000Y-7247132D02*
X18070000Y-7247132D01*
X20765000Y-7443640D02*
G75*
G03*
X20789645Y-7468284I24645J0D01*
G01*
X19450355Y-7468284D02*
G75*
G03*
X19475000Y-7443640I0J24645D01*
G01*
X19120000Y-7397132D02*
X19120000Y-7766066D01*
X19270000Y-7916066D02*
X19770000Y-7916066D01*
X18365000Y-7403980D02*
X18365000Y-7443640D01*
X18070000Y-7916066D02*
X18570000Y-7916066D01*
X18273337Y-7272132D02*
G75*
G03*
X18248000Y-7247132I-25002J0D01*
G01*
X18185000Y-7540858D02*
X18185000Y-7816066D01*
X19450355Y-7468284D02*
G75*
G03*
X19385000Y-7540858I7617J-72573D01*
G01*
X19475000Y-7403980D02*
G75*
G03*
X19448995Y-7379335I-24680J0D01*
G01*
X18390606Y-7352132D02*
G75*
G03*
X18378995Y-7333345I-21005J0D01*
G01*
X18570000Y-7916066D02*
G75*
G03*
X18720000Y-7766066I0J150000D01*
G01*
X17190606Y-7352132D02*
G75*
G03*
X17178995Y-7333345I-21005J0D01*
G01*
X18275000Y-7443640D02*
X18275000Y-7403980D01*
X19920000Y-7397132D02*
G75*
G03*
X19770000Y-7247132I-150000J0D01*
G01*
X19770000Y-7916066D02*
G75*
G03*
X19920000Y-7766066I0J150000D01*
G01*
X18390606Y-7379335D02*
X18390606Y-7352132D01*
X20970000Y-7916066D02*
G75*
G03*
X21120000Y-7766066I0J150000D01*
G01*
X20470000Y-7247132D02*
G75*
G03*
X20320000Y-7397132I0J-150000D01*
G01*
X20650355Y-7468284D02*
G75*
G03*
X20585000Y-7540858I7617J-72573D01*
G01*
X19460606Y-7333345D02*
G75*
G03*
X19473337Y-7305153I-17808J25012D01*
G01*
X17190606Y-7379335D02*
X17190606Y-7352132D01*
X20675000Y-7403980D02*
G75*
G03*
X20648995Y-7379335I-24680J0D01*
G01*
X20660606Y-7333345D02*
G75*
G03*
X20648995Y-7352132I9394J-18788D01*
G01*
X19566265Y-7272132D02*
X19566265Y-7305153D01*
X20855000Y-7816066D02*
X20855000Y-7540858D01*
X18273337Y-7305153D02*
X18273337Y-7272132D01*
X18365000Y-7443640D02*
G75*
G03*
X18389645Y-7468284I24645J0D01*
G01*
X19448000Y-7247132D02*
X19270000Y-7247132D01*
X18250355Y-7468284D02*
G75*
G03*
X18275000Y-7443640I0J24645D01*
G01*
X19565000Y-7403980D02*
X19565000Y-7443640D01*
X19566265Y-7305153D02*
G75*
G03*
X19578995Y-7333345I30538J-3180D01*
G01*
X19655000Y-7816066D02*
X19655000Y-7540858D01*
X20660606Y-7333345D02*
G75*
G03*
X20673337Y-7305153I-17808J25012D01*
G01*
X18455000Y-7816066D02*
X18455000Y-7540858D01*
X20766265Y-7305153D02*
G75*
G03*
X20778995Y-7333345I30538J-3180D01*
G01*
X19475000Y-7443640D02*
X19475000Y-7403980D01*
X20585000Y-7816066D02*
X20855000Y-7816066D01*
X20855000Y-7540858D02*
G75*
G03*
X20789645Y-7468284I-72973J0D01*
G01*
X20648995Y-7352132D02*
X20648995Y-7379335D01*
X19473337Y-7272132D02*
G75*
G03*
X19448000Y-7247132I-25002J0D01*
G01*
X18260606Y-7333345D02*
G75*
G03*
X18273337Y-7305153I-17808J25012D01*
G01*
X19590606Y-7379335D02*
X19590606Y-7352132D01*
X20650355Y-7468284D02*
G75*
G03*
X20675000Y-7443640I0J24645D01*
G01*
X19473337Y-7305153D02*
X19473337Y-7272132D01*
X20320000Y-7766066D02*
G75*
G03*
X20470000Y-7916066I150000J0D01*
G01*
X18570000Y-7247132D02*
X18392000Y-7247132D01*
X20765000Y-7403980D02*
X20765000Y-7443640D01*
X19655000Y-7540858D02*
G75*
G03*
X19589645Y-7468284I-72973J0D01*
G01*
X21120000Y-7766066D02*
X21120000Y-7397132D01*
X19590606Y-7352132D02*
G75*
G03*
X19578995Y-7333345I-21005J0D01*
G01*
X17920000Y-7766066D02*
G75*
G03*
X18070000Y-7916066I150000J0D01*
G01*
X18070000Y-7247132D02*
G75*
G03*
X17920000Y-7397132I0J-150000D01*
G01*
X19770000Y-7247132D02*
X19592000Y-7247132D01*
X17920000Y-7397132D02*
X17920000Y-7766066D01*
X18391005Y-7379335D02*
G75*
G03*
X18365000Y-7403980I-1325J-24645D01*
G01*
X17166265Y-7305153D02*
G75*
G03*
X17178995Y-7333345I30538J-3180D01*
G01*
X18720000Y-7766066D02*
X18720000Y-7397132D01*
X19120000Y-7766066D02*
G75*
G03*
X19270000Y-7916066I150000J0D01*
G01*
X18366265Y-7272132D02*
X18366265Y-7305153D01*
X19385000Y-7816066D02*
X19655000Y-7816066D01*
X20970000Y-7247132D02*
X20792000Y-7247132D01*
X20648000Y-7247132D02*
X20470000Y-7247132D01*
X18366265Y-7305153D02*
G75*
G03*
X18378995Y-7333345I30538J-3180D01*
G01*
X15831066Y-7403980D02*
G75*
G03*
X15805061Y-7379335I-24680J0D01*
G01*
X17073337Y-7305153D02*
X17073337Y-7272132D01*
X19448995Y-7352132D02*
X19448995Y-7379335D01*
X16720000Y-7766066D02*
G75*
G03*
X16870000Y-7916066I150000J0D01*
G01*
X15626066Y-7247132D02*
G75*
G03*
X15476066Y-7397132I0J-150000D01*
G01*
X15921066Y-7403980D02*
X15921066Y-7443640D01*
X17255000Y-7540858D02*
G75*
G03*
X17189645Y-7468284I-72973J0D01*
G01*
X15946672Y-7352132D02*
G75*
G03*
X15935061Y-7333345I-21005J0D01*
G01*
X18720000Y-7397132D02*
G75*
G03*
X18570000Y-7247132I-150000J0D01*
G01*
X19385000Y-7540858D02*
X19385000Y-7816066D01*
X17048000Y-7247132D02*
X16870000Y-7247132D01*
X18260606Y-7333345D02*
G75*
G03*
X18248995Y-7352132I9394J-18788D01*
G01*
X18185000Y-7816066D02*
X18455000Y-7816066D01*
X17520000Y-7766066D02*
X17520000Y-7397132D01*
X15816672Y-7333345D02*
G75*
G03*
X15829403Y-7305153I-17808J25012D01*
G01*
X16870000Y-7916066D02*
X17370000Y-7916066D01*
X15816672Y-7333345D02*
G75*
G03*
X15805061Y-7352132I9394J-18788D01*
G01*
X17050355Y-7468284D02*
G75*
G03*
X16985000Y-7540858I7617J-72573D01*
G01*
X16011066Y-7816066D02*
X16011066Y-7540858D01*
X17050355Y-7468284D02*
G75*
G03*
X17075000Y-7443640I0J24645D01*
G01*
X16985000Y-7816066D02*
X17255000Y-7816066D01*
X17075000Y-7403980D02*
G75*
G03*
X17048995Y-7379335I-24680J0D01*
G01*
X15804066Y-7247132D02*
X15626066Y-7247132D01*
X16720000Y-7397132D02*
X16720000Y-7766066D01*
X15948066Y-7247132D02*
G75*
G03*
X15922330Y-7272132I-1046J-24670D01*
G01*
X15806421Y-7468284D02*
G75*
G03*
X15831066Y-7443640I0J24645D01*
G01*
X15476066Y-7766066D02*
G75*
G03*
X15626066Y-7916066I150000J0D01*
G01*
X17048995Y-7352132D02*
X17048995Y-7379335D01*
X17520000Y-7397132D02*
G75*
G03*
X17370000Y-7247132I-150000J0D01*
G01*
X15829403Y-7272132D02*
G75*
G03*
X15804066Y-7247132I-25002J0D01*
G01*
X17255000Y-7816066D02*
X17255000Y-7540858D01*
X15922330Y-7272132D02*
X15922330Y-7305153D01*
X17192000Y-7247132D02*
G75*
G03*
X17166265Y-7272132I-1046J-24670D01*
G01*
X19591005Y-7379335D02*
G75*
G03*
X19565000Y-7403980I-1325J-24645D01*
G01*
X15476066Y-7397132D02*
X15476066Y-7766066D01*
X19565000Y-7443640D02*
G75*
G03*
X19589645Y-7468284I24645J0D01*
G01*
X16870000Y-7247132D02*
G75*
G03*
X16720000Y-7397132I0J-150000D01*
G01*
X17370000Y-7247132D02*
X17192000Y-7247132D01*
X15922330Y-7305153D02*
G75*
G03*
X15935061Y-7333345I30538J-3180D01*
G01*
X18248995Y-7352132D02*
X18248995Y-7379335D01*
X17060606Y-7333345D02*
G75*
G03*
X17048995Y-7352132I9394J-18788D01*
G01*
X18250355Y-7468284D02*
G75*
G03*
X18185000Y-7540858I7617J-72573D01*
G01*
X15806421Y-7468284D02*
G75*
G03*
X15741066Y-7540858I7617J-72573D01*
G01*
X15741066Y-7816066D02*
X16011066Y-7816066D01*
X16985000Y-7540858D02*
X16985000Y-7816066D01*
X17060606Y-7333345D02*
G75*
G03*
X17073337Y-7305153I-17808J25012D01*
G01*
X19920000Y-7766066D02*
X19920000Y-7397132D01*
X18275000Y-7403980D02*
G75*
G03*
X18248995Y-7379335I-24680J0D01*
G01*
X17166265Y-7272132D02*
X17166265Y-7305153D01*
X17191005Y-7379335D02*
G75*
G03*
X17165000Y-7403980I-1325J-24645D01*
G01*
X18392000Y-7247132D02*
G75*
G03*
X18366265Y-7272132I-1046J-24670D01*
G01*
X18455000Y-7540858D02*
G75*
G03*
X18389645Y-7468284I-72973J0D01*
G01*
X17165000Y-7443640D02*
G75*
G03*
X17189645Y-7468284I24645J0D01*
G01*
X17370000Y-7916066D02*
G75*
G03*
X17520000Y-7766066I0J150000D01*
G01*
X17075000Y-7443640D02*
X17075000Y-7403980D01*
X17073337Y-7272132D02*
G75*
G03*
X17048000Y-7247132I-25002J0D01*
G01*
X15946672Y-7379335D02*
X15946672Y-7352132D01*
X15829403Y-7305153D02*
X15829403Y-7272132D01*
X15741066Y-7540858D02*
X15741066Y-7816066D01*
X17165000Y-7403980D02*
X17165000Y-7443640D01*
X15626066Y-7916066D02*
X16126066Y-7916066D01*
X16276066Y-7397132D02*
G75*
G03*
X16126066Y-7247132I-150000J0D01*
G01*
X15947071Y-7379335D02*
G75*
G03*
X15921066Y-7403980I-1325J-24645D01*
G01*
X16126066Y-7916066D02*
G75*
G03*
X16276066Y-7766066I0J150000D01*
G01*
X15805061Y-7352132D02*
X15805061Y-7379335D01*
X19270000Y-8341066D02*
G75*
G03*
X19120000Y-8491066I0J-150000D01*
G01*
X19592000Y-8341066D02*
G75*
G03*
X19566264Y-8366066I-1046J-24670D01*
G01*
X19460606Y-8427279D02*
G75*
G03*
X19448995Y-8446066I9394J-18788D01*
G01*
X20790606Y-8446066D02*
G75*
G03*
X20778995Y-8427279I-21005J0D01*
G01*
X20673337Y-8399087D02*
X20673337Y-8366066D01*
X20470000Y-9010000D02*
X20970000Y-9010000D01*
X20585000Y-8634792D02*
X20585000Y-8910000D01*
X20791005Y-8473269D02*
G75*
G03*
X20765000Y-8497914I-1325J-24645D01*
G01*
X21120000Y-8491066D02*
G75*
G03*
X20970000Y-8341066I-150000J0D01*
G01*
X20675000Y-8537574D02*
X20675000Y-8497914D01*
X20766264Y-8366066D02*
X20766264Y-8399087D01*
X20673337Y-8366066D02*
G75*
G03*
X20648000Y-8341066I-25002J0D01*
G01*
X20792000Y-8341066D02*
G75*
G03*
X20766264Y-8366066I-1046J-24670D01*
G01*
X20790606Y-8473269D02*
X20790606Y-8446066D01*
X20320000Y-8491066D02*
X20320000Y-8860000D01*
X20470000Y-8341066D02*
G75*
G03*
X20320000Y-8491066I0J-150000D01*
G01*
X16126066Y-7247132D02*
X15948066Y-7247132D01*
X15921066Y-7443640D02*
G75*
G03*
X15945711Y-7468284I24645J0D01*
G01*
X20650355Y-8562218D02*
G75*
G03*
X20585000Y-8634792I7617J-72573D01*
G01*
X20766264Y-8399087D02*
G75*
G03*
X20778995Y-8427279I30538J-3180D01*
G01*
X20585000Y-8910000D02*
X20855000Y-8910000D01*
X20675000Y-8497914D02*
G75*
G03*
X20648995Y-8473269I-24680J0D01*
G01*
X20855000Y-8634792D02*
G75*
G03*
X20789645Y-8562218I-72973J0D01*
G01*
X20648995Y-8446066D02*
X20648995Y-8473269D01*
X20660606Y-8427279D02*
G75*
G03*
X20648995Y-8446066I9394J-18788D01*
G01*
X19473337Y-8366066D02*
G75*
G03*
X19448000Y-8341066I-25002J0D01*
G01*
X19590606Y-8473269D02*
X19590606Y-8446066D01*
X16276066Y-7766066D02*
X16276066Y-7397132D01*
X20650355Y-8562218D02*
G75*
G03*
X20675000Y-8537574I0J24645D01*
G01*
X20320000Y-8860000D02*
G75*
G03*
X20470000Y-9010000I150000J0D01*
G01*
X19566264Y-8366066D02*
X19566264Y-8399087D01*
X19566264Y-8399087D02*
G75*
G03*
X19578995Y-8427279I30538J-3180D01*
G01*
X19590606Y-8446066D02*
G75*
G03*
X19578995Y-8427279I-21005J0D01*
G01*
X20970000Y-8341066D02*
X20792000Y-8341066D01*
X20855000Y-8910000D02*
X20855000Y-8634792D01*
X20765000Y-8497914D02*
X20765000Y-8537574D01*
X20648000Y-8341066D02*
X20470000Y-8341066D01*
X20970000Y-9010000D02*
G75*
G03*
X21120000Y-8860000I0J150000D01*
G01*
X21120000Y-8860000D02*
X21120000Y-8491066D01*
X20765000Y-8537574D02*
G75*
G03*
X20789645Y-8562218I24645J0D01*
G01*
X19473337Y-8399087D02*
X19473337Y-8366066D01*
X20660606Y-8427279D02*
G75*
G03*
X20673337Y-8399087I-17808J25012D01*
G01*
X16011066Y-7540858D02*
G75*
G03*
X15945711Y-7468284I-72973J0D01*
G01*
X15831066Y-7443640D02*
X15831066Y-7403980D01*
X18365000Y-8537574D02*
G75*
G03*
X18389645Y-8562218I24645J0D01*
G01*
X19450355Y-8562218D02*
G75*
G03*
X19475000Y-8537574I0J24645D01*
G01*
X19120000Y-8491066D02*
X19120000Y-8860000D01*
X17920000Y-8860000D02*
G75*
G03*
X18070000Y-9010000I150000J0D01*
G01*
X19475000Y-8537574D02*
X19475000Y-8497914D01*
X19385000Y-8910000D02*
X19655000Y-8910000D01*
X19270000Y-9010000D02*
X19770000Y-9010000D01*
X18365000Y-8497914D02*
X18365000Y-8537574D01*
X18070000Y-9010000D02*
X18570000Y-9010000D01*
X19655000Y-8634792D02*
G75*
G03*
X19589645Y-8562218I-72973J0D01*
G01*
X18570000Y-8341066D02*
X18392000Y-8341066D01*
X18273337Y-8366066D02*
G75*
G03*
X18248000Y-8341066I-25002J0D01*
G01*
X18273337Y-8399087D02*
X18273337Y-8366066D01*
X18070000Y-8341066D02*
G75*
G03*
X17920000Y-8491066I0J-150000D01*
G01*
X19565000Y-8497914D02*
X19565000Y-8537574D01*
X19120000Y-8860000D02*
G75*
G03*
X19270000Y-9010000I150000J0D01*
G01*
X19770000Y-8341066D02*
X19592000Y-8341066D01*
X18185000Y-8634792D02*
X18185000Y-8910000D01*
X19450355Y-8562218D02*
G75*
G03*
X19385000Y-8634792I7617J-72573D01*
G01*
X19475000Y-8497914D02*
G75*
G03*
X19448995Y-8473269I-24680J0D01*
G01*
X19770000Y-9010000D02*
G75*
G03*
X19920000Y-8860000I0J150000D01*
G01*
X18390606Y-8446066D02*
G75*
G03*
X18378995Y-8427279I-21005J0D01*
G01*
X18260606Y-8427279D02*
G75*
G03*
X18273337Y-8399087I-17808J25012D01*
G01*
X17166264Y-8399087D02*
G75*
G03*
X17178995Y-8427279I30538J-3180D01*
G01*
X18248000Y-8341066D02*
X18070000Y-8341066D01*
X18391005Y-8473269D02*
G75*
G03*
X18365000Y-8497914I-1325J-24645D01*
G01*
X18570000Y-9010000D02*
G75*
G03*
X18720000Y-8860000I0J150000D01*
G01*
X18720000Y-8860000D02*
X18720000Y-8491066D01*
X17190606Y-8446066D02*
G75*
G03*
X17178995Y-8427279I-21005J0D01*
G01*
X18250355Y-8562218D02*
G75*
G03*
X18275000Y-8537574I0J24645D01*
G01*
X18455000Y-8910000D02*
X18455000Y-8634792D01*
X19460606Y-8427279D02*
G75*
G03*
X19473337Y-8399087I-17808J25012D01*
G01*
X19655000Y-8910000D02*
X19655000Y-8634792D01*
X17920000Y-8491066D02*
X17920000Y-8860000D01*
X19448000Y-8341066D02*
X19270000Y-8341066D01*
X17190606Y-8473269D02*
X17190606Y-8446066D01*
X18390606Y-8473269D02*
X18390606Y-8446066D01*
X18366264Y-8366066D02*
X18366264Y-8399087D01*
X18275000Y-8537574D02*
X18275000Y-8497914D01*
X19920000Y-8491066D02*
G75*
G03*
X19770000Y-8341066I-150000J0D01*
G01*
X17192000Y-8341066D02*
G75*
G03*
X17166264Y-8366066I-1046J-24670D01*
G01*
X19565000Y-8537574D02*
G75*
G03*
X19589645Y-8562218I24645J0D01*
G01*
X18248995Y-8446066D02*
X18248995Y-8473269D01*
X19920000Y-8860000D02*
X19920000Y-8491066D01*
X17166264Y-8366066D02*
X17166264Y-8399087D01*
X18366264Y-8399087D02*
G75*
G03*
X18378995Y-8427279I30538J-3180D01*
G01*
X17073337Y-8399087D02*
X17073337Y-8366066D01*
X18392000Y-8341066D02*
G75*
G03*
X18366264Y-8366066I-1046J-24670D01*
G01*
X17060606Y-8427279D02*
G75*
G03*
X17048995Y-8446066I9394J-18788D01*
G01*
X18250355Y-8562218D02*
G75*
G03*
X18185000Y-8634792I7617J-72573D01*
G01*
X18455000Y-8634792D02*
G75*
G03*
X18389645Y-8562218I-72973J0D01*
G01*
X19448995Y-8446066D02*
X19448995Y-8473269D01*
X18275000Y-8497914D02*
G75*
G03*
X18248995Y-8473269I-24680J0D01*
G01*
X18720000Y-8491066D02*
G75*
G03*
X18570000Y-8341066I-150000J0D01*
G01*
X19385000Y-8634792D02*
X19385000Y-8910000D01*
X19591005Y-8473269D02*
G75*
G03*
X19565000Y-8497914I-1325J-24645D01*
G01*
X18260606Y-8427279D02*
G75*
G03*
X18248995Y-8446066I9394J-18788D01*
G01*
X18185000Y-8910000D02*
X18455000Y-8910000D01*
X16870000Y-8341066D02*
G75*
G03*
X16720000Y-8491066I0J-150000D01*
G01*
X17073337Y-8366066D02*
G75*
G03*
X17048000Y-8341066I-25002J0D01*
G01*
X17048000Y-8341066D02*
X16870000Y-8341066D01*
X17050355Y-8562218D02*
G75*
G03*
X17075000Y-8537574I0J24645D01*
G01*
X17060606Y-8427279D02*
G75*
G03*
X17073337Y-8399087I-17808J25012D01*
G01*
X17520000Y-8860000D02*
X17520000Y-8491066D01*
X16985000Y-8910000D02*
X17255000Y-8910000D01*
X16985000Y-8634792D02*
X16985000Y-8910000D01*
X16870000Y-9010000D02*
X17370000Y-9010000D01*
X17165000Y-8497914D02*
X17165000Y-8537574D01*
X16720000Y-8860000D02*
G75*
G03*
X16870000Y-9010000I150000J0D01*
G01*
X17050355Y-8562218D02*
G75*
G03*
X16985000Y-8634792I7617J-72573D01*
G01*
X17075000Y-8497914D02*
G75*
G03*
X17048995Y-8473269I-24680J0D01*
G01*
X17191005Y-8473269D02*
G75*
G03*
X17165000Y-8497914I-1325J-24645D01*
G01*
X17370000Y-9010000D02*
G75*
G03*
X17520000Y-8860000I0J150000D01*
G01*
X17048995Y-8446066D02*
X17048995Y-8473269D01*
X17165000Y-8537574D02*
G75*
G03*
X17189645Y-8562218I24645J0D01*
G01*
X17255000Y-8634792D02*
G75*
G03*
X17189645Y-8562218I-72973J0D01*
G01*
X17075000Y-8537574D02*
X17075000Y-8497914D01*
X17255000Y-8910000D02*
X17255000Y-8634792D01*
X16720000Y-8491066D02*
X16720000Y-8860000D01*
X17520000Y-8491066D02*
G75*
G03*
X17370000Y-8341066I-150000J0D01*
G01*
X17370000Y-8341066D02*
X17192000Y-8341066D01*
X15922330Y-8366066D02*
X15922330Y-8399087D01*
X15922330Y-8399087D02*
G75*
G03*
X15935061Y-8427279I30538J-3180D01*
G01*
X15829403Y-8366066D02*
G75*
G03*
X15804066Y-8341066I-25002J0D01*
G01*
X15946672Y-8446066D02*
G75*
G03*
X15935061Y-8427279I-21005J0D01*
G01*
X15948066Y-8341066D02*
G75*
G03*
X15922330Y-8366066I-1046J-24670D01*
G01*
X15946672Y-8473269D02*
X15946672Y-8446066D01*
X15816672Y-8427279D02*
G75*
G03*
X15805061Y-8446066I9394J-18788D01*
G01*
X15829403Y-8399087D02*
X15829403Y-8366066D01*
X15626066Y-8341066D02*
G75*
G03*
X15476066Y-8491066I0J-150000D01*
G01*
X15806421Y-8562218D02*
G75*
G03*
X15831066Y-8537574I0J24645D01*
G01*
X15816672Y-8427279D02*
G75*
G03*
X15829403Y-8399087I-17808J25012D01*
G01*
X15741066Y-8634792D02*
X15741066Y-8910000D01*
X15921066Y-8497914D02*
X15921066Y-8537574D01*
X15476066Y-8860000D02*
G75*
G03*
X15626066Y-9010000I150000J0D01*
G01*
X15741066Y-8910000D02*
X16011066Y-8910000D01*
X16011066Y-8910000D02*
X16011066Y-8634792D01*
X15804066Y-8341066D02*
X15626066Y-8341066D01*
X15806421Y-8562218D02*
G75*
G03*
X15741066Y-8634792I7617J-72573D01*
G01*
X15831066Y-8497914D02*
G75*
G03*
X15805061Y-8473269I-24680J0D01*
G01*
X15476066Y-8491066D02*
X15476066Y-8860000D01*
X15626066Y-9010000D02*
X16126066Y-9010000D01*
X16276066Y-8491066D02*
G75*
G03*
X16126066Y-8341066I-150000J0D01*
G01*
X15947071Y-8473269D02*
G75*
G03*
X15921066Y-8497914I-1325J-24645D01*
G01*
X16126066Y-9010000D02*
G75*
G03*
X16276066Y-8860000I0J150000D01*
G01*
X16126066Y-8341066D02*
X15948066Y-8341066D01*
X15921066Y-8537574D02*
G75*
G03*
X15945711Y-8562218I24645J0D01*
G01*
X16011066Y-8634792D02*
G75*
G03*
X15945711Y-8562218I-72973J0D01*
G01*
X15831066Y-8537574D02*
X15831066Y-8497914D01*
X16276066Y-8860000D02*
X16276066Y-8491066D01*
X15805061Y-8446066D02*
X15805061Y-8473269D01*
X19270000Y-9441066D02*
G75*
G03*
X19120000Y-9591066I0J-150000D01*
G01*
X19592000Y-9441066D02*
G75*
G03*
X19566264Y-9466066I-1046J-24670D01*
G01*
X19460606Y-9527279D02*
G75*
G03*
X19448995Y-9546066I9394J-18788D01*
G01*
X20790606Y-9546066D02*
G75*
G03*
X20778995Y-9527279I-21005J0D01*
G01*
X20673337Y-9499087D02*
X20673337Y-9466066D01*
X20470000Y-10110000D02*
X20970000Y-10110000D01*
X20585000Y-9734792D02*
X20585000Y-10010000D01*
X20791005Y-9573269D02*
G75*
G03*
X20765000Y-9597914I-1325J-24645D01*
G01*
X21120000Y-9591066D02*
G75*
G03*
X20970000Y-9441066I-150000J0D01*
G01*
X20675000Y-9637574D02*
X20675000Y-9597914D01*
X20766264Y-9466066D02*
X20766264Y-9499087D01*
X20673337Y-9466066D02*
G75*
G03*
X20648000Y-9441066I-25002J0D01*
G01*
X20792000Y-9441066D02*
G75*
G03*
X20766264Y-9466066I-1046J-24670D01*
G01*
X20790606Y-9573269D02*
X20790606Y-9546066D01*
X20320000Y-9591066D02*
X20320000Y-9960000D01*
X20470000Y-9441066D02*
G75*
G03*
X20320000Y-9591066I0J-150000D01*
G01*
X20650355Y-9662218D02*
G75*
G03*
X20585000Y-9734792I7617J-72573D01*
G01*
X20766264Y-9499087D02*
G75*
G03*
X20778995Y-9527279I30538J-3180D01*
G01*
X20585000Y-10010000D02*
X20855000Y-10010000D01*
X20675000Y-9597914D02*
G75*
G03*
X20648995Y-9573269I-24680J0D01*
G01*
X20855000Y-9734792D02*
G75*
G03*
X20789645Y-9662218I-72973J0D01*
G01*
X20648995Y-9546066D02*
X20648995Y-9573269D01*
X20660606Y-9527279D02*
G75*
G03*
X20648995Y-9546066I9394J-18788D01*
G01*
X19473337Y-9466066D02*
G75*
G03*
X19448000Y-9441066I-25002J0D01*
G01*
X19590606Y-9573269D02*
X19590606Y-9546066D01*
X20650355Y-9662218D02*
G75*
G03*
X20675000Y-9637574I0J24645D01*
G01*
X20320000Y-9960000D02*
G75*
G03*
X20470000Y-10110000I150000J0D01*
G01*
X19566264Y-9466066D02*
X19566264Y-9499087D01*
X19566264Y-9499087D02*
G75*
G03*
X19578995Y-9527279I30538J-3180D01*
G01*
X19590606Y-9546066D02*
G75*
G03*
X19578995Y-9527279I-21005J0D01*
G01*
X20970000Y-9441066D02*
X20792000Y-9441066D01*
X20855000Y-10010000D02*
X20855000Y-9734792D01*
X20765000Y-9597914D02*
X20765000Y-9637574D01*
X20648000Y-9441066D02*
X20470000Y-9441066D01*
X20970000Y-10110000D02*
G75*
G03*
X21120000Y-9960000I0J150000D01*
G01*
X21120000Y-9960000D02*
X21120000Y-9591066D01*
X20765000Y-9637574D02*
G75*
G03*
X20789645Y-9662218I24645J0D01*
G01*
X19473337Y-9499087D02*
X19473337Y-9466066D01*
X20660606Y-9527279D02*
G75*
G03*
X20673337Y-9499087I-17808J25012D01*
G01*
X18365000Y-9637574D02*
G75*
G03*
X18389645Y-9662218I24645J0D01*
G01*
X19450355Y-9662218D02*
G75*
G03*
X19475000Y-9637574I0J24645D01*
G01*
X19120000Y-9591066D02*
X19120000Y-9960000D01*
X17920000Y-9960000D02*
G75*
G03*
X18070000Y-10110000I150000J0D01*
G01*
X19475000Y-9637574D02*
X19475000Y-9597914D01*
X19385000Y-10010000D02*
X19655000Y-10010000D01*
X19270000Y-10110000D02*
X19770000Y-10110000D01*
X18365000Y-9597914D02*
X18365000Y-9637574D01*
X18070000Y-10110000D02*
X18570000Y-10110000D01*
X19655000Y-9734792D02*
G75*
G03*
X19589645Y-9662218I-72973J0D01*
G01*
X18570000Y-9441066D02*
X18392000Y-9441066D01*
X18273337Y-9466066D02*
G75*
G03*
X18248000Y-9441066I-25002J0D01*
G01*
X18273337Y-9499087D02*
X18273337Y-9466066D01*
X18070000Y-9441066D02*
G75*
G03*
X17920000Y-9591066I0J-150000D01*
G01*
X19565000Y-9597914D02*
X19565000Y-9637574D01*
X19120000Y-9960000D02*
G75*
G03*
X19270000Y-10110000I150000J0D01*
G01*
X19770000Y-9441066D02*
X19592000Y-9441066D01*
X18185000Y-9734792D02*
X18185000Y-10010000D01*
X19450355Y-9662218D02*
G75*
G03*
X19385000Y-9734792I7617J-72573D01*
G01*
X19475000Y-9597914D02*
G75*
G03*
X19448995Y-9573269I-24680J0D01*
G01*
X19770000Y-10110000D02*
G75*
G03*
X19920000Y-9960000I0J150000D01*
G01*
X18390606Y-9546066D02*
G75*
G03*
X18378995Y-9527279I-21005J0D01*
G01*
X18260606Y-9527279D02*
G75*
G03*
X18273337Y-9499087I-17808J25012D01*
G01*
X17166264Y-9499087D02*
G75*
G03*
X17178995Y-9527279I30538J-3180D01*
G01*
X18248000Y-9441066D02*
X18070000Y-9441066D01*
X18391005Y-9573269D02*
G75*
G03*
X18365000Y-9597914I-1325J-24645D01*
G01*
X18570000Y-10110000D02*
G75*
G03*
X18720000Y-9960000I0J150000D01*
G01*
X18720000Y-9960000D02*
X18720000Y-9591066D01*
X17190606Y-9546066D02*
G75*
G03*
X17178995Y-9527279I-21005J0D01*
G01*
X18250355Y-9662218D02*
G75*
G03*
X18275000Y-9637574I0J24645D01*
G01*
X18455000Y-10010000D02*
X18455000Y-9734792D01*
X19460606Y-9527279D02*
G75*
G03*
X19473337Y-9499087I-17808J25012D01*
G01*
X19655000Y-10010000D02*
X19655000Y-9734792D01*
X17920000Y-9591066D02*
X17920000Y-9960000D01*
X19448000Y-9441066D02*
X19270000Y-9441066D01*
X17190606Y-9573269D02*
X17190606Y-9546066D01*
X18390606Y-9573269D02*
X18390606Y-9546066D01*
X18366264Y-9466066D02*
X18366264Y-9499087D01*
X18275000Y-9637574D02*
X18275000Y-9597914D01*
X19920000Y-9591066D02*
G75*
G03*
X19770000Y-9441066I-150000J0D01*
G01*
X17192000Y-9441066D02*
G75*
G03*
X17166264Y-9466066I-1046J-24670D01*
G01*
X19565000Y-9637574D02*
G75*
G03*
X19589645Y-9662218I24645J0D01*
G01*
X18248995Y-9546066D02*
X18248995Y-9573269D01*
X19920000Y-9960000D02*
X19920000Y-9591066D01*
X17166264Y-9466066D02*
X17166264Y-9499087D01*
X18366264Y-9499087D02*
G75*
G03*
X18378995Y-9527279I30538J-3180D01*
G01*
X17073337Y-9499087D02*
X17073337Y-9466066D01*
X18392000Y-9441066D02*
G75*
G03*
X18366264Y-9466066I-1046J-24670D01*
G01*
X17060606Y-9527279D02*
G75*
G03*
X17048995Y-9546066I9394J-18788D01*
G01*
X18250355Y-9662218D02*
G75*
G03*
X18185000Y-9734792I7617J-72573D01*
G01*
X18455000Y-9734792D02*
G75*
G03*
X18389645Y-9662218I-72973J0D01*
G01*
X19448995Y-9546066D02*
X19448995Y-9573269D01*
X18275000Y-9597914D02*
G75*
G03*
X18248995Y-9573269I-24680J0D01*
G01*
X18720000Y-9591066D02*
G75*
G03*
X18570000Y-9441066I-150000J0D01*
G01*
X19385000Y-9734792D02*
X19385000Y-10010000D01*
X19591005Y-9573269D02*
G75*
G03*
X19565000Y-9597914I-1325J-24645D01*
G01*
X18260606Y-9527279D02*
G75*
G03*
X18248995Y-9546066I9394J-18788D01*
G01*
X18185000Y-10010000D02*
X18455000Y-10010000D01*
X16870000Y-9441066D02*
G75*
G03*
X16720000Y-9591066I0J-150000D01*
G01*
X17073337Y-9466066D02*
G75*
G03*
X17048000Y-9441066I-25002J0D01*
G01*
X17048000Y-9441066D02*
X16870000Y-9441066D01*
X17050355Y-9662218D02*
G75*
G03*
X17075000Y-9637574I0J24645D01*
G01*
X17060606Y-9527279D02*
G75*
G03*
X17073337Y-9499087I-17808J25012D01*
G01*
X17520000Y-9960000D02*
X17520000Y-9591066D01*
X16985000Y-10010000D02*
X17255000Y-10010000D01*
X16985000Y-9734792D02*
X16985000Y-10010000D01*
X16870000Y-10110000D02*
X17370000Y-10110000D01*
X17165000Y-9597914D02*
X17165000Y-9637574D01*
X16720000Y-9960000D02*
G75*
G03*
X16870000Y-10110000I150000J0D01*
G01*
X17050355Y-9662218D02*
G75*
G03*
X16985000Y-9734792I7617J-72573D01*
G01*
X17075000Y-9597914D02*
G75*
G03*
X17048995Y-9573269I-24680J0D01*
G01*
X17191005Y-9573269D02*
G75*
G03*
X17165000Y-9597914I-1325J-24645D01*
G01*
X17370000Y-10110000D02*
G75*
G03*
X17520000Y-9960000I0J150000D01*
G01*
X17048995Y-9546066D02*
X17048995Y-9573269D01*
X17165000Y-9637574D02*
G75*
G03*
X17189645Y-9662218I24645J0D01*
G01*
X17255000Y-9734792D02*
G75*
G03*
X17189645Y-9662218I-72973J0D01*
G01*
X17075000Y-9637574D02*
X17075000Y-9597914D01*
X17255000Y-10010000D02*
X17255000Y-9734792D01*
X16720000Y-9591066D02*
X16720000Y-9960000D01*
X17520000Y-9591066D02*
G75*
G03*
X17370000Y-9441066I-150000J0D01*
G01*
X17370000Y-9441066D02*
X17192000Y-9441066D01*
X15922330Y-9466066D02*
X15922330Y-9499087D01*
X15922330Y-9499087D02*
G75*
G03*
X15935061Y-9527279I30538J-3180D01*
G01*
X15829403Y-9466066D02*
G75*
G03*
X15804066Y-9441066I-25002J0D01*
G01*
X15946672Y-9546066D02*
G75*
G03*
X15935061Y-9527279I-21005J0D01*
G01*
X15948066Y-9441066D02*
G75*
G03*
X15922330Y-9466066I-1046J-24670D01*
G01*
X15946672Y-9573269D02*
X15946672Y-9546066D01*
X15816672Y-9527279D02*
G75*
G03*
X15805061Y-9546066I9394J-18788D01*
G01*
X15829403Y-9499087D02*
X15829403Y-9466066D01*
X15626066Y-9441066D02*
G75*
G03*
X15476066Y-9591066I0J-150000D01*
G01*
X15806421Y-9662218D02*
G75*
G03*
X15831066Y-9637574I0J24645D01*
G01*
X15816672Y-9527279D02*
G75*
G03*
X15829403Y-9499087I-17808J25012D01*
G01*
X15741066Y-9734792D02*
X15741066Y-10010000D01*
X15921066Y-9597914D02*
X15921066Y-9637574D01*
X15476066Y-9960000D02*
G75*
G03*
X15626066Y-10110000I150000J0D01*
G01*
X15741066Y-10010000D02*
X16011066Y-10010000D01*
X16011066Y-10010000D02*
X16011066Y-9734792D01*
X15804066Y-9441066D02*
X15626066Y-9441066D01*
X15806421Y-9662218D02*
G75*
G03*
X15741066Y-9734792I7617J-72573D01*
G01*
X15831066Y-9597914D02*
G75*
G03*
X15805061Y-9573269I-24680J0D01*
G01*
X15476066Y-9591066D02*
X15476066Y-9960000D01*
X15626066Y-10110000D02*
X16126066Y-10110000D01*
X16276066Y-9591066D02*
G75*
G03*
X16126066Y-9441066I-150000J0D01*
G01*
X15947071Y-9573269D02*
G75*
G03*
X15921066Y-9597914I-1325J-24645D01*
G01*
X16126066Y-10110000D02*
G75*
G03*
X16276066Y-9960000I0J150000D01*
G01*
X16126066Y-9441066D02*
X15948066Y-9441066D01*
X15921066Y-9637574D02*
G75*
G03*
X15945711Y-9662218I24645J0D01*
G01*
X16011066Y-9734792D02*
G75*
G03*
X15945711Y-9662218I-72973J0D01*
G01*
X15831066Y-9637574D02*
X15831066Y-9597914D01*
X16276066Y-9960000D02*
X16276066Y-9591066D01*
X15805061Y-9546066D02*
X15805061Y-9573269D01*
X20766264Y-10560000D02*
X20766264Y-10593021D01*
X20766264Y-10593021D02*
G75*
G03*
X20778995Y-10621213I30538J-3180D01*
G01*
X20673337Y-10560000D02*
G75*
G03*
X20648000Y-10535000I-25002J0D01*
G01*
X20790606Y-10640000D02*
G75*
G03*
X20778995Y-10621213I-21005J0D01*
G01*
X20792000Y-10535000D02*
G75*
G03*
X20766264Y-10560000I-1046J-24670D01*
G01*
X20790606Y-10667203D02*
X20790606Y-10640000D01*
X20660606Y-10621213D02*
G75*
G03*
X20648995Y-10640000I9394J-18788D01*
G01*
X20673337Y-10593021D02*
X20673337Y-10560000D01*
X20470000Y-10535000D02*
G75*
G03*
X20320000Y-10685000I0J-150000D01*
G01*
X20650355Y-10756152D02*
G75*
G03*
X20675000Y-10731508I0J24645D01*
G01*
X20660606Y-10621213D02*
G75*
G03*
X20673337Y-10593021I-17808J25012D01*
G01*
X20585000Y-10828726D02*
X20585000Y-11103934D01*
X20765000Y-10691848D02*
X20765000Y-10731508D01*
X20320000Y-11053934D02*
G75*
G03*
X20470000Y-11203934I150000J0D01*
G01*
X20585000Y-11103934D02*
X20855000Y-11103934D01*
X20855000Y-11103934D02*
X20855000Y-10828726D01*
X20648000Y-10535000D02*
X20470000Y-10535000D01*
X20650355Y-10756152D02*
G75*
G03*
X20585000Y-10828726I7617J-72573D01*
G01*
X20675000Y-10691848D02*
G75*
G03*
X20648995Y-10667203I-24680J0D01*
G01*
X20320000Y-10685000D02*
X20320000Y-11053934D01*
X20470000Y-11203934D02*
X20970000Y-11203934D01*
X21120000Y-10685000D02*
G75*
G03*
X20970000Y-10535000I-150000J0D01*
G01*
X20791005Y-10667203D02*
G75*
G03*
X20765000Y-10691848I-1325J-24645D01*
G01*
X20970000Y-11203934D02*
G75*
G03*
X21120000Y-11053934I0J150000D01*
G01*
X20970000Y-10535000D02*
X20792000Y-10535000D01*
X20765000Y-10731508D02*
G75*
G03*
X20789645Y-10756152I24645J0D01*
G01*
X20855000Y-10828726D02*
G75*
G03*
X20789645Y-10756152I-72973J0D01*
G01*
X20675000Y-10731508D02*
X20675000Y-10691848D01*
X21120000Y-11053934D02*
X21120000Y-10685000D01*
X20648995Y-10640000D02*
X20648995Y-10667203D01*
X19566264Y-10560000D02*
X19566264Y-10593021D01*
X19566264Y-10593021D02*
G75*
G03*
X19578995Y-10621213I30538J-3180D01*
G01*
X19473337Y-10560000D02*
G75*
G03*
X19448000Y-10535000I-25002J0D01*
G01*
X19590606Y-10640000D02*
G75*
G03*
X19578995Y-10621213I-21005J0D01*
G01*
X19592000Y-10535000D02*
G75*
G03*
X19566264Y-10560000I-1046J-24670D01*
G01*
X19590606Y-10667203D02*
X19590606Y-10640000D01*
X19460606Y-10621213D02*
G75*
G03*
X19448995Y-10640000I9394J-18788D01*
G01*
X19473337Y-10593021D02*
X19473337Y-10560000D01*
X19270000Y-10535000D02*
G75*
G03*
X19120000Y-10685000I0J-150000D01*
G01*
X19450355Y-10756152D02*
G75*
G03*
X19475000Y-10731508I0J24645D01*
G01*
X19460606Y-10621213D02*
G75*
G03*
X19473337Y-10593021I-17808J25012D01*
G01*
X19385000Y-10828726D02*
X19385000Y-11103934D01*
X19565000Y-10691848D02*
X19565000Y-10731508D01*
X19120000Y-11053934D02*
G75*
G03*
X19270000Y-11203934I150000J0D01*
G01*
X19385000Y-11103934D02*
X19655000Y-11103934D01*
X19655000Y-11103934D02*
X19655000Y-10828726D01*
X19448000Y-10535000D02*
X19270000Y-10535000D01*
X19450355Y-10756152D02*
G75*
G03*
X19385000Y-10828726I7617J-72573D01*
G01*
X19475000Y-10691848D02*
G75*
G03*
X19448995Y-10667203I-24680J0D01*
G01*
X19120000Y-10685000D02*
X19120000Y-11053934D01*
X19270000Y-11203934D02*
X19770000Y-11203934D01*
X19920000Y-10685000D02*
G75*
G03*
X19770000Y-10535000I-150000J0D01*
G01*
X19591005Y-10667203D02*
G75*
G03*
X19565000Y-10691848I-1325J-24645D01*
G01*
X19770000Y-11203934D02*
G75*
G03*
X19920000Y-11053934I0J150000D01*
G01*
X19770000Y-10535000D02*
X19592000Y-10535000D01*
X19565000Y-10731508D02*
G75*
G03*
X19589645Y-10756152I24645J0D01*
G01*
X19655000Y-10828726D02*
G75*
G03*
X19589645Y-10756152I-72973J0D01*
G01*
X19475000Y-10731508D02*
X19475000Y-10691848D01*
X19920000Y-11053934D02*
X19920000Y-10685000D01*
X19448995Y-10640000D02*
X19448995Y-10667203D01*
X18366264Y-10560000D02*
X18366264Y-10593021D01*
X18366264Y-10593021D02*
G75*
G03*
X18378995Y-10621213I30538J-3180D01*
G01*
X18273337Y-10560000D02*
G75*
G03*
X18248000Y-10535000I-25002J0D01*
G01*
X18390606Y-10640000D02*
G75*
G03*
X18378995Y-10621213I-21005J0D01*
G01*
X18392000Y-10535000D02*
G75*
G03*
X18366264Y-10560000I-1046J-24670D01*
G01*
X18390606Y-10667203D02*
X18390606Y-10640000D01*
X18260606Y-10621213D02*
G75*
G03*
X18248995Y-10640000I9394J-18788D01*
G01*
X18273337Y-10593021D02*
X18273337Y-10560000D01*
X18070000Y-10535000D02*
G75*
G03*
X17920000Y-10685000I0J-150000D01*
G01*
X18250355Y-10756152D02*
G75*
G03*
X18275000Y-10731508I0J24645D01*
G01*
X18260606Y-10621213D02*
G75*
G03*
X18273337Y-10593021I-17808J25012D01*
G01*
X18185000Y-10828726D02*
X18185000Y-11103934D01*
X18365000Y-10691848D02*
X18365000Y-10731508D01*
X17920000Y-11053934D02*
G75*
G03*
X18070000Y-11203934I150000J0D01*
G01*
X18185000Y-11103934D02*
X18455000Y-11103934D01*
X18455000Y-11103934D02*
X18455000Y-10828726D01*
X18248000Y-10535000D02*
X18070000Y-10535000D01*
X18250355Y-10756152D02*
G75*
G03*
X18185000Y-10828726I7617J-72573D01*
G01*
X18275000Y-10691848D02*
G75*
G03*
X18248995Y-10667203I-24680J0D01*
G01*
X17920000Y-10685000D02*
X17920000Y-11053934D01*
X18070000Y-11203934D02*
X18570000Y-11203934D01*
X18720000Y-10685000D02*
G75*
G03*
X18570000Y-10535000I-150000J0D01*
G01*
X18391005Y-10667203D02*
G75*
G03*
X18365000Y-10691848I-1325J-24645D01*
G01*
X18570000Y-11203934D02*
G75*
G03*
X18720000Y-11053934I0J150000D01*
G01*
X18570000Y-10535000D02*
X18392000Y-10535000D01*
X18365000Y-10731508D02*
G75*
G03*
X18389645Y-10756152I24645J0D01*
G01*
X18455000Y-10828726D02*
G75*
G03*
X18389645Y-10756152I-72973J0D01*
G01*
X18275000Y-10731508D02*
X18275000Y-10691848D01*
X18720000Y-11053934D02*
X18720000Y-10685000D01*
X18248995Y-10640000D02*
X18248995Y-10667203D01*
X17166264Y-10560000D02*
X17166264Y-10593021D01*
X17166264Y-10593021D02*
G75*
G03*
X17178995Y-10621213I30538J-3180D01*
G01*
X17073337Y-10560000D02*
G75*
G03*
X17048000Y-10535000I-25002J0D01*
G01*
X17190606Y-10640000D02*
G75*
G03*
X17178995Y-10621213I-21005J0D01*
G01*
X17192000Y-10535000D02*
G75*
G03*
X17166264Y-10560000I-1046J-24670D01*
G01*
X17190606Y-10667203D02*
X17190606Y-10640000D01*
X17060606Y-10621213D02*
G75*
G03*
X17048995Y-10640000I9394J-18788D01*
G01*
X17073337Y-10593021D02*
X17073337Y-10560000D01*
X16870000Y-10535000D02*
G75*
G03*
X16720000Y-10685000I0J-150000D01*
G01*
X17050355Y-10756152D02*
G75*
G03*
X17075000Y-10731508I0J24645D01*
G01*
X17060606Y-10621213D02*
G75*
G03*
X17073337Y-10593021I-17808J25012D01*
G01*
X16985000Y-10828726D02*
X16985000Y-11103934D01*
X17165000Y-10691848D02*
X17165000Y-10731508D01*
X16720000Y-11053934D02*
G75*
G03*
X16870000Y-11203934I150000J0D01*
G01*
X16985000Y-11103934D02*
X17255000Y-11103934D01*
X17255000Y-11103934D02*
X17255000Y-10828726D01*
X17048000Y-10535000D02*
X16870000Y-10535000D01*
X17050355Y-10756152D02*
G75*
G03*
X16985000Y-10828726I7617J-72573D01*
G01*
X17075000Y-10691848D02*
G75*
G03*
X17048995Y-10667203I-24680J0D01*
G01*
X16720000Y-10685000D02*
X16720000Y-11053934D01*
X16870000Y-11203934D02*
X17370000Y-11203934D01*
X17520000Y-10685000D02*
G75*
G03*
X17370000Y-10535000I-150000J0D01*
G01*
X17191005Y-10667203D02*
G75*
G03*
X17165000Y-10691848I-1325J-24645D01*
G01*
X17370000Y-11203934D02*
G75*
G03*
X17520000Y-11053934I0J150000D01*
G01*
X17370000Y-10535000D02*
X17192000Y-10535000D01*
X17165000Y-10731508D02*
G75*
G03*
X17189645Y-10756152I24645J0D01*
G01*
X17255000Y-10828726D02*
G75*
G03*
X17189645Y-10756152I-72973J0D01*
G01*
X17075000Y-10731508D02*
X17075000Y-10691848D01*
X17520000Y-11053934D02*
X17520000Y-10685000D01*
X17048995Y-10640000D02*
X17048995Y-10667203D01*
X15948066Y-10535000D02*
G75*
G03*
X15922330Y-10560000I-1046J-24670D01*
G01*
X15829402Y-10560000D02*
G75*
G03*
X15804066Y-10535000I-25002J0D01*
G01*
X15946672Y-10640000D02*
G75*
G03*
X15935061Y-10621213I-21005J0D01*
G01*
X15922330Y-10560000D02*
X15922330Y-10593021D01*
X15922330Y-10593021D02*
G75*
G03*
X15935061Y-10621213I30538J-3180D01*
G01*
X15816672Y-10621213D02*
G75*
G03*
X15829402Y-10593021I-17808J25012D01*
G01*
X15829402Y-10593021D02*
X15829402Y-10560000D01*
X15946672Y-10667203D02*
X15946672Y-10640000D01*
X15816672Y-10621213D02*
G75*
G03*
X15805061Y-10640000I9394J-18788D01*
G01*
X15626066Y-11203934D02*
X16126066Y-11203934D01*
X15805061Y-10640000D02*
X15805061Y-10667203D01*
X16276066Y-11053934D02*
X16276066Y-10685000D01*
X15626066Y-10535000D02*
G75*
G03*
X15476066Y-10685000I0J-150000D01*
G01*
X15806421Y-10756152D02*
G75*
G03*
X15831066Y-10731508I0J24645D01*
G01*
X16126066Y-10535000D02*
X15948066Y-10535000D01*
X15921066Y-10731508D02*
G75*
G03*
X15945711Y-10756152I24645J0D01*
G01*
X16126066Y-11203934D02*
G75*
G03*
X16276066Y-11053934I0J150000D01*
G01*
X13720000Y-4985000D02*
X22920000Y-4985000D01*
X22920000Y-4985000D02*
X22920000Y-12585000D01*
X22920000Y-12585000D02*
X13720000Y-12585000D01*
X13720000Y-12585000D02*
X13720000Y-4985000D01*
X15947071Y-10667203D02*
G75*
G03*
X15921066Y-10691848I-1325J-24645D01*
G01*
X16276066Y-10685000D02*
G75*
G03*
X16126066Y-10535000I-150000J0D01*
G01*
X15806421Y-10756152D02*
G75*
G03*
X15741066Y-10828726I7617J-72573D01*
G01*
X15804066Y-10535000D02*
X15626066Y-10535000D01*
X15476066Y-10685000D02*
X15476066Y-11053934D01*
X15831066Y-10691848D02*
G75*
G03*
X15805061Y-10667203I-24680J0D01*
G01*
X16011066Y-11103934D02*
X16011066Y-10828726D01*
X15741066Y-11103934D02*
X16011066Y-11103934D01*
X16011066Y-10828726D02*
G75*
G03*
X15945711Y-10756152I-72973J0D01*
G01*
X15831066Y-10731508D02*
X15831066Y-10691848D01*
X15476066Y-11053934D02*
G75*
G03*
X15626066Y-11203934I150000J0D01*
G01*
X15741066Y-10828726D02*
X15741066Y-11103934D01*
X15921066Y-10691848D02*
X15921066Y-10731508D01*
D11*
D12*
X15766066Y-10993934D02*
X15786066Y-11013934D01*
X15786066Y-10993934D02*
X15766066Y-11013934D01*
X15766066Y-8800000D02*
X15786066Y-8820000D01*
X15786066Y-8800000D02*
X15766066Y-8820000D01*
X15766066Y-9900000D02*
X15786066Y-9920000D01*
X15786066Y-9900000D02*
X15766066Y-9920000D01*
X15766066Y-6593934D02*
X15786066Y-6613934D01*
X15786066Y-6593934D02*
X15766066Y-6613934D01*
X15766066Y-7706066D02*
X15786066Y-7726066D01*
X15786066Y-7706066D02*
X15766066Y-7726066D01*
X15781066Y-10787734D02*
X15801066Y-10807734D01*
X15801066Y-10787734D02*
X15781066Y-10807734D01*
X15781066Y-8593800D02*
X15801066Y-8613800D01*
X15801066Y-8593800D02*
X15781066Y-8613800D01*
X15781066Y-9693800D02*
X15801066Y-9713800D01*
X15801066Y-9693800D02*
X15781066Y-9713800D01*
X15781066Y-6387734D02*
X15801066Y-6407734D01*
X15801066Y-6387734D02*
X15781066Y-6407734D01*
X15781066Y-7499866D02*
X15801066Y-7519866D01*
X15801066Y-7499866D02*
X15781066Y-7519866D01*
X15951066Y-10788934D02*
X15971066Y-10808934D01*
X15971066Y-10788934D02*
X15951066Y-10808934D01*
X15951066Y-8595000D02*
X15971066Y-8615000D01*
X15971066Y-8595000D02*
X15951066Y-8615000D01*
X15951066Y-9695000D02*
X15971066Y-9715000D01*
X15971066Y-9695000D02*
X15951066Y-9715000D01*
X15951066Y-6388934D02*
X15971066Y-6408934D01*
X15971066Y-6388934D02*
X15951066Y-6408934D01*
X15951066Y-7501066D02*
X15971066Y-7521066D01*
X15971066Y-7501066D02*
X15951066Y-7521066D01*
X15966066Y-10993934D02*
X15986066Y-11013934D01*
X15986066Y-10993934D02*
X15966066Y-11013934D01*
X15966066Y-8800000D02*
X15986066Y-8820000D01*
X15986066Y-8800000D02*
X15966066Y-8820000D01*
X15966066Y-9900000D02*
X15986066Y-9920000D01*
X15986066Y-9900000D02*
X15966066Y-9920000D01*
X15966066Y-6593934D02*
X15986066Y-6613934D01*
X15986066Y-6593934D02*
X15966066Y-6613934D01*
X15966066Y-7706066D02*
X15986066Y-7726066D01*
X15986066Y-7706066D02*
X15966066Y-7726066D01*
X17010000Y-10993934D02*
X17030000Y-11013934D01*
X17030000Y-10993934D02*
X17010000Y-11013934D01*
X17010000Y-8800000D02*
X17030000Y-8820000D01*
X17030000Y-8800000D02*
X17010000Y-8820000D01*
X17010000Y-9900000D02*
X17030000Y-9920000D01*
X17030000Y-9900000D02*
X17010000Y-9920000D01*
X17010000Y-6593934D02*
X17030000Y-6613934D01*
X17030000Y-6593934D02*
X17010000Y-6613934D01*
X17010000Y-7706066D02*
X17030000Y-7726066D01*
X17030000Y-7706066D02*
X17010000Y-7726066D01*
X17025000Y-10787734D02*
X17045000Y-10807734D01*
X17045000Y-10787734D02*
X17025000Y-10807734D01*
X17025000Y-8593800D02*
X17045000Y-8613800D01*
X17045000Y-8593800D02*
X17025000Y-8613800D01*
X17025000Y-9693800D02*
X17045000Y-9713800D01*
X17045000Y-9693800D02*
X17025000Y-9713800D01*
X17025000Y-6387734D02*
X17045000Y-6407734D01*
X17045000Y-6387734D02*
X17025000Y-6407734D01*
X17025000Y-7499866D02*
X17045000Y-7519866D01*
X17045000Y-7499866D02*
X17025000Y-7519866D01*
X17195000Y-10788934D02*
X17215000Y-10808934D01*
X17215000Y-10788934D02*
X17195000Y-10808934D01*
X17195000Y-8595000D02*
X17215000Y-8615000D01*
X17215000Y-8595000D02*
X17195000Y-8615000D01*
X17195000Y-9695000D02*
X17215000Y-9715000D01*
X17215000Y-9695000D02*
X17195000Y-9715000D01*
X17195000Y-6388934D02*
X17215000Y-6408934D01*
X17215000Y-6388934D02*
X17195000Y-6408934D01*
X17195000Y-7501066D02*
X17215000Y-7521066D01*
X17215000Y-7501066D02*
X17195000Y-7521066D01*
X17210000Y-10993934D02*
X17230000Y-11013934D01*
X17230000Y-10993934D02*
X17210000Y-11013934D01*
X17210000Y-8800000D02*
X17230000Y-8820000D01*
X17230000Y-8800000D02*
X17210000Y-8820000D01*
X17210000Y-9900000D02*
X17230000Y-9920000D01*
X17230000Y-9900000D02*
X17210000Y-9920000D01*
X17210000Y-6593934D02*
X17230000Y-6613934D01*
X17230000Y-6593934D02*
X17210000Y-6613934D01*
X17210000Y-7706066D02*
X17230000Y-7726066D01*
X17230000Y-7706066D02*
X17210000Y-7726066D01*
X18210000Y-10993934D02*
X18230000Y-11013934D01*
X18230000Y-10993934D02*
X18210000Y-11013934D01*
X18210000Y-8800000D02*
X18230000Y-8820000D01*
X18230000Y-8800000D02*
X18210000Y-8820000D01*
X18210000Y-9900000D02*
X18230000Y-9920000D01*
X18230000Y-9900000D02*
X18210000Y-9920000D01*
X18210000Y-6593934D02*
X18230000Y-6613934D01*
X18230000Y-6593934D02*
X18210000Y-6613934D01*
X18210000Y-7706066D02*
X18230000Y-7726066D01*
X18230000Y-7706066D02*
X18210000Y-7726066D01*
X18225000Y-10787734D02*
X18245000Y-10807734D01*
X18245000Y-10787734D02*
X18225000Y-10807734D01*
X18225000Y-8593800D02*
X18245000Y-8613800D01*
X18245000Y-8593800D02*
X18225000Y-8613800D01*
X18225000Y-9693800D02*
X18245000Y-9713800D01*
X18245000Y-9693800D02*
X18225000Y-9713800D01*
X18225000Y-6387734D02*
X18245000Y-6407734D01*
X18245000Y-6387734D02*
X18225000Y-6407734D01*
X18225000Y-7499866D02*
X18245000Y-7519866D01*
X18245000Y-7499866D02*
X18225000Y-7519866D01*
X18395000Y-10788934D02*
X18415000Y-10808934D01*
X18415000Y-10788934D02*
X18395000Y-10808934D01*
X18395000Y-8595000D02*
X18415000Y-8615000D01*
X18415000Y-8595000D02*
X18395000Y-8615000D01*
X18395000Y-9695000D02*
X18415000Y-9715000D01*
X18415000Y-9695000D02*
X18395000Y-9715000D01*
X18395000Y-6388934D02*
X18415000Y-6408934D01*
X18415000Y-6388934D02*
X18395000Y-6408934D01*
X18395000Y-7501066D02*
X18415000Y-7521066D01*
X18415000Y-7501066D02*
X18395000Y-7521066D01*
X18410000Y-10993934D02*
X18430000Y-11013934D01*
X18430000Y-10993934D02*
X18410000Y-11013934D01*
X18410000Y-8800000D02*
X18430000Y-8820000D01*
X18430000Y-8800000D02*
X18410000Y-8820000D01*
X18410000Y-9900000D02*
X18430000Y-9920000D01*
X18430000Y-9900000D02*
X18410000Y-9920000D01*
X18410000Y-6593934D02*
X18430000Y-6613934D01*
X18430000Y-6593934D02*
X18410000Y-6613934D01*
X18410000Y-7706066D02*
X18430000Y-7726066D01*
X18430000Y-7706066D02*
X18410000Y-7726066D01*
X19410000Y-10993934D02*
X19430000Y-11013934D01*
X19430000Y-10993934D02*
X19410000Y-11013934D01*
X19410000Y-8800000D02*
X19430000Y-8820000D01*
X19430000Y-8800000D02*
X19410000Y-8820000D01*
X19410000Y-9900000D02*
X19430000Y-9920000D01*
X19430000Y-9900000D02*
X19410000Y-9920000D01*
X19410000Y-6593934D02*
X19430000Y-6613934D01*
X19430000Y-6593934D02*
X19410000Y-6613934D01*
X19410000Y-7706066D02*
X19430000Y-7726066D01*
X19430000Y-7706066D02*
X19410000Y-7726066D01*
X19425000Y-10787734D02*
X19445000Y-10807734D01*
X19445000Y-10787734D02*
X19425000Y-10807734D01*
X19425000Y-8593800D02*
X19445000Y-8613800D01*
X19445000Y-8593800D02*
X19425000Y-8613800D01*
X19425000Y-9693800D02*
X19445000Y-9713800D01*
X19445000Y-9693800D02*
X19425000Y-9713800D01*
X19425000Y-6387734D02*
X19445000Y-6407734D01*
X19445000Y-6387734D02*
X19425000Y-6407734D01*
X19425000Y-7499866D02*
X19445000Y-7519866D01*
X19445000Y-7499866D02*
X19425000Y-7519866D01*
X19595000Y-10788934D02*
X19615000Y-10808934D01*
X19615000Y-10788934D02*
X19595000Y-10808934D01*
X19595000Y-8595000D02*
X19615000Y-8615000D01*
X19615000Y-8595000D02*
X19595000Y-8615000D01*
X19595000Y-9695000D02*
X19615000Y-9715000D01*
X19615000Y-9695000D02*
X19595000Y-9715000D01*
X19595000Y-6388934D02*
X19615000Y-6408934D01*
X19615000Y-6388934D02*
X19595000Y-6408934D01*
X19595000Y-7501066D02*
X19615000Y-7521066D01*
X19615000Y-7501066D02*
X19595000Y-7521066D01*
X19610000Y-10993934D02*
X19630000Y-11013934D01*
X19630000Y-10993934D02*
X19610000Y-11013934D01*
X19610000Y-8800000D02*
X19630000Y-8820000D01*
X19630000Y-8800000D02*
X19610000Y-8820000D01*
X19610000Y-9900000D02*
X19630000Y-9920000D01*
X19630000Y-9900000D02*
X19610000Y-9920000D01*
X19610000Y-6593934D02*
X19630000Y-6613934D01*
X19630000Y-6593934D02*
X19610000Y-6613934D01*
X19610000Y-7706066D02*
X19630000Y-7726066D01*
X19630000Y-7706066D02*
X19610000Y-7726066D01*
X20610000Y-10993934D02*
X20630000Y-11013934D01*
X20630000Y-10993934D02*
X20610000Y-11013934D01*
X20610000Y-8800000D02*
X20630000Y-8820000D01*
X20630000Y-8800000D02*
X20610000Y-8820000D01*
X20610000Y-9900000D02*
X20630000Y-9920000D01*
X20630000Y-9900000D02*
X20610000Y-9920000D01*
X20610000Y-6593934D02*
X20630000Y-6613934D01*
X20630000Y-6593934D02*
X20610000Y-6613934D01*
X20610000Y-7706066D02*
X20630000Y-7726066D01*
X20630000Y-7706066D02*
X20610000Y-7726066D01*
X20625000Y-10787734D02*
X20645000Y-10807734D01*
X20645000Y-10787734D02*
X20625000Y-10807734D01*
X20625000Y-8593800D02*
X20645000Y-8613800D01*
X20645000Y-8593800D02*
X20625000Y-8613800D01*
X20625000Y-9693800D02*
X20645000Y-9713800D01*
X20645000Y-9693800D02*
X20625000Y-9713800D01*
X20625000Y-6387734D02*
X20645000Y-6407734D01*
X20645000Y-6387734D02*
X20625000Y-6407734D01*
X20625000Y-7499866D02*
X20645000Y-7519866D01*
X20645000Y-7499866D02*
X20625000Y-7519866D01*
X20795000Y-10788934D02*
X20815000Y-10808934D01*
X20815000Y-10788934D02*
X20795000Y-10808934D01*
X20795000Y-8595000D02*
X20815000Y-8615000D01*
X20815000Y-8595000D02*
X20795000Y-8615000D01*
X20795000Y-9695000D02*
X20815000Y-9715000D01*
X20815000Y-9695000D02*
X20795000Y-9715000D01*
X20795000Y-6388934D02*
X20815000Y-6408934D01*
X20815000Y-6388934D02*
X20795000Y-6408934D01*
X20795000Y-7501066D02*
X20815000Y-7521066D01*
X20815000Y-7501066D02*
X20795000Y-7521066D01*
X20810000Y-10993934D02*
X20830000Y-11013934D01*
X20830000Y-10993934D02*
X20810000Y-11013934D01*
X20810000Y-8800000D02*
X20830000Y-8820000D01*
X20830000Y-8800000D02*
X20810000Y-8820000D01*
X20810000Y-9900000D02*
X20830000Y-9920000D01*
X20830000Y-9900000D02*
X20810000Y-9920000D01*
X20810000Y-6593934D02*
X20830000Y-6613934D01*
X20830000Y-6593934D02*
X20810000Y-6613934D01*
X20810000Y-7706066D02*
X20830000Y-7726066D01*
X20830000Y-7706066D02*
X20810000Y-7726066D01*
D13*
X15781066Y-11103934D02*
G75*
G03*
X15781066Y-11103934I-25000J0D01*
G01*
D11*
X15731066Y-11118934D02*
X15781066Y-11118934D01*
X15731066Y-11088934D02*
X15781066Y-11088934D01*
X15781066Y-11118934D02*
G75*
G03*
X15781066Y-11088934I0J15000D01*
G01*
X15731066Y-11088934D02*
G75*
G03*
X15731066Y-11118934I0J-15000D01*
G01*
D13*
X15781066Y-8910000D02*
G75*
G03*
X15781066Y-8910000I-25000J0D01*
G01*
D11*
X15731066Y-8925000D02*
X15781066Y-8925000D01*
X15731066Y-8895000D02*
X15781066Y-8895000D01*
X15781066Y-8925000D02*
G75*
G03*
X15781066Y-8895000I0J15000D01*
G01*
X15731066Y-8895000D02*
G75*
G03*
X15731066Y-8925000I0J-15000D01*
G01*
D13*
X15781066Y-10010000D02*
G75*
G03*
X15781066Y-10010000I-25000J0D01*
G01*
D11*
X15731066Y-10025000D02*
X15781066Y-10025000D01*
X15731066Y-9995000D02*
X15781066Y-9995000D01*
X15781066Y-10025000D02*
G75*
G03*
X15781066Y-9995000I0J15000D01*
G01*
X15731066Y-9995000D02*
G75*
G03*
X15731066Y-10025000I0J-15000D01*
G01*
D13*
X15781066Y-6703934D02*
G75*
G03*
X15781066Y-6703934I-25000J0D01*
G01*
D11*
X15731066Y-6718934D02*
X15781066Y-6718934D01*
X15731066Y-6688934D02*
X15781066Y-6688934D01*
X15781066Y-6718934D02*
G75*
G03*
X15781066Y-6688934I0J15000D01*
G01*
X15731066Y-6688934D02*
G75*
G03*
X15731066Y-6718934I0J-15000D01*
G01*
D13*
X15781066Y-7816066D02*
G75*
G03*
X15781066Y-7816066I-25000J0D01*
G01*
D11*
X15731066Y-7831066D02*
X15781066Y-7831066D01*
X15731066Y-7801066D02*
X15781066Y-7801066D01*
X15781066Y-7831066D02*
G75*
G03*
X15781066Y-7801066I0J15000D01*
G01*
X15731066Y-7801066D02*
G75*
G03*
X15731066Y-7831066I0J-15000D01*
G01*
D13*
X16021066Y-11103934D02*
G75*
G03*
X16021066Y-11103934I-25000J0D01*
G01*
D11*
X15971066Y-11118934D02*
X16021066Y-11118934D01*
X15971066Y-11088934D02*
X16021066Y-11088934D01*
X16021066Y-11118934D02*
G75*
G03*
X16021066Y-11088934I0J15000D01*
G01*
X15971066Y-11088934D02*
G75*
G03*
X15971066Y-11118934I0J-15000D01*
G01*
D13*
X16021066Y-8910000D02*
G75*
G03*
X16021066Y-8910000I-25000J0D01*
G01*
D11*
X15971066Y-8925000D02*
X16021066Y-8925000D01*
X15971066Y-8895000D02*
X16021066Y-8895000D01*
X16021066Y-8925000D02*
G75*
G03*
X16021066Y-8895000I0J15000D01*
G01*
X15971066Y-8895000D02*
G75*
G03*
X15971066Y-8925000I0J-15000D01*
G01*
D13*
X16021066Y-10010000D02*
G75*
G03*
X16021066Y-10010000I-25000J0D01*
G01*
D11*
X15971066Y-10025000D02*
X16021066Y-10025000D01*
X15971066Y-9995000D02*
X16021066Y-9995000D01*
X16021066Y-10025000D02*
G75*
G03*
X16021066Y-9995000I0J15000D01*
G01*
X15971066Y-9995000D02*
G75*
G03*
X15971066Y-10025000I0J-15000D01*
G01*
D13*
X16021066Y-6703934D02*
G75*
G03*
X16021066Y-6703934I-25000J0D01*
G01*
D11*
X15971066Y-6718934D02*
X16021066Y-6718934D01*
X15971066Y-6688934D02*
X16021066Y-6688934D01*
X16021066Y-6718934D02*
G75*
G03*
X16021066Y-6688934I0J15000D01*
G01*
X15971066Y-6688934D02*
G75*
G03*
X15971066Y-6718934I0J-15000D01*
G01*
D13*
X16021066Y-7816066D02*
G75*
G03*
X16021066Y-7816066I-25000J0D01*
G01*
D11*
X15971066Y-7831066D02*
X16021066Y-7831066D01*
X15971066Y-7801066D02*
X16021066Y-7801066D01*
X16021066Y-7831066D02*
G75*
G03*
X16021066Y-7801066I0J15000D01*
G01*
X15971066Y-7801066D02*
G75*
G03*
X15971066Y-7831066I0J-15000D01*
G01*
D13*
X17025000Y-11103934D02*
G75*
G03*
X17025000Y-11103934I-25000J0D01*
G01*
D11*
X16975000Y-11118934D02*
X17025000Y-11118934D01*
X16975000Y-11088934D02*
X17025000Y-11088934D01*
X17025000Y-11118934D02*
G75*
G03*
X17025000Y-11088934I0J15000D01*
G01*
X16975000Y-11088934D02*
G75*
G03*
X16975000Y-11118934I0J-15000D01*
G01*
D13*
X17025000Y-8910000D02*
G75*
G03*
X17025000Y-8910000I-25000J0D01*
G01*
D11*
X16975000Y-8925000D02*
X17025000Y-8925000D01*
X16975000Y-8895000D02*
X17025000Y-8895000D01*
X17025000Y-8925000D02*
G75*
G03*
X17025000Y-8895000I0J15000D01*
G01*
X16975000Y-8895000D02*
G75*
G03*
X16975000Y-8925000I0J-15000D01*
G01*
D13*
X17025000Y-10010000D02*
G75*
G03*
X17025000Y-10010000I-25000J0D01*
G01*
D11*
X16975000Y-10025000D02*
X17025000Y-10025000D01*
X16975000Y-9995000D02*
X17025000Y-9995000D01*
X17025000Y-10025000D02*
G75*
G03*
X17025000Y-9995000I0J15000D01*
G01*
X16975000Y-9995000D02*
G75*
G03*
X16975000Y-10025000I0J-15000D01*
G01*
D13*
X17025000Y-6703934D02*
G75*
G03*
X17025000Y-6703934I-25000J0D01*
G01*
D11*
X16975000Y-6718934D02*
X17025000Y-6718934D01*
X16975000Y-6688934D02*
X17025000Y-6688934D01*
X17025000Y-6718934D02*
G75*
G03*
X17025000Y-6688934I0J15000D01*
G01*
X16975000Y-6688934D02*
G75*
G03*
X16975000Y-6718934I0J-15000D01*
G01*
D13*
X17025000Y-7816066D02*
G75*
G03*
X17025000Y-7816066I-25000J0D01*
G01*
D11*
X16975000Y-7831066D02*
X17025000Y-7831066D01*
X16975000Y-7801066D02*
X17025000Y-7801066D01*
X17025000Y-7831066D02*
G75*
G03*
X17025000Y-7801066I0J15000D01*
G01*
X16975000Y-7801066D02*
G75*
G03*
X16975000Y-7831066I0J-15000D01*
G01*
D13*
X17265000Y-11103934D02*
G75*
G03*
X17265000Y-11103934I-25000J0D01*
G01*
D11*
X17215000Y-11118934D02*
X17265000Y-11118934D01*
X17215000Y-11088934D02*
X17265000Y-11088934D01*
X17265000Y-11118934D02*
G75*
G03*
X17265000Y-11088934I0J15000D01*
G01*
X17215000Y-11088934D02*
G75*
G03*
X17215000Y-11118934I0J-15000D01*
G01*
D13*
X17265000Y-8910000D02*
G75*
G03*
X17265000Y-8910000I-25000J0D01*
G01*
D11*
X17215000Y-8925000D02*
X17265000Y-8925000D01*
X17215000Y-8895000D02*
X17265000Y-8895000D01*
X17265000Y-8925000D02*
G75*
G03*
X17265000Y-8895000I0J15000D01*
G01*
X17215000Y-8895000D02*
G75*
G03*
X17215000Y-8925000I0J-15000D01*
G01*
D13*
X17265000Y-10010000D02*
G75*
G03*
X17265000Y-10010000I-25000J0D01*
G01*
D11*
X17215000Y-10025000D02*
X17265000Y-10025000D01*
X17215000Y-9995000D02*
X17265000Y-9995000D01*
X17265000Y-10025000D02*
G75*
G03*
X17265000Y-9995000I0J15000D01*
G01*
X17215000Y-9995000D02*
G75*
G03*
X17215000Y-10025000I0J-15000D01*
G01*
D13*
X17265000Y-6703934D02*
G75*
G03*
X17265000Y-6703934I-25000J0D01*
G01*
D11*
X17215000Y-6718934D02*
X17265000Y-6718934D01*
X17215000Y-6688934D02*
X17265000Y-6688934D01*
X17265000Y-6718934D02*
G75*
G03*
X17265000Y-6688934I0J15000D01*
G01*
X17215000Y-6688934D02*
G75*
G03*
X17215000Y-6718934I0J-15000D01*
G01*
D13*
X17265000Y-7816066D02*
G75*
G03*
X17265000Y-7816066I-25000J0D01*
G01*
D11*
X17215000Y-7831066D02*
X17265000Y-7831066D01*
X17215000Y-7801066D02*
X17265000Y-7801066D01*
X17265000Y-7831066D02*
G75*
G03*
X17265000Y-7801066I0J15000D01*
G01*
X17215000Y-7801066D02*
G75*
G03*
X17215000Y-7831066I0J-15000D01*
G01*
D13*
X18225000Y-11103934D02*
G75*
G03*
X18225000Y-11103934I-25000J0D01*
G01*
D11*
X18175000Y-11118934D02*
X18225000Y-11118934D01*
X18175000Y-11088934D02*
X18225000Y-11088934D01*
X18225000Y-11118934D02*
G75*
G03*
X18225000Y-11088934I0J15000D01*
G01*
X18175000Y-11088934D02*
G75*
G03*
X18175000Y-11118934I0J-15000D01*
G01*
D13*
X18225000Y-8910000D02*
G75*
G03*
X18225000Y-8910000I-25000J0D01*
G01*
D11*
X18175000Y-8925000D02*
X18225000Y-8925000D01*
X18175000Y-8895000D02*
X18225000Y-8895000D01*
X18225000Y-8925000D02*
G75*
G03*
X18225000Y-8895000I0J15000D01*
G01*
X18175000Y-8895000D02*
G75*
G03*
X18175000Y-8925000I0J-15000D01*
G01*
D13*
X18225000Y-10010000D02*
G75*
G03*
X18225000Y-10010000I-25000J0D01*
G01*
D11*
X18175000Y-10025000D02*
X18225000Y-10025000D01*
X18175000Y-9995000D02*
X18225000Y-9995000D01*
X18225000Y-10025000D02*
G75*
G03*
X18225000Y-9995000I0J15000D01*
G01*
X18175000Y-9995000D02*
G75*
G03*
X18175000Y-10025000I0J-15000D01*
G01*
D13*
X18225000Y-6703934D02*
G75*
G03*
X18225000Y-6703934I-25000J0D01*
G01*
D11*
X18175000Y-6718934D02*
X18225000Y-6718934D01*
X18175000Y-6688934D02*
X18225000Y-6688934D01*
X18225000Y-6718934D02*
G75*
G03*
X18225000Y-6688934I0J15000D01*
G01*
X18175000Y-6688934D02*
G75*
G03*
X18175000Y-6718934I0J-15000D01*
G01*
D13*
X18225000Y-7816066D02*
G75*
G03*
X18225000Y-7816066I-25000J0D01*
G01*
D11*
X18175000Y-7831066D02*
X18225000Y-7831066D01*
X18175000Y-7801066D02*
X18225000Y-7801066D01*
X18225000Y-7831066D02*
G75*
G03*
X18225000Y-7801066I0J15000D01*
G01*
X18175000Y-7801066D02*
G75*
G03*
X18175000Y-7831066I0J-15000D01*
G01*
D13*
X18465000Y-11103934D02*
G75*
G03*
X18465000Y-11103934I-25000J0D01*
G01*
D11*
X18415000Y-11118934D02*
X18465000Y-11118934D01*
X18415000Y-11088934D02*
X18465000Y-11088934D01*
X18465000Y-11118934D02*
G75*
G03*
X18465000Y-11088934I0J15000D01*
G01*
X18415000Y-11088934D02*
G75*
G03*
X18415000Y-11118934I0J-15000D01*
G01*
D13*
X18465000Y-8910000D02*
G75*
G03*
X18465000Y-8910000I-25000J0D01*
G01*
D11*
X18415000Y-8925000D02*
X18465000Y-8925000D01*
X18415000Y-8895000D02*
X18465000Y-8895000D01*
X18465000Y-8925000D02*
G75*
G03*
X18465000Y-8895000I0J15000D01*
G01*
X18415000Y-8895000D02*
G75*
G03*
X18415000Y-8925000I0J-15000D01*
G01*
D13*
X18465000Y-10010000D02*
G75*
G03*
X18465000Y-10010000I-25000J0D01*
G01*
D11*
X18415000Y-10025000D02*
X18465000Y-10025000D01*
X18415000Y-9995000D02*
X18465000Y-9995000D01*
X18465000Y-10025000D02*
G75*
G03*
X18465000Y-9995000I0J15000D01*
G01*
X18415000Y-9995000D02*
G75*
G03*
X18415000Y-10025000I0J-15000D01*
G01*
D13*
X18465000Y-6703934D02*
G75*
G03*
X18465000Y-6703934I-25000J0D01*
G01*
D11*
X18415000Y-6718934D02*
X18465000Y-6718934D01*
X18415000Y-6688934D02*
X18465000Y-6688934D01*
X18465000Y-6718934D02*
G75*
G03*
X18465000Y-6688934I0J15000D01*
G01*
X18415000Y-6688934D02*
G75*
G03*
X18415000Y-6718934I0J-15000D01*
G01*
D13*
X18465000Y-7816066D02*
G75*
G03*
X18465000Y-7816066I-25000J0D01*
G01*
D11*
X18415000Y-7831066D02*
X18465000Y-7831066D01*
X18415000Y-7801066D02*
X18465000Y-7801066D01*
X18465000Y-7831066D02*
G75*
G03*
X18465000Y-7801066I0J15000D01*
G01*
X18415000Y-7801066D02*
G75*
G03*
X18415000Y-7831066I0J-15000D01*
G01*
D13*
X19425000Y-11103934D02*
G75*
G03*
X19425000Y-11103934I-25000J0D01*
G01*
D11*
X19375000Y-11118934D02*
X19425000Y-11118934D01*
X19375000Y-11088934D02*
X19425000Y-11088934D01*
X19425000Y-11118934D02*
G75*
G03*
X19425000Y-11088934I0J15000D01*
G01*
X19375000Y-11088934D02*
G75*
G03*
X19375000Y-11118934I0J-15000D01*
G01*
D13*
X19425000Y-8910000D02*
G75*
G03*
X19425000Y-8910000I-25000J0D01*
G01*
D11*
X19375000Y-8925000D02*
X19425000Y-8925000D01*
X19375000Y-8895000D02*
X19425000Y-8895000D01*
X19425000Y-8925000D02*
G75*
G03*
X19425000Y-8895000I0J15000D01*
G01*
X19375000Y-8895000D02*
G75*
G03*
X19375000Y-8925000I0J-15000D01*
G01*
D13*
X19425000Y-10010000D02*
G75*
G03*
X19425000Y-10010000I-25000J0D01*
G01*
D11*
X19375000Y-10025000D02*
X19425000Y-10025000D01*
X19375000Y-9995000D02*
X19425000Y-9995000D01*
X19425000Y-10025000D02*
G75*
G03*
X19425000Y-9995000I0J15000D01*
G01*
X19375000Y-9995000D02*
G75*
G03*
X19375000Y-10025000I0J-15000D01*
G01*
D13*
X19425000Y-6703934D02*
G75*
G03*
X19425000Y-6703934I-25000J0D01*
G01*
D11*
X19375000Y-6718934D02*
X19425000Y-6718934D01*
X19375000Y-6688934D02*
X19425000Y-6688934D01*
X19425000Y-6718934D02*
G75*
G03*
X19425000Y-6688934I0J15000D01*
G01*
X19375000Y-6688934D02*
G75*
G03*
X19375000Y-6718934I0J-15000D01*
G01*
D13*
X19425000Y-7816066D02*
G75*
G03*
X19425000Y-7816066I-25000J0D01*
G01*
D11*
X19375000Y-7831066D02*
X19425000Y-7831066D01*
X19375000Y-7801066D02*
X19425000Y-7801066D01*
X19425000Y-7831066D02*
G75*
G03*
X19425000Y-7801066I0J15000D01*
G01*
X19375000Y-7801066D02*
G75*
G03*
X19375000Y-7831066I0J-15000D01*
G01*
D13*
X19665000Y-11103934D02*
G75*
G03*
X19665000Y-11103934I-25000J0D01*
G01*
D11*
X19615000Y-11118934D02*
X19665000Y-11118934D01*
X19615000Y-11088934D02*
X19665000Y-11088934D01*
X19665000Y-11118934D02*
G75*
G03*
X19665000Y-11088934I0J15000D01*
G01*
X19615000Y-11088934D02*
G75*
G03*
X19615000Y-11118934I0J-15000D01*
G01*
D13*
X19665000Y-8910000D02*
G75*
G03*
X19665000Y-8910000I-25000J0D01*
G01*
D11*
X19615000Y-8925000D02*
X19665000Y-8925000D01*
X19615000Y-8895000D02*
X19665000Y-8895000D01*
X19665000Y-8925000D02*
G75*
G03*
X19665000Y-8895000I0J15000D01*
G01*
X19615000Y-8895000D02*
G75*
G03*
X19615000Y-8925000I0J-15000D01*
G01*
D13*
X19665000Y-10010000D02*
G75*
G03*
X19665000Y-10010000I-25000J0D01*
G01*
D11*
X19615000Y-10025000D02*
X19665000Y-10025000D01*
X19615000Y-9995000D02*
X19665000Y-9995000D01*
X19665000Y-10025000D02*
G75*
G03*
X19665000Y-9995000I0J15000D01*
G01*
X19615000Y-9995000D02*
G75*
G03*
X19615000Y-10025000I0J-15000D01*
G01*
D13*
X19665000Y-6703934D02*
G75*
G03*
X19665000Y-6703934I-25000J0D01*
G01*
D11*
X19615000Y-6718934D02*
X19665000Y-6718934D01*
X19615000Y-6688934D02*
X19665000Y-6688934D01*
X19665000Y-6718934D02*
G75*
G03*
X19665000Y-6688934I0J15000D01*
G01*
X19615000Y-6688934D02*
G75*
G03*
X19615000Y-6718934I0J-15000D01*
G01*
D13*
X19665000Y-7816066D02*
G75*
G03*
X19665000Y-7816066I-25000J0D01*
G01*
D11*
X19615000Y-7831066D02*
X19665000Y-7831066D01*
X19615000Y-7801066D02*
X19665000Y-7801066D01*
X19665000Y-7831066D02*
G75*
G03*
X19665000Y-7801066I0J15000D01*
G01*
X19615000Y-7801066D02*
G75*
G03*
X19615000Y-7831066I0J-15000D01*
G01*
D13*
X20625000Y-11103934D02*
G75*
G03*
X20625000Y-11103934I-25000J0D01*
G01*
D11*
X20575000Y-11118934D02*
X20625000Y-11118934D01*
X20575000Y-11088934D02*
X20625000Y-11088934D01*
X20625000Y-11118934D02*
G75*
G03*
X20625000Y-11088934I0J15000D01*
G01*
X20575000Y-11088934D02*
G75*
G03*
X20575000Y-11118934I0J-15000D01*
G01*
D13*
X20625000Y-8910000D02*
G75*
G03*
X20625000Y-8910000I-25000J0D01*
G01*
D11*
X20575000Y-8925000D02*
X20625000Y-8925000D01*
X20575000Y-8895000D02*
X20625000Y-8895000D01*
X20625000Y-8925000D02*
G75*
G03*
X20625000Y-8895000I0J15000D01*
G01*
X20575000Y-8895000D02*
G75*
G03*
X20575000Y-8925000I0J-15000D01*
G01*
D13*
X20625000Y-10010000D02*
G75*
G03*
X20625000Y-10010000I-25000J0D01*
G01*
D11*
X20575000Y-10025000D02*
X20625000Y-10025000D01*
X20575000Y-9995000D02*
X20625000Y-9995000D01*
X20625000Y-10025000D02*
G75*
G03*
X20625000Y-9995000I0J15000D01*
G01*
X20575000Y-9995000D02*
G75*
G03*
X20575000Y-10025000I0J-15000D01*
G01*
D13*
X20625000Y-6703934D02*
G75*
G03*
X20625000Y-6703934I-25000J0D01*
G01*
D11*
X20575000Y-6718934D02*
X20625000Y-6718934D01*
X20575000Y-6688934D02*
X20625000Y-6688934D01*
X20625000Y-6718934D02*
G75*
G03*
X20625000Y-6688934I0J15000D01*
G01*
X20575000Y-6688934D02*
G75*
G03*
X20575000Y-6718934I0J-15000D01*
G01*
D13*
X20625000Y-7816066D02*
G75*
G03*
X20625000Y-7816066I-25000J0D01*
G01*
D11*
X20575000Y-7831066D02*
X20625000Y-7831066D01*
X20575000Y-7801066D02*
X20625000Y-7801066D01*
X20625000Y-7831066D02*
G75*
G03*
X20625000Y-7801066I0J15000D01*
G01*
X20575000Y-7801066D02*
G75*
G03*
X20575000Y-7831066I0J-15000D01*
G01*
D13*
X20865000Y-11103934D02*
G75*
G03*
X20865000Y-11103934I-25000J0D01*
G01*
D11*
X20815000Y-11118934D02*
X20865000Y-11118934D01*
X20815000Y-11088934D02*
X20865000Y-11088934D01*
X20865000Y-11118934D02*
G75*
G03*
X20865000Y-11088934I0J15000D01*
G01*
X20815000Y-11088934D02*
G75*
G03*
X20815000Y-11118934I0J-15000D01*
G01*
D13*
X20865000Y-8910000D02*
G75*
G03*
X20865000Y-8910000I-25000J0D01*
G01*
D11*
X20815000Y-8925000D02*
X20865000Y-8925000D01*
X20815000Y-8895000D02*
X20865000Y-8895000D01*
X20865000Y-8925000D02*
G75*
G03*
X20865000Y-8895000I0J15000D01*
G01*
X20815000Y-8895000D02*
G75*
G03*
X20815000Y-8925000I0J-15000D01*
G01*
D13*
X20865000Y-10010000D02*
G75*
G03*
X20865000Y-10010000I-25000J0D01*
G01*
D11*
X20815000Y-10025000D02*
X20865000Y-10025000D01*
X20815000Y-9995000D02*
X20865000Y-9995000D01*
X20865000Y-10025000D02*
G75*
G03*
X20865000Y-9995000I0J15000D01*
G01*
X20815000Y-9995000D02*
G75*
G03*
X20815000Y-10025000I0J-15000D01*
G01*
D13*
X20865000Y-6703934D02*
G75*
G03*
X20865000Y-6703934I-25000J0D01*
G01*
D11*
X20815000Y-6718934D02*
X20865000Y-6718934D01*
X20815000Y-6688934D02*
X20865000Y-6688934D01*
X20865000Y-6718934D02*
G75*
G03*
X20865000Y-6688934I0J15000D01*
G01*
X20815000Y-6688934D02*
G75*
G03*
X20815000Y-6718934I0J-15000D01*
G01*
D13*
X20865000Y-7816066D02*
G75*
G03*
X20865000Y-7816066I-25000J0D01*
G01*
D11*
X20815000Y-7831066D02*
X20865000Y-7831066D01*
X20815000Y-7801066D02*
X20865000Y-7801066D01*
X20865000Y-7831066D02*
G75*
G03*
X20865000Y-7801066I0J15000D01*
G01*
X20815000Y-7801066D02*
G75*
G03*
X20815000Y-7831066I0J-15000D01*
G01*
X13975119Y-12897976D02*
X13975119Y-12697976D01*
X14022738Y-12697976D01*
X14051309Y-12707500D01*
X14070357Y-12726548D01*
X14079881Y-12745595D01*
X14089405Y-12783690D01*
X14089405Y-12812262D01*
X14079881Y-12850357D01*
X14070357Y-12869405D01*
X14051309Y-12888452D01*
X14022738Y-12897976D01*
X13975119Y-12897976D01*
X14175119Y-12897976D02*
X14175119Y-12764643D01*
X14175119Y-12802738D02*
X14184643Y-12783690D01*
X14194167Y-12774167D01*
X14213214Y-12764643D01*
X14232262Y-12764643D01*
X14298928Y-12897976D02*
X14298928Y-12764643D01*
X14298928Y-12697976D02*
X14289405Y-12707500D01*
X14298928Y-12717024D01*
X14308452Y-12707500D01*
X14298928Y-12697976D01*
X14298928Y-12717024D01*
X14422738Y-12897976D02*
X14403690Y-12888452D01*
X14394167Y-12869405D01*
X14394167Y-12697976D01*
X14527500Y-12897976D02*
X14508452Y-12888452D01*
X14498928Y-12869405D01*
X14498928Y-12697976D01*
X14756071Y-12897976D02*
X14756071Y-12697976D01*
X14822738Y-12840833D01*
X14889405Y-12697976D01*
X14889405Y-12897976D01*
X15070357Y-12897976D02*
X15070357Y-12793214D01*
X15060833Y-12774167D01*
X15041786Y-12764643D01*
X15003690Y-12764643D01*
X14984643Y-12774167D01*
X15070357Y-12888452D02*
X15051309Y-12897976D01*
X15003690Y-12897976D01*
X14984643Y-12888452D01*
X14975119Y-12869405D01*
X14975119Y-12850357D01*
X14984643Y-12831309D01*
X15003690Y-12821786D01*
X15051309Y-12821786D01*
X15070357Y-12812262D01*
X15165595Y-12764643D02*
X15165595Y-12964643D01*
X15165595Y-12774167D02*
X15184643Y-12764643D01*
X15222738Y-12764643D01*
X15241786Y-12774167D01*
X15251309Y-12783690D01*
X15260833Y-12802738D01*
X15260833Y-12859881D01*
X15251309Y-12878928D01*
X15241786Y-12888452D01*
X15222738Y-12897976D01*
X15184643Y-12897976D01*
X15165595Y-12888452D01*
X15346548Y-12878928D02*
X15356071Y-12888452D01*
X15346548Y-12897976D01*
X15337024Y-12888452D01*
X15346548Y-12878928D01*
X15346548Y-12897976D01*
X15346548Y-12774167D02*
X15356071Y-12783690D01*
X15346548Y-12793214D01*
X15337024Y-12783690D01*
X15346548Y-12774167D01*
X15346548Y-12793214D01*
D12*
X13697500Y-13217500D02*
X13717500Y-13237500D01*
X13717500Y-13217500D02*
X13697500Y-13237500D01*
D11*
X14013214Y-13117976D02*
X14032262Y-13117976D01*
X14051309Y-13127500D01*
X14060833Y-13137024D01*
X14070357Y-13156071D01*
X14079881Y-13194167D01*
X14079881Y-13241786D01*
X14070357Y-13279881D01*
X14060833Y-13298928D01*
X14051309Y-13308452D01*
X14032262Y-13317976D01*
X14013214Y-13317976D01*
X13994167Y-13308452D01*
X13984643Y-13298928D01*
X13975119Y-13279881D01*
X13965595Y-13241786D01*
X13965595Y-13194167D01*
X13975119Y-13156071D01*
X13984643Y-13137024D01*
X13994167Y-13127500D01*
X14013214Y-13117976D01*
X14165595Y-13298928D02*
X14175119Y-13308452D01*
X14165595Y-13317976D01*
X14156071Y-13308452D01*
X14165595Y-13298928D01*
X14165595Y-13317976D01*
X14251309Y-13137024D02*
X14260833Y-13127500D01*
X14279881Y-13117976D01*
X14327500Y-13117976D01*
X14346548Y-13127500D01*
X14356071Y-13137024D01*
X14365595Y-13156071D01*
X14365595Y-13175119D01*
X14356071Y-13203690D01*
X14241786Y-13317976D01*
X14365595Y-13317976D01*
X14489405Y-13117976D02*
X14508452Y-13117976D01*
X14527500Y-13127500D01*
X14537024Y-13137024D01*
X14546548Y-13156071D01*
X14556071Y-13194167D01*
X14556071Y-13241786D01*
X14546548Y-13279881D01*
X14537024Y-13298928D01*
X14527500Y-13308452D01*
X14508452Y-13317976D01*
X14489405Y-13317976D01*
X14470357Y-13308452D01*
X14460833Y-13298928D01*
X14451309Y-13279881D01*
X14441786Y-13241786D01*
X14441786Y-13194167D01*
X14451309Y-13156071D01*
X14460833Y-13137024D01*
X14470357Y-13127500D01*
X14489405Y-13117976D01*
X14679881Y-13117976D02*
X14698928Y-13117976D01*
X14717976Y-13127500D01*
X14727500Y-13137024D01*
X14737024Y-13156071D01*
X14746548Y-13194167D01*
X14746548Y-13241786D01*
X14737024Y-13279881D01*
X14727500Y-13298928D01*
X14717976Y-13308452D01*
X14698928Y-13317976D01*
X14679881Y-13317976D01*
X14660833Y-13308452D01*
X14651309Y-13298928D01*
X14641786Y-13279881D01*
X14632262Y-13241786D01*
X14632262Y-13194167D01*
X14641786Y-13156071D01*
X14651309Y-13137024D01*
X14660833Y-13127500D01*
X14679881Y-13117976D01*
X14832262Y-13317976D02*
X14832262Y-13184643D01*
X14832262Y-13203690D02*
X14841786Y-13194167D01*
X14860833Y-13184643D01*
X14889405Y-13184643D01*
X14908452Y-13194167D01*
X14917976Y-13213214D01*
X14917976Y-13317976D01*
X14917976Y-13213214D02*
X14927500Y-13194167D01*
X14946548Y-13184643D01*
X14975119Y-13184643D01*
X14994167Y-13194167D01*
X15003690Y-13213214D01*
X15003690Y-13317976D01*
X15098928Y-13317976D02*
X15098928Y-13184643D01*
X15098928Y-13203690D02*
X15108452Y-13194167D01*
X15127500Y-13184643D01*
X15156071Y-13184643D01*
X15175119Y-13194167D01*
X15184643Y-13213214D01*
X15184643Y-13317976D01*
X15184643Y-13213214D02*
X15194167Y-13194167D01*
X15213214Y-13184643D01*
X15241786Y-13184643D01*
X15260833Y-13194167D01*
X15270357Y-13213214D01*
X15270357Y-13317976D01*
X15660833Y-13108452D02*
X15489405Y-13365595D01*
X15917976Y-13117976D02*
X15937024Y-13117976D01*
X15956071Y-13127500D01*
X15965595Y-13137024D01*
X15975119Y-13156071D01*
X15984643Y-13194167D01*
X15984643Y-13241786D01*
X15975119Y-13279881D01*
X15965595Y-13298928D01*
X15956071Y-13308452D01*
X15937024Y-13317976D01*
X15917976Y-13317976D01*
X15898928Y-13308452D01*
X15889405Y-13298928D01*
X15879881Y-13279881D01*
X15870357Y-13241786D01*
X15870357Y-13194167D01*
X15879881Y-13156071D01*
X15889405Y-13137024D01*
X15898928Y-13127500D01*
X15917976Y-13117976D01*
X16070357Y-13298928D02*
X16079881Y-13308452D01*
X16070357Y-13317976D01*
X16060833Y-13308452D01*
X16070357Y-13298928D01*
X16070357Y-13317976D01*
X16203690Y-13117976D02*
X16222738Y-13117976D01*
X16241786Y-13127500D01*
X16251309Y-13137024D01*
X16260833Y-13156071D01*
X16270357Y-13194167D01*
X16270357Y-13241786D01*
X16260833Y-13279881D01*
X16251309Y-13298928D01*
X16241786Y-13308452D01*
X16222738Y-13317976D01*
X16203690Y-13317976D01*
X16184643Y-13308452D01*
X16175119Y-13298928D01*
X16165595Y-13279881D01*
X16156071Y-13241786D01*
X16156071Y-13194167D01*
X16165595Y-13156071D01*
X16175119Y-13137024D01*
X16184643Y-13127500D01*
X16203690Y-13117976D01*
X16394167Y-13117976D02*
X16413214Y-13117976D01*
X16432262Y-13127500D01*
X16441786Y-13137024D01*
X16451309Y-13156071D01*
X16460833Y-13194167D01*
X16460833Y-13241786D01*
X16451309Y-13279881D01*
X16441786Y-13298928D01*
X16432262Y-13308452D01*
X16413214Y-13317976D01*
X16394167Y-13317976D01*
X16375119Y-13308452D01*
X16365595Y-13298928D01*
X16356071Y-13279881D01*
X16346548Y-13241786D01*
X16346548Y-13194167D01*
X16356071Y-13156071D01*
X16365595Y-13137024D01*
X16375119Y-13127500D01*
X16394167Y-13117976D01*
X16527500Y-13117976D02*
X16660833Y-13117976D01*
X16575119Y-13317976D01*
X16746548Y-13317976D02*
X16784643Y-13317976D01*
X16803690Y-13308452D01*
X16813214Y-13298928D01*
X16832262Y-13270357D01*
X16841786Y-13232262D01*
X16841786Y-13156071D01*
X16832262Y-13137024D01*
X16822738Y-13127500D01*
X16803690Y-13117976D01*
X16765595Y-13117976D01*
X16746548Y-13127500D01*
X16737024Y-13137024D01*
X16727500Y-13156071D01*
X16727500Y-13203690D01*
X16737024Y-13222738D01*
X16746548Y-13232262D01*
X16765595Y-13241786D01*
X16803690Y-13241786D01*
X16822738Y-13232262D01*
X16832262Y-13222738D01*
X16841786Y-13203690D01*
X16917976Y-13117976D02*
X16917976Y-13156071D01*
X16994167Y-13117976D02*
X16994167Y-13156071D01*
X17289405Y-13394167D02*
X17279881Y-13384643D01*
X17260833Y-13356071D01*
X17251310Y-13337024D01*
X17241786Y-13308452D01*
X17232262Y-13260833D01*
X17232262Y-13222738D01*
X17241786Y-13175119D01*
X17251310Y-13146548D01*
X17260833Y-13127500D01*
X17279881Y-13098928D01*
X17289405Y-13089405D01*
X17470357Y-13317976D02*
X17356071Y-13317976D01*
X17413214Y-13317976D02*
X17413214Y-13117976D01*
X17394167Y-13146548D01*
X17375119Y-13165595D01*
X17356071Y-13175119D01*
X17594167Y-13117976D02*
X17613214Y-13117976D01*
X17632262Y-13127500D01*
X17641786Y-13137024D01*
X17651310Y-13156071D01*
X17660833Y-13194167D01*
X17660833Y-13241786D01*
X17651310Y-13279881D01*
X17641786Y-13298928D01*
X17632262Y-13308452D01*
X17613214Y-13317976D01*
X17594167Y-13317976D01*
X17575119Y-13308452D01*
X17565595Y-13298928D01*
X17556071Y-13279881D01*
X17546548Y-13241786D01*
X17546548Y-13194167D01*
X17556071Y-13156071D01*
X17565595Y-13137024D01*
X17575119Y-13127500D01*
X17594167Y-13117976D01*
X17784643Y-13117976D02*
X17803690Y-13117976D01*
X17822738Y-13127500D01*
X17832262Y-13137024D01*
X17841786Y-13156071D01*
X17851310Y-13194167D01*
X17851310Y-13241786D01*
X17841786Y-13279881D01*
X17832262Y-13298928D01*
X17822738Y-13308452D01*
X17803690Y-13317976D01*
X17784643Y-13317976D01*
X17765595Y-13308452D01*
X17756071Y-13298928D01*
X17746548Y-13279881D01*
X17737024Y-13241786D01*
X17737024Y-13194167D01*
X17746548Y-13156071D01*
X17756071Y-13137024D01*
X17765595Y-13127500D01*
X17784643Y-13117976D01*
X18089405Y-13317976D02*
X18089405Y-13117976D01*
X18175119Y-13317976D02*
X18175119Y-13213214D01*
X18165595Y-13194167D01*
X18146548Y-13184643D01*
X18117976Y-13184643D01*
X18098929Y-13194167D01*
X18089405Y-13203690D01*
X18298929Y-13317976D02*
X18279881Y-13308452D01*
X18270357Y-13298928D01*
X18260833Y-13279881D01*
X18260833Y-13222738D01*
X18270357Y-13203690D01*
X18279881Y-13194167D01*
X18298929Y-13184643D01*
X18327500Y-13184643D01*
X18346548Y-13194167D01*
X18356071Y-13203690D01*
X18365595Y-13222738D01*
X18365595Y-13279881D01*
X18356071Y-13298928D01*
X18346548Y-13308452D01*
X18327500Y-13317976D01*
X18298929Y-13317976D01*
X18479881Y-13317976D02*
X18460833Y-13308452D01*
X18451310Y-13289405D01*
X18451310Y-13117976D01*
X18632262Y-13308452D02*
X18613214Y-13317976D01*
X18575119Y-13317976D01*
X18556071Y-13308452D01*
X18546548Y-13289405D01*
X18546548Y-13213214D01*
X18556071Y-13194167D01*
X18575119Y-13184643D01*
X18613214Y-13184643D01*
X18632262Y-13194167D01*
X18641786Y-13213214D01*
X18641786Y-13232262D01*
X18546548Y-13251309D01*
X18717976Y-13308452D02*
X18737024Y-13317976D01*
X18775119Y-13317976D01*
X18794167Y-13308452D01*
X18803690Y-13289405D01*
X18803690Y-13279881D01*
X18794167Y-13260833D01*
X18775119Y-13251309D01*
X18746548Y-13251309D01*
X18727500Y-13241786D01*
X18717976Y-13222738D01*
X18717976Y-13213214D01*
X18727500Y-13194167D01*
X18746548Y-13184643D01*
X18775119Y-13184643D01*
X18794167Y-13194167D01*
X18870357Y-13394167D02*
X18879881Y-13384643D01*
X18898929Y-13356071D01*
X18908452Y-13337024D01*
X18917976Y-13308452D01*
X18927500Y-13260833D01*
X18927500Y-13222738D01*
X18917976Y-13175119D01*
X18908452Y-13146548D01*
X18898929Y-13127500D01*
X18879881Y-13098928D01*
X18870357Y-13089405D01*
D13*
X13717500Y-13491500D02*
G75*
G03*
X13717500Y-13491500I-25000J0D01*
G01*
D11*
X14013214Y-13381976D02*
X14032262Y-13381976D01*
X14051309Y-13391500D01*
X14060833Y-13401024D01*
X14070357Y-13420071D01*
X14079881Y-13458167D01*
X14079881Y-13505786D01*
X14070357Y-13543881D01*
X14060833Y-13562928D01*
X14051309Y-13572452D01*
X14032262Y-13581976D01*
X14013214Y-13581976D01*
X13994167Y-13572452D01*
X13984643Y-13562928D01*
X13975119Y-13543881D01*
X13965595Y-13505786D01*
X13965595Y-13458167D01*
X13975119Y-13420071D01*
X13984643Y-13401024D01*
X13994167Y-13391500D01*
X14013214Y-13381976D01*
X14165595Y-13562928D02*
X14175119Y-13572452D01*
X14165595Y-13581976D01*
X14156071Y-13572452D01*
X14165595Y-13562928D01*
X14165595Y-13581976D01*
X14356071Y-13381976D02*
X14260833Y-13381976D01*
X14251309Y-13477214D01*
X14260833Y-13467690D01*
X14279881Y-13458167D01*
X14327500Y-13458167D01*
X14346548Y-13467690D01*
X14356071Y-13477214D01*
X14365595Y-13496262D01*
X14365595Y-13543881D01*
X14356071Y-13562928D01*
X14346548Y-13572452D01*
X14327500Y-13581976D01*
X14279881Y-13581976D01*
X14260833Y-13572452D01*
X14251309Y-13562928D01*
X14489405Y-13381976D02*
X14508452Y-13381976D01*
X14527500Y-13391500D01*
X14537024Y-13401024D01*
X14546548Y-13420071D01*
X14556071Y-13458167D01*
X14556071Y-13505786D01*
X14546548Y-13543881D01*
X14537024Y-13562928D01*
X14527500Y-13572452D01*
X14508452Y-13581976D01*
X14489405Y-13581976D01*
X14470357Y-13572452D01*
X14460833Y-13562928D01*
X14451309Y-13543881D01*
X14441786Y-13505786D01*
X14441786Y-13458167D01*
X14451309Y-13420071D01*
X14460833Y-13401024D01*
X14470357Y-13391500D01*
X14489405Y-13381976D01*
X14679881Y-13381976D02*
X14698928Y-13381976D01*
X14717976Y-13391500D01*
X14727500Y-13401024D01*
X14737024Y-13420071D01*
X14746548Y-13458167D01*
X14746548Y-13505786D01*
X14737024Y-13543881D01*
X14727500Y-13562928D01*
X14717976Y-13572452D01*
X14698928Y-13581976D01*
X14679881Y-13581976D01*
X14660833Y-13572452D01*
X14651309Y-13562928D01*
X14641786Y-13543881D01*
X14632262Y-13505786D01*
X14632262Y-13458167D01*
X14641786Y-13420071D01*
X14651309Y-13401024D01*
X14660833Y-13391500D01*
X14679881Y-13381976D01*
X14832262Y-13581976D02*
X14832262Y-13448643D01*
X14832262Y-13467690D02*
X14841786Y-13458167D01*
X14860833Y-13448643D01*
X14889405Y-13448643D01*
X14908452Y-13458167D01*
X14917976Y-13477214D01*
X14917976Y-13581976D01*
X14917976Y-13477214D02*
X14927500Y-13458167D01*
X14946548Y-13448643D01*
X14975119Y-13448643D01*
X14994167Y-13458167D01*
X15003690Y-13477214D01*
X15003690Y-13581976D01*
X15098928Y-13581976D02*
X15098928Y-13448643D01*
X15098928Y-13467690D02*
X15108452Y-13458167D01*
X15127500Y-13448643D01*
X15156071Y-13448643D01*
X15175119Y-13458167D01*
X15184643Y-13477214D01*
X15184643Y-13581976D01*
X15184643Y-13477214D02*
X15194167Y-13458167D01*
X15213214Y-13448643D01*
X15241786Y-13448643D01*
X15260833Y-13458167D01*
X15270357Y-13477214D01*
X15270357Y-13581976D01*
X15660833Y-13372452D02*
X15489405Y-13629595D01*
X15917976Y-13381976D02*
X15937024Y-13381976D01*
X15956071Y-13391500D01*
X15965595Y-13401024D01*
X15975119Y-13420071D01*
X15984643Y-13458167D01*
X15984643Y-13505786D01*
X15975119Y-13543881D01*
X15965595Y-13562928D01*
X15956071Y-13572452D01*
X15937024Y-13581976D01*
X15917976Y-13581976D01*
X15898928Y-13572452D01*
X15889405Y-13562928D01*
X15879881Y-13543881D01*
X15870357Y-13505786D01*
X15870357Y-13458167D01*
X15879881Y-13420071D01*
X15889405Y-13401024D01*
X15898928Y-13391500D01*
X15917976Y-13381976D01*
X16070357Y-13562928D02*
X16079881Y-13572452D01*
X16070357Y-13581976D01*
X16060833Y-13572452D01*
X16070357Y-13562928D01*
X16070357Y-13581976D01*
X16203690Y-13381976D02*
X16222738Y-13381976D01*
X16241786Y-13391500D01*
X16251309Y-13401024D01*
X16260833Y-13420071D01*
X16270357Y-13458167D01*
X16270357Y-13505786D01*
X16260833Y-13543881D01*
X16251309Y-13562928D01*
X16241786Y-13572452D01*
X16222738Y-13581976D01*
X16203690Y-13581976D01*
X16184643Y-13572452D01*
X16175119Y-13562928D01*
X16165595Y-13543881D01*
X16156071Y-13505786D01*
X16156071Y-13458167D01*
X16165595Y-13420071D01*
X16175119Y-13401024D01*
X16184643Y-13391500D01*
X16203690Y-13381976D01*
X16460833Y-13581976D02*
X16346548Y-13581976D01*
X16403690Y-13581976D02*
X16403690Y-13381976D01*
X16384643Y-13410548D01*
X16365595Y-13429595D01*
X16346548Y-13439119D01*
X16556071Y-13581976D02*
X16594167Y-13581976D01*
X16613214Y-13572452D01*
X16622738Y-13562928D01*
X16641786Y-13534357D01*
X16651309Y-13496262D01*
X16651309Y-13420071D01*
X16641786Y-13401024D01*
X16632262Y-13391500D01*
X16613214Y-13381976D01*
X16575119Y-13381976D01*
X16556071Y-13391500D01*
X16546548Y-13401024D01*
X16537024Y-13420071D01*
X16537024Y-13467690D01*
X16546548Y-13486738D01*
X16556071Y-13496262D01*
X16575119Y-13505786D01*
X16613214Y-13505786D01*
X16632262Y-13496262D01*
X16641786Y-13486738D01*
X16651309Y-13467690D01*
X16717976Y-13381976D02*
X16851310Y-13381976D01*
X16765595Y-13581976D01*
X16917976Y-13381976D02*
X16917976Y-13420071D01*
X16994167Y-13381976D02*
X16994167Y-13420071D01*
X17289405Y-13658167D02*
X17279881Y-13648643D01*
X17260833Y-13620071D01*
X17251310Y-13601024D01*
X17241786Y-13572452D01*
X17232262Y-13524833D01*
X17232262Y-13486738D01*
X17241786Y-13439119D01*
X17251310Y-13410548D01*
X17260833Y-13391500D01*
X17279881Y-13362928D01*
X17289405Y-13353405D01*
X17403690Y-13381976D02*
X17422738Y-13381976D01*
X17441786Y-13391500D01*
X17451310Y-13401024D01*
X17460833Y-13420071D01*
X17470357Y-13458167D01*
X17470357Y-13505786D01*
X17460833Y-13543881D01*
X17451310Y-13562928D01*
X17441786Y-13572452D01*
X17422738Y-13581976D01*
X17403690Y-13581976D01*
X17384643Y-13572452D01*
X17375119Y-13562928D01*
X17365595Y-13543881D01*
X17356071Y-13505786D01*
X17356071Y-13458167D01*
X17365595Y-13420071D01*
X17375119Y-13401024D01*
X17384643Y-13391500D01*
X17403690Y-13381976D01*
X17708452Y-13581976D02*
X17708452Y-13381976D01*
X17794167Y-13581976D02*
X17794167Y-13477214D01*
X17784643Y-13458167D01*
X17765595Y-13448643D01*
X17737024Y-13448643D01*
X17717976Y-13458167D01*
X17708452Y-13467690D01*
X17917976Y-13581976D02*
X17898929Y-13572452D01*
X17889405Y-13562928D01*
X17879881Y-13543881D01*
X17879881Y-13486738D01*
X17889405Y-13467690D01*
X17898929Y-13458167D01*
X17917976Y-13448643D01*
X17946548Y-13448643D01*
X17965595Y-13458167D01*
X17975119Y-13467690D01*
X17984643Y-13486738D01*
X17984643Y-13543881D01*
X17975119Y-13562928D01*
X17965595Y-13572452D01*
X17946548Y-13581976D01*
X17917976Y-13581976D01*
X18098929Y-13581976D02*
X18079881Y-13572452D01*
X18070357Y-13553405D01*
X18070357Y-13381976D01*
X18251310Y-13572452D02*
X18232262Y-13581976D01*
X18194167Y-13581976D01*
X18175119Y-13572452D01*
X18165595Y-13553405D01*
X18165595Y-13477214D01*
X18175119Y-13458167D01*
X18194167Y-13448643D01*
X18232262Y-13448643D01*
X18251310Y-13458167D01*
X18260833Y-13477214D01*
X18260833Y-13496262D01*
X18165595Y-13515309D01*
X18337024Y-13572452D02*
X18356071Y-13581976D01*
X18394167Y-13581976D01*
X18413214Y-13572452D01*
X18422738Y-13553405D01*
X18422738Y-13543881D01*
X18413214Y-13524833D01*
X18394167Y-13515309D01*
X18365595Y-13515309D01*
X18346548Y-13505786D01*
X18337024Y-13486738D01*
X18337024Y-13477214D01*
X18346548Y-13458167D01*
X18365595Y-13448643D01*
X18394167Y-13448643D01*
X18413214Y-13458167D01*
X18660833Y-13505786D02*
X18813214Y-13505786D01*
X18737024Y-13581976D02*
X18737024Y-13429595D01*
X19156071Y-13381976D02*
X19060833Y-13381976D01*
X19051310Y-13477214D01*
X19060833Y-13467690D01*
X19079881Y-13458167D01*
X19127500Y-13458167D01*
X19146548Y-13467690D01*
X19156071Y-13477214D01*
X19165595Y-13496262D01*
X19165595Y-13543881D01*
X19156071Y-13562928D01*
X19146548Y-13572452D01*
X19127500Y-13581976D01*
X19079881Y-13581976D01*
X19060833Y-13572452D01*
X19051310Y-13562928D01*
X19289405Y-13381976D02*
X19308452Y-13381976D01*
X19327500Y-13391500D01*
X19337024Y-13401024D01*
X19346548Y-13420071D01*
X19356071Y-13458167D01*
X19356071Y-13505786D01*
X19346548Y-13543881D01*
X19337024Y-13562928D01*
X19327500Y-13572452D01*
X19308452Y-13581976D01*
X19289405Y-13581976D01*
X19270357Y-13572452D01*
X19260833Y-13562928D01*
X19251310Y-13543881D01*
X19241786Y-13505786D01*
X19241786Y-13458167D01*
X19251310Y-13420071D01*
X19260833Y-13401024D01*
X19270357Y-13391500D01*
X19289405Y-13381976D01*
X19584643Y-13572452D02*
X19603690Y-13581976D01*
X19641786Y-13581976D01*
X19660833Y-13572452D01*
X19670357Y-13553405D01*
X19670357Y-13543881D01*
X19660833Y-13524833D01*
X19641786Y-13515309D01*
X19613214Y-13515309D01*
X19594167Y-13505786D01*
X19584643Y-13486738D01*
X19584643Y-13477214D01*
X19594167Y-13458167D01*
X19613214Y-13448643D01*
X19641786Y-13448643D01*
X19660833Y-13458167D01*
X19784643Y-13581976D02*
X19765595Y-13572452D01*
X19756071Y-13553405D01*
X19756071Y-13381976D01*
X19889405Y-13581976D02*
X19870357Y-13572452D01*
X19860833Y-13562928D01*
X19851310Y-13543881D01*
X19851310Y-13486738D01*
X19860833Y-13467690D01*
X19870357Y-13458167D01*
X19889405Y-13448643D01*
X19917976Y-13448643D01*
X19937024Y-13458167D01*
X19946548Y-13467690D01*
X19956071Y-13486738D01*
X19956071Y-13543881D01*
X19946548Y-13562928D01*
X19937024Y-13572452D01*
X19917976Y-13581976D01*
X19889405Y-13581976D01*
X20013214Y-13448643D02*
X20089405Y-13448643D01*
X20041786Y-13381976D02*
X20041786Y-13553405D01*
X20051310Y-13572452D01*
X20070357Y-13581976D01*
X20089405Y-13581976D01*
X20146548Y-13572452D02*
X20165595Y-13581976D01*
X20203690Y-13581976D01*
X20222738Y-13572452D01*
X20232262Y-13553405D01*
X20232262Y-13543881D01*
X20222738Y-13524833D01*
X20203690Y-13515309D01*
X20175119Y-13515309D01*
X20156071Y-13505786D01*
X20146548Y-13486738D01*
X20146548Y-13477214D01*
X20156071Y-13458167D01*
X20175119Y-13448643D01*
X20203690Y-13448643D01*
X20222738Y-13458167D01*
X20298929Y-13658167D02*
X20308452Y-13648643D01*
X20327500Y-13620071D01*
X20337024Y-13601024D01*
X20346548Y-13572452D01*
X20356071Y-13524833D01*
X20356071Y-13486738D01*
X20346548Y-13439119D01*
X20337024Y-13410548D01*
X20327500Y-13391500D01*
X20308452Y-13362928D01*
X20298929Y-13353405D01*
M02*
