%FSLAX45Y45*%
G04 Gerber Fmt 4.5, Leading zero omitted, Abs format (unit mm)*
G04 Created by KiCad (PCBNEW (6.0.0)) date 2022-01-23 05:48:25*
%MOMM*%
%LPD*%
G01*
G04 APERTURE LIST*
%TA.AperFunction,Profile*%
%ADD10C,0.050000*%
%TD*%
%ADD11C,0.200000*%
G04 APERTURE END LIST*
D10*
X18365000Y-6291848D02*
X18365000Y-6331508D01*
X18570000Y-6803934D02*
G75*
G03*
X18720000Y-6653934I0J150000D01*
G01*
X19460606Y-6221212D02*
G75*
G03*
X19473337Y-6193021I-17808J25012D01*
G01*
X18070000Y-6803934D02*
X18570000Y-6803934D01*
X20470000Y-6803934D02*
X20970000Y-6803934D01*
X19450355Y-6356152D02*
G75*
G03*
X19475000Y-6331508I0J24645D01*
G01*
X20790606Y-6240000D02*
G75*
G03*
X20778995Y-6221212I-21005J0D01*
G01*
X20673337Y-6160000D02*
G75*
G03*
X20648000Y-6135000I-25002J0D01*
G01*
X19770000Y-6803934D02*
G75*
G03*
X19920000Y-6653934I0J150000D01*
G01*
X17190606Y-6267203D02*
X17190606Y-6240000D01*
X20320000Y-6285000D02*
X20320000Y-6653934D01*
X18185000Y-6428726D02*
X18185000Y-6703934D01*
X18248000Y-6135000D02*
X18070000Y-6135000D01*
X17190606Y-6240000D02*
G75*
G03*
X17178995Y-6221212I-21005J0D01*
G01*
X18275000Y-6331508D02*
X18275000Y-6291848D01*
X19448000Y-6135000D02*
X19270000Y-6135000D01*
X20660606Y-6221212D02*
G75*
G03*
X20648995Y-6240000I9394J-18788D01*
G01*
X18273337Y-6193021D02*
X18273337Y-6160000D01*
X18365000Y-6331508D02*
G75*
G03*
X18389645Y-6356152I24645J0D01*
G01*
X20585000Y-6428726D02*
X20585000Y-6703934D01*
X19566265Y-6193021D02*
G75*
G03*
X19578995Y-6221212I30538J-3180D01*
G01*
X20675000Y-6291848D02*
G75*
G03*
X20648995Y-6267203I-24680J0D01*
G01*
X20855000Y-6703934D02*
X20855000Y-6428726D01*
X20792000Y-6135000D02*
G75*
G03*
X20766265Y-6160000I-1046J-24670D01*
G01*
X20470000Y-6135000D02*
G75*
G03*
X20320000Y-6285000I0J-150000D01*
G01*
X19565000Y-6291848D02*
X19565000Y-6331508D01*
X18250355Y-6356152D02*
G75*
G03*
X18275000Y-6331508I0J24645D01*
G01*
X19566265Y-6160000D02*
X19566265Y-6193021D01*
X20766265Y-6160000D02*
X20766265Y-6193021D01*
X18273337Y-6160000D02*
G75*
G03*
X18248000Y-6135000I-25002J0D01*
G01*
X20791005Y-6267203D02*
G75*
G03*
X20765000Y-6291848I-1325J-24645D01*
G01*
X20673337Y-6193021D02*
X20673337Y-6160000D01*
X20790606Y-6267203D02*
X20790606Y-6240000D01*
X20675000Y-6331508D02*
X20675000Y-6291848D01*
X19592000Y-6135000D02*
G75*
G03*
X19566265Y-6160000I-1046J-24670D01*
G01*
X21120000Y-6285000D02*
G75*
G03*
X20970000Y-6135000I-150000J0D01*
G01*
X19270000Y-6803934D02*
X19770000Y-6803934D01*
X19120000Y-6285000D02*
X19120000Y-6653934D01*
X20765000Y-6331508D02*
G75*
G03*
X20789645Y-6356152I24645J0D01*
G01*
X19475000Y-6291848D02*
G75*
G03*
X19448995Y-6267203I-24680J0D01*
G01*
X20650355Y-6356152D02*
G75*
G03*
X20585000Y-6428726I7617J-72573D01*
G01*
X19920000Y-6285000D02*
G75*
G03*
X19770000Y-6135000I-150000J0D01*
G01*
X20970000Y-6803934D02*
G75*
G03*
X21120000Y-6653934I0J150000D01*
G01*
X19460606Y-6221212D02*
G75*
G03*
X19448995Y-6240000I9394J-18788D01*
G01*
X19450355Y-6356152D02*
G75*
G03*
X19385000Y-6428726I7617J-72573D01*
G01*
X18390606Y-6267203D02*
X18390606Y-6240000D01*
X18390606Y-6240000D02*
G75*
G03*
X18378995Y-6221212I-21005J0D01*
G01*
X19270000Y-6135000D02*
G75*
G03*
X19120000Y-6285000I0J-150000D01*
G01*
X18260606Y-6221212D02*
G75*
G03*
X18248995Y-6240000I9394J-18788D01*
G01*
X18455000Y-6703934D02*
X18455000Y-6428726D01*
X17050355Y-6356152D02*
G75*
G03*
X16985000Y-6428726I7617J-72573D01*
G01*
X18070000Y-6135000D02*
G75*
G03*
X17920000Y-6285000I0J-150000D01*
G01*
X19475000Y-6331508D02*
X19475000Y-6291848D01*
X20585000Y-6703934D02*
X20855000Y-6703934D01*
X20855000Y-6428726D02*
G75*
G03*
X20789645Y-6356152I-72973J0D01*
G01*
X18391005Y-6267203D02*
G75*
G03*
X18365000Y-6291848I-1325J-24645D01*
G01*
X15831066Y-6291848D02*
G75*
G03*
X15805061Y-6267203I-24680J0D01*
G01*
X20648995Y-6240000D02*
X20648995Y-6267203D01*
X20320000Y-6653934D02*
G75*
G03*
X20470000Y-6803934I150000J0D01*
G01*
X18366265Y-6160000D02*
X18366265Y-6193021D01*
X15804066Y-6135000D02*
X15626066Y-6135000D01*
X17520000Y-6285000D02*
G75*
G03*
X17370000Y-6135000I-150000J0D01*
G01*
X15816672Y-6221212D02*
G75*
G03*
X15829403Y-6193021I-17808J25012D01*
G01*
X19448995Y-6240000D02*
X19448995Y-6267203D01*
X16985000Y-6703934D02*
X17255000Y-6703934D01*
X15921066Y-6291848D02*
X15921066Y-6331508D01*
X17520000Y-6653934D02*
X17520000Y-6285000D01*
X19590606Y-6267203D02*
X19590606Y-6240000D01*
X18260606Y-6221212D02*
G75*
G03*
X18273337Y-6193021I-17808J25012D01*
G01*
X17255000Y-6703934D02*
X17255000Y-6428726D01*
X16720000Y-6653934D02*
G75*
G03*
X16870000Y-6803934I150000J0D01*
G01*
X18570000Y-6135000D02*
X18392000Y-6135000D01*
X19770000Y-6135000D02*
X19592000Y-6135000D01*
X17255000Y-6428726D02*
G75*
G03*
X17189645Y-6356152I-72973J0D01*
G01*
X20648000Y-6135000D02*
X20470000Y-6135000D01*
X18720000Y-6653934D02*
X18720000Y-6285000D01*
X15946672Y-6240000D02*
G75*
G03*
X15935061Y-6221212I-21005J0D01*
G01*
X15816672Y-6221212D02*
G75*
G03*
X15805061Y-6240000I9394J-18788D01*
G01*
X17050355Y-6356152D02*
G75*
G03*
X17075000Y-6331508I0J24645D01*
G01*
X15922330Y-6160000D02*
X15922330Y-6193021D01*
X17075000Y-6291848D02*
G75*
G03*
X17048995Y-6267203I-24680J0D01*
G01*
X18720000Y-6285000D02*
G75*
G03*
X18570000Y-6135000I-150000J0D01*
G01*
X18185000Y-6703934D02*
X18455000Y-6703934D01*
X19473337Y-6160000D02*
G75*
G03*
X19448000Y-6135000I-25002J0D01*
G01*
X19590606Y-6240000D02*
G75*
G03*
X19578995Y-6221212I-21005J0D01*
G01*
X19473337Y-6193021D02*
X19473337Y-6160000D01*
X15626066Y-6135000D02*
G75*
G03*
X15476066Y-6285000I0J-150000D01*
G01*
X19120000Y-6653934D02*
G75*
G03*
X19270000Y-6803934I150000J0D01*
G01*
X16870000Y-6803934D02*
X17370000Y-6803934D01*
X20650355Y-6356152D02*
G75*
G03*
X20675000Y-6331508I0J24645D01*
G01*
X20765000Y-6291848D02*
X20765000Y-6331508D01*
X17920000Y-6285000D02*
X17920000Y-6653934D01*
X17073337Y-6193021D02*
X17073337Y-6160000D01*
X16011066Y-6703934D02*
X16011066Y-6428726D01*
X15806421Y-6356152D02*
G75*
G03*
X15831066Y-6331508I0J24645D01*
G01*
X20766265Y-6193021D02*
G75*
G03*
X20778995Y-6221212I30538J-3180D01*
G01*
X21120000Y-6653934D02*
X21120000Y-6285000D01*
X17920000Y-6653934D02*
G75*
G03*
X18070000Y-6803934I150000J0D01*
G01*
X19385000Y-6703934D02*
X19655000Y-6703934D01*
X17166265Y-6193021D02*
G75*
G03*
X17178995Y-6221212I30538J-3180D01*
G01*
X19385000Y-6428726D02*
X19385000Y-6703934D01*
X15829403Y-6160000D02*
G75*
G03*
X15804066Y-6135000I-25002J0D01*
G01*
X16720000Y-6285000D02*
X16720000Y-6653934D01*
X18366265Y-6193021D02*
G75*
G03*
X18378995Y-6221212I30538J-3180D01*
G01*
X15476066Y-6653934D02*
G75*
G03*
X15626066Y-6803934I150000J0D01*
G01*
X17048000Y-6135000D02*
X16870000Y-6135000D01*
X15948066Y-6135000D02*
G75*
G03*
X15922330Y-6160000I-1046J-24670D01*
G01*
X19655000Y-6703934D02*
X19655000Y-6428726D01*
X17048995Y-6240000D02*
X17048995Y-6267203D01*
X20970000Y-6135000D02*
X20792000Y-6135000D01*
X19655000Y-6428726D02*
G75*
G03*
X19589645Y-6356152I-72973J0D01*
G01*
X20660606Y-6221212D02*
G75*
G03*
X20673337Y-6193021I-17808J25012D01*
G01*
X16011066Y-6428726D02*
G75*
G03*
X15945711Y-6356152I-72973J0D01*
G01*
X15831066Y-6331508D02*
X15831066Y-6291848D01*
X16276066Y-6653934D02*
X16276066Y-6285000D01*
X15921066Y-6331508D02*
G75*
G03*
X15945711Y-6356152I24645J0D01*
G01*
X17166265Y-6160000D02*
X17166265Y-6193021D01*
X17370000Y-6803934D02*
G75*
G03*
X17520000Y-6653934I0J150000D01*
G01*
X18275000Y-6291848D02*
G75*
G03*
X18248995Y-6267203I-24680J0D01*
G01*
X18455000Y-6428726D02*
G75*
G03*
X18389645Y-6356152I-72973J0D01*
G01*
X17191005Y-6267203D02*
G75*
G03*
X17165000Y-6291848I-1325J-24645D01*
G01*
X15805061Y-6240000D02*
X15805061Y-6267203D01*
X15829403Y-6193021D02*
X15829403Y-6160000D01*
X18392000Y-6135000D02*
G75*
G03*
X18366265Y-6160000I-1046J-24670D01*
G01*
X15947071Y-6267203D02*
G75*
G03*
X15921066Y-6291848I-1325J-24645D01*
G01*
X17075000Y-6331508D02*
X17075000Y-6291848D01*
X17073337Y-6160000D02*
G75*
G03*
X17048000Y-6135000I-25002J0D01*
G01*
X15626066Y-6803934D02*
X16126066Y-6803934D01*
X16126066Y-6135000D02*
X15948066Y-6135000D01*
X17370000Y-6135000D02*
X17192000Y-6135000D01*
X17192000Y-6135000D02*
G75*
G03*
X17166265Y-6160000I-1046J-24670D01*
G01*
X19591005Y-6267203D02*
G75*
G03*
X19565000Y-6291848I-1325J-24645D01*
G01*
X15476066Y-6285000D02*
X15476066Y-6653934D01*
X19565000Y-6331508D02*
G75*
G03*
X19589645Y-6356152I24645J0D01*
G01*
X16870000Y-6135000D02*
G75*
G03*
X16720000Y-6285000I0J-150000D01*
G01*
X15922330Y-6193021D02*
G75*
G03*
X15935061Y-6221212I30538J-3180D01*
G01*
X18248995Y-6240000D02*
X18248995Y-6267203D01*
X15741066Y-6703934D02*
X16011066Y-6703934D01*
X17060606Y-6221212D02*
G75*
G03*
X17048995Y-6240000I9394J-18788D01*
G01*
X18250355Y-6356152D02*
G75*
G03*
X18185000Y-6428726I7617J-72573D01*
G01*
X16276066Y-6285000D02*
G75*
G03*
X16126066Y-6135000I-150000J0D01*
G01*
X15806421Y-6356152D02*
G75*
G03*
X15741066Y-6428726I7617J-72573D01*
G01*
X16126066Y-6803934D02*
G75*
G03*
X16276066Y-6653934I0J150000D01*
G01*
X19920000Y-6653934D02*
X19920000Y-6285000D01*
X15946672Y-6267203D02*
X15946672Y-6240000D01*
X17165000Y-6291848D02*
X17165000Y-6331508D01*
X16985000Y-6428726D02*
X16985000Y-6703934D01*
X15741066Y-6428726D02*
X15741066Y-6703934D01*
X17165000Y-6331508D02*
G75*
G03*
X17189645Y-6356152I24645J0D01*
G01*
X17060606Y-6221212D02*
G75*
G03*
X17073337Y-6193021I-17808J25012D01*
G01*
X20792000Y-7247132D02*
G75*
G03*
X20766265Y-7272132I-1046J-24670D01*
G01*
X20790606Y-7352132D02*
G75*
G03*
X20778995Y-7333345I-21005J0D01*
G01*
X19592000Y-7247132D02*
G75*
G03*
X19566265Y-7272132I-1046J-24670D01*
G01*
X20673337Y-7272132D02*
G75*
G03*
X20648000Y-7247132I-25002J0D01*
G01*
X20585000Y-7540858D02*
X20585000Y-7816066D01*
X20766265Y-7272132D02*
X20766265Y-7305153D01*
X20675000Y-7443640D02*
X20675000Y-7403980D01*
X20673337Y-7305153D02*
X20673337Y-7272132D01*
X20791005Y-7379335D02*
G75*
G03*
X20765000Y-7403980I-1325J-24645D01*
G01*
X20470000Y-7916066D02*
X20970000Y-7916066D01*
X20320000Y-7397132D02*
X20320000Y-7766066D01*
X20790606Y-7379335D02*
X20790606Y-7352132D01*
X21120000Y-7397132D02*
G75*
G03*
X20970000Y-7247132I-150000J0D01*
G01*
X19270000Y-7247132D02*
G75*
G03*
X19120000Y-7397132I0J-150000D01*
G01*
X19460606Y-7333345D02*
G75*
G03*
X19448995Y-7352132I9394J-18788D01*
G01*
X18248000Y-7247132D02*
X18070000Y-7247132D01*
X20765000Y-7443640D02*
G75*
G03*
X20789645Y-7468284I24645J0D01*
G01*
X19450355Y-7468284D02*
G75*
G03*
X19475000Y-7443640I0J24645D01*
G01*
X19120000Y-7397132D02*
X19120000Y-7766066D01*
X19270000Y-7916066D02*
X19770000Y-7916066D01*
X18365000Y-7403980D02*
X18365000Y-7443640D01*
X18070000Y-7916066D02*
X18570000Y-7916066D01*
X18273337Y-7272132D02*
G75*
G03*
X18248000Y-7247132I-25002J0D01*
G01*
X18185000Y-7540858D02*
X18185000Y-7816066D01*
X19450355Y-7468284D02*
G75*
G03*
X19385000Y-7540858I7617J-72573D01*
G01*
X19475000Y-7403980D02*
G75*
G03*
X19448995Y-7379335I-24680J0D01*
G01*
X18390606Y-7352132D02*
G75*
G03*
X18378995Y-7333345I-21005J0D01*
G01*
X18570000Y-7916066D02*
G75*
G03*
X18720000Y-7766066I0J150000D01*
G01*
X17190606Y-7352132D02*
G75*
G03*
X17178995Y-7333345I-21005J0D01*
G01*
X18275000Y-7443640D02*
X18275000Y-7403980D01*
X19920000Y-7397132D02*
G75*
G03*
X19770000Y-7247132I-150000J0D01*
G01*
X19770000Y-7916066D02*
G75*
G03*
X19920000Y-7766066I0J150000D01*
G01*
X18390606Y-7379335D02*
X18390606Y-7352132D01*
X20970000Y-7916066D02*
G75*
G03*
X21120000Y-7766066I0J150000D01*
G01*
X20470000Y-7247132D02*
G75*
G03*
X20320000Y-7397132I0J-150000D01*
G01*
X20650355Y-7468284D02*
G75*
G03*
X20585000Y-7540858I7617J-72573D01*
G01*
X19460606Y-7333345D02*
G75*
G03*
X19473337Y-7305153I-17808J25012D01*
G01*
X17190606Y-7379335D02*
X17190606Y-7352132D01*
X20675000Y-7403980D02*
G75*
G03*
X20648995Y-7379335I-24680J0D01*
G01*
X20660606Y-7333345D02*
G75*
G03*
X20648995Y-7352132I9394J-18788D01*
G01*
X19566265Y-7272132D02*
X19566265Y-7305153D01*
X20855000Y-7816066D02*
X20855000Y-7540858D01*
X18273337Y-7305153D02*
X18273337Y-7272132D01*
X18365000Y-7443640D02*
G75*
G03*
X18389645Y-7468284I24645J0D01*
G01*
X19448000Y-7247132D02*
X19270000Y-7247132D01*
X18250355Y-7468284D02*
G75*
G03*
X18275000Y-7443640I0J24645D01*
G01*
X19565000Y-7403980D02*
X19565000Y-7443640D01*
X19566265Y-7305153D02*
G75*
G03*
X19578995Y-7333345I30538J-3180D01*
G01*
X19655000Y-7816066D02*
X19655000Y-7540858D01*
X20660606Y-7333345D02*
G75*
G03*
X20673337Y-7305153I-17808J25012D01*
G01*
X18455000Y-7816066D02*
X18455000Y-7540858D01*
X20766265Y-7305153D02*
G75*
G03*
X20778995Y-7333345I30538J-3180D01*
G01*
X19475000Y-7443640D02*
X19475000Y-7403980D01*
X20585000Y-7816066D02*
X20855000Y-7816066D01*
X20855000Y-7540858D02*
G75*
G03*
X20789645Y-7468284I-72973J0D01*
G01*
X20648995Y-7352132D02*
X20648995Y-7379335D01*
X19473337Y-7272132D02*
G75*
G03*
X19448000Y-7247132I-25002J0D01*
G01*
X18260606Y-7333345D02*
G75*
G03*
X18273337Y-7305153I-17808J25012D01*
G01*
X19590606Y-7379335D02*
X19590606Y-7352132D01*
X20650355Y-7468284D02*
G75*
G03*
X20675000Y-7443640I0J24645D01*
G01*
X19473337Y-7305153D02*
X19473337Y-7272132D01*
X20320000Y-7766066D02*
G75*
G03*
X20470000Y-7916066I150000J0D01*
G01*
X18570000Y-7247132D02*
X18392000Y-7247132D01*
X20765000Y-7403980D02*
X20765000Y-7443640D01*
X19655000Y-7540858D02*
G75*
G03*
X19589645Y-7468284I-72973J0D01*
G01*
X21120000Y-7766066D02*
X21120000Y-7397132D01*
X19590606Y-7352132D02*
G75*
G03*
X19578995Y-7333345I-21005J0D01*
G01*
X17920000Y-7766066D02*
G75*
G03*
X18070000Y-7916066I150000J0D01*
G01*
X18070000Y-7247132D02*
G75*
G03*
X17920000Y-7397132I0J-150000D01*
G01*
X19770000Y-7247132D02*
X19592000Y-7247132D01*
X17920000Y-7397132D02*
X17920000Y-7766066D01*
X18391005Y-7379335D02*
G75*
G03*
X18365000Y-7403980I-1325J-24645D01*
G01*
X17166265Y-7305153D02*
G75*
G03*
X17178995Y-7333345I30538J-3180D01*
G01*
X18720000Y-7766066D02*
X18720000Y-7397132D01*
X19120000Y-7766066D02*
G75*
G03*
X19270000Y-7916066I150000J0D01*
G01*
X18366265Y-7272132D02*
X18366265Y-7305153D01*
X19385000Y-7816066D02*
X19655000Y-7816066D01*
X20970000Y-7247132D02*
X20792000Y-7247132D01*
X20648000Y-7247132D02*
X20470000Y-7247132D01*
X18366265Y-7305153D02*
G75*
G03*
X18378995Y-7333345I30538J-3180D01*
G01*
X15831066Y-7403980D02*
G75*
G03*
X15805061Y-7379335I-24680J0D01*
G01*
X17073337Y-7305153D02*
X17073337Y-7272132D01*
X19448995Y-7352132D02*
X19448995Y-7379335D01*
X16720000Y-7766066D02*
G75*
G03*
X16870000Y-7916066I150000J0D01*
G01*
X15626066Y-7247132D02*
G75*
G03*
X15476066Y-7397132I0J-150000D01*
G01*
X15921066Y-7403980D02*
X15921066Y-7443640D01*
X17255000Y-7540858D02*
G75*
G03*
X17189645Y-7468284I-72973J0D01*
G01*
X15946672Y-7352132D02*
G75*
G03*
X15935061Y-7333345I-21005J0D01*
G01*
X18720000Y-7397132D02*
G75*
G03*
X18570000Y-7247132I-150000J0D01*
G01*
X19385000Y-7540858D02*
X19385000Y-7816066D01*
X17048000Y-7247132D02*
X16870000Y-7247132D01*
X18260606Y-7333345D02*
G75*
G03*
X18248995Y-7352132I9394J-18788D01*
G01*
X18185000Y-7816066D02*
X18455000Y-7816066D01*
X17520000Y-7766066D02*
X17520000Y-7397132D01*
X15816672Y-7333345D02*
G75*
G03*
X15829403Y-7305153I-17808J25012D01*
G01*
X16870000Y-7916066D02*
X17370000Y-7916066D01*
X15816672Y-7333345D02*
G75*
G03*
X15805061Y-7352132I9394J-18788D01*
G01*
X17050355Y-7468284D02*
G75*
G03*
X16985000Y-7540858I7617J-72573D01*
G01*
X16011066Y-7816066D02*
X16011066Y-7540858D01*
X17050355Y-7468284D02*
G75*
G03*
X17075000Y-7443640I0J24645D01*
G01*
X16985000Y-7816066D02*
X17255000Y-7816066D01*
X17075000Y-7403980D02*
G75*
G03*
X17048995Y-7379335I-24680J0D01*
G01*
X15804066Y-7247132D02*
X15626066Y-7247132D01*
X16720000Y-7397132D02*
X16720000Y-7766066D01*
X15948066Y-7247132D02*
G75*
G03*
X15922330Y-7272132I-1046J-24670D01*
G01*
X15806421Y-7468284D02*
G75*
G03*
X15831066Y-7443640I0J24645D01*
G01*
X15476066Y-7766066D02*
G75*
G03*
X15626066Y-7916066I150000J0D01*
G01*
X17048995Y-7352132D02*
X17048995Y-7379335D01*
X17520000Y-7397132D02*
G75*
G03*
X17370000Y-7247132I-150000J0D01*
G01*
X15829403Y-7272132D02*
G75*
G03*
X15804066Y-7247132I-25002J0D01*
G01*
X17255000Y-7816066D02*
X17255000Y-7540858D01*
X15922330Y-7272132D02*
X15922330Y-7305153D01*
X17192000Y-7247132D02*
G75*
G03*
X17166265Y-7272132I-1046J-24670D01*
G01*
X19591005Y-7379335D02*
G75*
G03*
X19565000Y-7403980I-1325J-24645D01*
G01*
X15476066Y-7397132D02*
X15476066Y-7766066D01*
X19565000Y-7443640D02*
G75*
G03*
X19589645Y-7468284I24645J0D01*
G01*
X16870000Y-7247132D02*
G75*
G03*
X16720000Y-7397132I0J-150000D01*
G01*
X17370000Y-7247132D02*
X17192000Y-7247132D01*
X15922330Y-7305153D02*
G75*
G03*
X15935061Y-7333345I30538J-3180D01*
G01*
X18248995Y-7352132D02*
X18248995Y-7379335D01*
X17060606Y-7333345D02*
G75*
G03*
X17048995Y-7352132I9394J-18788D01*
G01*
X18250355Y-7468284D02*
G75*
G03*
X18185000Y-7540858I7617J-72573D01*
G01*
X15806421Y-7468284D02*
G75*
G03*
X15741066Y-7540858I7617J-72573D01*
G01*
X15741066Y-7816066D02*
X16011066Y-7816066D01*
X16985000Y-7540858D02*
X16985000Y-7816066D01*
X17060606Y-7333345D02*
G75*
G03*
X17073337Y-7305153I-17808J25012D01*
G01*
X19920000Y-7766066D02*
X19920000Y-7397132D01*
X18275000Y-7403980D02*
G75*
G03*
X18248995Y-7379335I-24680J0D01*
G01*
X17166265Y-7272132D02*
X17166265Y-7305153D01*
X17191005Y-7379335D02*
G75*
G03*
X17165000Y-7403980I-1325J-24645D01*
G01*
X18392000Y-7247132D02*
G75*
G03*
X18366265Y-7272132I-1046J-24670D01*
G01*
X18455000Y-7540858D02*
G75*
G03*
X18389645Y-7468284I-72973J0D01*
G01*
X17165000Y-7443640D02*
G75*
G03*
X17189645Y-7468284I24645J0D01*
G01*
X17370000Y-7916066D02*
G75*
G03*
X17520000Y-7766066I0J150000D01*
G01*
X17075000Y-7443640D02*
X17075000Y-7403980D01*
X17073337Y-7272132D02*
G75*
G03*
X17048000Y-7247132I-25002J0D01*
G01*
X15946672Y-7379335D02*
X15946672Y-7352132D01*
X15829403Y-7305153D02*
X15829403Y-7272132D01*
X15741066Y-7540858D02*
X15741066Y-7816066D01*
X17165000Y-7403980D02*
X17165000Y-7443640D01*
X15626066Y-7916066D02*
X16126066Y-7916066D01*
X16276066Y-7397132D02*
G75*
G03*
X16126066Y-7247132I-150000J0D01*
G01*
X15947071Y-7379335D02*
G75*
G03*
X15921066Y-7403980I-1325J-24645D01*
G01*
X16126066Y-7916066D02*
G75*
G03*
X16276066Y-7766066I0J150000D01*
G01*
X15805061Y-7352132D02*
X15805061Y-7379335D01*
X19270000Y-8341066D02*
G75*
G03*
X19120000Y-8491066I0J-150000D01*
G01*
X19592000Y-8341066D02*
G75*
G03*
X19566264Y-8366066I-1046J-24670D01*
G01*
X19460606Y-8427279D02*
G75*
G03*
X19448995Y-8446066I9394J-18788D01*
G01*
X20790606Y-8446066D02*
G75*
G03*
X20778995Y-8427279I-21005J0D01*
G01*
X20673337Y-8399087D02*
X20673337Y-8366066D01*
X20470000Y-9010000D02*
X20970000Y-9010000D01*
X20585000Y-8634792D02*
X20585000Y-8910000D01*
X20791005Y-8473269D02*
G75*
G03*
X20765000Y-8497914I-1325J-24645D01*
G01*
X21120000Y-8491066D02*
G75*
G03*
X20970000Y-8341066I-150000J0D01*
G01*
X20675000Y-8537574D02*
X20675000Y-8497914D01*
X20766264Y-8366066D02*
X20766264Y-8399087D01*
X20673337Y-8366066D02*
G75*
G03*
X20648000Y-8341066I-25002J0D01*
G01*
X20792000Y-8341066D02*
G75*
G03*
X20766264Y-8366066I-1046J-24670D01*
G01*
X20790606Y-8473269D02*
X20790606Y-8446066D01*
X20320000Y-8491066D02*
X20320000Y-8860000D01*
X20470000Y-8341066D02*
G75*
G03*
X20320000Y-8491066I0J-150000D01*
G01*
X16126066Y-7247132D02*
X15948066Y-7247132D01*
X15921066Y-7443640D02*
G75*
G03*
X15945711Y-7468284I24645J0D01*
G01*
X20650355Y-8562218D02*
G75*
G03*
X20585000Y-8634792I7617J-72573D01*
G01*
X20766264Y-8399087D02*
G75*
G03*
X20778995Y-8427279I30538J-3180D01*
G01*
X20585000Y-8910000D02*
X20855000Y-8910000D01*
X20675000Y-8497914D02*
G75*
G03*
X20648995Y-8473269I-24680J0D01*
G01*
X20855000Y-8634792D02*
G75*
G03*
X20789645Y-8562218I-72973J0D01*
G01*
X20648995Y-8446066D02*
X20648995Y-8473269D01*
X20660606Y-8427279D02*
G75*
G03*
X20648995Y-8446066I9394J-18788D01*
G01*
X19473337Y-8366066D02*
G75*
G03*
X19448000Y-8341066I-25002J0D01*
G01*
X19590606Y-8473269D02*
X19590606Y-8446066D01*
X16276066Y-7766066D02*
X16276066Y-7397132D01*
X20650355Y-8562218D02*
G75*
G03*
X20675000Y-8537574I0J24645D01*
G01*
X20320000Y-8860000D02*
G75*
G03*
X20470000Y-9010000I150000J0D01*
G01*
X19566264Y-8366066D02*
X19566264Y-8399087D01*
X19566264Y-8399087D02*
G75*
G03*
X19578995Y-8427279I30538J-3180D01*
G01*
X19590606Y-8446066D02*
G75*
G03*
X19578995Y-8427279I-21005J0D01*
G01*
X20970000Y-8341066D02*
X20792000Y-8341066D01*
X20855000Y-8910000D02*
X20855000Y-8634792D01*
X20765000Y-8497914D02*
X20765000Y-8537574D01*
X20648000Y-8341066D02*
X20470000Y-8341066D01*
X20970000Y-9010000D02*
G75*
G03*
X21120000Y-8860000I0J150000D01*
G01*
X21120000Y-8860000D02*
X21120000Y-8491066D01*
X20765000Y-8537574D02*
G75*
G03*
X20789645Y-8562218I24645J0D01*
G01*
X19473337Y-8399087D02*
X19473337Y-8366066D01*
X20660606Y-8427279D02*
G75*
G03*
X20673337Y-8399087I-17808J25012D01*
G01*
X16011066Y-7540858D02*
G75*
G03*
X15945711Y-7468284I-72973J0D01*
G01*
X15831066Y-7443640D02*
X15831066Y-7403980D01*
X18365000Y-8537574D02*
G75*
G03*
X18389645Y-8562218I24645J0D01*
G01*
X19450355Y-8562218D02*
G75*
G03*
X19475000Y-8537574I0J24645D01*
G01*
X19120000Y-8491066D02*
X19120000Y-8860000D01*
X17920000Y-8860000D02*
G75*
G03*
X18070000Y-9010000I150000J0D01*
G01*
X19475000Y-8537574D02*
X19475000Y-8497914D01*
X19385000Y-8910000D02*
X19655000Y-8910000D01*
X19270000Y-9010000D02*
X19770000Y-9010000D01*
X18365000Y-8497914D02*
X18365000Y-8537574D01*
X18070000Y-9010000D02*
X18570000Y-9010000D01*
X19655000Y-8634792D02*
G75*
G03*
X19589645Y-8562218I-72973J0D01*
G01*
X18570000Y-8341066D02*
X18392000Y-8341066D01*
X18273337Y-8366066D02*
G75*
G03*
X18248000Y-8341066I-25002J0D01*
G01*
X18273337Y-8399087D02*
X18273337Y-8366066D01*
X18070000Y-8341066D02*
G75*
G03*
X17920000Y-8491066I0J-150000D01*
G01*
X19565000Y-8497914D02*
X19565000Y-8537574D01*
X19120000Y-8860000D02*
G75*
G03*
X19270000Y-9010000I150000J0D01*
G01*
X19770000Y-8341066D02*
X19592000Y-8341066D01*
X18185000Y-8634792D02*
X18185000Y-8910000D01*
X19450355Y-8562218D02*
G75*
G03*
X19385000Y-8634792I7617J-72573D01*
G01*
X19475000Y-8497914D02*
G75*
G03*
X19448995Y-8473269I-24680J0D01*
G01*
X19770000Y-9010000D02*
G75*
G03*
X19920000Y-8860000I0J150000D01*
G01*
X18390606Y-8446066D02*
G75*
G03*
X18378995Y-8427279I-21005J0D01*
G01*
X18260606Y-8427279D02*
G75*
G03*
X18273337Y-8399087I-17808J25012D01*
G01*
X17166264Y-8399087D02*
G75*
G03*
X17178995Y-8427279I30538J-3180D01*
G01*
X18248000Y-8341066D02*
X18070000Y-8341066D01*
X18391005Y-8473269D02*
G75*
G03*
X18365000Y-8497914I-1325J-24645D01*
G01*
X18570000Y-9010000D02*
G75*
G03*
X18720000Y-8860000I0J150000D01*
G01*
X18720000Y-8860000D02*
X18720000Y-8491066D01*
X17190606Y-8446066D02*
G75*
G03*
X17178995Y-8427279I-21005J0D01*
G01*
X18250355Y-8562218D02*
G75*
G03*
X18275000Y-8537574I0J24645D01*
G01*
X18455000Y-8910000D02*
X18455000Y-8634792D01*
X19460606Y-8427279D02*
G75*
G03*
X19473337Y-8399087I-17808J25012D01*
G01*
X19655000Y-8910000D02*
X19655000Y-8634792D01*
X17920000Y-8491066D02*
X17920000Y-8860000D01*
X19448000Y-8341066D02*
X19270000Y-8341066D01*
X17190606Y-8473269D02*
X17190606Y-8446066D01*
X18390606Y-8473269D02*
X18390606Y-8446066D01*
X18366264Y-8366066D02*
X18366264Y-8399087D01*
X18275000Y-8537574D02*
X18275000Y-8497914D01*
X19920000Y-8491066D02*
G75*
G03*
X19770000Y-8341066I-150000J0D01*
G01*
X17192000Y-8341066D02*
G75*
G03*
X17166264Y-8366066I-1046J-24670D01*
G01*
X19565000Y-8537574D02*
G75*
G03*
X19589645Y-8562218I24645J0D01*
G01*
X18248995Y-8446066D02*
X18248995Y-8473269D01*
X19920000Y-8860000D02*
X19920000Y-8491066D01*
X17166264Y-8366066D02*
X17166264Y-8399087D01*
X18366264Y-8399087D02*
G75*
G03*
X18378995Y-8427279I30538J-3180D01*
G01*
X17073337Y-8399087D02*
X17073337Y-8366066D01*
X18392000Y-8341066D02*
G75*
G03*
X18366264Y-8366066I-1046J-24670D01*
G01*
X17060606Y-8427279D02*
G75*
G03*
X17048995Y-8446066I9394J-18788D01*
G01*
X18250355Y-8562218D02*
G75*
G03*
X18185000Y-8634792I7617J-72573D01*
G01*
X18455000Y-8634792D02*
G75*
G03*
X18389645Y-8562218I-72973J0D01*
G01*
X19448995Y-8446066D02*
X19448995Y-8473269D01*
X18275000Y-8497914D02*
G75*
G03*
X18248995Y-8473269I-24680J0D01*
G01*
X18720000Y-8491066D02*
G75*
G03*
X18570000Y-8341066I-150000J0D01*
G01*
X19385000Y-8634792D02*
X19385000Y-8910000D01*
X19591005Y-8473269D02*
G75*
G03*
X19565000Y-8497914I-1325J-24645D01*
G01*
X18260606Y-8427279D02*
G75*
G03*
X18248995Y-8446066I9394J-18788D01*
G01*
X18185000Y-8910000D02*
X18455000Y-8910000D01*
X16870000Y-8341066D02*
G75*
G03*
X16720000Y-8491066I0J-150000D01*
G01*
X17073337Y-8366066D02*
G75*
G03*
X17048000Y-8341066I-25002J0D01*
G01*
X17048000Y-8341066D02*
X16870000Y-8341066D01*
X17050355Y-8562218D02*
G75*
G03*
X17075000Y-8537574I0J24645D01*
G01*
X17060606Y-8427279D02*
G75*
G03*
X17073337Y-8399087I-17808J25012D01*
G01*
X17520000Y-8860000D02*
X17520000Y-8491066D01*
X16985000Y-8910000D02*
X17255000Y-8910000D01*
X16985000Y-8634792D02*
X16985000Y-8910000D01*
X16870000Y-9010000D02*
X17370000Y-9010000D01*
X17165000Y-8497914D02*
X17165000Y-8537574D01*
X16720000Y-8860000D02*
G75*
G03*
X16870000Y-9010000I150000J0D01*
G01*
X17050355Y-8562218D02*
G75*
G03*
X16985000Y-8634792I7617J-72573D01*
G01*
X17075000Y-8497914D02*
G75*
G03*
X17048995Y-8473269I-24680J0D01*
G01*
X17191005Y-8473269D02*
G75*
G03*
X17165000Y-8497914I-1325J-24645D01*
G01*
X17370000Y-9010000D02*
G75*
G03*
X17520000Y-8860000I0J150000D01*
G01*
X17048995Y-8446066D02*
X17048995Y-8473269D01*
X17165000Y-8537574D02*
G75*
G03*
X17189645Y-8562218I24645J0D01*
G01*
X17255000Y-8634792D02*
G75*
G03*
X17189645Y-8562218I-72973J0D01*
G01*
X17075000Y-8537574D02*
X17075000Y-8497914D01*
X17255000Y-8910000D02*
X17255000Y-8634792D01*
X16720000Y-8491066D02*
X16720000Y-8860000D01*
X17520000Y-8491066D02*
G75*
G03*
X17370000Y-8341066I-150000J0D01*
G01*
X17370000Y-8341066D02*
X17192000Y-8341066D01*
X15922330Y-8366066D02*
X15922330Y-8399087D01*
X15922330Y-8399087D02*
G75*
G03*
X15935061Y-8427279I30538J-3180D01*
G01*
X15829403Y-8366066D02*
G75*
G03*
X15804066Y-8341066I-25002J0D01*
G01*
X15946672Y-8446066D02*
G75*
G03*
X15935061Y-8427279I-21005J0D01*
G01*
X15948066Y-8341066D02*
G75*
G03*
X15922330Y-8366066I-1046J-24670D01*
G01*
X15946672Y-8473269D02*
X15946672Y-8446066D01*
X15816672Y-8427279D02*
G75*
G03*
X15805061Y-8446066I9394J-18788D01*
G01*
X15829403Y-8399087D02*
X15829403Y-8366066D01*
X15626066Y-8341066D02*
G75*
G03*
X15476066Y-8491066I0J-150000D01*
G01*
X15806421Y-8562218D02*
G75*
G03*
X15831066Y-8537574I0J24645D01*
G01*
X15816672Y-8427279D02*
G75*
G03*
X15829403Y-8399087I-17808J25012D01*
G01*
X15741066Y-8634792D02*
X15741066Y-8910000D01*
X15921066Y-8497914D02*
X15921066Y-8537574D01*
X15476066Y-8860000D02*
G75*
G03*
X15626066Y-9010000I150000J0D01*
G01*
X15741066Y-8910000D02*
X16011066Y-8910000D01*
X16011066Y-8910000D02*
X16011066Y-8634792D01*
X15804066Y-8341066D02*
X15626066Y-8341066D01*
X15806421Y-8562218D02*
G75*
G03*
X15741066Y-8634792I7617J-72573D01*
G01*
X15831066Y-8497914D02*
G75*
G03*
X15805061Y-8473269I-24680J0D01*
G01*
X15476066Y-8491066D02*
X15476066Y-8860000D01*
X15626066Y-9010000D02*
X16126066Y-9010000D01*
X16276066Y-8491066D02*
G75*
G03*
X16126066Y-8341066I-150000J0D01*
G01*
X15947071Y-8473269D02*
G75*
G03*
X15921066Y-8497914I-1325J-24645D01*
G01*
X16126066Y-9010000D02*
G75*
G03*
X16276066Y-8860000I0J150000D01*
G01*
X16126066Y-8341066D02*
X15948066Y-8341066D01*
X15921066Y-8537574D02*
G75*
G03*
X15945711Y-8562218I24645J0D01*
G01*
X16011066Y-8634792D02*
G75*
G03*
X15945711Y-8562218I-72973J0D01*
G01*
X15831066Y-8537574D02*
X15831066Y-8497914D01*
X16276066Y-8860000D02*
X16276066Y-8491066D01*
X15805061Y-8446066D02*
X15805061Y-8473269D01*
X19270000Y-9441066D02*
G75*
G03*
X19120000Y-9591066I0J-150000D01*
G01*
X19592000Y-9441066D02*
G75*
G03*
X19566264Y-9466066I-1046J-24670D01*
G01*
X19460606Y-9527279D02*
G75*
G03*
X19448995Y-9546066I9394J-18788D01*
G01*
X20790606Y-9546066D02*
G75*
G03*
X20778995Y-9527279I-21005J0D01*
G01*
X20673337Y-9499087D02*
X20673337Y-9466066D01*
X20470000Y-10110000D02*
X20970000Y-10110000D01*
X20585000Y-9734792D02*
X20585000Y-10010000D01*
X20791005Y-9573269D02*
G75*
G03*
X20765000Y-9597914I-1325J-24645D01*
G01*
X21120000Y-9591066D02*
G75*
G03*
X20970000Y-9441066I-150000J0D01*
G01*
X20675000Y-9637574D02*
X20675000Y-9597914D01*
X20766264Y-9466066D02*
X20766264Y-9499087D01*
X20673337Y-9466066D02*
G75*
G03*
X20648000Y-9441066I-25002J0D01*
G01*
X20792000Y-9441066D02*
G75*
G03*
X20766264Y-9466066I-1046J-24670D01*
G01*
X20790606Y-9573269D02*
X20790606Y-9546066D01*
X20320000Y-9591066D02*
X20320000Y-9960000D01*
X20470000Y-9441066D02*
G75*
G03*
X20320000Y-9591066I0J-150000D01*
G01*
X20650355Y-9662218D02*
G75*
G03*
X20585000Y-9734792I7617J-72573D01*
G01*
X20766264Y-9499087D02*
G75*
G03*
X20778995Y-9527279I30538J-3180D01*
G01*
X20585000Y-10010000D02*
X20855000Y-10010000D01*
X20675000Y-9597914D02*
G75*
G03*
X20648995Y-9573269I-24680J0D01*
G01*
X20855000Y-9734792D02*
G75*
G03*
X20789645Y-9662218I-72973J0D01*
G01*
X20648995Y-9546066D02*
X20648995Y-9573269D01*
X20660606Y-9527279D02*
G75*
G03*
X20648995Y-9546066I9394J-18788D01*
G01*
X19473337Y-9466066D02*
G75*
G03*
X19448000Y-9441066I-25002J0D01*
G01*
X19590606Y-9573269D02*
X19590606Y-9546066D01*
X20650355Y-9662218D02*
G75*
G03*
X20675000Y-9637574I0J24645D01*
G01*
X20320000Y-9960000D02*
G75*
G03*
X20470000Y-10110000I150000J0D01*
G01*
X19566264Y-9466066D02*
X19566264Y-9499087D01*
X19566264Y-9499087D02*
G75*
G03*
X19578995Y-9527279I30538J-3180D01*
G01*
X19590606Y-9546066D02*
G75*
G03*
X19578995Y-9527279I-21005J0D01*
G01*
X20970000Y-9441066D02*
X20792000Y-9441066D01*
X20855000Y-10010000D02*
X20855000Y-9734792D01*
X20765000Y-9597914D02*
X20765000Y-9637574D01*
X20648000Y-9441066D02*
X20470000Y-9441066D01*
X20970000Y-10110000D02*
G75*
G03*
X21120000Y-9960000I0J150000D01*
G01*
X21120000Y-9960000D02*
X21120000Y-9591066D01*
X20765000Y-9637574D02*
G75*
G03*
X20789645Y-9662218I24645J0D01*
G01*
X19473337Y-9499087D02*
X19473337Y-9466066D01*
X20660606Y-9527279D02*
G75*
G03*
X20673337Y-9499087I-17808J25012D01*
G01*
X18365000Y-9637574D02*
G75*
G03*
X18389645Y-9662218I24645J0D01*
G01*
X19450355Y-9662218D02*
G75*
G03*
X19475000Y-9637574I0J24645D01*
G01*
X19120000Y-9591066D02*
X19120000Y-9960000D01*
X17920000Y-9960000D02*
G75*
G03*
X18070000Y-10110000I150000J0D01*
G01*
X19475000Y-9637574D02*
X19475000Y-9597914D01*
X19385000Y-10010000D02*
X19655000Y-10010000D01*
X19270000Y-10110000D02*
X19770000Y-10110000D01*
X18365000Y-9597914D02*
X18365000Y-9637574D01*
X18070000Y-10110000D02*
X18570000Y-10110000D01*
X19655000Y-9734792D02*
G75*
G03*
X19589645Y-9662218I-72973J0D01*
G01*
X18570000Y-9441066D02*
X18392000Y-9441066D01*
X18273337Y-9466066D02*
G75*
G03*
X18248000Y-9441066I-25002J0D01*
G01*
X18273337Y-9499087D02*
X18273337Y-9466066D01*
X18070000Y-9441066D02*
G75*
G03*
X17920000Y-9591066I0J-150000D01*
G01*
X19565000Y-9597914D02*
X19565000Y-9637574D01*
X19120000Y-9960000D02*
G75*
G03*
X19270000Y-10110000I150000J0D01*
G01*
X19770000Y-9441066D02*
X19592000Y-9441066D01*
X18185000Y-9734792D02*
X18185000Y-10010000D01*
X19450355Y-9662218D02*
G75*
G03*
X19385000Y-9734792I7617J-72573D01*
G01*
X19475000Y-9597914D02*
G75*
G03*
X19448995Y-9573269I-24680J0D01*
G01*
X19770000Y-10110000D02*
G75*
G03*
X19920000Y-9960000I0J150000D01*
G01*
X18390606Y-9546066D02*
G75*
G03*
X18378995Y-9527279I-21005J0D01*
G01*
X18260606Y-9527279D02*
G75*
G03*
X18273337Y-9499087I-17808J25012D01*
G01*
X17166264Y-9499087D02*
G75*
G03*
X17178995Y-9527279I30538J-3180D01*
G01*
X18248000Y-9441066D02*
X18070000Y-9441066D01*
X18391005Y-9573269D02*
G75*
G03*
X18365000Y-9597914I-1325J-24645D01*
G01*
X18570000Y-10110000D02*
G75*
G03*
X18720000Y-9960000I0J150000D01*
G01*
X18720000Y-9960000D02*
X18720000Y-9591066D01*
X17190606Y-9546066D02*
G75*
G03*
X17178995Y-9527279I-21005J0D01*
G01*
X18250355Y-9662218D02*
G75*
G03*
X18275000Y-9637574I0J24645D01*
G01*
X18455000Y-10010000D02*
X18455000Y-9734792D01*
X19460606Y-9527279D02*
G75*
G03*
X19473337Y-9499087I-17808J25012D01*
G01*
X19655000Y-10010000D02*
X19655000Y-9734792D01*
X17920000Y-9591066D02*
X17920000Y-9960000D01*
X19448000Y-9441066D02*
X19270000Y-9441066D01*
X17190606Y-9573269D02*
X17190606Y-9546066D01*
X18390606Y-9573269D02*
X18390606Y-9546066D01*
X18366264Y-9466066D02*
X18366264Y-9499087D01*
X18275000Y-9637574D02*
X18275000Y-9597914D01*
X19920000Y-9591066D02*
G75*
G03*
X19770000Y-9441066I-150000J0D01*
G01*
X17192000Y-9441066D02*
G75*
G03*
X17166264Y-9466066I-1046J-24670D01*
G01*
X19565000Y-9637574D02*
G75*
G03*
X19589645Y-9662218I24645J0D01*
G01*
X18248995Y-9546066D02*
X18248995Y-9573269D01*
X19920000Y-9960000D02*
X19920000Y-9591066D01*
X17166264Y-9466066D02*
X17166264Y-9499087D01*
X18366264Y-9499087D02*
G75*
G03*
X18378995Y-9527279I30538J-3180D01*
G01*
X17073337Y-9499087D02*
X17073337Y-9466066D01*
X18392000Y-9441066D02*
G75*
G03*
X18366264Y-9466066I-1046J-24670D01*
G01*
X17060606Y-9527279D02*
G75*
G03*
X17048995Y-9546066I9394J-18788D01*
G01*
X18250355Y-9662218D02*
G75*
G03*
X18185000Y-9734792I7617J-72573D01*
G01*
X18455000Y-9734792D02*
G75*
G03*
X18389645Y-9662218I-72973J0D01*
G01*
X19448995Y-9546066D02*
X19448995Y-9573269D01*
X18275000Y-9597914D02*
G75*
G03*
X18248995Y-9573269I-24680J0D01*
G01*
X18720000Y-9591066D02*
G75*
G03*
X18570000Y-9441066I-150000J0D01*
G01*
X19385000Y-9734792D02*
X19385000Y-10010000D01*
X19591005Y-9573269D02*
G75*
G03*
X19565000Y-9597914I-1325J-24645D01*
G01*
X18260606Y-9527279D02*
G75*
G03*
X18248995Y-9546066I9394J-18788D01*
G01*
X18185000Y-10010000D02*
X18455000Y-10010000D01*
X16870000Y-9441066D02*
G75*
G03*
X16720000Y-9591066I0J-150000D01*
G01*
X17073337Y-9466066D02*
G75*
G03*
X17048000Y-9441066I-25002J0D01*
G01*
X17048000Y-9441066D02*
X16870000Y-9441066D01*
X17050355Y-9662218D02*
G75*
G03*
X17075000Y-9637574I0J24645D01*
G01*
X17060606Y-9527279D02*
G75*
G03*
X17073337Y-9499087I-17808J25012D01*
G01*
X17520000Y-9960000D02*
X17520000Y-9591066D01*
X16985000Y-10010000D02*
X17255000Y-10010000D01*
X16985000Y-9734792D02*
X16985000Y-10010000D01*
X16870000Y-10110000D02*
X17370000Y-10110000D01*
X17165000Y-9597914D02*
X17165000Y-9637574D01*
X16720000Y-9960000D02*
G75*
G03*
X16870000Y-10110000I150000J0D01*
G01*
X17050355Y-9662218D02*
G75*
G03*
X16985000Y-9734792I7617J-72573D01*
G01*
X17075000Y-9597914D02*
G75*
G03*
X17048995Y-9573269I-24680J0D01*
G01*
X17191005Y-9573269D02*
G75*
G03*
X17165000Y-9597914I-1325J-24645D01*
G01*
X17370000Y-10110000D02*
G75*
G03*
X17520000Y-9960000I0J150000D01*
G01*
X17048995Y-9546066D02*
X17048995Y-9573269D01*
X17165000Y-9637574D02*
G75*
G03*
X17189645Y-9662218I24645J0D01*
G01*
X17255000Y-9734792D02*
G75*
G03*
X17189645Y-9662218I-72973J0D01*
G01*
X17075000Y-9637574D02*
X17075000Y-9597914D01*
X17255000Y-10010000D02*
X17255000Y-9734792D01*
X16720000Y-9591066D02*
X16720000Y-9960000D01*
X17520000Y-9591066D02*
G75*
G03*
X17370000Y-9441066I-150000J0D01*
G01*
X17370000Y-9441066D02*
X17192000Y-9441066D01*
X15922330Y-9466066D02*
X15922330Y-9499087D01*
X15922330Y-9499087D02*
G75*
G03*
X15935061Y-9527279I30538J-3180D01*
G01*
X15829403Y-9466066D02*
G75*
G03*
X15804066Y-9441066I-25002J0D01*
G01*
X15946672Y-9546066D02*
G75*
G03*
X15935061Y-9527279I-21005J0D01*
G01*
X15948066Y-9441066D02*
G75*
G03*
X15922330Y-9466066I-1046J-24670D01*
G01*
X15946672Y-9573269D02*
X15946672Y-9546066D01*
X15816672Y-9527279D02*
G75*
G03*
X15805061Y-9546066I9394J-18788D01*
G01*
X15829403Y-9499087D02*
X15829403Y-9466066D01*
X15626066Y-9441066D02*
G75*
G03*
X15476066Y-9591066I0J-150000D01*
G01*
X15806421Y-9662218D02*
G75*
G03*
X15831066Y-9637574I0J24645D01*
G01*
X15816672Y-9527279D02*
G75*
G03*
X15829403Y-9499087I-17808J25012D01*
G01*
X15741066Y-9734792D02*
X15741066Y-10010000D01*
X15921066Y-9597914D02*
X15921066Y-9637574D01*
X15476066Y-9960000D02*
G75*
G03*
X15626066Y-10110000I150000J0D01*
G01*
X15741066Y-10010000D02*
X16011066Y-10010000D01*
X16011066Y-10010000D02*
X16011066Y-9734792D01*
X15804066Y-9441066D02*
X15626066Y-9441066D01*
X15806421Y-9662218D02*
G75*
G03*
X15741066Y-9734792I7617J-72573D01*
G01*
X15831066Y-9597914D02*
G75*
G03*
X15805061Y-9573269I-24680J0D01*
G01*
X15476066Y-9591066D02*
X15476066Y-9960000D01*
X15626066Y-10110000D02*
X16126066Y-10110000D01*
X16276066Y-9591066D02*
G75*
G03*
X16126066Y-9441066I-150000J0D01*
G01*
X15947071Y-9573269D02*
G75*
G03*
X15921066Y-9597914I-1325J-24645D01*
G01*
X16126066Y-10110000D02*
G75*
G03*
X16276066Y-9960000I0J150000D01*
G01*
X16126066Y-9441066D02*
X15948066Y-9441066D01*
X15921066Y-9637574D02*
G75*
G03*
X15945711Y-9662218I24645J0D01*
G01*
X16011066Y-9734792D02*
G75*
G03*
X15945711Y-9662218I-72973J0D01*
G01*
X15831066Y-9637574D02*
X15831066Y-9597914D01*
X16276066Y-9960000D02*
X16276066Y-9591066D01*
X15805061Y-9546066D02*
X15805061Y-9573269D01*
X20766264Y-10560000D02*
X20766264Y-10593021D01*
X20766264Y-10593021D02*
G75*
G03*
X20778995Y-10621213I30538J-3180D01*
G01*
X20673337Y-10560000D02*
G75*
G03*
X20648000Y-10535000I-25002J0D01*
G01*
X20790606Y-10640000D02*
G75*
G03*
X20778995Y-10621213I-21005J0D01*
G01*
X20792000Y-10535000D02*
G75*
G03*
X20766264Y-10560000I-1046J-24670D01*
G01*
X20790606Y-10667203D02*
X20790606Y-10640000D01*
X20660606Y-10621213D02*
G75*
G03*
X20648995Y-10640000I9394J-18788D01*
G01*
X20673337Y-10593021D02*
X20673337Y-10560000D01*
X20470000Y-10535000D02*
G75*
G03*
X20320000Y-10685000I0J-150000D01*
G01*
X20650355Y-10756152D02*
G75*
G03*
X20675000Y-10731508I0J24645D01*
G01*
X20660606Y-10621213D02*
G75*
G03*
X20673337Y-10593021I-17808J25012D01*
G01*
X20585000Y-10828726D02*
X20585000Y-11103934D01*
X20765000Y-10691848D02*
X20765000Y-10731508D01*
X20320000Y-11053934D02*
G75*
G03*
X20470000Y-11203934I150000J0D01*
G01*
X20585000Y-11103934D02*
X20855000Y-11103934D01*
X20855000Y-11103934D02*
X20855000Y-10828726D01*
X20648000Y-10535000D02*
X20470000Y-10535000D01*
X20650355Y-10756152D02*
G75*
G03*
X20585000Y-10828726I7617J-72573D01*
G01*
X20675000Y-10691848D02*
G75*
G03*
X20648995Y-10667203I-24680J0D01*
G01*
X20320000Y-10685000D02*
X20320000Y-11053934D01*
X20470000Y-11203934D02*
X20970000Y-11203934D01*
X21120000Y-10685000D02*
G75*
G03*
X20970000Y-10535000I-150000J0D01*
G01*
X20791005Y-10667203D02*
G75*
G03*
X20765000Y-10691848I-1325J-24645D01*
G01*
X20970000Y-11203934D02*
G75*
G03*
X21120000Y-11053934I0J150000D01*
G01*
X20970000Y-10535000D02*
X20792000Y-10535000D01*
X20765000Y-10731508D02*
G75*
G03*
X20789645Y-10756152I24645J0D01*
G01*
X20855000Y-10828726D02*
G75*
G03*
X20789645Y-10756152I-72973J0D01*
G01*
X20675000Y-10731508D02*
X20675000Y-10691848D01*
X21120000Y-11053934D02*
X21120000Y-10685000D01*
X20648995Y-10640000D02*
X20648995Y-10667203D01*
X19566264Y-10560000D02*
X19566264Y-10593021D01*
X19566264Y-10593021D02*
G75*
G03*
X19578995Y-10621213I30538J-3180D01*
G01*
X19473337Y-10560000D02*
G75*
G03*
X19448000Y-10535000I-25002J0D01*
G01*
X19590606Y-10640000D02*
G75*
G03*
X19578995Y-10621213I-21005J0D01*
G01*
X19592000Y-10535000D02*
G75*
G03*
X19566264Y-10560000I-1046J-24670D01*
G01*
X19590606Y-10667203D02*
X19590606Y-10640000D01*
X19460606Y-10621213D02*
G75*
G03*
X19448995Y-10640000I9394J-18788D01*
G01*
X19473337Y-10593021D02*
X19473337Y-10560000D01*
X19270000Y-10535000D02*
G75*
G03*
X19120000Y-10685000I0J-150000D01*
G01*
X19450355Y-10756152D02*
G75*
G03*
X19475000Y-10731508I0J24645D01*
G01*
X19460606Y-10621213D02*
G75*
G03*
X19473337Y-10593021I-17808J25012D01*
G01*
X19385000Y-10828726D02*
X19385000Y-11103934D01*
X19565000Y-10691848D02*
X19565000Y-10731508D01*
X19120000Y-11053934D02*
G75*
G03*
X19270000Y-11203934I150000J0D01*
G01*
X19385000Y-11103934D02*
X19655000Y-11103934D01*
X19655000Y-11103934D02*
X19655000Y-10828726D01*
X19448000Y-10535000D02*
X19270000Y-10535000D01*
X19450355Y-10756152D02*
G75*
G03*
X19385000Y-10828726I7617J-72573D01*
G01*
X19475000Y-10691848D02*
G75*
G03*
X19448995Y-10667203I-24680J0D01*
G01*
X19120000Y-10685000D02*
X19120000Y-11053934D01*
X19270000Y-11203934D02*
X19770000Y-11203934D01*
X19920000Y-10685000D02*
G75*
G03*
X19770000Y-10535000I-150000J0D01*
G01*
X19591005Y-10667203D02*
G75*
G03*
X19565000Y-10691848I-1325J-24645D01*
G01*
X19770000Y-11203934D02*
G75*
G03*
X19920000Y-11053934I0J150000D01*
G01*
X19770000Y-10535000D02*
X19592000Y-10535000D01*
X19565000Y-10731508D02*
G75*
G03*
X19589645Y-10756152I24645J0D01*
G01*
X19655000Y-10828726D02*
G75*
G03*
X19589645Y-10756152I-72973J0D01*
G01*
X19475000Y-10731508D02*
X19475000Y-10691848D01*
X19920000Y-11053934D02*
X19920000Y-10685000D01*
X19448995Y-10640000D02*
X19448995Y-10667203D01*
X18366264Y-10560000D02*
X18366264Y-10593021D01*
X18366264Y-10593021D02*
G75*
G03*
X18378995Y-10621213I30538J-3180D01*
G01*
X18273337Y-10560000D02*
G75*
G03*
X18248000Y-10535000I-25002J0D01*
G01*
X18390606Y-10640000D02*
G75*
G03*
X18378995Y-10621213I-21005J0D01*
G01*
X18392000Y-10535000D02*
G75*
G03*
X18366264Y-10560000I-1046J-24670D01*
G01*
X18390606Y-10667203D02*
X18390606Y-10640000D01*
X18260606Y-10621213D02*
G75*
G03*
X18248995Y-10640000I9394J-18788D01*
G01*
X18273337Y-10593021D02*
X18273337Y-10560000D01*
X18070000Y-10535000D02*
G75*
G03*
X17920000Y-10685000I0J-150000D01*
G01*
X18250355Y-10756152D02*
G75*
G03*
X18275000Y-10731508I0J24645D01*
G01*
X18260606Y-10621213D02*
G75*
G03*
X18273337Y-10593021I-17808J25012D01*
G01*
X18185000Y-10828726D02*
X18185000Y-11103934D01*
X18365000Y-10691848D02*
X18365000Y-10731508D01*
X17920000Y-11053934D02*
G75*
G03*
X18070000Y-11203934I150000J0D01*
G01*
X18185000Y-11103934D02*
X18455000Y-11103934D01*
X18455000Y-11103934D02*
X18455000Y-10828726D01*
X18248000Y-10535000D02*
X18070000Y-10535000D01*
X18250355Y-10756152D02*
G75*
G03*
X18185000Y-10828726I7617J-72573D01*
G01*
X18275000Y-10691848D02*
G75*
G03*
X18248995Y-10667203I-24680J0D01*
G01*
X17920000Y-10685000D02*
X17920000Y-11053934D01*
X18070000Y-11203934D02*
X18570000Y-11203934D01*
X18720000Y-10685000D02*
G75*
G03*
X18570000Y-10535000I-150000J0D01*
G01*
X18391005Y-10667203D02*
G75*
G03*
X18365000Y-10691848I-1325J-24645D01*
G01*
X18570000Y-11203934D02*
G75*
G03*
X18720000Y-11053934I0J150000D01*
G01*
X18570000Y-10535000D02*
X18392000Y-10535000D01*
X18365000Y-10731508D02*
G75*
G03*
X18389645Y-10756152I24645J0D01*
G01*
X18455000Y-10828726D02*
G75*
G03*
X18389645Y-10756152I-72973J0D01*
G01*
X18275000Y-10731508D02*
X18275000Y-10691848D01*
X18720000Y-11053934D02*
X18720000Y-10685000D01*
X18248995Y-10640000D02*
X18248995Y-10667203D01*
X17166264Y-10560000D02*
X17166264Y-10593021D01*
X17166264Y-10593021D02*
G75*
G03*
X17178995Y-10621213I30538J-3180D01*
G01*
X17073337Y-10560000D02*
G75*
G03*
X17048000Y-10535000I-25002J0D01*
G01*
X17190606Y-10640000D02*
G75*
G03*
X17178995Y-10621213I-21005J0D01*
G01*
X17192000Y-10535000D02*
G75*
G03*
X17166264Y-10560000I-1046J-24670D01*
G01*
X17190606Y-10667203D02*
X17190606Y-10640000D01*
X17060606Y-10621213D02*
G75*
G03*
X17048995Y-10640000I9394J-18788D01*
G01*
X17073337Y-10593021D02*
X17073337Y-10560000D01*
X16870000Y-10535000D02*
G75*
G03*
X16720000Y-10685000I0J-150000D01*
G01*
X17050355Y-10756152D02*
G75*
G03*
X17075000Y-10731508I0J24645D01*
G01*
X17060606Y-10621213D02*
G75*
G03*
X17073337Y-10593021I-17808J25012D01*
G01*
X16985000Y-10828726D02*
X16985000Y-11103934D01*
X17165000Y-10691848D02*
X17165000Y-10731508D01*
X16720000Y-11053934D02*
G75*
G03*
X16870000Y-11203934I150000J0D01*
G01*
X16985000Y-11103934D02*
X17255000Y-11103934D01*
X17255000Y-11103934D02*
X17255000Y-10828726D01*
X17048000Y-10535000D02*
X16870000Y-10535000D01*
X17050355Y-10756152D02*
G75*
G03*
X16985000Y-10828726I7617J-72573D01*
G01*
X17075000Y-10691848D02*
G75*
G03*
X17048995Y-10667203I-24680J0D01*
G01*
X16720000Y-10685000D02*
X16720000Y-11053934D01*
X16870000Y-11203934D02*
X17370000Y-11203934D01*
X17520000Y-10685000D02*
G75*
G03*
X17370000Y-10535000I-150000J0D01*
G01*
X17191005Y-10667203D02*
G75*
G03*
X17165000Y-10691848I-1325J-24645D01*
G01*
X17370000Y-11203934D02*
G75*
G03*
X17520000Y-11053934I0J150000D01*
G01*
X17370000Y-10535000D02*
X17192000Y-10535000D01*
X17165000Y-10731508D02*
G75*
G03*
X17189645Y-10756152I24645J0D01*
G01*
X17255000Y-10828726D02*
G75*
G03*
X17189645Y-10756152I-72973J0D01*
G01*
X17075000Y-10731508D02*
X17075000Y-10691848D01*
X17520000Y-11053934D02*
X17520000Y-10685000D01*
X17048995Y-10640000D02*
X17048995Y-10667203D01*
X15948066Y-10535000D02*
G75*
G03*
X15922330Y-10560000I-1046J-24670D01*
G01*
X15829402Y-10560000D02*
G75*
G03*
X15804066Y-10535000I-25002J0D01*
G01*
X15946672Y-10640000D02*
G75*
G03*
X15935061Y-10621213I-21005J0D01*
G01*
X15922330Y-10560000D02*
X15922330Y-10593021D01*
X15922330Y-10593021D02*
G75*
G03*
X15935061Y-10621213I30538J-3180D01*
G01*
X15816672Y-10621213D02*
G75*
G03*
X15829402Y-10593021I-17808J25012D01*
G01*
X15829402Y-10593021D02*
X15829402Y-10560000D01*
X15946672Y-10667203D02*
X15946672Y-10640000D01*
X15816672Y-10621213D02*
G75*
G03*
X15805061Y-10640000I9394J-18788D01*
G01*
X15626066Y-11203934D02*
X16126066Y-11203934D01*
X15805061Y-10640000D02*
X15805061Y-10667203D01*
X16276066Y-11053934D02*
X16276066Y-10685000D01*
X15626066Y-10535000D02*
G75*
G03*
X15476066Y-10685000I0J-150000D01*
G01*
X15806421Y-10756152D02*
G75*
G03*
X15831066Y-10731508I0J24645D01*
G01*
X16126066Y-10535000D02*
X15948066Y-10535000D01*
X15921066Y-10731508D02*
G75*
G03*
X15945711Y-10756152I24645J0D01*
G01*
X16126066Y-11203934D02*
G75*
G03*
X16276066Y-11053934I0J150000D01*
G01*
X13720000Y-4985000D02*
X22920000Y-4985000D01*
X22920000Y-4985000D02*
X22920000Y-12585000D01*
X22920000Y-12585000D02*
X13720000Y-12585000D01*
X13720000Y-12585000D02*
X13720000Y-4985000D01*
X15947071Y-10667203D02*
G75*
G03*
X15921066Y-10691848I-1325J-24645D01*
G01*
X16276066Y-10685000D02*
G75*
G03*
X16126066Y-10535000I-150000J0D01*
G01*
X15806421Y-10756152D02*
G75*
G03*
X15741066Y-10828726I7617J-72573D01*
G01*
X15804066Y-10535000D02*
X15626066Y-10535000D01*
X15476066Y-10685000D02*
X15476066Y-11053934D01*
X15831066Y-10691848D02*
G75*
G03*
X15805061Y-10667203I-24680J0D01*
G01*
X16011066Y-11103934D02*
X16011066Y-10828726D01*
X15741066Y-11103934D02*
X16011066Y-11103934D01*
X16011066Y-10828726D02*
G75*
G03*
X15945711Y-10756152I-72973J0D01*
G01*
X15831066Y-10731508D02*
X15831066Y-10691848D01*
X15476066Y-11053934D02*
G75*
G03*
X15626066Y-11203934I150000J0D01*
G01*
X15741066Y-10828726D02*
X15741066Y-11103934D01*
X15921066Y-10691848D02*
X15921066Y-10731508D01*
D11*
X13975119Y-12897976D02*
X13975119Y-12697976D01*
X14022738Y-12697976D01*
X14051309Y-12707500D01*
X14070357Y-12726548D01*
X14079881Y-12745595D01*
X14089405Y-12783690D01*
X14089405Y-12812262D01*
X14079881Y-12850357D01*
X14070357Y-12869405D01*
X14051309Y-12888452D01*
X14022738Y-12897976D01*
X13975119Y-12897976D01*
X14175119Y-12897976D02*
X14175119Y-12764643D01*
X14175119Y-12802738D02*
X14184643Y-12783690D01*
X14194167Y-12774167D01*
X14213214Y-12764643D01*
X14232262Y-12764643D01*
X14298928Y-12897976D02*
X14298928Y-12764643D01*
X14298928Y-12697976D02*
X14289405Y-12707500D01*
X14298928Y-12717024D01*
X14308452Y-12707500D01*
X14298928Y-12697976D01*
X14298928Y-12717024D01*
X14422738Y-12897976D02*
X14403690Y-12888452D01*
X14394167Y-12869405D01*
X14394167Y-12697976D01*
X14527500Y-12897976D02*
X14508452Y-12888452D01*
X14498928Y-12869405D01*
X14498928Y-12697976D01*
X14756071Y-12897976D02*
X14756071Y-12697976D01*
X14822738Y-12840833D01*
X14889405Y-12697976D01*
X14889405Y-12897976D01*
X15070357Y-12897976D02*
X15070357Y-12793214D01*
X15060833Y-12774167D01*
X15041786Y-12764643D01*
X15003690Y-12764643D01*
X14984643Y-12774167D01*
X15070357Y-12888452D02*
X15051309Y-12897976D01*
X15003690Y-12897976D01*
X14984643Y-12888452D01*
X14975119Y-12869405D01*
X14975119Y-12850357D01*
X14984643Y-12831309D01*
X15003690Y-12821786D01*
X15051309Y-12821786D01*
X15070357Y-12812262D01*
X15165595Y-12764643D02*
X15165595Y-12964643D01*
X15165595Y-12774167D02*
X15184643Y-12764643D01*
X15222738Y-12764643D01*
X15241786Y-12774167D01*
X15251309Y-12783690D01*
X15260833Y-12802738D01*
X15260833Y-12859881D01*
X15251309Y-12878928D01*
X15241786Y-12888452D01*
X15222738Y-12897976D01*
X15184643Y-12897976D01*
X15165595Y-12888452D01*
X15346548Y-12878928D02*
X15356071Y-12888452D01*
X15346548Y-12897976D01*
X15337024Y-12888452D01*
X15346548Y-12878928D01*
X15346548Y-12897976D01*
X15346548Y-12774167D02*
X15356071Y-12783690D01*
X15346548Y-12793214D01*
X15337024Y-12783690D01*
X15346548Y-12774167D01*
X15346548Y-12793214D01*
M02*
