%TF.GenerationSoftware,KiCad,Pcbnew,(6.0.0)*%
%TF.CreationDate,2022-01-23T05:48:29-08:00*%
%TF.ProjectId,headstage-64s-coax-adapter_panel,68656164-7374-4616-9765-2d3634732d63,A*%
%TF.SameCoordinates,Original*%
%TF.FileFunction,Legend,Top*%
%TF.FilePolarity,Positive*%
%FSLAX46Y46*%
G04 Gerber Fmt 4.6, Leading zero omitted, Abs format (unit mm)*
G04 Created by KiCad (PCBNEW (6.0.0)) date 2022-01-23 05:48:29*
%MOMM*%
%LPD*%
G01*
G04 APERTURE LIST*
%ADD10C,0.150000*%
G04 APERTURE END LIST*
D10*
X205310000Y-115580000D02*
X227200000Y-115580000D01*
X227200000Y-115580000D02*
X227200000Y-124120000D01*
X227200000Y-124120000D02*
X205310000Y-124120000D01*
X205310000Y-124120000D02*
X205310000Y-115580000D01*
X140533333Y-119183333D02*
X140485714Y-119135714D01*
X140390476Y-118992857D01*
X140342857Y-118897619D01*
X140295238Y-118754761D01*
X140247619Y-118516666D01*
X140247619Y-118326190D01*
X140295238Y-118088095D01*
X140342857Y-117945238D01*
X140390476Y-117850000D01*
X140485714Y-117707142D01*
X140533333Y-117659523D01*
X141342857Y-117802380D02*
X141152380Y-117802380D01*
X141057142Y-117850000D01*
X141009523Y-117897619D01*
X140914285Y-118040476D01*
X140866666Y-118230952D01*
X140866666Y-118611904D01*
X140914285Y-118707142D01*
X140961904Y-118754761D01*
X141057142Y-118802380D01*
X141247619Y-118802380D01*
X141342857Y-118754761D01*
X141390476Y-118707142D01*
X141438095Y-118611904D01*
X141438095Y-118373809D01*
X141390476Y-118278571D01*
X141342857Y-118230952D01*
X141247619Y-118183333D01*
X141057142Y-118183333D01*
X140961904Y-118230952D01*
X140914285Y-118278571D01*
X140866666Y-118373809D01*
X141914285Y-118754761D02*
X141914285Y-118802380D01*
X141866666Y-118897619D01*
X141819047Y-118945238D01*
X142819047Y-117802380D02*
X142342857Y-117802380D01*
X142295238Y-118278571D01*
X142342857Y-118230952D01*
X142438095Y-118183333D01*
X142676190Y-118183333D01*
X142771428Y-118230952D01*
X142819047Y-118278571D01*
X142866666Y-118373809D01*
X142866666Y-118611904D01*
X142819047Y-118707142D01*
X142771428Y-118754761D01*
X142676190Y-118802380D01*
X142438095Y-118802380D01*
X142342857Y-118754761D01*
X142295238Y-118707142D01*
X143200000Y-119183333D02*
X143247619Y-119135714D01*
X143342857Y-118992857D01*
X143390476Y-118897619D01*
X143438095Y-118754761D01*
X143485714Y-118516666D01*
X143485714Y-118326190D01*
X143438095Y-118088095D01*
X143390476Y-117945238D01*
X143342857Y-117850000D01*
X143247619Y-117707142D01*
X143200000Y-117659523D01*
X143961904Y-118802380D02*
X143961904Y-118135714D01*
X143961904Y-118230952D02*
X144009523Y-118183333D01*
X144104761Y-118135714D01*
X144247619Y-118135714D01*
X144342857Y-118183333D01*
X144390476Y-118278571D01*
X144390476Y-118802380D01*
X144390476Y-118278571D02*
X144438095Y-118183333D01*
X144533333Y-118135714D01*
X144676190Y-118135714D01*
X144771428Y-118183333D01*
X144819047Y-118278571D01*
X144819047Y-118802380D01*
X145295238Y-118802380D02*
X145295238Y-118135714D01*
X145295238Y-118230952D02*
X145342857Y-118183333D01*
X145438095Y-118135714D01*
X145580952Y-118135714D01*
X145676190Y-118183333D01*
X145723809Y-118278571D01*
X145723809Y-118802380D01*
X145723809Y-118278571D02*
X145771428Y-118183333D01*
X145866666Y-118135714D01*
X146009523Y-118135714D01*
X146104761Y-118183333D01*
X146152380Y-118278571D01*
X146152380Y-118802380D01*
X141057142Y-55183333D02*
X141009523Y-55135714D01*
X140914285Y-54992857D01*
X140866666Y-54897619D01*
X140819047Y-54754761D01*
X140771428Y-54516666D01*
X140771428Y-54326190D01*
X140819047Y-54088095D01*
X140866666Y-53945238D01*
X140914285Y-53850000D01*
X141009523Y-53707142D01*
X141057142Y-53659523D01*
X141866666Y-53802380D02*
X141676190Y-53802380D01*
X141580952Y-53850000D01*
X141533333Y-53897619D01*
X141438095Y-54040476D01*
X141390476Y-54230952D01*
X141390476Y-54611904D01*
X141438095Y-54707142D01*
X141485714Y-54754761D01*
X141580952Y-54802380D01*
X141771428Y-54802380D01*
X141866666Y-54754761D01*
X141914285Y-54707142D01*
X141961904Y-54611904D01*
X141961904Y-54373809D01*
X141914285Y-54278571D01*
X141866666Y-54230952D01*
X141771428Y-54183333D01*
X141580952Y-54183333D01*
X141485714Y-54230952D01*
X141438095Y-54278571D01*
X141390476Y-54373809D01*
X142438095Y-54754761D02*
X142438095Y-54802380D01*
X142390476Y-54897619D01*
X142342857Y-54945238D01*
X143295238Y-53802380D02*
X143104761Y-53802380D01*
X143009523Y-53850000D01*
X142961904Y-53897619D01*
X142866666Y-54040476D01*
X142819047Y-54230952D01*
X142819047Y-54611904D01*
X142866666Y-54707142D01*
X142914285Y-54754761D01*
X143009523Y-54802380D01*
X143200000Y-54802380D01*
X143295238Y-54754761D01*
X143342857Y-54707142D01*
X143390476Y-54611904D01*
X143390476Y-54373809D01*
X143342857Y-54278571D01*
X143295238Y-54230952D01*
X143200000Y-54183333D01*
X143009523Y-54183333D01*
X142914285Y-54230952D01*
X142866666Y-54278571D01*
X142819047Y-54373809D01*
X143866666Y-54802380D02*
X144057142Y-54802380D01*
X144152380Y-54754761D01*
X144200000Y-54707142D01*
X144295238Y-54564285D01*
X144342857Y-54373809D01*
X144342857Y-53992857D01*
X144295238Y-53897619D01*
X144247619Y-53850000D01*
X144152380Y-53802380D01*
X143961904Y-53802380D01*
X143866666Y-53850000D01*
X143819047Y-53897619D01*
X143771428Y-53992857D01*
X143771428Y-54230952D01*
X143819047Y-54326190D01*
X143866666Y-54373809D01*
X143961904Y-54421428D01*
X144152380Y-54421428D01*
X144247619Y-54373809D01*
X144295238Y-54326190D01*
X144342857Y-54230952D01*
X144676190Y-55183333D02*
X144723809Y-55135714D01*
X144819047Y-54992857D01*
X144866666Y-54897619D01*
X144914285Y-54754761D01*
X144961904Y-54516666D01*
X144961904Y-54326190D01*
X144914285Y-54088095D01*
X144866666Y-53945238D01*
X144819047Y-53850000D01*
X144723809Y-53707142D01*
X144676190Y-53659523D01*
X145438095Y-54802380D02*
X145438095Y-54135714D01*
X145438095Y-54230952D02*
X145485714Y-54183333D01*
X145580952Y-54135714D01*
X145723809Y-54135714D01*
X145819047Y-54183333D01*
X145866666Y-54278571D01*
X145866666Y-54802380D01*
X145866666Y-54278571D02*
X145914285Y-54183333D01*
X146009523Y-54135714D01*
X146152380Y-54135714D01*
X146247619Y-54183333D01*
X146295238Y-54278571D01*
X146295238Y-54802380D01*
X146771428Y-54802380D02*
X146771428Y-54135714D01*
X146771428Y-54230952D02*
X146819047Y-54183333D01*
X146914285Y-54135714D01*
X147057142Y-54135714D01*
X147152380Y-54183333D01*
X147200000Y-54278571D01*
X147200000Y-54802380D01*
X147200000Y-54278571D02*
X147247619Y-54183333D01*
X147342857Y-54135714D01*
X147485714Y-54135714D01*
X147580952Y-54183333D01*
X147628571Y-54278571D01*
X147628571Y-54802380D01*
X214130952Y-117887380D02*
X214130952Y-116887380D01*
X214130952Y-117363571D02*
X214702380Y-117363571D01*
X214702380Y-117887380D02*
X214702380Y-116887380D01*
X215559523Y-117839761D02*
X215464285Y-117887380D01*
X215273809Y-117887380D01*
X215178571Y-117839761D01*
X215130952Y-117744523D01*
X215130952Y-117363571D01*
X215178571Y-117268333D01*
X215273809Y-117220714D01*
X215464285Y-117220714D01*
X215559523Y-117268333D01*
X215607142Y-117363571D01*
X215607142Y-117458809D01*
X215130952Y-117554047D01*
X216464285Y-117887380D02*
X216464285Y-117363571D01*
X216416666Y-117268333D01*
X216321428Y-117220714D01*
X216130952Y-117220714D01*
X216035714Y-117268333D01*
X216464285Y-117839761D02*
X216369047Y-117887380D01*
X216130952Y-117887380D01*
X216035714Y-117839761D01*
X215988095Y-117744523D01*
X215988095Y-117649285D01*
X216035714Y-117554047D01*
X216130952Y-117506428D01*
X216369047Y-117506428D01*
X216464285Y-117458809D01*
X217369047Y-117887380D02*
X217369047Y-116887380D01*
X217369047Y-117839761D02*
X217273809Y-117887380D01*
X217083333Y-117887380D01*
X216988095Y-117839761D01*
X216940476Y-117792142D01*
X216892857Y-117696904D01*
X216892857Y-117411190D01*
X216940476Y-117315952D01*
X216988095Y-117268333D01*
X217083333Y-117220714D01*
X217273809Y-117220714D01*
X217369047Y-117268333D01*
X217797619Y-117839761D02*
X217892857Y-117887380D01*
X218083333Y-117887380D01*
X218178571Y-117839761D01*
X218226190Y-117744523D01*
X218226190Y-117696904D01*
X218178571Y-117601666D01*
X218083333Y-117554047D01*
X217940476Y-117554047D01*
X217845238Y-117506428D01*
X217797619Y-117411190D01*
X217797619Y-117363571D01*
X217845238Y-117268333D01*
X217940476Y-117220714D01*
X218083333Y-117220714D01*
X218178571Y-117268333D01*
X218511904Y-117220714D02*
X218892857Y-117220714D01*
X218654761Y-116887380D02*
X218654761Y-117744523D01*
X218702380Y-117839761D01*
X218797619Y-117887380D01*
X218892857Y-117887380D01*
X219654761Y-117887380D02*
X219654761Y-117363571D01*
X219607142Y-117268333D01*
X219511904Y-117220714D01*
X219321428Y-117220714D01*
X219226190Y-117268333D01*
X219654761Y-117839761D02*
X219559523Y-117887380D01*
X219321428Y-117887380D01*
X219226190Y-117839761D01*
X219178571Y-117744523D01*
X219178571Y-117649285D01*
X219226190Y-117554047D01*
X219321428Y-117506428D01*
X219559523Y-117506428D01*
X219654761Y-117458809D01*
X220559523Y-117220714D02*
X220559523Y-118030238D01*
X220511904Y-118125476D01*
X220464285Y-118173095D01*
X220369047Y-118220714D01*
X220226190Y-118220714D01*
X220130952Y-118173095D01*
X220559523Y-117839761D02*
X220464285Y-117887380D01*
X220273809Y-117887380D01*
X220178571Y-117839761D01*
X220130952Y-117792142D01*
X220083333Y-117696904D01*
X220083333Y-117411190D01*
X220130952Y-117315952D01*
X220178571Y-117268333D01*
X220273809Y-117220714D01*
X220464285Y-117220714D01*
X220559523Y-117268333D01*
X221416666Y-117839761D02*
X221321428Y-117887380D01*
X221130952Y-117887380D01*
X221035714Y-117839761D01*
X220988095Y-117744523D01*
X220988095Y-117363571D01*
X221035714Y-117268333D01*
X221130952Y-117220714D01*
X221321428Y-117220714D01*
X221416666Y-117268333D01*
X221464285Y-117363571D01*
X221464285Y-117458809D01*
X220988095Y-117554047D01*
X221892857Y-117506428D02*
X222654761Y-117506428D01*
X223559523Y-116887380D02*
X223369047Y-116887380D01*
X223273809Y-116935000D01*
X223226190Y-116982619D01*
X223130952Y-117125476D01*
X223083333Y-117315952D01*
X223083333Y-117696904D01*
X223130952Y-117792142D01*
X223178571Y-117839761D01*
X223273809Y-117887380D01*
X223464285Y-117887380D01*
X223559523Y-117839761D01*
X223607142Y-117792142D01*
X223654761Y-117696904D01*
X223654761Y-117458809D01*
X223607142Y-117363571D01*
X223559523Y-117315952D01*
X223464285Y-117268333D01*
X223273809Y-117268333D01*
X223178571Y-117315952D01*
X223130952Y-117363571D01*
X223083333Y-117458809D01*
X224511904Y-117220714D02*
X224511904Y-117887380D01*
X224273809Y-116839761D02*
X224035714Y-117554047D01*
X224654761Y-117554047D01*
X224988095Y-117839761D02*
X225083333Y-117887380D01*
X225273809Y-117887380D01*
X225369047Y-117839761D01*
X225416666Y-117744523D01*
X225416666Y-117696904D01*
X225369047Y-117601666D01*
X225273809Y-117554047D01*
X225130952Y-117554047D01*
X225035714Y-117506428D01*
X224988095Y-117411190D01*
X224988095Y-117363571D01*
X225035714Y-117268333D01*
X225130952Y-117220714D01*
X225273809Y-117220714D01*
X225369047Y-117268333D01*
X215559523Y-119402142D02*
X215511904Y-119449761D01*
X215369047Y-119497380D01*
X215273809Y-119497380D01*
X215130952Y-119449761D01*
X215035714Y-119354523D01*
X214988095Y-119259285D01*
X214940476Y-119068809D01*
X214940476Y-118925952D01*
X214988095Y-118735476D01*
X215035714Y-118640238D01*
X215130952Y-118545000D01*
X215273809Y-118497380D01*
X215369047Y-118497380D01*
X215511904Y-118545000D01*
X215559523Y-118592619D01*
X216130952Y-119497380D02*
X216035714Y-119449761D01*
X215988095Y-119402142D01*
X215940476Y-119306904D01*
X215940476Y-119021190D01*
X215988095Y-118925952D01*
X216035714Y-118878333D01*
X216130952Y-118830714D01*
X216273809Y-118830714D01*
X216369047Y-118878333D01*
X216416666Y-118925952D01*
X216464285Y-119021190D01*
X216464285Y-119306904D01*
X216416666Y-119402142D01*
X216369047Y-119449761D01*
X216273809Y-119497380D01*
X216130952Y-119497380D01*
X217321428Y-119497380D02*
X217321428Y-118973571D01*
X217273809Y-118878333D01*
X217178571Y-118830714D01*
X216988095Y-118830714D01*
X216892857Y-118878333D01*
X217321428Y-119449761D02*
X217226190Y-119497380D01*
X216988095Y-119497380D01*
X216892857Y-119449761D01*
X216845238Y-119354523D01*
X216845238Y-119259285D01*
X216892857Y-119164047D01*
X216988095Y-119116428D01*
X217226190Y-119116428D01*
X217321428Y-119068809D01*
X217702380Y-119497380D02*
X218226190Y-118830714D01*
X217702380Y-118830714D02*
X218226190Y-119497380D01*
X219321428Y-119211666D02*
X219797619Y-119211666D01*
X219226190Y-119497380D02*
X219559523Y-118497380D01*
X219892857Y-119497380D01*
X220654761Y-119497380D02*
X220654761Y-118497380D01*
X220654761Y-119449761D02*
X220559523Y-119497380D01*
X220369047Y-119497380D01*
X220273809Y-119449761D01*
X220226190Y-119402142D01*
X220178571Y-119306904D01*
X220178571Y-119021190D01*
X220226190Y-118925952D01*
X220273809Y-118878333D01*
X220369047Y-118830714D01*
X220559523Y-118830714D01*
X220654761Y-118878333D01*
X221559523Y-119497380D02*
X221559523Y-118973571D01*
X221511904Y-118878333D01*
X221416666Y-118830714D01*
X221226190Y-118830714D01*
X221130952Y-118878333D01*
X221559523Y-119449761D02*
X221464285Y-119497380D01*
X221226190Y-119497380D01*
X221130952Y-119449761D01*
X221083333Y-119354523D01*
X221083333Y-119259285D01*
X221130952Y-119164047D01*
X221226190Y-119116428D01*
X221464285Y-119116428D01*
X221559523Y-119068809D01*
X222035714Y-118830714D02*
X222035714Y-119830714D01*
X222035714Y-118878333D02*
X222130952Y-118830714D01*
X222321428Y-118830714D01*
X222416666Y-118878333D01*
X222464285Y-118925952D01*
X222511904Y-119021190D01*
X222511904Y-119306904D01*
X222464285Y-119402142D01*
X222416666Y-119449761D01*
X222321428Y-119497380D01*
X222130952Y-119497380D01*
X222035714Y-119449761D01*
X222797619Y-118830714D02*
X223178571Y-118830714D01*
X222940476Y-118497380D02*
X222940476Y-119354523D01*
X222988095Y-119449761D01*
X223083333Y-119497380D01*
X223178571Y-119497380D01*
X223892857Y-119449761D02*
X223797619Y-119497380D01*
X223607142Y-119497380D01*
X223511904Y-119449761D01*
X223464285Y-119354523D01*
X223464285Y-118973571D01*
X223511904Y-118878333D01*
X223607142Y-118830714D01*
X223797619Y-118830714D01*
X223892857Y-118878333D01*
X223940476Y-118973571D01*
X223940476Y-119068809D01*
X223464285Y-119164047D01*
X224369047Y-119497380D02*
X224369047Y-118830714D01*
X224369047Y-119021190D02*
X224416666Y-118925952D01*
X224464285Y-118878333D01*
X224559523Y-118830714D01*
X224654761Y-118830714D01*
X218202380Y-121107380D02*
X217869047Y-120631190D01*
X217630952Y-121107380D02*
X217630952Y-120107380D01*
X218011904Y-120107380D01*
X218107142Y-120155000D01*
X218154761Y-120202619D01*
X218202380Y-120297857D01*
X218202380Y-120440714D01*
X218154761Y-120535952D01*
X218107142Y-120583571D01*
X218011904Y-120631190D01*
X217630952Y-120631190D01*
X219011904Y-121059761D02*
X218916666Y-121107380D01*
X218726190Y-121107380D01*
X218630952Y-121059761D01*
X218583333Y-120964523D01*
X218583333Y-120583571D01*
X218630952Y-120488333D01*
X218726190Y-120440714D01*
X218916666Y-120440714D01*
X219011904Y-120488333D01*
X219059523Y-120583571D01*
X219059523Y-120678809D01*
X218583333Y-120774047D01*
X219392857Y-120440714D02*
X219630952Y-121107380D01*
X219869047Y-120440714D01*
X220250000Y-121012142D02*
X220297619Y-121059761D01*
X220250000Y-121107380D01*
X220202380Y-121059761D01*
X220250000Y-121012142D01*
X220250000Y-121107380D01*
X221440476Y-120821666D02*
X221916666Y-120821666D01*
X221345238Y-121107380D02*
X221678571Y-120107380D01*
X222011904Y-121107380D01*
X217297619Y-121717380D02*
X217297619Y-122431666D01*
X217250000Y-122574523D01*
X217154761Y-122669761D01*
X217011904Y-122717380D01*
X216916666Y-122717380D01*
X217773809Y-122717380D02*
X217773809Y-121717380D01*
X218154761Y-121717380D01*
X218250000Y-121765000D01*
X218297619Y-121812619D01*
X218345238Y-121907857D01*
X218345238Y-122050714D01*
X218297619Y-122145952D01*
X218250000Y-122193571D01*
X218154761Y-122241190D01*
X217773809Y-122241190D01*
X218773809Y-122717380D02*
X218773809Y-121717380D01*
X219345238Y-122717380D01*
X219345238Y-121717380D01*
X220630952Y-121717380D02*
X220535714Y-121907857D01*
X221011904Y-121812619D02*
X221059523Y-121765000D01*
X221154761Y-121717380D01*
X221392857Y-121717380D01*
X221488095Y-121765000D01*
X221535714Y-121812619D01*
X221583333Y-121907857D01*
X221583333Y-122003095D01*
X221535714Y-122145952D01*
X220964285Y-122717380D01*
X221583333Y-122717380D01*
X221964285Y-121812619D02*
X222011904Y-121765000D01*
X222107142Y-121717380D01*
X222345238Y-121717380D01*
X222440476Y-121765000D01*
X222488095Y-121812619D01*
X222535714Y-121907857D01*
X222535714Y-122003095D01*
X222488095Y-122145952D01*
X221916666Y-122717380D01*
X222535714Y-122717380D01*
X217580952Y-57683333D02*
X217533333Y-57635714D01*
X217438095Y-57492857D01*
X217390476Y-57397619D01*
X217342857Y-57254761D01*
X217295238Y-57016666D01*
X217295238Y-56826190D01*
X217342857Y-56588095D01*
X217390476Y-56445238D01*
X217438095Y-56350000D01*
X217533333Y-56207142D01*
X217580952Y-56159523D01*
X218104761Y-56730952D02*
X218009523Y-56683333D01*
X217961904Y-56635714D01*
X217914285Y-56540476D01*
X217914285Y-56492857D01*
X217961904Y-56397619D01*
X218009523Y-56350000D01*
X218104761Y-56302380D01*
X218295238Y-56302380D01*
X218390476Y-56350000D01*
X218438095Y-56397619D01*
X218485714Y-56492857D01*
X218485714Y-56540476D01*
X218438095Y-56635714D01*
X218390476Y-56683333D01*
X218295238Y-56730952D01*
X218104761Y-56730952D01*
X218009523Y-56778571D01*
X217961904Y-56826190D01*
X217914285Y-56921428D01*
X217914285Y-57111904D01*
X217961904Y-57207142D01*
X218009523Y-57254761D01*
X218104761Y-57302380D01*
X218295238Y-57302380D01*
X218390476Y-57254761D01*
X218438095Y-57207142D01*
X218485714Y-57111904D01*
X218485714Y-56921428D01*
X218438095Y-56826190D01*
X218390476Y-56778571D01*
X218295238Y-56730952D01*
X219342857Y-56635714D02*
X219342857Y-57302380D01*
X219104761Y-56254761D02*
X218866666Y-56969047D01*
X219485714Y-56969047D01*
X219914285Y-57254761D02*
X219914285Y-57302380D01*
X219866666Y-57397619D01*
X219819047Y-57445238D01*
X220247619Y-56302380D02*
X220914285Y-56302380D01*
X220485714Y-57302380D01*
X221819047Y-57302380D02*
X221247619Y-57302380D01*
X221533333Y-57302380D02*
X221533333Y-56302380D01*
X221438095Y-56445238D01*
X221342857Y-56540476D01*
X221247619Y-56588095D01*
X222152380Y-57683333D02*
X222200000Y-57635714D01*
X222295238Y-57492857D01*
X222342857Y-57397619D01*
X222390476Y-57254761D01*
X222438095Y-57016666D01*
X222438095Y-56826190D01*
X222390476Y-56588095D01*
X222342857Y-56445238D01*
X222295238Y-56350000D01*
X222200000Y-56207142D01*
X222152380Y-56159523D01*
X222914285Y-57302380D02*
X222914285Y-56635714D01*
X222914285Y-56730952D02*
X222961904Y-56683333D01*
X223057142Y-56635714D01*
X223200000Y-56635714D01*
X223295238Y-56683333D01*
X223342857Y-56778571D01*
X223342857Y-57302380D01*
X223342857Y-56778571D02*
X223390476Y-56683333D01*
X223485714Y-56635714D01*
X223628571Y-56635714D01*
X223723809Y-56683333D01*
X223771428Y-56778571D01*
X223771428Y-57302380D01*
X224247619Y-57302380D02*
X224247619Y-56635714D01*
X224247619Y-56730952D02*
X224295238Y-56683333D01*
X224390476Y-56635714D01*
X224533333Y-56635714D01*
X224628571Y-56683333D01*
X224676190Y-56778571D01*
X224676190Y-57302380D01*
X224676190Y-56778571D02*
X224723809Y-56683333D01*
X224819047Y-56635714D01*
X224961904Y-56635714D01*
X225057142Y-56683333D01*
X225104761Y-56778571D01*
X225104761Y-57302380D01*
%TO.C,*%
%TD*%
M02*
