M48
; DRILL file {KiCad (6.0.0)} date Sun Jan 23 05:48:27 2022
; FORMAT={-:-/ absolute / inch / decimal}
; #@! TF.CreationDate,2022-01-23T05:48:27-08:00
; #@! TF.GenerationSoftware,Kicad,Pcbnew,(6.0.0)
; #@! TF.FileFunction,Plated,1,2,PTH
FMAT,2
INCH
; #@! TA.AperFunction,Plated,PTH,ViaDrill
T1C0.0079
; #@! TA.AperFunction,Plated,PTH,ComponentDrill
T2C0.0197
%
G90
G05
T1
X6.211Y-4.3323
X6.211Y-3.4685
X6.211Y-3.9016
X6.211Y-2.6
X6.211Y-3.0378
X6.217Y-4.2511
X6.217Y-3.3873
X6.217Y-3.8204
X6.217Y-2.5188
X6.217Y-2.9566
X6.2839Y-4.2515
X6.2839Y-3.3878
X6.2839Y-3.8209
X6.2839Y-2.5193
X6.2839Y-2.9571
X6.2898Y-4.3323
X6.2898Y-3.4685
X6.2898Y-3.9016
X6.2898Y-2.6
X6.2898Y-3.0378
X6.7008Y-4.3323
X6.7008Y-3.4685
X6.7008Y-3.9016
X6.7008Y-2.6
X6.7008Y-3.0378
X6.7067Y-4.2511
X6.7067Y-3.3873
X6.7067Y-3.8204
X6.7067Y-2.5188
X6.7067Y-2.9566
X6.7736Y-4.2515
X6.7736Y-3.3878
X6.7736Y-3.8209
X6.7736Y-2.5193
X6.7736Y-2.9571
X6.7795Y-4.3323
X6.7795Y-3.4685
X6.7795Y-3.9016
X6.7795Y-2.6
X6.7795Y-3.0378
X7.1732Y-4.3323
X7.1732Y-3.4685
X7.1732Y-3.9016
X7.1732Y-2.6
X7.1732Y-3.0378
X7.1791Y-4.2511
X7.1791Y-3.3873
X7.1791Y-3.8204
X7.1791Y-2.5188
X7.1791Y-2.9566
X7.2461Y-4.2515
X7.2461Y-3.3878
X7.2461Y-3.8209
X7.2461Y-2.5193
X7.2461Y-2.9571
X7.252Y-4.3323
X7.252Y-3.4685
X7.252Y-3.9016
X7.252Y-2.6
X7.252Y-3.0378
X7.6457Y-4.3323
X7.6457Y-3.4685
X7.6457Y-3.9016
X7.6457Y-2.6
X7.6457Y-3.0378
X7.6516Y-4.2511
X7.6516Y-3.3873
X7.6516Y-3.8204
X7.6516Y-2.5188
X7.6516Y-2.9566
X7.7185Y-4.2515
X7.7185Y-3.3878
X7.7185Y-3.8209
X7.7185Y-2.5193
X7.7185Y-2.9571
X7.7244Y-4.3323
X7.7244Y-3.4685
X7.7244Y-3.9016
X7.7244Y-2.6
X7.7244Y-3.0378
X8.1181Y-4.3323
X8.1181Y-3.4685
X8.1181Y-3.9016
X8.1181Y-2.6
X8.1181Y-3.0378
X8.124Y-4.2511
X8.124Y-3.3873
X8.124Y-3.8204
X8.124Y-2.5188
X8.124Y-2.9566
X8.1909Y-4.2515
X8.1909Y-3.3878
X8.1909Y-3.8209
X8.1909Y-2.5193
X8.1909Y-2.9571
X8.1969Y-4.3323
X8.1969Y-3.4685
X8.1969Y-3.9016
X8.1969Y-2.6
X8.1969Y-3.0378
T2
G00X6.1933Y-4.3716
M15
G01X6.213Y-4.3716
M16
G05
G00X6.1933Y-3.5079
M15
G01X6.213Y-3.5079
M16
G05
G00X6.1933Y-3.9409
M15
G01X6.213Y-3.9409
M16
G05
G00X6.1933Y-2.6393
M15
G01X6.213Y-2.6393
M16
G05
G00X6.1933Y-3.0772
M15
G01X6.213Y-3.0772
M16
G05
G00X6.2878Y-4.3716
M15
G01X6.3075Y-4.3716
M16
G05
G00X6.2878Y-3.5079
M15
G01X6.3075Y-3.5079
M16
G05
G00X6.2878Y-3.9409
M15
G01X6.3075Y-3.9409
M16
G05
G00X6.2878Y-2.6393
M15
G01X6.3075Y-2.6393
M16
G05
G00X6.2878Y-3.0772
M15
G01X6.3075Y-3.0772
M16
G05
G00X6.6831Y-4.3716
M15
G01X6.7028Y-4.3716
M16
G05
G00X6.6831Y-3.5079
M15
G01X6.7028Y-3.5079
M16
G05
G00X6.6831Y-3.9409
M15
G01X6.7028Y-3.9409
M16
G05
G00X6.6831Y-2.6393
M15
G01X6.7028Y-2.6393
M16
G05
G00X6.6831Y-3.0772
M15
G01X6.7028Y-3.0772
M16
G05
G00X6.7776Y-4.3716
M15
G01X6.7972Y-4.3716
M16
G05
G00X6.7776Y-3.5079
M15
G01X6.7972Y-3.5079
M16
G05
G00X6.7776Y-3.9409
M15
G01X6.7972Y-3.9409
M16
G05
G00X6.7776Y-2.6393
M15
G01X6.7972Y-2.6393
M16
G05
G00X6.7776Y-3.0772
M15
G01X6.7972Y-3.0772
M16
G05
G00X7.1555Y-4.3716
M15
G01X7.1752Y-4.3716
M16
G05
G00X7.1555Y-3.5079
M15
G01X7.1752Y-3.5079
M16
G05
G00X7.1555Y-3.9409
M15
G01X7.1752Y-3.9409
M16
G05
G00X7.1555Y-2.6393
M15
G01X7.1752Y-2.6393
M16
G05
G00X7.1555Y-3.0772
M15
G01X7.1752Y-3.0772
M16
G05
G00X7.25Y-4.3716
M15
G01X7.2697Y-4.3716
M16
G05
G00X7.25Y-3.5079
M15
G01X7.2697Y-3.5079
M16
G05
G00X7.25Y-3.9409
M15
G01X7.2697Y-3.9409
M16
G05
G00X7.25Y-2.6393
M15
G01X7.2697Y-2.6393
M16
G05
G00X7.25Y-3.0772
M15
G01X7.2697Y-3.0772
M16
G05
G00X7.628Y-4.3716
M15
G01X7.6476Y-4.3716
M16
G05
G00X7.628Y-3.5079
M15
G01X7.6476Y-3.5079
M16
G05
G00X7.628Y-3.9409
M15
G01X7.6476Y-3.9409
M16
G05
G00X7.628Y-2.6393
M15
G01X7.6476Y-2.6393
M16
G05
G00X7.628Y-3.0772
M15
G01X7.6476Y-3.0772
M16
G05
G00X7.7224Y-4.3716
M15
G01X7.7421Y-4.3716
M16
G05
G00X7.7224Y-3.5079
M15
G01X7.7421Y-3.5079
M16
G05
G00X7.7224Y-3.9409
M15
G01X7.7421Y-3.9409
M16
G05
G00X7.7224Y-2.6393
M15
G01X7.7421Y-2.6393
M16
G05
G00X7.7224Y-3.0772
M15
G01X7.7421Y-3.0772
M16
G05
G00X8.1004Y-4.3716
M15
G01X8.1201Y-4.3716
M16
G05
G00X8.1004Y-3.5079
M15
G01X8.1201Y-3.5079
M16
G05
G00X8.1004Y-3.9409
M15
G01X8.1201Y-3.9409
M16
G05
G00X8.1004Y-2.6393
M15
G01X8.1201Y-2.6393
M16
G05
G00X8.1004Y-3.0772
M15
G01X8.1201Y-3.0772
M16
G05
G00X8.1949Y-4.3716
M15
G01X8.2146Y-4.3716
M16
G05
G00X8.1949Y-3.5079
M15
G01X8.2146Y-3.5079
M16
G05
G00X8.1949Y-3.9409
M15
G01X8.2146Y-3.9409
M16
G05
G00X8.1949Y-2.6393
M15
G01X8.2146Y-2.6393
M16
G05
G00X8.1949Y-3.0772
M15
G01X8.2146Y-3.0772
M16
G05
T0
M30
