%TF.GenerationSoftware,KiCad,Pcbnew,(6.0.0)*%
%TF.CreationDate,2022-01-23T05:48:29-08:00*%
%TF.ProjectId,headstage-64s-coax-adapter_panel,68656164-7374-4616-9765-2d3634732d63,A*%
%TF.SameCoordinates,Original*%
%TF.FileFunction,Soldermask,Top*%
%TF.FilePolarity,Negative*%
%FSLAX46Y46*%
G04 Gerber Fmt 4.6, Leading zero omitted, Abs format (unit mm)*
G04 Created by KiCad (PCBNEW (6.0.0)) date 2022-01-23 05:48:29*
%MOMM*%
%LPD*%
G01*
G04 APERTURE LIST*
G04 Aperture macros list*
%AMRoundRect*
0 Rectangle with rounded corners*
0 $1 Rounding radius*
0 $2 $3 $4 $5 $6 $7 $8 $9 X,Y pos of 4 corners*
0 Add a 4 corners polygon primitive as box body*
4,1,4,$2,$3,$4,$5,$6,$7,$8,$9,$2,$3,0*
0 Add four circle primitives for the rounded corners*
1,1,$1+$1,$2,$3*
1,1,$1+$1,$4,$5*
1,1,$1+$1,$6,$7*
1,1,$1+$1,$8,$9*
0 Add four rect primitives between the rounded corners*
20,1,$1+$1,$2,$3,$4,$5,0*
20,1,$1+$1,$4,$5,$6,$7,0*
20,1,$1+$1,$6,$7,$8,$9,0*
20,1,$1+$1,$8,$9,$2,$3,0*%
%AMFreePoly0*
4,1,9,0.200000,-0.700000,-0.316000,-0.700000,-0.316000,-0.220000,-0.236000,-0.140000,-0.236000,0.260000,-0.316000,0.340000,-0.316000,0.824000,0.200000,0.824000,0.200000,-0.700000,0.200000,-0.700000,$1*%
G04 Aperture macros list end*
%ADD10C,0.275000*%
%ADD11C,0.180000*%
%ADD12RoundRect,0.312500X0.562500X-0.312500X0.562500X0.312500X-0.562500X0.312500X-0.562500X-0.312500X0*%
%ADD13FreePoly0,180.000000*%
%ADD14R,0.500000X0.500000*%
%ADD15FreePoly0,0.000000*%
%ADD16R,0.600000X0.550000*%
%ADD17C,2.000000*%
G04 APERTURE END LIST*
D10*
%TO.C,*%
X210720000Y-120438750D02*
X207620000Y-119138750D01*
X207620000Y-119138750D02*
X211020000Y-119438750D01*
X210720000Y-120438750D02*
X211020000Y-119438750D01*
X210720000Y-120438750D02*
X210120000Y-117238750D01*
X210120000Y-117238750D02*
X211020000Y-119438750D01*
X211020000Y-119438750D02*
X208920000Y-117938750D01*
X207620000Y-119138750D02*
X208920000Y-117938750D01*
X208920000Y-117938750D02*
X210720000Y-120438750D01*
D11*
X206700000Y-121978750D02*
X206820000Y-121978750D01*
X206820000Y-121978750D02*
G75*
G03*
X207000000Y-121798750I0J180000D01*
G01*
X207000000Y-121798750D02*
X207000000Y-121278750D01*
X207000000Y-121278750D02*
G75*
G03*
X206820000Y-121098750I-180000J0D01*
G01*
X206820000Y-121098750D02*
X206700000Y-121098750D01*
X206700000Y-121098750D02*
G75*
G03*
X206520000Y-121278750I0J-180000D01*
G01*
X206520000Y-121278750D02*
X206520000Y-121798750D01*
X206520000Y-121798750D02*
G75*
G03*
X206700000Y-121978750I180000J0D01*
G01*
X208620000Y-121278750D02*
G75*
G03*
X208440000Y-121098750I-180000J0D01*
G01*
X208440000Y-121098750D02*
X208320000Y-121098750D01*
X208320000Y-121098750D02*
G75*
G03*
X208140000Y-121278750I0J-180000D01*
G01*
X208140000Y-121278750D02*
X208140000Y-121798750D01*
X208140000Y-121798750D02*
G75*
G03*
X208320000Y-121978750I180000J0D01*
G01*
X209440000Y-121978750D02*
X209440000Y-121278750D01*
X209440000Y-121278750D02*
G75*
G03*
X209260000Y-121098750I-180000J0D01*
G01*
X209260000Y-121098750D02*
X208960000Y-121098750D01*
X208960000Y-121098750D02*
X208960000Y-121978750D01*
X210960000Y-121098750D02*
X210960000Y-121978750D01*
X210960000Y-121978750D02*
X211260000Y-121978750D01*
X211260000Y-121978750D02*
G75*
G03*
X211440000Y-121798750I0J180000D01*
G01*
X211440000Y-121798750D02*
X211440000Y-121278750D01*
X211440000Y-121278750D02*
G75*
G03*
X211260000Y-121098750I-180000J0D01*
G01*
X211260000Y-121098750D02*
X210960000Y-121098750D01*
X212290000Y-121978750D02*
X212280000Y-121278750D01*
X212280000Y-121278750D02*
G75*
G03*
X212100000Y-121098750I-180000J0D01*
G01*
X212100000Y-121098750D02*
X211870000Y-121098750D01*
X213660000Y-121058750D02*
X213540000Y-121058750D01*
X213540000Y-121058750D02*
G75*
G03*
X213360000Y-121238750I0J-180000D01*
G01*
X208200000Y-121538750D02*
X208620000Y-121538750D01*
X208320000Y-121978750D02*
X208500000Y-121978750D01*
X208500000Y-121978750D02*
G75*
G03*
X208570000Y-121908750I0J70000D01*
G01*
X208620000Y-121298750D02*
X208620000Y-121538750D01*
X210960000Y-121988750D02*
X210960000Y-122508750D01*
X212510000Y-121008750D02*
X212840000Y-121968750D01*
X213150000Y-121008750D02*
X212730000Y-122358750D01*
X212720000Y-122378750D02*
X212650000Y-122478750D01*
X212650000Y-122478750D02*
X212560000Y-122498750D01*
X212560000Y-122498750D02*
X212510000Y-122498750D01*
X207330000Y-121098750D02*
X207330000Y-121978750D01*
X207330000Y-121978750D02*
X207630000Y-121978750D01*
X207630000Y-121978750D02*
G75*
G03*
X207810000Y-121798750I0J180000D01*
G01*
X207810000Y-121798750D02*
X207810000Y-121278750D01*
X207810000Y-121278750D02*
G75*
G03*
X207630000Y-121098750I-180000J0D01*
G01*
X207630000Y-121098750D02*
X207330000Y-121098750D01*
X207330000Y-121988750D02*
X207330000Y-122508750D01*
X210640000Y-121278750D02*
G75*
G03*
X210460000Y-121098750I-180000J0D01*
G01*
X210460000Y-121098750D02*
X210340000Y-121098750D01*
X210340000Y-121098750D02*
G75*
G03*
X210160000Y-121278750I0J-180000D01*
G01*
X210160000Y-121278750D02*
X210160000Y-121798750D01*
X210160000Y-121798750D02*
G75*
G03*
X210340000Y-121978750I180000J0D01*
G01*
X210220000Y-121538750D02*
X210640000Y-121538750D01*
X210340000Y-121978750D02*
X210520000Y-121978750D01*
X210520000Y-121978750D02*
G75*
G03*
X210590000Y-121908750I0J70000D01*
G01*
X210640000Y-121298750D02*
X210640000Y-121538750D01*
X213360000Y-121248750D02*
X213360000Y-121298750D01*
X213360000Y-121298750D02*
X213370000Y-121348750D01*
X213370000Y-121348750D02*
X213410000Y-121408750D01*
X213410000Y-121408750D02*
X213570000Y-121528750D01*
X213670000Y-121058750D02*
X213710000Y-121078750D01*
X213710000Y-121078750D02*
X213760000Y-121108750D01*
X213760000Y-121108750D02*
X213780000Y-121138750D01*
X213780000Y-121138750D02*
X213780000Y-121158750D01*
X213500000Y-122008750D02*
X213620000Y-122008750D01*
X213620000Y-122008750D02*
G75*
G03*
X213800000Y-121828750I0J180000D01*
G01*
X213800000Y-121818750D02*
X213800000Y-121768750D01*
X213800000Y-121768750D02*
X213790000Y-121718750D01*
X213790000Y-121718750D02*
X213700000Y-121628750D01*
X213700000Y-121628750D02*
X213540000Y-121508750D01*
X213490000Y-122008750D02*
X213450000Y-121988750D01*
X213450000Y-121988750D02*
X213400000Y-121958750D01*
X213400000Y-121958750D02*
X213380000Y-121928750D01*
X213380000Y-121928750D02*
X213380000Y-121908750D01*
X211800000Y-121968750D02*
X211800000Y-120548750D01*
%TD*%
D12*
%TO.C,TP2*%
X206000001Y-67039340D03*
%TD*%
D13*
%TO.C,J1*%
X170214001Y-65015340D03*
D14*
X171200001Y-64077340D03*
D15*
X172186001Y-65139340D03*
D16*
X171200001Y-66052340D03*
%TD*%
D12*
%TO.C,TP1*%
X196400001Y-67039340D03*
%TD*%
%TO.C,TP1*%
X172400001Y-67039340D03*
%TD*%
%TO.C,TP2*%
X157560661Y-67039340D03*
%TD*%
D13*
%TO.C,J1*%
X206214001Y-65015340D03*
D14*
X207200001Y-64077340D03*
D15*
X208186001Y-65139340D03*
D16*
X207200001Y-66052340D03*
%TD*%
D12*
%TO.C,TP1*%
X208400001Y-67039340D03*
%TD*%
D13*
%TO.C,J1*%
X194214001Y-65015340D03*
D14*
X195200001Y-64077340D03*
D15*
X196186001Y-65139340D03*
D16*
X195200001Y-66052340D03*
%TD*%
D12*
%TO.C,TP1*%
X159960661Y-67039340D03*
%TD*%
%TO.C,TP2*%
X182000001Y-67039340D03*
%TD*%
%TO.C,TP2*%
X170000001Y-67039340D03*
%TD*%
D13*
%TO.C,J1*%
X157774661Y-65015340D03*
D14*
X158760661Y-64077340D03*
D15*
X159746661Y-65139340D03*
D16*
X158760661Y-66052340D03*
%TD*%
D12*
%TO.C,TP2*%
X194000001Y-67039340D03*
%TD*%
D13*
%TO.C,J1*%
X182214001Y-65015340D03*
D14*
X183200001Y-64077340D03*
D15*
X184186001Y-65139340D03*
D16*
X183200001Y-66052340D03*
%TD*%
D12*
%TO.C,TP1*%
X184400001Y-67039340D03*
%TD*%
%TO.C,TP2*%
X194000001Y-78160661D03*
%TD*%
%TO.C,TP2*%
X182000001Y-78160661D03*
%TD*%
%TO.C,TP1*%
X208400000Y-89100000D03*
%TD*%
D13*
%TO.C,J1*%
X157774661Y-76136661D03*
D14*
X158760661Y-75198661D03*
D15*
X159746661Y-76260661D03*
D16*
X158760661Y-77173661D03*
%TD*%
D13*
%TO.C,J1*%
X182214001Y-76136661D03*
D14*
X183200001Y-75198661D03*
D15*
X184186001Y-76260661D03*
D16*
X183200001Y-77173661D03*
%TD*%
D12*
%TO.C,TP1*%
X184400001Y-78160661D03*
%TD*%
%TO.C,TP2*%
X170000001Y-78160661D03*
%TD*%
%TO.C,TP2*%
X157560661Y-78160661D03*
%TD*%
D13*
%TO.C,J1*%
X194214000Y-87076000D03*
D14*
X195200000Y-86138000D03*
D15*
X196186000Y-87200000D03*
D16*
X195200000Y-88113000D03*
%TD*%
D12*
%TO.C,TP2*%
X206000000Y-89100000D03*
%TD*%
%TO.C,TP1*%
X196400001Y-78160661D03*
%TD*%
D13*
%TO.C,J1*%
X170214001Y-76136661D03*
D14*
X171200001Y-75198661D03*
D15*
X172186001Y-76260661D03*
D16*
X171200001Y-77173661D03*
%TD*%
D12*
%TO.C,TP1*%
X159960661Y-78160661D03*
%TD*%
%TO.C,TP1*%
X172400001Y-78160661D03*
%TD*%
%TO.C,TP2*%
X206000001Y-78160661D03*
%TD*%
D13*
%TO.C,J1*%
X206214001Y-76136661D03*
D14*
X207200001Y-75198661D03*
D15*
X208186001Y-76260661D03*
D16*
X207200001Y-77173661D03*
%TD*%
D13*
%TO.C,J1*%
X206214000Y-87076000D03*
D14*
X207200000Y-86138000D03*
D15*
X208186000Y-87200000D03*
D16*
X207200000Y-88113000D03*
%TD*%
D13*
%TO.C,J1*%
X194214001Y-76136661D03*
D14*
X195200001Y-75198661D03*
D15*
X196186001Y-76260661D03*
D16*
X195200001Y-77173661D03*
%TD*%
D12*
%TO.C,TP1*%
X208400001Y-78160661D03*
%TD*%
D13*
%TO.C,J1*%
X157774660Y-87076000D03*
D14*
X158760660Y-86138000D03*
D15*
X159746660Y-87200000D03*
D16*
X158760660Y-88113000D03*
%TD*%
D12*
%TO.C,TP2*%
X170000000Y-89100000D03*
%TD*%
%TO.C,TP2*%
X194000000Y-89100000D03*
%TD*%
%TO.C,TP1*%
X196400000Y-89100000D03*
%TD*%
D13*
%TO.C,J1*%
X182214000Y-87076000D03*
D14*
X183200000Y-86138000D03*
D15*
X184186000Y-87200000D03*
D16*
X183200000Y-88113000D03*
%TD*%
D12*
%TO.C,TP2*%
X182000000Y-89100000D03*
%TD*%
%TO.C,TP1*%
X184400000Y-89100000D03*
%TD*%
D13*
%TO.C,J1*%
X170214000Y-87076000D03*
D14*
X171200000Y-86138000D03*
D15*
X172186000Y-87200000D03*
D16*
X171200000Y-88113000D03*
%TD*%
D12*
%TO.C,TP1*%
X172400000Y-89100000D03*
%TD*%
%TO.C,TP2*%
X157560660Y-89100000D03*
%TD*%
%TO.C,TP1*%
X159960660Y-89100000D03*
%TD*%
%TO.C,TP1*%
X208400000Y-100100001D03*
%TD*%
D13*
%TO.C,J1*%
X194214000Y-98076001D03*
D14*
X195200000Y-97138001D03*
D15*
X196186000Y-98200001D03*
D16*
X195200000Y-99113001D03*
%TD*%
D12*
%TO.C,TP2*%
X206000000Y-100100001D03*
%TD*%
D13*
%TO.C,J1*%
X206214000Y-98076001D03*
D14*
X207200000Y-97138001D03*
D15*
X208186000Y-98200001D03*
D16*
X207200000Y-99113001D03*
%TD*%
D13*
%TO.C,J1*%
X157774660Y-98076001D03*
D14*
X158760660Y-97138001D03*
D15*
X159746660Y-98200001D03*
D16*
X158760660Y-99113001D03*
%TD*%
D12*
%TO.C,TP2*%
X170000000Y-100100001D03*
%TD*%
%TO.C,TP2*%
X194000000Y-100100001D03*
%TD*%
%TO.C,TP1*%
X196400000Y-100100001D03*
%TD*%
D13*
%TO.C,J1*%
X182214000Y-98076001D03*
D14*
X183200000Y-97138001D03*
D15*
X184186000Y-98200001D03*
D16*
X183200000Y-99113001D03*
%TD*%
D12*
%TO.C,TP2*%
X182000000Y-100100001D03*
%TD*%
%TO.C,TP1*%
X184400000Y-100100001D03*
%TD*%
D13*
%TO.C,J1*%
X170214000Y-98076001D03*
D14*
X171200000Y-97138001D03*
D15*
X172186000Y-98200001D03*
D16*
X171200000Y-99113001D03*
%TD*%
D12*
%TO.C,TP1*%
X172400000Y-100100001D03*
%TD*%
%TO.C,TP2*%
X157560660Y-100100001D03*
%TD*%
%TO.C,TP1*%
X159960660Y-100100001D03*
%TD*%
D13*
%TO.C,J1*%
X206213999Y-109015340D03*
D14*
X207199999Y-108077340D03*
D15*
X208185999Y-109139340D03*
D16*
X207199999Y-110052340D03*
%TD*%
D12*
%TO.C,TP2*%
X205999999Y-111039340D03*
%TD*%
%TO.C,TP1*%
X208399999Y-111039340D03*
%TD*%
D13*
%TO.C,J1*%
X194213999Y-109015340D03*
D14*
X195199999Y-108077340D03*
D15*
X196185999Y-109139340D03*
D16*
X195199999Y-110052340D03*
%TD*%
D12*
%TO.C,TP2*%
X193999999Y-111039340D03*
%TD*%
%TO.C,TP1*%
X196399999Y-111039340D03*
%TD*%
D13*
%TO.C,J1*%
X182213999Y-109015340D03*
D14*
X183199999Y-108077340D03*
D15*
X184185999Y-109139340D03*
D16*
X183199999Y-110052340D03*
%TD*%
D12*
%TO.C,TP2*%
X181999999Y-111039340D03*
%TD*%
%TO.C,TP1*%
X184399999Y-111039340D03*
%TD*%
D13*
%TO.C,J1*%
X170213999Y-109015340D03*
D14*
X171199999Y-108077340D03*
D15*
X172185999Y-109139340D03*
D16*
X171199999Y-110052340D03*
%TD*%
D12*
%TO.C,TP2*%
X169999999Y-111039340D03*
%TD*%
%TO.C,TP1*%
X172399999Y-111039340D03*
%TD*%
D13*
%TO.C,J1*%
X157774659Y-109015340D03*
D14*
X158760659Y-108077340D03*
D15*
X159746659Y-109139340D03*
D16*
X158760659Y-110052340D03*
%TD*%
D17*
%TO.C,*%
X221200000Y-54850000D03*
%TD*%
%TO.C,*%
X143200000Y-120850000D03*
%TD*%
D12*
%TO.C,TP1*%
X159960659Y-111039340D03*
%TD*%
%TO.C,TP2*%
X157560659Y-111039340D03*
%TD*%
D17*
%TO.C,REF\u002A\u002A*%
X143200000Y-56850000D03*
%TD*%
M02*
