%TF.GenerationSoftware,KiCad,Pcbnew,(6.0.0)*%
%TF.CreationDate,2022-01-23T05:48:29-08:00*%
%TF.ProjectId,headstage-64s-coax-adapter_panel,68656164-7374-4616-9765-2d3634732d63,A*%
%TF.SameCoordinates,Original*%
%TF.FileFunction,Legend,Bot*%
%TF.FilePolarity,Positive*%
%FSLAX46Y46*%
G04 Gerber Fmt 4.6, Leading zero omitted, Abs format (unit mm)*
G04 Created by KiCad (PCBNEW (6.0.0)) date 2022-01-23 05:48:29*
%MOMM*%
%LPD*%
G01*
G04 APERTURE LIST*
G04 APERTURE END LIST*
%TO.C,kibuzzard-61EACC9F*%
G36*
X171200001Y-66466512D02*
G01*
X170580850Y-66053745D01*
X170580850Y-65863351D01*
X170819027Y-65863351D01*
X170829584Y-65925025D01*
X170861255Y-65954473D01*
X170917929Y-65961141D01*
X171535784Y-65961141D01*
X171574122Y-65959474D01*
X171603570Y-65948917D01*
X171626073Y-65919469D01*
X171633574Y-65862239D01*
X171623295Y-65800287D01*
X171592457Y-65770006D01*
X171534672Y-65764449D01*
X170983492Y-65764449D01*
X170983492Y-65462189D01*
X170975158Y-65408849D01*
X170949044Y-65386624D01*
X170901816Y-65381068D01*
X170854587Y-65386624D01*
X170830140Y-65405516D01*
X170819027Y-65463301D01*
X170819027Y-65863351D01*
X170580850Y-65863351D01*
X170580850Y-65212158D01*
X170819027Y-65212158D01*
X170826528Y-65268554D01*
X170849031Y-65297724D01*
X170877924Y-65307170D01*
X170916817Y-65308837D01*
X171306866Y-65308837D01*
X171345204Y-65307170D01*
X171374652Y-65297724D01*
X171396322Y-65268276D01*
X171403475Y-65211603D01*
X171483555Y-65211603D01*
X171490222Y-65267721D01*
X171513559Y-65297169D01*
X171543007Y-65307170D01*
X171581345Y-65308837D01*
X171619683Y-65307170D01*
X171648020Y-65297724D01*
X171670523Y-65268276D01*
X171678024Y-65211047D01*
X171670523Y-65154929D01*
X171648020Y-65126592D01*
X171618572Y-65116035D01*
X171580234Y-65114368D01*
X171541896Y-65116035D01*
X171513003Y-65126036D01*
X171490222Y-65155484D01*
X171483555Y-65211603D01*
X171403475Y-65211603D01*
X171403545Y-65211047D01*
X171384654Y-65135482D01*
X171336870Y-65115479D01*
X171304644Y-65114368D01*
X170915706Y-65114368D01*
X170877368Y-65116035D01*
X170847920Y-65126592D01*
X170826251Y-65155207D01*
X170819027Y-65212158D01*
X170580850Y-65212158D01*
X170580850Y-64928789D01*
X170820139Y-64928789D01*
X170827640Y-64985185D01*
X170850142Y-65014356D01*
X170879591Y-65023801D01*
X170917929Y-65025468D01*
X171311311Y-65025468D01*
X171348538Y-65023801D01*
X171376875Y-65013244D01*
X171397711Y-64984074D01*
X171404656Y-64927678D01*
X171398267Y-64872949D01*
X171379097Y-64844334D01*
X171333536Y-64833222D01*
X171355761Y-64813219D01*
X171379097Y-64783216D01*
X171404656Y-64699872D01*
X171395211Y-64629925D01*
X171366874Y-64568250D01*
X171319646Y-64514849D01*
X171258836Y-64473794D01*
X171189753Y-64449162D01*
X171112397Y-64440951D01*
X170916817Y-64440951D01*
X170878479Y-64442617D01*
X170850142Y-64452063D01*
X170827640Y-64481511D01*
X170820139Y-64538741D01*
X170830418Y-64600971D01*
X170861255Y-64629863D01*
X170917929Y-64636531D01*
X171113509Y-64636531D01*
X171184629Y-64662645D01*
X171210187Y-64732654D01*
X171183517Y-64803774D01*
X171113509Y-64830999D01*
X170916817Y-64830999D01*
X170878479Y-64832666D01*
X170850142Y-64843223D01*
X170827640Y-64871838D01*
X170820139Y-64928789D01*
X170580850Y-64928789D01*
X170580850Y-63918663D01*
X170812360Y-63918663D01*
X170844586Y-63986449D01*
X170852365Y-63997562D01*
X170881396Y-64030066D01*
X170926263Y-64076461D01*
X170971408Y-64123411D01*
X171001272Y-64157582D01*
X170915706Y-64157582D01*
X170877368Y-64159249D01*
X170847920Y-64169806D01*
X170826251Y-64198420D01*
X170819027Y-64255372D01*
X170826528Y-64311768D01*
X170849031Y-64340938D01*
X170878479Y-64350384D01*
X170916817Y-64352051D01*
X171582456Y-64352051D01*
X171620794Y-64350384D01*
X171650242Y-64340938D01*
X171672745Y-64311490D01*
X171680246Y-64254261D01*
X171661355Y-64178696D01*
X171612460Y-64158693D01*
X171581345Y-64157582D01*
X171229079Y-64157582D01*
X171285752Y-64097019D01*
X171342426Y-64036456D01*
X171351316Y-64023121D01*
X171381320Y-63956446D01*
X171336314Y-63892549D01*
X171265750Y-63856433D01*
X171205742Y-63897549D01*
X171112397Y-64007563D01*
X170990160Y-63859767D01*
X170954600Y-63824762D01*
X170931264Y-63817539D01*
X170859032Y-63851988D01*
X170812360Y-63918663D01*
X170580850Y-63918663D01*
X170580850Y-63724935D01*
X171200001Y-63312168D01*
X171819152Y-63724935D01*
X171819152Y-66053745D01*
X171200001Y-66466512D01*
G37*
G36*
X158760661Y-66466512D02*
G01*
X158141510Y-66053745D01*
X158141510Y-65863351D01*
X158379687Y-65863351D01*
X158390244Y-65925025D01*
X158421915Y-65954473D01*
X158478589Y-65961141D01*
X159096444Y-65961141D01*
X159134782Y-65959474D01*
X159164230Y-65948917D01*
X159186733Y-65919469D01*
X159194234Y-65862239D01*
X159183955Y-65800287D01*
X159153117Y-65770006D01*
X159095332Y-65764449D01*
X158544152Y-65764449D01*
X158544152Y-65462189D01*
X158535818Y-65408849D01*
X158509704Y-65386624D01*
X158462476Y-65381068D01*
X158415247Y-65386624D01*
X158390800Y-65405516D01*
X158379687Y-65463301D01*
X158379687Y-65863351D01*
X158141510Y-65863351D01*
X158141510Y-65212158D01*
X158379687Y-65212158D01*
X158387188Y-65268554D01*
X158409691Y-65297724D01*
X158438584Y-65307170D01*
X158477477Y-65308837D01*
X158867526Y-65308837D01*
X158905864Y-65307170D01*
X158935312Y-65297724D01*
X158956982Y-65268276D01*
X158964135Y-65211603D01*
X159044215Y-65211603D01*
X159050882Y-65267721D01*
X159074219Y-65297169D01*
X159103667Y-65307170D01*
X159142005Y-65308837D01*
X159180343Y-65307170D01*
X159208680Y-65297724D01*
X159231183Y-65268276D01*
X159238684Y-65211047D01*
X159231183Y-65154929D01*
X159208680Y-65126592D01*
X159179232Y-65116035D01*
X159140894Y-65114368D01*
X159102556Y-65116035D01*
X159073663Y-65126036D01*
X159050882Y-65155484D01*
X159044215Y-65211603D01*
X158964135Y-65211603D01*
X158964205Y-65211047D01*
X158945314Y-65135482D01*
X158897530Y-65115479D01*
X158865304Y-65114368D01*
X158476366Y-65114368D01*
X158438028Y-65116035D01*
X158408580Y-65126592D01*
X158386911Y-65155207D01*
X158379687Y-65212158D01*
X158141510Y-65212158D01*
X158141510Y-64928789D01*
X158380799Y-64928789D01*
X158388300Y-64985185D01*
X158410802Y-65014356D01*
X158440251Y-65023801D01*
X158478589Y-65025468D01*
X158871971Y-65025468D01*
X158909198Y-65023801D01*
X158937535Y-65013244D01*
X158958371Y-64984074D01*
X158965316Y-64927678D01*
X158958927Y-64872949D01*
X158939757Y-64844334D01*
X158894196Y-64833222D01*
X158916421Y-64813219D01*
X158939757Y-64783216D01*
X158965316Y-64699872D01*
X158955871Y-64629925D01*
X158927534Y-64568250D01*
X158880306Y-64514849D01*
X158819496Y-64473794D01*
X158750413Y-64449162D01*
X158673057Y-64440951D01*
X158477477Y-64440951D01*
X158439139Y-64442617D01*
X158410802Y-64452063D01*
X158388300Y-64481511D01*
X158380799Y-64538741D01*
X158391078Y-64600971D01*
X158421915Y-64629863D01*
X158478589Y-64636531D01*
X158674169Y-64636531D01*
X158745289Y-64662645D01*
X158770847Y-64732654D01*
X158744177Y-64803774D01*
X158674169Y-64830999D01*
X158477477Y-64830999D01*
X158439139Y-64832666D01*
X158410802Y-64843223D01*
X158388300Y-64871838D01*
X158380799Y-64928789D01*
X158141510Y-64928789D01*
X158141510Y-63918663D01*
X158373020Y-63918663D01*
X158405246Y-63986449D01*
X158413025Y-63997562D01*
X158442056Y-64030066D01*
X158486923Y-64076461D01*
X158532068Y-64123411D01*
X158561932Y-64157582D01*
X158476366Y-64157582D01*
X158438028Y-64159249D01*
X158408580Y-64169806D01*
X158386911Y-64198420D01*
X158379687Y-64255372D01*
X158387188Y-64311768D01*
X158409691Y-64340938D01*
X158439139Y-64350384D01*
X158477477Y-64352051D01*
X159143116Y-64352051D01*
X159181454Y-64350384D01*
X159210902Y-64340938D01*
X159233405Y-64311490D01*
X159240906Y-64254261D01*
X159222015Y-64178696D01*
X159173120Y-64158693D01*
X159142005Y-64157582D01*
X158789739Y-64157582D01*
X158846412Y-64097019D01*
X158903086Y-64036456D01*
X158911976Y-64023121D01*
X158941980Y-63956446D01*
X158896974Y-63892549D01*
X158826410Y-63856433D01*
X158766402Y-63897549D01*
X158673057Y-64007563D01*
X158550820Y-63859767D01*
X158515260Y-63824762D01*
X158491924Y-63817539D01*
X158419692Y-63851988D01*
X158373020Y-63918663D01*
X158141510Y-63918663D01*
X158141510Y-63724935D01*
X158760661Y-63312168D01*
X159379812Y-63724935D01*
X159379812Y-66053745D01*
X158760661Y-66466512D01*
G37*
G36*
X207200001Y-66466512D02*
G01*
X206580850Y-66053745D01*
X206580850Y-65863351D01*
X206819027Y-65863351D01*
X206829584Y-65925025D01*
X206861255Y-65954473D01*
X206917929Y-65961141D01*
X207535784Y-65961141D01*
X207574122Y-65959474D01*
X207603570Y-65948917D01*
X207626073Y-65919469D01*
X207633574Y-65862239D01*
X207623295Y-65800287D01*
X207592457Y-65770006D01*
X207534672Y-65764449D01*
X206983492Y-65764449D01*
X206983492Y-65462189D01*
X206975158Y-65408849D01*
X206949044Y-65386624D01*
X206901816Y-65381068D01*
X206854587Y-65386624D01*
X206830140Y-65405516D01*
X206819027Y-65463301D01*
X206819027Y-65863351D01*
X206580850Y-65863351D01*
X206580850Y-65212158D01*
X206819027Y-65212158D01*
X206826528Y-65268554D01*
X206849031Y-65297724D01*
X206877924Y-65307170D01*
X206916817Y-65308837D01*
X207306866Y-65308837D01*
X207345204Y-65307170D01*
X207374652Y-65297724D01*
X207396322Y-65268276D01*
X207403475Y-65211603D01*
X207483555Y-65211603D01*
X207490222Y-65267721D01*
X207513559Y-65297169D01*
X207543007Y-65307170D01*
X207581345Y-65308837D01*
X207619683Y-65307170D01*
X207648020Y-65297724D01*
X207670523Y-65268276D01*
X207678024Y-65211047D01*
X207670523Y-65154929D01*
X207648020Y-65126592D01*
X207618572Y-65116035D01*
X207580234Y-65114368D01*
X207541896Y-65116035D01*
X207513003Y-65126036D01*
X207490222Y-65155484D01*
X207483555Y-65211603D01*
X207403475Y-65211603D01*
X207403545Y-65211047D01*
X207384654Y-65135482D01*
X207336870Y-65115479D01*
X207304644Y-65114368D01*
X206915706Y-65114368D01*
X206877368Y-65116035D01*
X206847920Y-65126592D01*
X206826251Y-65155207D01*
X206819027Y-65212158D01*
X206580850Y-65212158D01*
X206580850Y-64928789D01*
X206820139Y-64928789D01*
X206827640Y-64985185D01*
X206850142Y-65014356D01*
X206879591Y-65023801D01*
X206917929Y-65025468D01*
X207311311Y-65025468D01*
X207348538Y-65023801D01*
X207376875Y-65013244D01*
X207397711Y-64984074D01*
X207404656Y-64927678D01*
X207398267Y-64872949D01*
X207379097Y-64844334D01*
X207333536Y-64833222D01*
X207355761Y-64813219D01*
X207379097Y-64783216D01*
X207404656Y-64699872D01*
X207395211Y-64629925D01*
X207366874Y-64568250D01*
X207319646Y-64514849D01*
X207258836Y-64473794D01*
X207189753Y-64449162D01*
X207112397Y-64440951D01*
X206916817Y-64440951D01*
X206878479Y-64442617D01*
X206850142Y-64452063D01*
X206827640Y-64481511D01*
X206820139Y-64538741D01*
X206830418Y-64600971D01*
X206861255Y-64629863D01*
X206917929Y-64636531D01*
X207113509Y-64636531D01*
X207184629Y-64662645D01*
X207210187Y-64732654D01*
X207183517Y-64803774D01*
X207113509Y-64830999D01*
X206916817Y-64830999D01*
X206878479Y-64832666D01*
X206850142Y-64843223D01*
X206827640Y-64871838D01*
X206820139Y-64928789D01*
X206580850Y-64928789D01*
X206580850Y-63918663D01*
X206812360Y-63918663D01*
X206844586Y-63986449D01*
X206852365Y-63997562D01*
X206881396Y-64030066D01*
X206926263Y-64076461D01*
X206971408Y-64123411D01*
X207001272Y-64157582D01*
X206915706Y-64157582D01*
X206877368Y-64159249D01*
X206847920Y-64169806D01*
X206826251Y-64198420D01*
X206819027Y-64255372D01*
X206826528Y-64311768D01*
X206849031Y-64340938D01*
X206878479Y-64350384D01*
X206916817Y-64352051D01*
X207582456Y-64352051D01*
X207620794Y-64350384D01*
X207650242Y-64340938D01*
X207672745Y-64311490D01*
X207680246Y-64254261D01*
X207661355Y-64178696D01*
X207612460Y-64158693D01*
X207581345Y-64157582D01*
X207229079Y-64157582D01*
X207285752Y-64097019D01*
X207342426Y-64036456D01*
X207351316Y-64023121D01*
X207381320Y-63956446D01*
X207336314Y-63892549D01*
X207265750Y-63856433D01*
X207205742Y-63897549D01*
X207112397Y-64007563D01*
X206990160Y-63859767D01*
X206954600Y-63824762D01*
X206931264Y-63817539D01*
X206859032Y-63851988D01*
X206812360Y-63918663D01*
X206580850Y-63918663D01*
X206580850Y-63724935D01*
X207200001Y-63312168D01*
X207819152Y-63724935D01*
X207819152Y-66053745D01*
X207200001Y-66466512D01*
G37*
G36*
X183200001Y-66466512D02*
G01*
X182580850Y-66053745D01*
X182580850Y-65863351D01*
X182819027Y-65863351D01*
X182829584Y-65925025D01*
X182861255Y-65954473D01*
X182917929Y-65961141D01*
X183535784Y-65961141D01*
X183574122Y-65959474D01*
X183603570Y-65948917D01*
X183626073Y-65919469D01*
X183633574Y-65862239D01*
X183623295Y-65800287D01*
X183592457Y-65770006D01*
X183534672Y-65764449D01*
X182983492Y-65764449D01*
X182983492Y-65462189D01*
X182975158Y-65408849D01*
X182949044Y-65386624D01*
X182901816Y-65381068D01*
X182854587Y-65386624D01*
X182830140Y-65405516D01*
X182819027Y-65463301D01*
X182819027Y-65863351D01*
X182580850Y-65863351D01*
X182580850Y-65212158D01*
X182819027Y-65212158D01*
X182826528Y-65268554D01*
X182849031Y-65297724D01*
X182877924Y-65307170D01*
X182916817Y-65308837D01*
X183306866Y-65308837D01*
X183345204Y-65307170D01*
X183374652Y-65297724D01*
X183396322Y-65268276D01*
X183403475Y-65211603D01*
X183483555Y-65211603D01*
X183490222Y-65267721D01*
X183513559Y-65297169D01*
X183543007Y-65307170D01*
X183581345Y-65308837D01*
X183619683Y-65307170D01*
X183648020Y-65297724D01*
X183670523Y-65268276D01*
X183678024Y-65211047D01*
X183670523Y-65154929D01*
X183648020Y-65126592D01*
X183618572Y-65116035D01*
X183580234Y-65114368D01*
X183541896Y-65116035D01*
X183513003Y-65126036D01*
X183490222Y-65155484D01*
X183483555Y-65211603D01*
X183403475Y-65211603D01*
X183403545Y-65211047D01*
X183384654Y-65135482D01*
X183336870Y-65115479D01*
X183304644Y-65114368D01*
X182915706Y-65114368D01*
X182877368Y-65116035D01*
X182847920Y-65126592D01*
X182826251Y-65155207D01*
X182819027Y-65212158D01*
X182580850Y-65212158D01*
X182580850Y-64928789D01*
X182820139Y-64928789D01*
X182827640Y-64985185D01*
X182850142Y-65014356D01*
X182879591Y-65023801D01*
X182917929Y-65025468D01*
X183311311Y-65025468D01*
X183348538Y-65023801D01*
X183376875Y-65013244D01*
X183397711Y-64984074D01*
X183404656Y-64927678D01*
X183398267Y-64872949D01*
X183379097Y-64844334D01*
X183333536Y-64833222D01*
X183355761Y-64813219D01*
X183379097Y-64783216D01*
X183404656Y-64699872D01*
X183395211Y-64629925D01*
X183366874Y-64568250D01*
X183319646Y-64514849D01*
X183258836Y-64473794D01*
X183189753Y-64449162D01*
X183112397Y-64440951D01*
X182916817Y-64440951D01*
X182878479Y-64442617D01*
X182850142Y-64452063D01*
X182827640Y-64481511D01*
X182820139Y-64538741D01*
X182830418Y-64600971D01*
X182861255Y-64629863D01*
X182917929Y-64636531D01*
X183113509Y-64636531D01*
X183184629Y-64662645D01*
X183210187Y-64732654D01*
X183183517Y-64803774D01*
X183113509Y-64830999D01*
X182916817Y-64830999D01*
X182878479Y-64832666D01*
X182850142Y-64843223D01*
X182827640Y-64871838D01*
X182820139Y-64928789D01*
X182580850Y-64928789D01*
X182580850Y-63918663D01*
X182812360Y-63918663D01*
X182844586Y-63986449D01*
X182852365Y-63997562D01*
X182881396Y-64030066D01*
X182926263Y-64076461D01*
X182971408Y-64123411D01*
X183001272Y-64157582D01*
X182915706Y-64157582D01*
X182877368Y-64159249D01*
X182847920Y-64169806D01*
X182826251Y-64198420D01*
X182819027Y-64255372D01*
X182826528Y-64311768D01*
X182849031Y-64340938D01*
X182878479Y-64350384D01*
X182916817Y-64352051D01*
X183582456Y-64352051D01*
X183620794Y-64350384D01*
X183650242Y-64340938D01*
X183672745Y-64311490D01*
X183680246Y-64254261D01*
X183661355Y-64178696D01*
X183612460Y-64158693D01*
X183581345Y-64157582D01*
X183229079Y-64157582D01*
X183285752Y-64097019D01*
X183342426Y-64036456D01*
X183351316Y-64023121D01*
X183381320Y-63956446D01*
X183336314Y-63892549D01*
X183265750Y-63856433D01*
X183205742Y-63897549D01*
X183112397Y-64007563D01*
X182990160Y-63859767D01*
X182954600Y-63824762D01*
X182931264Y-63817539D01*
X182859032Y-63851988D01*
X182812360Y-63918663D01*
X182580850Y-63918663D01*
X182580850Y-63724935D01*
X183200001Y-63312168D01*
X183819152Y-63724935D01*
X183819152Y-66053745D01*
X183200001Y-66466512D01*
G37*
G36*
X195200001Y-66466512D02*
G01*
X194580850Y-66053745D01*
X194580850Y-65863351D01*
X194819027Y-65863351D01*
X194829584Y-65925025D01*
X194861255Y-65954473D01*
X194917929Y-65961141D01*
X195535784Y-65961141D01*
X195574122Y-65959474D01*
X195603570Y-65948917D01*
X195626073Y-65919469D01*
X195633574Y-65862239D01*
X195623295Y-65800287D01*
X195592457Y-65770006D01*
X195534672Y-65764449D01*
X194983492Y-65764449D01*
X194983492Y-65462189D01*
X194975158Y-65408849D01*
X194949044Y-65386624D01*
X194901816Y-65381068D01*
X194854587Y-65386624D01*
X194830140Y-65405516D01*
X194819027Y-65463301D01*
X194819027Y-65863351D01*
X194580850Y-65863351D01*
X194580850Y-65212158D01*
X194819027Y-65212158D01*
X194826528Y-65268554D01*
X194849031Y-65297724D01*
X194877924Y-65307170D01*
X194916817Y-65308837D01*
X195306866Y-65308837D01*
X195345204Y-65307170D01*
X195374652Y-65297724D01*
X195396322Y-65268276D01*
X195403475Y-65211603D01*
X195483555Y-65211603D01*
X195490222Y-65267721D01*
X195513559Y-65297169D01*
X195543007Y-65307170D01*
X195581345Y-65308837D01*
X195619683Y-65307170D01*
X195648020Y-65297724D01*
X195670523Y-65268276D01*
X195678024Y-65211047D01*
X195670523Y-65154929D01*
X195648020Y-65126592D01*
X195618572Y-65116035D01*
X195580234Y-65114368D01*
X195541896Y-65116035D01*
X195513003Y-65126036D01*
X195490222Y-65155484D01*
X195483555Y-65211603D01*
X195403475Y-65211603D01*
X195403545Y-65211047D01*
X195384654Y-65135482D01*
X195336870Y-65115479D01*
X195304644Y-65114368D01*
X194915706Y-65114368D01*
X194877368Y-65116035D01*
X194847920Y-65126592D01*
X194826251Y-65155207D01*
X194819027Y-65212158D01*
X194580850Y-65212158D01*
X194580850Y-64928789D01*
X194820139Y-64928789D01*
X194827640Y-64985185D01*
X194850142Y-65014356D01*
X194879591Y-65023801D01*
X194917929Y-65025468D01*
X195311311Y-65025468D01*
X195348538Y-65023801D01*
X195376875Y-65013244D01*
X195397711Y-64984074D01*
X195404656Y-64927678D01*
X195398267Y-64872949D01*
X195379097Y-64844334D01*
X195333536Y-64833222D01*
X195355761Y-64813219D01*
X195379097Y-64783216D01*
X195404656Y-64699872D01*
X195395211Y-64629925D01*
X195366874Y-64568250D01*
X195319646Y-64514849D01*
X195258836Y-64473794D01*
X195189753Y-64449162D01*
X195112397Y-64440951D01*
X194916817Y-64440951D01*
X194878479Y-64442617D01*
X194850142Y-64452063D01*
X194827640Y-64481511D01*
X194820139Y-64538741D01*
X194830418Y-64600971D01*
X194861255Y-64629863D01*
X194917929Y-64636531D01*
X195113509Y-64636531D01*
X195184629Y-64662645D01*
X195210187Y-64732654D01*
X195183517Y-64803774D01*
X195113509Y-64830999D01*
X194916817Y-64830999D01*
X194878479Y-64832666D01*
X194850142Y-64843223D01*
X194827640Y-64871838D01*
X194820139Y-64928789D01*
X194580850Y-64928789D01*
X194580850Y-63918663D01*
X194812360Y-63918663D01*
X194844586Y-63986449D01*
X194852365Y-63997562D01*
X194881396Y-64030066D01*
X194926263Y-64076461D01*
X194971408Y-64123411D01*
X195001272Y-64157582D01*
X194915706Y-64157582D01*
X194877368Y-64159249D01*
X194847920Y-64169806D01*
X194826251Y-64198420D01*
X194819027Y-64255372D01*
X194826528Y-64311768D01*
X194849031Y-64340938D01*
X194878479Y-64350384D01*
X194916817Y-64352051D01*
X195582456Y-64352051D01*
X195620794Y-64350384D01*
X195650242Y-64340938D01*
X195672745Y-64311490D01*
X195680246Y-64254261D01*
X195661355Y-64178696D01*
X195612460Y-64158693D01*
X195581345Y-64157582D01*
X195229079Y-64157582D01*
X195285752Y-64097019D01*
X195342426Y-64036456D01*
X195351316Y-64023121D01*
X195381320Y-63956446D01*
X195336314Y-63892549D01*
X195265750Y-63856433D01*
X195205742Y-63897549D01*
X195112397Y-64007563D01*
X194990160Y-63859767D01*
X194954600Y-63824762D01*
X194931264Y-63817539D01*
X194859032Y-63851988D01*
X194812360Y-63918663D01*
X194580850Y-63918663D01*
X194580850Y-63724935D01*
X195200001Y-63312168D01*
X195819152Y-63724935D01*
X195819152Y-66053745D01*
X195200001Y-66466512D01*
G37*
G36*
X183200001Y-77587833D02*
G01*
X182580850Y-77175066D01*
X182580850Y-76984672D01*
X182819027Y-76984672D01*
X182829584Y-77046346D01*
X182861255Y-77075794D01*
X182917929Y-77082462D01*
X183535784Y-77082462D01*
X183574122Y-77080795D01*
X183603570Y-77070238D01*
X183626073Y-77040790D01*
X183633574Y-76983560D01*
X183623295Y-76921608D01*
X183592457Y-76891327D01*
X183534672Y-76885770D01*
X182983492Y-76885770D01*
X182983492Y-76583510D01*
X182975158Y-76530170D01*
X182949044Y-76507945D01*
X182901816Y-76502389D01*
X182854587Y-76507945D01*
X182830140Y-76526837D01*
X182819027Y-76584622D01*
X182819027Y-76984672D01*
X182580850Y-76984672D01*
X182580850Y-76333479D01*
X182819027Y-76333479D01*
X182826528Y-76389875D01*
X182849031Y-76419045D01*
X182877924Y-76428491D01*
X182916817Y-76430158D01*
X183306866Y-76430158D01*
X183345204Y-76428491D01*
X183374652Y-76419045D01*
X183396322Y-76389597D01*
X183403475Y-76332924D01*
X183483555Y-76332924D01*
X183490222Y-76389042D01*
X183513559Y-76418490D01*
X183543007Y-76428491D01*
X183581345Y-76430158D01*
X183619683Y-76428491D01*
X183648020Y-76419045D01*
X183670523Y-76389597D01*
X183678024Y-76332368D01*
X183670523Y-76276250D01*
X183648020Y-76247913D01*
X183618572Y-76237356D01*
X183580234Y-76235689D01*
X183541896Y-76237356D01*
X183513003Y-76247357D01*
X183490222Y-76276805D01*
X183483555Y-76332924D01*
X183403475Y-76332924D01*
X183403545Y-76332368D01*
X183384654Y-76256803D01*
X183336870Y-76236800D01*
X183304644Y-76235689D01*
X182915706Y-76235689D01*
X182877368Y-76237356D01*
X182847920Y-76247913D01*
X182826251Y-76276528D01*
X182819027Y-76333479D01*
X182580850Y-76333479D01*
X182580850Y-76050110D01*
X182820139Y-76050110D01*
X182827640Y-76106506D01*
X182850142Y-76135677D01*
X182879591Y-76145122D01*
X182917929Y-76146789D01*
X183311311Y-76146789D01*
X183348538Y-76145122D01*
X183376875Y-76134565D01*
X183397711Y-76105395D01*
X183404656Y-76048999D01*
X183398267Y-75994270D01*
X183379097Y-75965655D01*
X183333536Y-75954543D01*
X183355761Y-75934540D01*
X183379097Y-75904537D01*
X183404656Y-75821193D01*
X183395211Y-75751246D01*
X183366874Y-75689571D01*
X183319646Y-75636170D01*
X183258836Y-75595115D01*
X183189753Y-75570483D01*
X183112397Y-75562272D01*
X182916817Y-75562272D01*
X182878479Y-75563938D01*
X182850142Y-75573384D01*
X182827640Y-75602832D01*
X182820139Y-75660062D01*
X182830418Y-75722292D01*
X182861255Y-75751184D01*
X182917929Y-75757852D01*
X183113509Y-75757852D01*
X183184629Y-75783966D01*
X183210187Y-75853975D01*
X183183517Y-75925095D01*
X183113509Y-75952320D01*
X182916817Y-75952320D01*
X182878479Y-75953987D01*
X182850142Y-75964544D01*
X182827640Y-75993159D01*
X182820139Y-76050110D01*
X182580850Y-76050110D01*
X182580850Y-75039984D01*
X182812360Y-75039984D01*
X182844586Y-75107770D01*
X182852365Y-75118883D01*
X182881396Y-75151387D01*
X182926263Y-75197782D01*
X182971408Y-75244732D01*
X183001272Y-75278903D01*
X182915706Y-75278903D01*
X182877368Y-75280570D01*
X182847920Y-75291127D01*
X182826251Y-75319741D01*
X182819027Y-75376693D01*
X182826528Y-75433089D01*
X182849031Y-75462259D01*
X182878479Y-75471705D01*
X182916817Y-75473372D01*
X183582456Y-75473372D01*
X183620794Y-75471705D01*
X183650242Y-75462259D01*
X183672745Y-75432811D01*
X183680246Y-75375582D01*
X183661355Y-75300017D01*
X183612460Y-75280014D01*
X183581345Y-75278903D01*
X183229079Y-75278903D01*
X183285752Y-75218340D01*
X183342426Y-75157777D01*
X183351316Y-75144442D01*
X183381320Y-75077767D01*
X183336314Y-75013870D01*
X183265750Y-74977754D01*
X183205742Y-75018870D01*
X183112397Y-75128884D01*
X182990160Y-74981088D01*
X182954600Y-74946083D01*
X182931264Y-74938860D01*
X182859032Y-74973309D01*
X182812360Y-75039984D01*
X182580850Y-75039984D01*
X182580850Y-74846256D01*
X183200001Y-74433489D01*
X183819152Y-74846256D01*
X183819152Y-77175066D01*
X183200001Y-77587833D01*
G37*
G36*
X207200000Y-88527172D02*
G01*
X206580849Y-88114405D01*
X206580849Y-87924011D01*
X206819026Y-87924011D01*
X206829583Y-87985685D01*
X206861254Y-88015133D01*
X206917928Y-88021801D01*
X207535783Y-88021801D01*
X207574121Y-88020134D01*
X207603569Y-88009577D01*
X207626072Y-87980129D01*
X207633573Y-87922899D01*
X207623294Y-87860947D01*
X207592456Y-87830666D01*
X207534671Y-87825109D01*
X206983491Y-87825109D01*
X206983491Y-87522849D01*
X206975157Y-87469509D01*
X206949043Y-87447284D01*
X206901815Y-87441728D01*
X206854586Y-87447284D01*
X206830139Y-87466176D01*
X206819026Y-87523961D01*
X206819026Y-87924011D01*
X206580849Y-87924011D01*
X206580849Y-87272818D01*
X206819026Y-87272818D01*
X206826527Y-87329214D01*
X206849030Y-87358384D01*
X206877923Y-87367830D01*
X206916816Y-87369497D01*
X207306865Y-87369497D01*
X207345203Y-87367830D01*
X207374651Y-87358384D01*
X207396321Y-87328936D01*
X207403474Y-87272263D01*
X207483554Y-87272263D01*
X207490221Y-87328381D01*
X207513558Y-87357829D01*
X207543006Y-87367830D01*
X207581344Y-87369497D01*
X207619682Y-87367830D01*
X207648019Y-87358384D01*
X207670522Y-87328936D01*
X207678023Y-87271707D01*
X207670522Y-87215589D01*
X207648019Y-87187252D01*
X207618571Y-87176695D01*
X207580233Y-87175028D01*
X207541895Y-87176695D01*
X207513002Y-87186696D01*
X207490221Y-87216144D01*
X207483554Y-87272263D01*
X207403474Y-87272263D01*
X207403544Y-87271707D01*
X207384653Y-87196142D01*
X207336869Y-87176139D01*
X207304643Y-87175028D01*
X206915705Y-87175028D01*
X206877367Y-87176695D01*
X206847919Y-87187252D01*
X206826250Y-87215867D01*
X206819026Y-87272818D01*
X206580849Y-87272818D01*
X206580849Y-86989449D01*
X206820138Y-86989449D01*
X206827639Y-87045845D01*
X206850141Y-87075016D01*
X206879590Y-87084461D01*
X206917928Y-87086128D01*
X207311310Y-87086128D01*
X207348537Y-87084461D01*
X207376874Y-87073904D01*
X207397710Y-87044734D01*
X207404655Y-86988338D01*
X207398266Y-86933609D01*
X207379096Y-86904994D01*
X207333535Y-86893882D01*
X207355760Y-86873879D01*
X207379096Y-86843876D01*
X207404655Y-86760532D01*
X207395210Y-86690585D01*
X207366873Y-86628910D01*
X207319645Y-86575509D01*
X207258835Y-86534454D01*
X207189752Y-86509822D01*
X207112396Y-86501611D01*
X206916816Y-86501611D01*
X206878478Y-86503277D01*
X206850141Y-86512723D01*
X206827639Y-86542171D01*
X206820138Y-86599401D01*
X206830417Y-86661631D01*
X206861254Y-86690523D01*
X206917928Y-86697191D01*
X207113508Y-86697191D01*
X207184628Y-86723305D01*
X207210186Y-86793314D01*
X207183516Y-86864434D01*
X207113508Y-86891659D01*
X206916816Y-86891659D01*
X206878478Y-86893326D01*
X206850141Y-86903883D01*
X206827639Y-86932498D01*
X206820138Y-86989449D01*
X206580849Y-86989449D01*
X206580849Y-85979323D01*
X206812359Y-85979323D01*
X206844585Y-86047109D01*
X206852364Y-86058222D01*
X206881395Y-86090726D01*
X206926262Y-86137121D01*
X206971407Y-86184071D01*
X207001271Y-86218242D01*
X206915705Y-86218242D01*
X206877367Y-86219909D01*
X206847919Y-86230466D01*
X206826250Y-86259080D01*
X206819026Y-86316032D01*
X206826527Y-86372428D01*
X206849030Y-86401598D01*
X206878478Y-86411044D01*
X206916816Y-86412711D01*
X207582455Y-86412711D01*
X207620793Y-86411044D01*
X207650241Y-86401598D01*
X207672744Y-86372150D01*
X207680245Y-86314921D01*
X207661354Y-86239356D01*
X207612459Y-86219353D01*
X207581344Y-86218242D01*
X207229078Y-86218242D01*
X207285751Y-86157679D01*
X207342425Y-86097116D01*
X207351315Y-86083781D01*
X207381319Y-86017106D01*
X207336313Y-85953209D01*
X207265749Y-85917093D01*
X207205741Y-85958209D01*
X207112396Y-86068223D01*
X206990159Y-85920427D01*
X206954599Y-85885422D01*
X206931263Y-85878199D01*
X206859031Y-85912648D01*
X206812359Y-85979323D01*
X206580849Y-85979323D01*
X206580849Y-85785595D01*
X207200000Y-85372828D01*
X207819151Y-85785595D01*
X207819151Y-88114405D01*
X207200000Y-88527172D01*
G37*
G36*
X195200001Y-77587833D02*
G01*
X194580850Y-77175066D01*
X194580850Y-76984672D01*
X194819027Y-76984672D01*
X194829584Y-77046346D01*
X194861255Y-77075794D01*
X194917929Y-77082462D01*
X195535784Y-77082462D01*
X195574122Y-77080795D01*
X195603570Y-77070238D01*
X195626073Y-77040790D01*
X195633574Y-76983560D01*
X195623295Y-76921608D01*
X195592457Y-76891327D01*
X195534672Y-76885770D01*
X194983492Y-76885770D01*
X194983492Y-76583510D01*
X194975158Y-76530170D01*
X194949044Y-76507945D01*
X194901816Y-76502389D01*
X194854587Y-76507945D01*
X194830140Y-76526837D01*
X194819027Y-76584622D01*
X194819027Y-76984672D01*
X194580850Y-76984672D01*
X194580850Y-76333479D01*
X194819027Y-76333479D01*
X194826528Y-76389875D01*
X194849031Y-76419045D01*
X194877924Y-76428491D01*
X194916817Y-76430158D01*
X195306866Y-76430158D01*
X195345204Y-76428491D01*
X195374652Y-76419045D01*
X195396322Y-76389597D01*
X195403475Y-76332924D01*
X195483555Y-76332924D01*
X195490222Y-76389042D01*
X195513559Y-76418490D01*
X195543007Y-76428491D01*
X195581345Y-76430158D01*
X195619683Y-76428491D01*
X195648020Y-76419045D01*
X195670523Y-76389597D01*
X195678024Y-76332368D01*
X195670523Y-76276250D01*
X195648020Y-76247913D01*
X195618572Y-76237356D01*
X195580234Y-76235689D01*
X195541896Y-76237356D01*
X195513003Y-76247357D01*
X195490222Y-76276805D01*
X195483555Y-76332924D01*
X195403475Y-76332924D01*
X195403545Y-76332368D01*
X195384654Y-76256803D01*
X195336870Y-76236800D01*
X195304644Y-76235689D01*
X194915706Y-76235689D01*
X194877368Y-76237356D01*
X194847920Y-76247913D01*
X194826251Y-76276528D01*
X194819027Y-76333479D01*
X194580850Y-76333479D01*
X194580850Y-76050110D01*
X194820139Y-76050110D01*
X194827640Y-76106506D01*
X194850142Y-76135677D01*
X194879591Y-76145122D01*
X194917929Y-76146789D01*
X195311311Y-76146789D01*
X195348538Y-76145122D01*
X195376875Y-76134565D01*
X195397711Y-76105395D01*
X195404656Y-76048999D01*
X195398267Y-75994270D01*
X195379097Y-75965655D01*
X195333536Y-75954543D01*
X195355761Y-75934540D01*
X195379097Y-75904537D01*
X195404656Y-75821193D01*
X195395211Y-75751246D01*
X195366874Y-75689571D01*
X195319646Y-75636170D01*
X195258836Y-75595115D01*
X195189753Y-75570483D01*
X195112397Y-75562272D01*
X194916817Y-75562272D01*
X194878479Y-75563938D01*
X194850142Y-75573384D01*
X194827640Y-75602832D01*
X194820139Y-75660062D01*
X194830418Y-75722292D01*
X194861255Y-75751184D01*
X194917929Y-75757852D01*
X195113509Y-75757852D01*
X195184629Y-75783966D01*
X195210187Y-75853975D01*
X195183517Y-75925095D01*
X195113509Y-75952320D01*
X194916817Y-75952320D01*
X194878479Y-75953987D01*
X194850142Y-75964544D01*
X194827640Y-75993159D01*
X194820139Y-76050110D01*
X194580850Y-76050110D01*
X194580850Y-75039984D01*
X194812360Y-75039984D01*
X194844586Y-75107770D01*
X194852365Y-75118883D01*
X194881396Y-75151387D01*
X194926263Y-75197782D01*
X194971408Y-75244732D01*
X195001272Y-75278903D01*
X194915706Y-75278903D01*
X194877368Y-75280570D01*
X194847920Y-75291127D01*
X194826251Y-75319741D01*
X194819027Y-75376693D01*
X194826528Y-75433089D01*
X194849031Y-75462259D01*
X194878479Y-75471705D01*
X194916817Y-75473372D01*
X195582456Y-75473372D01*
X195620794Y-75471705D01*
X195650242Y-75462259D01*
X195672745Y-75432811D01*
X195680246Y-75375582D01*
X195661355Y-75300017D01*
X195612460Y-75280014D01*
X195581345Y-75278903D01*
X195229079Y-75278903D01*
X195285752Y-75218340D01*
X195342426Y-75157777D01*
X195351316Y-75144442D01*
X195381320Y-75077767D01*
X195336314Y-75013870D01*
X195265750Y-74977754D01*
X195205742Y-75018870D01*
X195112397Y-75128884D01*
X194990160Y-74981088D01*
X194954600Y-74946083D01*
X194931264Y-74938860D01*
X194859032Y-74973309D01*
X194812360Y-75039984D01*
X194580850Y-75039984D01*
X194580850Y-74846256D01*
X195200001Y-74433489D01*
X195819152Y-74846256D01*
X195819152Y-77175066D01*
X195200001Y-77587833D01*
G37*
G36*
X171200001Y-77587833D02*
G01*
X170580850Y-77175066D01*
X170580850Y-76984672D01*
X170819027Y-76984672D01*
X170829584Y-77046346D01*
X170861255Y-77075794D01*
X170917929Y-77082462D01*
X171535784Y-77082462D01*
X171574122Y-77080795D01*
X171603570Y-77070238D01*
X171626073Y-77040790D01*
X171633574Y-76983560D01*
X171623295Y-76921608D01*
X171592457Y-76891327D01*
X171534672Y-76885770D01*
X170983492Y-76885770D01*
X170983492Y-76583510D01*
X170975158Y-76530170D01*
X170949044Y-76507945D01*
X170901816Y-76502389D01*
X170854587Y-76507945D01*
X170830140Y-76526837D01*
X170819027Y-76584622D01*
X170819027Y-76984672D01*
X170580850Y-76984672D01*
X170580850Y-76333479D01*
X170819027Y-76333479D01*
X170826528Y-76389875D01*
X170849031Y-76419045D01*
X170877924Y-76428491D01*
X170916817Y-76430158D01*
X171306866Y-76430158D01*
X171345204Y-76428491D01*
X171374652Y-76419045D01*
X171396322Y-76389597D01*
X171403475Y-76332924D01*
X171483555Y-76332924D01*
X171490222Y-76389042D01*
X171513559Y-76418490D01*
X171543007Y-76428491D01*
X171581345Y-76430158D01*
X171619683Y-76428491D01*
X171648020Y-76419045D01*
X171670523Y-76389597D01*
X171678024Y-76332368D01*
X171670523Y-76276250D01*
X171648020Y-76247913D01*
X171618572Y-76237356D01*
X171580234Y-76235689D01*
X171541896Y-76237356D01*
X171513003Y-76247357D01*
X171490222Y-76276805D01*
X171483555Y-76332924D01*
X171403475Y-76332924D01*
X171403545Y-76332368D01*
X171384654Y-76256803D01*
X171336870Y-76236800D01*
X171304644Y-76235689D01*
X170915706Y-76235689D01*
X170877368Y-76237356D01*
X170847920Y-76247913D01*
X170826251Y-76276528D01*
X170819027Y-76333479D01*
X170580850Y-76333479D01*
X170580850Y-76050110D01*
X170820139Y-76050110D01*
X170827640Y-76106506D01*
X170850142Y-76135677D01*
X170879591Y-76145122D01*
X170917929Y-76146789D01*
X171311311Y-76146789D01*
X171348538Y-76145122D01*
X171376875Y-76134565D01*
X171397711Y-76105395D01*
X171404656Y-76048999D01*
X171398267Y-75994270D01*
X171379097Y-75965655D01*
X171333536Y-75954543D01*
X171355761Y-75934540D01*
X171379097Y-75904537D01*
X171404656Y-75821193D01*
X171395211Y-75751246D01*
X171366874Y-75689571D01*
X171319646Y-75636170D01*
X171258836Y-75595115D01*
X171189753Y-75570483D01*
X171112397Y-75562272D01*
X170916817Y-75562272D01*
X170878479Y-75563938D01*
X170850142Y-75573384D01*
X170827640Y-75602832D01*
X170820139Y-75660062D01*
X170830418Y-75722292D01*
X170861255Y-75751184D01*
X170917929Y-75757852D01*
X171113509Y-75757852D01*
X171184629Y-75783966D01*
X171210187Y-75853975D01*
X171183517Y-75925095D01*
X171113509Y-75952320D01*
X170916817Y-75952320D01*
X170878479Y-75953987D01*
X170850142Y-75964544D01*
X170827640Y-75993159D01*
X170820139Y-76050110D01*
X170580850Y-76050110D01*
X170580850Y-75039984D01*
X170812360Y-75039984D01*
X170844586Y-75107770D01*
X170852365Y-75118883D01*
X170881396Y-75151387D01*
X170926263Y-75197782D01*
X170971408Y-75244732D01*
X171001272Y-75278903D01*
X170915706Y-75278903D01*
X170877368Y-75280570D01*
X170847920Y-75291127D01*
X170826251Y-75319741D01*
X170819027Y-75376693D01*
X170826528Y-75433089D01*
X170849031Y-75462259D01*
X170878479Y-75471705D01*
X170916817Y-75473372D01*
X171582456Y-75473372D01*
X171620794Y-75471705D01*
X171650242Y-75462259D01*
X171672745Y-75432811D01*
X171680246Y-75375582D01*
X171661355Y-75300017D01*
X171612460Y-75280014D01*
X171581345Y-75278903D01*
X171229079Y-75278903D01*
X171285752Y-75218340D01*
X171342426Y-75157777D01*
X171351316Y-75144442D01*
X171381320Y-75077767D01*
X171336314Y-75013870D01*
X171265750Y-74977754D01*
X171205742Y-75018870D01*
X171112397Y-75128884D01*
X170990160Y-74981088D01*
X170954600Y-74946083D01*
X170931264Y-74938860D01*
X170859032Y-74973309D01*
X170812360Y-75039984D01*
X170580850Y-75039984D01*
X170580850Y-74846256D01*
X171200001Y-74433489D01*
X171819152Y-74846256D01*
X171819152Y-77175066D01*
X171200001Y-77587833D01*
G37*
G36*
X158760661Y-77587833D02*
G01*
X158141510Y-77175066D01*
X158141510Y-76984672D01*
X158379687Y-76984672D01*
X158390244Y-77046346D01*
X158421915Y-77075794D01*
X158478589Y-77082462D01*
X159096444Y-77082462D01*
X159134782Y-77080795D01*
X159164230Y-77070238D01*
X159186733Y-77040790D01*
X159194234Y-76983560D01*
X159183955Y-76921608D01*
X159153117Y-76891327D01*
X159095332Y-76885770D01*
X158544152Y-76885770D01*
X158544152Y-76583510D01*
X158535818Y-76530170D01*
X158509704Y-76507945D01*
X158462476Y-76502389D01*
X158415247Y-76507945D01*
X158390800Y-76526837D01*
X158379687Y-76584622D01*
X158379687Y-76984672D01*
X158141510Y-76984672D01*
X158141510Y-76333479D01*
X158379687Y-76333479D01*
X158387188Y-76389875D01*
X158409691Y-76419045D01*
X158438584Y-76428491D01*
X158477477Y-76430158D01*
X158867526Y-76430158D01*
X158905864Y-76428491D01*
X158935312Y-76419045D01*
X158956982Y-76389597D01*
X158964135Y-76332924D01*
X159044215Y-76332924D01*
X159050882Y-76389042D01*
X159074219Y-76418490D01*
X159103667Y-76428491D01*
X159142005Y-76430158D01*
X159180343Y-76428491D01*
X159208680Y-76419045D01*
X159231183Y-76389597D01*
X159238684Y-76332368D01*
X159231183Y-76276250D01*
X159208680Y-76247913D01*
X159179232Y-76237356D01*
X159140894Y-76235689D01*
X159102556Y-76237356D01*
X159073663Y-76247357D01*
X159050882Y-76276805D01*
X159044215Y-76332924D01*
X158964135Y-76332924D01*
X158964205Y-76332368D01*
X158945314Y-76256803D01*
X158897530Y-76236800D01*
X158865304Y-76235689D01*
X158476366Y-76235689D01*
X158438028Y-76237356D01*
X158408580Y-76247913D01*
X158386911Y-76276528D01*
X158379687Y-76333479D01*
X158141510Y-76333479D01*
X158141510Y-76050110D01*
X158380799Y-76050110D01*
X158388300Y-76106506D01*
X158410802Y-76135677D01*
X158440251Y-76145122D01*
X158478589Y-76146789D01*
X158871971Y-76146789D01*
X158909198Y-76145122D01*
X158937535Y-76134565D01*
X158958371Y-76105395D01*
X158965316Y-76048999D01*
X158958927Y-75994270D01*
X158939757Y-75965655D01*
X158894196Y-75954543D01*
X158916421Y-75934540D01*
X158939757Y-75904537D01*
X158965316Y-75821193D01*
X158955871Y-75751246D01*
X158927534Y-75689571D01*
X158880306Y-75636170D01*
X158819496Y-75595115D01*
X158750413Y-75570483D01*
X158673057Y-75562272D01*
X158477477Y-75562272D01*
X158439139Y-75563938D01*
X158410802Y-75573384D01*
X158388300Y-75602832D01*
X158380799Y-75660062D01*
X158391078Y-75722292D01*
X158421915Y-75751184D01*
X158478589Y-75757852D01*
X158674169Y-75757852D01*
X158745289Y-75783966D01*
X158770847Y-75853975D01*
X158744177Y-75925095D01*
X158674169Y-75952320D01*
X158477477Y-75952320D01*
X158439139Y-75953987D01*
X158410802Y-75964544D01*
X158388300Y-75993159D01*
X158380799Y-76050110D01*
X158141510Y-76050110D01*
X158141510Y-75039984D01*
X158373020Y-75039984D01*
X158405246Y-75107770D01*
X158413025Y-75118883D01*
X158442056Y-75151387D01*
X158486923Y-75197782D01*
X158532068Y-75244732D01*
X158561932Y-75278903D01*
X158476366Y-75278903D01*
X158438028Y-75280570D01*
X158408580Y-75291127D01*
X158386911Y-75319741D01*
X158379687Y-75376693D01*
X158387188Y-75433089D01*
X158409691Y-75462259D01*
X158439139Y-75471705D01*
X158477477Y-75473372D01*
X159143116Y-75473372D01*
X159181454Y-75471705D01*
X159210902Y-75462259D01*
X159233405Y-75432811D01*
X159240906Y-75375582D01*
X159222015Y-75300017D01*
X159173120Y-75280014D01*
X159142005Y-75278903D01*
X158789739Y-75278903D01*
X158846412Y-75218340D01*
X158903086Y-75157777D01*
X158911976Y-75144442D01*
X158941980Y-75077767D01*
X158896974Y-75013870D01*
X158826410Y-74977754D01*
X158766402Y-75018870D01*
X158673057Y-75128884D01*
X158550820Y-74981088D01*
X158515260Y-74946083D01*
X158491924Y-74938860D01*
X158419692Y-74973309D01*
X158373020Y-75039984D01*
X158141510Y-75039984D01*
X158141510Y-74846256D01*
X158760661Y-74433489D01*
X159379812Y-74846256D01*
X159379812Y-77175066D01*
X158760661Y-77587833D01*
G37*
G36*
X207200001Y-77587833D02*
G01*
X206580850Y-77175066D01*
X206580850Y-76984672D01*
X206819027Y-76984672D01*
X206829584Y-77046346D01*
X206861255Y-77075794D01*
X206917929Y-77082462D01*
X207535784Y-77082462D01*
X207574122Y-77080795D01*
X207603570Y-77070238D01*
X207626073Y-77040790D01*
X207633574Y-76983560D01*
X207623295Y-76921608D01*
X207592457Y-76891327D01*
X207534672Y-76885770D01*
X206983492Y-76885770D01*
X206983492Y-76583510D01*
X206975158Y-76530170D01*
X206949044Y-76507945D01*
X206901816Y-76502389D01*
X206854587Y-76507945D01*
X206830140Y-76526837D01*
X206819027Y-76584622D01*
X206819027Y-76984672D01*
X206580850Y-76984672D01*
X206580850Y-76333479D01*
X206819027Y-76333479D01*
X206826528Y-76389875D01*
X206849031Y-76419045D01*
X206877924Y-76428491D01*
X206916817Y-76430158D01*
X207306866Y-76430158D01*
X207345204Y-76428491D01*
X207374652Y-76419045D01*
X207396322Y-76389597D01*
X207403475Y-76332924D01*
X207483555Y-76332924D01*
X207490222Y-76389042D01*
X207513559Y-76418490D01*
X207543007Y-76428491D01*
X207581345Y-76430158D01*
X207619683Y-76428491D01*
X207648020Y-76419045D01*
X207670523Y-76389597D01*
X207678024Y-76332368D01*
X207670523Y-76276250D01*
X207648020Y-76247913D01*
X207618572Y-76237356D01*
X207580234Y-76235689D01*
X207541896Y-76237356D01*
X207513003Y-76247357D01*
X207490222Y-76276805D01*
X207483555Y-76332924D01*
X207403475Y-76332924D01*
X207403545Y-76332368D01*
X207384654Y-76256803D01*
X207336870Y-76236800D01*
X207304644Y-76235689D01*
X206915706Y-76235689D01*
X206877368Y-76237356D01*
X206847920Y-76247913D01*
X206826251Y-76276528D01*
X206819027Y-76333479D01*
X206580850Y-76333479D01*
X206580850Y-76050110D01*
X206820139Y-76050110D01*
X206827640Y-76106506D01*
X206850142Y-76135677D01*
X206879591Y-76145122D01*
X206917929Y-76146789D01*
X207311311Y-76146789D01*
X207348538Y-76145122D01*
X207376875Y-76134565D01*
X207397711Y-76105395D01*
X207404656Y-76048999D01*
X207398267Y-75994270D01*
X207379097Y-75965655D01*
X207333536Y-75954543D01*
X207355761Y-75934540D01*
X207379097Y-75904537D01*
X207404656Y-75821193D01*
X207395211Y-75751246D01*
X207366874Y-75689571D01*
X207319646Y-75636170D01*
X207258836Y-75595115D01*
X207189753Y-75570483D01*
X207112397Y-75562272D01*
X206916817Y-75562272D01*
X206878479Y-75563938D01*
X206850142Y-75573384D01*
X206827640Y-75602832D01*
X206820139Y-75660062D01*
X206830418Y-75722292D01*
X206861255Y-75751184D01*
X206917929Y-75757852D01*
X207113509Y-75757852D01*
X207184629Y-75783966D01*
X207210187Y-75853975D01*
X207183517Y-75925095D01*
X207113509Y-75952320D01*
X206916817Y-75952320D01*
X206878479Y-75953987D01*
X206850142Y-75964544D01*
X206827640Y-75993159D01*
X206820139Y-76050110D01*
X206580850Y-76050110D01*
X206580850Y-75039984D01*
X206812360Y-75039984D01*
X206844586Y-75107770D01*
X206852365Y-75118883D01*
X206881396Y-75151387D01*
X206926263Y-75197782D01*
X206971408Y-75244732D01*
X207001272Y-75278903D01*
X206915706Y-75278903D01*
X206877368Y-75280570D01*
X206847920Y-75291127D01*
X206826251Y-75319741D01*
X206819027Y-75376693D01*
X206826528Y-75433089D01*
X206849031Y-75462259D01*
X206878479Y-75471705D01*
X206916817Y-75473372D01*
X207582456Y-75473372D01*
X207620794Y-75471705D01*
X207650242Y-75462259D01*
X207672745Y-75432811D01*
X207680246Y-75375582D01*
X207661355Y-75300017D01*
X207612460Y-75280014D01*
X207581345Y-75278903D01*
X207229079Y-75278903D01*
X207285752Y-75218340D01*
X207342426Y-75157777D01*
X207351316Y-75144442D01*
X207381320Y-75077767D01*
X207336314Y-75013870D01*
X207265750Y-74977754D01*
X207205742Y-75018870D01*
X207112397Y-75128884D01*
X206990160Y-74981088D01*
X206954600Y-74946083D01*
X206931264Y-74938860D01*
X206859032Y-74973309D01*
X206812360Y-75039984D01*
X206580850Y-75039984D01*
X206580850Y-74846256D01*
X207200001Y-74433489D01*
X207819152Y-74846256D01*
X207819152Y-77175066D01*
X207200001Y-77587833D01*
G37*
G36*
X158760660Y-88527172D02*
G01*
X158141509Y-88114405D01*
X158141509Y-87924011D01*
X158379686Y-87924011D01*
X158390243Y-87985685D01*
X158421914Y-88015133D01*
X158478588Y-88021801D01*
X159096443Y-88021801D01*
X159134781Y-88020134D01*
X159164229Y-88009577D01*
X159186732Y-87980129D01*
X159194233Y-87922899D01*
X159183954Y-87860947D01*
X159153116Y-87830666D01*
X159095331Y-87825109D01*
X158544151Y-87825109D01*
X158544151Y-87522849D01*
X158535817Y-87469509D01*
X158509703Y-87447284D01*
X158462475Y-87441728D01*
X158415246Y-87447284D01*
X158390799Y-87466176D01*
X158379686Y-87523961D01*
X158379686Y-87924011D01*
X158141509Y-87924011D01*
X158141509Y-87272818D01*
X158379686Y-87272818D01*
X158387187Y-87329214D01*
X158409690Y-87358384D01*
X158438583Y-87367830D01*
X158477476Y-87369497D01*
X158867525Y-87369497D01*
X158905863Y-87367830D01*
X158935311Y-87358384D01*
X158956981Y-87328936D01*
X158964134Y-87272263D01*
X159044214Y-87272263D01*
X159050881Y-87328381D01*
X159074218Y-87357829D01*
X159103666Y-87367830D01*
X159142004Y-87369497D01*
X159180342Y-87367830D01*
X159208679Y-87358384D01*
X159231182Y-87328936D01*
X159238683Y-87271707D01*
X159231182Y-87215589D01*
X159208679Y-87187252D01*
X159179231Y-87176695D01*
X159140893Y-87175028D01*
X159102555Y-87176695D01*
X159073662Y-87186696D01*
X159050881Y-87216144D01*
X159044214Y-87272263D01*
X158964134Y-87272263D01*
X158964204Y-87271707D01*
X158945313Y-87196142D01*
X158897529Y-87176139D01*
X158865303Y-87175028D01*
X158476365Y-87175028D01*
X158438027Y-87176695D01*
X158408579Y-87187252D01*
X158386910Y-87215867D01*
X158379686Y-87272818D01*
X158141509Y-87272818D01*
X158141509Y-86989449D01*
X158380798Y-86989449D01*
X158388299Y-87045845D01*
X158410801Y-87075016D01*
X158440250Y-87084461D01*
X158478588Y-87086128D01*
X158871970Y-87086128D01*
X158909197Y-87084461D01*
X158937534Y-87073904D01*
X158958370Y-87044734D01*
X158965315Y-86988338D01*
X158958926Y-86933609D01*
X158939756Y-86904994D01*
X158894195Y-86893882D01*
X158916420Y-86873879D01*
X158939756Y-86843876D01*
X158965315Y-86760532D01*
X158955870Y-86690585D01*
X158927533Y-86628910D01*
X158880305Y-86575509D01*
X158819495Y-86534454D01*
X158750412Y-86509822D01*
X158673056Y-86501611D01*
X158477476Y-86501611D01*
X158439138Y-86503277D01*
X158410801Y-86512723D01*
X158388299Y-86542171D01*
X158380798Y-86599401D01*
X158391077Y-86661631D01*
X158421914Y-86690523D01*
X158478588Y-86697191D01*
X158674168Y-86697191D01*
X158745288Y-86723305D01*
X158770846Y-86793314D01*
X158744176Y-86864434D01*
X158674168Y-86891659D01*
X158477476Y-86891659D01*
X158439138Y-86893326D01*
X158410801Y-86903883D01*
X158388299Y-86932498D01*
X158380798Y-86989449D01*
X158141509Y-86989449D01*
X158141509Y-85979323D01*
X158373019Y-85979323D01*
X158405245Y-86047109D01*
X158413024Y-86058222D01*
X158442055Y-86090726D01*
X158486922Y-86137121D01*
X158532067Y-86184071D01*
X158561931Y-86218242D01*
X158476365Y-86218242D01*
X158438027Y-86219909D01*
X158408579Y-86230466D01*
X158386910Y-86259080D01*
X158379686Y-86316032D01*
X158387187Y-86372428D01*
X158409690Y-86401598D01*
X158439138Y-86411044D01*
X158477476Y-86412711D01*
X159143115Y-86412711D01*
X159181453Y-86411044D01*
X159210901Y-86401598D01*
X159233404Y-86372150D01*
X159240905Y-86314921D01*
X159222014Y-86239356D01*
X159173119Y-86219353D01*
X159142004Y-86218242D01*
X158789738Y-86218242D01*
X158846411Y-86157679D01*
X158903085Y-86097116D01*
X158911975Y-86083781D01*
X158941979Y-86017106D01*
X158896973Y-85953209D01*
X158826409Y-85917093D01*
X158766401Y-85958209D01*
X158673056Y-86068223D01*
X158550819Y-85920427D01*
X158515259Y-85885422D01*
X158491923Y-85878199D01*
X158419691Y-85912648D01*
X158373019Y-85979323D01*
X158141509Y-85979323D01*
X158141509Y-85785595D01*
X158760660Y-85372828D01*
X159379811Y-85785595D01*
X159379811Y-88114405D01*
X158760660Y-88527172D01*
G37*
G36*
X183200000Y-88527172D02*
G01*
X182580849Y-88114405D01*
X182580849Y-87924011D01*
X182819026Y-87924011D01*
X182829583Y-87985685D01*
X182861254Y-88015133D01*
X182917928Y-88021801D01*
X183535783Y-88021801D01*
X183574121Y-88020134D01*
X183603569Y-88009577D01*
X183626072Y-87980129D01*
X183633573Y-87922899D01*
X183623294Y-87860947D01*
X183592456Y-87830666D01*
X183534671Y-87825109D01*
X182983491Y-87825109D01*
X182983491Y-87522849D01*
X182975157Y-87469509D01*
X182949043Y-87447284D01*
X182901815Y-87441728D01*
X182854586Y-87447284D01*
X182830139Y-87466176D01*
X182819026Y-87523961D01*
X182819026Y-87924011D01*
X182580849Y-87924011D01*
X182580849Y-87272818D01*
X182819026Y-87272818D01*
X182826527Y-87329214D01*
X182849030Y-87358384D01*
X182877923Y-87367830D01*
X182916816Y-87369497D01*
X183306865Y-87369497D01*
X183345203Y-87367830D01*
X183374651Y-87358384D01*
X183396321Y-87328936D01*
X183403474Y-87272263D01*
X183483554Y-87272263D01*
X183490221Y-87328381D01*
X183513558Y-87357829D01*
X183543006Y-87367830D01*
X183581344Y-87369497D01*
X183619682Y-87367830D01*
X183648019Y-87358384D01*
X183670522Y-87328936D01*
X183678023Y-87271707D01*
X183670522Y-87215589D01*
X183648019Y-87187252D01*
X183618571Y-87176695D01*
X183580233Y-87175028D01*
X183541895Y-87176695D01*
X183513002Y-87186696D01*
X183490221Y-87216144D01*
X183483554Y-87272263D01*
X183403474Y-87272263D01*
X183403544Y-87271707D01*
X183384653Y-87196142D01*
X183336869Y-87176139D01*
X183304643Y-87175028D01*
X182915705Y-87175028D01*
X182877367Y-87176695D01*
X182847919Y-87187252D01*
X182826250Y-87215867D01*
X182819026Y-87272818D01*
X182580849Y-87272818D01*
X182580849Y-86989449D01*
X182820138Y-86989449D01*
X182827639Y-87045845D01*
X182850141Y-87075016D01*
X182879590Y-87084461D01*
X182917928Y-87086128D01*
X183311310Y-87086128D01*
X183348537Y-87084461D01*
X183376874Y-87073904D01*
X183397710Y-87044734D01*
X183404655Y-86988338D01*
X183398266Y-86933609D01*
X183379096Y-86904994D01*
X183333535Y-86893882D01*
X183355760Y-86873879D01*
X183379096Y-86843876D01*
X183404655Y-86760532D01*
X183395210Y-86690585D01*
X183366873Y-86628910D01*
X183319645Y-86575509D01*
X183258835Y-86534454D01*
X183189752Y-86509822D01*
X183112396Y-86501611D01*
X182916816Y-86501611D01*
X182878478Y-86503277D01*
X182850141Y-86512723D01*
X182827639Y-86542171D01*
X182820138Y-86599401D01*
X182830417Y-86661631D01*
X182861254Y-86690523D01*
X182917928Y-86697191D01*
X183113508Y-86697191D01*
X183184628Y-86723305D01*
X183210186Y-86793314D01*
X183183516Y-86864434D01*
X183113508Y-86891659D01*
X182916816Y-86891659D01*
X182878478Y-86893326D01*
X182850141Y-86903883D01*
X182827639Y-86932498D01*
X182820138Y-86989449D01*
X182580849Y-86989449D01*
X182580849Y-85979323D01*
X182812359Y-85979323D01*
X182844585Y-86047109D01*
X182852364Y-86058222D01*
X182881395Y-86090726D01*
X182926262Y-86137121D01*
X182971407Y-86184071D01*
X183001271Y-86218242D01*
X182915705Y-86218242D01*
X182877367Y-86219909D01*
X182847919Y-86230466D01*
X182826250Y-86259080D01*
X182819026Y-86316032D01*
X182826527Y-86372428D01*
X182849030Y-86401598D01*
X182878478Y-86411044D01*
X182916816Y-86412711D01*
X183582455Y-86412711D01*
X183620793Y-86411044D01*
X183650241Y-86401598D01*
X183672744Y-86372150D01*
X183680245Y-86314921D01*
X183661354Y-86239356D01*
X183612459Y-86219353D01*
X183581344Y-86218242D01*
X183229078Y-86218242D01*
X183285751Y-86157679D01*
X183342425Y-86097116D01*
X183351315Y-86083781D01*
X183381319Y-86017106D01*
X183336313Y-85953209D01*
X183265749Y-85917093D01*
X183205741Y-85958209D01*
X183112396Y-86068223D01*
X182990159Y-85920427D01*
X182954599Y-85885422D01*
X182931263Y-85878199D01*
X182859031Y-85912648D01*
X182812359Y-85979323D01*
X182580849Y-85979323D01*
X182580849Y-85785595D01*
X183200000Y-85372828D01*
X183819151Y-85785595D01*
X183819151Y-88114405D01*
X183200000Y-88527172D01*
G37*
G36*
X171200000Y-88527172D02*
G01*
X170580849Y-88114405D01*
X170580849Y-87924011D01*
X170819026Y-87924011D01*
X170829583Y-87985685D01*
X170861254Y-88015133D01*
X170917928Y-88021801D01*
X171535783Y-88021801D01*
X171574121Y-88020134D01*
X171603569Y-88009577D01*
X171626072Y-87980129D01*
X171633573Y-87922899D01*
X171623294Y-87860947D01*
X171592456Y-87830666D01*
X171534671Y-87825109D01*
X170983491Y-87825109D01*
X170983491Y-87522849D01*
X170975157Y-87469509D01*
X170949043Y-87447284D01*
X170901815Y-87441728D01*
X170854586Y-87447284D01*
X170830139Y-87466176D01*
X170819026Y-87523961D01*
X170819026Y-87924011D01*
X170580849Y-87924011D01*
X170580849Y-87272818D01*
X170819026Y-87272818D01*
X170826527Y-87329214D01*
X170849030Y-87358384D01*
X170877923Y-87367830D01*
X170916816Y-87369497D01*
X171306865Y-87369497D01*
X171345203Y-87367830D01*
X171374651Y-87358384D01*
X171396321Y-87328936D01*
X171403474Y-87272263D01*
X171483554Y-87272263D01*
X171490221Y-87328381D01*
X171513558Y-87357829D01*
X171543006Y-87367830D01*
X171581344Y-87369497D01*
X171619682Y-87367830D01*
X171648019Y-87358384D01*
X171670522Y-87328936D01*
X171678023Y-87271707D01*
X171670522Y-87215589D01*
X171648019Y-87187252D01*
X171618571Y-87176695D01*
X171580233Y-87175028D01*
X171541895Y-87176695D01*
X171513002Y-87186696D01*
X171490221Y-87216144D01*
X171483554Y-87272263D01*
X171403474Y-87272263D01*
X171403544Y-87271707D01*
X171384653Y-87196142D01*
X171336869Y-87176139D01*
X171304643Y-87175028D01*
X170915705Y-87175028D01*
X170877367Y-87176695D01*
X170847919Y-87187252D01*
X170826250Y-87215867D01*
X170819026Y-87272818D01*
X170580849Y-87272818D01*
X170580849Y-86989449D01*
X170820138Y-86989449D01*
X170827639Y-87045845D01*
X170850141Y-87075016D01*
X170879590Y-87084461D01*
X170917928Y-87086128D01*
X171311310Y-87086128D01*
X171348537Y-87084461D01*
X171376874Y-87073904D01*
X171397710Y-87044734D01*
X171404655Y-86988338D01*
X171398266Y-86933609D01*
X171379096Y-86904994D01*
X171333535Y-86893882D01*
X171355760Y-86873879D01*
X171379096Y-86843876D01*
X171404655Y-86760532D01*
X171395210Y-86690585D01*
X171366873Y-86628910D01*
X171319645Y-86575509D01*
X171258835Y-86534454D01*
X171189752Y-86509822D01*
X171112396Y-86501611D01*
X170916816Y-86501611D01*
X170878478Y-86503277D01*
X170850141Y-86512723D01*
X170827639Y-86542171D01*
X170820138Y-86599401D01*
X170830417Y-86661631D01*
X170861254Y-86690523D01*
X170917928Y-86697191D01*
X171113508Y-86697191D01*
X171184628Y-86723305D01*
X171210186Y-86793314D01*
X171183516Y-86864434D01*
X171113508Y-86891659D01*
X170916816Y-86891659D01*
X170878478Y-86893326D01*
X170850141Y-86903883D01*
X170827639Y-86932498D01*
X170820138Y-86989449D01*
X170580849Y-86989449D01*
X170580849Y-85979323D01*
X170812359Y-85979323D01*
X170844585Y-86047109D01*
X170852364Y-86058222D01*
X170881395Y-86090726D01*
X170926262Y-86137121D01*
X170971407Y-86184071D01*
X171001271Y-86218242D01*
X170915705Y-86218242D01*
X170877367Y-86219909D01*
X170847919Y-86230466D01*
X170826250Y-86259080D01*
X170819026Y-86316032D01*
X170826527Y-86372428D01*
X170849030Y-86401598D01*
X170878478Y-86411044D01*
X170916816Y-86412711D01*
X171582455Y-86412711D01*
X171620793Y-86411044D01*
X171650241Y-86401598D01*
X171672744Y-86372150D01*
X171680245Y-86314921D01*
X171661354Y-86239356D01*
X171612459Y-86219353D01*
X171581344Y-86218242D01*
X171229078Y-86218242D01*
X171285751Y-86157679D01*
X171342425Y-86097116D01*
X171351315Y-86083781D01*
X171381319Y-86017106D01*
X171336313Y-85953209D01*
X171265749Y-85917093D01*
X171205741Y-85958209D01*
X171112396Y-86068223D01*
X170990159Y-85920427D01*
X170954599Y-85885422D01*
X170931263Y-85878199D01*
X170859031Y-85912648D01*
X170812359Y-85979323D01*
X170580849Y-85979323D01*
X170580849Y-85785595D01*
X171200000Y-85372828D01*
X171819151Y-85785595D01*
X171819151Y-88114405D01*
X171200000Y-88527172D01*
G37*
G36*
X195200000Y-88527172D02*
G01*
X194580849Y-88114405D01*
X194580849Y-87924011D01*
X194819026Y-87924011D01*
X194829583Y-87985685D01*
X194861254Y-88015133D01*
X194917928Y-88021801D01*
X195535783Y-88021801D01*
X195574121Y-88020134D01*
X195603569Y-88009577D01*
X195626072Y-87980129D01*
X195633573Y-87922899D01*
X195623294Y-87860947D01*
X195592456Y-87830666D01*
X195534671Y-87825109D01*
X194983491Y-87825109D01*
X194983491Y-87522849D01*
X194975157Y-87469509D01*
X194949043Y-87447284D01*
X194901815Y-87441728D01*
X194854586Y-87447284D01*
X194830139Y-87466176D01*
X194819026Y-87523961D01*
X194819026Y-87924011D01*
X194580849Y-87924011D01*
X194580849Y-87272818D01*
X194819026Y-87272818D01*
X194826527Y-87329214D01*
X194849030Y-87358384D01*
X194877923Y-87367830D01*
X194916816Y-87369497D01*
X195306865Y-87369497D01*
X195345203Y-87367830D01*
X195374651Y-87358384D01*
X195396321Y-87328936D01*
X195403474Y-87272263D01*
X195483554Y-87272263D01*
X195490221Y-87328381D01*
X195513558Y-87357829D01*
X195543006Y-87367830D01*
X195581344Y-87369497D01*
X195619682Y-87367830D01*
X195648019Y-87358384D01*
X195670522Y-87328936D01*
X195678023Y-87271707D01*
X195670522Y-87215589D01*
X195648019Y-87187252D01*
X195618571Y-87176695D01*
X195580233Y-87175028D01*
X195541895Y-87176695D01*
X195513002Y-87186696D01*
X195490221Y-87216144D01*
X195483554Y-87272263D01*
X195403474Y-87272263D01*
X195403544Y-87271707D01*
X195384653Y-87196142D01*
X195336869Y-87176139D01*
X195304643Y-87175028D01*
X194915705Y-87175028D01*
X194877367Y-87176695D01*
X194847919Y-87187252D01*
X194826250Y-87215867D01*
X194819026Y-87272818D01*
X194580849Y-87272818D01*
X194580849Y-86989449D01*
X194820138Y-86989449D01*
X194827639Y-87045845D01*
X194850141Y-87075016D01*
X194879590Y-87084461D01*
X194917928Y-87086128D01*
X195311310Y-87086128D01*
X195348537Y-87084461D01*
X195376874Y-87073904D01*
X195397710Y-87044734D01*
X195404655Y-86988338D01*
X195398266Y-86933609D01*
X195379096Y-86904994D01*
X195333535Y-86893882D01*
X195355760Y-86873879D01*
X195379096Y-86843876D01*
X195404655Y-86760532D01*
X195395210Y-86690585D01*
X195366873Y-86628910D01*
X195319645Y-86575509D01*
X195258835Y-86534454D01*
X195189752Y-86509822D01*
X195112396Y-86501611D01*
X194916816Y-86501611D01*
X194878478Y-86503277D01*
X194850141Y-86512723D01*
X194827639Y-86542171D01*
X194820138Y-86599401D01*
X194830417Y-86661631D01*
X194861254Y-86690523D01*
X194917928Y-86697191D01*
X195113508Y-86697191D01*
X195184628Y-86723305D01*
X195210186Y-86793314D01*
X195183516Y-86864434D01*
X195113508Y-86891659D01*
X194916816Y-86891659D01*
X194878478Y-86893326D01*
X194850141Y-86903883D01*
X194827639Y-86932498D01*
X194820138Y-86989449D01*
X194580849Y-86989449D01*
X194580849Y-85979323D01*
X194812359Y-85979323D01*
X194844585Y-86047109D01*
X194852364Y-86058222D01*
X194881395Y-86090726D01*
X194926262Y-86137121D01*
X194971407Y-86184071D01*
X195001271Y-86218242D01*
X194915705Y-86218242D01*
X194877367Y-86219909D01*
X194847919Y-86230466D01*
X194826250Y-86259080D01*
X194819026Y-86316032D01*
X194826527Y-86372428D01*
X194849030Y-86401598D01*
X194878478Y-86411044D01*
X194916816Y-86412711D01*
X195582455Y-86412711D01*
X195620793Y-86411044D01*
X195650241Y-86401598D01*
X195672744Y-86372150D01*
X195680245Y-86314921D01*
X195661354Y-86239356D01*
X195612459Y-86219353D01*
X195581344Y-86218242D01*
X195229078Y-86218242D01*
X195285751Y-86157679D01*
X195342425Y-86097116D01*
X195351315Y-86083781D01*
X195381319Y-86017106D01*
X195336313Y-85953209D01*
X195265749Y-85917093D01*
X195205741Y-85958209D01*
X195112396Y-86068223D01*
X194990159Y-85920427D01*
X194954599Y-85885422D01*
X194931263Y-85878199D01*
X194859031Y-85912648D01*
X194812359Y-85979323D01*
X194580849Y-85979323D01*
X194580849Y-85785595D01*
X195200000Y-85372828D01*
X195819151Y-85785595D01*
X195819151Y-88114405D01*
X195200000Y-88527172D01*
G37*
G36*
X207200000Y-99527173D02*
G01*
X206580849Y-99114406D01*
X206580849Y-98924012D01*
X206819026Y-98924012D01*
X206829583Y-98985686D01*
X206861254Y-99015134D01*
X206917928Y-99021802D01*
X207535783Y-99021802D01*
X207574121Y-99020135D01*
X207603569Y-99009578D01*
X207626072Y-98980130D01*
X207633573Y-98922900D01*
X207623294Y-98860948D01*
X207592456Y-98830667D01*
X207534671Y-98825110D01*
X206983491Y-98825110D01*
X206983491Y-98522850D01*
X206975157Y-98469510D01*
X206949043Y-98447285D01*
X206901815Y-98441729D01*
X206854586Y-98447285D01*
X206830139Y-98466177D01*
X206819026Y-98523962D01*
X206819026Y-98924012D01*
X206580849Y-98924012D01*
X206580849Y-98272819D01*
X206819026Y-98272819D01*
X206826527Y-98329215D01*
X206849030Y-98358385D01*
X206877923Y-98367831D01*
X206916816Y-98369498D01*
X207306865Y-98369498D01*
X207345203Y-98367831D01*
X207374651Y-98358385D01*
X207396321Y-98328937D01*
X207403474Y-98272264D01*
X207483554Y-98272264D01*
X207490221Y-98328382D01*
X207513558Y-98357830D01*
X207543006Y-98367831D01*
X207581344Y-98369498D01*
X207619682Y-98367831D01*
X207648019Y-98358385D01*
X207670522Y-98328937D01*
X207678023Y-98271708D01*
X207670522Y-98215590D01*
X207648019Y-98187253D01*
X207618571Y-98176696D01*
X207580233Y-98175029D01*
X207541895Y-98176696D01*
X207513002Y-98186697D01*
X207490221Y-98216145D01*
X207483554Y-98272264D01*
X207403474Y-98272264D01*
X207403544Y-98271708D01*
X207384653Y-98196143D01*
X207336869Y-98176140D01*
X207304643Y-98175029D01*
X206915705Y-98175029D01*
X206877367Y-98176696D01*
X206847919Y-98187253D01*
X206826250Y-98215868D01*
X206819026Y-98272819D01*
X206580849Y-98272819D01*
X206580849Y-97989450D01*
X206820138Y-97989450D01*
X206827639Y-98045846D01*
X206850141Y-98075017D01*
X206879590Y-98084462D01*
X206917928Y-98086129D01*
X207311310Y-98086129D01*
X207348537Y-98084462D01*
X207376874Y-98073905D01*
X207397710Y-98044735D01*
X207404655Y-97988339D01*
X207398266Y-97933610D01*
X207379096Y-97904995D01*
X207333535Y-97893883D01*
X207355760Y-97873880D01*
X207379096Y-97843877D01*
X207404655Y-97760533D01*
X207395210Y-97690586D01*
X207366873Y-97628911D01*
X207319645Y-97575510D01*
X207258835Y-97534455D01*
X207189752Y-97509823D01*
X207112396Y-97501612D01*
X206916816Y-97501612D01*
X206878478Y-97503278D01*
X206850141Y-97512724D01*
X206827639Y-97542172D01*
X206820138Y-97599402D01*
X206830417Y-97661632D01*
X206861254Y-97690524D01*
X206917928Y-97697192D01*
X207113508Y-97697192D01*
X207184628Y-97723306D01*
X207210186Y-97793315D01*
X207183516Y-97864435D01*
X207113508Y-97891660D01*
X206916816Y-97891660D01*
X206878478Y-97893327D01*
X206850141Y-97903884D01*
X206827639Y-97932499D01*
X206820138Y-97989450D01*
X206580849Y-97989450D01*
X206580849Y-96979324D01*
X206812359Y-96979324D01*
X206844585Y-97047110D01*
X206852364Y-97058223D01*
X206881395Y-97090727D01*
X206926262Y-97137122D01*
X206971407Y-97184072D01*
X207001271Y-97218243D01*
X206915705Y-97218243D01*
X206877367Y-97219910D01*
X206847919Y-97230467D01*
X206826250Y-97259081D01*
X206819026Y-97316033D01*
X206826527Y-97372429D01*
X206849030Y-97401599D01*
X206878478Y-97411045D01*
X206916816Y-97412712D01*
X207582455Y-97412712D01*
X207620793Y-97411045D01*
X207650241Y-97401599D01*
X207672744Y-97372151D01*
X207680245Y-97314922D01*
X207661354Y-97239357D01*
X207612459Y-97219354D01*
X207581344Y-97218243D01*
X207229078Y-97218243D01*
X207285751Y-97157680D01*
X207342425Y-97097117D01*
X207351315Y-97083782D01*
X207381319Y-97017107D01*
X207336313Y-96953210D01*
X207265749Y-96917094D01*
X207205741Y-96958210D01*
X207112396Y-97068224D01*
X206990159Y-96920428D01*
X206954599Y-96885423D01*
X206931263Y-96878200D01*
X206859031Y-96912649D01*
X206812359Y-96979324D01*
X206580849Y-96979324D01*
X206580849Y-96785596D01*
X207200000Y-96372829D01*
X207819151Y-96785596D01*
X207819151Y-99114406D01*
X207200000Y-99527173D01*
G37*
G36*
X158760660Y-99527173D02*
G01*
X158141509Y-99114406D01*
X158141509Y-98924012D01*
X158379686Y-98924012D01*
X158390243Y-98985686D01*
X158421914Y-99015134D01*
X158478588Y-99021802D01*
X159096443Y-99021802D01*
X159134781Y-99020135D01*
X159164229Y-99009578D01*
X159186732Y-98980130D01*
X159194233Y-98922900D01*
X159183954Y-98860948D01*
X159153116Y-98830667D01*
X159095331Y-98825110D01*
X158544151Y-98825110D01*
X158544151Y-98522850D01*
X158535817Y-98469510D01*
X158509703Y-98447285D01*
X158462475Y-98441729D01*
X158415246Y-98447285D01*
X158390799Y-98466177D01*
X158379686Y-98523962D01*
X158379686Y-98924012D01*
X158141509Y-98924012D01*
X158141509Y-98272819D01*
X158379686Y-98272819D01*
X158387187Y-98329215D01*
X158409690Y-98358385D01*
X158438583Y-98367831D01*
X158477476Y-98369498D01*
X158867525Y-98369498D01*
X158905863Y-98367831D01*
X158935311Y-98358385D01*
X158956981Y-98328937D01*
X158964134Y-98272264D01*
X159044214Y-98272264D01*
X159050881Y-98328382D01*
X159074218Y-98357830D01*
X159103666Y-98367831D01*
X159142004Y-98369498D01*
X159180342Y-98367831D01*
X159208679Y-98358385D01*
X159231182Y-98328937D01*
X159238683Y-98271708D01*
X159231182Y-98215590D01*
X159208679Y-98187253D01*
X159179231Y-98176696D01*
X159140893Y-98175029D01*
X159102555Y-98176696D01*
X159073662Y-98186697D01*
X159050881Y-98216145D01*
X159044214Y-98272264D01*
X158964134Y-98272264D01*
X158964204Y-98271708D01*
X158945313Y-98196143D01*
X158897529Y-98176140D01*
X158865303Y-98175029D01*
X158476365Y-98175029D01*
X158438027Y-98176696D01*
X158408579Y-98187253D01*
X158386910Y-98215868D01*
X158379686Y-98272819D01*
X158141509Y-98272819D01*
X158141509Y-97989450D01*
X158380798Y-97989450D01*
X158388299Y-98045846D01*
X158410801Y-98075017D01*
X158440250Y-98084462D01*
X158478588Y-98086129D01*
X158871970Y-98086129D01*
X158909197Y-98084462D01*
X158937534Y-98073905D01*
X158958370Y-98044735D01*
X158965315Y-97988339D01*
X158958926Y-97933610D01*
X158939756Y-97904995D01*
X158894195Y-97893883D01*
X158916420Y-97873880D01*
X158939756Y-97843877D01*
X158965315Y-97760533D01*
X158955870Y-97690586D01*
X158927533Y-97628911D01*
X158880305Y-97575510D01*
X158819495Y-97534455D01*
X158750412Y-97509823D01*
X158673056Y-97501612D01*
X158477476Y-97501612D01*
X158439138Y-97503278D01*
X158410801Y-97512724D01*
X158388299Y-97542172D01*
X158380798Y-97599402D01*
X158391077Y-97661632D01*
X158421914Y-97690524D01*
X158478588Y-97697192D01*
X158674168Y-97697192D01*
X158745288Y-97723306D01*
X158770846Y-97793315D01*
X158744176Y-97864435D01*
X158674168Y-97891660D01*
X158477476Y-97891660D01*
X158439138Y-97893327D01*
X158410801Y-97903884D01*
X158388299Y-97932499D01*
X158380798Y-97989450D01*
X158141509Y-97989450D01*
X158141509Y-96979324D01*
X158373019Y-96979324D01*
X158405245Y-97047110D01*
X158413024Y-97058223D01*
X158442055Y-97090727D01*
X158486922Y-97137122D01*
X158532067Y-97184072D01*
X158561931Y-97218243D01*
X158476365Y-97218243D01*
X158438027Y-97219910D01*
X158408579Y-97230467D01*
X158386910Y-97259081D01*
X158379686Y-97316033D01*
X158387187Y-97372429D01*
X158409690Y-97401599D01*
X158439138Y-97411045D01*
X158477476Y-97412712D01*
X159143115Y-97412712D01*
X159181453Y-97411045D01*
X159210901Y-97401599D01*
X159233404Y-97372151D01*
X159240905Y-97314922D01*
X159222014Y-97239357D01*
X159173119Y-97219354D01*
X159142004Y-97218243D01*
X158789738Y-97218243D01*
X158846411Y-97157680D01*
X158903085Y-97097117D01*
X158911975Y-97083782D01*
X158941979Y-97017107D01*
X158896973Y-96953210D01*
X158826409Y-96917094D01*
X158766401Y-96958210D01*
X158673056Y-97068224D01*
X158550819Y-96920428D01*
X158515259Y-96885423D01*
X158491923Y-96878200D01*
X158419691Y-96912649D01*
X158373019Y-96979324D01*
X158141509Y-96979324D01*
X158141509Y-96785596D01*
X158760660Y-96372829D01*
X159379811Y-96785596D01*
X159379811Y-99114406D01*
X158760660Y-99527173D01*
G37*
G36*
X183200000Y-99527173D02*
G01*
X182580849Y-99114406D01*
X182580849Y-98924012D01*
X182819026Y-98924012D01*
X182829583Y-98985686D01*
X182861254Y-99015134D01*
X182917928Y-99021802D01*
X183535783Y-99021802D01*
X183574121Y-99020135D01*
X183603569Y-99009578D01*
X183626072Y-98980130D01*
X183633573Y-98922900D01*
X183623294Y-98860948D01*
X183592456Y-98830667D01*
X183534671Y-98825110D01*
X182983491Y-98825110D01*
X182983491Y-98522850D01*
X182975157Y-98469510D01*
X182949043Y-98447285D01*
X182901815Y-98441729D01*
X182854586Y-98447285D01*
X182830139Y-98466177D01*
X182819026Y-98523962D01*
X182819026Y-98924012D01*
X182580849Y-98924012D01*
X182580849Y-98272819D01*
X182819026Y-98272819D01*
X182826527Y-98329215D01*
X182849030Y-98358385D01*
X182877923Y-98367831D01*
X182916816Y-98369498D01*
X183306865Y-98369498D01*
X183345203Y-98367831D01*
X183374651Y-98358385D01*
X183396321Y-98328937D01*
X183403474Y-98272264D01*
X183483554Y-98272264D01*
X183490221Y-98328382D01*
X183513558Y-98357830D01*
X183543006Y-98367831D01*
X183581344Y-98369498D01*
X183619682Y-98367831D01*
X183648019Y-98358385D01*
X183670522Y-98328937D01*
X183678023Y-98271708D01*
X183670522Y-98215590D01*
X183648019Y-98187253D01*
X183618571Y-98176696D01*
X183580233Y-98175029D01*
X183541895Y-98176696D01*
X183513002Y-98186697D01*
X183490221Y-98216145D01*
X183483554Y-98272264D01*
X183403474Y-98272264D01*
X183403544Y-98271708D01*
X183384653Y-98196143D01*
X183336869Y-98176140D01*
X183304643Y-98175029D01*
X182915705Y-98175029D01*
X182877367Y-98176696D01*
X182847919Y-98187253D01*
X182826250Y-98215868D01*
X182819026Y-98272819D01*
X182580849Y-98272819D01*
X182580849Y-97989450D01*
X182820138Y-97989450D01*
X182827639Y-98045846D01*
X182850141Y-98075017D01*
X182879590Y-98084462D01*
X182917928Y-98086129D01*
X183311310Y-98086129D01*
X183348537Y-98084462D01*
X183376874Y-98073905D01*
X183397710Y-98044735D01*
X183404655Y-97988339D01*
X183398266Y-97933610D01*
X183379096Y-97904995D01*
X183333535Y-97893883D01*
X183355760Y-97873880D01*
X183379096Y-97843877D01*
X183404655Y-97760533D01*
X183395210Y-97690586D01*
X183366873Y-97628911D01*
X183319645Y-97575510D01*
X183258835Y-97534455D01*
X183189752Y-97509823D01*
X183112396Y-97501612D01*
X182916816Y-97501612D01*
X182878478Y-97503278D01*
X182850141Y-97512724D01*
X182827639Y-97542172D01*
X182820138Y-97599402D01*
X182830417Y-97661632D01*
X182861254Y-97690524D01*
X182917928Y-97697192D01*
X183113508Y-97697192D01*
X183184628Y-97723306D01*
X183210186Y-97793315D01*
X183183516Y-97864435D01*
X183113508Y-97891660D01*
X182916816Y-97891660D01*
X182878478Y-97893327D01*
X182850141Y-97903884D01*
X182827639Y-97932499D01*
X182820138Y-97989450D01*
X182580849Y-97989450D01*
X182580849Y-96979324D01*
X182812359Y-96979324D01*
X182844585Y-97047110D01*
X182852364Y-97058223D01*
X182881395Y-97090727D01*
X182926262Y-97137122D01*
X182971407Y-97184072D01*
X183001271Y-97218243D01*
X182915705Y-97218243D01*
X182877367Y-97219910D01*
X182847919Y-97230467D01*
X182826250Y-97259081D01*
X182819026Y-97316033D01*
X182826527Y-97372429D01*
X182849030Y-97401599D01*
X182878478Y-97411045D01*
X182916816Y-97412712D01*
X183582455Y-97412712D01*
X183620793Y-97411045D01*
X183650241Y-97401599D01*
X183672744Y-97372151D01*
X183680245Y-97314922D01*
X183661354Y-97239357D01*
X183612459Y-97219354D01*
X183581344Y-97218243D01*
X183229078Y-97218243D01*
X183285751Y-97157680D01*
X183342425Y-97097117D01*
X183351315Y-97083782D01*
X183381319Y-97017107D01*
X183336313Y-96953210D01*
X183265749Y-96917094D01*
X183205741Y-96958210D01*
X183112396Y-97068224D01*
X182990159Y-96920428D01*
X182954599Y-96885423D01*
X182931263Y-96878200D01*
X182859031Y-96912649D01*
X182812359Y-96979324D01*
X182580849Y-96979324D01*
X182580849Y-96785596D01*
X183200000Y-96372829D01*
X183819151Y-96785596D01*
X183819151Y-99114406D01*
X183200000Y-99527173D01*
G37*
G36*
X171200000Y-99527173D02*
G01*
X170580849Y-99114406D01*
X170580849Y-98924012D01*
X170819026Y-98924012D01*
X170829583Y-98985686D01*
X170861254Y-99015134D01*
X170917928Y-99021802D01*
X171535783Y-99021802D01*
X171574121Y-99020135D01*
X171603569Y-99009578D01*
X171626072Y-98980130D01*
X171633573Y-98922900D01*
X171623294Y-98860948D01*
X171592456Y-98830667D01*
X171534671Y-98825110D01*
X170983491Y-98825110D01*
X170983491Y-98522850D01*
X170975157Y-98469510D01*
X170949043Y-98447285D01*
X170901815Y-98441729D01*
X170854586Y-98447285D01*
X170830139Y-98466177D01*
X170819026Y-98523962D01*
X170819026Y-98924012D01*
X170580849Y-98924012D01*
X170580849Y-98272819D01*
X170819026Y-98272819D01*
X170826527Y-98329215D01*
X170849030Y-98358385D01*
X170877923Y-98367831D01*
X170916816Y-98369498D01*
X171306865Y-98369498D01*
X171345203Y-98367831D01*
X171374651Y-98358385D01*
X171396321Y-98328937D01*
X171403474Y-98272264D01*
X171483554Y-98272264D01*
X171490221Y-98328382D01*
X171513558Y-98357830D01*
X171543006Y-98367831D01*
X171581344Y-98369498D01*
X171619682Y-98367831D01*
X171648019Y-98358385D01*
X171670522Y-98328937D01*
X171678023Y-98271708D01*
X171670522Y-98215590D01*
X171648019Y-98187253D01*
X171618571Y-98176696D01*
X171580233Y-98175029D01*
X171541895Y-98176696D01*
X171513002Y-98186697D01*
X171490221Y-98216145D01*
X171483554Y-98272264D01*
X171403474Y-98272264D01*
X171403544Y-98271708D01*
X171384653Y-98196143D01*
X171336869Y-98176140D01*
X171304643Y-98175029D01*
X170915705Y-98175029D01*
X170877367Y-98176696D01*
X170847919Y-98187253D01*
X170826250Y-98215868D01*
X170819026Y-98272819D01*
X170580849Y-98272819D01*
X170580849Y-97989450D01*
X170820138Y-97989450D01*
X170827639Y-98045846D01*
X170850141Y-98075017D01*
X170879590Y-98084462D01*
X170917928Y-98086129D01*
X171311310Y-98086129D01*
X171348537Y-98084462D01*
X171376874Y-98073905D01*
X171397710Y-98044735D01*
X171404655Y-97988339D01*
X171398266Y-97933610D01*
X171379096Y-97904995D01*
X171333535Y-97893883D01*
X171355760Y-97873880D01*
X171379096Y-97843877D01*
X171404655Y-97760533D01*
X171395210Y-97690586D01*
X171366873Y-97628911D01*
X171319645Y-97575510D01*
X171258835Y-97534455D01*
X171189752Y-97509823D01*
X171112396Y-97501612D01*
X170916816Y-97501612D01*
X170878478Y-97503278D01*
X170850141Y-97512724D01*
X170827639Y-97542172D01*
X170820138Y-97599402D01*
X170830417Y-97661632D01*
X170861254Y-97690524D01*
X170917928Y-97697192D01*
X171113508Y-97697192D01*
X171184628Y-97723306D01*
X171210186Y-97793315D01*
X171183516Y-97864435D01*
X171113508Y-97891660D01*
X170916816Y-97891660D01*
X170878478Y-97893327D01*
X170850141Y-97903884D01*
X170827639Y-97932499D01*
X170820138Y-97989450D01*
X170580849Y-97989450D01*
X170580849Y-96979324D01*
X170812359Y-96979324D01*
X170844585Y-97047110D01*
X170852364Y-97058223D01*
X170881395Y-97090727D01*
X170926262Y-97137122D01*
X170971407Y-97184072D01*
X171001271Y-97218243D01*
X170915705Y-97218243D01*
X170877367Y-97219910D01*
X170847919Y-97230467D01*
X170826250Y-97259081D01*
X170819026Y-97316033D01*
X170826527Y-97372429D01*
X170849030Y-97401599D01*
X170878478Y-97411045D01*
X170916816Y-97412712D01*
X171582455Y-97412712D01*
X171620793Y-97411045D01*
X171650241Y-97401599D01*
X171672744Y-97372151D01*
X171680245Y-97314922D01*
X171661354Y-97239357D01*
X171612459Y-97219354D01*
X171581344Y-97218243D01*
X171229078Y-97218243D01*
X171285751Y-97157680D01*
X171342425Y-97097117D01*
X171351315Y-97083782D01*
X171381319Y-97017107D01*
X171336313Y-96953210D01*
X171265749Y-96917094D01*
X171205741Y-96958210D01*
X171112396Y-97068224D01*
X170990159Y-96920428D01*
X170954599Y-96885423D01*
X170931263Y-96878200D01*
X170859031Y-96912649D01*
X170812359Y-96979324D01*
X170580849Y-96979324D01*
X170580849Y-96785596D01*
X171200000Y-96372829D01*
X171819151Y-96785596D01*
X171819151Y-99114406D01*
X171200000Y-99527173D01*
G37*
G36*
X195200000Y-99527173D02*
G01*
X194580849Y-99114406D01*
X194580849Y-98924012D01*
X194819026Y-98924012D01*
X194829583Y-98985686D01*
X194861254Y-99015134D01*
X194917928Y-99021802D01*
X195535783Y-99021802D01*
X195574121Y-99020135D01*
X195603569Y-99009578D01*
X195626072Y-98980130D01*
X195633573Y-98922900D01*
X195623294Y-98860948D01*
X195592456Y-98830667D01*
X195534671Y-98825110D01*
X194983491Y-98825110D01*
X194983491Y-98522850D01*
X194975157Y-98469510D01*
X194949043Y-98447285D01*
X194901815Y-98441729D01*
X194854586Y-98447285D01*
X194830139Y-98466177D01*
X194819026Y-98523962D01*
X194819026Y-98924012D01*
X194580849Y-98924012D01*
X194580849Y-98272819D01*
X194819026Y-98272819D01*
X194826527Y-98329215D01*
X194849030Y-98358385D01*
X194877923Y-98367831D01*
X194916816Y-98369498D01*
X195306865Y-98369498D01*
X195345203Y-98367831D01*
X195374651Y-98358385D01*
X195396321Y-98328937D01*
X195403474Y-98272264D01*
X195483554Y-98272264D01*
X195490221Y-98328382D01*
X195513558Y-98357830D01*
X195543006Y-98367831D01*
X195581344Y-98369498D01*
X195619682Y-98367831D01*
X195648019Y-98358385D01*
X195670522Y-98328937D01*
X195678023Y-98271708D01*
X195670522Y-98215590D01*
X195648019Y-98187253D01*
X195618571Y-98176696D01*
X195580233Y-98175029D01*
X195541895Y-98176696D01*
X195513002Y-98186697D01*
X195490221Y-98216145D01*
X195483554Y-98272264D01*
X195403474Y-98272264D01*
X195403544Y-98271708D01*
X195384653Y-98196143D01*
X195336869Y-98176140D01*
X195304643Y-98175029D01*
X194915705Y-98175029D01*
X194877367Y-98176696D01*
X194847919Y-98187253D01*
X194826250Y-98215868D01*
X194819026Y-98272819D01*
X194580849Y-98272819D01*
X194580849Y-97989450D01*
X194820138Y-97989450D01*
X194827639Y-98045846D01*
X194850141Y-98075017D01*
X194879590Y-98084462D01*
X194917928Y-98086129D01*
X195311310Y-98086129D01*
X195348537Y-98084462D01*
X195376874Y-98073905D01*
X195397710Y-98044735D01*
X195404655Y-97988339D01*
X195398266Y-97933610D01*
X195379096Y-97904995D01*
X195333535Y-97893883D01*
X195355760Y-97873880D01*
X195379096Y-97843877D01*
X195404655Y-97760533D01*
X195395210Y-97690586D01*
X195366873Y-97628911D01*
X195319645Y-97575510D01*
X195258835Y-97534455D01*
X195189752Y-97509823D01*
X195112396Y-97501612D01*
X194916816Y-97501612D01*
X194878478Y-97503278D01*
X194850141Y-97512724D01*
X194827639Y-97542172D01*
X194820138Y-97599402D01*
X194830417Y-97661632D01*
X194861254Y-97690524D01*
X194917928Y-97697192D01*
X195113508Y-97697192D01*
X195184628Y-97723306D01*
X195210186Y-97793315D01*
X195183516Y-97864435D01*
X195113508Y-97891660D01*
X194916816Y-97891660D01*
X194878478Y-97893327D01*
X194850141Y-97903884D01*
X194827639Y-97932499D01*
X194820138Y-97989450D01*
X194580849Y-97989450D01*
X194580849Y-96979324D01*
X194812359Y-96979324D01*
X194844585Y-97047110D01*
X194852364Y-97058223D01*
X194881395Y-97090727D01*
X194926262Y-97137122D01*
X194971407Y-97184072D01*
X195001271Y-97218243D01*
X194915705Y-97218243D01*
X194877367Y-97219910D01*
X194847919Y-97230467D01*
X194826250Y-97259081D01*
X194819026Y-97316033D01*
X194826527Y-97372429D01*
X194849030Y-97401599D01*
X194878478Y-97411045D01*
X194916816Y-97412712D01*
X195582455Y-97412712D01*
X195620793Y-97411045D01*
X195650241Y-97401599D01*
X195672744Y-97372151D01*
X195680245Y-97314922D01*
X195661354Y-97239357D01*
X195612459Y-97219354D01*
X195581344Y-97218243D01*
X195229078Y-97218243D01*
X195285751Y-97157680D01*
X195342425Y-97097117D01*
X195351315Y-97083782D01*
X195381319Y-97017107D01*
X195336313Y-96953210D01*
X195265749Y-96917094D01*
X195205741Y-96958210D01*
X195112396Y-97068224D01*
X194990159Y-96920428D01*
X194954599Y-96885423D01*
X194931263Y-96878200D01*
X194859031Y-96912649D01*
X194812359Y-96979324D01*
X194580849Y-96979324D01*
X194580849Y-96785596D01*
X195200000Y-96372829D01*
X195819151Y-96785596D01*
X195819151Y-99114406D01*
X195200000Y-99527173D01*
G37*
G36*
X207199999Y-110466512D02*
G01*
X206580848Y-110053745D01*
X206580848Y-109863351D01*
X206819025Y-109863351D01*
X206829582Y-109925025D01*
X206861253Y-109954473D01*
X206917927Y-109961141D01*
X207535782Y-109961141D01*
X207574120Y-109959474D01*
X207603568Y-109948917D01*
X207626071Y-109919469D01*
X207633572Y-109862239D01*
X207623293Y-109800287D01*
X207592455Y-109770006D01*
X207534670Y-109764449D01*
X206983490Y-109764449D01*
X206983490Y-109462189D01*
X206975156Y-109408849D01*
X206949042Y-109386624D01*
X206901814Y-109381068D01*
X206854585Y-109386624D01*
X206830138Y-109405516D01*
X206819025Y-109463301D01*
X206819025Y-109863351D01*
X206580848Y-109863351D01*
X206580848Y-109212158D01*
X206819025Y-109212158D01*
X206826526Y-109268554D01*
X206849029Y-109297724D01*
X206877922Y-109307170D01*
X206916815Y-109308837D01*
X207306864Y-109308837D01*
X207345202Y-109307170D01*
X207374650Y-109297724D01*
X207396320Y-109268276D01*
X207403473Y-109211603D01*
X207483553Y-109211603D01*
X207490220Y-109267721D01*
X207513557Y-109297169D01*
X207543005Y-109307170D01*
X207581343Y-109308837D01*
X207619681Y-109307170D01*
X207648018Y-109297724D01*
X207670521Y-109268276D01*
X207678022Y-109211047D01*
X207670521Y-109154929D01*
X207648018Y-109126592D01*
X207618570Y-109116035D01*
X207580232Y-109114368D01*
X207541894Y-109116035D01*
X207513001Y-109126036D01*
X207490220Y-109155484D01*
X207483553Y-109211603D01*
X207403473Y-109211603D01*
X207403543Y-109211047D01*
X207384652Y-109135482D01*
X207336868Y-109115479D01*
X207304642Y-109114368D01*
X206915704Y-109114368D01*
X206877366Y-109116035D01*
X206847918Y-109126592D01*
X206826249Y-109155207D01*
X206819025Y-109212158D01*
X206580848Y-109212158D01*
X206580848Y-108928789D01*
X206820137Y-108928789D01*
X206827638Y-108985185D01*
X206850140Y-109014356D01*
X206879589Y-109023801D01*
X206917927Y-109025468D01*
X207311309Y-109025468D01*
X207348536Y-109023801D01*
X207376873Y-109013244D01*
X207397709Y-108984074D01*
X207404654Y-108927678D01*
X207398265Y-108872949D01*
X207379095Y-108844334D01*
X207333534Y-108833222D01*
X207355759Y-108813219D01*
X207379095Y-108783216D01*
X207404654Y-108699872D01*
X207395209Y-108629925D01*
X207366872Y-108568250D01*
X207319644Y-108514849D01*
X207258834Y-108473794D01*
X207189751Y-108449162D01*
X207112395Y-108440951D01*
X206916815Y-108440951D01*
X206878477Y-108442617D01*
X206850140Y-108452063D01*
X206827638Y-108481511D01*
X206820137Y-108538741D01*
X206830416Y-108600971D01*
X206861253Y-108629863D01*
X206917927Y-108636531D01*
X207113507Y-108636531D01*
X207184627Y-108662645D01*
X207210185Y-108732654D01*
X207183515Y-108803774D01*
X207113507Y-108830999D01*
X206916815Y-108830999D01*
X206878477Y-108832666D01*
X206850140Y-108843223D01*
X206827638Y-108871838D01*
X206820137Y-108928789D01*
X206580848Y-108928789D01*
X206580848Y-107918663D01*
X206812358Y-107918663D01*
X206844584Y-107986449D01*
X206852363Y-107997562D01*
X206881394Y-108030066D01*
X206926261Y-108076461D01*
X206971406Y-108123411D01*
X207001270Y-108157582D01*
X206915704Y-108157582D01*
X206877366Y-108159249D01*
X206847918Y-108169806D01*
X206826249Y-108198420D01*
X206819025Y-108255372D01*
X206826526Y-108311768D01*
X206849029Y-108340938D01*
X206878477Y-108350384D01*
X206916815Y-108352051D01*
X207582454Y-108352051D01*
X207620792Y-108350384D01*
X207650240Y-108340938D01*
X207672743Y-108311490D01*
X207680244Y-108254261D01*
X207661353Y-108178696D01*
X207612458Y-108158693D01*
X207581343Y-108157582D01*
X207229077Y-108157582D01*
X207285750Y-108097019D01*
X207342424Y-108036456D01*
X207351314Y-108023121D01*
X207381318Y-107956446D01*
X207336312Y-107892549D01*
X207265748Y-107856433D01*
X207205740Y-107897549D01*
X207112395Y-108007563D01*
X206990158Y-107859767D01*
X206954598Y-107824762D01*
X206931262Y-107817539D01*
X206859030Y-107851988D01*
X206812358Y-107918663D01*
X206580848Y-107918663D01*
X206580848Y-107724935D01*
X207199999Y-107312168D01*
X207819150Y-107724935D01*
X207819150Y-110053745D01*
X207199999Y-110466512D01*
G37*
G36*
X195199999Y-110466512D02*
G01*
X194580848Y-110053745D01*
X194580848Y-109863351D01*
X194819025Y-109863351D01*
X194829582Y-109925025D01*
X194861253Y-109954473D01*
X194917927Y-109961141D01*
X195535782Y-109961141D01*
X195574120Y-109959474D01*
X195603568Y-109948917D01*
X195626071Y-109919469D01*
X195633572Y-109862239D01*
X195623293Y-109800287D01*
X195592455Y-109770006D01*
X195534670Y-109764449D01*
X194983490Y-109764449D01*
X194983490Y-109462189D01*
X194975156Y-109408849D01*
X194949042Y-109386624D01*
X194901814Y-109381068D01*
X194854585Y-109386624D01*
X194830138Y-109405516D01*
X194819025Y-109463301D01*
X194819025Y-109863351D01*
X194580848Y-109863351D01*
X194580848Y-109212158D01*
X194819025Y-109212158D01*
X194826526Y-109268554D01*
X194849029Y-109297724D01*
X194877922Y-109307170D01*
X194916815Y-109308837D01*
X195306864Y-109308837D01*
X195345202Y-109307170D01*
X195374650Y-109297724D01*
X195396320Y-109268276D01*
X195403473Y-109211603D01*
X195483553Y-109211603D01*
X195490220Y-109267721D01*
X195513557Y-109297169D01*
X195543005Y-109307170D01*
X195581343Y-109308837D01*
X195619681Y-109307170D01*
X195648018Y-109297724D01*
X195670521Y-109268276D01*
X195678022Y-109211047D01*
X195670521Y-109154929D01*
X195648018Y-109126592D01*
X195618570Y-109116035D01*
X195580232Y-109114368D01*
X195541894Y-109116035D01*
X195513001Y-109126036D01*
X195490220Y-109155484D01*
X195483553Y-109211603D01*
X195403473Y-109211603D01*
X195403543Y-109211047D01*
X195384652Y-109135482D01*
X195336868Y-109115479D01*
X195304642Y-109114368D01*
X194915704Y-109114368D01*
X194877366Y-109116035D01*
X194847918Y-109126592D01*
X194826249Y-109155207D01*
X194819025Y-109212158D01*
X194580848Y-109212158D01*
X194580848Y-108928789D01*
X194820137Y-108928789D01*
X194827638Y-108985185D01*
X194850140Y-109014356D01*
X194879589Y-109023801D01*
X194917927Y-109025468D01*
X195311309Y-109025468D01*
X195348536Y-109023801D01*
X195376873Y-109013244D01*
X195397709Y-108984074D01*
X195404654Y-108927678D01*
X195398265Y-108872949D01*
X195379095Y-108844334D01*
X195333534Y-108833222D01*
X195355759Y-108813219D01*
X195379095Y-108783216D01*
X195404654Y-108699872D01*
X195395209Y-108629925D01*
X195366872Y-108568250D01*
X195319644Y-108514849D01*
X195258834Y-108473794D01*
X195189751Y-108449162D01*
X195112395Y-108440951D01*
X194916815Y-108440951D01*
X194878477Y-108442617D01*
X194850140Y-108452063D01*
X194827638Y-108481511D01*
X194820137Y-108538741D01*
X194830416Y-108600971D01*
X194861253Y-108629863D01*
X194917927Y-108636531D01*
X195113507Y-108636531D01*
X195184627Y-108662645D01*
X195210185Y-108732654D01*
X195183515Y-108803774D01*
X195113507Y-108830999D01*
X194916815Y-108830999D01*
X194878477Y-108832666D01*
X194850140Y-108843223D01*
X194827638Y-108871838D01*
X194820137Y-108928789D01*
X194580848Y-108928789D01*
X194580848Y-107918663D01*
X194812358Y-107918663D01*
X194844584Y-107986449D01*
X194852363Y-107997562D01*
X194881394Y-108030066D01*
X194926261Y-108076461D01*
X194971406Y-108123411D01*
X195001270Y-108157582D01*
X194915704Y-108157582D01*
X194877366Y-108159249D01*
X194847918Y-108169806D01*
X194826249Y-108198420D01*
X194819025Y-108255372D01*
X194826526Y-108311768D01*
X194849029Y-108340938D01*
X194878477Y-108350384D01*
X194916815Y-108352051D01*
X195582454Y-108352051D01*
X195620792Y-108350384D01*
X195650240Y-108340938D01*
X195672743Y-108311490D01*
X195680244Y-108254261D01*
X195661353Y-108178696D01*
X195612458Y-108158693D01*
X195581343Y-108157582D01*
X195229077Y-108157582D01*
X195285750Y-108097019D01*
X195342424Y-108036456D01*
X195351314Y-108023121D01*
X195381318Y-107956446D01*
X195336312Y-107892549D01*
X195265748Y-107856433D01*
X195205740Y-107897549D01*
X195112395Y-108007563D01*
X194990158Y-107859767D01*
X194954598Y-107824762D01*
X194931262Y-107817539D01*
X194859030Y-107851988D01*
X194812358Y-107918663D01*
X194580848Y-107918663D01*
X194580848Y-107724935D01*
X195199999Y-107312168D01*
X195819150Y-107724935D01*
X195819150Y-110053745D01*
X195199999Y-110466512D01*
G37*
G36*
X183199999Y-110466512D02*
G01*
X182580848Y-110053745D01*
X182580848Y-109863351D01*
X182819025Y-109863351D01*
X182829582Y-109925025D01*
X182861253Y-109954473D01*
X182917927Y-109961141D01*
X183535782Y-109961141D01*
X183574120Y-109959474D01*
X183603568Y-109948917D01*
X183626071Y-109919469D01*
X183633572Y-109862239D01*
X183623293Y-109800287D01*
X183592455Y-109770006D01*
X183534670Y-109764449D01*
X182983490Y-109764449D01*
X182983490Y-109462189D01*
X182975156Y-109408849D01*
X182949042Y-109386624D01*
X182901814Y-109381068D01*
X182854585Y-109386624D01*
X182830138Y-109405516D01*
X182819025Y-109463301D01*
X182819025Y-109863351D01*
X182580848Y-109863351D01*
X182580848Y-109212158D01*
X182819025Y-109212158D01*
X182826526Y-109268554D01*
X182849029Y-109297724D01*
X182877922Y-109307170D01*
X182916815Y-109308837D01*
X183306864Y-109308837D01*
X183345202Y-109307170D01*
X183374650Y-109297724D01*
X183396320Y-109268276D01*
X183403473Y-109211603D01*
X183483553Y-109211603D01*
X183490220Y-109267721D01*
X183513557Y-109297169D01*
X183543005Y-109307170D01*
X183581343Y-109308837D01*
X183619681Y-109307170D01*
X183648018Y-109297724D01*
X183670521Y-109268276D01*
X183678022Y-109211047D01*
X183670521Y-109154929D01*
X183648018Y-109126592D01*
X183618570Y-109116035D01*
X183580232Y-109114368D01*
X183541894Y-109116035D01*
X183513001Y-109126036D01*
X183490220Y-109155484D01*
X183483553Y-109211603D01*
X183403473Y-109211603D01*
X183403543Y-109211047D01*
X183384652Y-109135482D01*
X183336868Y-109115479D01*
X183304642Y-109114368D01*
X182915704Y-109114368D01*
X182877366Y-109116035D01*
X182847918Y-109126592D01*
X182826249Y-109155207D01*
X182819025Y-109212158D01*
X182580848Y-109212158D01*
X182580848Y-108928789D01*
X182820137Y-108928789D01*
X182827638Y-108985185D01*
X182850140Y-109014356D01*
X182879589Y-109023801D01*
X182917927Y-109025468D01*
X183311309Y-109025468D01*
X183348536Y-109023801D01*
X183376873Y-109013244D01*
X183397709Y-108984074D01*
X183404654Y-108927678D01*
X183398265Y-108872949D01*
X183379095Y-108844334D01*
X183333534Y-108833222D01*
X183355759Y-108813219D01*
X183379095Y-108783216D01*
X183404654Y-108699872D01*
X183395209Y-108629925D01*
X183366872Y-108568250D01*
X183319644Y-108514849D01*
X183258834Y-108473794D01*
X183189751Y-108449162D01*
X183112395Y-108440951D01*
X182916815Y-108440951D01*
X182878477Y-108442617D01*
X182850140Y-108452063D01*
X182827638Y-108481511D01*
X182820137Y-108538741D01*
X182830416Y-108600971D01*
X182861253Y-108629863D01*
X182917927Y-108636531D01*
X183113507Y-108636531D01*
X183184627Y-108662645D01*
X183210185Y-108732654D01*
X183183515Y-108803774D01*
X183113507Y-108830999D01*
X182916815Y-108830999D01*
X182878477Y-108832666D01*
X182850140Y-108843223D01*
X182827638Y-108871838D01*
X182820137Y-108928789D01*
X182580848Y-108928789D01*
X182580848Y-107918663D01*
X182812358Y-107918663D01*
X182844584Y-107986449D01*
X182852363Y-107997562D01*
X182881394Y-108030066D01*
X182926261Y-108076461D01*
X182971406Y-108123411D01*
X183001270Y-108157582D01*
X182915704Y-108157582D01*
X182877366Y-108159249D01*
X182847918Y-108169806D01*
X182826249Y-108198420D01*
X182819025Y-108255372D01*
X182826526Y-108311768D01*
X182849029Y-108340938D01*
X182878477Y-108350384D01*
X182916815Y-108352051D01*
X183582454Y-108352051D01*
X183620792Y-108350384D01*
X183650240Y-108340938D01*
X183672743Y-108311490D01*
X183680244Y-108254261D01*
X183661353Y-108178696D01*
X183612458Y-108158693D01*
X183581343Y-108157582D01*
X183229077Y-108157582D01*
X183285750Y-108097019D01*
X183342424Y-108036456D01*
X183351314Y-108023121D01*
X183381318Y-107956446D01*
X183336312Y-107892549D01*
X183265748Y-107856433D01*
X183205740Y-107897549D01*
X183112395Y-108007563D01*
X182990158Y-107859767D01*
X182954598Y-107824762D01*
X182931262Y-107817539D01*
X182859030Y-107851988D01*
X182812358Y-107918663D01*
X182580848Y-107918663D01*
X182580848Y-107724935D01*
X183199999Y-107312168D01*
X183819150Y-107724935D01*
X183819150Y-110053745D01*
X183199999Y-110466512D01*
G37*
G36*
X171199999Y-110466512D02*
G01*
X170580848Y-110053745D01*
X170580848Y-109863351D01*
X170819025Y-109863351D01*
X170829582Y-109925025D01*
X170861253Y-109954473D01*
X170917927Y-109961141D01*
X171535782Y-109961141D01*
X171574120Y-109959474D01*
X171603568Y-109948917D01*
X171626071Y-109919469D01*
X171633572Y-109862239D01*
X171623293Y-109800287D01*
X171592455Y-109770006D01*
X171534670Y-109764449D01*
X170983490Y-109764449D01*
X170983490Y-109462189D01*
X170975156Y-109408849D01*
X170949042Y-109386624D01*
X170901814Y-109381068D01*
X170854585Y-109386624D01*
X170830138Y-109405516D01*
X170819025Y-109463301D01*
X170819025Y-109863351D01*
X170580848Y-109863351D01*
X170580848Y-109212158D01*
X170819025Y-109212158D01*
X170826526Y-109268554D01*
X170849029Y-109297724D01*
X170877922Y-109307170D01*
X170916815Y-109308837D01*
X171306864Y-109308837D01*
X171345202Y-109307170D01*
X171374650Y-109297724D01*
X171396320Y-109268276D01*
X171403473Y-109211603D01*
X171483553Y-109211603D01*
X171490220Y-109267721D01*
X171513557Y-109297169D01*
X171543005Y-109307170D01*
X171581343Y-109308837D01*
X171619681Y-109307170D01*
X171648018Y-109297724D01*
X171670521Y-109268276D01*
X171678022Y-109211047D01*
X171670521Y-109154929D01*
X171648018Y-109126592D01*
X171618570Y-109116035D01*
X171580232Y-109114368D01*
X171541894Y-109116035D01*
X171513001Y-109126036D01*
X171490220Y-109155484D01*
X171483553Y-109211603D01*
X171403473Y-109211603D01*
X171403543Y-109211047D01*
X171384652Y-109135482D01*
X171336868Y-109115479D01*
X171304642Y-109114368D01*
X170915704Y-109114368D01*
X170877366Y-109116035D01*
X170847918Y-109126592D01*
X170826249Y-109155207D01*
X170819025Y-109212158D01*
X170580848Y-109212158D01*
X170580848Y-108928789D01*
X170820137Y-108928789D01*
X170827638Y-108985185D01*
X170850140Y-109014356D01*
X170879589Y-109023801D01*
X170917927Y-109025468D01*
X171311309Y-109025468D01*
X171348536Y-109023801D01*
X171376873Y-109013244D01*
X171397709Y-108984074D01*
X171404654Y-108927678D01*
X171398265Y-108872949D01*
X171379095Y-108844334D01*
X171333534Y-108833222D01*
X171355759Y-108813219D01*
X171379095Y-108783216D01*
X171404654Y-108699872D01*
X171395209Y-108629925D01*
X171366872Y-108568250D01*
X171319644Y-108514849D01*
X171258834Y-108473794D01*
X171189751Y-108449162D01*
X171112395Y-108440951D01*
X170916815Y-108440951D01*
X170878477Y-108442617D01*
X170850140Y-108452063D01*
X170827638Y-108481511D01*
X170820137Y-108538741D01*
X170830416Y-108600971D01*
X170861253Y-108629863D01*
X170917927Y-108636531D01*
X171113507Y-108636531D01*
X171184627Y-108662645D01*
X171210185Y-108732654D01*
X171183515Y-108803774D01*
X171113507Y-108830999D01*
X170916815Y-108830999D01*
X170878477Y-108832666D01*
X170850140Y-108843223D01*
X170827638Y-108871838D01*
X170820137Y-108928789D01*
X170580848Y-108928789D01*
X170580848Y-107918663D01*
X170812358Y-107918663D01*
X170844584Y-107986449D01*
X170852363Y-107997562D01*
X170881394Y-108030066D01*
X170926261Y-108076461D01*
X170971406Y-108123411D01*
X171001270Y-108157582D01*
X170915704Y-108157582D01*
X170877366Y-108159249D01*
X170847918Y-108169806D01*
X170826249Y-108198420D01*
X170819025Y-108255372D01*
X170826526Y-108311768D01*
X170849029Y-108340938D01*
X170878477Y-108350384D01*
X170916815Y-108352051D01*
X171582454Y-108352051D01*
X171620792Y-108350384D01*
X171650240Y-108340938D01*
X171672743Y-108311490D01*
X171680244Y-108254261D01*
X171661353Y-108178696D01*
X171612458Y-108158693D01*
X171581343Y-108157582D01*
X171229077Y-108157582D01*
X171285750Y-108097019D01*
X171342424Y-108036456D01*
X171351314Y-108023121D01*
X171381318Y-107956446D01*
X171336312Y-107892549D01*
X171265748Y-107856433D01*
X171205740Y-107897549D01*
X171112395Y-108007563D01*
X170990158Y-107859767D01*
X170954598Y-107824762D01*
X170931262Y-107817539D01*
X170859030Y-107851988D01*
X170812358Y-107918663D01*
X170580848Y-107918663D01*
X170580848Y-107724935D01*
X171199999Y-107312168D01*
X171819150Y-107724935D01*
X171819150Y-110053745D01*
X171199999Y-110466512D01*
G37*
G36*
X158760659Y-110466512D02*
G01*
X158141508Y-110053745D01*
X158141508Y-109863351D01*
X158379685Y-109863351D01*
X158390242Y-109925025D01*
X158421913Y-109954473D01*
X158478587Y-109961141D01*
X159096442Y-109961141D01*
X159134780Y-109959474D01*
X159164228Y-109948917D01*
X159186731Y-109919469D01*
X159194232Y-109862239D01*
X159183953Y-109800287D01*
X159153115Y-109770006D01*
X159095330Y-109764449D01*
X158544150Y-109764449D01*
X158544150Y-109462189D01*
X158535816Y-109408849D01*
X158509702Y-109386624D01*
X158462474Y-109381068D01*
X158415245Y-109386624D01*
X158390798Y-109405516D01*
X158379685Y-109463301D01*
X158379685Y-109863351D01*
X158141508Y-109863351D01*
X158141508Y-109212158D01*
X158379685Y-109212158D01*
X158387186Y-109268554D01*
X158409689Y-109297724D01*
X158438582Y-109307170D01*
X158477475Y-109308837D01*
X158867524Y-109308837D01*
X158905862Y-109307170D01*
X158935310Y-109297724D01*
X158956980Y-109268276D01*
X158964133Y-109211603D01*
X159044213Y-109211603D01*
X159050880Y-109267721D01*
X159074217Y-109297169D01*
X159103665Y-109307170D01*
X159142003Y-109308837D01*
X159180341Y-109307170D01*
X159208678Y-109297724D01*
X159231181Y-109268276D01*
X159238682Y-109211047D01*
X159231181Y-109154929D01*
X159208678Y-109126592D01*
X159179230Y-109116035D01*
X159140892Y-109114368D01*
X159102554Y-109116035D01*
X159073661Y-109126036D01*
X159050880Y-109155484D01*
X159044213Y-109211603D01*
X158964133Y-109211603D01*
X158964203Y-109211047D01*
X158945312Y-109135482D01*
X158897528Y-109115479D01*
X158865302Y-109114368D01*
X158476364Y-109114368D01*
X158438026Y-109116035D01*
X158408578Y-109126592D01*
X158386909Y-109155207D01*
X158379685Y-109212158D01*
X158141508Y-109212158D01*
X158141508Y-108928789D01*
X158380797Y-108928789D01*
X158388298Y-108985185D01*
X158410800Y-109014356D01*
X158440249Y-109023801D01*
X158478587Y-109025468D01*
X158871969Y-109025468D01*
X158909196Y-109023801D01*
X158937533Y-109013244D01*
X158958369Y-108984074D01*
X158965314Y-108927678D01*
X158958925Y-108872949D01*
X158939755Y-108844334D01*
X158894194Y-108833222D01*
X158916419Y-108813219D01*
X158939755Y-108783216D01*
X158965314Y-108699872D01*
X158955869Y-108629925D01*
X158927532Y-108568250D01*
X158880304Y-108514849D01*
X158819494Y-108473794D01*
X158750411Y-108449162D01*
X158673055Y-108440951D01*
X158477475Y-108440951D01*
X158439137Y-108442617D01*
X158410800Y-108452063D01*
X158388298Y-108481511D01*
X158380797Y-108538741D01*
X158391076Y-108600971D01*
X158421913Y-108629863D01*
X158478587Y-108636531D01*
X158674167Y-108636531D01*
X158745287Y-108662645D01*
X158770845Y-108732654D01*
X158744175Y-108803774D01*
X158674167Y-108830999D01*
X158477475Y-108830999D01*
X158439137Y-108832666D01*
X158410800Y-108843223D01*
X158388298Y-108871838D01*
X158380797Y-108928789D01*
X158141508Y-108928789D01*
X158141508Y-107918663D01*
X158373018Y-107918663D01*
X158405244Y-107986449D01*
X158413023Y-107997562D01*
X158442054Y-108030066D01*
X158486921Y-108076461D01*
X158532066Y-108123411D01*
X158561930Y-108157582D01*
X158476364Y-108157582D01*
X158438026Y-108159249D01*
X158408578Y-108169806D01*
X158386909Y-108198420D01*
X158379685Y-108255372D01*
X158387186Y-108311768D01*
X158409689Y-108340938D01*
X158439137Y-108350384D01*
X158477475Y-108352051D01*
X159143114Y-108352051D01*
X159181452Y-108350384D01*
X159210900Y-108340938D01*
X159233403Y-108311490D01*
X159240904Y-108254261D01*
X159222013Y-108178696D01*
X159173118Y-108158693D01*
X159142003Y-108157582D01*
X158789737Y-108157582D01*
X158846410Y-108097019D01*
X158903084Y-108036456D01*
X158911974Y-108023121D01*
X158941978Y-107956446D01*
X158896972Y-107892549D01*
X158826408Y-107856433D01*
X158766400Y-107897549D01*
X158673055Y-108007563D01*
X158550818Y-107859767D01*
X158515258Y-107824762D01*
X158491922Y-107817539D01*
X158419690Y-107851988D01*
X158373018Y-107918663D01*
X158141508Y-107918663D01*
X158141508Y-107724935D01*
X158760659Y-107312168D01*
X159379810Y-107724935D01*
X159379810Y-110053745D01*
X158760659Y-110466512D01*
G37*
%TD*%
M02*
