M48
; DRILL file {KiCad (6.0.0)} date Sat Jan 22 13:45:42 2022
; FORMAT={-:-/ absolute / inch / decimal}
; #@! TF.CreationDate,2022-01-22T13:45:42-08:00
; #@! TF.GenerationSoftware,Kicad,Pcbnew,(6.0.0)
; #@! TF.FileFunction,Plated,1,2,PTH
FMAT,2
INCH
; #@! TA.AperFunction,Plated,PTH,ViaDrill
T1C0.0079
; #@! TA.AperFunction,Plated,PTH,ComponentDrill
T2C0.0197
%
G90
G05
T1
X5.8346Y-3.4193
X5.8346Y-3.7736
X5.8346Y-4.1452
X5.8346Y-4.4996
X5.8406Y-3.3381
X5.8406Y-3.6924
X5.8406Y-4.0641
X5.8406Y-4.4184
X5.9075Y-3.3386
X5.9075Y-3.6929
X5.9075Y-4.0645
X5.9075Y-4.4189
X5.9134Y-3.4193
X5.9134Y-3.7736
X5.9134Y-4.1452
X5.9134Y-4.4996
X6.2677Y-3.4193
X6.2677Y-3.7736
X6.2677Y-4.1452
X6.2677Y-4.4996
X6.2736Y-3.3381
X6.2736Y-3.6924
X6.2736Y-4.0641
X6.2736Y-4.4184
X6.3406Y-3.3386
X6.3406Y-3.6929
X6.3406Y-4.0645
X6.3406Y-4.4189
X6.3465Y-3.4193
X6.3465Y-3.7736
X6.3465Y-4.1452
X6.3465Y-4.4996
X6.7008Y-3.4193
X6.7008Y-3.7736
X6.7008Y-4.1452
X6.7008Y-4.4996
X6.7067Y-3.3381
X6.7067Y-3.6924
X6.7067Y-4.0641
X6.7067Y-4.4184
X6.7736Y-3.3386
X6.7736Y-3.6929
X6.7736Y-4.0645
X6.7736Y-4.4189
X6.7795Y-3.4193
X6.7795Y-3.7736
X6.7795Y-4.1452
X6.7795Y-4.4996
X7.1339Y-3.4193
X7.1339Y-3.7736
X7.1339Y-4.1452
X7.1339Y-4.4996
X7.1398Y-3.3381
X7.1398Y-3.6924
X7.1398Y-4.0641
X7.1398Y-4.4184
X7.2067Y-3.3386
X7.2067Y-3.6929
X7.2067Y-4.0645
X7.2067Y-4.4189
X7.2126Y-3.4193
X7.2126Y-3.7736
X7.2126Y-4.1452
X7.2126Y-4.4996
T2
G00X5.8169Y-3.4587
M15
G01X5.8366Y-3.4587
M16
G05
G00X5.8169Y-3.813
M15
G01X5.8366Y-3.813
M16
G05
G00X5.8169Y-4.1846
M15
G01X5.8366Y-4.1846
M16
G05
G00X5.8169Y-4.539
M15
G01X5.8366Y-4.539
M16
G05
G00X5.9114Y-3.4587
M15
G01X5.9311Y-3.4587
M16
G05
G00X5.9114Y-3.813
M15
G01X5.9311Y-3.813
M16
G05
G00X5.9114Y-4.1846
M15
G01X5.9311Y-4.1846
M16
G05
G00X5.9114Y-4.539
M15
G01X5.9311Y-4.539
M16
G05
G00X6.25Y-3.4587
M15
G01X6.2697Y-3.4587
M16
G05
G00X6.25Y-3.813
M15
G01X6.2697Y-3.813
M16
G05
G00X6.25Y-4.1846
M15
G01X6.2697Y-4.1846
M16
G05
G00X6.25Y-4.539
M15
G01X6.2697Y-4.539
M16
G05
G00X6.3445Y-3.4587
M15
G01X6.3642Y-3.4587
M16
G05
G00X6.3445Y-3.813
M15
G01X6.3642Y-3.813
M16
G05
G00X6.3445Y-4.1846
M15
G01X6.3642Y-4.1846
M16
G05
G00X6.3445Y-4.539
M15
G01X6.3642Y-4.539
M16
G05
G00X6.6831Y-3.4587
M15
G01X6.7028Y-3.4587
M16
G05
G00X6.6831Y-3.813
M15
G01X6.7028Y-3.813
M16
G05
G00X6.6831Y-4.1846
M15
G01X6.7028Y-4.1846
M16
G05
G00X6.6831Y-4.539
M15
G01X6.7028Y-4.539
M16
G05
G00X6.7776Y-3.4587
M15
G01X6.7972Y-3.4587
M16
G05
G00X6.7776Y-3.813
M15
G01X6.7972Y-3.813
M16
G05
G00X6.7776Y-4.1846
M15
G01X6.7972Y-4.1846
M16
G05
G00X6.7776Y-4.539
M15
G01X6.7972Y-4.539
M16
G05
G00X7.1161Y-3.4587
M15
G01X7.1358Y-3.4587
M16
G05
G00X7.1161Y-3.813
M15
G01X7.1358Y-3.813
M16
G05
G00X7.1161Y-4.1846
M15
G01X7.1358Y-4.1846
M16
G05
G00X7.1161Y-4.539
M15
G01X7.1358Y-4.539
M16
G05
G00X7.2106Y-3.4587
M15
G01X7.2303Y-3.4587
M16
G05
G00X7.2106Y-3.813
M15
G01X7.2303Y-3.813
M16
G05
G00X7.2106Y-4.1846
M15
G01X7.2303Y-4.1846
M16
G05
G00X7.2106Y-4.539
M15
G01X7.2303Y-4.539
M16
G05
T0
M30
